<svg width="216" height="44" viewBox="0 0 216 44" fill="none" xmlns="http://www.w3.org/2000/svg">
<rect width="216" height="44" rx="8" fill="white"/>
<path d="M9.88806 20.068C9.20406 20.068 8.66406 20.668 8.66406 21.4C8.66406 22.132 9.21606 22.732 9.88806 22.732C10.5721 22.732 11.1121 22.132 11.1121 21.4C11.1241 20.668 10.5721 20.068 9.88806 20.068ZM14.2681 20.068C13.5841 20.068 13.0441 20.668 13.0441 21.4C13.0441 22.132 13.5961 22.732 14.2681 22.732C14.9521 22.732 15.4921 22.132 15.4921 21.4C15.4921 20.668 14.9521 20.068 14.2681 20.068Z" fill="#298DFE"/>
<path d="M20.1001 10H4.02006C2.66406 10 1.56006 11.104 1.56006 12.472V28.696C1.56006 30.064 2.66406 31.168 4.02006 31.168H17.6281L16.9921 28.948L18.5281 30.376L19.9801 31.72L22.5601 34V12.472C22.5601 11.104 21.4561 10 20.1001 10ZM15.4681 25.672C15.4681 25.672 15.0361 25.156 14.6761 24.7C16.2481 24.256 16.8481 23.272 16.8481 23.272C16.3561 23.596 15.8881 23.824 15.4681 23.98C14.8681 24.232 14.2921 24.4 13.7281 24.496C12.5761 24.712 11.5201 24.652 10.6201 24.484C9.93606 24.352 9.34806 24.16 8.85606 23.968C8.58006 23.86 8.28006 23.728 7.98006 23.56C7.94406 23.536 7.90806 23.524 7.87206 23.5C7.84806 23.488 7.83606 23.476 7.82406 23.464C7.60806 23.344 7.48806 23.26 7.48806 23.26C7.48806 23.26 8.06406 24.22 9.58806 24.676C9.22806 25.132 8.78406 25.672 8.78406 25.672C6.13206 25.588 5.12406 23.848 5.12406 23.848C5.12406 19.984 6.85206 16.852 6.85206 16.852C8.58006 15.556 10.2241 15.592 10.2241 15.592L10.3441 15.736C8.18406 16.36 7.18806 17.308 7.18806 17.308C7.18806 17.308 7.45206 17.164 7.89606 16.96C9.18006 16.396 10.2001 16.24 10.6201 16.204C10.6921 16.192 10.7521 16.18 10.8241 16.18C11.5561 16.084 12.3841 16.06 13.2481 16.156C14.3881 16.288 15.6121 16.624 16.8601 17.308C16.8601 17.308 15.9121 16.408 13.8721 15.784L14.0401 15.592C14.0401 15.592 15.6841 15.556 17.4121 16.852C17.4121 16.852 19.1401 19.984 19.1401 23.848C19.1401 23.848 18.1201 25.588 15.4681 25.672Z" fill="#298DFE"/>
<path d="M42.496 28.208C41.216 28.208 40.1387 27.9253 39.264 27.36C38.4 26.784 37.7547 26.016 37.328 25.056C36.9013 24.096 36.688 23.04 36.688 21.888C36.688 20.736 36.9013 19.6853 37.328 18.736C37.7547 17.776 38.4 17.0133 39.264 16.448C40.1387 15.8827 41.216 15.6 42.496 15.6C43.936 15.6 45.0987 15.952 45.984 16.656C46.88 17.36 47.4187 18.2987 47.6 19.472H45.376C45.248 18.8213 44.9227 18.3147 44.4 17.952C43.888 17.5893 43.2427 17.408 42.464 17.408C41.2907 17.408 40.384 17.8187 39.744 18.64C39.104 19.4507 38.784 20.5333 38.784 21.888C38.784 23.2427 39.104 24.336 39.744 25.168C40.384 25.9893 41.2907 26.4 42.464 26.4C43.2533 26.4 43.904 26.208 44.416 25.824C44.928 25.44 45.248 24.8747 45.376 24.128H47.6C47.408 25.3867 46.8693 26.384 45.984 27.12C45.0987 27.8453 43.936 28.208 42.496 28.208ZM53.3243 28.176C52.4496 28.176 51.6709 27.9787 50.9883 27.584C50.3056 27.1893 49.7723 26.64 49.3883 25.936C49.0149 25.2213 48.8283 24.4053 48.8283 23.488C48.8283 22.6027 49.0149 21.8133 49.3883 21.12C49.7723 20.416 50.3056 19.872 50.9883 19.488C51.6709 19.0933 52.4496 18.896 53.3243 18.896C54.1989 18.896 54.9776 19.0933 55.6603 19.488C56.3429 19.872 56.8763 20.416 57.2603 21.12C57.6443 21.8133 57.8363 22.6027 57.8363 23.488C57.8363 24.3947 57.6443 25.2053 57.2603 25.92C56.8869 26.624 56.3589 27.1787 55.6763 27.584C54.9936 27.9787 54.2096 28.176 53.3243 28.176ZM53.3243 26.528C53.8149 26.528 54.2576 26.4 54.6523 26.144C55.0469 25.8773 55.3509 25.5147 55.5643 25.056C55.7883 24.5973 55.9003 24.0747 55.9003 23.488C55.9003 22.9333 55.7883 22.432 55.5643 21.984C55.3509 21.5253 55.0469 21.168 54.6523 20.912C54.2576 20.656 53.8149 20.528 53.3243 20.528C52.8336 20.528 52.3909 20.656 51.9963 20.912C51.6016 21.1573 51.2923 21.5093 51.0683 21.968C50.8549 22.416 50.7483 22.9227 50.7483 23.488C50.7483 24.0853 50.8603 24.6133 51.0843 25.072C51.3083 25.5307 51.6123 25.888 51.9963 26.144C52.3909 26.4 52.8336 26.528 53.3243 26.528ZM59.5556 19.056H61.4436V19.44C61.4436 19.6 61.4276 19.7333 61.3956 19.84C61.3636 19.9467 61.305 20.0587 61.2196 20.176L61.4436 20.32C61.7956 19.808 62.1636 19.4453 62.5476 19.232C62.9423 19.008 63.4063 18.896 63.9396 18.896C64.505 18.896 65.0063 19.024 65.4436 19.28C65.881 19.536 66.1476 19.9093 66.2436 20.4H66.4516C66.6756 19.8453 67.017 19.456 67.4756 19.232C67.9343 19.008 68.4463 18.896 69.0116 18.896C70.0036 18.896 70.745 19.1787 71.2356 19.744C71.7263 20.3093 71.9716 21.1093 71.9716 22.144V28H70.0836V22.432C70.0836 21.792 69.9503 21.3067 69.6836 20.976C69.417 20.6453 69.0383 20.48 68.5476 20.48C68.057 20.48 67.6516 20.64 67.3316 20.96C67.097 21.216 66.9316 21.5467 66.8356 21.952C66.7503 22.3573 66.7076 22.8747 66.7076 23.504V28H64.8196V22.432C64.8196 21.792 64.681 21.3067 64.4036 20.976C64.137 20.6453 63.753 20.48 63.2516 20.48C62.7716 20.48 62.377 20.6507 62.0676 20.992C61.8543 21.2267 61.6943 21.5413 61.5876 21.936C61.4916 22.3307 61.4436 22.8533 61.4436 23.504V28H59.5556V19.056ZM73.9775 19.056H75.8655V19.44C75.8655 19.6 75.8495 19.7333 75.8175 19.84C75.7855 19.9467 75.7268 20.0587 75.6415 20.176L75.8655 20.32C76.2175 19.808 76.5855 19.4453 76.9695 19.232C77.3642 19.008 77.8282 18.896 78.3615 18.896C78.9268 18.896 79.4282 19.024 79.8655 19.28C80.3028 19.536 80.5695 19.9093 80.6655 20.4H80.8735C81.0975 19.8453 81.4388 19.456 81.8975 19.232C82.3562 19.008 82.8682 18.896 83.4335 18.896C84.4255 18.896 85.1668 19.1787 85.6575 19.744C86.1482 20.3093 86.3935 21.1093 86.3935 22.144V28H84.5055V22.432C84.5055 21.792 84.3722 21.3067 84.1055 20.976C83.8388 20.6453 83.4602 20.48 82.9695 20.48C82.4788 20.48 82.0735 20.64 81.7535 20.96C81.5188 21.216 81.3535 21.5467 81.2575 21.952C81.1722 22.3573 81.1295 22.8747 81.1295 23.504V28H79.2415V22.432C79.2415 21.792 79.1028 21.3067 78.8255 20.976C78.5588 20.6453 78.1748 20.48 77.6735 20.48C77.1935 20.48 76.7988 20.6507 76.4895 20.992C76.2762 21.2267 76.1162 21.5413 76.0095 21.936C75.9135 22.3307 75.8655 22.8533 75.8655 23.504V28H73.9775V19.056ZM91.4714 28.176C90.138 28.176 89.226 27.6853 88.7354 26.704C88.5647 26.352 88.458 25.9947 88.4154 25.632C88.3727 25.2693 88.3514 24.8213 88.3514 24.288V19.056H90.2394V24.304C90.2394 25.2 90.394 25.8187 90.7034 26.16C90.9807 26.448 91.386 26.592 91.9194 26.592C92.5487 26.592 93.0287 26.4 93.3594 26.016C93.5727 25.76 93.7274 25.4293 93.8234 25.024C93.93 24.6187 93.9834 24.0693 93.9834 23.376V19.056H95.8714V28H93.9834V27.616C93.9834 27.456 93.9994 27.3227 94.0314 27.216C94.0634 27.0987 94.122 26.992 94.2074 26.896L93.9834 26.736C93.6207 27.2587 93.242 27.632 92.8474 27.856C92.4634 28.0693 92.0047 28.176 91.4714 28.176ZM97.9306 19.056H99.8186V19.44C99.8186 19.6 99.8026 19.7333 99.7706 19.84C99.7386 19.9467 99.68 20.0587 99.5946 20.176L99.8186 20.32C100.171 19.808 100.539 19.4453 100.923 19.232C101.317 19.008 101.781 18.896 102.315 18.896C103.659 18.896 104.571 19.3813 105.051 20.352C105.232 20.704 105.344 21.0613 105.387 21.424C105.429 21.7867 105.451 22.2347 105.451 22.768V28H103.547V22.768C103.547 22.2987 103.509 21.9147 103.435 21.616C103.371 21.3173 103.259 21.0827 103.099 20.912C102.843 20.624 102.437 20.48 101.883 20.48C101.243 20.48 100.757 20.672 100.427 21.056C100.213 21.3013 100.059 21.6267 99.9626 22.032C99.8666 22.4373 99.8186 22.992 99.8186 23.696V28H97.9306V19.056ZM107.446 28V19.056H109.334V28H107.446ZM108.39 17.904C108.049 17.904 107.756 17.7973 107.51 17.584C107.276 17.36 107.158 17.0827 107.158 16.752C107.158 16.4213 107.276 16.1493 107.51 15.936C107.756 15.712 108.049 15.6 108.39 15.6C108.742 15.6 109.036 15.712 109.27 15.936C109.505 16.1493 109.622 16.4213 109.622 16.752C109.622 17.0827 109.505 17.36 109.27 17.584C109.036 17.7973 108.742 17.904 108.39 17.904ZM114.199 28C113.506 28 112.983 27.84 112.631 27.52C112.279 27.2 112.103 26.672 112.103 25.936V20.624H110.759V19.056H112.103V15.792H113.991V19.056H115.815V20.624H113.991V25.408C113.991 25.7493 114.045 26.0053 114.151 26.176C114.258 26.336 114.493 26.416 114.855 26.416H115.799V28H114.199ZM117.495 29.648H118.439C118.77 29.648 119.015 29.5947 119.175 29.488C119.346 29.392 119.5 29.1733 119.639 28.832L119.959 27.968L116.599 19.056H118.647L120.599 24.688C120.695 24.9653 120.77 25.3227 120.823 25.76H121.015C121.047 25.3867 121.122 25.0293 121.239 24.688L123.031 19.056H125.079L121.431 29.296C121.164 30.0427 120.85 30.5547 120.487 30.832C120.124 31.12 119.607 31.264 118.935 31.264H117.495V29.648ZM134.856 28.176C133.981 28.176 133.202 27.9787 132.52 27.584C131.837 27.1893 131.304 26.64 130.92 25.936C130.546 25.2213 130.36 24.4053 130.36 23.488C130.36 22.6027 130.546 21.8133 130.92 21.12C131.304 20.416 131.837 19.872 132.52 19.488C133.202 19.0933 133.981 18.896 134.856 18.896C135.73 18.896 136.509 19.0933 137.192 19.488C137.874 19.872 138.408 20.416 138.792 21.12C139.176 21.8133 139.368 22.6027 139.368 23.488C139.368 24.3947 139.176 25.2053 138.792 25.92C138.418 26.624 137.89 27.1787 137.208 27.584C136.525 27.9787 135.741 28.176 134.856 28.176ZM134.856 26.528C135.346 26.528 135.789 26.4 136.184 26.144C136.578 25.8773 136.882 25.5147 137.096 25.056C137.32 24.5973 137.432 24.0747 137.432 23.488C137.432 22.9333 137.32 22.432 137.096 21.984C136.882 21.5253 136.578 21.168 136.184 20.912C135.789 20.656 135.346 20.528 134.856 20.528C134.365 20.528 133.922 20.656 133.528 20.912C133.133 21.1573 132.824 21.5093 132.6 21.968C132.386 22.416 132.28 22.9227 132.28 23.488C132.28 24.0853 132.392 24.6133 132.616 25.072C132.84 25.5307 133.144 25.888 133.528 26.144C133.922 26.4 134.365 26.528 134.856 26.528ZM141.087 19.056H142.975V19.44C142.975 19.6 142.959 19.7333 142.927 19.84C142.895 19.9467 142.836 20.0587 142.751 20.176L142.975 20.32C143.327 19.808 143.695 19.4453 144.079 19.232C144.474 19.008 144.938 18.896 145.471 18.896C146.815 18.896 147.727 19.3813 148.207 20.352C148.388 20.704 148.5 21.0613 148.543 21.424C148.586 21.7867 148.607 22.2347 148.607 22.768V28H146.703V22.768C146.703 22.2987 146.666 21.9147 146.591 21.616C146.527 21.3173 146.415 21.0827 146.255 20.912C145.999 20.624 145.594 20.48 145.039 20.48C144.399 20.48 143.914 20.672 143.583 21.056C143.37 21.3013 143.215 21.6267 143.119 22.032C143.023 22.4373 142.975 22.992 142.975 23.696V28H141.087V19.056ZM155.058 15.792H158.562C160.61 15.792 162.178 16.32 163.266 17.376C164.354 18.432 164.898 19.9413 164.898 21.904C164.898 23.856 164.349 25.36 163.25 26.416C162.162 27.472 160.594 28 158.546 28H155.058V15.792ZM158.53 26.176C159.885 26.176 160.946 25.856 161.714 25.216C162.482 24.5653 162.866 23.4613 162.866 21.904C162.866 20.432 162.482 19.3493 161.714 18.656C160.957 17.9627 159.895 17.616 158.53 17.616H157.09V26.176H158.53ZM166.649 28V19.056H168.537V28H166.649ZM167.593 17.904C167.252 17.904 166.959 17.7973 166.713 17.584C166.479 17.36 166.361 17.0827 166.361 16.752C166.361 16.4213 166.479 16.1493 166.713 15.936C166.959 15.712 167.252 15.6 167.593 15.6C167.945 15.6 168.239 15.712 168.473 15.936C168.708 16.1493 168.825 16.4213 168.825 16.752C168.825 17.0827 168.708 17.36 168.473 17.584C168.239 17.7973 167.945 17.904 167.593 17.904ZM174.363 28.176C173.253 28.176 172.309 27.9093 171.531 27.376C170.763 26.8427 170.304 26.064 170.155 25.04H172.059C172.187 25.552 172.448 25.9467 172.843 26.224C173.237 26.5013 173.744 26.64 174.363 26.64C174.885 26.64 175.301 26.544 175.611 26.352C175.931 26.1493 176.091 25.8667 176.091 25.504C176.091 25.216 175.989 24.9867 175.787 24.816C175.595 24.6453 175.349 24.5173 175.051 24.432C174.763 24.336 174.363 24.2347 173.851 24.128C173.147 23.9893 172.571 23.8453 172.123 23.696C171.685 23.5467 171.307 23.3013 170.987 22.96C170.677 22.608 170.523 22.128 170.523 21.52C170.523 20.6667 170.843 20.016 171.483 19.568C172.123 19.12 172.933 18.896 173.915 18.896C174.939 18.896 175.792 19.1573 176.475 19.68C177.157 20.2027 177.579 20.928 177.739 21.856H175.963C175.835 21.376 175.589 21.0187 175.227 20.784C174.864 20.5387 174.427 20.416 173.915 20.416C173.435 20.416 173.056 20.5067 172.779 20.688C172.501 20.8693 172.363 21.1147 172.363 21.424C172.363 21.68 172.453 21.888 172.635 22.048C172.827 22.1973 173.061 22.3147 173.339 22.4C173.627 22.4747 174.021 22.56 174.523 22.656C175.237 22.784 175.824 22.928 176.283 23.088C176.741 23.248 177.136 23.5093 177.467 23.872C177.797 24.224 177.963 24.7147 177.963 25.344C177.963 26.208 177.643 26.896 177.003 27.408C176.363 27.92 175.483 28.176 174.363 28.176ZM183.792 28.176C182.917 28.176 182.144 27.9787 181.472 27.584C180.8 27.1893 180.277 26.64 179.904 25.936C179.531 25.2213 179.344 24.4053 179.344 23.488C179.344 22.6027 179.531 21.8133 179.904 21.12C180.277 20.416 180.8 19.872 181.472 19.488C182.144 19.0933 182.917 18.896 183.792 18.896C184.848 18.896 185.739 19.1627 186.464 19.696C187.2 20.2293 187.675 20.9547 187.888 21.872H185.84C185.691 21.424 185.435 21.0773 185.072 20.832C184.72 20.5867 184.293 20.464 183.792 20.464C183.301 20.464 182.864 20.592 182.48 20.848C182.096 21.0933 181.797 21.4453 181.584 21.904C181.371 22.3627 181.264 22.8907 181.264 23.488C181.264 24.1067 181.371 24.6507 181.584 25.12C181.797 25.5893 182.096 25.952 182.48 26.208C182.864 26.464 183.301 26.592 183.792 26.592C184.336 26.592 184.789 26.4533 185.152 26.176C185.525 25.8987 185.771 25.52 185.888 25.04H187.936C187.733 26.0213 187.259 26.7893 186.512 27.344C185.765 27.8987 184.859 28.176 183.792 28.176ZM193.668 28.176C192.793 28.176 192.015 27.9787 191.332 27.584C190.649 27.1893 190.116 26.64 189.732 25.936C189.359 25.2213 189.172 24.4053 189.172 23.488C189.172 22.6027 189.359 21.8133 189.732 21.12C190.116 20.416 190.649 19.872 191.332 19.488C192.015 19.0933 192.793 18.896 193.668 18.896C194.543 18.896 195.321 19.0933 196.004 19.488C196.687 19.872 197.22 20.416 197.604 21.12C197.988 21.8133 198.18 22.6027 198.18 23.488C198.18 24.3947 197.988 25.2053 197.604 25.92C197.231 26.624 196.703 27.1787 196.02 27.584C195.337 27.9787 194.553 28.176 193.668 28.176ZM193.668 26.528C194.159 26.528 194.601 26.4 194.996 26.144C195.391 25.8773 195.695 25.5147 195.908 25.056C196.132 24.5973 196.244 24.0747 196.244 23.488C196.244 22.9333 196.132 22.432 195.908 21.984C195.695 21.5253 195.391 21.168 194.996 20.912C194.601 20.656 194.159 20.528 193.668 20.528C193.177 20.528 192.735 20.656 192.34 20.912C191.945 21.1573 191.636 21.5093 191.412 21.968C191.199 22.416 191.092 22.9227 191.092 23.488C191.092 24.0853 191.204 24.6133 191.428 25.072C191.652 25.5307 191.956 25.888 192.34 26.144C192.735 26.4 193.177 26.528 193.668 26.528ZM199.899 19.056H201.787V19.44C201.787 19.6 201.771 19.7333 201.739 19.84C201.707 19.9467 201.649 20.0587 201.563 20.176L201.787 20.32C202.118 19.808 202.491 19.4453 202.907 19.232C203.323 19.008 203.835 18.896 204.443 18.896H204.651V20.736H204.171C203.457 20.736 202.907 20.928 202.523 21.312C202.033 21.7707 201.787 22.56 201.787 23.68V28H199.899V19.056ZM209.437 28.176C208.658 28.176 207.97 27.984 207.373 27.6C206.786 27.2053 206.328 26.656 205.997 25.952C205.666 25.248 205.501 24.4427 205.501 23.536C205.501 22.6293 205.666 21.824 205.997 21.12C206.328 20.416 206.786 19.872 207.373 19.488C207.97 19.0933 208.658 18.896 209.437 18.896C210.034 18.896 210.536 19.0027 210.941 19.216C211.357 19.4293 211.746 19.7973 212.109 20.32L212.333 20.176C212.248 20.0693 212.189 19.9627 212.157 19.856C212.125 19.7387 212.109 19.6 212.109 19.44V15.792H213.997V28H212.109V27.616C212.109 27.456 212.125 27.3227 212.157 27.216C212.189 27.0987 212.248 26.992 212.333 26.896L212.109 26.736C211.746 27.2587 211.362 27.632 210.957 27.856C210.552 28.0693 210.045 28.176 209.437 28.176ZM209.821 26.544C210.301 26.544 210.728 26.416 211.101 26.16C211.474 25.904 211.768 25.5467 211.981 25.088C212.194 24.6293 212.301 24.112 212.301 23.536C212.301 22.96 212.194 22.4427 211.981 21.984C211.768 21.5253 211.474 21.168 211.101 20.912C210.728 20.656 210.301 20.528 209.821 20.528C209.085 20.528 208.498 20.8107 208.061 21.376C207.624 21.9413 207.405 22.6613 207.405 23.536C207.405 24.4107 207.624 25.1307 208.061 25.696C208.498 26.2613 209.085 26.544 209.821 26.544Z" fill="#298DFE"/>
</svg>
