<svg width="98" height="44" viewBox="0 0 98 44" fill="none" xmlns="http://www.w3.org/2000/svg">
<rect width="98" height="44" rx="8" fill="white"/>
<g clip-path="url(#clip0_6529_183516)">
<path d="M20.4796 14.6443C20.3796 14.4943 20.2196 14.3443 20.0596 14.2843C18.8496 13.8642 17.6396 13.4242 16.4096 13.0742C15.3396 12.7741 15.3196 12.8241 14.8696 13.8442C14.7596 14.0943 14.6296 14.1343 14.3796 14.1243C13.0596 14.0843 11.7296 13.9543 10.4096 14.0743C9.53961 14.1543 8.99961 14.0243 8.75961 13.1442C8.69961 12.9241 8.54961 12.8641 8.31961 12.9041C6.78961 13.2142 5.29961 13.6542 3.87961 14.3043C3.72961 14.3743 3.59961 14.4943 3.50961 14.6243C0.849612 18.6348 -0.350388 23.0353 0.0796115 27.8558C0.0896115 27.9958 0.189612 28.1658 0.309612 28.2458C2.01961 29.496 3.88961 30.4461 5.91961 31.0761C6.01961 31.1061 6.21961 31.0861 6.26961 31.0161C6.68961 30.3861 7.08961 29.736 7.51961 29.0759C7.11961 28.8959 6.79961 28.7559 6.47961 28.6059C6.14961 28.4458 5.82961 28.2758 5.48961 28.0958C5.73961 27.7858 5.93961 27.6958 6.30961 27.8558C10.0896 29.466 13.8796 29.466 17.6596 27.8758C18.0296 27.7158 18.2596 27.7558 18.5096 28.1358C17.8596 28.4458 17.2196 28.7559 16.4896 29.1059C16.8696 29.716 17.2396 30.296 17.5996 30.8861C17.7496 31.1361 17.8996 31.1561 18.1696 31.0661C20.0096 30.4561 21.7196 29.596 23.3396 28.5159C23.7796 28.2258 23.9396 27.8858 23.9696 27.3857C24.2296 22.7452 23.0596 18.5048 20.4796 14.6443ZM10.1396 23.2353C9.93961 24.6054 8.91961 25.4655 7.70961 25.2955C6.66961 25.1555 5.86961 24.1254 5.86961 22.9252C5.86961 21.6551 6.74961 20.585 7.85961 20.525C9.24961 20.445 10.3596 21.7651 10.1396 23.2353ZM15.6696 25.2955C14.6596 25.1555 13.8796 24.1854 13.8296 22.9952C13.7796 21.6451 14.7396 20.525 15.9496 20.515C17.0496 20.505 17.9196 21.3351 18.0996 22.5852C18.3296 24.1354 17.1096 25.4955 15.6696 25.2955Z" fill="#298DFE"/>
</g>
<path d="M37.136 15.792H40.64C42.688 15.792 44.256 16.32 45.344 17.376C46.432 18.432 46.976 19.9413 46.976 21.904C46.976 23.856 46.4267 25.36 45.328 26.416C44.24 27.472 42.672 28 40.624 28H37.136V15.792ZM40.608 26.176C41.9627 26.176 43.024 25.856 43.792 25.216C44.56 24.5653 44.944 23.4613 44.944 21.904C44.944 20.432 44.56 19.3493 43.792 18.656C43.0347 17.9627 41.9733 17.616 40.608 17.616H39.168V26.176H40.608ZM48.7275 28V19.056H50.6155V28H48.7275ZM49.6715 17.904C49.3302 17.904 49.0368 17.7973 48.7915 17.584C48.5568 17.36 48.4395 17.0827 48.4395 16.752C48.4395 16.4213 48.5568 16.1493 48.7915 15.936C49.0368 15.712 49.3302 15.6 49.6715 15.6C50.0235 15.6 50.3168 15.712 50.5515 15.936C50.7862 16.1493 50.9035 16.4213 50.9035 16.752C50.9035 17.0827 50.7862 17.36 50.5515 17.584C50.3168 17.7973 50.0235 17.904 49.6715 17.904ZM56.4406 28.176C55.3313 28.176 54.3873 27.9093 53.6086 27.376C52.8406 26.8427 52.382 26.064 52.2326 25.04H54.1366C54.2646 25.552 54.526 25.9467 54.9206 26.224C55.3153 26.5013 55.822 26.64 56.4406 26.64C56.9633 26.64 57.3793 26.544 57.6886 26.352C58.0086 26.1493 58.1686 25.8667 58.1686 25.504C58.1686 25.216 58.0673 24.9867 57.8646 24.816C57.6726 24.6453 57.4273 24.5173 57.1286 24.432C56.8406 24.336 56.4406 24.2347 55.9286 24.128C55.2246 23.9893 54.6486 23.8453 54.2006 23.696C53.7633 23.5467 53.3846 23.3013 53.0646 22.96C52.7553 22.608 52.6006 22.128 52.6006 21.52C52.6006 20.6667 52.9206 20.016 53.5606 19.568C54.2006 19.12 55.0113 18.896 55.9926 18.896C57.0166 18.896 57.87 19.1573 58.5526 19.68C59.2353 20.2027 59.6566 20.928 59.8166 21.856H58.0406C57.9126 21.376 57.6673 21.0187 57.3046 20.784C56.942 20.5387 56.5046 20.416 55.9926 20.416C55.5126 20.416 55.134 20.5067 54.8566 20.688C54.5793 20.8693 54.4406 21.1147 54.4406 21.424C54.4406 21.68 54.5313 21.888 54.7126 22.048C54.9046 22.1973 55.1393 22.3147 55.4166 22.4C55.7046 22.4747 56.0993 22.56 56.6006 22.656C57.3153 22.784 57.902 22.928 58.3606 23.088C58.8193 23.248 59.214 23.5093 59.5446 23.872C59.8753 24.224 60.0406 24.7147 60.0406 25.344C60.0406 26.208 59.7206 26.896 59.0806 27.408C58.4406 27.92 57.5606 28.176 56.4406 28.176ZM65.87 28.176C64.9953 28.176 64.222 27.9787 63.55 27.584C62.878 27.1893 62.3553 26.64 61.982 25.936C61.6087 25.2213 61.422 24.4053 61.422 23.488C61.422 22.6027 61.6087 21.8133 61.982 21.12C62.3553 20.416 62.878 19.872 63.55 19.488C64.222 19.0933 64.9953 18.896 65.87 18.896C66.926 18.896 67.8167 19.1627 68.542 19.696C69.278 20.2293 69.7527 20.9547 69.966 21.872H67.918C67.7687 21.424 67.5127 21.0773 67.15 20.832C66.798 20.5867 66.3713 20.464 65.87 20.464C65.3793 20.464 64.942 20.592 64.558 20.848C64.174 21.0933 63.8753 21.4453 63.662 21.904C63.4487 22.3627 63.342 22.8907 63.342 23.488C63.342 24.1067 63.4487 24.6507 63.662 25.12C63.8753 25.5893 64.174 25.952 64.558 26.208C64.942 26.464 65.3793 26.592 65.87 26.592C66.414 26.592 66.8673 26.4533 67.23 26.176C67.6033 25.8987 67.8487 25.52 67.966 25.04H70.014C69.8113 26.0213 69.3367 26.7893 68.59 27.344C67.8433 27.8987 66.9367 28.176 65.87 28.176ZM75.7461 28.176C74.8715 28.176 74.0928 27.9787 73.4101 27.584C72.7275 27.1893 72.1941 26.64 71.8101 25.936C71.4368 25.2213 71.2501 24.4053 71.2501 23.488C71.2501 22.6027 71.4368 21.8133 71.8101 21.12C72.1941 20.416 72.7275 19.872 73.4101 19.488C74.0928 19.0933 74.8715 18.896 75.7461 18.896C76.6208 18.896 77.3995 19.0933 78.0821 19.488C78.7648 19.872 79.2981 20.416 79.6821 21.12C80.0661 21.8133 80.2581 22.6027 80.2581 23.488C80.2581 24.3947 80.0661 25.2053 79.6821 25.92C79.3088 26.624 78.7808 27.1787 78.0981 27.584C77.4155 27.9787 76.6315 28.176 75.7461 28.176ZM75.7461 26.528C76.2368 26.528 76.6795 26.4 77.0741 26.144C77.4688 25.8773 77.7728 25.5147 77.9861 25.056C78.2101 24.5973 78.3221 24.0747 78.3221 23.488C78.3221 22.9333 78.2101 22.432 77.9861 21.984C77.7728 21.5253 77.4688 21.168 77.0741 20.912C76.6795 20.656 76.2368 20.528 75.7461 20.528C75.2555 20.528 74.8128 20.656 74.4181 20.912C74.0235 21.1573 73.7141 21.5093 73.4901 21.968C73.2768 22.416 73.1701 22.9227 73.1701 23.488C73.1701 24.0853 73.2821 24.6133 73.5061 25.072C73.7301 25.5307 74.0341 25.888 74.4181 26.144C74.8128 26.4 75.2555 26.528 75.7461 26.528ZM81.9775 19.056H83.8655V19.44C83.8655 19.6 83.8495 19.7333 83.8175 19.84C83.7855 19.9467 83.7268 20.0587 83.6415 20.176L83.8655 20.32C84.1962 19.808 84.5695 19.4453 84.9855 19.232C85.4015 19.008 85.9135 18.896 86.5215 18.896H86.7295V20.736H86.2495C85.5348 20.736 84.9855 20.928 84.6015 21.312C84.1108 21.7707 83.8655 22.56 83.8655 23.68V28H81.9775V19.056ZM91.515 28.176C90.7363 28.176 90.0483 27.984 89.451 27.6C88.8643 27.2053 88.4057 26.656 88.075 25.952C87.7443 25.248 87.579 24.4427 87.579 23.536C87.579 22.6293 87.7443 21.824 88.075 21.12C88.4057 20.416 88.8643 19.872 89.451 19.488C90.0483 19.0933 90.7363 18.896 91.515 18.896C92.1123 18.896 92.6137 19.0027 93.019 19.216C93.435 19.4293 93.8243 19.7973 94.187 20.32L94.411 20.176C94.3257 20.0693 94.267 19.9627 94.235 19.856C94.203 19.7387 94.187 19.6 94.187 19.44V15.792H96.075V28H94.187V27.616C94.187 27.456 94.203 27.3227 94.235 27.216C94.267 27.0987 94.3257 26.992 94.411 26.896L94.187 26.736C93.8243 27.2587 93.4403 27.632 93.035 27.856C92.6297 28.0693 92.123 28.176 91.515 28.176ZM91.899 26.544C92.379 26.544 92.8057 26.416 93.179 26.16C93.5523 25.904 93.8457 25.5467 94.059 25.088C94.2723 24.6293 94.379 24.112 94.379 23.536C94.379 22.96 94.2723 22.4427 94.059 21.984C93.8457 21.5253 93.5523 21.168 93.179 20.912C92.8057 20.656 92.379 20.528 91.899 20.528C91.163 20.528 90.5763 20.8107 90.139 21.376C89.7017 21.9413 89.483 22.6613 89.483 23.536C89.483 24.4107 89.7017 25.1307 90.139 25.696C90.5763 26.2613 91.163 26.544 91.899 26.544Z" fill="#298DFE"/>
<defs>
<clipPath id="clip0_6529_183516">
<rect width="24" height="18.212" fill="white" transform="translate(0 12.8945)"/>
</clipPath>
</defs>
</svg>
