<svg width="175" height="44" viewBox="0 0 175 44" fill="none" xmlns="http://www.w3.org/2000/svg">
<rect width="175" height="44" rx="8" fill="white"/>
<path d="M10.1156 22.635C11.271 23.3018 11.8486 23.6352 12.4831 23.6358C13.1175 23.6363 13.6957 23.3039 14.8523 22.6391L22.2245 18.4013C22.5573 18.21 22.7625 17.8554 22.7625 17.4715C22.7625 17.0876 22.5573 16.733 22.2245 16.5417L14.8496 12.3024C13.6943 11.6383 13.1167 11.3063 12.4829 11.3065C11.8491 11.3068 11.2717 11.6393 10.1169 12.3043L3.77697 15.9552C3.72997 15.9823 3.70649 15.9958 3.68458 16.0086C1.51891 17.2764 0.180883 19.591 0.162992 22.1004C0.162811 22.1258 0.162811 22.1529 0.162811 22.2071C0.162811 22.2613 0.162811 22.2883 0.162992 22.3137C0.180843 24.8203 1.51588 27.1326 3.6777 28.4014C3.69955 28.4143 3.72299 28.4278 3.76992 28.4549L7.74126 30.7478C10.0553 32.0839 11.2124 32.7519 12.483 32.7524C13.7536 32.7528 14.9111 32.0855 17.2261 30.751L21.4183 28.3343C22.5775 27.666 23.1571 27.3319 23.4753 26.7811C23.7936 26.2303 23.7936 25.5613 23.7936 24.2234V21.6387C23.7936 21.2675 23.5926 20.9254 23.2683 20.7448C22.9545 20.57 22.572 20.5726 22.2606 20.7516L13.6643 25.693C13.0875 26.0246 12.7991 26.1904 12.4827 26.1905C12.1662 26.1905 11.8777 26.0249 11.3008 25.6938L5.4826 22.354C5.19116 22.1867 5.04543 22.103 4.92838 22.0879C4.66154 22.0535 4.40496 22.203 4.30331 22.4521C4.25875 22.5614 4.25963 22.7294 4.26144 23.0654C4.26277 23.3129 4.26344 23.4366 4.28655 23.5503C4.33835 23.8051 4.47238 24.0359 4.66811 24.207C4.75551 24.2834 4.86262 24.3453 5.07689 24.4689L11.2975 28.0592C11.876 28.3931 12.1652 28.56 12.4828 28.5601C12.8004 28.5602 13.0897 28.3934 13.6683 28.0599L21.2929 23.6647C21.4906 23.5508 21.5894 23.4939 21.6635 23.5367C21.7376 23.5795 21.7376 23.6935 21.7376 23.9217V25.094C21.7376 25.4286 21.7376 25.5958 21.658 25.7335C21.5785 25.8712 21.4336 25.9547 21.1438 26.1218L14.855 29.7469C13.6972 30.4143 13.1183 30.748 12.4829 30.7477C11.8475 30.7474 11.2689 30.4132 10.1118 29.7447L4.22803 26.3459C4.20934 26.3351 4.2 26.3297 4.19129 26.3246C2.95763 25.6038 2.1964 24.2849 2.18926 22.8561C2.18921 22.846 2.18921 22.8352 2.18921 22.8136V21.7375C2.18921 20.9487 2.60931 20.2196 3.29174 19.8241C3.89476 19.4745 4.63857 19.4738 5.24223 19.8223L10.1156 22.635Z" fill="#298DFE"/>
<path d="M37.136 15.792H42.176C43.3707 15.792 44.3093 16.0907 44.992 16.688C45.6853 17.2747 46.032 18.1653 46.032 19.36C46.032 20.32 45.7867 21.104 45.296 21.712C45.072 21.968 44.8373 22.1547 44.592 22.272C44.3467 22.3893 44.1013 22.432 43.856 22.4L43.76 22.624C43.92 22.7413 44.0427 22.8693 44.128 23.008C44.2133 23.1467 44.3093 23.3387 44.416 23.584L46.288 28H44.128L42.112 23.008H39.168V28H37.136V15.792ZM41.904 21.248C42.5973 21.248 43.1253 21.0933 43.488 20.784C43.8507 20.464 44.032 20.0107 44.032 19.424C44.032 18.8373 43.8453 18.3893 43.472 18.08C43.1093 17.7707 42.5867 17.616 41.904 17.616H39.168V21.248H41.904ZM51.761 28.176C50.8863 28.176 50.1077 27.9787 49.425 27.584C48.753 27.1787 48.2303 26.6293 47.857 25.936C47.4837 25.232 47.297 24.4427 47.297 23.568C47.297 22.7573 47.4623 21.9947 47.793 21.28C48.1343 20.5653 48.6357 19.9893 49.297 19.552C49.969 19.1147 50.7743 18.896 51.713 18.896C52.5023 18.896 53.233 19.0667 53.905 19.408C54.5877 19.7387 55.1317 20.2453 55.537 20.928C55.953 21.6107 56.161 22.448 56.161 23.44V23.92H50.241C49.6863 23.92 49.3023 23.904 49.089 23.872L49.025 24.128C49.121 24.1493 49.185 24.192 49.217 24.256C49.2597 24.3093 49.3023 24.3947 49.345 24.512C49.441 24.736 49.4997 24.8693 49.521 24.912C49.7343 25.4133 50.0383 25.808 50.433 26.096C50.8383 26.384 51.297 26.528 51.809 26.528C52.353 26.528 52.817 26.3893 53.201 26.112C53.5957 25.824 53.8783 25.4667 54.049 25.04H56.001C55.713 25.968 55.2117 26.7253 54.497 27.312C53.7823 27.888 52.8703 28.176 51.761 28.176ZM49.297 22.688C49.457 22.592 49.5957 22.528 49.713 22.496C49.841 22.4533 49.9903 22.432 50.161 22.432H53.329C53.5103 22.432 53.665 22.4533 53.793 22.496C53.9317 22.528 54.081 22.592 54.241 22.688L54.401 22.48C54.305 22.4267 54.241 22.3787 54.209 22.336C54.1877 22.2827 54.161 22.208 54.129 22.112C54.1077 21.9627 54.033 21.7867 53.905 21.584C53.6917 21.2107 53.3983 20.928 53.025 20.736C52.6517 20.5333 52.2357 20.432 51.777 20.432C51.3077 20.432 50.8917 20.5333 50.529 20.736C50.1663 20.928 49.873 21.2107 49.649 21.584C49.5637 21.7227 49.489 21.8987 49.425 22.112C49.4037 22.1973 49.377 22.2667 49.345 22.32C49.313 22.3627 49.249 22.416 49.153 22.48L49.297 22.688ZM60.3965 28.176C59.5218 28.176 58.8178 27.9467 58.2845 27.488C57.7512 27.0293 57.4845 26.3893 57.4845 25.568C57.4845 24.736 57.8098 24.08 58.4605 23.6C58.9298 23.2587 59.6232 22.9973 60.5405 22.816L63.3725 22.288C63.3618 21.6907 63.2018 21.232 62.8925 20.912C62.5618 20.5813 62.1138 20.416 61.5485 20.416C61.0898 20.416 60.6898 20.5493 60.3485 20.816C60.0072 21.072 59.7938 21.424 59.7085 21.872H57.8205C57.9698 20.912 58.3965 20.176 59.1005 19.664C59.8152 19.152 60.6365 18.896 61.5645 18.896C62.0978 18.896 62.5938 18.9707 63.0525 19.12C63.5218 19.2693 63.9218 19.4933 64.2525 19.792C64.6898 20.1973 64.9618 20.672 65.0685 21.216C65.1858 21.76 65.2445 22.4053 65.2445 23.152V28H63.3565V27.696C63.3565 27.4507 63.4205 27.1573 63.5485 26.816L63.3245 26.704C63.1005 27.0987 62.8125 27.424 62.4605 27.68C61.9698 28.0107 61.2818 28.176 60.3965 28.176ZM60.8125 26.64C61.2498 26.64 61.6605 26.5493 62.0445 26.368C62.4818 26.144 62.7912 25.872 62.9725 25.552C63.0792 25.36 63.1592 25.1787 63.2125 25.008C63.2658 24.8373 63.3245 24.608 63.3885 24.32C63.4205 24.1813 63.4632 24.08 63.5165 24.016C63.5698 23.9413 63.6445 23.8987 63.7405 23.888L63.6925 23.632C62.8285 23.824 62.2312 23.9467 61.9005 24L61.0045 24.176C60.3858 24.304 59.9485 24.4853 59.6925 24.72C59.4792 24.9333 59.3725 25.2 59.3725 25.52C59.3725 25.872 59.5005 26.1493 59.7565 26.352C60.0232 26.544 60.3752 26.64 60.8125 26.64ZM70.8275 28.176C70.0488 28.176 69.3608 27.984 68.7635 27.6C68.1768 27.2053 67.7182 26.656 67.3875 25.952C67.0568 25.248 66.8915 24.4427 66.8915 23.536C66.8915 22.6293 67.0568 21.824 67.3875 21.12C67.7182 20.416 68.1768 19.872 68.7635 19.488C69.3608 19.0933 70.0488 18.896 70.8275 18.896C71.4248 18.896 71.9262 19.0027 72.3315 19.216C72.7475 19.4293 73.1368 19.7973 73.4995 20.32L73.7235 20.176C73.6382 20.0693 73.5795 19.9627 73.5475 19.856C73.5155 19.7387 73.4995 19.6 73.4995 19.44V15.792H75.3875V28H73.4995V27.616C73.4995 27.456 73.5155 27.3227 73.5475 27.216C73.5795 27.0987 73.6382 26.992 73.7235 26.896L73.4995 26.736C73.1368 27.2587 72.7528 27.632 72.3475 27.856C71.9422 28.0693 71.4355 28.176 70.8275 28.176ZM71.2115 26.544C71.6915 26.544 72.1182 26.416 72.4915 26.16C72.8648 25.904 73.1582 25.5467 73.3715 25.088C73.5848 24.6293 73.6915 24.112 73.6915 23.536C73.6915 22.96 73.5848 22.4427 73.3715 21.984C73.1582 21.5253 72.8648 21.168 72.4915 20.912C72.1182 20.656 71.6915 20.528 71.2115 20.528C70.4755 20.528 69.8888 20.8107 69.4515 21.376C69.0142 21.9413 68.7955 22.6613 68.7955 23.536C68.7955 24.4107 69.0142 25.1307 69.4515 25.696C69.8888 26.2613 70.4755 26.544 71.2115 26.544ZM85.9493 28.176C85.0746 28.176 84.2959 27.9787 83.6133 27.584C82.9306 27.1893 82.3973 26.64 82.0133 25.936C81.6399 25.2213 81.4533 24.4053 81.4533 23.488C81.4533 22.6027 81.6399 21.8133 82.0133 21.12C82.3973 20.416 82.9306 19.872 83.6133 19.488C84.2959 19.0933 85.0746 18.896 85.9493 18.896C86.8239 18.896 87.6026 19.0933 88.2853 19.488C88.9679 19.872 89.5013 20.416 89.8853 21.12C90.2693 21.8133 90.4613 22.6027 90.4613 23.488C90.4613 24.3947 90.2693 25.2053 89.8853 25.92C89.5119 26.624 88.9839 27.1787 88.3013 27.584C87.6186 27.9787 86.8346 28.176 85.9493 28.176ZM85.9493 26.528C86.4399 26.528 86.8826 26.4 87.2773 26.144C87.6719 25.8773 87.9759 25.5147 88.1893 25.056C88.4133 24.5973 88.5253 24.0747 88.5253 23.488C88.5253 22.9333 88.4133 22.432 88.1893 21.984C87.9759 21.5253 87.6719 21.168 87.2773 20.912C86.8826 20.656 86.4399 20.528 85.9493 20.528C85.4586 20.528 85.0159 20.656 84.6213 20.912C84.2266 21.1573 83.9173 21.5093 83.6933 21.968C83.4799 22.416 83.3733 22.9227 83.3733 23.488C83.3733 24.0853 83.4853 24.6133 83.7093 25.072C83.9333 25.5307 84.2373 25.888 84.6213 26.144C85.0159 26.4 85.4586 26.528 85.9493 26.528ZM95.2526 28.176C93.9193 28.176 93.0073 27.6853 92.5166 26.704C92.346 26.352 92.2393 25.9947 92.1966 25.632C92.154 25.2693 92.1326 24.8213 92.1326 24.288V19.056H94.0206V24.304C94.0206 25.2 94.1753 25.8187 94.4846 26.16C94.762 26.448 95.1673 26.592 95.7006 26.592C96.33 26.592 96.81 26.4 97.1406 26.016C97.354 25.76 97.5086 25.4293 97.6046 25.024C97.7113 24.6187 97.7646 24.0693 97.7646 23.376V19.056H99.6526V28H97.7646V27.616C97.7646 27.456 97.7806 27.3227 97.8126 27.216C97.8446 27.0987 97.9033 26.992 97.9886 26.896L97.7646 26.736C97.402 27.2587 97.0233 27.632 96.6286 27.856C96.2446 28.0693 95.786 28.176 95.2526 28.176ZM101.712 19.056H103.6V19.44C103.6 19.6 103.584 19.7333 103.552 19.84C103.52 19.9467 103.461 20.0587 103.376 20.176L103.6 20.32C103.931 19.808 104.304 19.4453 104.72 19.232C105.136 19.008 105.648 18.896 106.256 18.896H106.464V20.736H105.984C105.269 20.736 104.72 20.928 104.336 21.312C103.845 21.7707 103.6 22.56 103.6 23.68V28H101.712V19.056ZM117.717 28.208C116.415 28.208 115.322 27.92 114.437 27.344C113.551 26.768 112.89 26.0053 112.453 25.056C112.026 24.096 111.813 23.0453 111.813 21.904C111.813 20.7627 112.026 19.7173 112.453 18.768C112.89 17.808 113.551 17.04 114.437 16.464C115.322 15.888 116.41 15.6 117.701 15.6C119.173 15.6 120.367 15.9467 121.285 16.64C122.213 17.3227 122.826 18.2613 123.125 19.456H120.869C120.645 18.8053 120.261 18.304 119.717 17.952C119.183 17.5893 118.506 17.408 117.685 17.408C116.863 17.408 116.17 17.6053 115.605 18C115.039 18.3947 114.613 18.9333 114.325 19.616C114.047 20.288 113.909 21.04 113.909 21.872C113.909 22.736 114.058 23.5093 114.357 24.192C114.655 24.8747 115.098 25.4133 115.685 25.808C116.271 26.2027 116.986 26.4 117.829 26.4C118.607 26.4 119.279 26.2293 119.845 25.888C120.41 25.5467 120.81 25.0827 121.045 24.496C121.141 24.2507 121.21 23.9627 121.253 23.632C121.274 23.4827 121.295 23.3653 121.317 23.28C121.349 23.184 121.391 23.1093 121.445 23.056L121.253 22.864C121.125 22.992 120.991 23.072 120.853 23.104C120.714 23.136 120.485 23.152 120.165 23.152H118.485V21.44H123.269V28H121.413V26.16H121.157C121.157 26.7147 120.874 27.1733 120.309 27.536C119.989 27.7493 119.599 27.9147 119.141 28.032C118.693 28.1493 118.218 28.208 117.717 28.208ZM125.228 28V19.056H127.116V28H125.228ZM126.172 17.904C125.83 17.904 125.537 17.7973 125.292 17.584C125.057 17.36 124.94 17.0827 124.94 16.752C124.94 16.4213 125.057 16.1493 125.292 15.936C125.537 15.712 125.83 15.6 126.172 15.6C126.524 15.6 126.817 15.712 127.052 15.936C127.286 16.1493 127.404 16.4213 127.404 16.752C127.404 17.0827 127.286 17.36 127.052 17.584C126.817 17.7973 126.524 17.904 126.172 17.904ZM131.981 28C131.287 28 130.765 27.84 130.413 27.52C130.061 27.2 129.885 26.672 129.885 25.936V20.624H128.541V19.056H129.885V15.792H131.773V19.056H133.597V20.624H131.773V25.408C131.773 25.7493 131.826 26.0053 131.933 26.176C132.039 26.336 132.274 26.416 132.637 26.416H133.581V28H131.981ZM139.756 28.176C139.148 28.176 138.642 28.0693 138.236 27.856C137.831 27.632 137.447 27.2587 137.084 26.736L136.86 26.896C136.946 26.992 137.004 27.0987 137.036 27.216C137.068 27.3227 137.084 27.456 137.084 27.616V28H135.196V15.792H137.084V19.44C137.084 19.6 137.068 19.7387 137.036 19.856C137.004 19.9627 136.946 20.0693 136.86 20.176L137.084 20.32C137.447 19.7973 137.831 19.4293 138.236 19.216C138.652 19.0027 139.159 18.896 139.756 18.896C140.535 18.896 141.218 19.0933 141.804 19.488C142.402 19.872 142.866 20.416 143.196 21.12C143.527 21.824 143.692 22.6293 143.692 23.536C143.692 24.4427 143.527 25.248 143.196 25.952C142.866 26.656 142.402 27.2053 141.804 27.6C141.218 27.984 140.535 28.176 139.756 28.176ZM139.372 26.544C140.108 26.544 140.695 26.2613 141.132 25.696C141.57 25.1307 141.788 24.4107 141.788 23.536C141.788 22.6613 141.57 21.9413 141.132 21.376C140.695 20.8107 140.108 20.528 139.372 20.528C138.892 20.528 138.466 20.656 138.092 20.912C137.719 21.168 137.426 21.5253 137.212 21.984C136.999 22.4427 136.892 22.96 136.892 23.536C136.892 24.112 136.999 24.6293 137.212 25.088C137.426 25.5467 137.719 25.904 138.092 26.16C138.466 26.416 138.892 26.544 139.372 26.544ZM149.559 28.176C148.684 28.176 147.905 27.9787 147.223 27.584C146.54 27.1893 146.007 26.64 145.623 25.936C145.249 25.2213 145.063 24.4053 145.063 23.488C145.063 22.6027 145.249 21.8133 145.623 21.12C146.007 20.416 146.54 19.872 147.223 19.488C147.905 19.0933 148.684 18.896 149.559 18.896C150.433 18.896 151.212 19.0933 151.895 19.488C152.577 19.872 153.111 20.416 153.495 21.12C153.879 21.8133 154.071 22.6027 154.071 23.488C154.071 24.3947 153.879 25.2053 153.495 25.92C153.121 26.624 152.593 27.1787 151.911 27.584C151.228 27.9787 150.444 28.176 149.559 28.176ZM149.559 26.528C150.049 26.528 150.492 26.4 150.887 26.144C151.281 25.8773 151.585 25.5147 151.799 25.056C152.023 24.5973 152.135 24.0747 152.135 23.488C152.135 22.9333 152.023 22.432 151.799 21.984C151.585 21.5253 151.281 21.168 150.887 20.912C150.492 20.656 150.049 20.528 149.559 20.528C149.068 20.528 148.625 20.656 148.231 20.912C147.836 21.1573 147.527 21.5093 147.303 21.968C147.089 22.416 146.983 22.9227 146.983 23.488C146.983 24.0853 147.095 24.6133 147.319 25.072C147.543 25.5307 147.847 25.888 148.231 26.144C148.625 26.4 149.068 26.528 149.559 26.528ZM159.918 28.176C159.043 28.176 158.265 27.9787 157.582 27.584C156.899 27.1893 156.366 26.64 155.982 25.936C155.609 25.2213 155.422 24.4053 155.422 23.488C155.422 22.6027 155.609 21.8133 155.982 21.12C156.366 20.416 156.899 19.872 157.582 19.488C158.265 19.0933 159.043 18.896 159.918 18.896C160.793 18.896 161.571 19.0933 162.254 19.488C162.937 19.872 163.47 20.416 163.854 21.12C164.238 21.8133 164.43 22.6027 164.43 23.488C164.43 24.3947 164.238 25.2053 163.854 25.92C163.481 26.624 162.953 27.1787 162.27 27.584C161.587 27.9787 160.803 28.176 159.918 28.176ZM159.918 26.528C160.409 26.528 160.851 26.4 161.246 26.144C161.641 25.8773 161.945 25.5147 162.158 25.056C162.382 24.5973 162.494 24.0747 162.494 23.488C162.494 22.9333 162.382 22.432 162.158 21.984C161.945 21.5253 161.641 21.168 161.246 20.912C160.851 20.656 160.409 20.528 159.918 20.528C159.427 20.528 158.985 20.656 158.59 20.912C158.195 21.1573 157.886 21.5093 157.662 21.968C157.449 22.416 157.342 22.9227 157.342 23.488C157.342 24.0853 157.454 24.6133 157.678 25.072C157.902 25.5307 158.206 25.888 158.59 26.144C158.985 26.4 159.427 26.528 159.918 26.528ZM166.149 15.792H168.037V20.976C168.037 21.2427 168.027 21.4773 168.005 21.68C167.995 21.8827 167.952 22.1173 167.877 22.384L168.069 22.48C168.443 22.064 168.715 21.7813 168.885 21.632L171.525 19.056H173.989L170.485 22.384C170.283 22.576 170.037 22.7307 169.749 22.848V23.072C170.005 23.1893 170.251 23.376 170.485 23.632L174.309 28H171.909L168.885 24.48C168.725 24.2987 168.453 23.9733 168.069 23.504L167.877 23.584C167.952 23.872 167.995 24.1227 168.005 24.336C168.027 24.5493 168.037 24.8 168.037 25.088V28H166.149V15.792Z" fill="#298DFE"/>
</svg>
