<svg width="115" height="44" viewBox="0 0 115 44" fill="none" xmlns="http://www.w3.org/2000/svg">
<rect width="115" height="44" rx="8" fill="white"/>
<g clip-path="url(#clip0_3407_9674)">
<path d="M12 12.1609C15.2063 12.1609 15.5859 12.175 16.8469 12.2312C18.0188 12.2828 18.6516 12.4797 19.0734 12.6438C19.6313 12.8594 20.0344 13.1219 20.4516 13.5391C20.8734 13.9609 21.1313 14.3594 21.3469 14.9172C21.5109 15.3391 21.7078 15.9766 21.7594 17.1437C21.8156 18.4094 21.8297 18.7891 21.8297 21.9906C21.8297 25.1969 21.8156 25.5766 21.7594 26.8375C21.7078 28.0094 21.5109 28.6422 21.3469 29.0641C21.1313 29.6219 20.8687 30.025 20.4516 30.4422C20.0297 30.8641 19.6313 31.1219 19.0734 31.3375C18.6516 31.5016 18.0141 31.6984 16.8469 31.75C15.5813 31.8062 15.2016 31.8203 12 31.8203C8.79375 31.8203 8.41406 31.8062 7.15313 31.75C5.98125 31.6984 5.34844 31.5016 4.92656 31.3375C4.36875 31.1219 3.96563 30.8594 3.54844 30.4422C3.12656 30.0203 2.86875 29.6219 2.65313 29.0641C2.48906 28.6422 2.29219 28.0047 2.24063 26.8375C2.18438 25.5719 2.17031 25.1922 2.17031 21.9906C2.17031 18.7844 2.18438 18.4047 2.24063 17.1437C2.29219 15.9719 2.48906 15.3391 2.65313 14.9172C2.86875 14.3594 3.13125 13.9562 3.54844 13.5391C3.97031 13.1172 4.36875 12.8594 4.92656 12.6438C5.34844 12.4797 5.98594 12.2828 7.15313 12.2312C8.41406 12.175 8.79375 12.1609 12 12.1609ZM12 10C8.74219 10 8.33438 10.0141 7.05469 10.0703C5.77969 10.1266 4.90313 10.3328 4.14375 10.6281C3.35156 10.9375 2.68125 11.3453 2.01563 12.0156C1.34531 12.6813 0.9375 13.3516 0.628125 14.1391C0.332812 14.9031 0.126563 15.775 0.0703125 17.05C0.0140625 18.3344 0 18.7422 0 22C0 25.2578 0.0140625 25.6656 0.0703125 26.9453C0.126563 28.2203 0.332812 29.0969 0.628125 29.8563C0.9375 30.6484 1.34531 31.3188 2.01563 31.9844C2.68125 32.65 3.35156 33.0625 4.13906 33.3672C4.90313 33.6625 5.775 33.8687 7.05 33.925C8.32969 33.9812 8.7375 33.9953 11.9953 33.9953C15.2531 33.9953 15.6609 33.9812 16.9406 33.925C18.2156 33.8687 19.0922 33.6625 19.8516 33.3672C20.6391 33.0625 21.3094 32.65 21.975 31.9844C22.6406 31.3188 23.0531 30.6484 23.3578 29.8609C23.6531 29.0969 23.8594 28.225 23.9156 26.95C23.9719 25.6703 23.9859 25.2625 23.9859 22.0047C23.9859 18.7469 23.9719 18.3391 23.9156 17.0594C23.8594 15.7844 23.6531 14.9078 23.3578 14.1484C23.0625 13.3516 22.6547 12.6813 21.9844 12.0156C21.3188 11.35 20.6484 10.9375 19.8609 10.6328C19.0969 10.3375 18.225 10.1313 16.95 10.075C15.6656 10.0141 15.2578 10 12 10Z" fill="#298DFE"/>
<path d="M12 15.8359C8.59688 15.8359 5.83594 18.5969 5.83594 22C5.83594 25.4031 8.59688 28.1641 12 28.1641C15.4031 28.1641 18.1641 25.4031 18.1641 22C18.1641 18.5969 15.4031 15.8359 12 15.8359ZM12 25.9984C9.79219 25.9984 8.00156 24.2078 8.00156 22C8.00156 19.7922 9.79219 18.0016 12 18.0016C14.2078 18.0016 15.9984 19.7922 15.9984 22C15.9984 24.2078 14.2078 25.9984 12 25.9984Z" fill="#298DFE"/>
<path d="M19.8469 15.5921C19.8469 16.389 19.2 17.0312 18.4078 17.0312C17.6109 17.0312 16.9688 16.3843 16.9688 15.5921C16.9688 14.7953 17.6156 14.1531 18.4078 14.1531C19.2 14.1531 19.8469 14.8 19.8469 15.5921Z" fill="#298DFE"/>
</g>
<path d="M37.136 28V15.792H39.168V28H37.136ZM41.3838 19.056H43.2718V19.44C43.2718 19.6 43.2558 19.7333 43.2238 19.84C43.1918 19.9467 43.1331 20.0587 43.0478 20.176L43.2718 20.32C43.6238 19.808 43.9918 19.4453 44.3758 19.232C44.7704 19.008 45.2344 18.896 45.7678 18.896C47.1118 18.896 48.0238 19.3813 48.5038 20.352C48.6851 20.704 48.7971 21.0613 48.8398 21.424C48.8824 21.7867 48.9038 22.2347 48.9038 22.768V28H46.9998V22.768C46.9998 22.2987 46.9624 21.9147 46.8878 21.616C46.8238 21.3173 46.7118 21.0827 46.5518 20.912C46.2958 20.624 45.8904 20.48 45.3358 20.48C44.6958 20.48 44.2104 20.672 43.8798 21.056C43.6664 21.3013 43.5118 21.6267 43.4158 22.032C43.3198 22.4373 43.2718 22.992 43.2718 23.696V28H41.3838V19.056ZM54.6594 28.176C53.55 28.176 52.606 27.9093 51.8274 27.376C51.0594 26.8427 50.6007 26.064 50.4514 25.04H52.3554C52.4834 25.552 52.7447 25.9467 53.1394 26.224C53.534 26.5013 54.0407 26.64 54.6594 26.64C55.182 26.64 55.598 26.544 55.9074 26.352C56.2274 26.1493 56.3874 25.8667 56.3874 25.504C56.3874 25.216 56.286 24.9867 56.0834 24.816C55.8914 24.6453 55.646 24.5173 55.3474 24.432C55.0594 24.336 54.6594 24.2347 54.1474 24.128C53.4434 23.9893 52.8674 23.8453 52.4194 23.696C51.982 23.5467 51.6034 23.3013 51.2834 22.96C50.974 22.608 50.8194 22.128 50.8194 21.52C50.8194 20.6667 51.1394 20.016 51.7794 19.568C52.4194 19.12 53.23 18.896 54.2114 18.896C55.2354 18.896 56.0887 19.1573 56.7714 19.68C57.454 20.2027 57.8754 20.928 58.0354 21.856H56.2594C56.1314 21.376 55.886 21.0187 55.5234 20.784C55.1607 20.5387 54.7234 20.416 54.2114 20.416C53.7314 20.416 53.3527 20.5067 53.0754 20.688C52.798 20.8693 52.6594 21.1147 52.6594 21.424C52.6594 21.68 52.75 21.888 52.9314 22.048C53.1234 22.1973 53.358 22.3147 53.6354 22.4C53.9234 22.4747 54.318 22.56 54.8194 22.656C55.534 22.784 56.1207 22.928 56.5794 23.088C57.038 23.248 57.4327 23.5093 57.7634 23.872C58.094 24.224 58.2594 24.7147 58.2594 25.344C58.2594 26.208 57.9394 26.896 57.2994 27.408C56.6594 27.92 55.7794 28.176 54.6594 28.176ZM62.7463 28C62.0529 28 61.5303 27.84 61.1783 27.52C60.8263 27.2 60.6503 26.672 60.6503 25.936V20.624H59.3063V19.056H60.6503V15.792H62.5383V19.056H64.3623V20.624H62.5383V25.408C62.5383 25.7493 62.5916 26.0053 62.6983 26.176C62.8049 26.336 63.0396 26.416 63.4023 26.416H64.3463V28H62.7463ZM68.5059 28.176C67.6312 28.176 66.9272 27.9467 66.3939 27.488C65.8605 27.0293 65.5939 26.3893 65.5939 25.568C65.5939 24.736 65.9192 24.08 66.5699 23.6C67.0392 23.2587 67.7325 22.9973 68.6499 22.816L71.4819 22.288C71.4712 21.6907 71.3112 21.232 71.0019 20.912C70.6712 20.5813 70.2232 20.416 69.6579 20.416C69.1992 20.416 68.7992 20.5493 68.4579 20.816C68.1165 21.072 67.9032 21.424 67.8179 21.872H65.9299C66.0792 20.912 66.5059 20.176 67.2099 19.664C67.9245 19.152 68.7459 18.896 69.6739 18.896C70.2072 18.896 70.7032 18.9707 71.1619 19.12C71.6312 19.2693 72.0312 19.4933 72.3619 19.792C72.7992 20.1973 73.0712 20.672 73.1779 21.216C73.2952 21.76 73.3539 22.4053 73.3539 23.152V28H71.4659V27.696C71.4659 27.4507 71.5299 27.1573 71.6579 26.816L71.4339 26.704C71.2099 27.0987 70.9219 27.424 70.5699 27.68C70.0792 28.0107 69.3912 28.176 68.5059 28.176ZM68.9219 26.64C69.3592 26.64 69.7699 26.5493 70.1539 26.368C70.5912 26.144 70.9005 25.872 71.0819 25.552C71.1885 25.36 71.2685 25.1787 71.3219 25.008C71.3752 24.8373 71.4339 24.608 71.4979 24.32C71.5299 24.1813 71.5725 24.08 71.6259 24.016C71.6792 23.9413 71.7539 23.8987 71.8499 23.888L71.8019 23.632C70.9379 23.824 70.3405 23.9467 70.0099 24L69.1139 24.176C68.4952 24.304 68.0579 24.4853 67.8019 24.72C67.5885 24.9333 67.4819 25.2 67.4819 25.52C67.4819 25.872 67.6099 26.1493 67.8659 26.352C68.1325 26.544 68.4845 26.64 68.9219 26.64ZM79.3849 31.44C78.3289 31.44 77.4222 31.2213 76.6649 30.784C75.9182 30.3467 75.4595 29.6053 75.2889 28.56H77.1929C77.3315 29.0293 77.5769 29.3707 77.9289 29.584C78.2809 29.808 78.7609 29.92 79.3689 29.92C80.1369 29.92 80.7022 29.744 81.0649 29.392C81.4382 29.04 81.6249 28.5547 81.6249 27.936V27.488C81.6249 27.3067 81.6355 27.1733 81.6569 27.088C81.6889 26.992 81.7529 26.8853 81.8489 26.768L81.6249 26.608C81.2622 27.1307 80.8782 27.504 80.4729 27.728C80.0782 27.9413 79.5769 28.048 78.9689 28.048C78.1902 28.048 77.5022 27.856 76.9049 27.472C76.3075 27.0773 75.8435 26.5333 75.5129 25.84C75.1822 25.1467 75.0169 24.3627 75.0169 23.488C75.0169 22.6027 75.1822 21.8133 75.5129 21.12C75.8435 20.416 76.3075 19.872 76.9049 19.488C77.5022 19.0933 78.1849 18.896 78.9529 18.896C79.5609 18.896 80.0675 19.0027 80.4729 19.216C80.8782 19.4293 81.2622 19.7973 81.6249 20.32L81.8489 20.176C81.7635 20.0587 81.7049 19.9467 81.6729 19.84C81.6409 19.7333 81.6249 19.6 81.6249 19.44V19.056H83.5129V27.504C83.5129 28.9333 83.1449 29.9467 82.4089 30.544C81.6835 31.1413 80.6755 31.44 79.3849 31.44ZM79.3369 26.416C79.8169 26.416 80.2435 26.288 80.6169 26.032C81.0009 25.776 81.2942 25.4293 81.4969 24.992C81.7102 24.544 81.8169 24.0373 81.8169 23.472C81.8169 22.9173 81.7102 22.416 81.4969 21.968C81.2835 21.52 80.9902 21.168 80.6169 20.912C80.2435 20.656 79.8169 20.528 79.3369 20.528C78.6115 20.528 78.0249 20.8107 77.5769 21.376C77.1395 21.9307 76.9209 22.6293 76.9209 23.472C76.9209 24.3253 77.1395 25.0293 77.5769 25.584C78.0249 26.1387 78.6115 26.416 79.3369 26.416ZM85.5869 19.056H87.4749V19.44C87.4749 19.6 87.4589 19.7333 87.4269 19.84C87.3949 19.9467 87.3362 20.0587 87.2509 20.176L87.4749 20.32C87.8055 19.808 88.1789 19.4453 88.5949 19.232C89.0109 19.008 89.5229 18.896 90.1309 18.896H90.3389V20.736H89.8589C89.1442 20.736 88.5949 20.928 88.2109 21.312C87.7202 21.7707 87.4749 22.56 87.4749 23.68V28H85.5869V19.056ZM94.1153 28.176C93.2406 28.176 92.5366 27.9467 92.0033 27.488C91.4699 27.0293 91.2033 26.3893 91.2033 25.568C91.2033 24.736 91.5286 24.08 92.1793 23.6C92.6486 23.2587 93.3419 22.9973 94.2593 22.816L97.0913 22.288C97.0806 21.6907 96.9206 21.232 96.6113 20.912C96.2806 20.5813 95.8326 20.416 95.2673 20.416C94.8086 20.416 94.4086 20.5493 94.0673 20.816C93.7259 21.072 93.5126 21.424 93.4273 21.872H91.5393C91.6886 20.912 92.1153 20.176 92.8193 19.664C93.5339 19.152 94.3553 18.896 95.2833 18.896C95.8166 18.896 96.3126 18.9707 96.7713 19.12C97.2406 19.2693 97.6406 19.4933 97.9713 19.792C98.4086 20.1973 98.6806 20.672 98.7873 21.216C98.9046 21.76 98.9633 22.4053 98.9633 23.152V28H97.0753V27.696C97.0753 27.4507 97.1393 27.1573 97.2673 26.816L97.0433 26.704C96.8193 27.0987 96.5313 27.424 96.1793 27.68C95.6886 28.0107 95.0006 28.176 94.1153 28.176ZM94.5312 26.64C94.9686 26.64 95.3793 26.5493 95.7633 26.368C96.2006 26.144 96.5099 25.872 96.6913 25.552C96.7979 25.36 96.8779 25.1787 96.9313 25.008C96.9846 24.8373 97.0433 24.608 97.1073 24.32C97.1393 24.1813 97.1819 24.08 97.2353 24.016C97.2886 23.9413 97.3633 23.8987 97.4593 23.888L97.4113 23.632C96.5473 23.824 95.9499 23.9467 95.6193 24L94.7233 24.176C94.1046 24.304 93.6673 24.4853 93.4113 24.72C93.1979 24.9333 93.0913 25.2 93.0913 25.52C93.0913 25.872 93.2193 26.1493 93.4753 26.352C93.7419 26.544 94.0939 26.64 94.5312 26.64ZM100.946 19.056H102.834V19.44C102.834 19.6 102.818 19.7333 102.786 19.84C102.754 19.9467 102.696 20.0587 102.61 20.176L102.834 20.32C103.186 19.808 103.554 19.4453 103.938 19.232C104.333 19.008 104.797 18.896 105.33 18.896C105.896 18.896 106.397 19.024 106.834 19.28C107.272 19.536 107.538 19.9093 107.634 20.4H107.842C108.066 19.8453 108.408 19.456 108.866 19.232C109.325 19.008 109.837 18.896 110.402 18.896C111.394 18.896 112.136 19.1787 112.626 19.744C113.117 20.3093 113.362 21.1093 113.362 22.144V28H111.474V22.432C111.474 21.792 111.341 21.3067 111.074 20.976C110.808 20.6453 110.429 20.48 109.938 20.48C109.448 20.48 109.042 20.64 108.722 20.96C108.488 21.216 108.322 21.5467 108.226 21.952C108.141 22.3573 108.098 22.8747 108.098 23.504V28H106.21V22.432C106.21 21.792 106.072 21.3067 105.794 20.976C105.528 20.6453 105.144 20.48 104.642 20.48C104.162 20.48 103.768 20.6507 103.458 20.992C103.245 21.2267 103.085 21.5413 102.978 21.936C102.882 22.3307 102.834 22.8533 102.834 23.504V28H100.946V19.056Z" fill="#298DFE"/>
<defs>
<clipPath id="clip0_3407_9674">
<rect width="24" height="24" fill="white" transform="translate(0 10)"/>
</clipPath>
</defs>
</svg>
