<svg width="102" height="44" viewBox="0 0 102 44" fill="none" xmlns="http://www.w3.org/2000/svg">
<rect width="102" height="44" rx="8" fill="white"/>
<g clip-path="url(#clip0_6529_183524)">
<path d="M22.2234 10H1.77187C0.792187 10 0 10.7734 0 11.7297V32.2656C0 33.2219 0.792187 34 1.77187 34H22.2234C23.2031 34 24 33.2219 24 32.2703V11.7297C24 10.7734 23.2031 10 22.2234 10ZM7.12031 30.4516H3.55781V18.9953H7.12031V30.4516ZM5.33906 17.4344C4.19531 17.4344 3.27188 16.5109 3.27188 15.3719C3.27188 14.2328 4.19531 13.3094 5.33906 13.3094C6.47813 13.3094 7.40156 14.2328 7.40156 15.3719C7.40156 16.5062 6.47813 17.4344 5.33906 17.4344ZM20.4516 30.4516H16.8937V24.8828C16.8937 23.5562 16.8703 21.8453 15.0422 21.8453C13.1906 21.8453 12.9094 23.2937 12.9094 24.7891V30.4516H9.35625V18.9953H12.7687V20.5609H12.8156C13.2891 19.6609 14.4516 18.7094 16.1813 18.7094C19.7859 18.7094 20.4516 21.0813 20.4516 24.1656V30.4516Z" fill="#298DFE"/>
</g>
<path d="M37.136 28V15.792H39.168V26.176H44.448V28H37.136ZM45.6806 28V19.056H47.5686V28H45.6806ZM46.6246 17.904C46.2833 17.904 45.99 17.7973 45.7446 17.584C45.51 17.36 45.3926 17.0827 45.3926 16.752C45.3926 16.4213 45.51 16.1493 45.7446 15.936C45.99 15.712 46.2833 15.6 46.6246 15.6C46.9766 15.6 47.27 15.712 47.5046 15.936C47.7393 16.1493 47.8566 16.4213 47.8566 16.752C47.8566 17.0827 47.7393 17.36 47.5046 17.584C47.27 17.7973 46.9766 17.904 46.6246 17.904ZM49.6338 19.056H51.5218V19.44C51.5218 19.6 51.5058 19.7333 51.4738 19.84C51.4418 19.9467 51.3831 20.0587 51.2978 20.176L51.5218 20.32C51.8738 19.808 52.2418 19.4453 52.6258 19.232C53.0204 19.008 53.4844 18.896 54.0178 18.896C55.3618 18.896 56.2738 19.3813 56.7538 20.352C56.9351 20.704 57.0471 21.0613 57.0898 21.424C57.1324 21.7867 57.1538 22.2347 57.1538 22.768V28H55.2498V22.768C55.2498 22.2987 55.2124 21.9147 55.1378 21.616C55.0738 21.3173 54.9618 21.0827 54.8018 20.912C54.5458 20.624 54.1404 20.48 53.5858 20.48C52.9458 20.48 52.4604 20.672 52.1298 21.056C51.9164 21.3013 51.7618 21.6267 51.6658 22.032C51.5698 22.4373 51.5218 22.992 51.5218 23.696V28H49.6338V19.056ZM59.1494 15.792H61.0374V20.976C61.0374 21.2427 61.0267 21.4773 61.0054 21.68C60.9947 21.8827 60.952 22.1173 60.8774 22.384L61.0694 22.48C61.4427 22.064 61.7147 21.7813 61.8854 21.632L64.5254 19.056H66.9894L63.4854 22.384C63.2827 22.576 63.0374 22.7307 62.7494 22.848V23.072C63.0054 23.1893 63.2507 23.376 63.4854 23.632L67.3094 28H64.9094L61.8854 24.48C61.7254 24.2987 61.4534 23.9733 61.0694 23.504L60.8774 23.584C60.952 23.872 60.9947 24.1227 61.0054 24.336C61.0267 24.5493 61.0374 24.8 61.0374 25.088V28H59.1494V15.792ZM72.0423 28.176C71.1676 28.176 70.3889 27.9787 69.7063 27.584C69.0343 27.1787 68.5116 26.6293 68.1383 25.936C67.7649 25.232 67.5783 24.4427 67.5783 23.568C67.5783 22.7573 67.7436 21.9947 68.0743 21.28C68.4156 20.5653 68.9169 19.9893 69.5783 19.552C70.2503 19.1147 71.0556 18.896 71.9943 18.896C72.7836 18.896 73.5143 19.0667 74.1863 19.408C74.8689 19.7387 75.4129 20.2453 75.8183 20.928C76.2343 21.6107 76.4423 22.448 76.4423 23.44V23.92H70.5223C69.9676 23.92 69.5836 23.904 69.3703 23.872L69.3063 24.128C69.4023 24.1493 69.4663 24.192 69.4983 24.256C69.5409 24.3093 69.5836 24.3947 69.6263 24.512C69.7223 24.736 69.7809 24.8693 69.8023 24.912C70.0156 25.4133 70.3196 25.808 70.7143 26.096C71.1196 26.384 71.5783 26.528 72.0903 26.528C72.6343 26.528 73.0983 26.3893 73.4823 26.112C73.8769 25.824 74.1596 25.4667 74.3303 25.04H76.2823C75.9943 25.968 75.4929 26.7253 74.7783 27.312C74.0636 27.888 73.1516 28.176 72.0423 28.176ZM69.5783 22.688C69.7383 22.592 69.8769 22.528 69.9943 22.496C70.1223 22.4533 70.2716 22.432 70.4423 22.432H73.6103C73.7916 22.432 73.9463 22.4533 74.0743 22.496C74.2129 22.528 74.3623 22.592 74.5223 22.688L74.6823 22.48C74.5863 22.4267 74.5223 22.3787 74.4903 22.336C74.4689 22.2827 74.4423 22.208 74.4103 22.112C74.3889 21.9627 74.3143 21.7867 74.1863 21.584C73.9729 21.2107 73.6796 20.928 73.3063 20.736C72.9329 20.5333 72.5169 20.432 72.0583 20.432C71.5889 20.432 71.1729 20.5333 70.8103 20.736C70.4476 20.928 70.1543 21.2107 69.9303 21.584C69.8449 21.7227 69.7703 21.8987 69.7063 22.112C69.6849 22.1973 69.6583 22.2667 69.6263 22.32C69.5943 22.3627 69.5303 22.416 69.4343 22.48L69.5783 22.688ZM81.7338 28.176C80.9551 28.176 80.2671 27.984 79.6698 27.6C79.0831 27.2053 78.6244 26.656 78.2938 25.952C77.9631 25.248 77.7978 24.4427 77.7978 23.536C77.7978 22.6293 77.9631 21.824 78.2938 21.12C78.6244 20.416 79.0831 19.872 79.6698 19.488C80.2671 19.0933 80.9551 18.896 81.7338 18.896C82.3311 18.896 82.8324 19.0027 83.2378 19.216C83.6538 19.4293 84.0431 19.7973 84.4058 20.32L84.6298 20.176C84.5444 20.0693 84.4858 19.9627 84.4538 19.856C84.4218 19.7387 84.4058 19.6 84.4058 19.44V15.792H86.2938V28H84.4058V27.616C84.4058 27.456 84.4218 27.3227 84.4538 27.216C84.4858 27.0987 84.5444 26.992 84.6298 26.896L84.4058 26.736C84.0431 27.2587 83.6591 27.632 83.2538 27.856C82.8484 28.0693 82.3418 28.176 81.7338 28.176ZM82.1178 26.544C82.5978 26.544 83.0244 26.416 83.3978 26.16C83.7711 25.904 84.0644 25.5467 84.2778 25.088C84.4911 24.6293 84.5978 24.112 84.5978 23.536C84.5978 22.96 84.4911 22.4427 84.2778 21.984C84.0644 21.5253 83.7711 21.168 83.3978 20.912C83.0244 20.656 82.5978 20.528 82.1178 20.528C81.3818 20.528 80.7951 20.8107 80.3578 21.376C79.9204 21.9413 79.7018 22.6613 79.7018 23.536C79.7018 24.4107 79.9204 25.1307 80.3578 25.696C80.7951 26.2613 81.3818 26.544 82.1178 26.544ZM88.4641 28V15.792H90.4961V28H88.4641ZM92.7119 19.056H94.5999V19.44C94.5999 19.6 94.5839 19.7333 94.5519 19.84C94.5199 19.9467 94.4612 20.0587 94.3759 20.176L94.5999 20.32C94.9519 19.808 95.3199 19.4453 95.7039 19.232C96.0985 19.008 96.5625 18.896 97.0959 18.896C98.4399 18.896 99.3519 19.3813 99.8319 20.352C100.013 20.704 100.125 21.0613 100.168 21.424C100.211 21.7867 100.232 22.2347 100.232 22.768V28H98.3279V22.768C98.3279 22.2987 98.2905 21.9147 98.2159 21.616C98.1519 21.3173 98.0399 21.0827 97.8799 20.912C97.6239 20.624 97.2185 20.48 96.6639 20.48C96.0239 20.48 95.5385 20.672 95.2079 21.056C94.9945 21.3013 94.8399 21.6267 94.7439 22.032C94.6479 22.4373 94.5999 22.992 94.5999 23.696V28H92.7119V19.056Z" fill="#298DFE"/>
<defs>
<clipPath id="clip0_6529_183524">
<rect width="24" height="24" fill="white" transform="translate(0 10)"/>
</clipPath>
</defs>
</svg>
