<svg width="228" height="20" viewBox="0 0 228 20" fill="none" xmlns="http://www.w3.org/2000/svg">
<g clip-path="url(#clip0_4530_46988)">
<rect width="228" height="20" rx="8" fill="white"/>
<g clip-path="url(#clip1_4530_46988)">
<path d="M11.6405 9.91939C12.0504 10.2788 12.4474 10.6563 12.8606 10.9843C13.6449 11.6089 14.4422 11.6133 15.2266 10.9843C15.6397 10.6518 16.0367 10.2788 16.4563 9.9149C17.1503 10.7327 17.8443 11.5415 18.535 12.3592C19.4776 13.4691 20.4233 14.5789 21.3658 15.6887C21.3787 15.7022 21.3916 15.7292 21.4046 15.7337C21.5078 15.7696 21.6111 15.8011 21.7112 15.8325C21.6757 15.7022 21.666 15.5405 21.6047 15.4416C20.801 14.1655 19.9908 12.9029 19.1838 11.6313C18.6545 10.8001 18.1251 9.96882 17.5958 9.13756C17.5635 9.08814 17.5377 9.02972 17.4989 8.95783C18.067 8.43212 18.6287 7.91989 19.1838 7.39418C20.7396 5.92039 22.2922 4.44211 23.848 2.96832C23.9448 2.87845 24.0481 2.79308 24.1546 2.72568C24.387 2.5819 24.4806 2.66277 24.4839 3.01774C24.4903 3.5794 24.4871 4.14106 24.4871 4.70271C24.4871 8.89043 24.4677 13.0826 24.5 17.2704C24.5065 18.1016 23.8641 19.0048 23.2702 19.0003C19.2193 18.9733 15.1685 18.9823 11.1176 18.9823C9.03243 18.9823 6.94728 18.9778 4.86536 18.9868C4.40701 18.9913 4.05841 18.7307 3.76145 18.2769C3.58069 18.0118 3.5 17.7017 3.5 17.3288C3.50323 12.6468 3.5 7.96482 3.50646 3.28734C3.50646 3.09413 3.54842 2.74815 3.60974 2.73017C3.75177 2.68973 3.94221 2.74815 4.07132 2.86497C4.89441 3.61085 5.70458 4.38369 6.52121 5.14755C7.83169 6.37421 9.14218 7.60087 10.4527 8.82753C10.4946 8.86797 10.5301 8.9129 10.5882 8.9758C10.1525 9.65878 9.72641 10.3328 9.29711 11.0023C8.37073 12.4536 7.44436 13.9049 6.52444 15.3652C6.44697 15.4865 6.42438 15.6753 6.37596 15.837C6.49862 15.7786 6.64387 15.7651 6.73747 15.6573C8.31586 13.8195 9.8878 11.9683 11.4597 10.1171C11.5178 10.0497 11.5759 9.98679 11.6405 9.91939Z" fill="#298DFE"/>
<path d="M14.042 1.00929C17.2343 1.00929 20.4265 1.00929 23.6221 1.00929C23.7157 1.00929 23.8157 0.982332 23.8964 1.02277C24.032 1.09017 24.2353 1.16656 24.2612 1.30135C24.2999 1.49007 24.245 1.77764 24.1546 1.9394C24.0417 2.14159 23.8609 2.28538 23.6931 2.41119C21.5337 4.05123 19.3743 5.68228 17.2149 7.31783C16.5435 7.82557 15.8754 8.34229 15.2007 8.83655C14.4325 9.4027 13.6546 9.41169 12.8897 8.83655C10.0427 6.68877 7.19583 4.5365 4.35537 2.37524C4.16493 2.22696 3.97127 2.01578 3.85507 1.76416C3.68077 1.39571 3.80019 1.11264 4.11329 1.03625C4.22949 1.00929 4.34892 1.00929 4.46512 1.00929C7.6574 1.00929 10.8497 1.00929 14.042 1.00929Z" fill="#298DFE"/>
</g>
<path d="M42.18 16.16C40.8787 16.16 39.764 15.84 38.836 15.2C37.9187 14.56 37.364 13.5947 37.172 12.304H38.66C38.8413 13.2 39.2627 13.8507 39.924 14.256C40.596 14.6507 41.3693 14.848 42.244 14.848C43.1187 14.848 43.7907 14.6667 44.26 14.304C44.74 13.9413 44.98 13.4027 44.98 12.688C44.98 12.144 44.8307 11.7173 44.532 11.408C44.2333 11.088 43.86 10.8533 43.412 10.704C42.964 10.544 42.3613 10.384 41.604 10.224C40.7507 10.0427 40.0627 9.86133 39.54 9.68C39.0173 9.488 38.5747 9.17867 38.212 8.752C37.8493 8.32533 37.668 7.73867 37.668 6.992C37.668 6.30933 37.8333 5.71733 38.164 5.216C38.5053 4.704 38.9747 4.31467 39.572 4.048C40.18 3.77067 40.8787 3.632 41.668 3.632C42.788 3.632 43.7587 3.92533 44.58 4.512C45.4013 5.088 45.908 5.968 46.1 7.152H44.676C44.516 6.37333 44.1587 5.81333 43.604 5.472C43.0493 5.12 42.3987 4.944 41.652 4.944C40.8413 4.944 40.2173 5.11467 39.78 5.456C39.3533 5.79733 39.14 6.26667 39.14 6.864C39.14 7.33333 39.2733 7.70667 39.54 7.984C39.8173 8.25067 40.1587 8.45333 40.564 8.592C40.98 8.73067 41.5453 8.87467 42.26 9.024C43.1667 9.216 43.8973 9.41867 44.452 9.632C45.0067 9.83467 45.476 10.1707 45.86 10.64C46.2547 11.1093 46.452 11.76 46.452 12.592C46.452 13.6907 46.0787 14.56 45.332 15.2C44.596 15.84 43.5453 16.16 42.18 16.16ZM51.3936 16.16C50.1456 16.16 49.2763 15.696 48.7856 14.768C48.6043 14.416 48.487 14.0587 48.4336 13.696C48.391 13.3227 48.3696 12.9173 48.3696 12.48V7.152H49.7296V12.48C49.7296 13.4187 49.9003 14.08 50.2416 14.464C50.5403 14.7947 50.9936 14.96 51.6016 14.96C52.2736 14.96 52.8123 14.7413 53.2176 14.304C53.5056 14.0053 53.7083 13.5947 53.8256 13.072C53.9536 12.5493 54.0176 11.8347 54.0176 10.928V7.152H55.3776V16H54.0176V15.424C54.0176 15.2747 54.0283 15.152 54.0496 15.056C54.0816 14.9493 54.135 14.848 54.2096 14.752L53.9856 14.608C53.5803 15.1627 53.1803 15.5627 52.7856 15.808C52.391 16.0427 51.927 16.16 51.3936 16.16ZM61.9236 6.992C62.7023 6.992 63.3903 7.184 63.9876 7.568C64.585 7.952 65.0436 8.49067 65.3636 9.184C65.6943 9.87733 65.8596 10.672 65.8596 11.568C65.8596 12.464 65.6943 13.264 65.3636 13.968C65.0436 14.6613 64.585 15.2 63.9876 15.584C63.401 15.968 62.713 16.16 61.9236 16.16C61.273 16.16 60.7343 16.0427 60.3076 15.808C59.8916 15.5733 59.4756 15.1733 59.0596 14.608L58.8356 14.752C58.9103 14.848 58.9583 14.9493 58.9796 15.056C59.0116 15.152 59.0276 15.2747 59.0276 15.424V19.36H57.6676V7.152H59.0276V7.728C59.0276 7.87733 59.0116 8.00533 58.9796 8.112C58.9583 8.208 58.9103 8.304 58.8356 8.4L59.0596 8.544C59.4756 7.97867 59.8916 7.57867 60.3076 7.344C60.7343 7.10933 61.273 6.992 61.9236 6.992ZM61.7956 8.192C61.2516 8.192 60.7663 8.336 60.3396 8.624C59.913 8.912 59.577 9.31733 59.3316 9.84C59.097 10.352 58.9796 10.928 58.9796 11.568C58.9796 12.2187 59.097 12.8 59.3316 13.312C59.577 13.824 59.913 14.2293 60.3396 14.528C60.7663 14.816 61.2516 14.96 61.7956 14.96C62.3396 14.96 62.8143 14.816 63.2196 14.528C63.6356 14.2293 63.9503 13.824 64.1636 13.312C64.3876 12.8 64.4996 12.2187 64.4996 11.568C64.4996 10.928 64.3876 10.352 64.1636 9.84C63.9503 9.328 63.6356 8.928 63.2196 8.64C62.8143 8.34133 62.3396 8.192 61.7956 8.192ZM72.0643 6.992C72.8429 6.992 73.5309 7.184 74.1283 7.568C74.7256 7.952 75.1843 8.49067 75.5043 9.184C75.8349 9.87733 76.0003 10.672 76.0003 11.568C76.0003 12.464 75.8349 13.264 75.5043 13.968C75.1843 14.6613 74.7256 15.2 74.1283 15.584C73.5416 15.968 72.8536 16.16 72.0643 16.16C71.4136 16.16 70.8749 16.0427 70.4483 15.808C70.0323 15.5733 69.6163 15.1733 69.2003 14.608L68.9763 14.752C69.0509 14.848 69.0989 14.9493 69.1203 15.056C69.1523 15.152 69.1683 15.2747 69.1683 15.424V19.36H67.8083V7.152H69.1683V7.728C69.1683 7.87733 69.1523 8.00533 69.1203 8.112C69.0989 8.208 69.0509 8.304 68.9763 8.4L69.2003 8.544C69.6163 7.97867 70.0323 7.57867 70.4483 7.344C70.8749 7.10933 71.4136 6.992 72.0643 6.992ZM71.9363 8.192C71.3923 8.192 70.9069 8.336 70.4803 8.624C70.0536 8.912 69.7176 9.31733 69.4723 9.84C69.2376 10.352 69.1203 10.928 69.1203 11.568C69.1203 12.2187 69.2376 12.8 69.4723 13.312C69.7176 13.824 70.0536 14.2293 70.4803 14.528C70.9069 14.816 71.3923 14.96 71.9363 14.96C72.4803 14.96 72.9549 14.816 73.3603 14.528C73.7763 14.2293 74.0909 13.824 74.3043 13.312C74.5283 12.8 74.6403 12.2187 74.6403 11.568C74.6403 10.928 74.5283 10.352 74.3043 9.84C74.0909 9.328 73.7763 8.928 73.3603 8.64C72.9549 8.34133 72.4803 8.192 71.9363 8.192ZM81.8849 16.16C81.0529 16.16 80.3062 15.9627 79.6449 15.568C78.9942 15.1733 78.4822 14.624 78.1089 13.92C77.7462 13.216 77.5649 12.4213 77.5649 11.536C77.5649 10.672 77.7462 9.89333 78.1089 9.2C78.4822 8.50667 78.9942 7.968 79.6449 7.584C80.3062 7.18933 81.0529 6.992 81.8849 6.992C82.7169 6.992 83.4635 7.18933 84.1249 7.584C84.7862 7.968 85.3035 8.50667 85.6769 9.2C86.0502 9.89333 86.2369 10.672 86.2369 11.536C86.2369 12.4213 86.0502 13.216 85.6769 13.92C85.3142 14.6133 84.8022 15.1627 84.1409 15.568C83.4795 15.9627 82.7275 16.16 81.8849 16.16ZM81.8849 14.96C82.4395 14.96 82.9409 14.8107 83.3889 14.512C83.8475 14.2133 84.2049 13.808 84.4609 13.296C84.7275 12.7733 84.8609 12.1867 84.8609 11.536C84.8609 10.9173 84.7329 10.352 84.4769 9.84C84.2209 9.328 83.8635 8.928 83.4049 8.64C82.9569 8.34133 82.4502 8.192 81.8849 8.192C81.3302 8.192 80.8235 8.336 80.3649 8.624C79.9169 8.912 79.5649 9.312 79.3089 9.824C79.0529 10.336 78.9249 10.9067 78.9249 11.536C78.9249 12.1867 79.0529 12.7733 79.3089 13.296C79.5649 13.8187 79.9169 14.2293 80.3649 14.528C80.8235 14.816 81.3302 14.96 81.8849 14.96ZM88.1516 7.152H89.5116V7.728C89.5116 7.87733 89.4956 8.00533 89.4636 8.112C89.4423 8.208 89.3943 8.304 89.3196 8.4L89.5436 8.544C89.9063 8 90.3063 7.60533 90.7436 7.36C91.1916 7.11467 91.7463 6.992 92.4076 6.992H92.4716V8.352H92.0076C91.293 8.352 90.7223 8.56533 90.2956 8.992C89.773 9.49333 89.5116 10.2773 89.5116 11.344V16H88.1516V7.152ZM96.7801 16C96.0655 16 95.5375 15.84 95.1961 15.52C94.8548 15.2 94.6841 14.6187 94.6841 13.776V8.352H93.2601V7.152H94.6841V3.792H96.0441V7.152H98.0281V8.352H96.0441V13.504C96.0441 13.8133 96.0655 14.0587 96.1081 14.24C96.1508 14.4107 96.2468 14.5493 96.3961 14.656C96.5455 14.752 96.7801 14.8 97.1001 14.8H98.0121V16H96.7801ZM106.945 19.024C105.516 19.024 104.225 18.7093 103.073 18.08C101.932 17.4507 101.036 16.5653 100.385 15.424C99.7347 14.2827 99.4094 12.9813 99.4094 11.52C99.4094 10.0373 99.7347 8.69333 100.385 7.488C101.047 6.28267 101.959 5.33867 103.121 4.656C104.295 3.96267 105.628 3.616 107.121 3.616C108.551 3.616 109.836 3.94133 110.977 4.592C112.129 5.24267 113.025 6.144 113.665 7.296C114.316 8.448 114.641 9.74933 114.641 11.2C114.641 12.2133 114.481 13.1307 114.161 13.952C113.841 14.7733 113.377 15.424 112.769 15.904C112.161 16.384 111.452 16.624 110.641 16.624C109.927 16.624 109.409 16.4107 109.089 15.984C108.78 15.5573 108.62 14.8693 108.609 13.92L108.465 13.872C107.868 15.0453 106.983 15.632 105.809 15.632C104.945 15.632 104.247 15.3387 103.713 14.752C103.18 14.1653 102.913 13.3493 102.913 12.304C102.913 11.408 103.1 10.5387 103.473 9.696C103.857 8.85333 104.391 8.16533 105.073 7.632C105.756 7.09867 106.524 6.832 107.377 6.832C107.879 6.832 108.3 6.944 108.641 7.168C108.993 7.392 109.297 7.76533 109.553 8.288L109.745 8.272C109.713 8.048 109.697 7.872 109.697 7.744C109.697 7.60533 109.719 7.45067 109.761 7.28H110.945L110.753 8.192C110.401 9.84533 110.14 11.1253 109.969 12.032C109.809 12.9387 109.729 13.632 109.729 14.112C109.729 14.56 109.82 14.9013 110.001 15.136C110.183 15.36 110.449 15.472 110.801 15.472C111.324 15.472 111.783 15.2853 112.177 14.912C112.583 14.5387 112.892 14.032 113.105 13.392C113.329 12.7413 113.441 12.0213 113.441 11.232C113.441 9.984 113.175 8.87467 112.641 7.904C112.108 6.93333 111.361 6.18133 110.401 5.648C109.452 5.104 108.369 4.832 107.153 4.832C105.884 4.832 104.748 5.12533 103.745 5.712C102.753 6.288 101.98 7.08267 101.425 8.096C100.881 9.10933 100.609 10.2507 100.609 11.52C100.609 12.768 100.876 13.872 101.409 14.832C101.953 15.7813 102.705 16.512 103.665 17.024C104.625 17.5467 105.724 17.808 106.961 17.808C107.719 17.808 108.444 17.6853 109.137 17.44V18.704C108.487 18.9173 107.756 19.024 106.945 19.024ZM105.809 14.432C106.439 14.432 106.999 14.2187 107.489 13.792C107.991 13.3547 108.38 12.8 108.657 12.128C108.935 11.4453 109.073 10.7627 109.073 10.08C109.073 9.38667 108.924 8.87467 108.625 8.544C108.337 8.21333 107.932 8.048 107.409 8.048C106.769 8.048 106.199 8.256 105.697 8.672C105.196 9.088 104.807 9.62667 104.529 10.288C104.252 10.9493 104.113 11.6267 104.113 12.32C104.113 13.0347 104.263 13.568 104.561 13.92C104.86 14.2613 105.276 14.432 105.809 14.432ZM119.101 16.16C118.216 16.16 117.512 15.936 116.989 15.488C116.477 15.04 116.221 14.4267 116.221 13.648C116.221 12.88 116.509 12.272 117.085 11.824C117.554 11.4507 118.232 11.1733 119.117 10.992L122.269 10.384C122.28 9.70133 122.098 9.17333 121.725 8.8C121.32 8.39467 120.776 8.192 120.093 8.192C119.549 8.192 119.074 8.34133 118.669 8.64C118.274 8.928 118.024 9.31733 117.917 9.808H116.557C116.706 8.92267 117.112 8.23467 117.773 7.744C118.445 7.24267 119.224 6.992 120.109 6.992C120.632 6.992 121.117 7.072 121.565 7.232C122.013 7.38133 122.392 7.60533 122.701 7.904C123.106 8.288 123.362 8.73067 123.469 9.232C123.576 9.73333 123.629 10.2507 123.629 10.784V16H122.269V15.584C122.269 15.3173 122.322 15.0133 122.429 14.672L122.205 14.576C121.917 15.0347 121.581 15.392 121.197 15.648C120.93 15.8293 120.626 15.9573 120.285 16.032C119.954 16.1173 119.56 16.16 119.101 16.16ZM119.261 14.96C119.773 14.96 120.242 14.8587 120.669 14.656C121.192 14.3893 121.576 14.032 121.821 13.584C122.002 13.264 122.12 12.96 122.173 12.672C122.237 12.384 122.274 12.208 122.285 12.144C122.317 11.984 122.36 11.8667 122.413 11.792C122.466 11.7173 122.546 11.6747 122.653 11.664L122.605 11.408L120.541 11.84L119.405 12.064C118.744 12.192 118.258 12.4 117.949 12.688C117.704 12.9333 117.581 13.2427 117.581 13.616C117.581 14.0213 117.73 14.3467 118.029 14.592C118.338 14.8373 118.749 14.96 119.261 14.96ZM125.808 7.152H127.168V7.728C127.168 7.87733 127.152 8.00533 127.12 8.112C127.099 8.208 127.051 8.304 126.976 8.4L127.2 8.544C127.563 8 127.963 7.60533 128.4 7.36C128.848 7.11467 129.403 6.992 130.064 6.992H130.128V8.352H129.664C128.949 8.352 128.379 8.56533 127.952 8.992C127.429 9.49333 127.168 10.2773 127.168 11.344V16H125.808V7.152ZM131.62 7.152H132.98V7.728C132.98 7.87733 132.964 8.00533 132.932 8.112C132.911 8.208 132.863 8.304 132.788 8.4L133.012 8.544C133.418 7.98933 133.818 7.59467 134.212 7.36C134.607 7.11467 135.071 6.992 135.604 6.992C136.212 6.992 136.735 7.136 137.172 7.424C137.61 7.70133 137.866 8.10133 137.94 8.624H138.148C138.628 7.536 139.53 6.992 140.852 6.992C141.834 6.992 142.57 7.27467 143.06 7.84C143.551 8.39467 143.796 9.19467 143.796 10.24V16H142.436V10.56C142.436 9.80267 142.276 9.22133 141.956 8.816C141.647 8.4 141.21 8.192 140.644 8.192C140.058 8.192 139.578 8.38933 139.204 8.784C138.906 9.104 138.692 9.52 138.564 10.032C138.447 10.544 138.388 11.2 138.388 12V16H137.028V10.56C137.028 9.81333 136.863 9.232 136.532 8.816C136.212 8.4 135.775 8.192 135.22 8.192C134.634 8.192 134.154 8.40533 133.78 8.832C133.514 9.13067 133.311 9.53067 133.172 10.032C133.044 10.5227 132.98 11.1787 132.98 12V16H131.62V7.152ZM149.579 16.16C148.459 16.16 147.547 15.8933 146.843 15.36C146.139 14.8267 145.712 14.0907 145.563 13.152H146.987C147.104 13.7173 147.376 14.16 147.803 14.48C148.24 14.8 148.838 14.96 149.595 14.96C150.214 14.96 150.704 14.8427 151.067 14.608C151.44 14.3733 151.627 14.0373 151.627 13.6C151.627 13.2587 151.515 12.9867 151.291 12.784C151.078 12.5707 150.8 12.4107 150.459 12.304C150.128 12.1973 149.686 12.0907 149.131 11.984C148.438 11.8453 147.878 11.7067 147.451 11.568C147.035 11.4187 146.678 11.184 146.379 10.864C146.08 10.544 145.931 10.1013 145.931 9.536C145.931 8.736 146.23 8.112 146.827 7.664C147.435 7.216 148.208 6.992 149.147 6.992C150.107 6.992 150.907 7.24267 151.547 7.744C152.187 8.24533 152.582 8.93333 152.731 9.808H151.467C151.339 9.264 151.072 8.85867 150.667 8.592C150.262 8.32533 149.755 8.192 149.147 8.192C148.56 8.192 148.102 8.304 147.771 8.528C147.451 8.74133 147.291 9.04 147.291 9.424C147.291 9.72267 147.392 9.95733 147.595 10.128C147.798 10.2987 148.048 10.432 148.347 10.528C148.646 10.6133 149.067 10.7093 149.611 10.816C150.326 10.9547 150.907 11.104 151.355 11.264C151.803 11.4133 152.187 11.664 152.507 12.016C152.827 12.3573 152.987 12.8373 152.987 13.456C152.987 14.288 152.688 14.9493 152.091 15.44C151.494 15.92 150.656 16.16 149.579 16.16ZM154.181 7.152H155.637L157.221 12.832C157.275 13.0347 157.312 13.232 157.333 13.424C157.355 13.6053 157.371 13.7653 157.381 13.904C157.392 14.032 157.397 14.128 157.397 14.192H157.605C157.605 14.1387 157.611 14.016 157.621 13.824C157.632 13.632 157.653 13.4613 157.685 13.312C157.717 13.152 157.76 12.992 157.813 12.832L159.717 7.152H160.949L162.853 12.832C162.928 13.056 162.976 13.2587 162.997 13.44C163.019 13.6107 163.04 13.8613 163.061 14.192H163.269C163.269 14.128 163.275 14 163.285 13.808C163.296 13.616 163.312 13.4453 163.333 13.296C163.365 13.1467 163.403 12.992 163.445 12.832L165.045 7.152H166.501L163.877 16H162.613L160.645 10C160.571 9.776 160.523 9.584 160.501 9.424C160.48 9.264 160.459 9.03467 160.437 8.736H160.245C160.224 9.03467 160.203 9.264 160.181 9.424C160.16 9.584 160.112 9.776 160.037 10L158.037 16H156.773L154.181 7.152ZM170.554 16.16C169.669 16.16 168.965 15.936 168.442 15.488C167.93 15.04 167.674 14.4267 167.674 13.648C167.674 12.88 167.962 12.272 168.538 11.824C169.008 11.4507 169.685 11.1733 170.57 10.992L173.722 10.384C173.733 9.70133 173.552 9.17333 173.178 8.8C172.773 8.39467 172.229 8.192 171.546 8.192C171.002 8.192 170.528 8.34133 170.122 8.64C169.728 8.928 169.477 9.31733 169.37 9.808H168.01C168.16 8.92267 168.565 8.23467 169.226 7.744C169.898 7.24267 170.677 6.992 171.562 6.992C172.085 6.992 172.57 7.072 173.018 7.232C173.466 7.38133 173.845 7.60533 174.154 7.904C174.56 8.288 174.816 8.73067 174.922 9.232C175.029 9.73333 175.082 10.2507 175.082 10.784V16H173.722V15.584C173.722 15.3173 173.776 15.0133 173.882 14.672L173.658 14.576C173.37 15.0347 173.034 15.392 172.65 15.648C172.384 15.8293 172.08 15.9573 171.738 16.032C171.408 16.1173 171.013 16.16 170.554 16.16ZM170.714 14.96C171.226 14.96 171.696 14.8587 172.122 14.656C172.645 14.3893 173.029 14.032 173.274 13.584C173.456 13.264 173.573 12.96 173.626 12.672C173.69 12.384 173.728 12.208 173.738 12.144C173.77 11.984 173.813 11.8667 173.866 11.792C173.92 11.7173 174 11.6747 174.106 11.664L174.058 11.408L171.994 11.84L170.858 12.064C170.197 12.192 169.712 12.4 169.402 12.688C169.157 12.9333 169.034 13.2427 169.034 13.616C169.034 14.0213 169.184 14.3467 169.482 14.592C169.792 14.8373 170.202 14.96 170.714 14.96ZM181.533 6.992C182.312 6.992 183 7.184 183.597 7.568C184.194 7.952 184.653 8.49067 184.973 9.184C185.304 9.87733 185.469 10.672 185.469 11.568C185.469 12.464 185.304 13.264 184.973 13.968C184.653 14.6613 184.194 15.2 183.597 15.584C183.01 15.968 182.322 16.16 181.533 16.16C180.882 16.16 180.344 16.0427 179.917 15.808C179.501 15.5733 179.085 15.1733 178.669 14.608L178.445 14.752C178.52 14.848 178.568 14.9493 178.589 15.056C178.621 15.152 178.637 15.2747 178.637 15.424V19.36H177.277V7.152H178.637V7.728C178.637 7.87733 178.621 8.00533 178.589 8.112C178.568 8.208 178.52 8.304 178.445 8.4L178.669 8.544C179.085 7.97867 179.501 7.57867 179.917 7.344C180.344 7.10933 180.882 6.992 181.533 6.992ZM181.405 8.192C180.861 8.192 180.376 8.336 179.949 8.624C179.522 8.912 179.186 9.31733 178.941 9.84C178.706 10.352 178.589 10.928 178.589 11.568C178.589 12.2187 178.706 12.8 178.941 13.312C179.186 13.824 179.522 14.2293 179.949 14.528C180.376 14.816 180.861 14.96 181.405 14.96C181.949 14.96 182.424 14.816 182.829 14.528C183.245 14.2293 183.56 13.824 183.773 13.312C183.997 12.8 184.109 12.2187 184.109 11.568C184.109 10.928 183.997 10.352 183.773 9.84C183.56 9.328 183.245 8.928 182.829 8.64C182.424 8.34133 181.949 8.192 181.405 8.192ZM188.202 16.16C187.935 16.16 187.706 16.0693 187.514 15.888C187.322 15.696 187.226 15.4667 187.226 15.2C187.226 14.944 187.322 14.7253 187.514 14.544C187.706 14.3627 187.935 14.272 188.202 14.272C188.447 14.272 188.66 14.368 188.842 14.56C189.023 14.7413 189.114 14.9547 189.114 15.2C189.114 15.4667 189.023 15.696 188.842 15.888C188.66 16.0693 188.447 16.16 188.202 16.16ZM195.134 16.16C194.302 16.16 193.561 15.9627 192.91 15.568C192.259 15.1733 191.753 14.624 191.39 13.92C191.027 13.216 190.846 12.4213 190.846 11.536C190.846 10.672 191.027 9.89333 191.39 9.2C191.753 8.50667 192.259 7.968 192.91 7.584C193.561 7.18933 194.302 6.992 195.134 6.992C196.126 6.992 196.963 7.248 197.646 7.76C198.339 8.26133 198.787 8.944 198.99 9.808H197.534C197.363 9.31733 197.059 8.928 196.622 8.64C196.195 8.34133 195.699 8.192 195.134 8.192C194.579 8.192 194.078 8.336 193.63 8.624C193.193 8.912 192.846 9.312 192.59 9.824C192.334 10.3253 192.206 10.896 192.206 11.536C192.206 12.1973 192.329 12.7893 192.574 13.312C192.83 13.824 193.182 14.2293 193.63 14.528C194.078 14.816 194.579 14.96 195.134 14.96C195.742 14.96 196.265 14.7947 196.702 14.464C197.15 14.1333 197.449 13.696 197.598 13.152H199.054C198.862 14.0907 198.409 14.8267 197.694 15.36C196.99 15.8933 196.137 16.16 195.134 16.16ZM204.791 16.16C203.959 16.16 203.212 15.9627 202.551 15.568C201.9 15.1733 201.388 14.624 201.015 13.92C200.652 13.216 200.471 12.4213 200.471 11.536C200.471 10.672 200.652 9.89333 201.015 9.2C201.388 8.50667 201.9 7.968 202.551 7.584C203.212 7.18933 203.959 6.992 204.791 6.992C205.623 6.992 206.37 7.18933 207.031 7.584C207.692 7.968 208.21 8.50667 208.583 9.2C208.956 9.89333 209.143 10.672 209.143 11.536C209.143 12.4213 208.956 13.216 208.583 13.92C208.22 14.6133 207.708 15.1627 207.047 15.568C206.386 15.9627 205.634 16.16 204.791 16.16ZM204.791 14.96C205.346 14.96 205.847 14.8107 206.295 14.512C206.754 14.2133 207.111 13.808 207.367 13.296C207.634 12.7733 207.767 12.1867 207.767 11.536C207.767 10.9173 207.639 10.352 207.383 9.84C207.127 9.328 206.77 8.928 206.311 8.64C205.863 8.34133 205.356 8.192 204.791 8.192C204.236 8.192 203.73 8.336 203.271 8.624C202.823 8.912 202.471 9.312 202.215 9.824C201.959 10.336 201.831 10.9067 201.831 11.536C201.831 12.1867 201.959 12.7733 202.215 13.296C202.471 13.8187 202.823 14.2293 203.271 14.528C203.73 14.816 204.236 14.96 204.791 14.96ZM211.058 7.152H212.418V7.728C212.418 7.87733 212.402 8.00533 212.37 8.112C212.349 8.208 212.301 8.304 212.226 8.4L212.45 8.544C212.855 7.98933 213.255 7.59467 213.65 7.36C214.045 7.11467 214.509 6.992 215.042 6.992C215.65 6.992 216.173 7.136 216.61 7.424C217.047 7.70133 217.303 8.10133 217.378 8.624H217.586C218.066 7.536 218.967 6.992 220.29 6.992C221.271 6.992 222.007 7.27467 222.498 7.84C222.989 8.39467 223.234 9.19467 223.234 10.24V16H221.874V10.56C221.874 9.80267 221.714 9.22133 221.394 8.816C221.085 8.4 220.647 8.192 220.082 8.192C219.495 8.192 219.015 8.38933 218.642 8.784C218.343 9.104 218.13 9.52 218.002 10.032C217.885 10.544 217.826 11.2 217.826 12V16H216.466V10.56C216.466 9.81333 216.301 9.232 215.97 8.816C215.65 8.4 215.213 8.192 214.658 8.192C214.071 8.192 213.591 8.40533 213.218 8.832C212.951 9.13067 212.749 9.53067 212.61 10.032C212.482 10.5227 212.418 11.1787 212.418 12V16H211.058V7.152Z" fill="#475467"/>
</g>
<defs>
<clipPath id="clip0_4530_46988">
<rect width="228" height="20" rx="8" fill="white"/>
</clipPath>
<clipPath id="clip1_4530_46988">
<rect width="21" height="18" fill="white" transform="translate(3.5 1)"/>
</clipPath>
</defs>
</svg>
