<svg width="109" height="44" viewBox="0 0 109 44" fill="none" xmlns="http://www.w3.org/2000/svg">
<rect width="109" height="44" rx="8" fill="white"/>
<g clip-path="url(#clip0_3407_9673)">
<path fill-rule="evenodd" clip-rule="evenodd" d="M24 22C24 28.6274 18.6274 34 12 34C5.37258 34 0 28.6274 0 22C0 15.3726 5.37258 10 12 10C18.6274 10 24 15.3726 24 22ZM12.43 18.8589C11.2628 19.3444 8.93014 20.3492 5.43189 21.8733C4.86383 22.0992 4.56626 22.3202 4.53917 22.5363C4.49339 22.9015 4.95071 23.0453 5.57348 23.2411C5.65819 23.2678 5.74596 23.2954 5.83594 23.3246C6.44864 23.5238 7.27283 23.7568 7.70129 23.766C8.08994 23.7744 8.52373 23.6142 9.00264 23.2853C12.2712 21.079 13.9584 19.9638 14.0643 19.9398C14.139 19.9228 14.2426 19.9015 14.3128 19.9638C14.3829 20.0262 14.376 20.1443 14.3686 20.176C14.3233 20.3691 12.5281 22.0381 11.5991 22.9018C11.3095 23.171 11.1041 23.362 11.0621 23.4056C10.968 23.5033 10.8721 23.5958 10.78 23.6846C10.2108 24.2333 9.78391 24.6448 10.8036 25.3168C11.2936 25.6397 11.6857 25.9067 12.0769 26.1731C12.5042 26.4641 12.9303 26.7543 13.4816 27.1157C13.6221 27.2077 13.7562 27.3034 13.8869 27.3965C14.3841 27.751 14.8307 28.0694 15.3826 28.0186C15.7032 27.9891 16.0345 27.6876 16.2027 26.7884C16.6002 24.6631 17.3816 20.0585 17.5622 18.161C17.578 17.9947 17.5581 17.782 17.5422 17.6886C17.5262 17.5952 17.4928 17.4621 17.3714 17.3636C17.2276 17.2469 17.0056 17.2223 16.9064 17.2241C16.455 17.232 15.7626 17.4728 12.43 18.8589Z" fill="#298DFE"/>
</g>
<path d="M40.032 28V17.616H36.192V15.792H45.936V17.616H42.064V28H40.032ZM48.9485 28.176C48.0738 28.176 47.2952 27.9787 46.6125 27.584C45.9405 27.1787 45.4178 26.6293 45.0445 25.936C44.6712 25.232 44.4845 24.4427 44.4845 23.568C44.4845 22.7573 44.6498 21.9947 44.9805 21.28C45.3218 20.5653 45.8232 19.9893 46.4845 19.552C47.1565 19.1147 47.9618 18.896 48.9005 18.896C49.6898 18.896 50.4205 19.0667 51.0925 19.408C51.7752 19.7387 52.3192 20.2453 52.7245 20.928C53.1405 21.6107 53.3485 22.448 53.3485 23.44V23.92H47.4285C46.8738 23.92 46.4898 23.904 46.2765 23.872L46.2125 24.128C46.3085 24.1493 46.3725 24.192 46.4045 24.256C46.4472 24.3093 46.4898 24.3947 46.5325 24.512C46.6285 24.736 46.6872 24.8693 46.7085 24.912C46.9218 25.4133 47.2258 25.808 47.6205 26.096C48.0258 26.384 48.4845 26.528 48.9965 26.528C49.5405 26.528 50.0045 26.3893 50.3885 26.112C50.7832 25.824 51.0658 25.4667 51.2365 25.04H53.1885C52.9005 25.968 52.3992 26.7253 51.6845 27.312C50.9698 27.888 50.0578 28.176 48.9485 28.176ZM46.4845 22.688C46.6445 22.592 46.7832 22.528 46.9005 22.496C47.0285 22.4533 47.1778 22.432 47.3485 22.432H50.5165C50.6978 22.432 50.8525 22.4533 50.9805 22.496C51.1192 22.528 51.2685 22.592 51.4285 22.688L51.5885 22.48C51.4925 22.4267 51.4285 22.3787 51.3965 22.336C51.3752 22.2827 51.3485 22.208 51.3165 22.112C51.2952 21.9627 51.2205 21.7867 51.0925 21.584C50.8792 21.2107 50.5858 20.928 50.2125 20.736C49.8392 20.5333 49.4232 20.432 48.9645 20.432C48.4952 20.432 48.0792 20.5333 47.7165 20.736C47.3538 20.928 47.0605 21.2107 46.8365 21.584C46.7512 21.7227 46.6765 21.8987 46.6125 22.112C46.5912 22.1973 46.5645 22.2667 46.5325 22.32C46.5005 22.3627 46.4365 22.416 46.3405 22.48L46.4845 22.688ZM57.088 28C56.3947 28 55.872 27.84 55.52 27.52C55.168 27.2 54.992 26.672 54.992 25.936V15.792H56.88V25.44C56.88 25.792 56.9387 26.0427 57.056 26.192C57.184 26.3413 57.408 26.416 57.728 26.416H58.256V28H57.088ZM63.511 28.176C62.6363 28.176 61.8577 27.9787 61.175 27.584C60.503 27.1787 59.9803 26.6293 59.607 25.936C59.2337 25.232 59.047 24.4427 59.047 23.568C59.047 22.7573 59.2123 21.9947 59.543 21.28C59.8843 20.5653 60.3857 19.9893 61.047 19.552C61.719 19.1147 62.5243 18.896 63.463 18.896C64.2523 18.896 64.983 19.0667 65.655 19.408C66.3377 19.7387 66.8817 20.2453 67.287 20.928C67.703 21.6107 67.911 22.448 67.911 23.44V23.92H61.991C61.4363 23.92 61.0523 23.904 60.839 23.872L60.775 24.128C60.871 24.1493 60.935 24.192 60.967 24.256C61.0097 24.3093 61.0523 24.3947 61.095 24.512C61.191 24.736 61.2497 24.8693 61.271 24.912C61.4843 25.4133 61.7883 25.808 62.183 26.096C62.5883 26.384 63.047 26.528 63.559 26.528C64.103 26.528 64.567 26.3893 64.951 26.112C65.3457 25.824 65.6283 25.4667 65.799 25.04H67.751C67.463 25.968 66.9617 26.7253 66.247 27.312C65.5323 27.888 64.6203 28.176 63.511 28.176ZM61.047 22.688C61.207 22.592 61.3457 22.528 61.463 22.496C61.591 22.4533 61.7403 22.432 61.911 22.432H65.079C65.2603 22.432 65.415 22.4533 65.543 22.496C65.6817 22.528 65.831 22.592 65.991 22.688L66.151 22.48C66.055 22.4267 65.991 22.3787 65.959 22.336C65.9377 22.2827 65.911 22.208 65.879 22.112C65.8577 21.9627 65.783 21.7867 65.655 21.584C65.4417 21.2107 65.1483 20.928 64.775 20.736C64.4017 20.5333 63.9857 20.432 63.527 20.432C63.0577 20.432 62.6417 20.5333 62.279 20.736C61.9163 20.928 61.623 21.2107 61.399 21.584C61.3137 21.7227 61.239 21.8987 61.175 22.112C61.1537 22.1973 61.127 22.2667 61.095 22.32C61.063 22.3627 60.999 22.416 60.903 22.48L61.047 22.688ZM73.6505 31.44C72.5945 31.44 71.6878 31.2213 70.9305 30.784C70.1838 30.3467 69.7252 29.6053 69.5545 28.56H71.4585C71.5972 29.0293 71.8425 29.3707 72.1945 29.584C72.5465 29.808 73.0265 29.92 73.6345 29.92C74.4025 29.92 74.9678 29.744 75.3305 29.392C75.7038 29.04 75.8905 28.5547 75.8905 27.936V27.488C75.8905 27.3067 75.9012 27.1733 75.9225 27.088C75.9545 26.992 76.0185 26.8853 76.1145 26.768L75.8905 26.608C75.5278 27.1307 75.1438 27.504 74.7385 27.728C74.3438 27.9413 73.8425 28.048 73.2345 28.048C72.4558 28.048 71.7678 27.856 71.1705 27.472C70.5732 27.0773 70.1092 26.5333 69.7785 25.84C69.4478 25.1467 69.2825 24.3627 69.2825 23.488C69.2825 22.6027 69.4478 21.8133 69.7785 21.12C70.1092 20.416 70.5732 19.872 71.1705 19.488C71.7678 19.0933 72.4505 18.896 73.2185 18.896C73.8265 18.896 74.3332 19.0027 74.7385 19.216C75.1438 19.4293 75.5278 19.7973 75.8905 20.32L76.1145 20.176C76.0292 20.0587 75.9705 19.9467 75.9385 19.84C75.9065 19.7333 75.8905 19.6 75.8905 19.44V19.056H77.7785V27.504C77.7785 28.9333 77.4105 29.9467 76.6745 30.544C75.9492 31.1413 74.9412 31.44 73.6505 31.44ZM73.6025 26.416C74.0825 26.416 74.5092 26.288 74.8825 26.032C75.2665 25.776 75.5598 25.4293 75.7625 24.992C75.9758 24.544 76.0825 24.0373 76.0825 23.472C76.0825 22.9173 75.9758 22.416 75.7625 21.968C75.5492 21.52 75.2558 21.168 74.8825 20.912C74.5092 20.656 74.0825 20.528 73.6025 20.528C72.8772 20.528 72.2905 20.8107 71.8425 21.376C71.4052 21.9307 71.1865 22.6293 71.1865 23.472C71.1865 24.3253 71.4052 25.0293 71.8425 25.584C72.2905 26.1387 72.8772 26.416 73.6025 26.416ZM79.8525 19.056H81.7405V19.44C81.7405 19.6 81.7245 19.7333 81.6925 19.84C81.6605 19.9467 81.6018 20.0587 81.5165 20.176L81.7405 20.32C82.0712 19.808 82.4445 19.4453 82.8605 19.232C83.2765 19.008 83.7885 18.896 84.3965 18.896H84.6045V20.736H84.1245C83.4098 20.736 82.8605 20.928 82.4765 21.312C81.9858 21.7707 81.7405 22.56 81.7405 23.68V28H79.8525V19.056ZM88.3809 28.176C87.5062 28.176 86.8022 27.9467 86.2689 27.488C85.7355 27.0293 85.4689 26.3893 85.4689 25.568C85.4689 24.736 85.7942 24.08 86.4449 23.6C86.9142 23.2587 87.6075 22.9973 88.5249 22.816L91.3569 22.288C91.3462 21.6907 91.1862 21.232 90.8769 20.912C90.5462 20.5813 90.0982 20.416 89.5329 20.416C89.0742 20.416 88.6742 20.5493 88.3329 20.816C87.9915 21.072 87.7782 21.424 87.6929 21.872H85.8049C85.9542 20.912 86.3809 20.176 87.0849 19.664C87.7995 19.152 88.6209 18.896 89.5489 18.896C90.0822 18.896 90.5782 18.9707 91.0369 19.12C91.5062 19.2693 91.9062 19.4933 92.2369 19.792C92.6742 20.1973 92.9462 20.672 93.0529 21.216C93.1702 21.76 93.2289 22.4053 93.2289 23.152V28H91.3409V27.696C91.3409 27.4507 91.4049 27.1573 91.5329 26.816L91.3089 26.704C91.0849 27.0987 90.7969 27.424 90.4449 27.68C89.9542 28.0107 89.2662 28.176 88.3809 28.176ZM88.7969 26.64C89.2342 26.64 89.6449 26.5493 90.0289 26.368C90.4662 26.144 90.7755 25.872 90.9569 25.552C91.0635 25.36 91.1435 25.1787 91.1969 25.008C91.2502 24.8373 91.3089 24.608 91.3729 24.32C91.4049 24.1813 91.4475 24.08 91.5009 24.016C91.5542 23.9413 91.6289 23.8987 91.7249 23.888L91.6769 23.632C90.8129 23.824 90.2155 23.9467 89.8849 24L88.9889 24.176C88.3702 24.304 87.9329 24.4853 87.6769 24.72C87.4635 24.9333 87.3569 25.2 87.3569 25.52C87.3569 25.872 87.4849 26.1493 87.7409 26.352C88.0075 26.544 88.3595 26.64 88.7969 26.64ZM95.2119 19.056H97.0999V19.44C97.0999 19.6 97.0839 19.7333 97.0519 19.84C97.0199 19.9467 96.9612 20.0587 96.8759 20.176L97.0999 20.32C97.4519 19.808 97.8199 19.4453 98.2039 19.232C98.5985 19.008 99.0625 18.896 99.5959 18.896C100.161 18.896 100.663 19.024 101.1 19.28C101.537 19.536 101.804 19.9093 101.9 20.4H102.108C102.332 19.8453 102.673 19.456 103.132 19.232C103.591 19.008 104.103 18.896 104.668 18.896C105.66 18.896 106.401 19.1787 106.892 19.744C107.383 20.3093 107.628 21.1093 107.628 22.144V28H105.74V22.432C105.74 21.792 105.607 21.3067 105.34 20.976C105.073 20.6453 104.695 20.48 104.204 20.48C103.713 20.48 103.308 20.64 102.988 20.96C102.753 21.216 102.588 21.5467 102.492 21.952C102.407 22.3573 102.364 22.8747 102.364 23.504V28H100.476V22.432C100.476 21.792 100.337 21.3067 100.06 20.976C99.7932 20.6453 99.4092 20.48 98.9079 20.48C98.4279 20.48 98.0332 20.6507 97.7239 20.992C97.5105 21.2267 97.3505 21.5413 97.2439 21.936C97.1479 22.3307 97.0999 22.8533 97.0999 23.504V28H95.2119V19.056Z" fill="#298DFE"/>
<defs>
<clipPath id="clip0_3407_9673">
<rect width="24" height="24" fill="white" transform="translate(0 10)"/>
</clipPath>
</defs>
</svg>
