<svg width="85" height="44" viewBox="0 0 85 44" fill="none" xmlns="http://www.w3.org/2000/svg">
<rect width="85" height="44" rx="8" fill="white"/>
<path d="M17.0725 10H13.0278V26.3478C13.0278 28.2957 11.4722 29.8957 9.53626 29.8957C7.60034 29.8957 6.04469 28.2957 6.04469 26.3478C6.04469 24.4348 7.56577 22.8695 9.43257 22.8V18.6957C5.31872 18.7652 2 22.1391 2 26.3478C2 30.5913 5.38786 34 9.57085 34C13.7538 34 17.1416 30.5565 17.1416 26.3478V17.9652C18.6627 19.0783 20.5295 19.7391 22.5 19.7739V15.6696C19.4579 15.5652 17.0725 13.0609 17.0725 10Z" fill="#298DFE"/>
<path d="M40.032 28V17.616H36.192V15.792H45.936V17.616H42.064V28H40.032ZM47.1494 28V19.056H49.0374V28H47.1494ZM48.0934 17.904C47.752 17.904 47.4587 17.7973 47.2134 17.584C46.9787 17.36 46.8614 17.0827 46.8614 16.752C46.8614 16.4213 46.9787 16.1493 47.2134 15.936C47.4587 15.712 47.752 15.6 48.0934 15.6C48.4454 15.6 48.7387 15.712 48.9734 15.936C49.208 16.1493 49.3254 16.4213 49.3254 16.752C49.3254 17.0827 49.208 17.36 48.9734 17.584C48.7387 17.7973 48.4454 17.904 48.0934 17.904ZM51.1025 15.792H52.9905V20.976C52.9905 21.2427 52.9798 21.4773 52.9585 21.68C52.9478 21.8827 52.9052 22.1173 52.8305 22.384L53.0225 22.48C53.3958 22.064 53.6678 21.7813 53.8385 21.632L56.4785 19.056H58.9425L55.4385 22.384C55.2358 22.576 54.9905 22.7307 54.7025 22.848V23.072C54.9585 23.1893 55.2038 23.376 55.4385 23.632L59.2625 28H56.8625L53.8385 24.48C53.6785 24.2987 53.4065 23.9733 53.0225 23.504L52.8305 23.584C52.9052 23.872 52.9478 24.1227 52.9585 24.336C52.9798 24.5493 52.9905 24.8 52.9905 25.088V28H51.1025V15.792ZM63.215 28C62.5217 28 61.999 27.84 61.647 27.52C61.295 27.2 61.119 26.672 61.119 25.936V20.624H59.775V19.056H61.119V15.792H63.007V19.056H64.831V20.624H63.007V25.408C63.007 25.7493 63.0603 26.0053 63.167 26.176C63.2737 26.336 63.5083 26.416 63.871 26.416H64.815V28H63.215ZM70.3711 28.176C69.4965 28.176 68.7178 27.9787 68.0351 27.584C67.3525 27.1893 66.8191 26.64 66.4351 25.936C66.0618 25.2213 65.8751 24.4053 65.8751 23.488C65.8751 22.6027 66.0618 21.8133 66.4351 21.12C66.8191 20.416 67.3525 19.872 68.0351 19.488C68.7178 19.0933 69.4965 18.896 70.3711 18.896C71.2458 18.896 72.0245 19.0933 72.7071 19.488C73.3898 19.872 73.9231 20.416 74.3071 21.12C74.6911 21.8133 74.8831 22.6027 74.8831 23.488C74.8831 24.3947 74.6911 25.2053 74.3071 25.92C73.9338 26.624 73.4058 27.1787 72.7231 27.584C72.0405 27.9787 71.2565 28.176 70.3711 28.176ZM70.3711 26.528C70.8618 26.528 71.3045 26.4 71.6991 26.144C72.0938 25.8773 72.3978 25.5147 72.6111 25.056C72.8351 24.5973 72.9471 24.0747 72.9471 23.488C72.9471 22.9333 72.8351 22.432 72.6111 21.984C72.3978 21.5253 72.0938 21.168 71.6991 20.912C71.3045 20.656 70.8618 20.528 70.3711 20.528C69.8805 20.528 69.4378 20.656 69.0431 20.912C68.6485 21.1573 68.3391 21.5093 68.1151 21.968C67.9018 22.416 67.7951 22.9227 67.7951 23.488C67.7951 24.0853 67.9071 24.6133 68.1311 25.072C68.3551 25.5307 68.6591 25.888 69.0431 26.144C69.4378 26.4 69.8805 26.528 70.3711 26.528ZM76.6025 15.792H78.4905V20.976C78.4905 21.2427 78.4798 21.4773 78.4585 21.68C78.4478 21.8827 78.4052 22.1173 78.3305 22.384L78.5225 22.48C78.8958 22.064 79.1678 21.7813 79.3385 21.632L81.9785 19.056H84.4425L80.9385 22.384C80.7358 22.576 80.4905 22.7307 80.2025 22.848V23.072C80.4585 23.1893 80.7038 23.376 80.9385 23.632L84.7625 28H82.3625L79.3385 24.48C79.1785 24.2987 78.9065 23.9733 78.5225 23.504L78.3305 23.584C78.4052 23.872 78.4478 24.1227 78.4585 24.336C78.4798 24.5493 78.4905 24.8 78.4905 25.088V28H76.6025V15.792Z" fill="#298DFE"/>
</svg>
