<svg width="116" height="44" viewBox="0 0 116 44" fill="none" xmlns="http://www.w3.org/2000/svg">
<g clip-path="url(#clip0_6529_183515)">
<rect width="116" height="44" rx="8" fill="white"/>
<path d="M21.1999 33.9883H2.79618C1.25076 33.9883 -0.00195312 32.7356 -0.00195312 31.1902V12.7864C-0.00195312 11.241 1.25076 9.98828 2.79618 9.98828H21.1996C22.7451 9.98828 23.9978 11.241 23.9978 12.7864V31.1899C23.998 32.7356 22.7453 33.9883 21.1999 33.9883Z" fill="#298DFE" stroke="white" stroke-miterlimit="10"/>
<path d="M3.68519 14.168L10.1357 22.7931L3.64453 29.8055H5.10556L10.7887 23.6659L15.3804 29.8055H20.352L13.5384 20.6954L19.5804 14.168H18.1194L12.8857 19.8223L8.65677 14.168H3.68519ZM5.83369 15.2443H8.11762L18.2032 28.7295H15.9193L5.83369 15.2443Z" fill="white"/>
<path d="M40.288 21.888L36.208 15.792H38.624L41.072 19.568C41.264 19.856 41.392 20.0853 41.456 20.256C41.5307 20.4267 41.568 20.608 41.568 20.8H41.792C41.792 20.608 41.824 20.4267 41.888 20.256C41.9627 20.0853 42.096 19.856 42.288 19.568L44.736 15.792H47.152L43.072 21.888L47.184 28H44.784L42.352 24.4C42.128 24.08 41.9787 23.8293 41.904 23.648C41.8293 23.456 41.792 23.2533 41.792 23.04H41.568C41.568 23.2533 41.5307 23.456 41.456 23.648C41.3813 23.8293 41.232 24.08 41.008 24.4L38.576 28H36.176L40.288 21.888ZM54.4068 29.776C53.2014 27.5787 52.5988 24.96 52.5988 21.92C52.5988 18.88 53.2014 16.256 54.4068 14.048H56.1988C55.5161 15.232 55.0148 16.4587 54.6948 17.728C54.3748 18.9973 54.2148 20.3947 54.2148 21.92C54.2148 23.424 54.3748 24.816 54.6948 26.096C55.0148 27.3653 55.5161 28.592 56.1988 29.776H54.4068ZM60.5164 28V17.616H56.6764V15.792H66.4204V17.616H62.5484V28H60.5164ZM66.2103 19.056H68.2263L69.6023 24.192C69.6556 24.4053 69.6929 24.6187 69.7143 24.832C69.7463 25.0453 69.7676 25.2747 69.7783 25.52H69.9703C69.9809 25.232 69.9969 24.9973 70.0182 24.816C70.0503 24.624 70.0983 24.416 70.1623 24.192L71.7463 19.056H73.4103L75.0103 24.192C75.1063 24.544 75.1649 24.9867 75.1863 25.52H75.3943C75.4049 25.2107 75.4156 24.9653 75.4263 24.784C75.4476 24.6027 75.4903 24.4053 75.5543 24.192L76.9623 19.056H78.9783L76.2423 28H74.4663L72.8983 22.736C72.8236 22.5013 72.7756 22.2987 72.7543 22.128C72.7329 21.9573 72.7116 21.7173 72.6903 21.408H72.4983C72.4769 21.6853 72.4503 21.9147 72.4183 22.096C72.3969 22.2773 72.3489 22.4907 72.2743 22.736L70.6743 28H68.8983L66.2103 19.056ZM80.3213 28V19.056H82.2093V28H80.3213ZM81.2653 17.904C80.9239 17.904 80.6306 17.7973 80.3853 17.584C80.1506 17.36 80.0333 17.0827 80.0333 16.752C80.0333 16.4213 80.1506 16.1493 80.3853 15.936C80.6306 15.712 80.9239 15.6 81.2653 15.6C81.6173 15.6 81.9106 15.712 82.1453 15.936C82.3799 16.1493 82.4973 16.4213 82.4973 16.752C82.4973 17.0827 82.3799 17.36 82.1453 17.584C81.9106 17.7973 81.6173 17.904 81.2653 17.904ZM87.0744 28C86.381 28 85.8584 27.84 85.5064 27.52C85.1544 27.2 84.9784 26.672 84.9784 25.936V20.624H83.6344V19.056H84.9784V15.792H86.8664V19.056H88.6904V20.624H86.8664V25.408C86.8664 25.7493 86.9197 26.0053 87.0264 26.176C87.133 26.336 87.3677 26.416 87.7304 26.416H88.6744V28H87.0744ZM93.09 28C92.3967 28 91.874 27.84 91.522 27.52C91.17 27.2 90.994 26.672 90.994 25.936V20.624H89.65V19.056H90.994V15.792H92.882V19.056H94.706V20.624H92.882V25.408C92.882 25.7493 92.9353 26.0053 93.042 26.176C93.1487 26.336 93.3833 26.416 93.746 26.416H94.69V28H93.09ZM100.214 28.176C99.3395 28.176 98.5608 27.9787 97.8781 27.584C97.2061 27.1787 96.6835 26.6293 96.3101 25.936C95.9368 25.232 95.7501 24.4427 95.7501 23.568C95.7501 22.7573 95.9155 21.9947 96.2461 21.28C96.5875 20.5653 97.0888 19.9893 97.7501 19.552C98.4221 19.1147 99.2275 18.896 100.166 18.896C100.955 18.896 101.686 19.0667 102.358 19.408C103.041 19.7387 103.585 20.2453 103.99 20.928C104.406 21.6107 104.614 22.448 104.614 23.44V23.92H98.6941C98.1395 23.92 97.7555 23.904 97.5421 23.872L97.4781 24.128C97.5741 24.1493 97.6381 24.192 97.6701 24.256C97.7128 24.3093 97.7555 24.3947 97.7981 24.512C97.8941 24.736 97.9528 24.8693 97.9741 24.912C98.1875 25.4133 98.4915 25.808 98.8861 26.096C99.2915 26.384 99.7501 26.528 100.262 26.528C100.806 26.528 101.27 26.3893 101.654 26.112C102.049 25.824 102.331 25.4667 102.502 25.04H104.454C104.166 25.968 103.665 26.7253 102.95 27.312C102.235 27.888 101.323 28.176 100.214 28.176ZM97.7501 22.688C97.9101 22.592 98.0488 22.528 98.1661 22.496C98.2941 22.4533 98.4435 22.432 98.6141 22.432H101.782C101.963 22.432 102.118 22.4533 102.246 22.496C102.385 22.528 102.534 22.592 102.694 22.688L102.854 22.48C102.758 22.4267 102.694 22.3787 102.662 22.336C102.641 22.2827 102.614 22.208 102.582 22.112C102.561 21.9627 102.486 21.7867 102.358 21.584C102.145 21.2107 101.851 20.928 101.478 20.736C101.105 20.5333 100.689 20.432 100.23 20.432C99.7608 20.432 99.3448 20.5333 98.9821 20.736C98.6195 20.928 98.3261 21.2107 98.1021 21.584C98.0168 21.7227 97.9421 21.8987 97.8781 22.112C97.8568 22.1973 97.8301 22.2667 97.7981 22.32C97.7661 22.3627 97.7021 22.416 97.6061 22.48L97.7501 22.688ZM106.306 19.056H108.194V19.44C108.194 19.6 108.178 19.7333 108.146 19.84C108.114 19.9467 108.055 20.0587 107.97 20.176L108.194 20.32C108.524 19.808 108.898 19.4453 109.314 19.232C109.73 19.008 110.242 18.896 110.85 18.896H111.058V20.736H110.578C109.863 20.736 109.314 20.928 108.93 21.312C108.439 21.7707 108.194 22.56 108.194 23.68V28H106.306V19.056ZM111.242 29.776C111.914 28.592 112.41 27.3653 112.73 26.096C113.05 24.816 113.21 23.424 113.21 21.92C113.21 20.3947 113.05 18.9973 112.73 17.728C112.41 16.4587 111.908 15.232 111.226 14.048H113.018C114.223 16.2347 114.826 18.8587 114.826 21.92C114.826 24.96 114.223 27.5787 113.018 29.776H111.242Z" fill="#298DFE"/>
</g>
<defs>
<clipPath id="clip0_6529_183515">
<rect width="116" height="44" rx="8" fill="white"/>
</clipPath>
</defs>
</svg>
