<svg width="152" height="44" viewBox="0 0 152 44" fill="none" xmlns="http://www.w3.org/2000/svg">
<rect width="152" height="44" rx="8" fill="white"/>
<path d="M7.55016 31.75C16.6045 31.75 21.5583 24.2467 21.5583 17.7419C21.5583 17.5309 21.5536 17.3153 21.5442 17.1044C22.5079 16.4075 23.3395 15.5443 24 14.5553C23.1025 14.9546 22.1496 15.2154 21.1739 15.3287C22.2013 14.7129 22.9705 13.7455 23.3391 12.6058C22.3726 13.1786 21.3156 13.5826 20.2134 13.8006C19.4708 13.0116 18.489 12.4891 17.4197 12.3141C16.3504 12.139 15.2532 12.3211 14.2977 12.8321C13.3423 13.3431 12.5818 14.1547 12.1338 15.1413C11.6859 16.1279 11.5754 17.2346 11.8195 18.2903C9.86249 18.1921 7.94794 17.6837 6.19998 16.7981C4.45203 15.9125 2.90969 14.6694 1.67297 13.1495C1.0444 14.2332 0.852057 15.5156 1.13503 16.7361C1.418 17.9565 2.15506 19.0234 3.19641 19.72C2.41463 19.6952 1.64998 19.4847 0.965625 19.1059V19.1669C0.964925 20.3041 1.3581 21.4066 2.07831 22.2868C2.79852 23.167 3.80132 23.7706 4.91625 23.995C4.19206 24.1931 3.43198 24.222 2.69484 24.0794C3.00945 25.0574 3.62157 25.9129 4.44577 26.5263C5.26997 27.1398 6.26512 27.4806 7.29234 27.5012C5.54842 28.8711 3.39417 29.6141 1.17656 29.6106C0.783287 29.61 0.390399 29.5859 0 29.5384C2.25286 30.9837 4.87353 31.7514 7.55016 31.75Z" fill="#298DFE"/>
<path d="M37.136 28V15.792H45.216V17.616H39.168V20.976H44.544V22.784H39.168V28H37.136ZM50.5118 28.176C49.6371 28.176 48.8584 27.9787 48.1758 27.584C47.4931 27.1893 46.9598 26.64 46.5758 25.936C46.2024 25.2213 46.0158 24.4053 46.0158 23.488C46.0158 22.6027 46.2024 21.8133 46.5758 21.12C46.9598 20.416 47.4931 19.872 48.1758 19.488C48.8584 19.0933 49.6371 18.896 50.5118 18.896C51.3864 18.896 52.1651 19.0933 52.8478 19.488C53.5304 19.872 54.0638 20.416 54.4478 21.12C54.8318 21.8133 55.0238 22.6027 55.0238 23.488C55.0238 24.3947 54.8318 25.2053 54.4478 25.92C54.0744 26.624 53.5464 27.1787 52.8638 27.584C52.1811 27.9787 51.3971 28.176 50.5118 28.176ZM50.5118 26.528C51.0024 26.528 51.4451 26.4 51.8398 26.144C52.2344 25.8773 52.5384 25.5147 52.7518 25.056C52.9758 24.5973 53.0878 24.0747 53.0878 23.488C53.0878 22.9333 52.9758 22.432 52.7518 21.984C52.5384 21.5253 52.2344 21.168 51.8398 20.912C51.4451 20.656 51.0024 20.528 50.5118 20.528C50.0211 20.528 49.5784 20.656 49.1838 20.912C48.7891 21.1573 48.4798 21.5093 48.2558 21.968C48.0424 22.416 47.9358 22.9227 47.9358 23.488C47.9358 24.0853 48.0478 24.6133 48.2718 25.072C48.4958 25.5307 48.7998 25.888 49.1838 26.144C49.5784 26.4 50.0211 26.528 50.5118 26.528ZM58.7911 28C58.0978 28 57.5751 27.84 57.2231 27.52C56.8711 27.2 56.6951 26.672 56.6951 25.936V15.792H58.5831V25.44C58.5831 25.792 58.6418 26.0427 58.7591 26.192C58.8871 26.3413 59.1111 26.416 59.4311 26.416H59.9591V28H58.7911ZM63.4786 28C62.7853 28 62.2626 27.84 61.9106 27.52C61.5586 27.2 61.3826 26.672 61.3826 25.936V15.792H63.2706V25.44C63.2706 25.792 63.3293 26.0427 63.4466 26.192C63.5746 26.3413 63.7986 26.416 64.1186 26.416H64.6466V28H63.4786ZM69.9336 28.176C69.059 28.176 68.2803 27.9787 67.5976 27.584C66.915 27.1893 66.3816 26.64 65.9976 25.936C65.6243 25.2213 65.4376 24.4053 65.4376 23.488C65.4376 22.6027 65.6243 21.8133 65.9976 21.12C66.3816 20.416 66.915 19.872 67.5976 19.488C68.2803 19.0933 69.059 18.896 69.9336 18.896C70.8083 18.896 71.587 19.0933 72.2696 19.488C72.9523 19.872 73.4856 20.416 73.8696 21.12C74.2536 21.8133 74.4456 22.6027 74.4456 23.488C74.4456 24.3947 74.2536 25.2053 73.8696 25.92C73.4963 26.624 72.9683 27.1787 72.2856 27.584C71.603 27.9787 70.819 28.176 69.9336 28.176ZM69.9336 26.528C70.4243 26.528 70.867 26.4 71.2616 26.144C71.6563 25.8773 71.9603 25.5147 72.1736 25.056C72.3976 24.5973 72.5096 24.0747 72.5096 23.488C72.5096 22.9333 72.3976 22.432 72.1736 21.984C71.9603 21.5253 71.6563 21.168 71.2616 20.912C70.867 20.656 70.4243 20.528 69.9336 20.528C69.443 20.528 69.0003 20.656 68.6056 20.912C68.211 21.1573 67.9016 21.5093 67.6776 21.968C67.4643 22.416 67.3576 22.9227 67.3576 23.488C67.3576 24.0853 67.4696 24.6133 67.6936 25.072C67.9176 25.5307 68.2216 25.888 68.6056 26.144C69.0003 26.4 69.443 26.528 69.9336 26.528ZM75.429 19.056H77.445L78.821 24.192C78.8743 24.4053 78.9117 24.6187 78.933 24.832C78.965 25.0453 78.9863 25.2747 78.997 25.52H79.189C79.1997 25.232 79.2157 24.9973 79.237 24.816C79.269 24.624 79.317 24.416 79.381 24.192L80.965 19.056H82.629L84.229 24.192C84.325 24.544 84.3837 24.9867 84.405 25.52H84.613C84.6237 25.2107 84.6343 24.9653 84.645 24.784C84.6663 24.6027 84.709 24.4053 84.773 24.192L86.181 19.056H88.197L85.461 28H83.685L82.117 22.736C82.0423 22.5013 81.9943 22.2987 81.973 22.128C81.9517 21.9573 81.9303 21.7173 81.909 21.408H81.717C81.6957 21.6853 81.669 21.9147 81.637 22.096C81.6157 22.2773 81.5677 22.4907 81.493 22.736L79.893 28H78.117L75.429 19.056ZM96.9714 28.176C95.638 28.176 94.726 27.6853 94.2354 26.704C94.0647 26.352 93.958 25.9947 93.9154 25.632C93.8727 25.2693 93.8514 24.8213 93.8514 24.288V19.056H95.7394V24.304C95.7394 25.2 95.894 25.8187 96.2034 26.16C96.4807 26.448 96.886 26.592 97.4194 26.592C98.0487 26.592 98.5287 26.4 98.8594 26.016C99.0727 25.76 99.2274 25.4293 99.3234 25.024C99.43 24.6187 99.4834 24.0693 99.4834 23.376V19.056H101.371V28H99.4834V27.616C99.4834 27.456 99.4994 27.3227 99.5314 27.216C99.5634 27.0987 99.622 26.992 99.7074 26.896L99.4834 26.736C99.1207 27.2587 98.742 27.632 98.3474 27.856C97.9634 28.0693 97.5047 28.176 96.9714 28.176ZM107.191 28.176C106.081 28.176 105.137 27.9093 104.359 27.376C103.591 26.8427 103.132 26.064 102.983 25.04H104.887C105.015 25.552 105.276 25.9467 105.671 26.224C106.065 26.5013 106.572 26.64 107.191 26.64C107.713 26.64 108.129 26.544 108.439 26.352C108.759 26.1493 108.919 25.8667 108.919 25.504C108.919 25.216 108.817 24.9867 108.615 24.816C108.423 24.6453 108.177 24.5173 107.879 24.432C107.591 24.336 107.191 24.2347 106.679 24.128C105.975 23.9893 105.399 23.8453 104.951 23.696C104.513 23.5467 104.135 23.3013 103.815 22.96C103.505 22.608 103.351 22.128 103.351 21.52C103.351 20.6667 103.671 20.016 104.311 19.568C104.951 19.12 105.761 18.896 106.743 18.896C107.767 18.896 108.62 19.1573 109.303 19.68C109.985 20.2027 110.407 20.928 110.567 21.856H108.791C108.663 21.376 108.417 21.0187 108.055 20.784C107.692 20.5387 107.255 20.416 106.743 20.416C106.263 20.416 105.884 20.5067 105.607 20.688C105.329 20.8693 105.191 21.1147 105.191 21.424C105.191 21.68 105.281 21.888 105.463 22.048C105.655 22.1973 105.889 22.3147 106.167 22.4C106.455 22.4747 106.849 22.56 107.351 22.656C108.065 22.784 108.652 22.928 109.111 23.088C109.569 23.248 109.964 23.5093 110.295 23.872C110.625 24.224 110.791 24.7147 110.791 25.344C110.791 26.208 110.471 26.896 109.831 27.408C109.191 27.92 108.311 28.176 107.191 28.176ZM121.027 28.176C120.153 28.176 119.374 27.9787 118.691 27.584C118.009 27.1893 117.475 26.64 117.091 25.936C116.718 25.2213 116.531 24.4053 116.531 23.488C116.531 22.6027 116.718 21.8133 117.091 21.12C117.475 20.416 118.009 19.872 118.691 19.488C119.374 19.0933 120.153 18.896 121.027 18.896C121.902 18.896 122.681 19.0933 123.363 19.488C124.046 19.872 124.579 20.416 124.963 21.12C125.347 21.8133 125.539 22.6027 125.539 23.488C125.539 24.3947 125.347 25.2053 124.963 25.92C124.59 26.624 124.062 27.1787 123.379 27.584C122.697 27.9787 121.913 28.176 121.027 28.176ZM121.027 26.528C121.518 26.528 121.961 26.4 122.355 26.144C122.75 25.8773 123.054 25.5147 123.267 25.056C123.491 24.5973 123.603 24.0747 123.603 23.488C123.603 22.9333 123.491 22.432 123.267 21.984C123.054 21.5253 122.75 21.168 122.355 20.912C121.961 20.656 121.518 20.528 121.027 20.528C120.537 20.528 120.094 20.656 119.699 20.912C119.305 21.1573 118.995 21.5093 118.771 21.968C118.558 22.416 118.451 22.9227 118.451 23.488C118.451 24.0853 118.563 24.6133 118.787 25.072C119.011 25.5307 119.315 25.888 119.699 26.144C120.094 26.4 120.537 26.528 121.027 26.528ZM127.259 19.056H129.147V19.44C129.147 19.6 129.131 19.7333 129.099 19.84C129.067 19.9467 129.008 20.0587 128.923 20.176L129.147 20.32C129.499 19.808 129.867 19.4453 130.251 19.232C130.645 19.008 131.109 18.896 131.643 18.896C132.987 18.896 133.899 19.3813 134.379 20.352C134.56 20.704 134.672 21.0613 134.715 21.424C134.757 21.7867 134.779 22.2347 134.779 22.768V28H132.875V22.768C132.875 22.2987 132.837 21.9147 132.763 21.616C132.699 21.3173 132.587 21.0827 132.427 20.912C132.171 20.624 131.765 20.48 131.211 20.48C130.571 20.48 130.085 20.672 129.755 21.056C129.541 21.3013 129.387 21.6267 129.291 22.032C129.195 22.4373 129.147 22.992 129.147 23.696V28H127.259V19.056ZM144.382 21.888L140.302 15.792H142.718L145.166 19.568C145.358 19.856 145.486 20.0853 145.55 20.256C145.624 20.4267 145.662 20.608 145.662 20.8H145.886C145.886 20.608 145.918 20.4267 145.982 20.256C146.056 20.0853 146.19 19.856 146.382 19.568L148.83 15.792H151.246L147.166 21.888L151.278 28H148.878L146.446 24.4C146.222 24.08 146.072 23.8293 145.998 23.648C145.923 23.456 145.886 23.2533 145.886 23.04H145.662C145.662 23.2533 145.624 23.456 145.55 23.648C145.475 23.8293 145.326 24.08 145.102 24.4L142.67 28H140.27L144.382 21.888Z" fill="#298DFE"/>
</svg>
