<svg width="665" height="665" viewBox="0 0 665 665" fill="none" xmlns="http://www.w3.org/2000/svg">
<g opacity="0.2" filter="url(#filter0_f_6385_156449)">
<circle cx="332.5" cy="332.5" r="232.5" fill="#298DFE"/>
</g>
<ellipse cx="332.5" cy="487.5" rx="153.5" ry="33.5" fill="url(#paint0_linear_6385_156449)"/>
<path opacity="0.4" d="M332.5 521C417.276 521 486 506.002 486 487.5V194.5C486 213.002 417.276 227 332.5 227C247.724 227 179 213.002 179 194.5L179 487.5C179 506.002 247.724 521 332.5 521Z" fill="url(#paint1_linear_6385_156449)"/>
<path d="M332.5 529C417.276 529 486 514.002 486 495.5V487.5C486 506.002 417.276 520 332.5 520C247.724 520 179 506.002 179 487.5L179 495.5C179 514.002 247.724 529 332.5 529Z" fill="#298DFE"/>
<path opacity="0.3" d="M504.5 381.5C504.5 383.204 503.598 385.059 501.454 387.052C499.311 389.044 496.067 391.036 491.75 392.977C483.127 396.855 470.555 400.384 454.903 403.361C423.623 409.31 380.346 413 332.5 413C284.654 413 241.377 409.31 210.097 403.361C194.445 400.384 181.873 396.855 173.25 392.977C168.933 391.036 165.689 389.044 163.546 387.052C161.402 385.059 160.5 383.204 160.5 381.5C160.5 379.796 161.402 377.941 163.546 375.948C165.689 373.956 168.933 371.964 173.25 370.023C181.873 366.145 194.445 362.616 210.097 359.639C241.377 353.69 284.654 350 332.5 350C380.346 350 423.623 353.69 454.903 359.639C470.555 362.616 483.127 366.145 491.75 370.023C496.067 371.964 499.311 373.956 501.454 375.948C503.598 377.941 504.5 379.796 504.5 381.5Z" stroke="url(#paint2_linear_6385_156449)" stroke-width="3"/>
<g clip-path="url(#clip0_6385_156449)">
<path d="M418.41 362.39C465.858 314.909 465.858 237.927 418.41 190.445C370.962 142.964 294.033 142.964 246.585 190.445C199.136 237.927 199.136 314.909 246.585 362.39C294.033 409.872 370.962 409.872 418.41 362.39Z" fill="#1E344E"/>
<path d="M332.499 390.262C399.1 390.262 453.092 336.233 453.092 269.585C453.092 202.937 399.1 148.908 332.499 148.908C265.897 148.908 211.906 202.937 211.906 269.585C211.906 336.233 265.897 390.262 332.499 390.262Z" fill="#FFE200"/>
<path d="M332.5 391.169C399.603 391.169 454 336.734 454 269.585C454 202.435 399.603 148 332.5 148C265.397 148 211 202.435 211 269.585C211 336.734 265.397 391.169 332.5 391.169Z" fill="#298DFE"/>
<path d="M332.499 368.664C387.18 368.664 431.508 324.305 431.508 269.586C431.508 214.866 387.18 170.508 332.499 170.508C277.818 170.508 233.49 214.866 233.49 269.586C233.49 324.305 277.818 368.664 332.499 368.664Z" fill="#EAF4FF"/>
<path d="M332.498 363.201C384.165 363.201 426.049 321.288 426.049 269.585C426.049 217.882 384.165 175.969 332.498 175.969C280.831 175.969 238.947 217.882 238.947 269.585C238.947 321.288 280.831 363.201 332.498 363.201Z" fill="white"/>
<path d="M336.05 166.911H330.287C329.932 166.911 329.635 166.62 329.635 166.258V152.313C329.635 151.958 329.925 151.66 330.287 151.66H336.05C336.404 151.66 336.702 151.951 336.702 152.313V166.251C336.702 166.613 336.404 166.911 336.05 166.911Z" fill="white"/>
<path d="M336.05 387.14H330.287C329.932 387.14 329.635 386.849 329.635 386.487V372.549C329.635 372.194 329.925 371.896 330.287 371.896H336.05C336.404 371.896 336.702 372.187 336.702 372.549V386.487C336.702 386.849 336.404 387.14 336.05 387.14Z" fill="white"/>
<path d="M407.627 198.964L403.551 194.885C403.296 194.63 403.296 194.219 403.551 193.963L413.403 184.104C413.659 183.848 414.07 183.848 414.325 184.104L418.401 188.182C418.656 188.438 418.656 188.849 418.401 189.104L408.548 198.964C408.293 199.219 407.882 199.219 407.627 198.964Z" fill="white"/>
<path d="M252.011 354.696L247.936 350.618C247.68 350.362 247.68 349.951 247.936 349.696L257.788 339.836C258.043 339.581 258.455 339.581 258.71 339.836L262.785 343.915C263.041 344.17 263.041 344.581 262.785 344.837L252.933 354.696C252.678 354.952 252.259 354.952 252.011 354.696Z" fill="white"/>
<path d="M435.59 272.287V266.52C435.59 266.165 435.88 265.867 436.242 265.867H450.17C450.525 265.867 450.823 266.158 450.823 266.52V272.287C450.823 272.641 450.532 272.939 450.17 272.939H436.242C435.88 272.939 435.59 272.641 435.59 272.287Z" fill="white"/>
<path d="M215.514 272.287V266.52C215.514 266.165 215.804 265.867 216.166 265.867H230.094C230.449 265.867 230.746 266.158 230.746 266.52V272.287C230.746 272.641 230.456 272.939 230.094 272.939H216.159C215.804 272.939 215.514 272.641 215.514 272.287Z" fill="white"/>
<path d="M403.551 343.915L407.627 339.836C407.882 339.581 408.293 339.581 408.549 339.836L418.401 349.696C418.656 349.951 418.656 350.362 418.401 350.618L414.325 354.696C414.07 354.952 413.659 354.952 413.404 354.696L403.551 344.837C403.303 344.581 403.303 344.17 403.551 343.915Z" fill="white"/>
<path d="M247.936 188.19L252.011 184.111C252.266 183.856 252.678 183.856 252.933 184.111L262.785 193.971C263.041 194.226 263.041 194.638 262.785 194.893L258.71 198.972C258.455 199.227 258.043 199.227 257.788 198.972L247.936 189.112C247.68 188.857 247.68 188.438 247.936 188.19Z" fill="white"/>
<path d="M348.881 168.081L343.167 167.357C342.813 167.315 342.558 166.988 342.6 166.626L344.351 152.795C344.394 152.44 344.72 152.185 345.081 152.227L350.794 152.951C351.149 152.993 351.404 153.32 351.361 153.681L349.611 167.513C349.561 167.868 349.235 168.123 348.881 168.081Z" fill="white"/>
<path d="M321.265 386.573L315.544 385.849C315.19 385.807 314.935 385.48 314.977 385.119L316.728 371.287C316.771 370.932 317.097 370.677 317.458 370.719L323.171 371.443C323.526 371.486 323.781 371.812 323.738 372.174L321.988 386.005C321.945 386.36 321.619 386.615 321.265 386.573Z" fill="white"/>
<path d="M415.87 208.873L412.34 204.319C412.12 204.035 412.17 203.624 412.453 203.404L423.462 194.864C423.745 194.644 424.156 194.693 424.376 194.977L427.906 199.531C428.126 199.815 428.076 200.226 427.793 200.446L416.784 208.986C416.501 209.206 416.09 209.156 415.87 208.873Z" fill="white"/>
<path d="M241.954 343.83L238.424 339.276C238.204 338.992 238.254 338.581 238.537 338.361L249.546 329.821C249.829 329.601 250.24 329.65 250.46 329.934L253.99 334.488C254.21 334.772 254.16 335.183 253.876 335.403L242.868 343.943C242.585 344.163 242.174 344.113 241.954 343.83Z" fill="white"/>
<path d="M434.421 285.125L435.144 279.408C435.186 279.053 435.512 278.798 435.874 278.841L449.696 280.593C450.05 280.635 450.306 280.961 450.263 281.323L449.54 287.04C449.497 287.395 449.171 287.65 448.81 287.608L434.988 285.856C434.626 285.806 434.378 285.48 434.421 285.125Z" fill="white"/>
<path d="M216.081 257.49L216.804 251.773C216.846 251.419 217.173 251.163 217.534 251.206L231.356 252.958C231.711 253 231.966 253.327 231.923 253.688L231.2 259.406C231.158 259.76 230.832 260.016 230.47 259.973L216.648 258.221C216.286 258.171 216.038 257.845 216.081 257.49Z" fill="white"/>
<path d="M393.657 352.164L398.207 348.631C398.491 348.411 398.902 348.461 399.122 348.745L407.656 359.76C407.876 360.044 407.826 360.456 407.543 360.675L402.992 364.208C402.708 364.428 402.297 364.378 402.077 364.094L393.543 353.079C393.323 352.795 393.373 352.383 393.657 352.164Z" fill="white"/>
<path d="M258.795 178.125L263.345 174.592C263.629 174.372 264.04 174.422 264.26 174.706L272.794 185.721C273.014 186.005 272.964 186.416 272.681 186.636L268.13 190.169C267.846 190.389 267.435 190.339 267.216 190.055L258.674 179.04C258.462 178.756 258.511 178.344 258.795 178.125Z" fill="white"/>
<path d="M362.312 171.103L356.741 169.621C356.393 169.528 356.188 169.167 356.28 168.826L359.866 155.356C359.959 155.009 360.32 154.803 360.66 154.895L366.225 156.378C366.572 156.47 366.778 156.832 366.685 157.172L363.099 170.642C363.021 170.99 362.659 171.195 362.312 171.103Z" fill="white"/>
<path d="M305.669 383.914L300.098 382.431C299.751 382.339 299.545 381.977 299.637 381.637L303.224 368.167C303.316 367.819 303.678 367.613 304.018 367.706L309.582 369.188C309.929 369.28 310.135 369.642 310.043 369.983L306.456 383.453C306.371 383.8 306.017 384.006 305.669 383.914Z" fill="white"/>
<path d="M423.236 220.522L420.351 215.536C420.174 215.223 420.281 214.826 420.585 214.649L432.643 207.662C432.954 207.485 433.351 207.591 433.529 207.896L436.421 212.883C436.598 213.195 436.491 213.592 436.187 213.769L424.13 220.756C423.818 220.933 423.421 220.827 423.236 220.522Z" fill="white"/>
<path d="M232.81 330.921L229.918 325.934C229.741 325.622 229.847 325.225 230.152 325.047L242.209 318.061C242.521 317.883 242.918 317.99 243.095 318.295L245.98 323.281C246.157 323.593 246.051 323.99 245.746 324.168L233.689 331.155C233.384 331.332 232.987 331.226 232.81 330.921Z" fill="white"/>
<path d="M431.401 298.568L432.882 292.993C432.975 292.645 433.336 292.44 433.676 292.532L447.137 296.121C447.484 296.213 447.69 296.575 447.598 296.915L446.116 302.491C446.024 302.838 445.662 303.044 445.322 302.952L431.862 299.363C431.514 299.277 431.309 298.916 431.401 298.568Z" fill="white"/>
<path d="M218.732 241.886L220.214 236.311C220.306 235.964 220.668 235.758 221.008 235.85L234.468 239.439C234.816 239.532 235.021 239.893 234.929 240.234L233.448 245.809C233.356 246.157 232.994 246.362 232.654 246.27L219.193 242.681C218.853 242.589 218.64 242.234 218.732 241.886Z" fill="white"/>
<path d="M382.018 359.535L387.001 356.641C387.313 356.463 387.71 356.57 387.887 356.875L394.869 368.94C395.046 369.252 394.94 369.65 394.635 369.827L389.652 372.721C389.34 372.898 388.943 372.792 388.766 372.487L381.784 360.421C381.6 360.116 381.706 359.719 382.018 359.535Z" fill="white"/>
<path d="M271.696 168.975L276.679 166.088C276.991 165.911 277.387 166.017 277.565 166.322L284.547 178.387C284.724 178.7 284.617 179.097 284.313 179.274L279.33 182.168C279.018 182.345 278.621 182.239 278.444 181.934L271.462 169.861C271.277 169.549 271.384 169.152 271.696 168.975Z" fill="white"/>
<path d="M375.206 175.897L369.89 173.677C369.557 173.542 369.401 173.159 369.543 172.826L374.901 159.959C375.036 159.625 375.419 159.469 375.752 159.611L381.068 161.831C381.401 161.966 381.557 162.349 381.415 162.682L376.057 175.549C375.922 175.876 375.539 176.032 375.206 175.897Z" fill="white"/>
<path d="M290.593 379.196L285.277 376.976C284.944 376.841 284.788 376.458 284.929 376.124L290.288 363.257C290.423 362.924 290.806 362.768 291.139 362.91L296.455 365.13C296.788 365.265 296.944 365.648 296.802 365.981L291.443 378.848C291.302 379.182 290.919 379.338 290.593 379.196Z" fill="white"/>
<path d="M428.97 233.033L426.773 227.699C426.638 227.365 426.794 226.982 427.127 226.848L440.007 221.535C440.34 221.4 440.723 221.556 440.857 221.889L443.055 227.223C443.189 227.557 443.033 227.94 442.7 228.075L429.821 233.387C429.488 233.522 429.105 233.359 428.97 233.033Z" fill="white"/>
<path d="M225.48 316.91L223.283 311.576C223.148 311.243 223.304 310.86 223.637 310.725L236.516 305.419C236.85 305.285 237.232 305.441 237.367 305.774L239.564 311.108C239.699 311.442 239.543 311.825 239.21 311.959L226.331 317.272C225.998 317.4 225.615 317.244 225.48 316.91Z" fill="white"/>
<path d="M426.609 311.47L428.828 306.15C428.962 305.817 429.345 305.661 429.678 305.802L442.536 311.165C442.869 311.3 443.025 311.683 442.884 312.016L440.665 317.336C440.53 317.669 440.148 317.825 439.814 317.684L426.956 312.321C426.63 312.186 426.474 311.803 426.609 311.47Z" fill="white"/>
<path d="M223.445 226.798L225.664 221.478C225.798 221.145 226.181 220.989 226.514 221.131L239.372 226.493C239.705 226.628 239.861 227.011 239.72 227.344L237.501 232.664C237.366 232.997 236.984 233.154 236.65 233.012L223.792 227.649C223.466 227.507 223.31 227.124 223.445 226.798Z" fill="white"/>
<path d="M369.514 365.271L374.844 363.072C375.178 362.937 375.56 363.093 375.695 363.426L381.004 376.315C381.139 376.648 380.983 377.031 380.65 377.166L375.319 379.365C374.986 379.5 374.603 379.344 374.469 379.01L369.16 366.122C369.025 365.789 369.181 365.405 369.514 365.271Z" fill="white"/>
<path d="M285.695 161.64L291.025 159.441C291.358 159.306 291.741 159.462 291.876 159.796L297.185 172.684C297.32 173.017 297.164 173.4 296.83 173.535L291.5 175.734C291.167 175.869 290.784 175.713 290.649 175.379L285.34 162.491C285.199 162.158 285.362 161.775 285.695 161.64Z" fill="white"/>
<path d="M387.377 182.388L382.401 179.48C382.09 179.302 381.99 178.898 382.167 178.586L389.199 166.556C389.376 166.244 389.78 166.145 390.092 166.322L395.068 169.23C395.38 169.407 395.479 169.812 395.302 170.124L388.27 182.154C388.086 182.466 387.682 182.572 387.377 182.388Z" fill="white"/>
<path d="M276.241 372.486L271.265 369.577C270.953 369.4 270.854 368.996 271.031 368.684L278.069 356.654C278.247 356.341 278.651 356.242 278.963 356.42L283.939 359.328C284.25 359.505 284.35 359.909 284.172 360.221L277.141 372.252C276.957 372.557 276.553 372.663 276.241 372.486Z" fill="white"/>
<path d="M432.982 246.234L431.522 240.659C431.429 240.311 431.642 239.957 431.989 239.864L445.464 236.332C445.811 236.24 446.166 236.453 446.258 236.8L447.718 242.375C447.81 242.723 447.598 243.078 447.25 243.17L433.776 246.702C433.428 246.787 433.074 246.582 432.982 246.234Z" fill="white"/>
<path d="M220.079 302.013L218.619 296.438C218.527 296.091 218.74 295.736 219.087 295.644L232.562 292.111C232.909 292.019 233.264 292.232 233.356 292.58L234.816 298.155C234.908 298.502 234.695 298.857 234.348 298.949L220.873 302.482C220.526 302.567 220.172 302.354 220.079 302.013Z" fill="white"/>
<path d="M420.117 323.649L423.024 318.669C423.201 318.357 423.605 318.258 423.917 318.435L435.938 325.479C436.25 325.656 436.35 326.06 436.172 326.372L433.259 331.352C433.082 331.664 432.678 331.763 432.366 331.586L420.344 324.549C420.046 324.358 419.94 323.954 420.117 323.649Z" fill="white"/>
<path d="M230.16 212.434L233.066 207.454C233.243 207.142 233.647 207.043 233.959 207.22L245.988 214.264C246.3 214.441 246.399 214.845 246.222 215.158L243.308 220.137C243.131 220.449 242.727 220.548 242.415 220.371L230.394 213.328C230.082 213.15 229.982 212.746 230.16 212.434Z" fill="white"/>
<path d="M356.323 369.285L361.894 367.824C362.242 367.732 362.596 367.945 362.688 368.292L366.218 381.777C366.31 382.124 366.098 382.479 365.75 382.571L360.179 384.032C359.832 384.124 359.477 383.912 359.385 383.564L355.855 370.08C355.77 369.732 355.976 369.378 356.323 369.285Z" fill="white"/>
<path d="M300.581 156.235L306.152 154.773C306.499 154.681 306.854 154.894 306.946 155.242L310.476 168.726C310.568 169.073 310.355 169.428 310.008 169.52L304.437 170.981C304.089 171.074 303.735 170.861 303.643 170.513L300.113 157.029C300.028 156.682 300.233 156.327 300.581 156.235Z" fill="white"/>
<path d="M398.462 190.383L393.918 186.837C393.635 186.617 393.585 186.205 393.805 185.922L402.382 174.934C402.601 174.65 403.013 174.601 403.296 174.821L407.84 178.367C408.123 178.587 408.173 178.999 407.953 179.282L399.383 190.27C399.157 190.553 398.745 190.603 398.462 190.383Z" fill="white"/>
<path d="M263.04 363.989L258.496 360.442C258.213 360.222 258.163 359.811 258.383 359.527L266.953 348.54C267.172 348.256 267.584 348.206 267.867 348.426L272.411 351.973C272.694 352.193 272.744 352.604 272.524 352.888L263.954 363.875C263.735 364.159 263.324 364.208 263.04 363.989Z" fill="white"/>
<path d="M435.173 259.733L434.471 254.009C434.429 253.654 434.684 253.328 435.039 253.285L448.868 251.583C449.222 251.54 449.548 251.796 449.591 252.15L450.292 257.874C450.335 258.229 450.08 258.555 449.725 258.598L435.896 260.3C435.549 260.343 435.223 260.088 435.173 259.733Z" fill="white"/>
<path d="M216.747 286.666L216.046 280.942C216.003 280.588 216.258 280.261 216.613 280.219L230.442 278.516C230.796 278.474 231.122 278.729 231.165 279.084L231.867 284.808C231.909 285.163 231.654 285.489 231.3 285.532L217.47 287.234C217.116 287.276 216.79 287.021 216.747 286.666Z" fill="white"/>
<path d="M412.135 334.743L415.679 330.196C415.899 329.912 416.31 329.862 416.594 330.082L427.573 338.658C427.857 338.878 427.906 339.289 427.687 339.573L424.143 344.12C423.923 344.404 423.512 344.453 423.228 344.233L412.248 335.658C411.965 335.438 411.915 335.026 412.135 334.743Z" fill="white"/>
<path d="M238.651 199.227L242.195 194.68C242.414 194.396 242.826 194.347 243.109 194.567L254.089 203.142C254.372 203.362 254.422 203.774 254.202 204.057L250.658 208.604C250.438 208.888 250.027 208.938 249.744 208.718L238.764 200.142C238.481 199.922 238.431 199.511 238.651 199.227Z" fill="white"/>
<path d="M342.833 371.478L348.554 370.776C348.908 370.734 349.234 370.989 349.277 371.344L350.978 385.182C351.02 385.537 350.765 385.863 350.411 385.906L344.691 386.608C344.336 386.651 344.01 386.395 343.968 386.041L342.266 372.202C342.224 371.854 342.479 371.528 342.833 371.478Z" fill="white"/>
<path d="M315.919 152.902L321.64 152.2C321.994 152.157 322.32 152.413 322.363 152.767L324.064 166.606C324.106 166.961 323.851 167.287 323.497 167.33L317.776 168.032C317.422 168.075 317.096 167.819 317.053 167.465L315.352 153.626C315.31 153.271 315.565 152.945 315.919 152.902Z" fill="white"/>
<path d="M308.795 221.778C312.864 216.941 318.272 213.451 324.389 212.004C326.459 211.493 328.621 211.238 330.832 211.238C339.565 211.238 347.426 215.309 352.877 221.778L340.607 201.038C339.834 199.726 338.892 198.64 337.836 197.782C332.682 193.547 324.864 194.633 321.072 201.038L308.795 221.778Z" fill="#298DFE"/>
<path d="M377.545 269.118L363.695 242.483C357.705 230.971 347.781 224.268 337.213 222.416C337.199 222.416 337.184 222.409 337.17 222.409C335.327 222.019 333.435 221.806 331.493 221.785C329.55 221.764 327.651 221.934 325.794 222.282C315.168 223.892 305.089 230.375 298.844 241.774L284.434 268.089L264.92 303.719C262.715 307.74 261.971 311.94 262.283 316.16C264.14 341.114 298.709 339.277 298.979 314.245L299.035 309.294L299.404 275.069C299.404 275.027 299.411 274.977 299.411 274.934V275.069C299.588 258.599 310.533 244.973 324.929 241.951C326.984 241.518 329.111 241.305 331.287 241.327C339.977 241.419 347.817 245.327 353.459 251.548C359.087 257.776 362.525 266.337 362.426 275.75L362.057 309.982L362.008 314.557C361.738 339.483 396.145 341.901 398.363 317.089C398.746 312.826 398.066 308.57 395.925 304.449L377.545 269.118Z" fill="#298DFE"/>
<path d="M330.217 258.605L313.744 270.061V282.843L330.217 271.387L346.69 282.843V270.061L330.217 258.605Z" fill="#FFA048"/>
<path d="M313.744 291.199V303.974L330.217 292.518L346.69 303.974V291.199L330.217 279.736L313.744 291.199Z" fill="#FFA048"/>
<path d="M313.744 312.33V325.105L330.217 313.649L346.69 325.105V312.33L330.217 300.867L313.744 312.33Z" fill="#FFA048"/>
<path d="M346.995 283.325L330.217 271.65L313.439 283.325V269.798L313.574 269.706L330.224 258.123L330.402 258.244L347.009 269.791V283.325H346.995ZM314.049 270.118V282.148L330.217 270.905L330.395 271.026L346.386 282.148V270.118L330.224 258.875L314.049 270.118Z" fill="#1E344E"/>
<path d="M346.995 304.456L330.217 292.781L313.439 304.456V290.929L313.574 290.837L330.224 279.254L330.402 279.375L347.009 290.922V304.456H346.995ZM314.049 291.249V303.279L330.217 292.036L330.395 292.156L346.386 303.279V291.249L330.224 280.006L314.049 291.249Z" fill="#1E344E"/>
<path d="M346.995 325.587L330.217 313.912L313.439 325.587V312.06L313.574 311.968L330.224 300.385L330.402 300.505L347.009 312.053V325.587H346.995ZM314.049 312.379V324.409L330.217 313.167L330.395 313.287L346.386 324.409V312.379L330.224 301.137L314.049 312.379Z" fill="#1E344E"/>
</g>
<path opacity="0.3" d="M540.5 298.5C540.5 300.689 539.344 303.017 536.72 305.465C534.098 307.912 530.146 310.343 524.919 312.703C514.475 317.417 499.267 321.7 480.358 325.311C442.563 332.527 390.287 337 332.5 337C274.713 337 222.437 332.527 184.642 325.311C165.733 321.7 150.525 317.417 140.081 312.703C134.854 310.343 130.902 307.912 128.28 305.465C125.656 303.017 124.5 300.689 124.5 298.5C124.5 296.311 125.656 293.983 128.28 291.535C130.902 289.088 134.854 286.657 140.081 284.297C150.525 279.583 165.733 275.3 184.642 271.689C222.437 264.473 274.713 260 332.5 260C390.287 260 442.563 264.473 480.358 271.689C499.267 275.3 514.475 279.583 524.919 284.297C530.146 286.657 534.098 289.088 536.72 291.535C539.344 293.983 540.5 296.311 540.5 298.5Z" stroke="url(#paint3_linear_6385_156449)" stroke-width="3"/>
<g clip-path="url(#clip1_6385_156449)">
<path d="M115 223.5C132.673 223.5 147 209.173 147 191.5C147 173.827 132.673 159.5 115 159.5C97.3269 159.5 83 173.827 83 191.5C83 209.173 97.3269 223.5 115 223.5Z" fill="#8247E5"/>
<g clip-path="url(#clip2_6385_156449)">
<path d="M125.394 184.573C124.652 184.148 123.697 184.148 122.849 184.573L116.909 188.073L112.879 190.3L107.046 193.8C106.303 194.224 105.349 194.224 104.5 193.8L99.9397 191.042C99.1973 190.618 98.667 189.77 98.667 188.815V183.512C98.667 182.664 99.0913 181.815 99.9397 181.285L104.5 178.633C105.243 178.209 106.197 178.209 107.046 178.633L111.606 181.391C112.349 181.815 112.879 182.664 112.879 183.618V187.118L116.909 184.785V181.179C116.909 180.33 116.485 179.482 115.637 178.951L107.152 173.967C106.409 173.542 105.455 173.542 104.606 173.967L95.9094 179.058C95.061 179.482 94.6367 180.33 94.6367 181.179V191.148C94.6367 191.997 95.061 192.845 95.9094 193.376L104.5 198.361C105.243 198.785 106.197 198.785 107.046 198.361L112.879 194.967L116.909 192.633L122.743 189.239C123.485 188.815 124.44 188.815 125.288 189.239L129.849 191.891C130.591 192.315 131.122 193.164 131.122 194.118V199.421C131.122 200.27 130.697 201.118 129.849 201.648L125.394 204.3C124.652 204.724 123.697 204.724 122.849 204.3L118.288 201.648C117.546 201.224 117.016 200.376 117.016 199.421V196.027L112.985 198.361V201.861C112.985 202.709 113.409 203.558 114.258 204.088L122.849 209.073C123.591 209.497 124.546 209.497 125.394 209.073L133.985 204.088C134.728 203.664 135.258 202.815 135.258 201.861V191.785C135.258 190.936 134.834 190.088 133.985 189.558L125.394 184.573Z" fill="white"/>
</g>
</g>
<g clip-path="url(#clip3_6385_156449)">
<path d="M549 223.5C566.673 223.5 581 209.173 581 191.5C581 173.827 566.673 159.5 549 159.5C531.327 159.5 517 173.827 517 191.5C517 209.173 531.327 223.5 549 223.5Z" fill="#F3BA2F"/>
<path d="M541.232 188.308L549 180.54L556.772 188.312L561.292 183.792L549 171.5L536.712 183.788L541.232 188.308ZM529 191.5L533.52 186.98L538.04 191.5L533.52 196.02L529 191.5ZM541.232 194.692L549 202.46L556.772 194.688L561.292 199.206L549 211.5L536.712 199.212L536.706 199.206L541.232 194.692ZM559.96 191.5L564.48 186.98L569 191.5L564.48 196.02L559.96 191.5ZM553.584 191.496H553.588V191.5L549 196.088L544.418 191.508L544.41 191.5L544.418 191.494L545.22 190.69L545.61 190.3L549 186.912L553.586 191.498L553.584 191.496Z" fill="white"/>
</g>
<g clip-path="url(#clip4_6385_156449)">
<path d="M549 447.5C566.673 447.5 581 433.173 581 415.5C581 397.827 566.673 383.5 549 383.5C531.327 383.5 517 397.827 517 415.5C517 433.173 531.327 447.5 549 447.5Z" fill="#627EEA"/>
<path d="M549.996 391.5V409.24L564.99 415.94L549.996 391.5Z" fill="white" fill-opacity="0.602"/>
<path d="M549.996 391.5L535 415.94L549.996 409.24V391.5Z" fill="white"/>
<path d="M549.996 427.436V439.49L565 418.732L549.996 427.436Z" fill="white" fill-opacity="0.602"/>
<path d="M549.996 439.49V427.434L535 418.732L549.996 439.49Z" fill="white"/>
<path d="M549.996 424.646L564.99 415.94L549.996 409.244V424.646Z" fill="white" fill-opacity="0.2"/>
<path d="M535 415.94L549.996 424.646V409.244L535 415.94Z" fill="white" fill-opacity="0.602"/>
</g>
<g clip-path="url(#clip5_6385_156449)">
<path d="M64 335.5C81.6731 335.5 96 321.173 96 303.5C96 285.827 81.6731 271.5 64 271.5C46.3269 271.5 32 285.827 32 303.5C32 321.173 46.3269 335.5 64 335.5Z" fill="#F7931A"/>
<path d="M78.3785 299.54C79.0065 295.348 75.8125 293.094 71.4485 291.59L72.8645 285.91L69.4085 285.05L68.0285 290.58C67.1205 290.352 66.1885 290.14 65.2585 289.928L66.6485 284.362L63.1925 283.5L61.7765 289.178C61.0245 289.006 60.2845 288.838 59.5685 288.658L59.5725 288.64L54.8045 287.45L53.8845 291.142C53.8845 291.142 56.4505 291.73 56.3965 291.766C57.7965 292.116 58.0485 293.042 58.0065 293.778L56.3945 300.248C56.4905 300.272 56.6145 300.308 56.7545 300.362L56.3885 300.272L54.1285 309.336C53.9565 309.76 53.5225 310.398 52.5425 310.156C52.5785 310.206 50.0305 309.53 50.0305 309.53L48.3145 313.486L52.8145 314.608C53.6505 314.818 54.4705 315.038 55.2765 315.244L53.8465 320.988L57.3005 321.848L58.7165 316.168C59.6605 316.422 60.5765 316.658 61.4725 316.882L60.0605 322.538L63.5165 323.398L64.9465 317.666C70.8425 318.782 75.2745 318.332 77.1405 313C78.6445 308.708 77.0665 306.23 73.9645 304.616C76.2245 304.096 77.9245 302.61 78.3785 299.54ZM70.4785 310.616C69.4125 314.91 62.1825 312.588 59.8385 312.006L61.7385 304.396C64.0825 304.982 71.5965 306.14 70.4785 310.616ZM71.5485 299.478C70.5745 303.384 64.5585 301.398 62.6085 300.912L64.3285 294.012C66.2785 294.498 72.5645 295.404 71.5485 299.478Z" fill="white"/>
</g>
<g clip-path="url(#clip6_6385_156449)">
<path d="M600.203 332.468C616.083 332.468 628.956 319.595 628.956 303.715C628.956 287.834 616.083 274.961 600.203 274.961C584.323 274.961 571.449 287.834 571.449 303.715C571.449 319.595 584.323 332.468 600.203 332.468Z" fill="white"/>
<path d="M600 271.5C593.671 271.5 587.484 273.377 582.222 276.893C576.959 280.409 572.858 285.407 570.436 291.254C568.014 297.101 567.38 303.535 568.615 309.743C569.85 315.95 572.897 321.652 577.373 326.127C581.848 330.603 587.55 333.65 593.757 334.885C599.964 336.12 606.399 335.486 612.246 333.064C618.093 330.642 623.091 326.541 626.607 321.278C630.123 316.016 632 309.829 632 303.5C632.012 299.31 631.199 295.158 629.607 291.283C628.015 287.407 625.675 283.883 622.72 280.911C619.766 277.94 616.256 275.579 612.389 273.964C608.523 272.35 604.376 271.512 600.186 271.5H600ZM600.542 304.585L597.211 315.82H615.031C615.149 315.815 615.267 315.835 615.378 315.876C615.488 315.917 615.59 315.98 615.676 316.061C615.763 316.141 615.832 316.238 615.881 316.346C615.93 316.453 615.957 316.569 615.961 316.687V316.982L614.412 322.328C614.343 322.581 614.191 322.803 613.98 322.958C613.769 323.113 613.511 323.191 613.249 323.18H585.976L590.547 307.607L585.433 309.156L586.596 305.592L591.709 304.042L598.14 282.192C598.211 281.941 598.364 281.721 598.575 281.566C598.785 281.412 599.042 281.332 599.303 281.34H606.198C606.317 281.336 606.434 281.355 606.545 281.397C606.655 281.438 606.757 281.501 606.843 281.581C606.93 281.662 606.999 281.759 607.048 281.866C607.097 281.974 607.124 282.09 607.128 282.208V282.502L601.705 300.943L606.818 299.393L605.734 303.113L600.542 304.585Z" fill="#345D9D"/>
</g>
<g clip-path="url(#clip7_6385_156449)">
<path d="M115.203 444.468C131.083 444.468 143.956 431.595 143.956 415.715C143.956 399.834 131.083 386.961 115.203 386.961C99.3227 386.961 86.4492 399.834 86.4492 415.715C86.4492 431.595 99.3227 444.468 115.203 444.468Z" fill="white"/>
<path d="M115 383.5C108.671 383.5 102.484 385.377 97.2217 388.893C91.9594 392.409 87.8579 397.407 85.4359 403.254C83.0139 409.101 82.3802 415.535 83.6149 421.743C84.8496 427.95 87.8973 433.652 92.3726 438.127C96.8478 442.603 102.55 445.65 108.757 446.885C114.964 448.12 121.399 447.486 127.246 445.064C133.093 442.642 138.091 438.541 141.607 433.278C145.123 428.016 147 421.829 147 415.5C147.012 411.31 146.199 407.158 144.607 403.283C143.015 399.407 140.675 395.883 137.72 392.911C134.766 389.94 131.256 387.579 127.389 385.964C123.523 384.35 119.376 383.512 115.186 383.5H115ZM115.542 416.585L112.211 427.82H130.031C130.149 427.815 130.267 427.835 130.378 427.876C130.488 427.917 130.59 427.98 130.676 428.061C130.763 428.141 130.832 428.238 130.881 428.346C130.93 428.453 130.957 428.569 130.961 428.687V428.982L129.412 434.328C129.343 434.581 129.191 434.803 128.98 434.958C128.769 435.113 128.511 435.191 128.249 435.18H100.976L105.547 419.607L100.433 421.156L101.596 417.592L106.709 416.042L113.14 394.192C113.211 393.941 113.364 393.721 113.575 393.566C113.785 393.412 114.042 393.332 114.303 393.34H121.198C121.317 393.336 121.434 393.355 121.545 393.397C121.655 393.438 121.757 393.501 121.843 393.581C121.93 393.662 121.999 393.759 122.048 393.866C122.097 393.974 122.124 394.09 122.128 394.208V394.502L116.705 412.943L121.818 411.393L120.734 415.113L115.542 416.585Z" fill="#345D9D"/>
</g>
<defs>
<filter id="filter0_f_6385_156449" x="0" y="0" width="665" height="665" filterUnits="userSpaceOnUse" color-interpolation-filters="sRGB">
<feFlood flood-opacity="0" result="BackgroundImageFix"/>
<feBlend mode="normal" in="SourceGraphic" in2="BackgroundImageFix" result="shape"/>
<feGaussianBlur stdDeviation="50" result="effect1_foregroundBlur_6385_156449"/>
</filter>
<linearGradient id="paint0_linear_6385_156449" x1="332.5" y1="454" x2="332.5" y2="521" gradientUnits="userSpaceOnUse">
<stop stop-color="#298DFE"/>
<stop offset="1" stop-color="#59CDFF"/>
</linearGradient>
<linearGradient id="paint1_linear_6385_156449" x1="333" y1="231" x2="332.5" y2="521" gradientUnits="userSpaceOnUse">
<stop stop-color="#96C7FF" stop-opacity="0"/>
<stop offset="1" stop-color="#298DFE"/>
</linearGradient>
<linearGradient id="paint2_linear_6385_156449" x1="332.5" y1="359.789" x2="332.5" y2="414.5" gradientUnits="userSpaceOnUse">
<stop stop-color="#FF7C03" stop-opacity="0"/>
<stop offset="0.98" stop-color="#FF7C03"/>
</linearGradient>
<linearGradient id="paint3_linear_6385_156449" x1="332.5" y1="258.5" x2="332.5" y2="338.5" gradientUnits="userSpaceOnUse">
<stop stop-color="white" stop-opacity="0"/>
<stop offset="1" stop-color="white"/>
</linearGradient>
<clipPath id="clip0_6385_156449">
<rect width="243" height="250" fill="white" transform="translate(211 148)"/>
</clipPath>
<clipPath id="clip1_6385_156449">
<rect width="64" height="64" fill="white" transform="translate(83 159.5)"/>
</clipPath>
<clipPath id="clip2_6385_156449">
<rect width="40.7273" height="35.5303" fill="white" transform="translate(94.6367 173.754)"/>
</clipPath>
<clipPath id="clip3_6385_156449">
<rect width="64" height="64" fill="white" transform="translate(517 159.5)"/>
</clipPath>
<clipPath id="clip4_6385_156449">
<rect width="64" height="64" fill="white" transform="translate(517 383.5)"/>
</clipPath>
<clipPath id="clip5_6385_156449">
<rect width="64" height="64" fill="white" transform="translate(32 271.5)"/>
</clipPath>
<clipPath id="clip6_6385_156449">
<rect width="64" height="64" fill="white" transform="translate(568 271.5)"/>
</clipPath>
<clipPath id="clip7_6385_156449">
<rect width="64" height="64" fill="white" transform="translate(83 383.5)"/>
</clipPath>
</defs>
</svg>
