<svg width="616" height="540" viewBox="0 0 616 540" fill="none" xmlns="http://www.w3.org/2000/svg">
<g opacity="0.2" filter="url(#filter0_f_5408_15440)">
<circle cx="308.5" cy="269.5" r="160.5" fill="#298DFE"/>
</g>
<g clip-path="url(#clip0_5408_15440)">
<path d="M475.22 117.895C477.396 117.017 479.188 115.49 481.196 114.323C490.881 108.683 501.357 107.38 512.258 108.687C517.058 109.261 520.118 112.656 522.867 116.256C534.399 131.364 533.671 152.831 521.247 167.322C518.85 170.116 516.086 172.517 513.506 175.111C513.142 175.944 512.442 176.454 511.742 176.975C503.565 183.048 494.305 186.648 484.464 188.876C476.124 190.764 467.659 191.65 459.119 191.819C457.219 191.855 455.431 192.324 453.679 192.985C453.255 193.146 452.738 193.326 452.75 193.899C452.758 194.436 453.214 194.697 453.643 194.877C455.423 195.627 457.255 196.252 459.023 197.034C469.103 201.492 477.34 208.082 482.948 217.739C484.232 219.947 485.216 222.276 485.932 224.714C486.472 226.55 485.856 227.223 484.068 226.666C479.548 225.263 474.924 224.249 470.372 222.97C467.731 222.425 467.119 222.757 466.583 225.315C465.759 229.231 464.875 233.132 464.035 237.044C463.867 237.822 463.791 238.768 462.939 239.053C461.919 239.389 461.407 238.471 460.871 237.814C453.178 228.442 445.286 219.23 437.662 209.802C437.11 209.12 436.626 207.885 435.637 208.194C434.849 208.439 435.001 209.697 434.805 210.527C434.041 213.778 433.569 217.081 433.085 220.38C432.697 223.038 431.973 225.592 431.125 228.125C429.409 232.266 426.429 235.341 422.925 237.998C419.261 240.772 415.632 243.598 411.952 246.344C409.44 248.22 408.684 248.016 407.388 245.09C406.308 242.652 405.228 240.203 404.612 237.594C404.308 236.299 403.892 235.898 402.612 236.732C396.255 240.869 389.335 243.458 381.75 244.176C380.818 244.264 379.894 244.348 378.962 244.304C376.822 244.204 376.31 243.438 377.29 241.498C378.65 238.804 380.682 236.559 382.502 234.182C388.543 226.301 394.335 218.228 400.451 210.407C400.615 210.194 400.671 209.926 400.699 209.657C399.639 208.098 398.055 207.044 396.899 205.576C394.179 202.133 392.203 198.301 390.939 194.108C390.599 192.973 390.371 192.532 389.103 193.394C381.71 198.401 373.418 200.846 364.625 201.856C355.185 202.939 346.06 201.448 337.072 198.666C335.984 198.329 334.964 197.844 333.916 197.415C326.083 193.875 318.871 189.438 313.05 182.968C308.986 178.446 305.79 173.447 304.138 167.534C303.882 166.612 303.822 165.714 303.99 164.788C303.986 162.772 303.986 160.756 303.982 158.739C304.39 152.458 308.022 147.555 310.982 142.368C311.27 141.867 311.75 141.446 312.298 141.165C317.187 133.974 323.259 128.117 331.115 124.229C344.876 117.414 358.889 117.166 373.138 122.509C373.95 122.814 374.738 123.171 375.538 123.503C376.47 123.535 377.37 123.64 378.23 124.081C387.735 128.943 395.515 135.718 401.311 144.745C404.38 149.527 407.096 154.486 408.848 159.914C409.308 161.345 410.092 161.497 411.408 161.289C416.332 160.499 421.249 159.641 426.273 159.745C427.741 159.774 429.189 159.866 430.625 160.162C433.317 160.431 433.301 160.427 434.173 157.657C436.998 148.666 442.11 141.246 449.554 135.497C457.367 129.464 465.695 124.161 473.768 118.492C474.2 118.172 474.648 117.871 475.22 117.895Z" fill="#F9B042"/>
<path d="M250.603 166.291C256.759 163.829 262.911 161.352 269.076 158.911C276.236 156.077 283.401 153.255 290.585 150.477C291.233 150.224 292.157 149.274 292.681 150.725C292.969 152.529 292.577 154.317 292.577 156.117C292.601 187.637 292.617 219.161 292.557 250.681C292.553 253.371 293.289 255.571 294.893 257.696C302.126 267.281 309.098 277.058 316.307 286.662C316.671 287.757 315.759 287.877 315.127 288.114C307.026 291.152 299.03 294.447 290.945 297.53C285.041 299.779 279.188 302.184 273.3 304.477C263.94 308.125 254.587 311.793 245.206 315.384C240.738 317.096 236.282 318.864 231.838 320.644C231.034 320.964 230.23 321.301 229.33 321.153C227.209 320.183 226.217 318.086 224.901 316.403C215.409 304.272 205.872 292.174 196.396 280.032C190.775 272.833 185.059 265.709 179.531 258.438C173.37 250.492 167.018 242.692 160.894 234.718C154.765 226.741 148.325 219.008 142.376 210.891C142.012 210.394 141.696 209.909 141.66 209.279C141.808 208.622 142.432 208.63 142.884 208.454C166.046 199.358 189.207 190.278 212.373 181.199C213.405 181.379 213.253 182.261 213.301 182.927C213.685 188.026 215.801 192.427 218.625 196.568C219.569 197.951 220.745 198.677 222.465 198.62C224.197 198.564 225.921 198.576 227.545 198.155C227.681 197.959 227.721 197.815 227.641 197.706C223.089 191.573 223.265 184.618 224.153 177.543C224.229 176.942 224.357 176.34 225.065 176.128C232.818 173.125 240.57 170.123 248.319 167.12C249.351 168.491 248.975 170.107 248.839 171.562C248.543 174.741 249.351 176.777 252.551 178.26C257.447 180.533 261.755 183.824 265.544 187.769C268.56 190.908 270.976 194.315 271.444 199.065C273.692 197.033 275.228 194.848 277.056 192.94C277.664 192.303 277.656 191.481 277.456 190.671C274.868 180.301 269.452 172.292 259.003 168.479C256.859 167.698 254.579 167.549 252.383 167.02C251.751 166.864 251.023 166.952 250.603 166.291Z" fill="#1E344E"/>
<path d="M229.089 320.729C231.577 320.448 233.73 319.202 236.006 318.32C245.278 314.72 254.555 311.132 263.827 307.537C271.848 304.426 279.876 301.331 287.885 298.192C296.329 294.881 304.754 291.526 313.19 288.195C314.226 287.786 315.282 287.417 316.326 287.032C318.107 285.152 320.647 284.82 322.875 283.906C333.803 279.42 344.96 275.499 355.833 270.865C356.509 270.825 356.705 271.358 356.961 271.819C361.441 279.829 366.301 287.614 370.93 295.535C371.402 296.34 372.338 297.098 371.51 298.208C369.053 314.828 366.601 331.444 364.145 348.064C362.729 357.625 361.293 367.185 359.913 376.754C359.749 377.904 359.445 378.654 358.249 379.147C341.952 385.866 325.679 392.644 309.402 399.407C308.254 398.83 308.394 397.715 308.466 396.773C309.034 389.321 308.966 381.837 309.518 374.385C309.774 370.925 309.85 367.446 309.934 363.986C310.134 355.781 310.534 347.579 310.902 339.385C311.398 328.39 311.666 317.386 312.374 306.398C312.55 303.668 312.258 300.918 312.714 298.2C312.878 297.218 312.47 296.946 311.426 296.745C307.966 296.08 305.522 297.635 303.354 300.004C301.954 301.536 300.378 302.47 298.221 301.764C297.521 301.536 296.901 301.736 296.377 302.221C295.373 303.155 294.225 303.504 292.881 303.163C291.893 302.915 291.025 303.187 290.325 303.921C289.373 304.915 288.349 305.22 287.133 304.378C286.225 303.752 285.793 304.049 285.821 305.111C285.953 310.194 285.277 315.237 285.021 320.3C284.677 327.031 284.113 333.745 283.641 340.468C283.169 347.19 282.732 353.917 282.236 360.635C281.708 367.823 281.232 375.01 280.736 382.202C280.388 387.261 280.216 392.332 279.8 397.382C279.392 402.301 279.388 407.244 278.748 412.142C278.288 413.161 277.292 413.449 276.384 413.83C262.523 419.643 248.622 425.359 234.758 431.163C229.729 433.272 224.717 435.421 219.641 437.421C218.853 437.73 217.757 438.628 217.161 437.04C216.905 435.016 217.469 433.055 217.629 431.067C218.469 420.693 219.697 410.358 220.681 400C221.677 389.514 222.689 379.023 223.713 368.54C224.649 358.984 225.705 349.435 226.633 339.878C227.181 334.234 227.673 328.586 228.365 322.958C228.449 322.168 228.413 321.326 229.089 320.729Z" fill="#298DFE"/>
<path d="M470.308 222.432C475.436 223.53 480.5 224.889 485.796 226.633C485.084 223.294 483.844 220.476 482.284 217.794C476.4 207.684 467.571 201.118 456.911 196.796C455.679 196.295 454.415 195.878 453.163 195.429C452.266 195.105 451.63 194.423 451.618 193.533C451.606 192.736 452.567 192.716 453.147 192.495C455.339 191.669 457.591 191.293 459.963 191.2C471.832 190.755 483.548 189.312 494.809 185.247C501.049 182.995 506.866 179.952 512.166 175.935C512.582 175.619 513.058 175.378 513.506 175.102C524.423 191.224 535.339 207.347 546.272 223.458C546.864 224.328 547.124 225.134 546.948 226.236C545.224 236.971 543.54 247.714 541.92 258.47C541.684 260.049 541.104 260.799 539.48 261.243C485.76 276.047 432.057 290.912 378.342 305.744C377.826 305.888 377.29 306.413 376.682 305.932C375.782 303.567 376.366 301.13 376.674 298.817C377.854 290.03 378.202 281.15 379.454 272.388C379.95 268.92 379.166 266.23 377.342 263.404C371.054 253.663 365.097 243.71 358.969 233.868C357.457 231.443 355.929 229.014 354.561 226.496C354.281 225.975 353.881 225.486 354.053 224.825C354.317 224.091 354.985 223.919 355.617 223.714C370.002 219.02 384.379 214.286 398.791 209.68C399.723 209.384 400.687 208.923 401.672 209.572C396.355 216.655 391.039 223.743 385.719 230.822C383.478 233.804 381.214 236.771 378.986 239.761C378.51 240.398 378.074 241.084 377.738 241.802C376.894 243.605 377.014 243.794 379.054 243.722C387.507 243.437 395.227 240.843 402.296 236.234C402.956 235.805 403.612 235.372 404.464 234.814C405.444 238.699 406.684 242.311 408.36 245.774C409.04 247.181 409.572 247.522 410.936 246.428C415.396 242.844 419.921 239.332 424.489 235.889C427.221 233.828 428.893 230.97 430.689 228.188C431.701 228.609 432.093 229.587 432.609 230.421C436.542 236.779 440.406 243.176 444.378 249.51C444.958 250.436 445.322 251.426 445.326 252.529C445.366 261.079 445.37 269.626 445.326 278.176C445.326 278.445 445.262 278.705 445.11 279.138C446.094 277.483 447.37 277.086 449.05 277.495C452.078 278.228 452.911 277.731 453.931 274.825C454.487 273.237 455.751 272.376 457.407 273.141C460.203 274.436 462.323 274.183 464.347 271.754C465.211 270.72 466.771 270.68 468.115 270.776C471.168 270.993 473.92 270.247 476.408 268.459C477.384 267.758 478.48 267.457 479.612 268.01C481.048 268.712 481.316 268.074 481.312 266.763C481.288 260.085 481.156 253.403 481.356 246.728C481.464 243.148 480.608 240.146 478.528 237.212C475.636 233.135 473.144 228.777 470.468 224.544C470.088 223.947 469.252 223.217 470.308 222.432Z" fill="#1E344E"/>
<path d="M217.525 437.308C218.081 437.72 218.521 437.251 218.961 437.071C238.45 428.982 257.935 420.876 277.42 412.767C277.728 412.638 278.016 412.47 278.316 412.322C279.676 411.055 281.188 410.197 283.141 410.53C283.705 411.051 284.405 410.859 285.053 410.867C292.821 410.995 300.55 411.736 308.274 412.47C315.134 413.119 322.015 413.604 328.835 414.55C338.612 415.905 348.444 417.084 357.829 420.423C359.521 421.024 361.213 421.678 362.549 422.945C364.329 424.624 364.249 425.646 362.349 427.154C360.865 428.332 359.141 429.09 357.393 429.671C349.872 432.173 342.112 433.564 334.268 434.546C328.419 435.279 322.591 436.129 316.739 436.835C313.45 437.231 310.142 437.472 306.834 437.724C299.762 438.27 292.689 438.803 285.613 439.288C282.765 439.484 279.9 439.548 277.056 439.645C271.74 439.821 266.412 439.973 261.107 440.226C237.342 441.348 213.564 440.923 189.795 440.863C180.763 440.839 171.718 440.394 162.682 440.07C157.445 439.881 152.193 439.673 146.969 439.28C138.908 438.675 130.832 438.21 122.779 437.444C116.911 436.887 111.022 436.406 105.178 435.668C94.4615 434.317 83.7249 432.918 73.4403 429.338C72.5002 429.014 71.6122 428.541 70.7081 428.116C69.332 427.47 67.928 426.604 68 424.973C68.072 423.325 69.5481 422.411 70.9121 421.726C75.4684 419.433 80.4207 418.379 85.357 417.341C93.2054 415.693 101.174 414.735 109.122 413.777C115.631 412.991 122.179 412.502 128.728 412.025C137.132 411.412 145.529 410.782 153.949 410.41C160.785 410.109 167.63 409.929 174.458 409.58C179.919 409.299 185.387 409.632 190.811 409.171C193.331 408.954 195.975 409.48 198.408 408.369C199.372 408.405 199.728 409.195 200.144 409.848C205.552 418.315 211.136 426.669 216.569 435.119C217.009 435.8 217.265 436.554 217.525 437.308Z" fill="#D1D2D4"/>
<path d="M217.525 437.307C213.493 431.214 209.46 425.117 205.432 419.019C203.088 415.472 200.752 411.92 198.412 408.372C193.135 400.235 187.863 392.093 182.591 383.956C182.339 383.567 182.111 383.162 181.871 382.765C181.215 381.258 181.163 379.67 181.163 378.055C181.175 341.248 181.167 304.44 181.187 267.633C181.187 265.464 181.115 263.387 179.675 261.568C179.031 260.758 178.867 259.74 179.367 258.725C179.503 258.489 179.687 258.304 179.919 258.16C188.735 269.412 197.544 280.677 206.376 291.917C212.172 299.293 218.005 306.637 223.817 314.001C225.581 316.238 227.333 318.486 229.093 320.731C229.193 324.267 228.409 327.726 228.169 331.234C227.813 336.369 227.225 341.488 226.713 346.615C226.301 350.704 225.889 354.797 225.409 358.878C225.029 362.101 224.769 365.335 224.385 368.558C223.621 374.94 223.205 381.366 222.609 387.768C222.001 394.278 221.481 400.796 220.677 407.282C219.993 412.806 219.521 418.354 218.877 423.882C218.349 428.335 218.117 432.845 217.525 437.307Z" fill="#1E344E"/>
<path d="M355.857 271.004C355.841 271.962 354.965 271.922 354.421 272.135C345.388 275.694 336.336 279.214 327.291 282.746C323.635 284.173 319.983 285.6 316.326 287.027C314.03 285.808 313.066 283.415 311.614 281.491C305.654 273.59 299.858 265.564 293.965 257.611C292.617 255.791 291.869 253.923 291.873 251.55C291.941 219.293 291.921 187.031 291.913 154.773C291.913 153.37 291.957 151.987 292.677 150.725C296.297 155.547 299.918 160.369 303.538 165.192C304.59 166.695 304.438 168.455 304.478 170.13C304.562 173.798 304.538 177.47 304.49 181.138C304.466 182.794 304.866 184.253 305.718 185.688C315.194 201.695 324.723 217.669 334.212 233.672C337.24 238.775 340.256 243.882 343.316 248.965C343.436 249.125 343.536 249.297 343.628 249.474C347.176 255.771 350.976 261.921 354.657 268.138C355.181 269.024 356.005 269.818 355.857 271.004Z" fill="#17222D"/>
<path d="M283.137 410.534C281.528 411.132 279.92 411.729 278.312 412.326C278.52 403.792 279.264 395.286 279.808 386.771C280.236 380.049 280.66 373.33 281.128 366.612C282.004 354.045 283.005 341.481 283.769 328.906C284.269 320.652 285.185 312.427 285.225 304.145C285.229 303.58 285.005 302.942 285.509 302.445C286.125 302.481 286.429 302.974 286.805 303.315C287.957 304.353 288.953 305.063 290.017 303.127C290.661 301.952 291.929 301.896 293.025 302.441C294.237 303.042 295.021 302.666 295.753 301.716C296.501 300.745 297.249 300.22 298.545 301.094C299.798 301.94 301.034 301.643 302.046 300.381C303.218 298.922 304.538 297.587 306.242 296.737C307.362 296.18 308.242 294.961 309.854 296.204C310.746 296.889 312.094 295.871 313.05 295.494C313.05 299.29 313.138 302.994 313.026 306.69C312.898 311.02 312.558 315.345 312.386 319.674C312.05 328.072 311.786 336.475 311.454 344.877C310.938 357.805 310.398 370.733 309.846 383.66C309.65 388.258 309.39 392.852 309.182 397.446C309.154 398.096 308.986 398.785 309.406 399.394C301.122 402.87 292.841 406.345 284.561 409.829C284.073 410.037 283.609 410.298 283.137 410.534Z" fill="#FFA048"/>
<path d="M179.919 258.161C179.915 258.277 179.919 258.397 179.923 258.513C177.714 259.023 176.942 258.538 175.974 256.637C174.514 253.779 172.83 250.717 170.254 249.081C167.894 247.586 166.89 245.309 165.03 243.714C164.934 244.13 165.022 244.704 165.022 245.269C165.018 280.673 165.026 316.078 164.986 351.482C164.986 352.769 165.578 354.344 163.962 355.242C157.129 344.812 150.345 334.345 143.424 323.975C142.056 321.926 141.512 319.914 141.516 317.477C141.576 282.144 141.556 246.808 141.56 211.476C141.56 210.746 141.624 210.013 141.66 209.283C147.193 216.318 152.729 223.354 158.257 230.389C164.038 237.741 169.826 245.092 175.594 252.456C177.066 254.332 178.479 256.257 179.919 258.161Z" fill="#1E344E"/>
<path d="M475.22 117.894C471.224 121.23 466.763 123.911 462.523 126.906C456.595 131.095 450.378 134.919 445.234 140.114C439.818 145.578 436.078 152.064 434.326 159.584C433.682 162.346 431.969 160.466 430.749 160.723C429.905 160.374 429.409 159.701 428.937 158.947C420.997 146.252 413.028 133.576 405.428 120.672C404.548 119.177 403.284 117.766 403.496 115.802C412.4 113.328 421.289 110.803 430.213 108.394C440.75 105.552 451.267 102.633 461.887 100.116C463.347 99.7712 463.951 100.196 464.687 101.379C468.136 106.923 471.696 112.394 475.22 117.894Z" fill="#1E344E"/>
<path d="M163.958 355.243C164.458 354.442 164.222 353.548 164.222 352.698C164.234 316.424 164.23 280.149 164.246 243.875C164.246 242.989 163.95 242.007 164.714 241.197C165.606 241.622 165.55 242.536 165.782 243.234C166.058 244.067 167.102 244.777 167.146 244.993C167.674 247.471 170.278 247.451 171.53 248.938C173.198 250.918 174.334 253.315 176.274 255.091C176.37 255.179 176.522 255.304 176.514 255.4C176.334 257.885 178.21 258.106 179.914 258.515C179.198 259.85 179.658 260.904 180.682 261.846C181.627 262.72 181.931 263.842 181.931 265.101C181.919 304.125 181.915 343.145 181.911 382.17C181.911 382.37 181.883 382.566 181.867 382.767C175.734 373.699 169.758 364.527 163.958 355.243Z" fill="#FFA048"/>
<path d="M355.857 271.006C351.432 264.011 347.236 256.879 343.156 249.676C346.94 249.066 349.532 250.918 350.176 254.478C350.412 250.99 351.084 247.298 351.384 243.562C351.789 238.528 352.561 233.529 353.009 228.494C353.117 227.283 352.617 225.624 354.321 224.91C362.409 238.479 370.782 251.868 379.186 265.241C380.19 266.841 380.546 268.48 380.338 270.356C379.722 275.892 379.034 281.416 378.654 286.984C378.282 292.464 377.446 297.916 376.802 303.38C376.702 304.233 377.03 305.103 376.674 305.941C375.138 304.129 374.218 301.932 372.906 299.98C372.49 299.359 372.39 298.461 371.506 298.204C370.766 295.466 368.906 293.33 367.537 290.945C364.157 285.048 360.557 279.279 357.021 273.471C356.549 272.685 356.641 271.639 355.857 271.006Z" fill="#1E344E"/>
<path d="M403.496 115.802C407.268 123.318 411.888 130.333 416.284 137.476C421.065 145.249 425.925 152.974 430.749 160.718C425.297 159.805 419.913 160.562 414.528 161.4C414.004 161.48 413.472 161.52 412.944 161.544C411.588 161.608 409.992 162.819 409.008 161.917C408.112 161.095 408.128 159.335 407.596 158.049C404.504 150.557 400.487 143.654 395.059 137.569C390.207 132.129 384.414 128.016 378.046 124.621C377.238 124.188 376.374 123.859 375.534 123.482C383.634 121.205 391.727 118.912 399.835 116.667C401.043 116.339 402.204 115.777 403.496 115.802Z" fill="#E99524"/>
<path d="M343.024 249.406C339.444 243.473 335.84 237.557 332.296 231.608C323.691 217.177 315.155 202.705 306.494 188.306C304.73 185.372 303.602 182.47 303.858 178.938C304.134 175.15 303.918 171.33 303.926 167.521C303.926 166.724 304.002 165.914 303.546 165.192C303.694 165.052 303.846 164.912 303.994 164.771C307.362 178.97 317.019 187.817 329.215 194.488C330.727 195.317 332.276 196.083 333.808 196.877C334.476 198.083 334.172 199.358 334.008 200.597C333.152 207.147 332.324 213.701 331.5 220.251C331.416 220.917 331.424 221.582 331.372 222.248C331.26 223.707 331.944 224.452 333.336 224.765C337.424 225.683 337.48 225.787 337.332 230.205C337.252 232.61 337.908 234.306 339.96 235.789C342.128 237.356 343.604 239.789 344.484 242.275C345.356 244.732 344.472 247.217 343.024 249.406Z" fill="#1E344E"/>
<path d="M250.603 166.292C257.211 166.781 263.279 168.701 268.308 173.199C273.788 178.101 276.692 184.451 278.264 191.506C278.404 192.139 278.18 192.657 277.736 193.142C275.636 195.451 273.56 197.784 271.484 200.101C270.956 200.073 271.004 199.636 270.98 199.367C270.416 193.025 266.316 188.908 261.879 185.096C258.179 181.917 254.015 179.372 249.591 177.307C248.626 176.858 248.33 176.309 248.338 175.327C248.362 172.589 248.326 169.851 248.314 167.113C248.686 165.762 249.823 166.52 250.603 166.292Z" fill="#3AB44A"/>
<path d="M225.065 176.127C223.813 184.089 223.277 191.914 229.337 198.7C226.341 199.161 223.409 199.253 220.469 199.181C219.565 199.157 219.137 198.335 218.681 197.714C215.293 193.064 212.832 188.045 212.616 182.148C212.604 181.832 212.452 181.519 212.368 181.202C212.568 175.238 214.413 169.858 218.009 165.08C218.737 164.114 219.213 163.725 220.293 164.751C222.025 166.394 224.425 167.537 225.649 169.461C226.897 171.417 224.785 173.819 225.065 176.127Z" fill="#E99524"/>
<path d="M175.118 171.807C174.914 166.96 172.678 163.561 169.69 160.562C165.938 156.794 161.529 153.936 156.781 151.615C155.581 151.026 155.117 150.36 155.193 149.025C155.313 146.965 155.253 144.893 155.213 142.824C155.193 141.854 155.573 141.605 156.521 141.605C168.742 141.601 180.022 151.623 181.391 163.717C181.455 164.298 181.383 164.751 180.995 165.18C179.142 167.257 177.298 169.349 175.118 171.807Z" fill="#3AB44A"/>
<path d="M291.141 134.165C290.409 128.285 286.385 125.098 282.181 122.067C281.157 121.33 280.021 120.756 278.964 120.063C277.98 119.413 276.248 119.269 276.044 118.227C275.656 116.235 275.856 114.118 275.924 112.054C275.956 111.1 276.82 111.46 277.336 111.488C283.689 111.869 288.873 114.411 292.453 119.83C292.965 120.608 293.437 121.418 293.849 122.252C296.673 127.972 296.261 129.848 291.141 134.165Z" fill="#E99524"/>
<path d="M233.93 147.346C232.122 141.117 227.173 138.86 222.281 136.511C221.353 136.066 219.913 136.146 219.613 135.024C219.205 133.497 219.181 131.857 219.077 130.262C219.025 129.492 219.709 129.548 220.229 129.516C229.257 128.959 234.914 134.703 237.206 141.654C237.402 142.243 237.25 142.668 236.918 143.129C235.982 144.416 235.074 145.727 233.93 147.346Z" fill="#26ABE2"/>
<path d="M312.302 141.152C310.334 144.544 308.29 147.891 306.582 151.427C305.45 153.772 304.798 156.273 303.986 158.722C303.97 154.048 303.978 149.37 303.918 144.696C303.906 143.726 304.186 143.277 305.166 143.044C307.558 142.479 309.922 141.79 312.302 141.152Z" fill="#1E344E"/>
<path d="M470.307 222.431C469.851 223.237 470.603 223.646 470.923 224.151C474.2 229.338 477.496 234.514 480.828 239.665C481.616 240.883 482.012 242.114 482 243.593C481.944 251.675 481.936 259.756 482.004 267.837C482.02 269.665 481.572 270.01 480.112 268.892C478.96 268.01 477.912 268.074 476.7 268.98C474.284 270.78 471.588 271.778 468.479 271.401C465.831 271.076 463.775 272.139 462.467 274.464C461.991 275.31 461.563 275.39 460.731 274.997C459.531 274.432 458.283 273.939 457.007 273.57C455.487 273.129 454.515 273.866 454.375 275.394C454.182 277.526 451.834 279.078 449.702 278.484C446.546 277.607 446.466 277.639 444.71 280.693C444.71 271.77 444.666 263.039 444.742 254.308C444.762 252.224 444.294 250.48 443.154 248.696C439.13 242.403 435.277 236.001 431.373 229.635C431.097 229.186 430.917 228.681 430.693 228.2C432.841 221.189 433.033 213.745 435.237 206.537C438.014 208.674 439.69 211.432 441.746 213.829C446.282 219.108 450.666 224.516 455.103 229.879C457.259 232.485 459.399 235.103 461.527 237.728C461.859 238.137 462.095 238.767 462.675 238.699C463.323 238.622 463.295 237.869 463.395 237.408C464.279 233.331 465.123 229.242 465.947 225.149C466.555 222.131 467.451 221.554 470.307 222.431Z" fill="#E99524"/>
<path d="M343.024 249.406C343.072 249.077 343.052 248.716 343.176 248.419C345.724 242.314 342.412 238.482 338.004 235.119C337.06 234.397 336.604 233.603 336.652 232.421C336.716 230.821 336.636 229.214 336.712 227.615C336.76 226.636 336.468 226.099 335.448 225.999C334.992 225.955 334.548 225.763 334.1 225.65C330.411 224.728 330.307 224.716 330.751 220.844C331.507 214.234 332.411 207.639 333.256 201.037C333.432 199.65 333.62 198.267 333.804 196.884C337.692 198.207 341.596 199.514 345.636 200.247C351.245 201.266 356.853 201.863 362.621 201.366C367.29 200.965 371.842 200.199 376.262 198.796C381.058 197.273 385.799 195.493 389.671 192.066C390.343 191.473 390.811 191.068 391.127 192.35C392.815 199.185 396.167 204.99 401.736 209.407C401.752 209.419 401.692 209.528 401.672 209.588C396.479 210.762 391.527 212.73 386.471 214.35C375.906 217.733 365.357 221.161 354.805 224.58C354.629 224.636 354.485 224.8 354.325 224.917C353.333 227.711 353.529 230.669 353.157 233.547C352.289 240.274 351.593 247.02 350.845 253.763C350.729 254.817 350.693 255.884 350.605 257.146C349.58 256.353 349.773 255.242 349.621 254.4C349.236 252.252 348.312 250.877 346 250.588C345.028 250.468 344.104 249.995 343.156 249.686C343.104 249.59 343.06 249.498 343.024 249.406Z" fill="#E99524"/>
<path d="M395.123 170.375C392.991 173.314 391.231 176.424 390.667 180.088C390.563 180.754 390.151 181.038 389.519 181.287C380.678 184.758 371.81 184.811 363.117 181.05C356.581 178.22 351.717 173.682 350.641 166.134C349.481 158.005 353.949 151.535 361.997 150.051C369.55 148.656 376.826 149.875 383.783 153.078C384.259 153.298 384.675 153.651 385.123 153.94C387.067 155.471 387.831 157.82 389.143 159.788C391.019 162.595 392.699 165.529 394.483 168.395C394.851 168.984 395.411 169.55 395.123 170.375Z" fill="#1E344E"/>
<path d="M488.757 151.923C493.269 158.67 493.445 165.821 490.101 172.953C487.593 178.296 482.8 181.11 477.164 182.277C468.16 184.145 459.115 185.813 450.082 187.556C448.822 187.801 448.258 187.336 448.302 185.961C448.394 182.906 448.278 179.872 447.698 176.833C447.422 175.378 448.218 173.867 448.866 172.468C450.602 168.72 452.727 165.204 455.163 161.877C456.475 160.738 458.147 160.442 459.731 159.977C468.424 157.419 477.124 154.882 485.817 152.328C486.777 152.056 487.729 151.711 488.757 151.923Z" fill="#E99524"/>
<path d="M488.756 151.924C485.66 153.327 482.324 153.977 479.088 154.939C471.127 157.304 463.143 159.577 455.167 161.882C456.739 156.646 459.887 152.714 464.751 150.192C469.251 147.859 473.992 146.46 479.096 146.713C483.108 146.917 486.348 148.677 488.756 151.924Z" fill="#1E344E"/>
<path d="M395.123 170.375C391.707 164.943 388.223 159.556 385.115 153.936C388.415 155.315 391.207 157.411 393.391 160.213C394.479 161.608 395.547 163.051 396.319 164.695C397.767 167.765 397.747 168.078 395.123 170.375Z" fill="#E99524"/>
<path d="M228.641 237.316C226.317 234.686 224.265 232.361 222.201 230.04C221.669 229.443 221.877 228.793 222.009 228.144C224.705 214.815 233.746 206.593 247.07 205.363C249.575 205.13 249.575 205.13 249.575 207.688C249.575 209.556 249.503 211.432 249.603 213.296C249.667 214.531 249.259 215.184 248.123 215.745C243.198 218.162 238.582 221.081 234.646 224.949C231.306 228.228 228.633 231.896 228.641 237.316Z" fill="#26AAE2"/>
<path d="M285.565 264.571C283.949 256.662 278.044 253.058 271.912 249.687C269.576 248.404 267.132 247.346 264.608 246.492C263.775 246.212 263.267 245.843 263.187 244.861C262.999 242.604 262.723 240.355 262.419 238.11C262.283 237.112 262.691 236.904 263.603 236.803C276.004 235.468 288.005 243.871 290.817 255.873C290.949 256.43 290.985 256.883 290.637 257.372C288.989 259.693 287.357 262.026 285.565 264.571Z" fill="#26AAE2"/>
<path d="M204.076 206.196C197.303 205.479 192.659 208.918 188.275 212.846C185.539 215.3 183.155 218.098 181.038 221.104C180.374 222.05 179.722 222.383 178.566 222.122C176.622 221.685 174.642 221.389 172.666 221.108C171.422 220.932 171.082 220.515 171.374 219.152C173.654 208.553 181.175 201.306 191.839 199.193C195.927 198.383 199.28 198.556 201.404 202.761C201.992 203.919 203.012 204.853 204.076 206.196Z" fill="#3AB44A"/>
<path d="M250.687 289.56C245.718 284.702 239.914 284.425 233.966 284.802C230.306 285.034 226.705 285.716 223.185 286.73C222.201 287.011 221.625 286.866 220.977 286.068C219.633 284.417 218.197 282.838 216.741 281.282C216.005 280.496 215.921 280.027 216.869 279.258C227.497 270.611 239.61 271.697 249.787 279.142C250.331 279.538 250.719 280.003 250.707 280.793C250.659 283.571 250.687 286.353 250.687 289.56Z" fill="#26AAE2"/>
<path d="M302.386 265.629C308.934 259.408 308.582 251.639 308.17 243.858C308.126 242.997 308.158 242.075 307.87 241.285C306.622 237.898 308.194 236.054 310.946 234.262C315.01 231.616 314.862 231.448 317.207 235.861C322.851 246.492 319.891 257.616 312.534 265.758C311.978 266.375 311.386 266.547 310.594 266.459C307.954 266.171 305.314 265.922 302.386 265.629Z" fill="#3AB44A"/>
</g>
<defs>
<filter id="filter0_f_5408_15440" x="48" y="9" width="521" height="521" filterUnits="userSpaceOnUse" color-interpolation-filters="sRGB">
<feFlood flood-opacity="0" result="BackgroundImageFix"/>
<feBlend mode="normal" in="SourceGraphic" in2="BackgroundImageFix" result="shape"/>
<feGaussianBlur stdDeviation="50" result="effect1_foregroundBlur_5408_15440"/>
</filter>
<clipPath id="clip0_5408_15440">
<rect width="479" height="341" fill="white" transform="translate(68 100)"/>
</clipPath>
</defs>
</svg>
