<svg width="552" height="48" viewBox="0 0 552 48" fill="none" xmlns="http://www.w3.org/2000/svg">
<rect x="0.5" y="0.5" width="551" height="47" rx="11.5" fill="#FCFCFD"/>
<rect x="0.5" y="0.5" width="551" height="47" rx="11.5" stroke="#D0D5DD"/>
<path d="M21.8881 22.0684C21.2041 22.0684 20.6641 22.6684 20.6641 23.4004C20.6641 24.1324 21.2161 24.7324 21.8881 24.7324C22.5721 24.7324 23.1121 24.1324 23.1121 23.4004C23.1241 22.6684 22.5721 22.0684 21.8881 22.0684ZM26.2681 22.0684C25.5841 22.0684 25.0441 22.6684 25.0441 23.4004C25.0441 24.1324 25.5961 24.7324 26.2681 24.7324C26.9521 24.7324 27.4921 24.1324 27.4921 23.4004C27.4921 22.6684 26.9521 22.0684 26.2681 22.0684Z" fill="#98A2B3"/>
<path d="M32.1001 12H16.0201C14.6641 12 13.5601 13.104 13.5601 14.472V30.696C13.5601 32.064 14.6641 33.168 16.0201 33.168H29.6281L28.9921 30.948L30.5281 32.376L31.9801 33.72L34.5601 36V14.472C34.5601 13.104 33.4561 12 32.1001 12ZM27.4681 27.672C27.4681 27.672 27.0361 27.156 26.6761 26.7C28.2481 26.256 28.8481 25.272 28.8481 25.272C28.3561 25.596 27.8881 25.824 27.4681 25.98C26.8681 26.232 26.2921 26.4 25.7281 26.496C24.5761 26.712 23.5201 26.652 22.6201 26.484C21.9361 26.352 21.3481 26.16 20.8561 25.968C20.5801 25.86 20.2801 25.728 19.9801 25.56C19.9441 25.536 19.9081 25.524 19.8721 25.5C19.8481 25.488 19.8361 25.476 19.8241 25.464C19.6081 25.344 19.4881 25.26 19.4881 25.26C19.4881 25.26 20.0641 26.22 21.5881 26.676C21.2281 27.132 20.7841 27.672 20.7841 27.672C18.1321 27.588 17.1241 25.848 17.1241 25.848C17.1241 21.984 18.8521 18.852 18.8521 18.852C20.5801 17.556 22.2241 17.592 22.2241 17.592L22.3441 17.736C20.1841 18.36 19.1881 19.308 19.1881 19.308C19.1881 19.308 19.4521 19.164 19.8961 18.96C21.1801 18.396 22.2001 18.24 22.6201 18.204C22.6921 18.192 22.7521 18.18 22.8241 18.18C23.5561 18.084 24.3841 18.06 25.2481 18.156C26.3881 18.288 27.6121 18.624 28.8601 19.308C28.8601 19.308 27.9121 18.408 25.8721 17.784L26.0401 17.592C26.0401 17.592 27.6841 17.556 29.4121 18.852C29.4121 18.852 31.1401 21.984 31.1401 25.848C31.1401 25.848 30.1201 27.588 27.4681 27.672Z" fill="#98A2B3"/>
<path d="M45.806 29L46.478 25.822H44.672V24.758H46.716L47.192 22.378H45.302V21.272H47.43L48.088 18.318H49.278L48.62 21.328H50.846L51.476 18.318H52.666L51.994 21.328H53.828V22.378H51.77L51.252 24.758H53.184V25.822H51.028L50.356 29H49.18L49.866 25.822H47.626L46.982 29H45.806ZM47.892 24.758H50.104L50.58 22.378H48.368L47.892 24.758ZM55.5083 18.318H58.3363L60.4923 25.64C60.5857 25.9573 60.6557 26.242 60.7023 26.494C60.749 26.746 60.7723 27.054 60.7723 27.418H60.9963C60.9963 27.054 61.015 26.7413 61.0523 26.48C61.099 26.2187 61.169 25.9387 61.2623 25.64L63.4183 18.318H66.2463V29H64.5943V21.202C64.5943 20.726 64.6223 20.2127 64.6783 19.662L64.4543 19.634C64.361 20.166 64.235 20.6887 64.0763 21.202L61.6963 29H60.0723L57.6643 21.202C57.5243 20.7447 57.4077 20.222 57.3143 19.634L57.0903 19.662C57.137 20.2127 57.1603 20.726 57.1603 21.202V29H55.5083V18.318ZM67.4092 18.318H69.1172L71.8052 26.13C71.8985 26.4287 71.9639 26.6713 72.0012 26.858C72.0385 27.0353 72.0572 27.208 72.0572 27.376H72.2812C72.2812 27.208 72.2999 27.0353 72.3372 26.858C72.3745 26.6713 72.4399 26.4287 72.5332 26.13L75.2352 18.318H76.9432L73.0932 29H71.2592L67.4092 18.318ZM78.0806 18.318H82.3786C83.4239 18.318 84.2499 18.5793 84.8566 19.102C85.4633 19.6153 85.7666 20.39 85.7666 21.426C85.7666 22.4153 85.4586 23.1947 84.8426 23.764C84.2266 24.324 83.4053 24.604 82.3786 24.604H79.7326V29H78.0806V18.318ZM82.1546 23.162C82.7893 23.162 83.2746 23.0173 83.6106 22.728C83.9559 22.4387 84.1286 22.0187 84.1286 21.468C84.1286 20.936 83.9559 20.5253 83.6106 20.236C83.2746 19.9467 82.7893 19.802 82.1546 19.802H79.7326V23.162H82.1546ZM94.2329 29.154C93.2529 29.154 92.4315 28.9207 91.7689 28.454C91.1155 27.978 90.7235 27.306 90.5929 26.438H92.1469C92.2589 26.8953 92.4875 27.25 92.8329 27.502C93.1875 27.754 93.6542 27.88 94.2329 27.88C94.7089 27.88 95.0915 27.7913 95.3809 27.614C95.6702 27.4273 95.8149 27.166 95.8149 26.83C95.8149 26.5687 95.7262 26.3633 95.5489 26.214C95.3715 26.0553 95.1475 25.934 94.8769 25.85C94.6062 25.766 94.2469 25.6773 93.7989 25.584C93.1829 25.4627 92.6835 25.3367 92.3009 25.206C91.9182 25.0753 91.5915 24.8607 91.3209 24.562C91.0502 24.2633 90.9149 23.8527 90.9149 23.33C90.9149 22.5927 91.1902 22.028 91.7409 21.636C92.2915 21.244 92.9915 21.048 93.8409 21.048C94.7182 21.048 95.4509 21.2767 96.0389 21.734C96.6269 22.182 96.9909 22.8073 97.1309 23.61H95.6889C95.5769 23.1713 95.3575 22.8447 95.0309 22.63C94.7042 22.4153 94.3075 22.308 93.8409 22.308C93.3929 22.308 93.0429 22.392 92.7909 22.56C92.5389 22.728 92.4129 22.9567 92.4129 23.246C92.4129 23.4793 92.4969 23.666 92.6649 23.806C92.8329 23.9367 93.0382 24.0393 93.2809 24.114C93.5329 24.1887 93.8829 24.268 94.3309 24.352C94.9655 24.4733 95.4835 24.604 95.8849 24.744C96.2862 24.8747 96.6269 25.0987 96.9069 25.416C97.1962 25.724 97.3409 26.1533 97.3409 26.704C97.3409 27.4507 97.0655 28.048 96.5149 28.496C95.9642 28.9347 95.2035 29.154 94.2329 29.154ZM101.575 29.154C100.427 29.154 99.6379 28.7293 99.2086 27.88C99.0592 27.5813 98.9659 27.2687 98.9286 26.942C98.8912 26.6153 98.8726 26.2327 98.8726 25.794V21.202H100.413V25.808C100.413 26.6013 100.548 27.152 100.819 27.46C101.071 27.7213 101.435 27.852 101.911 27.852C102.48 27.852 102.914 27.6747 103.213 27.32C103.427 27.096 103.577 26.7927 103.661 26.41C103.754 26.0273 103.801 25.5093 103.801 24.856V21.202H105.341V29H103.801V28.622C103.801 28.482 103.815 28.37 103.843 28.286C103.871 28.1927 103.917 28.0993 103.983 28.006L103.787 27.866C103.469 28.3233 103.138 28.6547 102.793 28.86C102.447 29.056 102.041 29.154 101.575 29.154ZM111.12 21.048C111.801 21.048 112.403 21.2207 112.926 21.566C113.448 21.902 113.85 22.378 114.13 22.994C114.419 23.61 114.564 24.31 114.564 25.094C114.564 25.8873 114.419 26.592 114.13 27.208C113.85 27.824 113.448 28.3047 112.926 28.65C112.403 28.986 111.801 29.154 111.12 29.154C110.588 29.154 110.14 29.056 109.776 28.86C109.421 28.664 109.076 28.3327 108.74 27.866L108.544 28.006C108.618 28.09 108.67 28.1787 108.698 28.272C108.726 28.3653 108.74 28.482 108.74 28.622V31.884H107.2V21.202H108.74V21.58C108.74 21.72 108.726 21.8367 108.698 21.93C108.67 22.014 108.618 22.1027 108.544 22.196L108.74 22.336C109.076 21.8693 109.421 21.538 109.776 21.342C110.14 21.146 110.588 21.048 111.12 21.048ZM110.84 22.392C110.41 22.392 110.023 22.5087 109.678 22.742C109.342 22.966 109.076 23.2833 108.88 23.694C108.693 24.1047 108.6 24.5713 108.6 25.094C108.6 25.6167 108.693 26.088 108.88 26.508C109.076 26.9187 109.342 27.2407 109.678 27.474C110.023 27.698 110.41 27.81 110.84 27.81C111.502 27.81 112.03 27.558 112.422 27.054C112.823 26.5407 113.024 25.8873 113.024 25.094C113.024 24.3007 112.823 23.652 112.422 23.148C112.03 22.644 111.502 22.392 110.84 22.392ZM120.061 21.048C120.742 21.048 121.344 21.2207 121.867 21.566C122.39 21.902 122.791 22.378 123.071 22.994C123.36 23.61 123.505 24.31 123.505 25.094C123.505 25.8873 123.36 26.592 123.071 27.208C122.791 27.824 122.39 28.3047 121.867 28.65C121.344 28.986 120.742 29.154 120.061 29.154C119.529 29.154 119.081 29.056 118.717 28.86C118.362 28.664 118.017 28.3327 117.681 27.866L117.485 28.006C117.56 28.09 117.611 28.1787 117.639 28.272C117.667 28.3653 117.681 28.482 117.681 28.622V31.884H116.141V21.202H117.681V21.58C117.681 21.72 117.667 21.8367 117.639 21.93C117.611 22.014 117.56 22.1027 117.485 22.196L117.681 22.336C118.017 21.8693 118.362 21.538 118.717 21.342C119.081 21.146 119.529 21.048 120.061 21.048ZM119.781 22.392C119.352 22.392 118.964 22.5087 118.619 22.742C118.283 22.966 118.017 23.2833 117.821 23.694C117.634 24.1047 117.541 24.5713 117.541 25.094C117.541 25.6167 117.634 26.088 117.821 26.508C118.017 26.9187 118.283 27.2407 118.619 27.474C118.964 27.698 119.352 27.81 119.781 27.81C120.444 27.81 120.971 27.558 121.363 27.054C121.764 26.5407 121.965 25.8873 121.965 25.094C121.965 24.3007 121.764 23.652 121.363 23.148C120.971 22.644 120.444 22.392 119.781 22.392ZM128.653 29.154C127.897 29.154 127.22 28.9813 126.623 28.636C126.035 28.2907 125.573 27.81 125.237 27.194C124.91 26.5687 124.747 25.8593 124.747 25.066C124.747 24.2913 124.91 23.6007 125.237 22.994C125.573 22.3873 126.035 21.9113 126.623 21.566C127.22 21.2207 127.897 21.048 128.653 21.048C129.409 21.048 130.081 21.2207 130.669 21.566C131.266 21.9113 131.728 22.3873 132.055 22.994C132.391 23.6007 132.559 24.2913 132.559 25.066C132.559 25.85 132.395 26.5547 132.069 27.18C131.742 27.796 131.28 28.2813 130.683 28.636C130.095 28.9813 129.418 29.154 128.653 29.154ZM128.653 27.81C129.101 27.81 129.502 27.6933 129.857 27.46C130.211 27.2267 130.487 26.9 130.683 26.48C130.888 26.06 130.991 25.5887 130.991 25.066C130.991 24.562 130.888 24.1093 130.683 23.708C130.487 23.2973 130.211 22.9753 129.857 22.742C129.502 22.5087 129.101 22.392 128.653 22.392C128.205 22.392 127.803 22.5087 127.449 22.742C127.094 22.966 126.814 23.2833 126.609 23.694C126.413 24.0953 126.315 24.5527 126.315 25.066C126.315 25.598 126.413 26.074 126.609 26.494C126.814 26.9047 127.094 27.2267 127.449 27.46C127.803 27.6933 128.205 27.81 128.653 27.81ZM134.092 21.202H135.632V21.58C135.632 21.72 135.618 21.8367 135.59 21.93C135.562 22.014 135.515 22.1027 135.45 22.196L135.646 22.322C135.945 21.8647 136.276 21.538 136.64 21.342C137.013 21.146 137.471 21.048 138.012 21.048H138.166V22.56H137.746C137.121 22.56 136.635 22.7327 136.29 23.078C135.851 23.498 135.632 24.1887 135.632 25.15V29H134.092V21.202ZM141.833 29C141.227 29 140.769 28.86 140.461 28.58C140.153 28.3 139.999 27.8287 139.999 27.166V22.49H138.795V21.202H139.999V18.318H141.539V21.202H143.163V22.49H141.539V26.76C141.539 27.0867 141.586 27.3247 141.679 27.474C141.773 27.6233 141.987 27.698 142.323 27.698H143.149V29H141.833ZM151.962 29.154C151.206 29.154 150.534 28.9813 149.946 28.636C149.367 28.2907 148.915 27.81 148.588 27.194C148.261 26.5687 148.098 25.8593 148.098 25.066C148.098 24.2913 148.261 23.6007 148.588 22.994C148.915 22.3873 149.367 21.9113 149.946 21.566C150.534 21.2207 151.206 21.048 151.962 21.048C152.867 21.048 153.633 21.2813 154.258 21.748C154.893 22.2147 155.303 22.84 155.49 23.624H153.838C153.698 23.2227 153.465 22.91 153.138 22.686C152.811 22.462 152.419 22.35 151.962 22.35C151.514 22.35 151.117 22.4667 150.772 22.7C150.427 22.924 150.156 23.2413 149.96 23.652C149.764 24.0627 149.666 24.534 149.666 25.066C149.666 25.6167 149.764 26.102 149.96 26.522C150.156 26.942 150.427 27.2687 150.772 27.502C151.117 27.7353 151.514 27.852 151.962 27.852C152.447 27.852 152.858 27.726 153.194 27.474C153.539 27.2127 153.768 26.8673 153.88 26.438H155.546C155.369 27.278 154.953 27.9407 154.3 28.426C153.656 28.9113 152.877 29.154 151.962 29.154ZM156.993 18.318H158.533V21.58C158.533 21.72 158.519 21.8367 158.491 21.93C158.463 22.0233 158.411 22.112 158.337 22.196L158.533 22.322C158.859 21.8647 159.195 21.538 159.541 21.342C159.886 21.146 160.287 21.048 160.745 21.048C161.893 21.048 162.681 21.468 163.111 22.308C163.269 22.616 163.367 22.9333 163.405 23.26C163.442 23.5773 163.461 23.96 163.461 24.408V29H161.921V24.394C161.921 23.9833 161.888 23.6473 161.823 23.386C161.757 23.1153 161.65 22.9007 161.501 22.742C161.267 22.4807 160.903 22.35 160.409 22.35C159.849 22.35 159.415 22.5273 159.107 22.882C158.901 23.106 158.752 23.4093 158.659 23.792C158.575 24.1747 158.533 24.6927 158.533 25.346V29H156.993V18.318ZM167.476 29.154C166.711 29.154 166.095 28.9533 165.628 28.552C165.162 28.1413 164.928 27.586 164.928 26.886C164.928 26.1673 165.208 25.6027 165.768 25.192C166.188 24.884 166.79 24.6553 167.574 24.506L170.122 24.016C170.122 23.4933 169.978 23.078 169.688 22.77C169.38 22.462 168.97 22.308 168.456 22.308C168.036 22.308 167.668 22.4293 167.35 22.672C167.042 22.9053 166.846 23.2227 166.762 23.624H165.236C165.367 22.8027 165.736 22.168 166.342 21.72C166.949 21.272 167.658 21.048 168.47 21.048C168.928 21.048 169.357 21.118 169.758 21.258C170.169 21.3887 170.514 21.5847 170.794 21.846C171.168 22.1913 171.401 22.5973 171.494 23.064C171.597 23.5307 171.648 24.0673 171.648 24.674V29H170.108V28.706C170.108 28.51 170.164 28.2533 170.276 27.936L170.08 27.838C169.875 28.1927 169.609 28.482 169.282 28.706C168.853 29.0047 168.251 29.154 167.476 29.154ZM167.784 27.88C168.195 27.88 168.568 27.796 168.904 27.628C169.287 27.4413 169.572 27.1847 169.758 26.858C169.861 26.6807 169.936 26.5173 169.982 26.368C170.029 26.2093 170.08 25.9993 170.136 25.738C170.164 25.6167 170.202 25.528 170.248 25.472C170.295 25.4067 170.36 25.3693 170.444 25.36L170.402 25.136L168.778 25.472L167.938 25.626C167.397 25.738 167.005 25.906 166.762 26.13C166.566 26.326 166.468 26.564 166.468 26.844C166.468 27.1707 166.585 27.4273 166.818 27.614C167.061 27.7913 167.383 27.88 167.784 27.88ZM173.426 21.202H174.966V21.58C174.966 21.72 174.952 21.8367 174.924 21.93C174.896 22.014 174.849 22.1027 174.784 22.196L174.98 22.322C175.297 21.8647 175.629 21.538 175.974 21.342C176.319 21.146 176.721 21.048 177.178 21.048C178.345 21.048 179.133 21.468 179.544 22.308C179.703 22.616 179.801 22.9333 179.838 23.26C179.875 23.5773 179.894 23.96 179.894 24.408V29H178.354V24.394C178.354 23.6007 178.219 23.05 177.948 22.742C177.696 22.4807 177.332 22.35 176.856 22.35C176.287 22.35 175.848 22.5273 175.54 22.882C175.335 23.106 175.185 23.4093 175.092 23.792C175.008 24.1747 174.966 24.6927 174.966 25.346V29H173.426V21.202ZM181.684 21.202H183.224V21.58C183.224 21.72 183.21 21.8367 183.182 21.93C183.154 22.014 183.107 22.1027 183.042 22.196L183.238 22.322C183.555 21.8647 183.886 21.538 184.232 21.342C184.577 21.146 184.978 21.048 185.436 21.048C186.602 21.048 187.391 21.468 187.802 22.308C187.96 22.616 188.058 22.9333 188.096 23.26C188.133 23.5773 188.152 23.96 188.152 24.408V29H186.612V24.394C186.612 23.6007 186.476 23.05 186.206 22.742C185.954 22.4807 185.59 22.35 185.114 22.35C184.544 22.35 184.106 22.5273 183.798 22.882C183.592 23.106 183.443 23.4093 183.35 23.792C183.266 24.1747 183.224 24.6927 183.224 25.346V29H181.684V21.202ZM193.498 29.154C192.742 29.154 192.07 28.9813 191.482 28.636C190.894 28.2813 190.436 27.8007 190.11 27.194C189.783 26.578 189.62 25.892 189.62 25.136C189.62 24.4267 189.764 23.7593 190.054 23.134C190.352 22.5087 190.791 22.0047 191.37 21.622C191.948 21.2393 192.644 21.048 193.456 21.048C194.146 21.048 194.781 21.1973 195.36 21.496C195.948 21.7947 196.419 22.2427 196.774 22.84C197.128 23.428 197.306 24.1467 197.306 24.996V25.416H192.042C191.584 25.416 191.258 25.402 191.062 25.374L191.006 25.598C191.09 25.6167 191.146 25.654 191.174 25.71C191.211 25.7567 191.248 25.8313 191.286 25.934C191.304 26.0087 191.346 26.116 191.412 26.256C191.598 26.732 191.878 27.11 192.252 27.39C192.625 27.67 193.05 27.81 193.526 27.81C194.02 27.81 194.445 27.684 194.8 27.432C195.154 27.1707 195.411 26.8393 195.57 26.438H197.18C196.918 27.2407 196.475 27.894 195.85 28.398C195.234 28.902 194.45 29.154 193.498 29.154ZM191.258 24.408C191.388 24.324 191.51 24.2633 191.622 24.226C191.734 24.1887 191.86 24.17 192 24.17H194.954C195.112 24.17 195.248 24.1887 195.36 24.226C195.481 24.2633 195.612 24.324 195.752 24.408L195.892 24.226C195.808 24.17 195.752 24.1233 195.724 24.086C195.696 24.0393 195.672 23.9787 195.654 23.904C195.635 23.7733 195.574 23.6147 195.472 23.428C195.285 23.0733 195.014 22.8027 194.66 22.616C194.314 22.42 193.932 22.322 193.512 22.322C193.073 22.322 192.686 22.42 192.35 22.616C192.014 22.8027 191.748 23.0733 191.552 23.428C191.468 23.568 191.402 23.7267 191.356 23.904C191.337 23.9787 191.314 24.0393 191.286 24.086C191.267 24.1327 191.216 24.1793 191.132 24.226L191.258 24.408ZM200.634 29C200.028 29 199.57 28.86 199.262 28.58C198.954 28.3 198.8 27.8287 198.8 27.166V18.318H200.34V26.788C200.34 27.1147 200.392 27.348 200.494 27.488C200.597 27.628 200.807 27.698 201.124 27.698H201.558V29H200.634Z" fill="#101828"/>
</svg>
