<svg width="552" height="46" viewBox="0 0 552 46" fill="none" xmlns="http://www.w3.org/2000/svg">
<rect x="0.5" y="0.5" width="551" height="45" rx="11.5" fill="#FCFCFD"/>
<rect x="0.5" y="0.5" width="551" height="45" rx="11.5" stroke="#D0D5DD"/>
<path d="M20.232 28.532C20.1387 28.392 20.0687 28.252 20.022 28.112C19.9753 27.9813 19.952 27.7993 19.952 27.566L19.77 27.51C19.5273 27.7527 19.2193 27.9253 18.846 28.028C18.5287 28.1213 18.146 28.168 17.698 28.168C16.5873 28.168 15.6493 27.9207 14.884 27.426C14.128 26.922 13.5633 26.2547 13.19 25.424C12.8167 24.584 12.63 23.66 12.63 22.652C12.63 21.6347 12.8167 20.7107 13.19 19.88C13.5633 19.0493 14.128 18.3867 14.884 17.892C15.6493 17.3973 16.5873 17.15 17.698 17.15C18.8087 17.15 19.742 17.3973 20.498 17.892C21.2633 18.3867 21.8327 19.0493 22.206 19.88C22.5887 20.7107 22.78 21.6347 22.78 22.652C22.78 23.5293 22.6353 24.346 22.346 25.102C22.066 25.8487 21.6507 26.4693 21.1 26.964L22.528 29.218H20.694L20.232 28.532ZM17.698 26.698C18.7713 26.698 19.602 26.334 20.19 25.606C20.7873 24.8687 21.086 23.884 21.086 22.652C21.086 21.4293 20.7873 20.454 20.19 19.726C19.602 18.998 18.7713 18.634 17.698 18.634C16.634 18.634 15.8033 18.998 15.206 19.726C14.618 20.454 14.324 21.4293 14.324 22.652C14.324 23.884 14.618 24.8687 15.206 25.606C15.8033 26.334 16.634 26.698 17.698 26.698ZM27.0414 28.154C25.8934 28.154 25.1047 27.7293 24.6754 26.88C24.526 26.5813 24.4327 26.2687 24.3954 25.942C24.358 25.6153 24.3394 25.2327 24.3394 24.794V20.202H25.8794V24.808C25.8794 25.6013 26.0147 26.152 26.2854 26.46C26.5374 26.7213 26.9014 26.852 27.3774 26.852C27.9467 26.852 28.3807 26.6747 28.6794 26.32C28.894 26.096 29.0434 25.7927 29.1274 25.41C29.2207 25.0273 29.2674 24.5093 29.2674 23.856V20.202H30.8074V28H29.2674V27.622C29.2674 27.482 29.2814 27.37 29.3094 27.286C29.3374 27.1927 29.384 27.0993 29.4494 27.006L29.2534 26.866C28.936 27.3233 28.6047 27.6547 28.2594 27.86C27.914 28.056 27.508 28.154 27.0414 28.154ZM34.8785 28.154C34.1132 28.154 33.4972 27.9533 33.0305 27.552C32.5638 27.1413 32.3305 26.586 32.3305 25.886C32.3305 25.1673 32.6105 24.6027 33.1705 24.192C33.5905 23.884 34.1925 23.6553 34.9765 23.506L37.5245 23.016C37.5245 22.4933 37.3798 22.078 37.0905 21.77C36.7825 21.462 36.3718 21.308 35.8585 21.308C35.4385 21.308 35.0698 21.4293 34.7525 21.672C34.4445 21.9053 34.2485 22.2227 34.1645 22.624H32.6385C32.7692 21.8027 33.1378 21.168 33.7445 20.72C34.3512 20.272 35.0605 20.048 35.8725 20.048C36.3298 20.048 36.7592 20.118 37.1605 20.258C37.5712 20.3887 37.9165 20.5847 38.1965 20.846C38.5698 21.1913 38.8032 21.5973 38.8965 22.064C38.9992 22.5307 39.0505 23.0673 39.0505 23.674V28H37.5105V27.706C37.5105 27.51 37.5665 27.2533 37.6785 26.936L37.4825 26.838C37.2772 27.1927 37.0112 27.482 36.6845 27.706C36.2552 28.0047 35.6532 28.154 34.8785 28.154ZM35.1865 26.88C35.5972 26.88 35.9705 26.796 36.3065 26.628C36.6892 26.4413 36.9738 26.1847 37.1605 25.858C37.2632 25.6807 37.3378 25.5173 37.3845 25.368C37.4312 25.2093 37.4825 24.9993 37.5385 24.738C37.5665 24.6167 37.6038 24.528 37.6505 24.472C37.6972 24.4067 37.7625 24.3693 37.8465 24.36L37.8045 24.136L36.1805 24.472L35.3405 24.626C34.7992 24.738 34.4072 24.906 34.1645 25.13C33.9685 25.326 33.8705 25.564 33.8705 25.844C33.8705 26.1707 33.9872 26.4273 34.2205 26.614C34.4632 26.7913 34.7852 26.88 35.1865 26.88ZM42.6343 28C42.0276 28 41.5703 27.86 41.2623 27.58C40.9543 27.3 40.8003 26.8287 40.8003 26.166V17.318H42.3403V25.788C42.3403 26.1147 42.3916 26.348 42.4943 26.488C42.597 26.628 42.807 26.698 43.1243 26.698H43.5583V28H42.6343ZM44.8752 28V20.202H46.4152V28H44.8752ZM45.6452 19.11C45.3652 19.11 45.1225 19.0167 44.9172 18.83C44.7118 18.6433 44.6092 18.41 44.6092 18.13C44.6092 17.85 44.7118 17.6167 44.9172 17.43C45.1225 17.2433 45.3652 17.15 45.6452 17.15C45.9345 17.15 46.1772 17.2433 46.3732 17.43C46.5785 17.6167 46.6812 17.85 46.6812 18.13C46.6812 18.41 46.5785 18.6433 46.3732 18.83C46.1772 19.0167 45.9345 19.11 45.6452 19.11ZM48.9238 21.476H47.6918V20.202H48.9238V19.376C48.9238 18.704 49.1011 18.1953 49.4558 17.85C49.8105 17.4953 50.3285 17.318 51.0098 17.318H52.1018V18.592H51.3738C51.0751 18.592 50.8511 18.6713 50.7018 18.83C50.5525 18.9887 50.4778 19.2407 50.4778 19.586C50.4778 19.698 50.4685 19.8007 50.4498 19.894C50.4405 19.978 50.4031 20.0807 50.3378 20.202L50.4778 20.342C50.6458 20.2487 50.8511 20.202 51.0938 20.202H52.1018V21.476H50.4778V28H48.9238V21.476ZM53.3804 29.54H54.1784C54.4864 29.54 54.7104 29.498 54.8504 29.414C54.9997 29.33 55.1351 29.1293 55.2564 28.812L55.5644 27.958L52.6104 20.202H54.2904L56.0684 25.2C56.1617 25.452 56.2317 25.7553 56.2784 26.11H56.4464C56.4744 25.8113 56.5397 25.508 56.6424 25.2L58.2944 20.202H59.9604L56.7124 29.232C56.4884 29.8573 56.2224 30.2867 55.9144 30.52C55.6064 30.7627 55.1724 30.884 54.6124 30.884H53.3804V29.54ZM61.1174 28V20.202H62.6574V28H61.1174ZM61.8874 19.11C61.6074 19.11 61.3647 19.0167 61.1594 18.83C60.954 18.6433 60.8514 18.41 60.8514 18.13C60.8514 17.85 60.954 17.6167 61.1594 17.43C61.3647 17.2433 61.6074 17.15 61.8874 17.15C62.1767 17.15 62.4194 17.2433 62.6154 17.43C62.8207 17.6167 62.9234 17.85 62.9234 18.13C62.9234 18.41 62.8207 18.6433 62.6154 18.83C62.4194 19.0167 62.1767 19.11 61.8874 19.11ZM64.508 20.202H66.048V20.58C66.048 20.72 66.034 20.8367 66.006 20.93C65.978 21.014 65.9313 21.1027 65.866 21.196L66.062 21.322C66.3793 20.8647 66.7107 20.538 67.056 20.342C67.4013 20.146 67.8027 20.048 68.26 20.048C69.4267 20.048 70.2153 20.468 70.626 21.308C70.7847 21.616 70.8827 21.9333 70.92 22.26C70.9573 22.5773 70.976 22.96 70.976 23.408V28H69.436V23.394C69.436 22.6007 69.3007 22.05 69.03 21.742C68.778 21.4807 68.414 21.35 67.938 21.35C67.3687 21.35 66.93 21.5273 66.622 21.882C66.4167 22.106 66.2673 22.4093 66.174 22.792C66.09 23.1747 66.048 23.6927 66.048 24.346V28H64.508V20.202ZM76.2798 31.024C75.3651 31.024 74.5811 30.8327 73.9278 30.45C73.2745 30.0673 72.8731 29.428 72.7238 28.532H74.2918C74.4131 28.952 74.6325 29.26 74.9498 29.456C75.2765 29.6613 75.7151 29.764 76.2658 29.764C76.9658 29.764 77.4838 29.6053 77.8198 29.288C78.1558 28.9707 78.3238 28.5227 78.3238 27.944V27.538C78.3238 27.3793 78.3331 27.2627 78.3518 27.188C78.3798 27.104 78.4358 27.0153 78.5198 26.922L78.3238 26.782C77.9878 27.2487 77.6425 27.58 77.2878 27.776C76.9331 27.972 76.4851 28.07 75.9438 28.07C75.2625 28.07 74.6605 27.902 74.1378 27.566C73.6151 27.2207 73.2091 26.7447 72.9198 26.138C72.6398 25.5313 72.4998 24.8453 72.4998 24.08C72.4998 23.296 72.6398 22.6007 72.9198 21.994C73.2091 21.378 73.6151 20.902 74.1378 20.566C74.6605 20.2207 75.2625 20.048 75.9438 20.048C76.4851 20.048 76.9331 20.146 77.2878 20.342C77.6425 20.538 77.9878 20.8647 78.3238 21.322L78.5198 21.196C78.3891 21.028 78.3238 20.8227 78.3238 20.58V20.202H79.8638V27.608C79.8638 28.84 79.5465 29.7173 78.9118 30.24C78.2771 30.7627 77.3998 31.024 76.2798 31.024ZM76.2238 26.726C76.6531 26.726 77.0358 26.614 77.3718 26.39C77.7171 26.1567 77.9831 25.8393 78.1698 25.438C78.3658 25.0273 78.4638 24.5653 78.4638 24.052C78.4638 23.548 78.3658 23.0953 78.1698 22.694C77.9831 22.2833 77.7171 21.966 77.3718 21.742C77.0358 21.5087 76.6531 21.392 76.2238 21.392C75.5705 21.392 75.0431 21.644 74.6418 22.148C74.2405 22.652 74.0398 23.2867 74.0398 24.052C74.0398 24.8267 74.2358 25.466 74.6278 25.97C75.0291 26.474 75.5611 26.726 76.2238 26.726ZM85.6607 28V17.318H92.6887V18.802H87.3127V21.91H92.0867V23.38H87.3127V26.516H92.6887V28H85.6607ZM93.1478 20.202H94.8138L96.2698 24.458C96.3445 24.6727 96.4005 24.8827 96.4378 25.088C96.4752 25.2933 96.5032 25.466 96.5218 25.606C96.5405 25.746 96.5545 25.858 96.5638 25.942H96.7318C96.7412 25.886 96.7552 25.76 96.7738 25.564C96.7925 25.3587 96.8205 25.1673 96.8578 24.99C96.8952 24.8127 96.9465 24.6353 97.0118 24.458L98.4958 20.202H100.162L97.2638 28H96.0178L93.1478 20.202ZM104.705 28.154C103.949 28.154 103.277 27.9813 102.689 27.636C102.101 27.2813 101.643 26.8007 101.317 26.194C100.99 25.578 100.827 24.892 100.827 24.136C100.827 23.4267 100.971 22.7593 101.261 22.134C101.559 21.5087 101.998 21.0047 102.577 20.622C103.155 20.2393 103.851 20.048 104.663 20.048C105.353 20.048 105.988 20.1973 106.567 20.496C107.155 20.7947 107.626 21.2427 107.981 21.84C108.335 22.428 108.513 23.1467 108.513 23.996V24.416H103.249C102.791 24.416 102.465 24.402 102.269 24.374L102.213 24.598C102.297 24.6167 102.353 24.654 102.381 24.71C102.418 24.7567 102.455 24.8313 102.493 24.934C102.511 25.0087 102.553 25.116 102.619 25.256C102.805 25.732 103.085 26.11 103.459 26.39C103.832 26.67 104.257 26.81 104.733 26.81C105.227 26.81 105.652 26.684 106.007 26.432C106.361 26.1707 106.618 25.8393 106.777 25.438H108.387C108.125 26.2407 107.682 26.894 107.057 27.398C106.441 27.902 105.657 28.154 104.705 28.154ZM102.465 23.408C102.595 23.324 102.717 23.2633 102.829 23.226C102.941 23.1887 103.067 23.17 103.207 23.17H106.161C106.319 23.17 106.455 23.1887 106.567 23.226C106.688 23.2633 106.819 23.324 106.959 23.408L107.099 23.226C107.015 23.17 106.959 23.1233 106.931 23.086C106.903 23.0393 106.879 22.9787 106.861 22.904C106.842 22.7733 106.781 22.6147 106.679 22.428C106.492 22.0733 106.221 21.8027 105.867 21.616C105.521 21.42 105.139 21.322 104.719 21.322C104.28 21.322 103.893 21.42 103.557 21.616C103.221 21.8027 102.955 22.0733 102.759 22.428C102.675 22.568 102.609 22.7267 102.563 22.904C102.544 22.9787 102.521 23.0393 102.493 23.086C102.474 23.1327 102.423 23.1793 102.339 23.226L102.465 23.408ZM110.035 20.202H111.575V20.58C111.575 20.72 111.561 20.8367 111.533 20.93C111.505 21.014 111.459 21.1027 111.393 21.196L111.589 21.322C111.907 20.8647 112.238 20.538 112.583 20.342C112.929 20.146 113.33 20.048 113.787 20.048C114.954 20.048 115.743 20.468 116.153 21.308C116.312 21.616 116.41 21.9333 116.447 22.26C116.485 22.5773 116.503 22.96 116.503 23.408V28H114.963V23.394C114.963 22.6007 114.828 22.05 114.557 21.742C114.305 21.4807 113.941 21.35 113.465 21.35C112.896 21.35 112.457 21.5273 112.149 21.882C111.944 22.106 111.795 22.4093 111.701 22.792C111.617 23.1747 111.575 23.6927 111.575 24.346V28H110.035V20.202ZM120.579 28C119.973 28 119.515 27.86 119.207 27.58C118.899 27.3 118.745 26.8287 118.745 26.166V21.49H117.541V20.202H118.745V17.318H120.285V20.202H121.909V21.49H120.285V25.76C120.285 26.0867 120.332 26.3247 120.425 26.474C120.519 26.6233 120.733 26.698 121.069 26.698H121.895V28H120.579ZM130.75 28.154C129.994 28.154 129.318 27.9813 128.72 27.636C128.132 27.2907 127.67 26.81 127.334 26.194C127.008 25.5687 126.844 24.8593 126.844 24.066C126.844 23.2913 127.008 22.6007 127.334 21.994C127.67 21.3873 128.132 20.9113 128.72 20.566C129.318 20.2207 129.994 20.048 130.75 20.048C131.506 20.048 132.178 20.2207 132.766 20.566C133.364 20.9113 133.826 21.3873 134.152 21.994C134.488 22.6007 134.656 23.2913 134.656 24.066C134.656 24.85 134.493 25.5547 134.166 26.18C133.84 26.796 133.378 27.2813 132.78 27.636C132.192 27.9813 131.516 28.154 130.75 28.154ZM130.75 26.81C131.198 26.81 131.6 26.6933 131.954 26.46C132.309 26.2267 132.584 25.9 132.78 25.48C132.986 25.06 133.088 24.5887 133.088 24.066C133.088 23.562 132.986 23.1093 132.78 22.708C132.584 22.2973 132.309 21.9753 131.954 21.742C131.6 21.5087 131.198 21.392 130.75 21.392C130.302 21.392 129.901 21.5087 129.546 21.742C129.192 21.966 128.912 22.2833 128.706 22.694C128.51 23.0953 128.412 23.5527 128.412 24.066C128.412 24.598 128.51 25.074 128.706 25.494C128.912 25.9047 129.192 26.2267 129.546 26.46C129.901 26.6933 130.302 26.81 130.75 26.81ZM136.19 20.202H137.73V20.58C137.73 20.72 137.716 20.8367 137.688 20.93C137.66 21.014 137.613 21.1027 137.548 21.196L137.744 21.322C138.042 20.8647 138.374 20.538 138.738 20.342C139.111 20.146 139.568 20.048 140.11 20.048H140.264V21.56H139.844C139.218 21.56 138.733 21.7327 138.388 22.078C137.949 22.498 137.73 23.1887 137.73 24.15V28H136.19V20.202ZM152.617 28.532C152.523 28.392 152.453 28.252 152.407 28.112C152.36 27.9813 152.337 27.7993 152.337 27.566L152.155 27.51C151.912 27.7527 151.604 27.9253 151.231 28.028C150.913 28.1213 150.531 28.168 150.083 28.168C148.972 28.168 148.034 27.9207 147.269 27.426C146.513 26.922 145.948 26.2547 145.575 25.424C145.201 24.584 145.015 23.66 145.015 22.652C145.015 21.6347 145.201 20.7107 145.575 19.88C145.948 19.0493 146.513 18.3867 147.269 17.892C148.034 17.3973 148.972 17.15 150.083 17.15C151.193 17.15 152.127 17.3973 152.883 17.892C153.648 18.3867 154.217 19.0493 154.591 19.88C154.973 20.7107 155.165 21.6347 155.165 22.652C155.165 23.5293 155.02 24.346 154.731 25.102C154.451 25.8487 154.035 26.4693 153.485 26.964L154.913 29.218H153.079L152.617 28.532ZM150.083 26.698C151.156 26.698 151.987 26.334 152.575 25.606C153.172 24.8687 153.471 23.884 153.471 22.652C153.471 21.4293 153.172 20.454 152.575 19.726C151.987 18.998 151.156 18.634 150.083 18.634C149.019 18.634 148.188 18.998 147.591 19.726C147.003 20.454 146.709 21.4293 146.709 22.652C146.709 23.884 147.003 24.8687 147.591 25.606C148.188 26.334 149.019 26.698 150.083 26.698ZM156.85 28V17.318H163.878V18.802H158.502V21.91H163.276V23.38H158.502V26.516H163.878V28H156.85ZM169.906 21.476H168.674V20.202H169.906V19.376C169.906 18.704 170.084 18.1953 170.438 17.85C170.793 17.4953 171.311 17.318 171.992 17.318H173.084V18.592H172.356C172.058 18.592 171.834 18.6713 171.684 18.83C171.535 18.9887 171.46 19.2407 171.46 19.586C171.46 19.698 171.451 19.8007 171.432 19.894C171.423 19.978 171.386 20.0807 171.32 20.202L171.46 20.342C171.628 20.2487 171.834 20.202 172.076 20.202H173.084V21.476H171.46V28H169.906V21.476ZM177.631 28.154C176.875 28.154 176.198 27.9813 175.601 27.636C175.013 27.2907 174.551 26.81 174.215 26.194C173.888 25.5687 173.725 24.8593 173.725 24.066C173.725 23.2913 173.888 22.6007 174.215 21.994C174.551 21.3873 175.013 20.9113 175.601 20.566C176.198 20.2207 176.875 20.048 177.631 20.048C178.387 20.048 179.059 20.2207 179.647 20.566C180.244 20.9113 180.706 21.3873 181.033 21.994C181.369 22.6007 181.537 23.2913 181.537 24.066C181.537 24.85 181.374 25.5547 181.047 26.18C180.72 26.796 180.258 27.2813 179.661 27.636C179.073 27.9813 178.396 28.154 177.631 28.154ZM177.631 26.81C178.079 26.81 178.48 26.6933 178.835 26.46C179.19 26.2267 179.465 25.9 179.661 25.48C179.866 25.06 179.969 24.5887 179.969 24.066C179.969 23.562 179.866 23.1093 179.661 22.708C179.465 22.2973 179.19 21.9753 178.835 21.742C178.48 21.5087 178.079 21.392 177.631 21.392C177.183 21.392 176.782 21.5087 176.427 21.742C176.072 21.966 175.792 22.2833 175.587 22.694C175.391 23.0953 175.293 23.5527 175.293 24.066C175.293 24.598 175.391 25.074 175.587 25.494C175.792 25.9047 176.072 26.2267 176.427 26.46C176.782 26.6933 177.183 26.81 177.631 26.81ZM183.07 20.202H184.61V20.58C184.61 20.72 184.596 20.8367 184.568 20.93C184.54 21.014 184.494 21.1027 184.428 21.196L184.624 21.322C184.923 20.8647 185.254 20.538 185.618 20.342C185.992 20.146 186.449 20.048 186.99 20.048H187.144V21.56H186.724C186.099 21.56 185.614 21.7327 185.268 22.078C184.83 22.498 184.61 23.1887 184.61 24.15V28H183.07V20.202ZM188.348 20.202H189.888V20.58C189.888 20.72 189.874 20.8367 189.846 20.93C189.818 21.014 189.771 21.1027 189.706 21.196L189.902 21.322C190.219 20.8647 190.55 20.538 190.896 20.342C191.241 20.146 191.642 20.048 192.1 20.048C192.594 20.048 193.033 20.1647 193.416 20.398C193.808 20.622 194.046 20.9533 194.13 21.392H194.312C194.676 20.496 195.432 20.048 196.58 20.048C197.448 20.048 198.096 20.2953 198.526 20.79C198.955 21.2847 199.17 21.9893 199.17 22.904V28H197.63V23.156C197.63 22.5587 197.508 22.1107 197.266 21.812C197.023 21.504 196.678 21.35 196.23 21.35C195.772 21.35 195.404 21.4993 195.124 21.798C194.9 22.0407 194.741 22.3533 194.648 22.736C194.564 23.1093 194.522 23.59 194.522 24.178V28H192.996V23.156C192.996 22.5773 192.87 22.134 192.618 21.826C192.366 21.5087 192.016 21.35 191.568 21.35C191.12 21.35 190.756 21.5133 190.476 21.84C190.27 22.0547 190.121 22.3487 190.028 22.722C189.934 23.086 189.888 23.5713 189.888 24.178V28H188.348V20.202Z" fill="#101828"/>
</svg>
