<svg width="552" height="48" viewBox="0 0 552 48" fill="none" xmlns="http://www.w3.org/2000/svg">
<rect x="0.5" y="0.5" width="551" height="47" rx="11.5" fill="#FCFCFD"/>
<rect x="0.5" y="0.5" width="551" height="47" rx="11.5" stroke="#D0D5DD"/>
<path d="M21.8881 22.0684C21.2041 22.0684 20.6641 22.6684 20.6641 23.4004C20.6641 24.1324 21.2161 24.7324 21.8881 24.7324C22.5721 24.7324 23.1121 24.1324 23.1121 23.4004C23.1241 22.6684 22.5721 22.0684 21.8881 22.0684ZM26.2681 22.0684C25.5841 22.0684 25.0441 22.6684 25.0441 23.4004C25.0441 24.1324 25.5961 24.7324 26.2681 24.7324C26.9521 24.7324 27.4921 24.1324 27.4921 23.4004C27.4921 22.6684 26.9521 22.0684 26.2681 22.0684Z" fill="#98A2B3"/>
<path d="M32.1001 12H16.0201C14.6641 12 13.5601 13.104 13.5601 14.472V30.696C13.5601 32.064 14.6641 33.168 16.0201 33.168H29.6281L28.9921 30.948L30.5281 32.376L31.9801 33.72L34.5601 36V14.472C34.5601 13.104 33.4561 12 32.1001 12ZM27.4681 27.672C27.4681 27.672 27.0361 27.156 26.6761 26.7C28.2481 26.256 28.8481 25.272 28.8481 25.272C28.3561 25.596 27.8881 25.824 27.4681 25.98C26.8681 26.232 26.2921 26.4 25.7281 26.496C24.5761 26.712 23.5201 26.652 22.6201 26.484C21.9361 26.352 21.3481 26.16 20.8561 25.968C20.5801 25.86 20.2801 25.728 19.9801 25.56C19.9441 25.536 19.9081 25.524 19.8721 25.5C19.8481 25.488 19.8361 25.476 19.8241 25.464C19.6081 25.344 19.4881 25.26 19.4881 25.26C19.4881 25.26 20.0641 26.22 21.5881 26.676C21.2281 27.132 20.7841 27.672 20.7841 27.672C18.1321 27.588 17.1241 25.848 17.1241 25.848C17.1241 21.984 18.8521 18.852 18.8521 18.852C20.5801 17.556 22.2241 17.592 22.2241 17.592L22.3441 17.736C20.1841 18.36 19.1881 19.308 19.1881 19.308C19.1881 19.308 19.4521 19.164 19.8961 18.96C21.1801 18.396 22.2001 18.24 22.6201 18.204C22.6921 18.192 22.7521 18.18 22.8241 18.18C23.5561 18.084 24.3841 18.06 25.2481 18.156C26.3881 18.288 27.6121 18.624 28.8601 19.308C28.8601 19.308 27.9121 18.408 25.8721 17.784L26.0401 17.592C26.0401 17.592 27.6841 17.556 29.4121 18.852C29.4121 18.852 31.1401 21.984 31.1401 25.848C31.1401 25.848 30.1201 27.588 27.4681 27.672Z" fill="#98A2B3"/>
<path d="M45.806 29L46.478 25.822H44.672V24.758H46.716L47.192 22.378H45.302V21.272H47.43L48.088 18.318H49.278L48.62 21.328H50.846L51.476 18.318H52.666L51.994 21.328H53.828V22.378H51.77L51.252 24.758H53.184V25.822H51.028L50.356 29H49.18L49.866 25.822H47.626L46.982 29H45.806ZM47.892 24.758H50.104L50.58 22.378H48.368L47.892 24.758ZM62.7183 29.532C62.625 29.392 62.555 29.252 62.5083 29.112C62.4617 28.9813 62.4383 28.7993 62.4383 28.566L62.2563 28.51C62.0137 28.7527 61.7057 28.9253 61.3323 29.028C61.015 29.1213 60.6323 29.168 60.1843 29.168C59.0737 29.168 58.1357 28.9207 57.3703 28.426C56.6143 27.922 56.0497 27.2547 55.6763 26.424C55.303 25.584 55.1163 24.66 55.1163 23.652C55.1163 22.6347 55.303 21.7107 55.6763 20.88C56.0497 20.0493 56.6143 19.3867 57.3703 18.892C58.1357 18.3973 59.0737 18.15 60.1843 18.15C61.295 18.15 62.2283 18.3973 62.9843 18.892C63.7497 19.3867 64.319 20.0493 64.6923 20.88C65.075 21.7107 65.2663 22.6347 65.2663 23.652C65.2663 24.5293 65.1217 25.346 64.8323 26.102C64.5523 26.8487 64.137 27.4693 63.5863 27.964L65.0143 30.218H63.1803L62.7183 29.532ZM60.1843 27.698C61.2577 27.698 62.0883 27.334 62.6763 26.606C63.2737 25.8687 63.5723 24.884 63.5723 23.652C63.5723 22.4293 63.2737 21.454 62.6763 20.726C62.0883 19.998 61.2577 19.634 60.1843 19.634C59.1203 19.634 58.2897 19.998 57.6923 20.726C57.1043 21.454 56.8103 22.4293 56.8103 23.652C56.8103 24.884 57.1043 25.8687 57.6923 26.606C58.2897 27.334 59.1203 27.698 60.1843 27.698ZM66.8537 21.202H68.3937V21.58C68.3937 21.72 68.3797 21.8367 68.3517 21.93C68.3237 22.014 68.277 22.1027 68.2117 22.196L68.4077 22.322C68.725 21.8647 69.0564 21.538 69.4017 21.342C69.747 21.146 70.1484 21.048 70.6057 21.048C71.7724 21.048 72.561 21.468 72.9717 22.308C73.1304 22.616 73.2284 22.9333 73.2657 23.26C73.303 23.5773 73.3217 23.96 73.3217 24.408V29H71.7817V24.394C71.7817 23.6007 71.6464 23.05 71.3757 22.742C71.1237 22.4807 70.7597 22.35 70.2837 22.35C69.7144 22.35 69.2757 22.5273 68.9677 22.882C68.7624 23.106 68.613 23.4093 68.5197 23.792C68.4357 24.1747 68.3937 24.6927 68.3937 25.346V29H66.8537V21.202ZM74.3275 29L78.1775 18.318H80.0115L83.8615 29H82.1535L81.3275 26.592H76.8755L76.0495 29H74.3275ZM80.8235 25.136L79.4655 21.174C79.3815 20.9033 79.3162 20.6747 79.2695 20.488C79.2322 20.3013 79.2135 20.1147 79.2135 19.928H78.9895C78.9895 20.1147 78.9662 20.3013 78.9195 20.488C78.8822 20.6747 78.8215 20.9033 78.7375 21.174L77.3795 25.136H80.8235Z" fill="#101828"/>
</svg>
