<svg width="552" height="46" viewBox="0 0 552 46" fill="none" xmlns="http://www.w3.org/2000/svg">
<rect x="0.5" y="0.5" width="551" height="45" rx="11.5" fill="#FCFCFD"/>
<rect x="0.5" y="0.5" width="551" height="45" rx="11.5" stroke="#D0D5DD"/>
<path d="M13.022 28V17.318H14.674V28H13.022ZM19.8068 28.154C19.1254 28.154 18.5234 27.986 18.0008 27.65C17.4781 27.3047 17.0721 26.824 16.7828 26.208C16.5028 25.592 16.3628 24.892 16.3628 24.108C16.3628 23.3147 16.5028 22.61 16.7828 21.994C17.0721 21.378 17.4781 20.902 18.0008 20.566C18.5234 20.2207 19.1254 20.048 19.8068 20.048C20.3388 20.048 20.7821 20.146 21.1368 20.342C21.5008 20.538 21.8508 20.8647 22.1868 21.322L22.3828 21.196C22.2521 21.028 22.1868 20.8227 22.1868 20.58V17.318H23.7268V28H22.1868V27.622C22.1868 27.482 22.2008 27.37 22.2288 27.286C22.2568 27.1927 22.3081 27.0993 22.3828 27.006L22.1868 26.866C21.8508 27.3327 21.5008 27.664 21.1368 27.86C20.7821 28.056 20.3388 28.154 19.8068 28.154ZM20.0868 26.81C20.5161 26.81 20.8988 26.698 21.2348 26.474C21.5801 26.2407 21.8461 25.9187 22.0328 25.508C22.2288 25.0973 22.3268 24.6307 22.3268 24.108C22.3268 23.5853 22.2288 23.1187 22.0328 22.708C21.8461 22.288 21.5801 21.966 21.2348 21.742C20.8988 21.5087 20.5161 21.392 20.0868 21.392C19.4241 21.392 18.8921 21.6487 18.4908 22.162C18.0988 22.666 17.9028 23.3147 17.9028 24.108C17.9028 24.9013 18.0988 25.55 18.4908 26.054C18.8921 26.558 19.4241 26.81 20.0868 26.81ZM28.8257 28.154C28.0697 28.154 27.3977 27.9813 26.8097 27.636C26.2217 27.2813 25.7644 26.8007 25.4377 26.194C25.111 25.578 24.9477 24.892 24.9477 24.136C24.9477 23.4267 25.0924 22.7593 25.3817 22.134C25.6804 21.5087 26.119 21.0047 26.6977 20.622C27.2764 20.2393 27.9717 20.048 28.7837 20.048C29.4744 20.048 30.109 20.1973 30.6877 20.496C31.2757 20.7947 31.747 21.2427 32.1017 21.84C32.4564 22.428 32.6337 23.1467 32.6337 23.996V24.416H27.3697C26.9124 24.416 26.5857 24.402 26.3897 24.374L26.3337 24.598C26.4177 24.6167 26.4737 24.654 26.5017 24.71C26.539 24.7567 26.5764 24.8313 26.6137 24.934C26.6324 25.0087 26.6744 25.116 26.7397 25.256C26.9264 25.732 27.2064 26.11 27.5797 26.39C27.953 26.67 28.3777 26.81 28.8537 26.81C29.3484 26.81 29.773 26.684 30.1277 26.432C30.4824 26.1707 30.739 25.8393 30.8977 25.438H32.5077C32.2464 26.2407 31.803 26.894 31.1777 27.398C30.5617 27.902 29.7777 28.154 28.8257 28.154ZM26.5857 23.408C26.7164 23.324 26.8377 23.2633 26.9497 23.226C27.0617 23.1887 27.1877 23.17 27.3277 23.17H30.2817C30.4404 23.17 30.5757 23.1887 30.6877 23.226C30.809 23.2633 30.9397 23.324 31.0797 23.408L31.2197 23.226C31.1357 23.17 31.0797 23.1233 31.0517 23.086C31.0237 23.0393 31.0004 22.9787 30.9817 22.904C30.963 22.7733 30.9024 22.6147 30.7997 22.428C30.613 22.0733 30.3424 21.8027 29.9877 21.616C29.6424 21.42 29.2597 21.322 28.8397 21.322C28.401 21.322 28.0137 21.42 27.6777 21.616C27.3417 21.8027 27.0757 22.0733 26.8797 22.428C26.7957 22.568 26.7304 22.7267 26.6837 22.904C26.665 22.9787 26.6417 23.0393 26.6137 23.086C26.595 23.1327 26.5437 23.1793 26.4597 23.226L26.5857 23.408ZM34.1564 20.202H35.6964V20.58C35.6964 20.72 35.6824 20.8367 35.6544 20.93C35.6264 21.014 35.5798 21.1027 35.5144 21.196L35.7104 21.322C36.0278 20.8647 36.3591 20.538 36.7044 20.342C37.0498 20.146 37.4511 20.048 37.9084 20.048C39.0751 20.048 39.8638 20.468 40.2744 21.308C40.4331 21.616 40.5311 21.9333 40.5684 22.26C40.6058 22.5773 40.6244 22.96 40.6244 23.408V28H39.0844V23.394C39.0844 22.6007 38.9491 22.05 38.6784 21.742C38.4264 21.4807 38.0624 21.35 37.5864 21.35C37.0171 21.35 36.5784 21.5273 36.2704 21.882C36.0651 22.106 35.9158 22.4093 35.8224 22.792C35.7384 23.1747 35.6964 23.6927 35.6964 24.346V28H34.1564V20.202ZM44.7005 28C44.0938 28 43.6365 27.86 43.3285 27.58C43.0205 27.3 42.8665 26.8287 42.8665 26.166V21.49H41.6625V20.202H42.8665V17.318H44.4065V20.202H46.0305V21.49H44.4065V25.76C44.4065 26.0867 44.4532 26.3247 44.5465 26.474C44.6398 26.6233 44.8545 26.698 45.1905 26.698H46.0165V28H44.7005ZM47.4455 28V20.202H48.9855V28H47.4455ZM48.2155 19.11C47.9355 19.11 47.6928 19.0167 47.4875 18.83C47.2822 18.6433 47.1795 18.41 47.1795 18.13C47.1795 17.85 47.2822 17.6167 47.4875 17.43C47.6928 17.2433 47.9355 17.15 48.2155 17.15C48.5048 17.15 48.7475 17.2433 48.9435 17.43C49.1488 17.6167 49.2515 17.85 49.2515 18.13C49.2515 18.41 49.1488 18.6433 48.9435 18.83C48.7475 19.0167 48.5048 19.11 48.2155 19.11ZM51.4941 21.476H50.2621V20.202H51.4941V19.376C51.4941 18.704 51.6714 18.1953 52.0261 17.85C52.3808 17.4953 52.8988 17.318 53.5801 17.318H54.6721V18.592H53.9441C53.6454 18.592 53.4214 18.6713 53.2721 18.83C53.1228 18.9887 53.0481 19.2407 53.0481 19.586C53.0481 19.698 53.0388 19.8007 53.0201 19.894C53.0108 19.978 52.9734 20.0807 52.9081 20.202L53.0481 20.342C53.2161 20.2487 53.4214 20.202 53.6641 20.202H54.6721V21.476H53.0481V28H51.4941V21.476ZM55.8901 28V20.202H57.4301V28H55.8901ZM56.6601 19.11C56.3801 19.11 56.1374 19.0167 55.9321 18.83C55.7268 18.6433 55.6241 18.41 55.6241 18.13C55.6241 17.85 55.7268 17.6167 55.9321 17.43C56.1374 17.2433 56.3801 17.15 56.6601 17.15C56.9494 17.15 57.1921 17.2433 57.3881 17.43C57.5934 17.6167 57.6961 17.85 57.6961 18.13C57.6961 18.41 57.5934 18.6433 57.3881 18.83C57.1921 19.0167 56.9494 19.11 56.6601 19.11ZM62.7453 28.154C61.9893 28.154 61.3173 27.9813 60.7293 27.636C60.1506 27.2907 59.698 26.81 59.3713 26.194C59.0446 25.5687 58.8813 24.8593 58.8813 24.066C58.8813 23.2913 59.0446 22.6007 59.3713 21.994C59.698 21.3873 60.1506 20.9113 60.7293 20.566C61.3173 20.2207 61.9893 20.048 62.7453 20.048C63.6506 20.048 64.416 20.2813 65.0413 20.748C65.676 21.2147 66.0866 21.84 66.2733 22.624H64.6213C64.4813 22.2227 64.248 21.91 63.9213 21.686C63.5946 21.462 63.2026 21.35 62.7453 21.35C62.2973 21.35 61.9006 21.4667 61.5553 21.7C61.21 21.924 60.9393 22.2413 60.7433 22.652C60.5473 23.0627 60.4493 23.534 60.4493 24.066C60.4493 24.6167 60.5473 25.102 60.7433 25.522C60.9393 25.942 61.21 26.2687 61.5553 26.502C61.9006 26.7353 62.2973 26.852 62.7453 26.852C63.2306 26.852 63.6413 26.726 63.9773 26.474C64.3226 26.2127 64.5513 25.8673 64.6633 25.438H66.3293C66.152 26.278 65.7366 26.9407 65.0833 27.426C64.4393 27.9113 63.66 28.154 62.7453 28.154ZM69.9879 28.154C69.2226 28.154 68.6066 27.9533 68.1399 27.552C67.6732 27.1413 67.4399 26.586 67.4399 25.886C67.4399 25.1673 67.7199 24.6027 68.2799 24.192C68.6999 23.884 69.3019 23.6553 70.0859 23.506L72.6339 23.016C72.6339 22.4933 72.4892 22.078 72.1999 21.77C71.8919 21.462 71.4812 21.308 70.9679 21.308C70.5479 21.308 70.1792 21.4293 69.8619 21.672C69.5539 21.9053 69.3579 22.2227 69.2739 22.624H67.7479C67.8786 21.8027 68.2472 21.168 68.8539 20.72C69.4606 20.272 70.1699 20.048 70.9819 20.048C71.4392 20.048 71.8686 20.118 72.2699 20.258C72.6806 20.3887 73.0259 20.5847 73.3059 20.846C73.6792 21.1913 73.9126 21.5973 74.0059 22.064C74.1086 22.5307 74.1599 23.0673 74.1599 23.674V28H72.6199V27.706C72.6199 27.51 72.6759 27.2533 72.7879 26.936L72.5919 26.838C72.3866 27.1927 72.1206 27.482 71.7939 27.706C71.3646 28.0047 70.7626 28.154 69.9879 28.154ZM70.2959 26.88C70.7066 26.88 71.0799 26.796 71.4159 26.628C71.7986 26.4413 72.0832 26.1847 72.2699 25.858C72.3726 25.6807 72.4472 25.5173 72.4939 25.368C72.5406 25.2093 72.5919 24.9993 72.6479 24.738C72.6759 24.6167 72.7132 24.528 72.7599 24.472C72.8066 24.4067 72.8719 24.3693 72.9559 24.36L72.9139 24.136L71.2899 24.472L70.4499 24.626C69.9086 24.738 69.5166 24.906 69.2739 25.13C69.0779 25.326 68.9799 25.564 68.9799 25.844C68.9799 26.1707 69.0966 26.4273 69.3299 26.614C69.5726 26.7913 69.8946 26.88 70.2959 26.88ZM78.4017 28C77.795 28 77.3377 27.86 77.0297 27.58C76.7217 27.3 76.5677 26.8287 76.5677 26.166V21.49H75.3637V20.202H76.5677V17.318H78.1077V20.202H79.7317V21.49H78.1077V25.76C78.1077 26.0867 78.1543 26.3247 78.2477 26.474C78.341 26.6233 78.5557 26.698 78.8917 26.698H79.7177V28H78.4017ZM81.1467 28V20.202H82.6867V28H81.1467ZM81.9167 19.11C81.6367 19.11 81.394 19.0167 81.1887 18.83C80.9833 18.6433 80.8807 18.41 80.8807 18.13C80.8807 17.85 80.9833 17.6167 81.1887 17.43C81.394 17.2433 81.6367 17.15 81.9167 17.15C82.206 17.15 82.4487 17.2433 82.6447 17.43C82.85 17.6167 82.9527 17.85 82.9527 18.13C82.9527 18.41 82.85 18.6433 82.6447 18.83C82.4487 19.0167 82.206 19.11 81.9167 19.11ZM88.1213 28.154C87.3653 28.154 86.6886 27.9813 86.0913 27.636C85.5033 27.2907 85.0413 26.81 84.7053 26.194C84.3786 25.5687 84.2153 24.8593 84.2153 24.066C84.2153 23.2913 84.3786 22.6007 84.7053 21.994C85.0413 21.3873 85.5033 20.9113 86.0913 20.566C86.6886 20.2207 87.3653 20.048 88.1213 20.048C88.8773 20.048 89.5493 20.2207 90.1373 20.566C90.7346 20.9113 91.1966 21.3873 91.5233 21.994C91.8593 22.6007 92.0273 23.2913 92.0273 24.066C92.0273 24.85 91.8639 25.5547 91.5373 26.18C91.2106 26.796 90.7486 27.2813 90.1513 27.636C89.5633 27.9813 88.8866 28.154 88.1213 28.154ZM88.1213 26.81C88.5693 26.81 88.9706 26.6933 89.3253 26.46C89.6799 26.2267 89.9553 25.9 90.1513 25.48C90.3566 25.06 90.4593 24.5887 90.4593 24.066C90.4593 23.562 90.3566 23.1093 90.1513 22.708C89.9553 22.2973 89.6799 21.9753 89.3253 21.742C88.9706 21.5087 88.5693 21.392 88.1213 21.392C87.6733 21.392 87.2719 21.5087 86.9173 21.742C86.5626 21.966 86.2826 22.2833 86.0773 22.694C85.8813 23.0953 85.7833 23.5527 85.7833 24.066C85.7833 24.598 85.8813 25.074 86.0773 25.494C86.2826 25.9047 86.5626 26.2267 86.9173 26.46C87.2719 26.6933 87.6733 26.81 88.1213 26.81ZM93.5607 20.202H95.1007V20.58C95.1007 20.72 95.0867 20.8367 95.0587 20.93C95.0307 21.014 94.9841 21.1027 94.9187 21.196L95.1147 21.322C95.4321 20.8647 95.7634 20.538 96.1087 20.342C96.4541 20.146 96.8554 20.048 97.3127 20.048C98.4794 20.048 99.2681 20.468 99.6787 21.308C99.8374 21.616 99.9354 21.9333 99.9727 22.26C100.01 22.5773 100.029 22.96 100.029 23.408V28H98.4887V23.394C98.4887 22.6007 98.3534 22.05 98.0827 21.742C97.8307 21.4807 97.4667 21.35 96.9907 21.35C96.4214 21.35 95.9827 21.5273 95.6747 21.882C95.4694 22.106 95.3201 22.4093 95.2267 22.792C95.1427 23.1747 95.1007 23.6927 95.1007 24.346V28H93.5607V20.202ZM107.886 28.154C107.121 28.154 106.505 27.9533 106.038 27.552C105.572 27.1413 105.338 26.586 105.338 25.886C105.338 25.1673 105.618 24.6027 106.178 24.192C106.598 23.884 107.2 23.6553 107.984 23.506L110.532 23.016C110.532 22.4933 110.388 22.078 110.098 21.77C109.79 21.462 109.38 21.308 108.866 21.308C108.446 21.308 108.078 21.4293 107.76 21.672C107.452 21.9053 107.256 22.2227 107.172 22.624H105.646C105.777 21.8027 106.146 21.168 106.752 20.72C107.359 20.272 108.068 20.048 108.88 20.048C109.338 20.048 109.767 20.118 110.168 20.258C110.579 20.3887 110.924 20.5847 111.204 20.846C111.578 21.1913 111.811 21.5973 111.904 22.064C112.007 22.5307 112.058 23.0673 112.058 23.674V28H110.518V27.706C110.518 27.51 110.574 27.2533 110.686 26.936L110.49 26.838C110.285 27.1927 110.019 27.482 109.692 27.706C109.263 28.0047 108.661 28.154 107.886 28.154ZM108.194 26.88C108.605 26.88 108.978 26.796 109.314 26.628C109.697 26.4413 109.982 26.1847 110.168 25.858C110.271 25.6807 110.346 25.5173 110.392 25.368C110.439 25.2093 110.49 24.9993 110.546 24.738C110.574 24.6167 110.612 24.528 110.658 24.472C110.705 24.4067 110.77 24.3693 110.854 24.36L110.812 24.136L109.188 24.472L108.348 24.626C107.807 24.738 107.415 24.906 107.172 25.13C106.976 25.326 106.878 25.564 106.878 25.844C106.878 26.1707 106.995 26.4273 107.228 26.614C107.471 26.7913 107.793 26.88 108.194 26.88ZM113.836 20.202H115.376V20.58C115.376 20.72 115.362 20.8367 115.334 20.93C115.306 21.014 115.259 21.1027 115.194 21.196L115.39 21.322C115.707 20.8647 116.039 20.538 116.384 20.342C116.729 20.146 117.131 20.048 117.588 20.048C118.755 20.048 119.543 20.468 119.954 21.308C120.113 21.616 120.211 21.9333 120.248 22.26C120.285 22.5773 120.304 22.96 120.304 23.408V28H118.764V23.394C118.764 22.6007 118.629 22.05 118.358 21.742C118.106 21.4807 117.742 21.35 117.266 21.35C116.697 21.35 116.258 21.5273 115.95 21.882C115.745 22.106 115.595 22.4093 115.502 22.792C115.418 23.1747 115.376 23.6927 115.376 24.346V28H113.836V20.202ZM125.258 28.154C124.577 28.154 123.975 27.986 123.452 27.65C122.929 27.3047 122.523 26.824 122.234 26.208C121.954 25.592 121.814 24.892 121.814 24.108C121.814 23.3147 121.954 22.61 122.234 21.994C122.523 21.378 122.929 20.902 123.452 20.566C123.975 20.2207 124.577 20.048 125.258 20.048C125.79 20.048 126.233 20.146 126.588 20.342C126.952 20.538 127.302 20.8647 127.638 21.322L127.834 21.196C127.703 21.028 127.638 20.8227 127.638 20.58V17.318H129.178V28H127.638V27.622C127.638 27.482 127.652 27.37 127.68 27.286C127.708 27.1927 127.759 27.0993 127.834 27.006L127.638 26.866C127.302 27.3327 126.952 27.664 126.588 27.86C126.233 28.056 125.79 28.154 125.258 28.154ZM125.538 26.81C125.967 26.81 126.35 26.698 126.686 26.474C127.031 26.2407 127.297 25.9187 127.484 25.508C127.68 25.0973 127.778 24.6307 127.778 24.108C127.778 23.5853 127.68 23.1187 127.484 22.708C127.297 22.288 127.031 21.966 126.686 21.742C126.35 21.5087 125.967 21.392 125.538 21.392C124.875 21.392 124.343 21.6487 123.942 22.162C123.55 22.666 123.354 23.3147 123.354 24.108C123.354 24.9013 123.55 25.55 123.942 26.054C124.343 26.558 124.875 26.81 125.538 26.81ZM134.975 17.318H138.013C139.796 17.318 141.163 17.7847 142.115 18.718C143.067 19.642 143.543 20.9627 143.543 22.68C143.543 24.388 143.062 25.704 142.101 26.628C141.149 27.5427 139.782 28 137.999 28H134.975V17.318ZM137.985 26.516C139.198 26.516 140.15 26.2313 140.841 25.662C141.541 25.0833 141.891 24.0893 141.891 22.68C141.891 21.336 141.546 20.356 140.855 19.74C140.164 19.1147 139.208 18.802 137.985 18.802H136.627V26.516H137.985ZM148.66 28.154C147.904 28.154 147.232 27.9813 146.644 27.636C146.056 27.2813 145.598 26.8007 145.272 26.194C144.945 25.578 144.782 24.892 144.782 24.136C144.782 23.4267 144.926 22.7593 145.216 22.134C145.514 21.5087 145.953 21.0047 146.532 20.622C147.11 20.2393 147.806 20.048 148.618 20.048C149.308 20.048 149.943 20.1973 150.522 20.496C151.11 20.7947 151.581 21.2427 151.936 21.84C152.29 22.428 152.468 23.1467 152.468 23.996V24.416H147.204C146.746 24.416 146.42 24.402 146.224 24.374L146.168 24.598C146.252 24.6167 146.308 24.654 146.336 24.71C146.373 24.7567 146.41 24.8313 146.448 24.934C146.466 25.0087 146.508 25.116 146.574 25.256C146.76 25.732 147.04 26.11 147.414 26.39C147.787 26.67 148.212 26.81 148.688 26.81C149.182 26.81 149.607 26.684 149.962 26.432C150.316 26.1707 150.573 25.8393 150.732 25.438H152.342C152.08 26.2407 151.637 26.894 151.012 27.398C150.396 27.902 149.612 28.154 148.66 28.154ZM146.42 23.408C146.55 23.324 146.672 23.2633 146.784 23.226C146.896 23.1887 147.022 23.17 147.162 23.17H150.116C150.274 23.17 150.41 23.1887 150.522 23.226C150.643 23.2633 150.774 23.324 150.914 23.408L151.054 23.226C150.97 23.17 150.914 23.1233 150.886 23.086C150.858 23.0393 150.834 22.9787 150.816 22.904C150.797 22.7733 150.736 22.6147 150.634 22.428C150.447 22.0733 150.176 21.8027 149.822 21.616C149.476 21.42 149.094 21.322 148.674 21.322C148.235 21.322 147.848 21.42 147.512 21.616C147.176 21.8027 146.91 22.0733 146.714 22.428C146.63 22.568 146.564 22.7267 146.518 22.904C146.499 22.9787 146.476 23.0393 146.448 23.086C146.429 23.1327 146.378 23.1793 146.294 23.226L146.42 23.408ZM153.126 20.202H154.792L156.248 24.458C156.323 24.6727 156.379 24.8827 156.416 25.088C156.454 25.2933 156.482 25.466 156.5 25.606C156.519 25.746 156.533 25.858 156.542 25.942H156.71C156.72 25.886 156.734 25.76 156.752 25.564C156.771 25.3587 156.799 25.1673 156.836 24.99C156.874 24.8127 156.925 24.6353 156.99 24.458L158.474 20.202H160.14L157.242 28H155.996L153.126 20.202ZM164.683 28.154C163.927 28.154 163.255 27.9813 162.667 27.636C162.079 27.2813 161.622 26.8007 161.295 26.194C160.968 25.578 160.805 24.892 160.805 24.136C160.805 23.4267 160.95 22.7593 161.239 22.134C161.538 21.5087 161.976 21.0047 162.555 20.622C163.134 20.2393 163.829 20.048 164.641 20.048C165.332 20.048 165.966 20.1973 166.545 20.496C167.133 20.7947 167.604 21.2427 167.959 21.84C168.314 22.428 168.491 23.1467 168.491 23.996V24.416H163.227C162.77 24.416 162.443 24.402 162.247 24.374L162.191 24.598C162.275 24.6167 162.331 24.654 162.359 24.71C162.396 24.7567 162.434 24.8313 162.471 24.934C162.49 25.0087 162.532 25.116 162.597 25.256C162.784 25.732 163.064 26.11 163.437 26.39C163.81 26.67 164.235 26.81 164.711 26.81C165.206 26.81 165.63 26.684 165.985 26.432C166.34 26.1707 166.596 25.8393 166.755 25.438H168.365C168.104 26.2407 167.66 26.894 167.035 27.398C166.419 27.902 165.635 28.154 164.683 28.154ZM162.443 23.408C162.574 23.324 162.695 23.2633 162.807 23.226C162.919 23.1887 163.045 23.17 163.185 23.17H166.139C166.298 23.17 166.433 23.1887 166.545 23.226C166.666 23.2633 166.797 23.324 166.937 23.408L167.077 23.226C166.993 23.17 166.937 23.1233 166.909 23.086C166.881 23.0393 166.858 22.9787 166.839 22.904C166.82 22.7733 166.76 22.6147 166.657 22.428C166.47 22.0733 166.2 21.8027 165.845 21.616C165.5 21.42 165.117 21.322 164.697 21.322C164.258 21.322 163.871 21.42 163.535 21.616C163.199 21.8027 162.933 22.0733 162.737 22.428C162.653 22.568 162.588 22.7267 162.541 22.904C162.522 22.9787 162.499 23.0393 162.471 23.086C162.452 23.1327 162.401 23.1793 162.317 23.226L162.443 23.408ZM171.82 28C171.213 28 170.756 27.86 170.448 27.58C170.14 27.3 169.986 26.8287 169.986 26.166V17.318H171.526V25.788C171.526 26.1147 171.577 26.348 171.68 26.488C171.783 26.628 171.993 26.698 172.31 26.698H172.744V28H171.82ZM177.33 28.154C176.574 28.154 175.898 27.9813 175.3 27.636C174.712 27.2907 174.25 26.81 173.914 26.194C173.588 25.5687 173.424 24.8593 173.424 24.066C173.424 23.2913 173.588 22.6007 173.914 21.994C174.25 21.3873 174.712 20.9113 175.3 20.566C175.898 20.2207 176.574 20.048 177.33 20.048C178.086 20.048 178.758 20.2207 179.346 20.566C179.944 20.9113 180.406 21.3873 180.732 21.994C181.068 22.6007 181.236 23.2913 181.236 24.066C181.236 24.85 181.073 25.5547 180.746 26.18C180.42 26.796 179.958 27.2813 179.36 27.636C178.772 27.9813 178.096 28.154 177.33 28.154ZM177.33 26.81C177.778 26.81 178.18 26.6933 178.534 26.46C178.889 26.2267 179.164 25.9 179.36 25.48C179.566 25.06 179.668 24.5887 179.668 24.066C179.668 23.562 179.566 23.1093 179.36 22.708C179.164 22.2973 178.889 21.9753 178.534 21.742C178.18 21.5087 177.778 21.392 177.33 21.392C176.882 21.392 176.481 21.5087 176.126 21.742C175.772 21.966 175.492 22.2833 175.286 22.694C175.09 23.0953 174.992 23.5527 174.992 24.066C174.992 24.598 175.09 25.074 175.286 25.494C175.492 25.9047 175.772 26.2267 176.126 26.46C176.481 26.6933 176.882 26.81 177.33 26.81ZM186.704 20.048C187.385 20.048 187.987 20.2207 188.51 20.566C189.032 20.902 189.434 21.378 189.714 21.994C190.003 22.61 190.148 23.31 190.148 24.094C190.148 24.8873 190.003 25.592 189.714 26.208C189.434 26.824 189.032 27.3047 188.51 27.65C187.987 27.986 187.385 28.154 186.704 28.154C186.172 28.154 185.724 28.056 185.36 27.86C185.005 27.664 184.66 27.3327 184.324 26.866L184.128 27.006C184.202 27.09 184.254 27.1787 184.282 27.272C184.31 27.3653 184.324 27.482 184.324 27.622V30.884H182.784V20.202H184.324V20.58C184.324 20.72 184.31 20.8367 184.282 20.93C184.254 21.014 184.202 21.1027 184.128 21.196L184.324 21.336C184.66 20.8693 185.005 20.538 185.36 20.342C185.724 20.146 186.172 20.048 186.704 20.048ZM186.424 21.392C185.994 21.392 185.607 21.5087 185.262 21.742C184.926 21.966 184.66 22.2833 184.464 22.694C184.277 23.1047 184.184 23.5713 184.184 24.094C184.184 24.6167 184.277 25.088 184.464 25.508C184.66 25.9187 184.926 26.2407 185.262 26.474C185.607 26.698 185.994 26.81 186.424 26.81C187.086 26.81 187.614 26.558 188.006 26.054C188.407 25.5407 188.608 24.8873 188.608 24.094C188.608 23.3007 188.407 22.652 188.006 22.148C187.614 21.644 187.086 21.392 186.424 21.392ZM191.711 20.202H193.251V20.58C193.251 20.72 193.237 20.8367 193.209 20.93C193.181 21.014 193.134 21.1027 193.069 21.196L193.265 21.322C193.582 20.8647 193.914 20.538 194.259 20.342C194.604 20.146 195.006 20.048 195.463 20.048C195.958 20.048 196.396 20.1647 196.779 20.398C197.171 20.622 197.409 20.9533 197.493 21.392H197.675C198.039 20.496 198.795 20.048 199.943 20.048C200.811 20.048 201.46 20.2953 201.889 20.79C202.318 21.2847 202.533 21.9893 202.533 22.904V28H200.993V23.156C200.993 22.5587 200.872 22.1107 200.629 21.812C200.386 21.504 200.041 21.35 199.593 21.35C199.136 21.35 198.767 21.4993 198.487 21.798C198.263 22.0407 198.104 22.3533 198.011 22.736C197.927 23.1093 197.885 23.59 197.885 24.178V28H196.359V23.156C196.359 22.5773 196.233 22.134 195.981 21.826C195.729 21.5087 195.379 21.35 194.931 21.35C194.483 21.35 194.119 21.5133 193.839 21.84C193.634 22.0547 193.484 22.3487 193.391 22.722C193.298 23.086 193.251 23.5713 193.251 24.178V28H191.711V20.202ZM207.886 28.154C207.13 28.154 206.458 27.9813 205.87 27.636C205.282 27.2813 204.825 26.8007 204.498 26.194C204.172 25.578 204.008 24.892 204.008 24.136C204.008 23.4267 204.153 22.7593 204.442 22.134C204.741 21.5087 205.18 21.0047 205.758 20.622C206.337 20.2393 207.032 20.048 207.844 20.048C208.535 20.048 209.17 20.1973 209.748 20.496C210.336 20.7947 210.808 21.2427 211.162 21.84C211.517 22.428 211.694 23.1467 211.694 23.996V24.416H206.43C205.973 24.416 205.646 24.402 205.45 24.374L205.394 24.598C205.478 24.6167 205.534 24.654 205.562 24.71C205.6 24.7567 205.637 24.8313 205.674 24.934C205.693 25.0087 205.735 25.116 205.8 25.256C205.987 25.732 206.267 26.11 206.64 26.39C207.014 26.67 207.438 26.81 207.914 26.81C208.409 26.81 208.834 26.684 209.188 26.432C209.543 26.1707 209.8 25.8393 209.958 25.438H211.568C211.307 26.2407 210.864 26.894 210.238 27.398C209.622 27.902 208.838 28.154 207.886 28.154ZM205.646 23.408C205.777 23.324 205.898 23.2633 206.01 23.226C206.122 23.1887 206.248 23.17 206.388 23.17H209.342C209.501 23.17 209.636 23.1887 209.748 23.226C209.87 23.2633 210 23.324 210.14 23.408L210.28 23.226C210.196 23.17 210.14 23.1233 210.112 23.086C210.084 23.0393 210.061 22.9787 210.042 22.904C210.024 22.7733 209.963 22.6147 209.86 22.428C209.674 22.0733 209.403 21.8027 209.048 21.616C208.703 21.42 208.32 21.322 207.9 21.322C207.462 21.322 207.074 21.42 206.738 21.616C206.402 21.8027 206.136 22.0733 205.94 22.428C205.856 22.568 205.791 22.7267 205.744 22.904C205.726 22.9787 205.702 23.0393 205.674 23.086C205.656 23.1327 205.604 23.1793 205.52 23.226L205.646 23.408ZM213.217 20.202H214.757V20.58C214.757 20.72 214.743 20.8367 214.715 20.93C214.687 21.014 214.64 21.1027 214.575 21.196L214.771 21.322C215.088 20.8647 215.42 20.538 215.765 20.342C216.11 20.146 216.512 20.048 216.969 20.048C218.136 20.048 218.924 20.468 219.335 21.308C219.494 21.616 219.592 21.9333 219.629 22.26C219.666 22.5773 219.685 22.96 219.685 23.408V28H218.145V23.394C218.145 22.6007 218.01 22.05 217.739 21.742C217.487 21.4807 217.123 21.35 216.647 21.35C216.078 21.35 215.639 21.5273 215.331 21.882C215.126 22.106 214.976 22.4093 214.883 22.792C214.799 23.1747 214.757 23.6927 214.757 24.346V28H213.217V20.202ZM223.761 28C223.154 28 222.697 27.86 222.389 27.58C222.081 27.3 221.927 26.8287 221.927 26.166V21.49H220.723V20.202H221.927V17.318H223.467V20.202H225.091V21.49H223.467V25.76C223.467 26.0867 223.514 26.3247 223.607 26.474C223.7 26.6233 223.915 26.698 224.251 26.698H225.077V28H223.761ZM233.932 28.154C233.176 28.154 232.499 27.9813 231.902 27.636C231.314 27.2907 230.852 26.81 230.516 26.194C230.189 25.5687 230.026 24.8593 230.026 24.066C230.026 23.2913 230.189 22.6007 230.516 21.994C230.852 21.3873 231.314 20.9113 231.902 20.566C232.499 20.2207 233.176 20.048 233.932 20.048C234.688 20.048 235.36 20.2207 235.948 20.566C236.545 20.9113 237.007 21.3873 237.334 21.994C237.67 22.6007 237.838 23.2913 237.838 24.066C237.838 24.85 237.674 25.5547 237.348 26.18C237.021 26.796 236.559 27.2813 235.962 27.636C235.374 27.9813 234.697 28.154 233.932 28.154ZM233.932 26.81C234.38 26.81 234.781 26.6933 235.136 26.46C235.49 26.2267 235.766 25.9 235.962 25.48C236.167 25.06 236.27 24.5887 236.27 24.066C236.27 23.562 236.167 23.1093 235.962 22.708C235.766 22.2973 235.49 21.9753 235.136 21.742C234.781 21.5087 234.38 21.392 233.932 21.392C233.484 21.392 233.082 21.5087 232.728 21.742C232.373 21.966 232.093 22.2833 231.888 22.694C231.692 23.0953 231.594 23.5527 231.594 24.066C231.594 24.598 231.692 25.074 231.888 25.494C232.093 25.9047 232.373 26.2267 232.728 26.46C233.082 26.6933 233.484 26.81 233.932 26.81ZM239.893 21.476H238.661V20.202H239.893V19.376C239.893 18.704 240.07 18.1953 240.425 17.85C240.779 17.4953 241.297 17.318 241.979 17.318H243.071V18.592H242.343C242.044 18.592 241.82 18.6713 241.671 18.83C241.521 18.9887 241.447 19.2407 241.447 19.586C241.447 19.698 241.437 19.8007 241.419 19.894C241.409 19.978 241.372 20.0807 241.307 20.202L241.447 20.342C241.615 20.2487 241.82 20.202 242.063 20.202H243.071V21.476H241.447V28H239.893V21.476ZM248.233 17.318H250.319L254.197 24.542C254.318 24.766 254.421 24.9713 254.505 25.158C254.589 25.3447 254.673 25.592 254.757 25.9L254.981 25.858C254.934 25.466 254.911 25.032 254.911 24.556V17.318H256.549V28H254.477L250.571 20.748C250.45 20.5053 250.352 20.3 250.277 20.132C250.202 19.9547 250.123 19.7167 250.039 19.418L249.815 19.474C249.862 19.866 249.885 20.3 249.885 20.776V28H248.233V17.318ZM262.068 28.154C261.312 28.154 260.64 27.9813 260.052 27.636C259.464 27.2813 259.007 26.8007 258.68 26.194C258.353 25.578 258.19 24.892 258.19 24.136C258.19 23.4267 258.335 22.7593 258.624 22.134C258.923 21.5087 259.361 21.0047 259.94 20.622C260.519 20.2393 261.214 20.048 262.026 20.048C262.717 20.048 263.351 20.1973 263.93 20.496C264.518 20.7947 264.989 21.2427 265.344 21.84C265.699 22.428 265.876 23.1467 265.876 23.996V24.416H260.612C260.155 24.416 259.828 24.402 259.632 24.374L259.576 24.598C259.66 24.6167 259.716 24.654 259.744 24.71C259.781 24.7567 259.819 24.8313 259.856 24.934C259.875 25.0087 259.917 25.116 259.982 25.256C260.169 25.732 260.449 26.11 260.822 26.39C261.195 26.67 261.62 26.81 262.096 26.81C262.591 26.81 263.015 26.684 263.37 26.432C263.725 26.1707 263.981 25.8393 264.14 25.438H265.75C265.489 26.2407 265.045 26.894 264.42 27.398C263.804 27.902 263.02 28.154 262.068 28.154ZM259.828 23.408C259.959 23.324 260.08 23.2633 260.192 23.226C260.304 23.1887 260.43 23.17 260.57 23.17H263.524C263.683 23.17 263.818 23.1887 263.93 23.226C264.051 23.2633 264.182 23.324 264.322 23.408L264.462 23.226C264.378 23.17 264.322 23.1233 264.294 23.086C264.266 23.0393 264.243 22.9787 264.224 22.904C264.205 22.7733 264.145 22.6147 264.042 22.428C263.855 22.0733 263.585 21.8027 263.23 21.616C262.885 21.42 262.502 21.322 262.082 21.322C261.643 21.322 261.256 21.42 260.92 21.616C260.584 21.8027 260.318 22.0733 260.122 22.428C260.038 22.568 259.973 22.7267 259.926 22.904C259.907 22.9787 259.884 23.0393 259.856 23.086C259.837 23.1327 259.786 23.1793 259.702 23.226L259.828 23.408ZM266.755 20.202H268.407L269.653 24.808C269.699 24.9947 269.732 25.1813 269.751 25.368C269.779 25.5547 269.797 25.7553 269.807 25.97H269.975C269.993 25.6807 270.012 25.4613 270.031 25.312C270.049 25.1627 270.087 24.9947 270.143 24.808L271.613 20.202H272.971L274.427 24.808C274.483 25.004 274.52 25.186 274.539 25.354C274.567 25.5127 274.585 25.718 274.595 25.97H274.777C274.786 25.7087 274.795 25.4987 274.805 25.34C274.823 25.1813 274.861 25.004 274.917 24.808L276.191 20.202H277.843L275.463 28H274.021L272.565 23.24C272.499 23.0253 272.457 22.848 272.439 22.708C272.42 22.5587 272.401 22.3533 272.383 22.092H272.215C272.196 22.3347 272.173 22.5353 272.145 22.694C272.126 22.8433 272.084 23.0253 272.019 23.24L270.535 28H269.093L266.755 20.202ZM282.987 28V17.318H284.639V28H282.987ZM289.772 28.154C289.09 28.154 288.488 27.986 287.966 27.65C287.443 27.3047 287.037 26.824 286.748 26.208C286.468 25.592 286.328 24.892 286.328 24.108C286.328 23.3147 286.468 22.61 286.748 21.994C287.037 21.378 287.443 20.902 287.966 20.566C288.488 20.2207 289.09 20.048 289.772 20.048C290.304 20.048 290.747 20.146 291.102 20.342C291.466 20.538 291.816 20.8647 292.152 21.322L292.348 21.196C292.217 21.028 292.152 20.8227 292.152 20.58V17.318H293.692V28H292.152V27.622C292.152 27.482 292.166 27.37 292.194 27.286C292.222 27.1927 292.273 27.0993 292.348 27.006L292.152 26.866C291.816 27.3327 291.466 27.664 291.102 27.86C290.747 28.056 290.304 28.154 289.772 28.154ZM290.052 26.81C290.481 26.81 290.864 26.698 291.2 26.474C291.545 26.2407 291.811 25.9187 291.998 25.508C292.194 25.0973 292.292 24.6307 292.292 24.108C292.292 23.5853 292.194 23.1187 291.998 22.708C291.811 22.288 291.545 21.966 291.2 21.742C290.864 21.5087 290.481 21.392 290.052 21.392C289.389 21.392 288.857 21.6487 288.456 22.162C288.064 22.666 287.868 23.3147 287.868 24.108C287.868 24.9013 288.064 25.55 288.456 26.054C288.857 26.558 289.389 26.81 290.052 26.81ZM298.791 28.154C298.035 28.154 297.363 27.9813 296.775 27.636C296.187 27.2813 295.729 26.8007 295.403 26.194C295.076 25.578 294.913 24.892 294.913 24.136C294.913 23.4267 295.057 22.7593 295.347 22.134C295.645 21.5087 296.084 21.0047 296.663 20.622C297.241 20.2393 297.937 20.048 298.749 20.048C299.439 20.048 300.074 20.1973 300.653 20.496C301.241 20.7947 301.712 21.2427 302.067 21.84C302.421 22.428 302.599 23.1467 302.599 23.996V24.416H297.335C296.877 24.416 296.551 24.402 296.355 24.374L296.299 24.598C296.383 24.6167 296.439 24.654 296.467 24.71C296.504 24.7567 296.541 24.8313 296.579 24.934C296.597 25.0087 296.639 25.116 296.705 25.256C296.891 25.732 297.171 26.11 297.545 26.39C297.918 26.67 298.343 26.81 298.819 26.81C299.313 26.81 299.738 26.684 300.093 26.432C300.447 26.1707 300.704 25.8393 300.863 25.438H302.473C302.211 26.2407 301.768 26.894 301.143 27.398C300.527 27.902 299.743 28.154 298.791 28.154ZM296.551 23.408C296.681 23.324 296.803 23.2633 296.915 23.226C297.027 23.1887 297.153 23.17 297.293 23.17H300.247C300.405 23.17 300.541 23.1887 300.653 23.226C300.774 23.2633 300.905 23.324 301.045 23.408L301.185 23.226C301.101 23.17 301.045 23.1233 301.017 23.086C300.989 23.0393 300.965 22.9787 300.947 22.904C300.928 22.7733 300.867 22.6147 300.765 22.428C300.578 22.0733 300.307 21.8027 299.953 21.616C299.607 21.42 299.225 21.322 298.805 21.322C298.366 21.322 297.979 21.42 297.643 21.616C297.307 21.8027 297.041 22.0733 296.845 22.428C296.761 22.568 296.695 22.7267 296.649 22.904C296.63 22.9787 296.607 23.0393 296.579 23.086C296.56 23.1327 296.509 23.1793 296.425 23.226L296.551 23.408ZM306.347 28.154C305.582 28.154 304.966 27.9533 304.499 27.552C304.033 27.1413 303.799 26.586 303.799 25.886C303.799 25.1673 304.079 24.6027 304.639 24.192C305.059 23.884 305.661 23.6553 306.445 23.506L308.993 23.016C308.993 22.4933 308.849 22.078 308.559 21.77C308.251 21.462 307.841 21.308 307.327 21.308C306.907 21.308 306.539 21.4293 306.221 21.672C305.913 21.9053 305.717 22.2227 305.633 22.624H304.107C304.238 21.8027 304.607 21.168 305.213 20.72C305.82 20.272 306.529 20.048 307.341 20.048C307.799 20.048 308.228 20.118 308.629 20.258C309.04 20.3887 309.385 20.5847 309.665 20.846C310.039 21.1913 310.272 21.5973 310.365 22.064C310.468 22.5307 310.519 23.0673 310.519 23.674V28H308.979V27.706C308.979 27.51 309.035 27.2533 309.147 26.936L308.951 26.838C308.746 27.1927 308.48 27.482 308.153 27.706C307.724 28.0047 307.122 28.154 306.347 28.154ZM306.655 26.88C307.066 26.88 307.439 26.796 307.775 26.628C308.158 26.4413 308.443 26.1847 308.629 25.858C308.732 25.6807 308.807 25.5173 308.853 25.368C308.9 25.2093 308.951 24.9993 309.007 24.738C309.035 24.6167 309.073 24.528 309.119 24.472C309.166 24.4067 309.231 24.3693 309.315 24.36L309.273 24.136L307.649 24.472L306.809 24.626C306.268 24.738 305.876 24.906 305.633 25.13C305.437 25.326 305.339 25.564 305.339 25.844C305.339 26.1707 305.456 26.4273 305.689 26.614C305.932 26.7913 306.254 26.88 306.655 26.88ZM315.523 23.954V22.82H322.537V23.954H315.523ZM331.781 28.168C331.044 28.168 330.349 28.0513 329.695 27.818C329.051 27.5753 328.505 27.1927 328.057 26.67C327.609 26.138 327.339 25.466 327.245 24.654H328.925C329.084 25.4007 329.429 25.9373 329.961 26.264C330.493 26.5813 331.109 26.74 331.809 26.74C332.491 26.74 333.023 26.6 333.405 26.32C333.797 26.0307 333.993 25.6107 333.993 25.06C333.993 24.6493 333.872 24.3227 333.629 24.08C333.387 23.828 333.083 23.646 332.719 23.534C332.355 23.4127 331.856 23.282 331.221 23.142C330.447 22.974 329.821 22.806 329.345 22.638C328.869 22.4607 328.463 22.1807 328.127 21.798C327.791 21.406 327.623 20.8693 327.623 20.188C327.623 19.5533 327.777 19.0073 328.085 18.55C328.393 18.0927 328.823 17.7473 329.373 17.514C329.924 17.2713 330.554 17.15 331.263 17.15C332.309 17.15 333.209 17.4207 333.965 17.962C334.721 18.494 335.183 19.2967 335.351 20.37H333.699C333.559 19.7633 333.265 19.3153 332.817 19.026C332.379 18.7367 331.851 18.592 331.235 18.592C330.619 18.592 330.139 18.7227 329.793 18.984C329.448 19.236 329.275 19.5907 329.275 20.048C329.275 20.4027 329.387 20.6873 329.611 20.902C329.845 21.1167 330.129 21.28 330.465 21.392C330.801 21.504 331.268 21.6253 331.865 21.756C332.677 21.9333 333.331 22.1153 333.825 22.302C334.329 22.4887 334.759 22.7967 335.113 23.226C335.468 23.646 335.645 24.2247 335.645 24.962C335.645 25.9513 335.305 26.7353 334.623 27.314C333.951 27.8833 333.004 28.168 331.781 28.168ZM339.881 28.154C338.733 28.154 337.945 27.7293 337.515 26.88C337.366 26.5813 337.273 26.2687 337.235 25.942C337.198 25.6153 337.179 25.2327 337.179 24.794V20.202H338.719V24.808C338.719 25.6013 338.855 26.152 339.125 26.46C339.377 26.7213 339.741 26.852 340.217 26.852C340.787 26.852 341.221 26.6747 341.519 26.32C341.734 26.096 341.883 25.7927 341.967 25.41C342.061 25.0273 342.107 24.5093 342.107 23.856V20.202H343.647V28H342.107V27.622C342.107 27.482 342.121 27.37 342.149 27.286C342.177 27.1927 342.224 27.0993 342.289 27.006L342.093 26.866C341.776 27.3233 341.445 27.6547 341.099 27.86C340.754 28.056 340.348 28.154 339.881 28.154ZM349.426 28.154C348.894 28.154 348.446 28.056 348.082 27.86C347.728 27.664 347.382 27.3327 347.046 26.866L346.85 27.006C346.925 27.0993 346.976 27.1927 347.004 27.286C347.032 27.37 347.046 27.482 347.046 27.622V28H345.506V17.318H347.046V20.58C347.046 20.72 347.032 20.8367 347.004 20.93C346.976 21.0233 346.925 21.112 346.85 21.196L347.046 21.322C347.382 20.8647 347.728 20.538 348.082 20.342C348.446 20.146 348.894 20.048 349.426 20.048C350.108 20.048 350.71 20.2207 351.232 20.566C351.755 20.902 352.156 21.378 352.436 21.994C352.726 22.61 352.87 23.3147 352.87 24.108C352.87 24.892 352.726 25.592 352.436 26.208C352.156 26.824 351.755 27.3047 351.232 27.65C350.71 27.986 350.108 28.154 349.426 28.154ZM349.146 26.81C349.809 26.81 350.336 26.558 350.728 26.054C351.13 25.55 351.33 24.9013 351.33 24.108C351.33 23.3147 351.13 22.666 350.728 22.162C350.336 21.6487 349.809 21.392 349.146 21.392C348.717 21.392 348.33 21.5087 347.984 21.742C347.648 21.966 347.382 22.288 347.186 22.708C347 23.1187 346.906 23.5853 346.906 24.108C346.906 24.6307 347 25.0973 347.186 25.508C347.382 25.9187 347.648 26.2407 347.984 26.474C348.33 26.698 348.717 26.81 349.146 26.81ZM354.434 20.202H355.974V20.58C355.974 20.72 355.96 20.8367 355.932 20.93C355.904 21.014 355.857 21.1027 355.792 21.196L355.988 21.322C356.305 20.8647 356.636 20.538 356.982 20.342C357.327 20.146 357.728 20.048 358.186 20.048C358.68 20.048 359.119 20.1647 359.502 20.398C359.894 20.622 360.132 20.9533 360.216 21.392H360.398C360.762 20.496 361.518 20.048 362.666 20.048C363.534 20.048 364.182 20.2953 364.612 20.79C365.041 21.2847 365.256 21.9893 365.256 22.904V28H363.716V23.156C363.716 22.5587 363.594 22.1107 363.352 21.812C363.109 21.504 362.764 21.35 362.316 21.35C361.858 21.35 361.49 21.4993 361.21 21.798C360.986 22.0407 360.827 22.3533 360.734 22.736C360.65 23.1093 360.608 23.59 360.608 24.178V28H359.082V23.156C359.082 22.5773 358.956 22.134 358.704 21.826C358.452 21.5087 358.102 21.35 357.654 21.35C357.206 21.35 356.842 21.5133 356.562 21.84C356.356 22.0547 356.207 22.3487 356.114 22.722C356.02 23.086 355.974 23.5713 355.974 24.178V28H354.434V20.202ZM367.053 28V20.202H368.593V28H367.053ZM367.823 19.11C367.543 19.11 367.3 19.0167 367.095 18.83C366.89 18.6433 366.787 18.41 366.787 18.13C366.787 17.85 366.89 17.6167 367.095 17.43C367.3 17.2433 367.543 17.15 367.823 17.15C368.112 17.15 368.355 17.2433 368.551 17.43C368.756 17.6167 368.859 17.85 368.859 18.13C368.859 18.41 368.756 18.6433 368.551 18.83C368.355 19.0167 368.112 19.11 367.823 19.11ZM373.706 28.154C372.726 28.154 371.904 27.9207 371.242 27.454C370.588 26.978 370.196 26.306 370.066 25.438H371.62C371.732 25.8953 371.96 26.25 372.306 26.502C372.66 26.754 373.127 26.88 373.706 26.88C374.182 26.88 374.564 26.7913 374.854 26.614C375.143 26.4273 375.288 26.166 375.288 25.83C375.288 25.5687 375.199 25.3633 375.022 25.214C374.844 25.0553 374.62 24.934 374.35 24.85C374.079 24.766 373.72 24.6773 373.272 24.584C372.656 24.4627 372.156 24.3367 371.774 24.206C371.391 24.0753 371.064 23.8607 370.794 23.562C370.523 23.2633 370.388 22.8527 370.388 22.33C370.388 21.5927 370.663 21.028 371.214 20.636C371.764 20.244 372.464 20.048 373.314 20.048C374.191 20.048 374.924 20.2767 375.512 20.734C376.1 21.182 376.464 21.8073 376.604 22.61H375.162C375.05 22.1713 374.83 21.8447 374.504 21.63C374.177 21.4153 373.78 21.308 373.314 21.308C372.866 21.308 372.516 21.392 372.264 21.56C372.012 21.728 371.886 21.9567 371.886 22.246C371.886 22.4793 371.97 22.666 372.138 22.806C372.306 22.9367 372.511 23.0393 372.754 23.114C373.006 23.1887 373.356 23.268 373.804 23.352C374.438 23.4733 374.956 23.604 375.358 23.744C375.759 23.8747 376.1 24.0987 376.38 24.416C376.669 24.724 376.814 25.1533 376.814 25.704C376.814 26.4507 376.538 27.048 375.988 27.496C375.437 27.9347 374.676 28.154 373.706 28.154ZM381.635 28.154C380.655 28.154 379.834 27.9207 379.171 27.454C378.518 26.978 378.126 26.306 377.995 25.438H379.549C379.661 25.8953 379.89 26.25 380.235 26.502C380.59 26.754 381.057 26.88 381.635 26.88C382.111 26.88 382.494 26.7913 382.783 26.614C383.073 26.4273 383.217 26.166 383.217 25.83C383.217 25.5687 383.129 25.3633 382.951 25.214C382.774 25.0553 382.55 24.934 382.279 24.85C382.009 24.766 381.649 24.6773 381.201 24.584C380.585 24.4627 380.086 24.3367 379.703 24.206C379.321 24.0753 378.994 23.8607 378.723 23.562C378.453 23.2633 378.317 22.8527 378.317 22.33C378.317 21.5927 378.593 21.028 379.143 20.636C379.694 20.244 380.394 20.048 381.243 20.048C382.121 20.048 382.853 20.2767 383.441 20.734C384.029 21.182 384.393 21.8073 384.533 22.61H383.091C382.979 22.1713 382.76 21.8447 382.433 21.63C382.107 21.4153 381.71 21.308 381.243 21.308C380.795 21.308 380.445 21.392 380.193 21.56C379.941 21.728 379.815 21.9567 379.815 22.246C379.815 22.4793 379.899 22.666 380.067 22.806C380.235 22.9367 380.441 23.0393 380.683 23.114C380.935 23.1887 381.285 23.268 381.733 23.352C382.368 23.4733 382.886 23.604 383.287 23.744C383.689 23.8747 384.029 24.0987 384.309 24.416C384.599 24.724 384.743 25.1533 384.743 25.704C384.743 26.4507 384.468 27.048 383.917 27.496C383.367 27.9347 382.606 28.154 381.635 28.154ZM386.303 28V20.202H387.843V28H386.303ZM387.073 19.11C386.793 19.11 386.55 19.0167 386.345 18.83C386.14 18.6433 386.037 18.41 386.037 18.13C386.037 17.85 386.14 17.6167 386.345 17.43C386.55 17.2433 386.793 17.15 387.073 17.15C387.362 17.15 387.605 17.2433 387.801 17.43C388.006 17.6167 388.109 17.85 388.109 18.13C388.109 18.41 388.006 18.6433 387.801 18.83C387.605 19.0167 387.362 19.11 387.073 19.11ZM393.278 28.154C392.522 28.154 391.845 27.9813 391.248 27.636C390.66 27.2907 390.198 26.81 389.862 26.194C389.535 25.5687 389.372 24.8593 389.372 24.066C389.372 23.2913 389.535 22.6007 389.862 21.994C390.198 21.3873 390.66 20.9113 391.248 20.566C391.845 20.2207 392.522 20.048 393.278 20.048C394.034 20.048 394.706 20.2207 395.294 20.566C395.891 20.9113 396.353 21.3873 396.68 21.994C397.016 22.6007 397.184 23.2913 397.184 24.066C397.184 24.85 397.02 25.5547 396.694 26.18C396.367 26.796 395.905 27.2813 395.308 27.636C394.72 27.9813 394.043 28.154 393.278 28.154ZM393.278 26.81C393.726 26.81 394.127 26.6933 394.482 26.46C394.836 26.2267 395.112 25.9 395.308 25.48C395.513 25.06 395.616 24.5887 395.616 24.066C395.616 23.562 395.513 23.1093 395.308 22.708C395.112 22.2973 394.836 21.9753 394.482 21.742C394.127 21.5087 393.726 21.392 393.278 21.392C392.83 21.392 392.428 21.5087 392.074 21.742C391.719 21.966 391.439 22.2833 391.234 22.694C391.038 23.0953 390.94 23.5527 390.94 24.066C390.94 24.598 391.038 25.074 391.234 25.494C391.439 25.9047 391.719 26.2267 392.074 26.46C392.428 26.6933 392.83 26.81 393.278 26.81ZM398.717 20.202H400.257V20.58C400.257 20.72 400.243 20.8367 400.215 20.93C400.187 21.014 400.14 21.1027 400.075 21.196L400.271 21.322C400.588 20.8647 400.92 20.538 401.265 20.342C401.61 20.146 402.012 20.048 402.469 20.048C403.636 20.048 404.424 20.468 404.835 21.308C404.994 21.616 405.092 21.9333 405.129 22.26C405.166 22.5773 405.185 22.96 405.185 23.408V28H403.645V23.394C403.645 22.6007 403.51 22.05 403.239 21.742C402.987 21.4807 402.623 21.35 402.147 21.35C401.578 21.35 401.139 21.5273 400.831 21.882C400.626 22.106 400.476 22.4093 400.383 22.792C400.299 23.1747 400.257 23.6927 400.257 24.346V28H398.717V20.202Z" fill="#101828"/>
</svg>
