<svg width="33" height="32" viewBox="0 0 33 32" fill="none" xmlns="http://www.w3.org/2000/svg">
<path d="M23.166 17.8673V21.8673C23.166 27.2007 21.0327 29.334 15.6993 29.334H10.6327C5.29935 29.334 3.16602 27.2007 3.16602 21.8673V16.8007C3.16602 11.4673 5.29935 9.33398 10.6327 9.33398H14.6327" stroke="white" stroke-linecap="round" stroke-linejoin="round"/>
<path d="M23.1661 17.8673H18.8995C15.6995 17.8673 14.6328 16.8006 14.6328 13.6006V9.33398L23.1661 17.8673Z" stroke="white" stroke-linecap="round" stroke-linejoin="round"/>
<path d="M15.9668 2.66602H21.3001" stroke="white" stroke-linecap="round" stroke-linejoin="round"/>
<path d="M9.83398 6.66602C9.83398 4.45268 11.6207 2.66602 13.834 2.66602H17.3273" stroke="white" stroke-linecap="round" stroke-linejoin="round"/>
<path d="M29.8326 10.666V18.9193C29.8326 20.986 28.1526 22.666 26.0859 22.666" stroke="white" stroke-linecap="round" stroke-linejoin="round"/>
<path d="M29.834 10.666H25.834C22.834 10.666 21.834 9.66602 21.834 6.66602V2.66602L29.834 10.666Z" stroke="white" stroke-linecap="round" stroke-linejoin="round"/>
</svg>
