<svg width="346" height="346" viewBox="0 0 346 346" fill="none" xmlns="http://www.w3.org/2000/svg">
<path d="M345.46 173.35C345.05 268.9 267.59 345.87 172.23 345.46C76.42 345.06 -0.55 267.48 -3.9814e-07 171.85C0.55 76.2801 78.07 -0.509916 173.48 8.43075e-05C269.1 0.520084 345.87 77.9001 345.46 173.35ZM14.27 172.53C14.13 259.84 85.19 331.08 172.53 331.2C259.86 331.32 331.07 260.29 331.19 172.93C331.32 85.5901 260.32 14.4201 172.92 14.2801C85.6 14.1301 14.4 85.1501 14.27 172.53Z" fill="#F90000"/>
<path d="M172.8 170.03C185.5 157.21 197.68 144.91 209.87 132.62C217.03 125.41 224.2 118.2 231.41 111.04C236.46 106.03 240.49 105.32 243.91 108.68C247.37 112.07 246.64 116.19 241.69 121.15C223.55 139.3 205.42 157.46 187.25 175.57C185.96 176.86 184.35 177.82 181.16 180.24C185.38 183.65 188.83 185.98 191.75 188.86C208.34 205.26 224.81 221.78 241.3 238.27C242.48 239.45 243.74 240.59 244.64 241.97C246.84 245.34 246.6 248.72 243.59 251.44C240.75 254.01 237.51 253.9 234.45 251.66C233.25 250.78 232.25 249.63 231.19 248.57C213.4 230.78 195.6 213 177.86 195.16C176.34 193.64 175.22 191.72 173.59 189.57C171.24 191.77 169.8 193.05 168.44 194.41C150.05 212.78 131.72 231.21 113.21 249.46C111.36 251.28 108.48 252.91 105.99 253.04C100.78 253.32 97.6899 247.13 100.48 242.51C101.58 240.69 103.25 239.21 104.78 237.68C123.39 219.06 142.02 200.45 160.63 181.84C161.09 181.38 161.48 180.84 162.23 179.94C161.03 178.62 159.9 177.28 158.66 176.04C140.41 157.77 122.14 139.51 103.87 121.26C103.4 120.79 102.92 120.32 102.46 119.84C98.7799 115.93 98.3999 111.9 101.41 108.8C104.42 105.69 108.66 105.84 112.46 109.54C120.21 117.11 127.83 124.8 135.48 132.47C147.7 144.75 159.9 157.05 172.8 170.03Z" fill="#F90000"/>
</svg>
