<svg width="57" height="56" viewBox="0 0 57 56" fill="none" xmlns="http://www.w3.org/2000/svg">
<g clip-path="url(#clip0_4530_46076)">
<path d="M23.0834 31.5H5.58337C2.69587 31.5 0.333374 33.8625 0.333374 36.75V50.75C0.333374 53.6375 2.69587 56 5.58337 56H9.08337C10.0459 56 10.8334 55.2125 10.8334 54.25C10.8334 53.2875 10.0459 52.5 9.08337 52.5H5.58337C4.62087 52.5 3.83337 51.7125 3.83337 50.75V36.75C3.83337 35.7875 4.62087 35 5.58337 35H23.0834C24.0459 35 24.8334 35.7875 24.8334 36.75V38.5H23.0834C20.1959 38.5 17.8334 40.8625 17.8334 43.75C17.8334 46.6375 20.1959 49 23.0834 49H24.8334V50.75C24.8334 51.7125 24.0459 52.5 23.0834 52.5H16.0834C15.1209 52.5 14.3334 53.2875 14.3334 54.25C14.3334 55.2125 15.1209 56 16.0834 56H23.0834C25.9709 56 28.3334 53.6375 28.3334 50.75V36.75C28.3334 33.8625 25.9709 31.5 23.0834 31.5ZM23.0834 45.5C22.1209 45.5 21.3334 44.7125 21.3334 43.75C21.3334 42.7875 22.1209 42 23.0834 42H24.8334V45.5H23.0834Z" fill="#298DFE"/>
<path d="M23.0834 0H5.58337C2.69587 0 0.333374 2.3625 0.333374 5.25V19.25C0.333374 22.1375 2.69587 24.5 5.58337 24.5H23.0834C25.9709 24.5 28.3334 22.1375 28.3334 19.25V5.25C28.3334 2.3625 25.9709 0 23.0834 0ZM23.0834 21H5.58337C4.62087 21 3.83337 20.2125 3.83337 19.25V5.25C3.83337 4.2875 4.62087 3.5 5.58337 3.5H23.0834C24.0459 3.5 24.8334 4.2875 24.8334 5.25V7H23.0834C20.1959 7 17.8334 9.3625 17.8334 12.25C17.8334 15.1375 20.1959 17.5 23.0834 17.5H24.8334V19.25C24.8334 20.2125 24.0459 21 23.0834 21ZM24.8334 14H23.0834C22.1209 14 21.3334 13.2125 21.3334 12.25C21.3334 11.2875 22.1209 10.5 23.0834 10.5H24.8334V14Z" fill="#298DFE"/>
<path d="M33.5834 14H42.3334C43.2959 14 44.0834 13.2125 44.0834 12.25C44.0834 11.2875 43.2959 10.5 42.3334 10.5H33.5834C32.6209 10.5 31.8334 11.2875 31.8334 12.25C31.8334 13.2125 32.6209 14 33.5834 14Z" fill="#298DFE"/>
<path d="M42.3334 42H33.5834C32.6209 42 31.8334 42.7875 31.8334 43.75C31.8334 44.7125 32.6209 45.5 33.5834 45.5H42.3334C43.2959 45.5 44.0834 44.7125 44.0834 43.75C44.0834 42.7875 43.2959 42 42.3334 42Z" fill="#298DFE"/>
<path d="M54.5834 26.25H47.5834V15.75C47.5834 14.7875 46.7959 14 45.8334 14C44.8709 14 44.0834 14.7875 44.0834 15.75V38.5C44.0834 39.4625 44.8709 40.25 45.8334 40.25C46.7959 40.25 47.5834 39.4625 47.5834 38.5V29.75H54.5834C55.5459 29.75 56.3334 28.9625 56.3334 28C56.3334 27.0375 55.5459 26.25 54.5834 26.25Z" fill="#298DFE"/>
<path d="M45.8334 17.5C42.9459 17.5 40.5834 15.1375 40.5834 12.25C40.5834 9.3625 42.9459 7 45.8334 7C48.7209 7 51.0834 9.3625 51.0834 12.25C51.0834 15.1375 48.7209 17.5 45.8334 17.5ZM45.8334 10.5C44.8709 10.5 44.0834 11.2875 44.0834 12.25C44.0834 13.2125 44.8709 14 45.8334 14C46.7959 14 47.5834 13.2125 47.5834 12.25C47.5834 11.2875 46.7959 10.5 45.8334 10.5Z" fill="#FFA048"/>
<path d="M45.8334 49C42.9459 49 40.5834 46.6375 40.5834 43.75C40.5834 40.8625 42.9459 38.5 45.8334 38.5C48.7209 38.5 51.0834 40.8625 51.0834 43.75C51.0834 46.6375 48.7209 49 45.8334 49ZM45.8334 42C44.8709 42 44.0834 42.7875 44.0834 43.75C44.0834 44.7125 44.8709 45.5 45.8334 45.5C46.7959 45.5 47.5834 44.7125 47.5834 43.75C47.5834 42.7875 46.7959 42 45.8334 42Z" fill="#FFA048"/>
</g>
<defs>
<clipPath id="clip0_4530_46076">
<rect width="56" height="56" fill="white" transform="translate(0.333374)"/>
</clipPath>
</defs>
</svg>
