<svg width="72" height="72" viewBox="0 0 72 72" fill="none" xmlns="http://www.w3.org/2000/svg">
<g clip-path="url(#clip0_3109_31382)">
<path d="M56.5463 16.996C55.211 11.9417 53.3642 7.49354 51.0905 3.86655C57.2025 6.74177 62.3289 11.3386 65.9512 16.996H56.5463ZM28.4842 4.97503C30.9051 2.0304 33.5334 0.507358 36.018 0.500027C38.5012 0.507378 41.1205 2.03792 43.5378 4.9879C45.8576 7.81902 47.9422 11.9029 49.4793 16.996H22.554C24.0752 11.8863 26.1601 7.80199 28.4842 4.97503ZM42.736 44.9678C41.3191 45.8313 40.0859 46.9272 39.0351 48.172H20.9764C20.3418 44.4591 19.976 40.3816 19.976 36.036C19.976 31.6904 20.3418 27.6129 20.9764 23.9H51.0588C51.364 25.7056 51.6124 27.6161 51.7795 29.5584C46.4865 31.8379 42.736 37.1059 42.736 43.236V44.9678ZM71.464 36V36.2071L71.4993 36.2424C71.4957 36.7387 71.4792 37.2352 71.4514 37.7304C69.3583 32.5028 64.3899 28.7516 58.4881 28.3927C58.3406 26.8698 58.1843 25.3567 57.9409 23.864H69.2751C70.6594 27.6808 71.464 31.7584 71.464 36ZM0.5 36C0.5 31.7583 1.30468 27.6476 2.68784 23.864H14.0299C13.436 27.6842 13.108 31.7607 13.108 36C13.108 40.2393 13.436 44.3158 14.0299 48.136H2.68784C1.30468 44.3524 0.5 40.2417 0.5 36ZM15.4897 16.996H6.0808C9.68131 11.3291 14.8209 6.75003 20.9544 3.85231C18.6766 7.4819 16.8268 11.9351 15.4897 16.996ZM15.4897 55.004C16.828 60.0694 18.6799 64.5261 20.9605 68.1574C14.8261 65.2838 9.68121 60.6772 6.04877 55.004H15.4897ZM36 71.536C33.5114 71.536 30.8853 70.0052 28.4622 67.0481C26.1424 64.217 24.0578 60.1331 22.5207 55.04H35.7512C35.5976 55.8857 35.5 56.7581 35.5 57.636V64.836C35.5 67.2209 36.1211 69.4434 37.1008 71.4176C36.7286 71.4942 36.3621 71.536 36 71.536Z" fill="#D4E8FF" stroke="#298DFE"/>
<path d="M50.4002 72H64.8002C68.7602 72 72.0002 68.76 72.0002 64.8V57.6C72.0002 54.252 69.6962 51.444 66.6002 50.652V43.2C66.6002 38.232 62.5682 34.2 57.6002 34.2C52.6322 34.2 48.6002 38.232 48.6002 43.2V50.652C45.5042 51.444 43.2002 54.252 43.2002 57.6V64.8C43.2002 68.76 46.4402 72 50.4002 72ZM52.2002 43.2C52.2002 40.212 54.6122 37.8 57.6002 37.8C60.5882 37.8 63.0002 40.212 63.0002 43.2V50.4H52.2002V43.2Z" fill="#FFA048"/>
</g>
<defs>
<clipPath id="clip0_3109_31382">
<rect width="72" height="72" fill="white"/>
</clipPath>
</defs>
</svg>
