<svg width="57" height="56" viewBox="0 0 57 56" fill="none" xmlns="http://www.w3.org/2000/svg">
<g clip-path="url(#clip0_4530_46088)">
<path d="M49.1591 46.025L43.4366 40.3025C45.8691 37.38 47.4441 33.74 47.8116 29.75H53.1491C54.1116 29.75 54.8991 28.9625 54.8991 28C54.8991 27.0375 54.1116 26.25 53.1491 26.25H47.8116C47.4441 22.26 45.8691 18.6025 43.4366 15.6975L49.1591 9.975C52.7291 11.6725 56.6666 9.0125 56.6666 5.25C56.6666 2.3625 54.3041 0 51.4166 0C47.6541 0 44.9941 3.9375 46.6916 7.5075L40.9691 13.23C38.0466 10.7975 34.4066 9.2225 30.4166 8.855V3.5175C30.4166 2.555 29.6291 1.7675 28.6666 1.7675C27.7041 1.7675 26.9166 2.555 26.9166 3.5175V8.855C22.9266 9.2225 19.2691 10.7975 16.3641 13.23L10.6416 7.5075C12.3391 3.9375 9.67913 0 5.91663 0C3.02913 0 0.666626 2.3625 0.666626 5.25C0.666626 9.0125 4.60413 11.6725 8.17413 9.975L13.8966 15.6975C11.4641 18.62 9.88913 22.26 9.52163 26.25H4.18413C3.22163 26.25 2.43413 27.0375 2.43413 28C2.43413 28.9625 3.22163 29.75 4.18413 29.75H9.53913C9.88913 33.6875 11.3941 37.345 13.8966 40.32L8.19163 46.025C4.62163 44.3275 0.684126 46.9875 0.684126 50.75C0.684126 53.6375 3.04663 56 5.93413 56C9.69663 56 12.3566 52.0625 10.6591 48.4925L16.3816 42.77C16.6266 42.98 16.8716 43.2075 17.1341 43.4C17.9041 43.9775 19.0066 43.82 19.5841 43.05C20.1616 42.28 20.0041 41.1775 19.2341 40.6C15.2266 37.59 12.9341 33.005 12.9341 28C12.9341 19.32 20.0041 12.25 28.6841 12.25C37.3641 12.25 44.4341 19.32 44.4341 28C44.4341 37.8875 35.3341 45.43 25.5341 43.435C24.5891 43.2425 23.6616 43.855 23.4691 44.8C23.2766 45.745 23.8891 46.6725 24.8341 46.865C25.5166 47.005 26.2341 47.0925 26.9341 47.1625V52.5C26.9341 53.4625 27.7216 54.25 28.6841 54.25C29.6466 54.25 30.4341 53.4625 30.4341 52.5V47.1625C34.4241 46.795 38.0816 45.22 40.9866 42.7875L46.7091 48.51C45.0116 52.08 47.6716 56.0175 51.4341 56.0175C54.3216 56.0175 56.6841 53.655 56.6841 50.7675C56.6841 47.005 52.7466 44.345 49.1766 46.0425L49.1591 46.025ZM5.91663 52.5C4.95413 52.5 4.16663 51.7125 4.16663 50.75C4.16663 49.21 6.02163 48.4225 7.14163 49.5075C8.26163 50.5925 7.50913 52.5 5.91663 52.5ZM51.4166 3.5C52.3791 3.5 53.1666 4.2875 53.1666 5.25C53.1666 6.79 51.3116 7.5775 50.1916 6.4925C49.0716 5.4075 49.8241 3.5 51.4166 3.5ZM4.16663 5.25C4.16663 4.2875 4.95413 3.5 5.91663 3.5C7.45663 3.5 8.24413 5.355 7.15913 6.475C6.07413 7.595 4.16663 6.8425 4.16663 5.25ZM51.4166 52.5C49.8766 52.5 49.0891 50.645 50.1741 49.525C50.1741 49.525 50.1741 49.525 50.1916 49.525C50.2091 49.525 50.1916 49.525 50.1916 49.5075C51.3116 48.4225 53.1666 49.2275 53.1666 50.75C53.1666 51.7125 52.3791 52.5 51.4166 52.5Z" fill="#298DFE"/>
<path d="M38.6591 21.525C38.4141 21.2625 38.1866 21.175 29.5591 15.995C28.9991 15.6625 28.3166 15.6625 27.7566 15.995C18.0616 21.8225 18.9366 21.2625 18.7091 21.49C18.3591 21.84 18.1666 22.3475 18.1666 22.75V33.25C18.1666 33.8625 18.4816 34.44 19.0241 34.755C28.1416 40.2325 27.9841 40.25 28.6666 40.25C29.3491 40.25 29.1391 40.25 38.3091 34.755C38.8341 34.44 39.1666 33.8625 39.1666 33.25C39.1666 22.1025 39.3416 22.2075 38.6591 21.525ZM28.6666 19.5475L34.0216 22.75L28.6666 25.9525L23.3116 22.75L28.6666 19.5475ZM21.6666 25.8475L26.9166 28.9975V35.42L21.6666 32.27V25.8475ZM30.4166 35.42V28.9975L35.6666 25.8475V32.27L30.4166 35.42Z" fill="#FFA048"/>
</g>
<defs>
<clipPath id="clip0_4530_46088">
<rect width="56" height="56" fill="white" transform="translate(0.666626)"/>
</clipPath>
</defs>
</svg>
