<svg width="72" height="72" viewBox="0 0 72 72" fill="none" xmlns="http://www.w3.org/2000/svg">
<g clip-path="url(#clip0_3109_31375)">
<path d="M69.7853 31.6098C69.7853 38.9348 64.1297 44.8798 57.071 45.149V38.6341C57.071 34.506 53.7727 31.1098 49.7139 31.1098C49.5047 31.1098 49.2779 31.1395 49.0851 31.169C47.7983 29.0457 45.5008 27.5976 42.8567 27.5976C42.6476 27.5976 42.4207 27.6273 42.228 27.6568C40.9412 25.5335 38.6437 24.0854 35.9996 24.0854C33.3489 24.0854 31.0842 25.5397 29.7735 27.6599C29.7385 27.6543 29.7018 27.6486 29.6626 27.6427C29.5085 27.6194 29.3339 27.5976 29.1424 27.5976C26.4918 27.5976 24.227 29.0519 22.9164 31.1721C22.8813 31.1665 22.8447 31.1607 22.8055 31.1548C22.6513 31.1316 22.4768 31.1098 22.2853 31.1098C18.2264 31.1098 14.9282 34.506 14.9282 38.6341V45.149C7.86946 44.8798 2.21387 38.9348 2.21387 31.6098C2.21387 24.1125 8.13844 18.061 15.4282 18.061H18.8567H19.3567V17.561C19.3567 8.13203 26.8242 0.5 35.9996 0.5C45.175 0.5 52.6424 8.13203 52.6424 17.561V18.061H53.1424H56.571C63.8607 18.061 69.7853 24.1125 69.7853 31.6098Z" fill="#D4E8FF" stroke="#298DFE"/>
<path d="M66.8571 61.4634C64.6286 61.4634 62.7429 62.9385 62.0229 64.9756H49.7143C46.8686 64.9756 44.5714 62.6224 44.5714 59.7073V35.1219C44.5714 34.1385 43.8171 33.3658 42.8571 33.3658C41.8971 33.3658 41.1429 34.1385 41.1429 35.1219V59.7073C41.1429 64.5541 44.9829 68.4878 49.7143 68.4878H62.0229C62.7429 70.5249 64.6286 72 66.8571 72C69.7029 72 72 69.6468 72 66.7317C72 63.8166 69.7029 61.4634 66.8571 61.4634ZM66.8571 68.4878C65.8971 68.4878 65.1429 67.7151 65.1429 66.7317C65.1429 65.7483 65.8971 64.9756 66.8571 64.9756C67.8171 64.9756 68.5714 65.7483 68.5714 66.7317C68.5714 67.7151 67.8171 68.4878 66.8571 68.4878ZM5.14286 72C7.37143 72 9.25714 70.5249 9.97714 68.4878H22.2857C27.0171 68.4878 30.8571 64.5541 30.8571 59.7073V35.1219C30.8571 34.1385 30.1029 33.3658 29.1429 33.3658C28.1829 33.3658 27.4286 34.1385 27.4286 35.1219V59.7073C27.4286 62.6224 25.1314 64.9756 22.2857 64.9756H9.97714C9.25714 62.9385 7.37143 61.4634 5.14286 61.4634C2.29714 61.4634 0 63.8166 0 66.7317C0 69.6468 2.29714 72 5.14286 72ZM5.14286 64.9756C6.10286 64.9756 6.85714 65.7483 6.85714 66.7317C6.85714 67.7151 6.10286 68.4878 5.14286 68.4878C4.18286 68.4878 3.42857 67.7151 3.42857 66.7317C3.42857 65.7483 4.18286 64.9756 5.14286 64.9756ZM36 64.9756C35.04 64.9756 34.2857 64.2029 34.2857 63.2195V31.6097C34.2857 30.6263 35.04 29.8536 36 29.8536C36.96 29.8536 37.7143 30.6263 37.7143 31.6097V63.2195C37.7143 64.2029 36.96 64.9756 36 64.9756ZM51.4286 38.6341V52.6829C51.4286 53.6663 52.1829 54.439 53.1429 54.439H63.4286C64.3886 54.439 65.1429 55.2117 65.1429 56.1951C65.1429 57.1785 64.3886 57.9512 63.4286 57.9512H53.1429C50.2971 57.9512 48 55.598 48 52.6829V38.6341C48 37.6507 48.7543 36.878 49.7143 36.878C50.6743 36.878 51.4286 37.6507 51.4286 38.6341ZM22.2857 36.878C23.2457 36.878 24 37.6507 24 38.6341V49.1707C24 56.441 21.1886 57.9512 18.8571 57.9512H8.57143C7.61143 57.9512 6.85714 57.1785 6.85714 56.1951C6.85714 55.2117 7.61143 54.439 8.57143 54.439H18.8571C20.3657 54.439 20.5714 51.1375 20.5714 49.1707V38.6341C20.5714 37.6507 21.3257 36.878 22.2857 36.878Z" fill="#FFECDA"/>
<path d="M66.8571 68.4878C65.8971 68.4878 65.1429 67.7151 65.1429 66.7317C65.1429 65.7483 65.8971 64.9756 66.8571 64.9756C67.8171 64.9756 68.5714 65.7483 68.5714 66.7317C68.5714 67.7151 67.8171 68.4878 66.8571 68.4878ZM5.14286 64.9756C6.10286 64.9756 6.85714 65.7483 6.85714 66.7317C6.85714 67.7151 6.10286 68.4878 5.14286 68.4878C4.18286 68.4878 3.42857 67.7151 3.42857 66.7317C3.42857 65.7483 4.18286 64.9756 5.14286 64.9756ZM72 56.1951C72 57.1785 71.2457 57.9512 70.2857 57.9512C69.3257 57.9512 68.5714 57.1785 68.5714 56.1951C68.5714 55.2117 69.3257 54.439 70.2857 54.439C71.2457 54.439 72 55.2117 72 56.1951ZM34.2857 70.2439C34.2857 69.2605 35.04 68.4878 36 68.4878C36.96 68.4878 37.7143 69.2605 37.7143 70.2439C37.7143 71.2273 36.96 72 36 72C35.04 72 34.2857 71.2273 34.2857 70.2439ZM0 56.1951C0 55.2117 0.754286 54.439 1.71429 54.439C2.67429 54.439 3.42857 55.2117 3.42857 56.1951C3.42857 57.1785 2.67429 57.9512 1.71429 57.9512C0.754286 57.9512 0 57.1785 0 56.1951Z" fill="#FFA048"/>
</g>
<defs>
<clipPath id="clip0_3109_31375">
<rect width="72" height="72" fill="white"/>
</clipPath>
</defs>
</svg>
