<svg width="244" height="48" viewBox="0 0 244 48" fill="none" xmlns="http://www.w3.org/2000/svg">
<rect x="0.600037" width="48" height="48" rx="24" fill="#FFA048"/>
<path d="M32.725 14.25H30.2875V13.4375C30.2875 13.222 30.2019 13.0153 30.0496 12.863C29.8972 12.7106 29.6905 12.625 29.475 12.625C29.2595 12.625 29.0529 12.7106 28.9005 12.863C28.7481 13.0153 28.6625 13.222 28.6625 13.4375V14.25H20.5375V13.4375C20.5375 13.222 20.4519 13.0153 20.2996 12.863C20.1472 12.7106 19.9405 12.625 19.725 12.625C19.5095 12.625 19.3029 12.7106 19.1505 12.863C18.9981 13.0153 18.9125 13.222 18.9125 13.4375V14.25H16.475C16.0441 14.25 15.6307 14.4212 15.326 14.726C15.0212 15.0307 14.85 15.444 14.85 15.875V32.125C14.85 32.556 15.0212 32.9693 15.326 33.274C15.6307 33.5788 16.0441 33.75 16.475 33.75H32.725C33.156 33.75 33.5693 33.5788 33.8741 33.274C34.1788 32.9693 34.35 32.556 34.35 32.125V15.875C34.35 15.444 34.1788 15.0307 33.8741 14.726C33.5693 14.4212 33.156 14.25 32.725 14.25ZM32.725 19.125H16.475V15.875H18.9125V16.6875C18.9125 16.903 18.9981 17.1097 19.1505 17.262C19.3029 17.4144 19.5095 17.5 19.725 17.5C19.9405 17.5 20.1472 17.4144 20.2996 17.262C20.4519 17.1097 20.5375 16.903 20.5375 16.6875V15.875H28.6625V16.6875C28.6625 16.903 28.7481 17.1097 28.9005 17.262C29.0529 17.4144 29.2595 17.5 29.475 17.5C29.6905 17.5 29.8972 17.4144 30.0496 17.262C30.2019 17.1097 30.2875 16.903 30.2875 16.6875V15.875H32.725V19.125Z" fill="white"/>
<line x1="64.6" y1="22.5" x2="243.8" y2="22.5" stroke="#D6E4FF" stroke-width="3"/>
</svg>
