<svg width="56" height="56" viewBox="0 0 56 56" fill="none" xmlns="http://www.w3.org/2000/svg">
<path d="M17.7875 15.9425L11.75 12.9325V10.185C13.78 9.4675 15.25 7.5425 15.25 5.25C15.25 2.3625 12.8875 0 10 0C7.1125 0 4.75 2.3625 4.75 5.25C4.75 7.525 6.22 9.45 8.25 10.185V14C8.25 14.665 8.6175 15.26 9.2125 15.5575L15.25 18.5675V22.7325C15.25 23.695 16.0375 24.4825 17 24.4825C17.9625 24.4825 18.75 23.695 18.75 22.7325V17.4825C18.75 16.8175 18.3825 16.2225 17.7875 15.925V15.9425ZM10 3.5C10.9625 3.5 11.75 4.2875 11.75 5.25C11.75 6.2125 10.9625 7 10 7C9.0375 7 8.25 6.2125 8.25 5.25C8.25 4.2875 9.0375 3.5 10 3.5Z" fill="#FFA048"/>
<path d="M27.5 0C24.6125 0 22.25 2.3625 22.25 5.25C22.25 7.5425 23.755 9.485 25.8025 10.2025C25.715 10.6925 25.75 8.6975 25.75 22.75C25.75 23.7125 26.5375 24.5 27.5 24.5C28.4625 24.5 29.25 23.7125 29.25 22.75C29.25 8.715 29.285 10.6925 29.1975 10.2025C31.2625 9.5025 32.75 7.56 32.75 5.25C32.75 2.3625 30.3875 0 27.5 0ZM27.5 7C26.5375 7 25.75 6.2125 25.75 5.25C25.75 4.2875 26.5375 3.5 27.5 3.5C28.4625 3.5 29.25 4.2875 29.25 5.25C29.25 6.2125 28.4625 7 27.5 7Z" fill="#FFA048"/>
<path d="M50.25 5.25C50.25 2.3625 47.8875 0 45 0C42.1125 0 39.75 2.3625 39.75 5.25C39.75 7.525 41.22 9.45 43.25 10.185V12.9325L37.2125 15.9425C36.6175 16.24 36.25 16.8525 36.25 17.5V22.75C36.25 23.7125 37.0375 24.5 38 24.5C38.9625 24.5 39.75 23.7125 39.75 22.75V18.585L45.7875 15.575C46.3825 15.2775 46.75 14.665 46.75 14.0175V10.2025C48.78 9.485 50.25 7.56 50.25 5.2675V5.25ZM45 7C44.0375 7 43.25 6.2125 43.25 5.25C43.25 4.2875 44.0375 3.5 45 3.5C45.9625 3.5 46.75 4.2875 46.75 5.25C46.75 6.2125 45.9625 7 45 7Z" fill="#FFA048"/>
<path d="M48.5 31.5V26.25C48.5 23.3625 46.1375 21 43.25 21H8.25C5.3625 21 3 23.3625 3 26.25V50.75C3 53.6375 5.3625 56 8.25 56H15.25C16.2125 56 17 55.2125 17 54.25C17 53.2875 16.2125 52.5 15.25 52.5H8.25C7.2875 52.5 6.5 51.7125 6.5 50.75V26.25C6.5 25.2875 7.2875 24.5 8.25 24.5H43.25C44.2125 24.5 45 25.2875 45 26.25V31.5H41.5C37.6325 31.5 34.5 34.6325 34.5 38.5C34.5 42.3675 37.6325 45.5 41.5 45.5H45V50.75C45 51.7125 44.2125 52.5 43.25 52.5H22.25C21.2875 52.5 20.5 53.2875 20.5 54.25C20.5 55.2125 21.2875 56 22.25 56H43.25C46.1375 56 48.5 53.6375 48.5 50.75V45.5C50.425 45.5 52 43.925 52 42V35C52 33.075 50.425 31.5 48.5 31.5ZM48.5 42H41.5C39.575 42 38 40.425 38 38.5C38 36.575 39.575 35 41.5 35H48.5V42Z" fill="#298DFE"/>
</svg>
