<svg width="872" height="268" viewBox="0 0 872 268" fill="none" xmlns="http://www.w3.org/2000/svg">
<g clip-path="url(#clip0_8043_20652)">
<path d="M246.76 251.3V112.01H300.99C310.91 112.01 319.69 113.72 327.32 117.15C334.95 120.58 340.93 125.56 345.23 132.11C349.54 138.65 351.69 146.6 351.69 155.95C351.69 165.55 349.31 173.71 344.54 180.44C339.77 187.17 333.35 192.16 325.25 195.4L358.73 251.3H328.6L292.77 190.16L310 199.88H273.39V251.3H246.76ZM273.39 177.45H301.39C306.22 177.45 310.4 176.55 313.92 174.74C317.44 172.93 320.19 170.41 322.14 167.17C324.1 163.93 325.08 160.19 325.08 155.95C325.08 151.59 324.1 147.82 322.14 144.64C320.18 141.46 317.44 138.97 313.92 137.16C310.4 135.35 306.22 134.45 301.39 134.45H273.39V177.45Z" fill="#D1D3D4"/>
<path d="M367.17 251.3V112.01H392.62L447.24 182.87H435.1L488.55 112.01H514V251.3H487.18V140.99L497.56 143.42L442.15 213.91H439.02L384.98 143.42L393.79 140.99V251.3H367.17Z" fill="#D1D3D4"/>
<path d="M82.9 52.92C90.1 44.37 99.66 38.2 110.48 35.64C114.14 34.74 117.96 34.28 121.88 34.28C137.33 34.28 151.23 41.47 160.87 52.92L139.16 16.26C137.79 13.94 136.13 12.02 134.25 10.5C125.13 3.02002 111.3 4.94002 104.59 16.26L82.9 52.92Z" fill="#D1D3D4"/>
<path d="M203.11 139.31L178.11 92.5C167.3 72.26 149.62 60.61 130.89 57.54C130.86 57.53 130.84 57.53 130.81 57.52C127.54 56.86 124.19 56.53 120.76 56.53C117.32 56.53 113.97 56.87 110.7 57.52C110.7 57.52 110.7 57.52 110.69 57.52C91.93 60.58 74.23 72.23 63.4 92.5L38.41 139.28L4.57999 202.62C0.759993 209.77 -0.480007 217.2 0.149993 224.65C3.90999 268.72 65.02 264.82 65.02 220.57V211.82V151.33C65.02 151.25 65.03 151.17 65.03 151.09V151.33C65.03 122.21 84.13 97.92 109.52 92.3C113.15 91.5 116.9 91.08 120.75 91.08C136.13 91.08 150.07 97.83 160.16 108.73C170.24 119.63 176.48 134.7 176.48 151.34V211.85V219.94C176.48 263.99 237.38 267.62 240.82 223.72C241.41 216.18 240.13 208.67 236.27 201.43L203.11 139.31Z" fill="#D1D3D4"/>
<path d="M125.07 111.13L96.05 131.3V153.79L125.07 133.62L154.08 153.79V131.3L125.07 111.13Z" fill="#FFA048"/>
<path d="M96.05 168.5V190.99L125.07 170.82L154.08 190.99V168.5L125.07 148.33L96.05 168.5Z" fill="#FFA048"/>
<path d="M96.05 205.7V228.19L125.07 208.02L154.08 228.19V205.7L125.07 185.52L96.05 205.7Z" fill="#FFA048"/>
<path d="M154.63 154.64L125.07 134.09L95.5 154.64V130.82L95.73 130.66L125.06 110.27L125.37 110.49L154.62 130.82V154.64H154.63ZM96.59 131.39V152.56L125.07 132.77L125.38 132.99L153.55 152.57V131.4L125.07 111.61L96.59 131.39Z" fill="#1E344E"/>
<path d="M154.63 191.84L125.07 171.29L95.5 191.84V168.02L95.73 167.86L125.06 147.47L125.37 147.69L154.62 168.02V191.84H154.63ZM96.59 168.59V189.76L125.07 169.96L125.38 170.18L153.55 189.76V168.59L125.07 148.8L96.59 168.59Z" fill="#1E344E"/>
<path d="M154.63 229.04L125.07 208.49L95.5 229.04V205.22L95.73 205.06L125.06 184.67L125.37 184.89L154.62 205.22V229.04H154.63ZM96.59 205.79V226.96L125.07 207.16L125.38 207.38L153.55 226.96V205.79L125.07 186L96.59 205.79Z" fill="#1E344E"/>
<path d="M86.52 46.89C93.72 38.34 103.28 32.17 114.1 29.61C117.76 28.71 121.58 28.25 125.5 28.25C140.95 28.25 154.85 35.44 164.49 46.89L142.78 10.23C141.41 7.90999 139.75 5.98999 137.87 4.46999C128.75 -3.01001 114.92 -1.09001 108.21 10.23L86.52 46.89Z" fill="#298DFE"/>
<path d="M207.94 129.66L182.94 82.8499C172.13 62.6099 154.45 50.9599 135.72 47.8899C135.69 47.8799 135.67 47.8799 135.64 47.8699C132.37 47.2099 129.02 46.8799 125.59 46.8799C122.15 46.8799 118.8 47.2199 115.53 47.8699C115.53 47.8699 115.53 47.8699 115.52 47.8699C96.76 50.9199 79.06 62.5699 68.23 82.8399L43.24 129.62L9.40998 192.97C5.58998 200.12 4.34998 207.55 4.97998 215C8.73998 259.07 69.85 255.17 69.85 210.92V202.17V141.68C69.85 141.6 69.86 141.52 69.86 141.44V141.68C69.86 112.56 88.96 88.2699 114.35 82.6499C117.98 81.8499 121.73 81.4299 125.58 81.4299C140.96 81.4299 154.9 88.1799 164.99 99.0799C175.07 109.98 181.31 125.05 181.31 141.69V202.2V210.29C181.31 254.34 242.21 257.97 245.65 214.07C246.24 206.53 244.96 199.02 241.1 191.78L207.94 129.66Z" fill="#298DFE"/>
<path d="M565.49 242.32C559.06 242.32 553.11 241.14 547.64 238.79C542.16 236.44 537.46 233.16 533.52 228.95C529.58 224.74 526.71 219.83 524.9 214.22L540.24 207.57C542.68 213.36 546.21 217.91 550.83 221.22C555.45 224.52 560.65 226.18 566.44 226.18C569.7 226.18 572.53 225.66 574.93 224.62C577.33 223.58 579.18 222.15 580.5 220.34C581.81 218.53 582.47 216.36 582.47 213.82C582.47 210.83 581.59 208.37 579.82 206.42C578.06 204.47 575.41 202.96 571.88 201.87L552.46 195.62C544.58 193.18 538.65 189.51 534.67 184.62C530.69 179.73 528.7 173.99 528.7 167.38C528.7 161.59 530.13 156.47 532.98 152.04C535.83 147.61 539.81 144.14 544.93 141.65C550.04 139.16 555.9 137.92 562.51 137.92C568.57 137.92 574.14 138.98 579.21 141.11C584.28 143.24 588.65 146.18 592.31 149.94C595.98 153.7 598.71 158.11 600.52 163.18L585.31 169.97C583.32 164.9 580.33 160.99 576.35 158.23C572.37 155.47 567.75 154.09 562.5 154.09C559.42 154.09 556.71 154.61 554.35 155.65C551.99 156.69 550.16 158.14 548.85 160C547.54 161.86 546.88 164.05 546.88 166.59C546.88 169.4 547.78 171.86 549.6 173.99C551.41 176.12 554.17 177.77 557.88 178.95L576.48 184.79C584.54 187.42 590.58 191.04 594.61 195.65C598.64 200.27 600.65 205.97 600.65 212.76C600.65 218.55 599.16 223.67 596.17 228.1C593.18 232.54 589.06 236.02 583.81 238.55C578.57 241.05 572.46 242.32 565.49 242.32Z" fill="#1E344E"/>
<path d="M628.13 240.69L602.74 166.83H621.48L640.08 222.91L633.56 222.77L653.38 166.83H669.13L688.82 222.77L682.3 222.91L700.9 166.83H719.64L694.25 240.69H678.36L658.26 182.17H664.23L643.86 240.69H628.13Z" fill="#1E344E"/>
<path d="M745.41 242.32C740.25 242.32 735.77 241.46 731.97 239.74C728.17 238.02 725.23 235.55 723.14 232.34C721.06 229.13 720.02 225.39 720.02 221.14C720.02 217.07 720.92 213.42 722.74 210.21C724.55 207 727.36 204.3 731.16 202.13C734.96 199.96 739.76 198.42 745.55 197.51L769.72 193.57V207.15L748.95 210.68C745.42 211.31 742.79 212.45 741.07 214.07C739.35 215.7 738.49 217.83 738.49 220.45C738.49 222.99 739.46 225 741.41 226.49C743.36 227.98 745.78 228.73 748.67 228.73C752.38 228.73 755.66 227.94 758.51 226.35C761.36 224.77 763.58 222.57 765.16 219.76C766.74 216.96 767.54 213.88 767.54 210.53V191.52C767.54 188.35 766.3 185.7 763.81 183.58C761.32 181.45 758.04 180.39 753.97 180.39C750.17 180.39 746.8 181.41 743.85 183.45C740.91 185.49 738.76 188.18 737.4 191.53L722.87 184.47C724.32 180.58 726.6 177.21 729.73 174.35C732.85 171.5 736.54 169.26 740.8 167.63C745.05 166 749.67 165.19 754.65 165.19C760.71 165.19 766.06 166.3 770.67 168.52C775.29 170.74 778.88 173.82 781.46 177.75C784.04 181.69 785.33 186.28 785.33 191.53V240.68H768.49V228.05L772.29 227.78C770.39 230.95 768.13 233.6 765.5 235.72C762.87 237.85 759.89 239.48 756.54 240.61C753.19 241.76 749.48 242.32 745.41 242.32Z" fill="#1E344E"/>
<path d="M793.77 267.85V166.83H810.47V181.49L808.84 177.82C811.37 173.84 814.81 170.74 819.16 168.52C823.51 166.3 828.53 165.19 834.23 165.19C841.2 165.19 847.49 166.91 853.1 170.35C858.71 173.79 863.17 178.41 866.48 184.2C869.78 189.99 871.44 196.51 871.44 203.75C871.44 210.9 869.81 217.42 866.55 223.3C863.29 229.19 858.85 233.82 853.24 237.22C847.63 240.62 841.25 242.31 834.1 242.31C828.76 242.31 823.85 241.24 819.37 239.12C814.89 236.99 811.34 233.94 808.71 229.95L811.56 226.42V267.83H793.77V267.85ZM832.06 226.03C836.13 226.03 839.75 225.08 842.92 223.18C846.09 221.28 848.55 218.65 850.32 215.3C852.09 211.95 852.97 208.1 852.97 203.76C852.97 199.41 852.09 195.59 850.32 192.29C848.55 188.99 846.09 186.36 842.92 184.41C839.75 182.46 836.13 181.49 832.06 181.49C828.17 181.49 824.66 182.44 821.54 184.34C818.42 186.24 815.97 188.89 814.21 192.28C812.44 195.67 811.56 199.5 811.56 203.75C811.56 208.09 812.44 211.94 814.21 215.29C815.97 218.64 818.42 221.26 821.54 223.17C824.66 225.08 828.16 226.03 832.06 226.03Z" fill="#1E344E"/>
<path d="M251.58 241.65V102.36H305.81C315.73 102.36 324.51 104.07 332.14 107.5C339.77 110.93 345.75 115.91 350.05 122.46C354.36 129 356.51 136.95 356.51 146.3C356.51 155.9 354.13 164.06 349.36 170.79C344.59 177.52 338.17 182.51 330.07 185.75L363.55 241.65H333.4L297.57 180.51L314.8 190.23H278.19V241.65H251.58ZM278.21 167.8H306.21C311.04 167.8 315.22 166.9 318.74 165.09C322.26 163.28 325.01 160.76 326.96 157.52C328.92 154.28 329.9 150.54 329.9 146.3C329.9 141.94 328.92 138.17 326.96 134.99C325 131.81 322.26 129.32 318.74 127.51C315.22 125.7 311.04 124.8 306.21 124.8H278.21V167.8Z" fill="#298DFE"/>
<path d="M372 241.65V102.36H397.45L452.07 173.22H439.93L493.38 102.36H518.83V241.65H492.01V131.34L502.39 133.77L446.98 204.26H443.85L389.81 133.77L398.62 131.34V241.65H372Z" fill="#298DFE"/>
</g>
<defs>
<clipPath id="clip0_8043_20652">
<rect width="871.43" height="267.85" fill="white"/>
</clipPath>
</defs>
</svg>
