<svg width="48" height="48" viewBox="0 0 48 48" fill="none" xmlns="http://www.w3.org/2000/svg">
<rect width="48" height="48" rx="24" fill="#34BA59"/>
<path d="M33.75 15.8758V28.0633C33.7493 28.1789 33.724 28.2931 33.6757 28.3982C33.6273 28.5033 33.5571 28.5969 33.4697 28.6726C31.9178 30.0163 30.434 30.5008 29.0192 30.5008C27.0987 30.5008 25.3051 29.6131 23.6364 28.7894C20.9399 27.4539 18.5959 26.2971 15.875 28.4461V32.9383C15.875 33.1537 15.7894 33.3604 15.637 33.5128C15.4847 33.6652 15.278 33.7508 15.0625 33.7508C14.847 33.7508 14.6403 33.6652 14.488 33.5128C14.3356 33.3604 14.25 33.1537 14.25 32.9383V15.8758C14.2508 15.76 14.2763 15.6458 14.3248 15.5407C14.3733 15.4356 14.4437 15.3421 14.5313 15.2664C18.1876 12.0997 21.4691 13.7216 24.3616 15.1526C27.1484 16.5318 29.5646 17.7242 32.4053 15.2664C32.5227 15.1646 32.6669 15.0986 32.8206 15.0763C32.9744 15.0539 33.1314 15.0761 33.2729 15.1403C33.4144 15.2044 33.5346 15.3078 33.6192 15.4381C33.7037 15.5685 33.7491 15.7204 33.75 15.8758Z" fill="white"/>
</svg>
