<svg width="49" height="48" viewBox="0 0 49 48" fill="none" xmlns="http://www.w3.org/2000/svg">
<rect x="0.800049" width="48" height="48" rx="24" fill="#34BA59"/>
<path d="M34.55 15.8758V28.0633C34.5494 28.1789 34.5241 28.2931 34.4757 28.3982C34.4274 28.5033 34.3571 28.5969 34.2697 28.6726C32.7179 30.0163 31.234 30.5008 29.8193 30.5008C27.8987 30.5008 26.1051 29.6131 24.4365 28.7894C21.74 27.4539 19.3959 26.2971 16.675 28.4461V32.9383C16.675 33.1537 16.5894 33.3604 16.4371 33.5128C16.2847 33.6652 16.078 33.7508 15.8625 33.7508C15.6471 33.7508 15.4404 33.6652 15.288 33.5128C15.1357 33.3604 15.05 33.1537 15.05 32.9383V15.8758C15.0508 15.76 15.0763 15.6458 15.1248 15.5407C15.1734 15.4356 15.2438 15.3421 15.3314 15.2664C18.9876 12.0997 22.2691 13.7216 25.1616 15.1526C27.9485 16.5318 30.3647 17.7242 33.2054 15.2664C33.3228 15.1646 33.4669 15.0986 33.6207 15.0763C33.7744 15.0539 33.9314 15.0761 34.0729 15.1403C34.2145 15.2044 34.3346 15.3078 34.4192 15.4381C34.5038 15.5685 34.5492 15.7204 34.55 15.8758Z" fill="white"/>
</svg>
