<svg width="49" height="48" viewBox="0 0 49 48" fill="none" xmlns="http://www.w3.org/2000/svg">
<rect x="0.200012" width="48" height="48" rx="24" fill="#FFA048"/>
<path d="M32.325 14.25H29.8875V13.4375C29.8875 13.222 29.8019 13.0153 29.6495 12.863C29.4972 12.7106 29.2905 12.625 29.075 12.625C28.8595 12.625 28.6529 12.7106 28.5005 12.863C28.3481 13.0153 28.2625 13.222 28.2625 13.4375V14.25H20.1375V13.4375C20.1375 13.222 20.0519 13.0153 19.8995 12.863C19.7472 12.7106 19.5405 12.625 19.325 12.625C19.1095 12.625 18.9029 12.7106 18.7505 12.863C18.5981 13.0153 18.5125 13.222 18.5125 13.4375V14.25H16.075C15.644 14.25 15.2307 14.4212 14.926 14.726C14.6212 15.0307 14.45 15.444 14.45 15.875V32.125C14.45 32.556 14.6212 32.9693 14.926 33.274C15.2307 33.5788 15.644 33.75 16.075 33.75H32.325C32.756 33.75 33.1693 33.5788 33.4741 33.274C33.7788 32.9693 33.95 32.556 33.95 32.125V15.875C33.95 15.444 33.7788 15.0307 33.4741 14.726C33.1693 14.4212 32.756 14.25 32.325 14.25ZM32.325 19.125H16.075V15.875H18.5125V16.6875C18.5125 16.903 18.5981 17.1097 18.7505 17.262C18.9029 17.4144 19.1095 17.5 19.325 17.5C19.5405 17.5 19.7472 17.4144 19.8995 17.262C20.0519 17.1097 20.1375 16.903 20.1375 16.6875V15.875H28.2625V16.6875C28.2625 16.903 28.3481 17.1097 28.5005 17.262C28.6529 17.4144 28.8595 17.5 29.075 17.5C29.2905 17.5 29.4972 17.4144 29.6495 17.262C29.8019 17.1097 29.8875 16.903 29.8875 16.6875V15.875H32.325V19.125Z" fill="white"/>
</svg>
