<svg width="48" height="48" viewBox="0 0 48 48" fill="none" xmlns="http://www.w3.org/2000/svg">
<rect width="48" height="48" rx="24" fill="#FFA048"/>
<path d="M32.125 14.25H29.6875V13.4375C29.6875 13.222 29.6019 13.0153 29.4495 12.863C29.2972 12.7106 29.0905 12.625 28.875 12.625C28.6595 12.625 28.4528 12.7106 28.3005 12.863C28.1481 13.0153 28.0625 13.222 28.0625 13.4375V14.25H19.9375V13.4375C19.9375 13.222 19.8519 13.0153 19.6995 12.863C19.5472 12.7106 19.3405 12.625 19.125 12.625C18.9095 12.625 18.7028 12.7106 18.5505 12.863C18.3981 13.0153 18.3125 13.222 18.3125 13.4375V14.25H15.875C15.444 14.25 15.0307 14.4212 14.726 14.726C14.4212 15.0307 14.25 15.444 14.25 15.875V32.125C14.25 32.556 14.4212 32.9693 14.726 33.274C15.0307 33.5788 15.444 33.75 15.875 33.75H32.125C32.556 33.75 32.9693 33.5788 33.274 33.274C33.5788 32.9693 33.75 32.556 33.75 32.125V15.875C33.75 15.444 33.5788 15.0307 33.274 14.726C32.9693 14.4212 32.556 14.25 32.125 14.25ZM32.125 19.125H15.875V15.875H18.3125V16.6875C18.3125 16.903 18.3981 17.1097 18.5505 17.262C18.7028 17.4144 18.9095 17.5 19.125 17.5C19.3405 17.5 19.5472 17.4144 19.6995 17.262C19.8519 17.1097 19.9375 16.903 19.9375 16.6875V15.875H28.0625V16.6875C28.0625 16.903 28.1481 17.1097 28.3005 17.262C28.4528 17.4144 28.6595 17.5 28.875 17.5C29.0905 17.5 29.2972 17.4144 29.4495 17.262C29.6019 17.1097 29.6875 16.903 29.6875 16.6875V15.875H32.125V19.125Z" fill="white"/>
</svg>
