<svg width="56" height="56" viewBox="0 0 56 56" fill="none" xmlns="http://www.w3.org/2000/svg">
<rect width="56" height="56" rx="28" fill="#BFDDFF"/>
<path d="M26.2498 29.75L38.4998 17.5M26.3986 30.1327L29.4647 38.017C29.7349 38.7116 29.8699 39.0589 30.0645 39.1603C30.2332 39.2482 30.4342 39.2483 30.603 39.1606C30.7977 39.0594 30.9332 38.7123 31.2041 38.0181L38.8928 18.3157C39.1374 17.689 39.2597 17.3756 39.1928 17.1754C39.1347 17.0015 38.9982 16.865 38.8243 16.8069C38.6241 16.7401 38.3107 16.8623 37.684 17.1069L17.9817 24.7956C17.2874 25.0666 16.9403 25.202 16.8391 25.3968C16.7514 25.5656 16.7515 25.7665 16.8394 25.9352C16.9408 26.1298 17.2881 26.2649 17.9827 26.535L25.867 29.6011C26.008 29.6559 26.0785 29.6834 26.1379 29.7257C26.1905 29.7632 26.2365 29.8092 26.274 29.8619C26.3164 29.9212 26.3438 29.9917 26.3986 30.1327Z" stroke="#298DFE" stroke-width="2" stroke-linecap="round" stroke-linejoin="round"/>
</svg>
