<svg width="592" height="38" viewBox="0 0 592 38" fill="none" xmlns="http://www.w3.org/2000/svg">
<path d="M0.2 27L5.7 11.74H8.32L13.82 27H11.38L10.2 23.56H3.84L2.66 27H0.2ZM9.48 21.48L7.54 15.82C7.42 15.4333 7.32667 15.1067 7.26 14.84C7.20667 14.5733 7.18 14.3067 7.18 14.04H6.86C6.86 14.3067 6.82667 14.5733 6.76 14.84C6.70667 15.1067 6.62 15.4333 6.5 15.82L4.56 21.48H9.48ZM15.363 15.86H17.563V16.4C17.563 16.6 17.543 16.7667 17.503 16.9C17.463 17.02 17.3963 17.1467 17.303 17.28L17.583 17.46C18.0096 16.8067 18.483 16.34 19.003 16.06C19.5363 15.78 20.1896 15.64 20.963 15.64H21.183V17.8H20.583C19.6896 17.8 18.9963 18.0467 18.503 18.54C17.8763 19.14 17.563 20.1267 17.563 21.5V27H15.363V15.86ZM22.902 15.86H25.102V16.4C25.102 16.6 25.082 16.7667 25.042 16.9C25.002 17.02 24.9354 17.1467 24.842 17.28L25.122 17.46C25.5754 16.8067 26.0487 16.34 26.542 16.06C27.0354 15.78 27.6087 15.64 28.262 15.64C28.9687 15.64 29.5954 15.8067 30.142 16.14C30.702 16.46 31.042 16.9333 31.162 17.56H31.422C31.942 16.28 33.022 15.64 34.662 15.64C35.902 15.64 36.8287 15.9933 37.442 16.7C38.0554 17.4067 38.362 18.4133 38.362 19.72V27H36.162V20.08C36.162 19.2267 35.9887 18.5867 35.642 18.16C35.2954 17.72 34.802 17.5 34.162 17.5C33.5087 17.5 32.982 17.7133 32.582 18.14C32.262 18.4867 32.0354 18.9333 31.902 19.48C31.782 20.0133 31.722 20.7 31.722 21.54V27H29.542V20.08C29.542 19.2533 29.362 18.62 29.002 18.18C28.642 17.7267 28.142 17.5 27.502 17.5C26.862 17.5 26.342 17.7333 25.942 18.2C25.6487 18.5067 25.4354 18.9267 25.302 19.46C25.1687 19.98 25.102 20.6733 25.102 21.54V27H22.902V15.86ZM45.5894 27.22C44.1894 27.22 43.016 26.8867 42.0694 26.22C41.136 25.54 40.576 24.58 40.3894 23.34H42.6094C42.7694 23.9933 43.096 24.5 43.5894 24.86C44.096 25.22 44.7627 25.4 45.5894 25.4C46.2694 25.4 46.816 25.2733 47.2294 25.02C47.6427 24.7533 47.8494 24.38 47.8494 23.9C47.8494 23.5267 47.7227 23.2333 47.4694 23.02C47.216 22.7933 46.896 22.62 46.5094 22.5C46.1227 22.38 45.6094 22.2533 44.9694 22.12C44.0894 21.9467 43.376 21.7667 42.8294 21.58C42.2827 21.3933 41.816 21.0867 41.4294 20.66C41.0427 20.2333 40.8494 19.6467 40.8494 18.9C40.8494 17.8467 41.2427 17.04 42.0294 16.48C42.816 15.92 43.816 15.64 45.0294 15.64C46.2827 15.64 47.3294 15.9667 48.1694 16.62C49.0094 17.26 49.5294 18.1533 49.7294 19.3H47.6694C47.5094 18.6733 47.196 18.2067 46.7294 17.9C46.2627 17.5933 45.696 17.44 45.0294 17.44C44.3894 17.44 43.8894 17.56 43.5294 17.8C43.1694 18.04 42.9894 18.3667 42.9894 18.78C42.9894 19.1133 43.1094 19.38 43.3494 19.58C43.5894 19.7667 43.8827 19.9133 44.2294 20.02C44.5894 20.1267 45.0894 20.24 45.7294 20.36C46.636 20.5333 47.376 20.72 47.9494 20.92C48.5227 21.1067 49.0094 21.4267 49.4094 21.88C49.8227 22.32 50.0294 22.9333 50.0294 23.72C50.0294 24.7867 49.636 25.64 48.8494 26.28C48.0627 26.9067 46.976 27.22 45.5894 27.22ZM51.3375 15.86H53.6975L55.4775 22.44C55.5442 22.7067 55.5908 22.9733 55.6175 23.24C55.6575 23.5067 55.6842 23.7933 55.6975 24.1H55.9375C55.9642 23.6867 55.9908 23.3733 56.0175 23.16C56.0442 22.9467 56.0975 22.7067 56.1775 22.44L58.2775 15.86H60.2175L62.2975 22.44C62.3775 22.72 62.4308 22.98 62.4575 23.22C62.4975 23.4467 62.5242 23.74 62.5375 24.1H62.7975C62.8108 23.7267 62.8242 23.4267 62.8375 23.2C62.8642 22.9733 62.9175 22.72 62.9975 22.44L64.8175 15.86H67.1775L63.7775 27H61.7175L59.6375 20.2C59.5442 19.8933 59.4842 19.64 59.4575 19.44C59.4308 19.2267 59.4042 18.9333 59.3775 18.56H59.1375C59.1108 18.9067 59.0775 19.1933 59.0375 19.42C59.0108 19.6333 58.9508 19.8933 58.8575 20.2L56.7375 27H54.6775L51.3375 15.86ZM72.0781 27.22C70.9848 27.22 70.1048 26.9333 69.4381 26.36C68.7715 25.7733 68.4381 24.98 68.4381 23.98C68.4381 22.9533 68.8381 22.1467 69.6381 21.56C70.2381 21.12 71.0981 20.7933 72.2181 20.58L75.8581 19.88C75.8581 19.1333 75.6515 18.54 75.2381 18.1C74.7981 17.66 74.2115 17.44 73.4781 17.44C72.8781 17.44 72.3515 17.6133 71.8981 17.96C71.4581 18.2933 71.1781 18.7467 71.0581 19.32H68.8781C69.0648 18.1467 69.5915 17.24 70.4581 16.6C71.3248 15.96 72.3381 15.64 73.4981 15.64C74.1515 15.64 74.7648 15.74 75.3381 15.94C75.9248 16.1267 76.4181 16.4067 76.8181 16.78C77.3515 17.2733 77.6848 17.8533 77.8181 18.52C77.9648 19.1867 78.0381 19.9533 78.0381 20.82V27H75.8381V26.58C75.8381 26.3 75.9181 25.9333 76.0781 25.48L75.7981 25.34C75.5048 25.8467 75.1248 26.26 74.6581 26.58C74.0448 27.0067 73.1848 27.22 72.0781 27.22ZM72.5181 25.4C73.1048 25.4 73.6381 25.28 74.1181 25.04C74.6648 24.7733 75.0715 24.4067 75.3381 23.94C75.4848 23.6867 75.5915 23.4533 75.6581 23.24C75.7248 23.0133 75.7981 22.7133 75.8781 22.34C75.9181 22.1667 75.9715 22.04 76.0381 21.96C76.1048 21.8667 76.1981 21.8133 76.3181 21.8L76.2581 21.48L73.9381 21.96L72.7381 22.18C71.9648 22.34 71.4048 22.58 71.0581 22.9C70.7781 23.18 70.6381 23.52 70.6381 23.92C70.6381 24.3867 70.8048 24.7533 71.1381 25.02C71.4848 25.2733 71.9448 25.4 72.5181 25.4ZM86.1978 15.64C87.1711 15.64 88.0311 15.8867 88.7778 16.38C89.5245 16.86 90.0978 17.54 90.4978 18.42C90.9111 19.3 91.1178 20.3 91.1178 21.42C91.1178 22.5533 90.9111 23.56 90.4978 24.44C90.0978 25.32 89.5245 26.0067 88.7778 26.5C88.0311 26.98 87.1711 27.22 86.1978 27.22C85.4378 27.22 84.7978 27.08 84.2778 26.8C83.7711 26.52 83.2778 26.0467 82.7978 25.38L82.5178 25.58C82.6245 25.7 82.6978 25.8267 82.7378 25.96C82.7778 26.0933 82.7978 26.26 82.7978 26.46V31.12H80.5978V15.86H82.7978V16.4C82.7978 16.6 82.7778 16.7667 82.7378 16.9C82.6978 17.02 82.6245 17.1467 82.5178 17.28L82.7978 17.48C83.2778 16.8133 83.7711 16.34 84.2778 16.06C84.7978 15.78 85.4378 15.64 86.1978 15.64ZM85.7978 17.56C85.1845 17.56 84.6311 17.7267 84.1378 18.06C83.6578 18.38 83.2778 18.8333 82.9978 19.42C82.7311 20.0067 82.5978 20.6733 82.5978 21.42C82.5978 22.1667 82.7311 22.84 82.9978 23.44C83.2778 24.0267 83.6578 24.4867 84.1378 24.82C84.6311 25.14 85.1845 25.3 85.7978 25.3C86.7445 25.3 87.4978 24.94 88.0578 24.22C88.6311 23.4867 88.9178 22.5533 88.9178 21.42C88.9178 20.2867 88.6311 19.36 88.0578 18.64C87.4978 17.92 86.7445 17.56 85.7978 17.56ZM102.66 27V13.86H97.7595V11.74H109.94V13.86H105.02V27H102.66ZM110.031 15.86H112.231V16.4C112.231 16.6 112.211 16.7667 112.171 16.9C112.131 17.02 112.064 17.1467 111.971 17.28L112.251 17.46C112.678 16.8067 113.151 16.34 113.671 16.06C114.204 15.78 114.858 15.64 115.631 15.64H115.851V17.8H115.251C114.358 17.8 113.664 18.0467 113.171 18.54C112.544 19.14 112.231 20.1267 112.231 21.5V27H110.031V15.86ZM122.357 27.22C121.277 27.22 120.317 26.9733 119.477 26.48C118.637 25.9733 117.984 25.2867 117.517 24.42C117.05 23.54 116.817 22.56 116.817 21.48C116.817 20.4667 117.024 19.5133 117.437 18.62C117.864 17.7267 118.49 17.0067 119.317 16.46C120.144 15.9133 121.137 15.64 122.297 15.64C123.284 15.64 124.19 15.8533 125.017 16.28C125.857 16.7067 126.53 17.3467 127.037 18.2C127.544 19.04 127.797 20.0667 127.797 21.28V21.88H120.277C119.624 21.88 119.157 21.86 118.877 21.82L118.797 22.14C118.917 22.1667 118.997 22.22 119.037 22.3C119.09 22.3667 119.144 22.4733 119.197 22.62C119.224 22.7267 119.284 22.88 119.377 23.08C119.644 23.76 120.044 24.3 120.577 24.7C121.11 25.1 121.717 25.3 122.397 25.3C123.104 25.3 123.71 25.12 124.217 24.76C124.724 24.3867 125.09 23.9133 125.317 23.34H127.617C127.244 24.4867 126.61 25.42 125.717 26.14C124.837 26.86 123.717 27.22 122.357 27.22ZM119.157 20.44C119.344 20.32 119.517 20.2333 119.677 20.18C119.837 20.1267 120.017 20.1 120.217 20.1H124.437C124.664 20.1 124.857 20.1267 125.017 20.18C125.19 20.2333 125.377 20.32 125.577 20.44L125.777 20.18C125.657 20.1 125.577 20.0333 125.537 19.98C125.497 19.9133 125.464 19.8267 125.437 19.72C125.41 19.5333 125.324 19.3067 125.177 19.04C124.91 18.5333 124.524 18.1467 124.017 17.88C123.524 17.6 122.977 17.46 122.377 17.46C121.75 17.46 121.197 17.6 120.717 17.88C120.237 18.1467 119.857 18.5333 119.577 19.04C119.457 19.24 119.364 19.4667 119.297 19.72C119.27 19.8267 119.237 19.9133 119.197 19.98C119.17 20.0467 119.097 20.1133 118.977 20.18L119.157 20.44ZM129.972 15.86H132.172V16.4C132.172 16.6 132.152 16.7667 132.112 16.9C132.072 17.02 132.006 17.1467 131.912 17.28L132.192 17.46C132.646 16.8067 133.119 16.34 133.612 16.06C134.106 15.78 134.679 15.64 135.332 15.64C136.999 15.64 138.126 16.24 138.712 17.44C138.939 17.88 139.079 18.3333 139.132 18.8C139.186 19.2533 139.212 19.8 139.212 20.44V27H137.012V20.42C137.012 19.2867 136.819 18.5 136.432 18.06C136.072 17.6867 135.552 17.5 134.872 17.5C134.059 17.5 133.432 17.7533 132.992 18.26C132.699 18.58 132.486 19.0133 132.352 19.56C132.232 20.1067 132.172 20.8467 132.172 21.78V27H129.972V15.86ZM146.289 27.22C145.316 27.22 144.456 26.98 143.709 26.5C142.963 26.0067 142.383 25.32 141.969 24.44C141.569 23.56 141.369 22.56 141.369 21.44C141.369 20.3067 141.569 19.3 141.969 18.42C142.383 17.54 142.963 16.86 143.709 16.38C144.456 15.8867 145.316 15.64 146.289 15.64C147.049 15.64 147.683 15.78 148.189 16.06C148.709 16.34 149.209 16.8067 149.689 17.46L149.969 17.28C149.783 17.04 149.689 16.7467 149.689 16.4V11.74H151.889V27H149.689V26.46C149.689 26.26 149.709 26.1 149.749 25.98C149.789 25.8467 149.863 25.7133 149.969 25.58L149.689 25.38C149.209 26.0467 148.709 26.52 148.189 26.8C147.683 27.08 147.049 27.22 146.289 27.22ZM146.689 25.3C147.303 25.3 147.849 25.14 148.329 24.82C148.823 24.4867 149.203 24.0267 149.469 23.44C149.749 22.8533 149.889 22.1867 149.889 21.44C149.889 20.6933 149.749 20.0267 149.469 19.44C149.203 18.84 148.823 18.38 148.329 18.06C147.849 17.7267 147.303 17.56 146.689 17.56C145.743 17.56 144.983 17.9267 144.409 18.66C143.849 19.38 143.569 20.3067 143.569 21.44C143.569 22.5733 143.849 23.5 144.409 24.22C144.983 24.94 145.743 25.3 146.689 25.3ZM154.543 27V15.86H156.743V27H154.543ZM155.643 14.3C155.243 14.3 154.896 14.1667 154.603 13.9C154.309 13.6333 154.163 13.3 154.163 12.9C154.163 12.5 154.309 12.1667 154.603 11.9C154.896 11.6333 155.243 11.5 155.643 11.5C156.056 11.5 156.403 11.6333 156.683 11.9C156.976 12.1667 157.123 12.5 157.123 12.9C157.123 13.3 156.976 13.6333 156.683 13.9C156.403 14.1667 156.056 14.3 155.643 14.3ZM159.386 15.86H161.586V16.4C161.586 16.6 161.566 16.7667 161.526 16.9C161.486 17.02 161.42 17.1467 161.326 17.28L161.606 17.46C162.06 16.8067 162.533 16.34 163.026 16.06C163.52 15.78 164.093 15.64 164.746 15.64C166.413 15.64 167.54 16.24 168.126 17.44C168.353 17.88 168.493 18.3333 168.546 18.8C168.6 19.2533 168.626 19.8 168.626 20.44V27H166.426V20.42C166.426 19.2867 166.233 18.5 165.846 18.06C165.486 17.6867 164.966 17.5 164.286 17.5C163.473 17.5 162.846 17.7533 162.406 18.26C162.113 18.58 161.9 19.0133 161.766 19.56C161.646 20.1067 161.586 20.8467 161.586 21.78V27H159.386V15.86ZM176.203 31.32C174.897 31.32 173.777 31.0467 172.843 30.5C171.91 29.9533 171.337 29.04 171.123 27.76H173.363C173.537 28.36 173.85 28.8 174.303 29.08C174.77 29.3733 175.397 29.52 176.183 29.52C177.183 29.52 177.923 29.2933 178.403 28.84C178.883 28.3867 179.123 27.7467 179.123 26.92V26.34C179.123 26.1133 179.137 25.9467 179.163 25.84C179.203 25.72 179.283 25.5933 179.403 25.46L179.123 25.26C178.643 25.9267 178.15 26.4 177.643 26.68C177.137 26.96 176.497 27.1 175.723 27.1C174.75 27.1 173.89 26.86 173.143 26.38C172.397 25.8867 171.817 25.2067 171.403 24.34C171.003 23.4733 170.803 22.4933 170.803 21.4C170.803 20.28 171.003 19.2867 171.403 18.42C171.817 17.54 172.397 16.86 173.143 16.38C173.89 15.8867 174.75 15.64 175.723 15.64C176.497 15.64 177.137 15.78 177.643 16.06C178.15 16.34 178.643 16.8067 179.123 17.46L179.403 17.28C179.217 17.04 179.123 16.7467 179.123 16.4V15.86H181.323V26.44C181.323 28.2 180.87 29.4533 179.963 30.2C179.057 30.9467 177.803 31.32 176.203 31.32ZM176.123 25.18C176.737 25.18 177.283 25.02 177.763 24.7C178.257 24.3667 178.637 23.9133 178.903 23.34C179.183 22.7533 179.323 22.0933 179.323 21.36C179.323 20.64 179.183 19.9933 178.903 19.42C178.637 18.8333 178.257 18.38 177.763 18.06C177.283 17.7267 176.737 17.56 176.123 17.56C175.19 17.56 174.437 17.92 173.863 18.64C173.29 19.36 173.003 20.2667 173.003 21.36C173.003 22.4667 173.283 23.38 173.843 24.1C174.417 24.82 175.177 25.18 176.123 25.18Z" fill="#298DFE"/>
<line x1="199" y1="18" x2="592" y2="18" stroke="#298DFE" stroke-width="2"/>
</svg>
