<svg width="220" height="220" viewBox="0 0 220 220" fill="none" xmlns="http://www.w3.org/2000/svg">
<g clip-path="url(#clip0_5505_10258)">
<path d="M110 220C170.751 220 220 170.751 220 110C220 49.2487 170.751 0 110 0C49.2487 0 0 49.2487 0 110C0 170.751 49.2487 220 110 220Z" fill="white"/>
<path d="M44.4648 78.6405V141.36C44.4648 145.392 46.5768 149.04 50.0968 151.088L104.433 182.448C107.889 184.432 112.177 184.432 115.633 182.448L169.969 151.088C173.425 149.104 175.601 145.392 175.601 141.36V78.6405C175.601 74.6085 173.489 70.9605 169.969 68.9125L115.633 37.5525C112.177 35.5685 107.889 35.5685 104.433 37.5525L50.0968 68.9125C46.6408 70.8965 44.5288 74.6085 44.5288 78.6405H44.4648Z" fill="#213147"/>
<path d="M121.841 122.161L114.097 143.409C113.905 143.985 113.905 144.625 114.097 145.265L127.409 181.809L142.833 172.913L124.337 122.161C123.889 121.009 122.289 121.009 121.841 122.161Z" fill="#12AAFF"/>
<path d="M137.392 86.448C136.944 85.296 135.344 85.296 134.896 86.448L127.152 107.696C126.96 108.272 126.96 108.912 127.152 109.552L148.976 169.392L164.4 160.496L137.392 86.512V86.448Z" fill="#12AAFF"/>
<path d="M110.001 39.92C110.385 39.92 110.769 40.048 111.089 40.24L169.841 74.16C170.545 74.544 170.929 75.312 170.929 76.08V143.92C170.929 144.688 170.481 145.456 169.841 145.84L111.089 179.76C110.769 179.952 110.385 180.08 110.001 180.08C109.617 180.08 109.233 179.952 108.913 179.76L50.1614 145.84C49.4574 145.456 49.0734 144.688 49.0734 143.92V76.016C49.0734 75.248 49.5214 74.48 50.1614 74.096L108.913 40.176C109.233 39.984 109.617 39.856 110.001 39.856V39.92ZM110.001 30C107.889 30 105.841 30.512 103.921 31.6L45.1694 65.52C41.3934 67.696 39.0894 71.664 39.0894 76.016V143.856C39.0894 148.208 41.3934 152.176 45.1694 154.352L103.921 188.272C105.777 189.36 107.889 189.872 110.001 189.872C112.113 189.872 114.161 189.36 116.081 188.272L174.833 154.352C178.609 152.176 180.913 148.208 180.913 143.856V76.016C180.913 71.664 178.609 67.696 174.833 65.52L116.017 31.6C114.161 30.512 112.049 30 109.937 30H110.001Z" fill="#9DCCED"/>
<path d="M71.0894 169.455L76.5294 154.607L87.4094 163.631L77.2334 172.975L71.0894 169.455Z" fill="#213147"/>
<path d="M105.009 71.2163H90.0965C89.0085 71.2163 87.9845 71.9203 87.6005 72.9443L55.6646 160.496L71.0885 169.392L106.289 72.9443C106.609 72.0483 105.969 71.1523 105.073 71.1523L105.009 71.2163Z" fill="white"/>
<path d="M131.12 71.2163H116.208C115.12 71.2163 114.096 71.9203 113.712 72.9443L77.2324 172.912L92.6564 181.808L132.336 72.9443C132.656 72.0483 132.016 71.1523 131.12 71.1523V71.2163Z" fill="white"/>
</g>
<defs>
<clipPath id="clip0_5505_10258">
<rect width="220" height="220" fill="white"/>
</clipPath>
</defs>
</svg>
