<svg width="220" height="220" viewBox="0 0 220 220" fill="none" xmlns="http://www.w3.org/2000/svg">
<g clip-path="url(#clip0_5505_10334)">
<path d="M109.79 0.000152324C170.31 -0.0998477 219.94 49.0502 220 109.15C220.07 170.27 171.19 219.95 110.94 219.99C49.4 220.03 0.0500381 171.18 3.8138e-05 110.15C-0.0499619 49.3802 49.07 0.100152 109.79 0.000152324Z" fill="#FBFB04"/>
<path d="M48.5202 156.779C48.8402 152.909 50.5502 149.419 51.6902 145.789C57.9002 126.169 64.2002 106.579 70.4702 86.9794C71.4602 83.8794 71.4702 83.8794 74.2902 85.7494C78.2602 88.3794 82.1902 91.0694 86.1902 93.6394C87.4802 94.4694 87.9902 95.1494 87.4502 96.8494C83.2602 109.909 79.2602 123.029 75.0902 136.089C74.4202 138.199 74.5402 138.899 77.0302 138.889C97.2902 138.799 117.54 138.819 137.8 138.889C139.68 138.899 140.53 138.329 141.13 136.539C143.24 130.199 145.48 123.909 147.8 117.649C148.51 115.739 148.01 115.459 146.15 115.469C131.85 115.539 117.55 115.459 103.26 115.559C100.86 115.579 100.26 115.149 101.11 112.739C102.24 109.549 103.11 106.259 103.79 102.949C104.21 100.939 105.04 100.339 107.09 100.349C121.66 100.429 136.24 100.319 150.81 100.439C153.25 100.459 154.4 99.7694 155 97.3994C156.15 92.7994 157.47 88.2294 158.9 83.6994C159.58 81.5494 159.01 81.1094 156.87 81.1094C131.85 81.1794 106.83 81.1494 81.8102 81.1494C68.8002 81.1494 55.7802 81.1694 42.7702 81.1694C41.7002 81.1694 40.6202 81.1694 39.4702 80.8994C46.3502 75.2494 53.7802 70.4794 60.5602 64.8594C62.1302 63.2394 64.0502 62.9194 66.2702 62.9294C99.1602 62.9894 132.05 62.9694 164.93 62.9894C166 62.9894 167.13 62.6594 168.15 63.2994C168.74 63.7094 169.33 64.1194 169.92 64.5294C171.58 65.3194 173.05 66.3494 174.22 67.7894C176.6 69.5794 178.95 71.4294 181.39 73.1394C182.44 73.8694 182.89 74.4894 182.41 75.8294C179.92 82.7094 177.48 89.5994 175.11 96.5194C174.68 97.7694 173.73 98.0794 172.74 98.5494C165.73 101.839 158.72 105.159 151.35 108.649C155.71 112.219 159.71 115.679 163.93 118.859C165.94 120.379 166.34 121.729 165.46 124.109C163.13 130.459 161.06 136.909 158.99 143.359C158.45 145.039 157.61 146.109 155.97 146.899C149.39 150.099 142.9 153.479 136.37 156.789C135.6 157.219 134.76 157.029 133.95 157.029C106.3 157.039 78.6502 157.039 51.0002 157.029C50.1402 157.009 49.3002 157.189 48.5202 156.779Z" fill="black"/>
</g>
<defs>
<clipPath id="clip0_5505_10334">
<rect width="220" height="219.99" fill="white"/>
</clipPath>
</defs>
</svg>
