<svg width="220" height="220" viewBox="0 0 220 220" fill="none" xmlns="http://www.w3.org/2000/svg">
<g clip-path="url(#clip0_5505_10370)">
<path d="M3.81457e-05 110.1C-0.0499619 49.2601 49.06 0.0600548 109.92 5.48308e-05C170.73 -0.0599452 219.99 49.1301 220 109.92C220.01 170.88 170.88 220 109.92 220C49.2 220 0.0500381 170.85 3.81457e-05 110.1Z" fill="#CC0124"/>
<path d="M101.47 180.799C101.49 179.709 102.02 177.879 103.31 176.359C103.91 175.649 104.02 175.099 103.62 174.239C96.7201 159.269 89.8501 144.289 83.0001 129.289C82.6301 128.479 82.1301 128.109 81.2501 127.879C75.7501 126.479 73.0502 120.659 75.5502 115.569C75.9802 114.689 76.0202 114.039 75.6202 113.159C69.3002 99.4394 63.0002 85.6894 56.7202 71.9394C56.2802 70.9894 55.8202 70.5694 54.6802 70.5294C50.5602 70.4194 47.3201 67.5094 46.5201 63.4394C45.7701 59.6194 47.7102 55.7994 51.2902 54.0294C54.8801 52.2594 59.2002 53.0894 61.7202 56.2494C62.5702 57.3194 63.4202 57.5794 64.6902 57.5794C94.9202 57.5494 125.16 57.5494 155.39 57.5694C156.58 57.5694 157.39 57.3394 158.2 56.3094C160.69 53.0994 164.96 52.1894 168.6 53.8794C172.09 55.4994 174.17 59.3494 173.55 63.0394C172.86 67.1994 169.79 70.1694 165.69 70.4794C164.66 70.5594 164.18 70.8994 163.77 71.7994C157.56 85.4494 151.31 99.0794 145.06 112.709C144.72 113.449 144.73 113.989 145.16 114.739C148.49 120.429 145.68 126.729 139.26 128.029C138.3 128.219 137.78 128.609 137.38 129.499C130.58 144.449 123.76 159.389 116.87 174.299C116.35 175.429 116.84 175.959 117.38 176.729C119.57 179.819 119.46 183.949 117.16 186.979C114.89 189.959 111.04 191.179 107.52 190.029C103.92 188.819 101.47 185.459 101.47 180.799Z" fill="#FEFEFE"/>
<path d="M110.15 172.979C108.36 169.089 106.6 165.279 104.85 161.469C99.7198 150.259 94.6098 139.039 89.4398 127.849C88.9698 126.829 88.8498 126.179 89.7698 125.309C91.3098 123.849 92.0498 121.909 92.0698 119.789C92.0798 118.799 92.4198 118.229 93.1998 117.669C98.5698 113.779 103.94 109.859 109.24 105.879C110.15 105.199 110.68 105.369 111.46 105.949C117 110.039 122.56 114.099 128.12 118.149C128.7 118.569 129.09 118.979 129.11 119.779C129.18 121.819 129.88 123.679 131.27 125.189C131.78 125.749 131.8 126.189 131.51 126.829C124.54 142.039 117.59 157.249 110.62 172.459C110.56 172.599 110.39 172.719 110.15 172.979Z" fill="#CC0124"/>
<path d="M155.08 64.2402C150.19 67.8302 145.51 71.2602 140.83 74.6902C131.08 81.8502 121.33 89.0102 111.58 96.1702C110.9 96.6702 110.38 97.2002 109.36 96.4502C94.8201 85.7602 80.2401 75.1302 65.3301 64.2502C95.4001 64.2402 125.09 64.2402 155.08 64.2402Z" fill="#CC0124"/>
<path d="M63.7498 71.0996C70.8898 76.3196 78.0298 81.5396 85.1798 86.7596C91.2898 91.2196 97.3798 95.7096 103.52 100.12C104.66 100.94 104.62 101.32 103.5 102.12C99.0098 105.33 94.5698 108.6 90.1398 111.9C89.3498 112.49 88.8098 112.68 87.8998 112.03C86.4598 111 84.7398 110.59 82.9598 110.75C82.0498 110.83 81.5098 110.62 81.0998 109.71C75.3598 97.0796 69.5698 84.4696 63.7998 71.8496C63.6998 71.6496 63.4598 71.4496 63.7498 71.0996Z" fill="#CC0124"/>
<path d="M156.97 71.1406C151.06 84.0606 145.25 96.7306 139.47 109.421C139.07 110.291 138.71 110.831 137.6 110.751C135.8 110.631 134.17 111.301 132.75 112.361C132.11 112.841 131.73 112.771 131.14 112.341C126.35 108.801 121.55 105.281 116.72 101.791C115.9 101.201 115.98 100.921 116.75 100.361C129.97 90.6906 143.18 81.0006 156.39 71.3206C156.47 71.2706 156.6 71.2606 156.97 71.1406Z" fill="#CC0124"/>
</g>
<defs>
<clipPath id="clip0_5505_10370">
<rect width="220" height="220" fill="white"/>
</clipPath>
</defs>
</svg>
