<svg width="220" height="220" viewBox="0 0 220 220" fill="none" xmlns="http://www.w3.org/2000/svg">
<g clip-path="url(#clip0_5505_10282)">
<path d="M110 0C170.738 0 220 49.2624 220 110C220 170.738 170.738 220 110 220C49.2624 220 0 170.738 0 110C0 49.2624 49.2624 0 110 0Z" fill="white"/>
<path d="M110.035 148.675C88.6687 148.675 71.3679 131.366 71.3679 109.999C71.3679 88.633 88.6775 71.3322 110.035 71.3322C129.175 71.3322 145.068 85.2891 148.13 103.558H187.088C183.797 63.8523 150.577 32.6562 110.035 32.6562C67.3375 32.6562 32.6919 67.3018 32.6919 109.999C32.6919 152.697 67.3375 187.343 110.035 187.343C150.577 187.343 183.805 156.147 187.088 116.441H148.095C145.033 134.719 129.175 148.675 110.035 148.675Z" fill="#0052FF"/>
</g>
<defs>
<clipPath id="clip0_5505_10282">
<rect width="220" height="220" fill="white"/>
</clipPath>
</defs>
</svg>
