<svg width="220" height="220" viewBox="0 0 220 220" fill="none" xmlns="http://www.w3.org/2000/svg">
<g clip-path="url(#clip0_5505_10378)">
<path d="M110 220C170.751 220 220 170.751 220 110C220 49.2487 170.751 0 110 0C49.2487 0 0 49.2487 0 110C0 170.751 49.2487 220 110 220Z" fill="#121212"/>
<path d="M42.7899 109.83C42.7899 98.2299 42.8599 86.6299 42.7399 75.0299C42.7099 72.1899 43.7099 70.4599 46.1699 69.0499C66.0999 57.6299 85.9899 46.1299 105.84 34.5699C108.65 32.9299 111.03 32.9199 113.91 34.5999C133.66 46.1199 153.48 57.5399 173.33 68.8899C176.07 70.4599 177.27 72.3599 177.26 75.5799C177.16 98.4699 177.16 121.37 177.25 144.26C177.26 147.44 176.12 149.38 173.34 150.97C153.4 162.37 133.51 173.88 113.66 185.43C111.18 186.87 109.08 187.17 106.47 185.65C86.1699 173.83 65.8199 162.1 45.4599 150.39C43.3699 149.19 42.7499 147.53 42.7599 145.26C42.8199 133.45 42.7899 121.64 42.7899 109.83ZM163.46 109.98C163.46 100.66 163.39 91.3399 163.51 82.0199C163.54 79.7599 162.78 78.4799 160.82 77.3599C144.47 68.0299 128.19 58.5699 111.83 49.2699C110.83 48.6999 108.95 48.6499 107.97 49.2099C91.4299 58.6199 74.9399 68.1299 58.5299 77.7599C57.3699 78.4399 56.2099 80.2899 56.1899 81.6099C56.0399 100.45 56.0399 119.3 56.1899 138.14C56.1999 139.48 57.2799 141.37 58.4299 142.04C74.8499 151.67 91.3399 161.18 107.89 170.57C108.95 171.17 110.96 171.13 112.03 170.52C128.39 161.2 144.65 151.71 160.98 142.36C162.86 141.28 163.52 140.05 163.49 137.93C163.4 128.62 163.46 119.3 163.46 109.98Z" fill="#FF9211"/>
<path d="M149.52 93.0605C149.52 105.551 149.11 117.651 149.7 129.701C149.97 135.141 148.12 137.741 143.57 140.101C135.42 144.341 127.62 149.261 119.66 153.871C118.7 154.431 117.68 154.881 116.35 155.561C116.25 154.371 116.11 153.491 116.11 152.621C116.1 139.691 116.15 126.751 116.06 113.821C116.04 111.591 116.67 110.261 118.73 109.191C128 104.391 137.18 99.4306 146.4 94.5406C147.36 94.0406 148.36 93.6105 149.52 93.0605Z" fill="#FF9211"/>
<path d="M109.12 155.82C103.33 152.48 97.8899 149.35 92.4399 146.2C85.7999 142.37 79.2099 138.48 72.5099 134.76C70.4299 133.6 69.5699 132.08 69.5699 129.78C69.5999 116.52 69.5999 103.25 69.5699 89.99C69.5599 87.79 70.3899 86.32 72.3399 85.21C83.9299 78.58 95.4499 71.82 107.1 65.29C108.41 64.55 110.75 64.27 111.96 64.94C124.17 71.73 136.25 78.76 148.36 85.74C148.6 85.88 148.74 86.19 148.92 86.42C145.23 89.96 144.42 90.12 140.2 87.7C131.13 82.5 122.06 77.31 113.06 71.99C110.85 70.68 109.11 70.57 106.83 71.93C97.3199 77.6 87.7099 83.11 78.0699 88.57C76.1099 89.68 75.3099 91.02 75.3299 93.27C75.4099 104.36 75.4099 115.44 75.3399 126.53C75.3299 128.75 76.0699 130.15 78.0399 131.27C87.1399 136.42 96.1599 141.71 105.22 146.91C109.86 149.59 109.88 149.56 109.12 155.82Z" fill="#FF9211"/>
</g>
<defs>
<clipPath id="clip0_5505_10378">
<rect width="220" height="220" fill="white"/>
</clipPath>
</defs>
</svg>
