<svg width="220" height="220" viewBox="0 0 220 220" fill="none" xmlns="http://www.w3.org/2000/svg">
<g clip-path="url(#clip0_5505_10326)">
<path d="M187.78 187.781C230.737 144.824 230.737 75.1763 187.78 32.219C144.822 -10.7383 75.1748 -10.7383 32.2175 32.219C-10.7397 75.1763 -10.7397 144.824 32.2175 187.781C75.1748 230.738 144.822 230.738 187.78 187.781Z" fill="#EC4E33"/>
<path d="M110.193 167.442C102.959 167.5 96.0626 166.086 89.4064 163.623C84.9048 161.959 80.2494 160.411 76.171 157.958C61.2523 149.003 45.3333 145.867 28.1735 148.378C25.1916 148.81 22.0848 148.801 19.0934 147.964C14.7361 146.762 13.5818 143.732 16.1404 139.961C18.1507 137.008 20.8921 134.709 23.7777 132.718C37.0516 123.59 46.2759 111.595 51.1238 96.0997C53.3265 89.078 56.7411 82.4795 60.8195 76.285C76.7 52.142 107.557 43.3986 133.72 55.6047C134.441 55.9414 135.163 56.2973 135.875 56.6724C137.529 57.567 139.01 58.6635 137.914 60.7989C136.981 62.6168 135.346 62.3667 133.73 61.7511C127.468 59.4041 120.994 58.7116 114.348 59.0963C92.3882 60.3756 73.4008 79.036 71.6598 100.899C71.352 104.795 71.9484 105.584 75.844 103.862C107.278 90.0014 139.424 78.2088 173.215 71.4083C179.813 70.081 186.479 69.1191 193.241 69.1191C195.665 69.1191 198.069 69.3788 200.32 70.2445C203.283 71.3891 204.273 73.5726 202.59 76.3524C201.446 78.2473 200.003 80.046 198.387 81.5465C190.211 89.1357 180.534 94.5222 170.868 99.8895C168.569 101.169 167.241 100.524 166.693 98.0234C166.655 97.8695 166.616 97.7156 166.568 97.5617C163.173 86.0769 163.163 86.0577 151.88 89.2704C126.4 96.5037 101.728 105.901 77.508 116.568C73.6509 118.271 73.4681 120.041 75.0264 123.407C82.731 140.077 95.5528 150.042 113.848 151.609C132.546 153.206 147.109 145.444 157.469 129.756C158.777 127.784 159.306 123.427 162.951 125.543C166.222 127.447 163.49 130.535 162.432 132.747C151.976 154.784 134.307 166.028 110.193 167.442Z" fill="#FEFEFE"/>
</g>
<defs>
<clipPath id="clip0_5505_10326">
<rect width="220" height="220" fill="white"/>
</clipPath>
</defs>
</svg>
