<svg width="220" height="220" viewBox="0 0 220 220" fill="none" xmlns="http://www.w3.org/2000/svg">
<g clip-path="url(#clip0_5505_10386)">
<path d="M107.476 220.001C82.9975 219.841 58.9496 211.311 38.6229 193.711C12.0841 170.731 -0.900227 141.311 0.0500872 106.141C0.760322 79.801 10.0434 56.471 27.6592 36.961C50.7069 11.411 79.8165 -1.02904 114.318 0.0709587C139.666 0.880959 162.264 9.65096 181.37 26.251C208.229 49.581 221.063 79.391 219.933 114.981C219.413 131.541 214.981 147.201 207.139 161.811C198.336 178.221 186.122 191.611 170.577 201.861C152.22 213.961 131.964 219.961 107.476 220.001Z" fill="#F3F3F3"/>
<path d="M98.0126 83.2705C84.248 83.2705 70.4835 83.2605 56.7189 83.2905C55.7586 83.2905 55.5385 83.0305 55.5685 82.1105C56.0387 67.7305 68.2327 55.7805 82.6375 55.7605C109.616 55.7205 136.595 55.7505 163.564 55.7305C164.385 55.7305 164.585 55.9505 164.575 56.7505C164.305 69.2205 154.641 80.5505 142.367 82.7505C140.417 83.1005 138.456 83.2705 136.475 83.2605C123.661 83.2705 110.837 83.2705 98.0126 83.2705Z" fill="black"/>
<path d="M108.696 96.1704C117.629 96.1704 126.572 96.1904 135.505 96.1504C136.405 96.1504 136.585 96.4004 136.535 97.2304C135.755 108.46 130.293 116.53 120.13 121.36C116.789 122.95 113.198 123.68 109.496 123.69C91.9506 123.71 74.3948 123.7 56.849 123.7C55.5285 123.7 55.5285 123.7 55.6086 122.36C56.5389 107.32 68.4128 96.1904 83.5378 96.1804C91.9206 96.1704 100.303 96.1704 108.696 96.1704Z" fill="black"/>
<path d="M69.3831 164.201C61.5405 164.161 55.3585 157.841 55.4085 149.921C55.4585 142.291 61.8406 136.081 69.5632 136.131C77.2357 136.181 83.5278 142.501 83.5078 150.161C83.4978 157.931 77.1457 164.241 69.3831 164.201Z" fill="black"/>
</g>
<defs>
<clipPath id="clip0_5505_10386">
<rect width="220" height="220" fill="white"/>
</clipPath>
</defs>
</svg>
