<svg width="220" height="220" viewBox="0 0 220 220" fill="none" xmlns="http://www.w3.org/2000/svg">
<g clip-path="url(#clip0_5505_10303)">
<path d="M6.10532e-06 109.98C0.0200061 49.0601 49.28 -0.0898766 110.21 0.000123404C171.01 0.0901234 220.06 49.3301 220 110.21C219.94 170.96 170.66 220.05 109.79 220C49.1 219.94 -0.0199939 170.71 6.10532e-06 109.98Z" fill="#1F2944"/>
<path d="M124.36 95.1602C109.71 95.1602 95.0501 95.1602 80.4001 95.1602C77.6401 95.1602 77.0801 94.6002 77.1001 91.9302C77.3201 68.3002 95.9301 48.0702 119.48 45.8502C144.48 43.4902 166.35 59.9002 170.98 84.5802C171.42 86.9502 171.55 89.3802 171.72 91.7902C171.9 94.3002 171.04 95.1602 168.51 95.1602C153.79 95.1602 139.07 95.1602 124.36 95.1602Z" fill="#53CAC8"/>
<path d="M124.16 109.27C106.59 109.27 89.0199 109.27 71.4399 109.27C70.9399 109.27 70.4299 109.32 69.9499 109.23C68.5799 108.98 67.7199 108.15 67.5299 106.77C67.3399 105.39 67.9199 104.37 69.2099 103.76C69.9799 103.39 70.7799 103.43 71.5799 103.43C106.72 103.43 141.87 103.43 177.01 103.43C177.75 103.43 178.49 103.36 179.22 103.63C180.61 104.15 181.35 105.12 181.21 106.62C181.07 108.11 180.17 108.97 178.73 109.23C178.19 109.33 177.62 109.27 177.06 109.27C159.43 109.27 141.79 109.27 124.16 109.27Z" fill="#DF167B"/>
<path d="M117.83 135.399C102.43 135.399 87.0301 135.399 71.6301 135.399C71.0701 135.399 70.5001 135.459 69.9601 135.369C68.3801 135.119 67.5701 134.089 67.5301 132.549C67.4901 130.949 68.4001 130.009 69.9401 129.739C70.4801 129.639 71.0501 129.699 71.6101 129.699C102.47 129.699 133.34 129.699 164.2 129.699C164.82 129.699 165.45 129.659 166.06 129.729C167.66 129.909 168.49 130.849 168.56 132.439C168.63 134.039 167.66 135.189 166.07 135.359C165.39 135.429 164.71 135.399 164.02 135.399C148.64 135.399 133.24 135.399 117.83 135.399Z" fill="#E0167C"/>
<path d="M87.8302 116.641C100.74 116.641 113.64 116.651 126.55 116.631C127.76 116.631 128.92 116.681 129.7 117.801C130.95 119.591 129.86 122.061 127.68 122.311C126.76 122.421 125.82 122.351 124.89 122.351C100.01 122.351 75.1302 122.351 50.2402 122.351C49.5002 122.351 48.7402 122.411 48.0102 122.311C46.4602 122.101 45.5702 121.171 45.5002 119.581C45.4202 117.981 46.4002 116.841 47.9902 116.661C48.6002 116.591 49.2302 116.631 49.8502 116.631C62.5102 116.641 75.1702 116.641 87.8302 116.641Z" fill="#DF167B"/>
<path d="M142.81 142.73C155.72 142.73 168.63 142.73 181.54 142.73C183.92 142.73 185.29 144.1 184.89 146.07C184.61 147.41 183.81 148.29 182.37 148.39C181.57 148.45 180.76 148.42 179.95 148.42C154.63 148.42 129.3 148.42 103.98 148.42C101.52 148.42 100.37 147.6 100.23 145.77C100.08 143.87 101.19 142.73 103.33 142.72C108.79 142.69 114.25 142.71 119.72 142.71C127.42 142.71 135.11 142.71 142.81 142.71C142.81 142.72 142.81 142.72 142.81 142.73Z" fill="#DF167C"/>
<path d="M113.41 174.481C105.4 174.481 97.3902 174.491 89.3702 174.471C87.2202 174.471 85.9502 173.221 86.1302 171.331C86.2502 170.031 86.8902 169.101 88.2402 168.841C88.9702 168.701 89.7202 168.631 90.4502 168.631C105.85 168.621 121.26 168.621 136.66 168.631C137.09 168.631 137.54 168.601 137.96 168.671C139.64 168.931 140.68 170.171 140.59 171.741C140.5 173.321 139.35 174.441 137.63 174.461C133.97 174.501 130.3 174.481 126.64 174.481C122.23 174.481 117.82 174.481 113.41 174.481Z" fill="#DD167B"/>
<path d="M143.18 161.471C135.23 161.471 127.29 161.481 119.34 161.471C117.24 161.471 116.06 160.551 115.92 158.871C115.78 157.191 116.75 155.971 118.43 155.791C119.04 155.721 119.67 155.751 120.29 155.751C135.69 155.751 151.08 155.751 166.48 155.751C166.79 155.751 167.1 155.741 167.41 155.751C169.32 155.841 170.42 156.881 170.41 158.581C170.4 160.201 169.18 161.431 167.4 161.451C163.74 161.491 160.07 161.461 156.41 161.461C152 161.461 147.59 161.461 143.18 161.471Z" fill="#DF167B"/>
<path d="M72.7202 148.43C66.6302 148.43 60.5502 148.44 54.4602 148.42C52.3002 148.41 50.9902 147.16 51.1202 145.33C51.2302 143.74 52.3302 142.75 54.1502 142.73C58.6202 142.7 63.0902 142.71 67.5602 142.71C75.3202 142.71 83.0802 142.7 90.8402 142.71C93.2702 142.71 94.4202 143.61 94.4402 145.48C94.4602 147.42 93.2302 148.42 90.7802 148.42C84.7602 148.44 78.7402 148.43 72.7202 148.43Z" fill="#DF167B"/>
<path d="M75.7998 171.409C75.9498 169.819 77.4298 168.569 78.9798 168.719C80.5698 168.879 81.8098 170.369 81.6398 171.929C81.4698 173.509 79.9698 174.689 78.3698 174.489C76.8498 174.299 75.6598 172.879 75.7998 171.409Z" fill="#DE167B"/>
<path d="M108.53 161.471C106.91 161.461 105.59 160.121 105.61 158.511C105.63 157.051 107 155.681 108.48 155.651C110.05 155.621 111.45 156.981 111.47 158.561C111.49 160.171 110.18 161.471 108.53 161.471Z" fill="#DE167B"/>
<path d="M38.1198 122.359C36.5598 122.389 35.2298 121.169 35.1598 119.629C35.0798 117.999 36.3598 116.679 38.0398 116.639C39.6098 116.609 40.9298 117.809 41.0098 119.359C41.0998 120.939 39.7598 122.329 38.1198 122.359Z" fill="#DE167B"/>
<path d="M60.0701 129.7C61.6801 129.73 62.9701 130.97 62.9801 132.49C62.9901 134.11 61.6401 135.43 60.0001 135.4C58.4101 135.37 57.1301 134.13 57.1101 132.6C57.0901 130.95 58.4001 129.67 60.0701 129.7Z" fill="#DE167B"/>
<path d="M46.5799 145.601C46.5699 147.141 45.2699 148.411 43.6999 148.431C42.0299 148.461 40.6899 147.141 40.7299 145.521C40.7699 143.871 42.0699 142.661 43.7799 142.721C45.3799 142.771 46.5899 144.021 46.5799 145.601Z" fill="#DE167B"/>
<path d="M59.98 103.6C61.64 103.61 62.98 104.94 62.92 106.54C62.86 108.1 61.61 109.29 60.01 109.3C58.33 109.31 57.05 108.02 57.1 106.37C57.13 104.81 58.39 103.6 59.98 103.6Z" fill="#DF167B"/>
</g>
<defs>
<clipPath id="clip0_5505_10303">
<rect width="220" height="220" fill="white"/>
</clipPath>
</defs>
</svg>
