<svg width="220" height="220" viewBox="0 0 220 220" fill="none" xmlns="http://www.w3.org/2000/svg">
<g clip-path="url(#clip0_5505_10340)">
<path d="M109.88 0C171.1 0.68953 219.37 48.467 219.99 108.836C220.64 171.053 171.22 220.1 109.91 220C48.5298 219.9 0.619821 171.433 -0.000178847 111.354C-0.640179 49.1865 48.5998 0.779469 109.88 0ZM140.7 128.273C140.7 129.462 140.7 130.341 140.7 131.221C140.7 139.435 140.73 147.659 140.67 155.874C140.66 157.493 141.19 158.072 142.8 158.012C145.54 157.922 148.28 157.972 151.02 158.002C155.59 158.042 154.97 158.062 154.97 154.005C154.95 123.736 154.95 93.4663 154.99 63.1969C154.99 61.588 154.59 60.9884 152.94 61.0384C149.65 61.1283 146.36 61.1583 143.07 61.0184C141.11 60.9285 140.63 61.6779 140.65 63.5167C140.74 71.6012 140.65 79.6757 140.74 87.7602C140.76 89.5789 140.38 90.2085 138.4 90.1985C119.49 90.1086 100.57 90.1286 81.6598 90.1286C80.9898 90.1286 80.3098 90.1286 79.4498 90.1286C79.3998 89.2591 79.3298 88.5296 79.3198 87.8001C79.3098 79.5158 79.2798 71.2314 79.3398 62.9471C79.3498 61.5081 78.8998 61.0084 77.4598 61.0384C74.1698 61.1183 70.8798 61.1583 67.5898 61.0384C65.6398 60.9684 64.9998 61.578 65.0098 63.5966C65.0598 94.3457 65.0398 125.095 65.0098 155.834C65.0098 157.413 65.5198 158.072 67.1398 158.032C70.4298 157.962 73.7198 157.912 77.0098 158.052C78.8298 158.132 79.3598 157.543 79.3398 155.734C79.2498 147.31 79.3298 138.885 79.2598 130.461C79.2498 128.842 79.5798 128.203 81.3998 128.213C100.11 128.293 118.82 128.273 137.52 128.283C138.47 128.273 139.42 128.273 140.7 128.273Z" fill="black"/>
<path d="M140.7 128.273C139.42 128.273 138.47 128.273 137.52 128.273C118.81 128.263 100.1 128.283 81.3999 128.203C79.5899 128.193 79.2499 128.843 79.2599 130.452C79.3299 138.876 79.2499 147.3 79.3399 155.725C79.3599 157.533 78.8299 158.123 77.0099 158.043C73.7299 157.903 70.4299 157.953 67.1399 158.023C65.5199 158.063 64.9999 157.403 65.0099 155.824C65.0499 125.075 65.0699 94.3264 65.0099 63.5874C65.0099 61.5688 65.6399 60.9592 67.5899 61.0291C70.8699 61.159 74.1699 61.1091 77.4599 61.0291C78.8899 60.9991 79.3499 61.4988 79.3399 62.9378C79.2799 71.2222 79.3099 79.5065 79.3199 87.7909C79.3199 88.5204 79.3999 89.2499 79.4499 90.1193C80.3199 90.1193 80.9899 90.1193 81.6599 90.1193C100.57 90.1293 119.49 90.0993 138.4 90.1892C140.39 90.1992 140.77 89.5597 140.74 87.7509C140.65 79.6664 140.74 71.5919 140.65 63.5074C140.63 61.6687 141.11 60.9192 143.07 61.0091C146.35 61.149 149.65 61.1291 152.94 61.0291C154.59 60.9792 154.99 61.5788 154.99 63.1877C154.94 93.457 154.95 123.726 154.97 153.996C154.97 158.053 155.59 158.033 151.02 157.993C148.28 157.963 145.54 157.913 142.8 158.003C141.19 158.053 140.66 157.473 140.67 155.864C140.74 147.65 140.7 139.426 140.7 131.211C140.7 130.342 140.7 129.462 140.7 128.273ZM110.78 116.631C110.78 116.641 110.78 116.651 110.78 116.651C120.3 116.651 129.82 116.621 139.33 116.681C140.93 116.691 141.48 116.251 141.42 114.593C141.29 111.035 141.33 107.477 141.37 103.92C141.39 102.331 140.93 101.651 139.15 101.661C120.05 101.721 100.94 101.721 81.8399 101.671C80.2899 101.671 80.0199 102.241 80.0399 103.59C80.0899 107.148 80.1299 110.715 79.9599 114.263C79.8599 116.231 80.6199 116.681 82.4199 116.671C91.8799 116.591 101.33 116.631 110.78 116.631Z" fill="white"/>
<path d="M110.78 116.63C101.33 116.63 91.8797 116.59 82.4297 116.66C80.6197 116.67 79.8697 116.221 79.9697 114.252C80.1397 110.704 80.0997 107.137 80.0497 103.579C80.0297 102.23 80.2997 101.66 81.8497 101.66C100.95 101.71 120.06 101.71 139.16 101.65C140.94 101.641 141.4 102.32 141.38 103.909C141.33 107.467 141.29 111.024 141.43 114.582C141.49 116.241 140.94 116.68 139.34 116.67C129.82 116.61 120.31 116.64 110.79 116.64C110.78 116.64 110.78 116.63 110.78 116.63Z" fill="black"/>
</g>
<defs>
<clipPath id="clip0_5505_10340">
<rect width="220" height="220" fill="white"/>
</clipPath>
</defs>
</svg>
