<svg width="220" height="220" viewBox="0 0 220 220" fill="none" xmlns="http://www.w3.org/2000/svg">
<g clip-path="url(#clip0_5505_10392)">
<path d="M110 220C170.751 220 220 170.751 220 110C220 49.2487 170.751 0 110 0C49.2487 0 0 49.2487 0 110C0 170.751 49.2487 220 110 220Z" fill="#F4F6F5"/>
<path d="M190.18 110.172C188.89 128.532 183.72 146.492 170.39 161.392C169.32 162.592 168.74 162.812 167.43 161.502C150.27 144.292 133.04 127.162 115.79 110.042C114.77 109.032 114.58 108.502 115.72 107.372C133.07 90.1717 150.37 72.9217 167.64 55.6517C168.55 54.7417 169.03 54.4717 169.96 55.6817C182.09 71.4417 189.42 88.9917 190.18 110.172Z" fill="#4C433A"/>
<path d="M163.92 166.55C159 168.64 154.24 170.66 149.49 172.67C136.89 178 124.27 183.3 111.68 188.65C110.54 189.14 109.57 189.23 108.37 188.72C91.5501 181.54 74.7101 174.4 57.8501 167.32C56.3401 166.69 56.1501 166.36 57.4001 165.13C74.4501 148.47 91.4701 131.77 108.45 115.04C109.68 113.83 110.32 113.77 111.59 115.02C128.65 131.86 145.77 148.64 162.87 165.43C163.19 165.74 163.48 166.07 163.92 166.55Z" fill="#4C433A"/>
<path d="M61.75 152.921C62.57 150.901 63.3 149.061 64.07 147.231C79.97 109.031 95.9 70.8408 111.73 32.6108C112.52 30.7108 113.16 30.6408 114.89 31.3408C130.64 37.7008 146.43 43.9908 162.24 50.2208C163.97 50.9008 163.73 51.2908 162.63 52.3808C136.95 78.0608 111.3 103.761 85.64 129.461C78.3 136.821 70.96 144.181 63.61 151.521C63.13 152.001 62.76 152.651 61.75 152.921Z" fill="#4C433A"/>
<path d="M104.55 34.6113C101.49 41.9213 98.5898 48.8413 95.6898 55.7613C81.0298 90.7613 66.3598 125.771 51.6998 160.771C50.7798 162.961 50.7798 162.971 49.1298 161.181C40.6798 152.011 35.8298 140.991 32.7798 129.071C31.1798 122.831 30.2098 116.481 29.8298 110.041C29.7698 109.071 29.9698 108.351 30.6998 107.631C55.0298 83.5313 79.3398 59.4213 103.66 35.3013C103.82 35.1513 104.02 35.0213 104.55 34.6113Z" fill="#4C433A"/>
</g>
<defs>
<clipPath id="clip0_5505_10392">
<rect width="220" height="220" fill="white"/>
</clipPath>
</defs>
</svg>
