<svg width="220" height="220" viewBox="0 0 220 220" fill="none" xmlns="http://www.w3.org/2000/svg">
<g clip-path="url(#clip0_5505_10345)">
<path d="M110.299 219.724C51.4826 224.394 -3.70672 168.676 0.199078 103.658C3.26792 52.4393 47.8956 -3.07896 116.695 0.130945C164.671 2.37088 226.267 44.9296 219.492 123.297C215.626 168.036 171.636 223.904 110.299 219.724ZM125.503 167.416C123.461 168.256 121.837 168.936 119.774 169.786C121.309 179.555 122.813 189.135 124.437 199.495C129.22 198.365 133.445 197.375 138.078 196.285C134.909 186.355 131.96 177.105 128.911 167.556C131.741 166.406 134.321 165.366 137.43 164.116C142.033 172.966 146.497 181.565 151.26 190.725C155.335 188.215 159.022 185.945 163.156 183.405C157.019 174.956 151.31 167.106 145.551 159.166C143.398 159.926 141.595 160.566 139.662 161.246C134.63 152.676 129.828 144.486 124.886 136.067C122.195 137.227 120.063 138.147 118.001 139.037C120.541 148.686 122.933 157.716 125.503 167.416ZM100.753 51.1794C99.219 41.4497 97.7045 31.88 96.0804 21.5803C91.2779 22.7302 87.0732 23.7302 82.4998 24.8302C85.6782 34.8399 88.5976 44.0396 91.5768 53.4293C88.3983 54.7593 85.8875 55.8192 83.1175 56.9892C78.4346 47.9695 73.9808 39.3997 69.238 30.25C64.9735 32.9699 61.3368 35.2899 57.4608 37.7598C63.6982 46.3295 69.4273 54.1993 75.1764 62.099C77.1692 61.2091 78.9128 60.4291 80.796 59.5891C85.8576 68.2388 90.7498 76.6086 95.7018 85.0683C98.1828 83.8984 100.146 82.9784 102.457 81.8884C99.9663 72.3087 97.5351 62.969 95.084 53.5293C97.1366 52.6693 98.7607 51.9993 100.753 51.1794ZM138.576 102.778C148.301 100.188 157.647 97.7079 167.162 95.178C167.82 97.128 168.397 98.8179 169.135 100.998C178.969 99.4179 188.664 97.8579 199.006 96.188C197.741 91.1781 196.685 86.9883 195.579 82.6084C185.655 85.7983 176.478 88.7482 167.032 91.7781C165.767 88.5182 164.771 85.9683 163.695 83.1884C172.712 78.4985 181.141 74.0987 190.148 69.4088C187.667 65.3389 185.406 61.6191 182.855 57.4292C174.346 63.669 166.365 69.5188 158.434 75.3286C159.35 77.3486 160.088 78.9685 160.974 80.9184C152.525 85.9183 144.205 90.8381 135.746 95.838C136.792 98.3879 137.619 100.398 138.576 102.778ZM37.6927 163.636C46.1221 157.466 54.0931 151.636 62.0243 145.826C61.0478 143.657 60.3304 142.077 59.4935 140.207C68.1918 135.057 76.5215 130.117 84.8512 125.177C83.7752 122.677 82.8983 120.657 81.9119 118.377C72.4165 120.857 63.0804 123.287 53.5451 125.777C52.6683 123.727 51.9808 122.107 51.1339 120.107C41.4092 121.657 31.8839 123.177 21.681 124.807C22.8168 129.627 23.7933 133.817 24.8893 138.457C34.9726 135.207 44.0098 132.297 53.3757 129.287C54.6112 132.167 55.757 134.857 57.0125 137.797C47.9654 142.527 39.4165 146.996 30.3494 151.736C32.9898 156.026 35.2018 159.606 37.6927 163.636ZM91.1583 132.637C76.382 146.986 62.1438 160.816 47.5469 174.996C50.7453 177.715 53.9436 180.425 57.5306 183.465C63.5886 175.196 69.3277 167.366 75.0967 159.496C77.209 160.426 78.9328 161.186 80.7761 162.006C85.8775 153.086 90.7099 144.616 95.6021 136.047C93.5994 134.507 91.8458 133.157 91.1583 132.637ZM52.8974 95.218C51.9808 97.5879 51.363 99.1979 50.6755 100.968C40.8214 99.5279 31.3159 98.1479 21.4518 96.708C21.0234 101.938 20.6746 106.068 20.3159 110.448C41.0705 110.448 60.9183 110.448 80.9255 110.448C81.1846 107.858 81.4137 105.518 81.6828 102.858C71.9581 100.278 62.6022 97.7879 52.8974 95.218ZM110.189 200.405C110.189 179.685 110.189 159.996 110.189 140.107C107.608 139.757 105.287 139.447 102.696 139.097C100.096 148.996 97.6348 158.366 95.1139 167.976C97.2262 168.756 98.8603 169.366 100.843 170.096C99.4183 179.805 98.0034 189.405 96.4889 199.705C101.421 199.965 105.576 200.175 110.189 200.405ZM129.927 88.8882C144.544 74.4286 158.623 60.4891 173.11 46.1595C169.892 43.4196 166.614 40.6197 162.997 37.5398C156.879 45.9495 151.29 53.6393 145.58 61.5091C143.628 60.6791 141.874 59.9291 139.821 59.0591C134.79 67.7989 129.957 76.1886 125.005 84.7983C126.968 86.4283 128.642 87.8182 129.927 88.8882ZM110.767 20.2003C110.767 40.9397 110.767 60.9691 110.767 81.0385C113.099 81.3584 115.071 81.6284 117.811 81.9984C120.372 72.2787 122.913 62.609 125.613 52.3593C119.714 52.3793 119.615 49.2394 120.282 45.3796C121.628 37.6198 122.783 29.82 124.118 21.4603C119.366 21.0103 115.241 20.6203 110.767 20.2003ZM199.863 110.948C179.368 110.948 159.739 110.948 139.841 110.948C139.463 113.167 139.104 115.317 138.636 118.077C148.39 120.677 157.856 123.207 167.501 125.787C168.368 123.537 169.005 121.907 169.733 120.017C179.527 121.457 189.062 122.857 199.166 124.347C199.405 119.607 199.614 115.597 199.863 110.948ZM58.8259 80.7485C67.7335 85.8983 76.113 90.7382 84.8911 95.798C86.5152 93.5781 87.8802 91.7081 88.5478 90.8081C74.0704 76.0986 60.1511 61.939 45.9926 47.5395C43.4219 50.5994 40.7018 53.8393 37.5632 57.5592C45.7734 63.579 53.5849 69.2988 61.6456 75.2086C60.7589 76.9686 59.9618 78.5185 58.8259 80.7485ZM132.139 129.907C146.557 144.626 160.436 158.796 174.625 173.276C177.146 170.306 179.856 167.116 182.915 163.516C174.675 157.416 166.903 151.646 159.022 145.806C159.968 143.837 160.745 142.237 161.692 140.267C152.993 135.227 144.435 130.267 135.716 125.227C134.122 127.307 132.787 129.067 132.139 129.907ZM190.348 151.326C192.191 146.826 193.865 142.767 195.708 138.287C185.804 135.057 176.458 132.007 166.783 128.857C165.568 131.847 164.522 134.417 163.286 137.457C172.253 142.057 181.031 146.556 190.348 151.326ZM128.532 53.7093C131.312 54.9193 133.843 56.0192 137.022 57.4092C141.685 48.2295 146.198 39.3397 150.951 30C146.218 28.1301 142.193 26.5301 137.888 24.8302C134.72 34.6299 131.781 43.6796 128.532 53.7093ZM24.7398 82.6984C34.9726 86.0083 44.2987 89.0182 53.7743 92.0781C55.0895 88.9182 56.0759 86.5283 57.3014 83.5884C48.2444 78.9385 39.4862 74.4487 30.1801 69.6788C28.3467 74.0587 26.7226 77.9385 24.7398 82.6984ZM83.4762 163.566C78.8331 172.786 74.3594 181.685 69.6565 191.055C74.3993 192.925 78.2552 194.445 82.6393 196.175C85.8576 186.195 88.8666 176.866 91.9554 167.316C88.9264 165.976 86.4255 164.866 83.4762 163.566Z" fill="black"/>
<path d="M125.503 167.415C122.933 157.726 120.551 148.696 117.991 139.036C120.053 138.146 122.185 137.226 124.876 136.066C129.818 144.486 134.62 152.676 139.652 161.246C141.595 160.556 143.388 159.926 145.541 159.166C151.31 167.105 157.009 174.955 163.147 183.405C159.012 185.955 155.325 188.215 151.25 190.725C146.487 181.565 142.023 172.975 137.42 164.116C134.311 165.375 131.731 166.415 128.901 167.555C131.95 177.105 134.899 186.355 138.068 196.285C133.435 197.375 129.21 198.364 124.427 199.494C122.803 189.135 121.299 179.555 119.764 169.785C121.837 168.925 123.461 168.255 125.503 167.415Z" fill="white"/>
<path d="M100.754 51.1794C98.7707 51.9994 97.1367 52.6694 95.0841 53.5193C97.5352 62.959 99.9664 72.2987 102.457 81.8785C100.146 82.9684 98.1829 83.8884 95.7019 85.0584C90.7499 76.5986 85.8577 68.2289 80.7961 59.5791C78.9129 60.4191 77.1693 61.1991 75.1765 62.0891C69.4274 54.1893 63.6983 46.3195 57.4609 37.7498C61.3368 35.2799 64.9736 32.96 69.2381 30.24C73.9809 39.3798 78.4347 47.9595 83.1176 56.9792C85.8876 55.8193 88.4084 54.7593 91.5769 53.4193C88.5977 44.0296 85.6783 34.8299 82.4999 24.8202C87.0733 23.7302 91.268 22.7203 96.0805 21.5703C97.7046 31.89 99.2091 41.4597 100.754 51.1794Z" fill="white"/>
<path d="M138.576 102.779C137.609 100.409 136.792 98.3987 135.746 95.8287C144.205 90.8289 152.525 85.9091 160.974 80.9092C160.088 78.9593 159.35 77.3393 158.434 75.3194C166.365 69.5096 174.346 63.6597 182.855 57.4199C185.406 61.5998 187.667 65.3297 190.148 69.3996C181.141 74.0894 172.702 78.4893 163.694 83.1791C164.771 85.959 165.767 88.509 167.032 91.7689C176.478 88.739 185.655 85.7791 195.579 82.5991C196.684 86.979 197.741 91.1789 199.006 96.1787C188.654 97.8487 178.969 99.4086 169.135 100.989C168.397 98.8086 167.819 97.1187 167.162 95.1688C157.646 97.6987 148.3 100.189 138.576 102.779Z" fill="white"/>
<path d="M37.6928 163.635C35.2019 159.605 32.9899 156.036 30.3296 151.746C39.4066 147.006 47.9555 142.536 56.9927 137.806C55.7372 134.866 54.5814 132.176 53.3559 129.296C43.9899 132.316 34.9528 135.226 24.8695 138.466C23.7735 133.816 22.797 129.626 21.6611 124.817C31.864 123.187 41.3894 121.667 51.114 120.117C51.9709 122.117 52.6584 123.737 53.5253 125.786C63.0706 123.297 72.3966 120.857 81.8921 118.387C82.8785 120.677 83.7553 122.687 84.8314 125.187C76.5117 130.116 68.172 135.056 59.4736 140.216C60.3106 142.076 61.028 143.666 62.0044 145.836C54.0932 151.636 46.1222 157.466 37.6928 163.635Z" fill="white"/>
<path d="M91.1585 132.637C91.836 133.157 93.5996 134.507 95.5924 136.047C90.7002 144.606 85.8677 153.076 80.7663 162.006C78.923 161.196 77.1992 160.426 75.0869 159.496C69.3279 167.366 63.5887 175.195 57.5208 183.465C53.9338 180.425 50.7454 177.715 47.5371 174.995C62.144 160.816 76.3822 146.986 91.1585 132.637Z" fill="white"/>
<path d="M52.8974 95.2188C62.6021 97.7987 71.9581 100.279 81.6828 102.859C81.4237 105.519 81.1846 107.859 80.9255 110.449C60.9183 110.449 41.0704 110.449 20.3159 110.449C20.6746 106.069 21.0233 101.939 21.4518 96.7087C31.3159 98.1487 40.8214 99.5287 50.6755 100.969C51.363 99.1988 51.9808 97.5887 52.8974 95.2188Z" fill="white"/>
<path d="M110.189 200.406C105.576 200.176 101.421 199.966 96.4888 199.716C98.0033 189.416 99.4181 179.816 100.843 170.106C98.8601 169.366 97.2261 168.767 95.1138 167.987C97.6346 158.377 100.096 149.007 102.696 139.107C105.287 139.457 107.608 139.767 110.189 140.117C110.189 160.007 110.189 179.696 110.189 200.406Z" fill="white"/>
<path d="M129.927 88.8877C128.642 87.8177 126.968 86.4278 124.995 84.7878C129.947 76.1781 134.78 67.7884 139.811 59.0486C141.854 59.9186 143.607 60.6686 145.57 61.4986C151.29 53.6388 156.879 45.949 162.987 37.5293C166.604 40.6092 169.892 43.4091 173.1 46.149C158.623 60.4886 144.544 74.4182 129.927 88.8877Z" fill="white"/>
<path d="M110.767 20.2012C115.241 20.6212 119.366 21.0111 124.119 21.4511C122.793 29.8209 121.628 37.6106 120.282 45.3704C119.615 49.2303 119.715 52.3702 125.613 52.3502C122.913 62.5899 120.372 72.2696 117.811 81.9893C115.081 81.6193 113.099 81.3493 110.767 81.0293C110.767 60.9699 110.767 40.9405 110.767 20.2012Z" fill="white"/>
<path d="M199.863 110.947C199.624 115.607 199.415 119.617 199.166 124.347C189.052 122.857 179.517 121.457 169.733 120.017C169.005 121.897 168.378 123.537 167.501 125.787C157.846 123.207 148.38 120.687 138.636 118.077C139.104 115.307 139.463 113.167 139.841 110.947C159.739 110.947 179.368 110.947 199.863 110.947Z" fill="white"/>
<path d="M58.826 80.7478C59.9618 78.5179 60.7589 76.9679 61.6557 75.218C53.595 69.3082 45.7834 63.5783 37.5732 57.5685C40.7019 53.8386 43.4319 50.6087 46.0026 47.5488C60.1611 61.9384 74.0805 76.0979 88.5479 90.8175C87.8903 91.7175 86.5153 93.5974 84.8912 95.8073C76.1131 90.7375 67.7336 85.8976 58.826 80.7478Z" fill="white"/>
<path d="M132.139 129.906C132.777 129.066 134.122 127.306 135.706 125.227C144.424 130.276 152.983 135.236 161.682 140.266C160.725 142.246 159.958 143.836 159.011 145.806C166.893 151.646 174.665 157.406 182.905 163.515C179.846 167.115 177.146 170.305 174.615 173.275C160.446 158.796 146.567 144.626 132.139 129.906Z" fill="white"/>
<path d="M190.348 151.327C181.032 146.547 172.254 142.057 163.286 137.457C164.522 134.417 165.558 131.857 166.783 128.857C176.458 132.007 185.804 135.057 195.708 138.287C193.865 142.767 192.201 146.837 190.348 151.327Z" fill="white"/>
<path d="M128.532 53.7092C131.78 43.6795 134.71 34.6298 137.888 24.8301C142.193 26.53 146.218 28.13 150.951 29.9999C146.198 39.3496 141.684 48.2394 137.021 57.4091C133.843 56.0191 131.312 54.9191 128.532 53.7092Z" fill="white"/>
<path d="M24.7397 82.6997C26.7325 77.9397 28.3466 74.0597 30.18 69.6797C39.4861 74.4497 48.2443 78.9497 57.3013 83.5897C56.0758 86.5397 55.0894 88.9197 53.7742 92.0797C44.2986 89.0197 34.9725 86.0097 24.7397 82.6997Z" fill="white"/>
<path d="M83.4762 163.564C86.4155 164.864 88.9164 165.974 91.9454 167.314C88.8666 176.864 85.8575 186.194 82.6293 196.173C78.2452 194.443 74.3793 192.924 69.6465 191.054C74.3693 181.684 78.843 172.784 83.4762 163.564Z" fill="white"/>
</g>
<defs>
<clipPath id="clip0_5505_10345">
<rect width="220" height="220" fill="white"/>
</clipPath>
</defs>
</svg>
