<svg width="220" height="220" viewBox="0 0 220 220" fill="none" xmlns="http://www.w3.org/2000/svg">
<g clip-path="url(#clip0_6456_22408)">
<path d="M110 220C170.751 220 220 170.751 220 110C220 49.2487 170.751 0 110 0C49.2487 0 0 49.2487 0 110C0 170.751 49.2487 220 110 220Z" fill="white"/>
<mask id="mask0_6456_22408" style="mask-type:luminance" maskUnits="userSpaceOnUse" x="30" y="30" width="160" height="160">
<path d="M190 30H30V190H190V30Z" fill="white"/>
</mask>
<g mask="url(#mask0_6456_22408)">
<path d="M108.933 32.7949C77.0401 32.7949 51.2054 58.6509 51.1841 90.5443C51.1841 94.1923 51.5254 97.8403 52.2081 101.424L59.6747 96.3256C72.7947 87.3229 94.0641 87.3229 107.163 96.3256L114.992 101.702L119.237 104.624C131.056 112.731 150.213 112.731 162.011 104.624L165.488 102.256C171.888 71.0029 151.749 40.4749 120.496 34.0536C116.699 33.2643 112.837 32.8803 108.955 32.8803L108.933 32.7949Z" fill="#F2B705"/>
</g>
<mask id="mask1_6456_22408" style="mask-type:luminance" maskUnits="userSpaceOnUse" x="30" y="30" width="160" height="160">
<path d="M190 30H30V190H190V30Z" fill="white"/>
</mask>
<g mask="url(#mask1_6456_22408)">
<path d="M141.382 125.232C133.126 125.381 125.019 123.077 118.107 118.618L106.054 110.362C92.6775 102.149 75.8029 102.149 62.4055 110.362L54.6189 115.696C53.0829 116.762 50.9709 116.357 49.9042 114.821C48.8375 113.285 49.2429 111.173 50.7789 110.106L58.5655 104.773C74.2669 95.0236 94.1495 95.0236 109.851 104.773L121.904 113.029C133.83 120.346 148.87 120.346 160.795 113.029L165.36 109.893C166.896 108.826 169.008 109.232 170.075 110.768C171.142 112.304 170.736 114.416 169.2 115.482L164.635 118.618C157.723 123.056 149.616 125.36 141.382 125.232Z" fill="#53CBC8"/>
</g>
<mask id="mask2_6456_22408" style="mask-type:luminance" maskUnits="userSpaceOnUse" x="30" y="30" width="160" height="160">
<path d="M190 30H30V190H190V30Z" fill="white"/>
</mask>
<g mask="url(#mask2_6456_22408)">
<path d="M83.974 149.487V116.847C83.9527 116.164 83.974 115.482 84.0593 114.799C84.2727 112.943 85.8513 111.535 87.7287 111.535C89.542 111.599 91.014 112.986 91.1847 114.799C91.334 115.93 91.3553 117.082 91.3127 118.212V183.279C91.398 185.391 89.7553 187.14 87.6433 187.226C87.622 187.226 87.6007 187.226 87.5793 187.226C85.51 187.119 83.9313 185.348 84.038 183.279C84.038 183.215 84.038 183.151 84.0593 183.108V161.391L83.974 149.487Z" fill="#53CBC8"/>
</g>
<mask id="mask3_6456_22408" style="mask-type:luminance" maskUnits="userSpaceOnUse" x="30" y="30" width="160" height="160">
<path d="M190 30H30V190H190V30Z" fill="white"/>
</mask>
<g mask="url(#mask3_6456_22408)">
<path d="M77.1261 133.061V149.275C77.1261 152.048 75.6114 153.84 73.5421 153.84C71.4941 153.84 69.8514 151.899 69.8301 149.275V116.827C69.8301 113.989 71.4941 112.069 73.6487 112.261C75.8034 112.453 77.0834 114.075 77.1047 116.933C77.1261 122.245 77.1261 127.643 77.1261 133.061Z" fill="#53CBC8"/>
</g>
<mask id="mask4_6456_22408" style="mask-type:luminance" maskUnits="userSpaceOnUse" x="30" y="30" width="160" height="160">
<path d="M190 30H30V190H190V30Z" fill="white"/>
</mask>
<g mask="url(#mask4_6456_22408)">
<path d="M98.1807 133.039V121.668C98.1807 119.023 99.5887 117.316 101.679 117.316C103.834 117.423 105.519 119.258 105.413 121.412C105.413 121.455 105.413 121.519 105.413 121.562C105.477 129.306 105.477 137.05 105.413 144.815C105.413 147.46 103.898 149.06 101.701 149.018C99.5247 148.996 98.202 147.375 98.1807 144.666V133.039Z" fill="#53CBC8"/>
</g>
<mask id="mask5_6456_22408" style="mask-type:luminance" maskUnits="userSpaceOnUse" x="30" y="30" width="160" height="160">
<path d="M190 30H30V190H190V30Z" fill="white"/>
</mask>
<g mask="url(#mask5_6456_22408)">
<path d="M55.7065 135.387V123.995C55.7065 121.349 57.1145 119.643 59.2052 119.643C61.3599 119.749 63.0452 121.584 62.9385 123.739C62.9385 123.781 62.9385 123.845 62.9385 123.888C63.0025 131.653 63.0025 139.397 62.9385 147.163C62.9385 149.808 61.4239 151.387 59.2479 151.365C57.0932 151.344 55.7279 149.723 55.7065 147.013V135.387Z" fill="#53CBC8"/>
</g>
<mask id="mask6_6456_22408" style="mask-type:luminance" maskUnits="userSpaceOnUse" x="30" y="30" width="160" height="160">
<path d="M190 30H30V190H190V30Z" fill="white"/>
</mask>
<g mask="url(#mask6_6456_22408)">
<path d="M115.867 125.701C117.851 125.701 119.451 127.301 119.451 129.285V135.472C119.451 137.456 117.851 139.056 115.867 139.056C113.883 139.056 112.283 137.456 112.283 135.472V129.285C112.305 127.323 113.905 125.701 115.867 125.701Z" fill="#53CBC8"/>
</g>
<mask id="mask7_6456_22408" style="mask-type:luminance" maskUnits="userSpaceOnUse" x="30" y="30" width="160" height="160">
<path d="M190 30H30V190H190V30Z" fill="white"/>
</mask>
<g mask="url(#mask7_6456_22408)">
<path d="M130.054 131.141C132.038 131.141 133.638 132.741 133.638 134.725V169.477C133.638 171.461 132.038 173.061 130.054 173.061C128.07 173.061 126.47 171.461 126.47 169.477V134.725C126.47 132.741 128.07 131.141 130.054 131.141Z" fill="#53CBC8"/>
</g>
<mask id="mask8_6456_22408" style="mask-type:luminance" maskUnits="userSpaceOnUse" x="30" y="30" width="160" height="160">
<path d="M190 30H30V190H190V30Z" fill="white"/>
</mask>
<g mask="url(#mask8_6456_22408)">
<path d="M144.154 132.484C146.138 132.484 147.738 134.084 147.738 136.068V165.594C147.738 167.578 146.138 169.178 144.154 169.178C142.17 169.178 140.57 167.578 140.57 165.594V136.068C140.57 134.084 142.17 132.484 144.154 132.484Z" fill="#53CBC8"/>
</g>
<mask id="mask9_6456_22408" style="mask-type:luminance" maskUnits="userSpaceOnUse" x="30" y="30" width="160" height="160">
<path d="M190 30H30V190H190V30Z" fill="white"/>
</mask>
<g mask="url(#mask9_6456_22408)">
<path d="M158.427 129.115C160.411 129.115 162.011 130.715 162.011 132.699V145.435C162.011 147.419 160.411 149.019 158.427 149.019C156.443 149.019 154.843 147.419 154.843 145.435V132.699C154.843 130.715 156.464 129.115 158.427 129.115Z" fill="#53CBC8"/>
</g>
</g>
<defs>
<clipPath id="clip0_6456_22408">
<rect width="220" height="220" fill="white"/>
</clipPath>
</defs>
</svg>
