<svg width="220" height="220" viewBox="0 0 220 220" fill="none" xmlns="http://www.w3.org/2000/svg">
<g clip-path="url(#clip0_5505_10414)">
<path d="M110 220C170.751 220 220 170.751 220 110C220 49.2487 170.751 0 110 0C49.2487 0 0 49.2487 0 110C0 170.751 49.2487 220 110 220Z" fill="#01E165"/>
<path d="M60.3001 131.45C58.2201 128.49 55.7501 125.97 52.4501 124.36C50.3401 119.44 45.7201 116.71 42.2601 112.99C40.1901 110.76 39.7401 109.53 42.1401 107.13C63.8701 85.3499 85.4901 63.4499 107.06 41.5099C109.11 39.4199 110.3 39.0899 112.54 41.3999C125.38 54.6499 138.37 67.7499 151.36 80.8499C152.78 82.2799 153.76 83.5399 152.12 85.3699C152.41 86.8899 151.58 87.9099 150.57 88.8299C138.1 100.14 126.68 112.51 114.64 124.25C110.04 128.73 109.57 128.76 105.01 124.27C101.45 120.76 98.0101 117.14 94.3901 113.69C91.6001 111.03 91.7001 108.78 94.4101 106.11C100.83 99.8099 107.05 93.2999 113.55 87.0899C116.4 84.3799 116.4 82.4699 113.59 79.7199C110.96 77.1399 109.16 76.4099 106.29 79.4799C97.4101 88.9599 87.7301 97.6499 79.0101 107.3C76.7601 109.79 77.1801 111.25 79.3901 113.41C88.4501 122.25 97.4401 131.17 106.23 140.28C109.05 143.2 110.81 142.89 113.5 140.15C126.93 126.49 140.54 113 154.09 99.4699C155.62 97.9499 157.01 96.2499 159.03 95.3099C161.31 92.7699 163.25 92.5199 165.77 95.3899C169.69 99.8399 174 103.98 178.3 108.08C179.86 109.57 179.89 110.41 178.35 111.93C173.89 116.33 169.6 120.9 165.24 125.4C153.38 137.27 141.52 149.12 129.68 161C123.94 166.77 118.11 172.47 112.62 178.47C110.31 180.99 109.06 180.6 106.92 178.4C94.1901 165.3 81.3401 152.31 68.5001 139.31C65.8301 136.62 63.0301 134.07 60.3001 131.45Z" fill="#222222"/>
</g>
<defs>
<clipPath id="clip0_5505_10414">
<rect width="220" height="220" fill="white"/>
</clipPath>
</defs>
</svg>
