<svg width="220" height="220" viewBox="0 0 220 220" fill="none" xmlns="http://www.w3.org/2000/svg">
<g clip-path="url(#clip0_5505_10417)">
<path d="M118.311 220C112.767 220 107.233 220 101.689 220C100.77 219.736 99.8702 219.345 98.9413 219.218C52.7218 213.107 21.5698 188.085 5.83733 144.3C2.85511 136.009 1.89689 126.994 0 118.311C0 112.767 0 107.233 0 101.689C0.273778 100.594 0.655111 99.5182 0.801778 98.4133C7.18667 52.008 32.6187 21.0027 76.6284 5.44622C84.6267 2.62044 93.3191 1.76978 101.689 0C107.233 0 112.767 0 118.311 0C119.387 0.273778 120.452 0.664889 121.548 0.811556C166.066 6.81511 196.807 30.6729 213.058 72.4827C216.646 81.7227 217.751 91.9209 220 101.689C220 107.233 220 112.767 220 118.311C219.726 119.396 219.306 120.472 219.188 121.587C214.446 167.132 182.121 204.805 137.779 216.196C131.384 217.839 124.804 218.748 118.311 220ZM129.859 110.215C129.859 105.16 129.79 100.115 129.888 95.0596C129.947 91.8818 128.803 90.1413 125.38 90.1609C115.114 90.2098 104.847 90.2 94.5804 90.1707C91.5102 90.1609 90.1218 91.5689 90.1413 94.6196C90.1805 104.886 90.1707 115.153 90.1511 125.42C90.1413 128.47 91.5591 129.859 94.6293 129.839C104.896 129.79 115.163 129.79 125.429 129.839C128.519 129.849 129.888 128.402 129.868 125.371C129.829 120.325 129.849 115.27 129.859 110.215ZM70.8693 50.9618C65.8338 50.9618 60.7884 51.0693 55.7529 50.9227C52.1547 50.8249 50.864 52.3893 50.9129 55.9093C51.04 65.824 51.0498 75.7484 50.9129 85.6631C50.864 89.2222 52.2916 90.7085 55.7822 90.6987C65.8631 90.64 75.944 90.64 86.0249 90.6987C89.3591 90.7182 90.6791 89.0951 90.6693 85.8978C90.6204 75.8169 90.6107 65.736 90.6791 55.6551C90.6987 52.0373 88.9484 50.8151 85.5164 50.9324C80.6276 51.0791 75.7485 50.952 70.8693 50.9618ZM149.111 50.9618C144.066 50.9618 139.03 51.0302 133.985 50.9324C130.983 50.8738 129.36 52.0667 129.36 55.1662C129.36 65.5698 129.37 75.9831 129.36 86.3867C129.36 89.1636 130.68 90.6498 133.496 90.6498C143.9 90.6596 154.313 90.6596 164.716 90.6498C167.708 90.6498 169.097 89.2418 169.077 86.1324C168.989 75.8853 168.989 65.648 169.077 55.4009C169.107 51.9298 167.396 50.864 164.237 50.9227C159.192 51.0204 154.147 50.9618 149.111 50.9618ZM50.952 149.101C50.952 154.137 51.04 159.182 50.9227 164.218C50.8444 167.425 51.9884 169.087 55.4009 169.058C65.6382 168.989 75.8853 168.989 86.1227 169.058C89.2124 169.077 90.6302 167.679 90.6302 164.677C90.6302 154.44 90.6107 144.193 90.6498 133.956C90.6596 130.67 89.1244 129.272 85.8684 129.292C75.7876 129.35 65.7164 129.35 55.6356 129.301C52.0471 129.282 50.7858 131.003 50.9129 134.464C51.0889 139.343 50.952 144.232 50.952 149.101ZM148.74 169.038C153.941 169.038 159.143 168.96 164.345 169.068C167.611 169.126 169.097 167.806 169.077 164.452C168.999 154.215 168.989 143.968 169.077 133.731C169.107 130.543 167.532 129.34 164.609 129.331C154.372 129.331 144.124 129.34 133.887 129.321C130.895 129.311 129.35 130.631 129.36 133.711C129.38 143.948 129.38 154.196 129.35 164.433C129.34 167.679 130.788 169.156 134.112 169.068C138.981 168.95 143.86 169.038 148.74 169.038Z" fill="black"/>
<path d="M129.849 110.215C129.849 115.27 129.819 120.315 129.859 125.37C129.878 128.391 128.519 129.848 125.419 129.839C115.153 129.79 104.886 129.79 94.6194 129.839C91.5492 129.858 90.1314 128.46 90.1412 125.419C90.1607 115.152 90.1705 104.886 90.1314 94.619C90.1216 91.5585 91.5101 90.1505 94.5705 90.1701C104.837 90.2092 115.104 90.219 125.371 90.1603C128.793 90.1408 129.937 91.891 129.878 95.059C129.79 100.114 129.859 105.169 129.849 110.215Z" fill="white"/>
<path d="M70.8694 50.9516C75.7485 50.9516 80.6276 51.069 85.497 50.9125C88.929 50.805 90.6792 52.0174 90.6596 55.6352C90.5912 65.7161 90.6107 75.797 90.6499 85.8779C90.6596 89.085 89.3396 90.6983 86.0054 90.6787C75.9245 90.6299 65.8436 90.6299 55.7627 90.6787C52.2721 90.6983 50.8445 89.2023 50.8934 85.6432C51.0303 75.7285 51.0205 65.8041 50.8934 55.8894C50.8445 52.3694 52.145 50.805 55.7334 50.9027C60.7885 51.0592 65.8339 50.9614 70.8694 50.9516Z" fill="white"/>
<path d="M149.111 50.9613C154.156 50.9613 159.192 51.0298 164.237 50.932C167.395 50.8733 169.107 51.9293 169.077 55.4102C168.989 65.6573 168.989 75.8946 169.077 86.1418C169.107 89.2511 167.708 90.6591 164.716 90.6591C154.313 90.6689 143.899 90.6689 133.496 90.6591C130.68 90.6591 129.36 89.1729 129.36 86.396C129.37 75.9924 129.36 65.5791 129.36 55.1755C129.36 52.0662 130.983 50.8831 133.985 50.9418C139.03 51.0298 144.066 50.9613 149.111 50.9613Z" fill="white"/>
<path d="M50.9518 149.101C50.9518 144.222 51.0789 139.343 50.9127 134.473C50.7954 131.012 52.0567 129.291 55.6354 129.311C65.7162 129.36 75.7874 129.369 85.8682 129.301C89.1242 129.281 90.6594 130.68 90.6496 133.965C90.6105 144.202 90.63 154.449 90.63 164.687C90.63 167.689 89.2122 169.087 86.1225 169.067C75.8851 168.999 65.638 168.999 55.4007 169.067C51.9882 169.087 50.8442 167.434 50.9225 164.227C51.0398 159.182 50.9518 154.146 50.9518 149.101Z" fill="white"/>
<path d="M148.739 169.038C143.86 169.038 138.981 168.94 134.112 169.067C130.787 169.155 129.34 167.679 129.35 164.432C129.379 154.195 129.379 143.948 129.36 133.711C129.35 130.631 130.895 129.311 133.887 129.32C144.124 129.35 154.371 129.33 164.609 129.33C167.532 129.33 169.107 130.533 169.077 133.73C168.989 143.967 168.999 154.215 169.077 164.452C169.107 167.806 167.611 169.126 164.345 169.067C159.143 168.969 153.941 169.038 148.739 169.038Z" fill="white"/>
</g>
<defs>
<clipPath id="clip0_5505_10417">
<rect width="220" height="220" fill="white"/>
</clipPath>
</defs>
</svg>
