<svg width="169" height="45" viewBox="0 0 169 45" fill="none" xmlns="http://www.w3.org/2000/svg">
<g clip-path="url(#clip0_4557_8541)">
<path d="M48.9709 31.5287V29.9297C48.8492 30.2319 48.74 30.5592 48.6477 30.9139L48.9709 31.5287Z" fill="#D1D3D4"/>
<path d="M60.2648 31.595V29.4336C60.0465 29.8617 59.8829 30.3422 59.78 30.8836L60.2648 31.595Z" fill="#D1D3D4"/>
<path d="M71.162 31.0127C71.0445 30.4944 70.8536 30.0202 70.5933 29.5879C70.2807 30.0454 70.0037 30.5616 69.7708 31.1408L71.162 31.0127Z" fill="#D1D3D4"/>
<path d="M15.2256 9.20545C16.4784 7.71764 18.1403 6.64533 20.0248 6.20045C20.6627 6.04307 21.3258 5.96542 22.0078 5.96542C24.6959 5.96542 27.1134 7.21611 28.79 9.20755L25.0149 2.83032C24.7778 2.42742 24.4882 2.09376 24.1608 1.82935C22.5744 0.528307 20.1696 0.861963 19.0028 2.83032L15.2256 9.20545Z" fill="#D1D3D4"/>
<path d="M36.1367 24.2356L31.7865 16.0915C29.9063 12.5702 26.83 10.5452 23.5711 10.0101C23.5669 10.0101 23.5627 10.008 23.5585 10.008C22.9898 9.89469 22.4064 9.83594 21.8105 9.83594C21.2124 9.83594 20.629 9.89469 20.0603 10.008C16.7972 10.5389 13.7167 12.566 11.8344 16.0915L7.48635 24.2293L1.60016 35.2483C0.934949 36.4906 0.720906 37.7854 0.830026 39.0822C1.48475 46.7479 12.1135 46.0701 12.1135 38.3708V36.8494V26.3257C12.1135 26.311 12.1135 26.2984 12.1135 26.2837V26.3257C12.1135 21.26 15.4353 17.0358 19.8547 16.0579C20.4863 15.9173 21.1389 15.8459 21.8084 15.8459C24.4839 15.8459 26.9076 17.0211 28.664 18.916C30.4163 20.8109 31.5033 23.434 31.5033 26.3278V36.8536V38.2617C31.5033 45.9253 42.0984 46.5569 42.6965 38.9185C42.7993 37.607 42.5768 36.2997 41.9053 35.0406L36.1367 24.2356Z" fill="#D1D3D4"/>
<path d="M43.729 43.715V26.0565H48.2575V30.2933L47.9343 29.6784C48.3225 28.1906 48.9647 27.1834 49.8586 26.6545C50.7526 26.1257 51.8165 25.8613 53.0441 25.8613H54.0786V30.0666H52.5593C51.3737 30.0666 50.4126 30.4276 49.6802 31.1495C48.9479 31.8713 48.5806 32.8912 48.5806 34.2048V43.7129H43.729V43.715Z" fill="#D1D3D4"/>
<path d="M55.0208 43.7146V26.056H59.5492V30.3579L59.0645 29.6465C59.3226 28.2888 59.9479 27.2857 60.9405 26.6394C61.9331 25.9931 63.1187 25.6699 64.4974 25.6699C65.9642 25.6699 67.2506 26.0413 68.3628 26.7863C69.4729 27.5292 70.1675 28.528 70.4487 29.7787L69.0574 29.9088C69.6386 28.4651 70.4696 27.397 71.5482 26.7066C72.6269 26.0162 73.888 25.672 75.3318 25.672C76.6034 25.672 77.7303 25.9532 78.7124 26.5135C79.6924 27.0738 80.4646 27.8565 81.0249 28.8575C81.5852 29.8606 81.8664 31.0294 81.8664 32.3661V43.7188H77.0147V33.4007C77.0147 32.7103 76.8909 32.1185 76.6433 31.6212C76.3957 31.1259 76.0452 30.7377 75.592 30.4565C75.1387 30.1774 74.5889 30.0368 73.9426 30.0368C73.3172 30.0368 72.7717 30.1774 72.31 30.4565C71.8462 30.7377 71.4895 31.1259 71.2419 31.6212C70.9943 32.1164 70.8704 32.7103 70.8704 33.4007V43.7188H66.0188V33.4007C66.0188 32.7103 65.895 32.1185 65.6474 31.6212C65.3998 31.1259 65.0493 30.7377 64.596 30.4565C64.1428 30.1774 63.593 30.0368 62.9466 30.0368C62.3213 30.0368 61.7778 30.1774 61.314 30.4565C60.8503 30.7377 60.4935 31.1259 60.2459 31.6212C59.9983 32.1164 59.8745 32.7103 59.8745 33.4007V43.7188H55.0208V43.7146Z" fill="#D1D3D4"/>
<path d="M49.8102 29.851V28.252C49.6885 28.5541 49.5794 28.8815 49.4871 29.2361L49.8102 29.851Z" fill="#D1D3D4"/>
<path d="M61.1041 29.9153V27.7539C60.8859 28.182 60.7222 28.6625 60.6194 29.2039L61.1041 29.9153Z" fill="#D1D3D4"/>
<path d="M72.0014 29.335C71.8839 28.8167 71.6929 28.3424 71.4327 27.9102C71.12 28.3676 70.843 28.8838 70.6101 29.463L72.0014 29.335Z" fill="#D1D3D4"/>
<path d="M22.5596 19.332L17.5107 22.8407V26.7543L22.5596 23.2457L27.6064 26.7543V22.8407L22.5596 19.332Z" fill="#FFA048"/>
<path d="M17.5107 29.3114V33.225L22.5596 29.7164L27.6064 33.225V29.3114L22.5596 25.8027L17.5107 29.3114Z" fill="#FFA048"/>
<path d="M17.5107 35.784V39.6977L22.5596 36.189L27.6064 39.6977V35.784L22.5596 32.2754L17.5107 35.784Z" fill="#FFA048"/>
<path d="M27.7008 26.9016L22.5596 23.3279L17.4163 26.9016V22.7592L17.4561 22.7319L22.5575 19.1855L22.6121 19.2233L27.7008 22.7613V26.9016ZM17.6051 22.8558V26.5386L22.5596 23.095L22.6142 23.1328L27.5141 26.5386V22.8558L22.5596 19.4122L17.6051 22.8558Z" fill="#1E344E"/>
<path d="M27.7008 33.3703L22.5596 29.7967L17.4163 33.3703V29.228L17.4561 29.2007L22.5575 25.6543L22.6121 25.6921L27.7008 29.2301V33.3703ZM17.6051 29.3266V33.0094L22.5596 29.5658L22.6142 29.6036L27.5141 33.0094V29.3266L22.5596 25.883L17.6051 29.3266Z" fill="#1E344E"/>
<path d="M27.7008 39.843L22.5596 36.2693L17.4163 39.843V35.7006L17.4561 35.6734L22.5575 32.127L22.6121 32.1647L27.7008 35.7027V39.843ZM17.6051 35.7993V39.4821L22.5596 36.0385L22.6142 36.0763L27.5141 39.4821V35.7993L22.5596 32.3557L17.6051 35.7993Z" fill="#1E344E"/>
<path d="M15.855 8.15677C17.1078 6.66896 18.7697 5.59664 20.6542 5.15177C21.2921 4.99438 21.9552 4.91674 22.6372 4.91674C25.3253 4.91674 27.7428 6.16743 29.4194 8.15887L25.6422 1.77954C25.4051 1.37663 25.1155 1.04298 24.7881 0.778573C23.2017 -0.522474 20.7969 -0.188818 19.6301 1.77954L15.855 8.15677Z" fill="#298DFE"/>
<path d="M36.976 22.5559L32.6259 14.4118C30.7457 10.8905 27.6693 8.86553 24.4104 8.33042C24.4062 8.33042 24.402 8.32832 24.3978 8.32832C23.8291 8.21501 23.2458 8.15625 22.6498 8.15625C22.0518 8.15625 21.4684 8.21501 20.8997 8.32832C17.6366 8.85923 14.556 10.8864 12.6737 14.4118L8.3257 22.5496L2.43952 33.5686C1.7743 34.8109 1.56026 36.1057 1.66938 37.4025C2.3241 45.0682 12.9528 44.3904 12.9528 36.6912V35.1698V24.646C12.9528 24.6313 12.9528 24.6187 12.9528 24.604V24.646C12.9528 19.5803 16.2747 15.3561 20.694 14.3782C21.3257 14.2376 21.9783 14.1662 22.6477 14.1662C25.3233 14.1662 27.747 15.3414 29.5034 17.2363C31.2556 19.1312 32.3426 21.7543 32.3426 24.6481V35.174V36.582C32.3426 44.2456 42.9377 44.8773 43.5358 37.2388C43.6386 35.9273 43.4162 34.62 42.7447 33.3609L36.976 22.5559Z" fill="#298DFE"/>
<path d="M44.5684 42.0373V24.3788H49.0968V28.6155L48.7737 28.0007C49.1619 26.5129 49.804 25.5056 50.698 24.9768C51.5919 24.448 52.6558 24.1836 53.8834 24.1836H54.918V28.3889H53.3987C52.2131 28.3889 51.252 28.7498 50.5196 29.4717C49.7872 30.1936 49.42 31.2134 49.42 32.5271V42.0352H44.5684V42.0373Z" fill="#298DFE"/>
<path d="M55.8601 42.0369V24.3783H60.3886V28.6802L59.9038 27.9688C60.162 26.6111 60.7873 25.608 61.7799 24.9617C62.7724 24.3153 63.9581 23.9922 65.3368 23.9922C66.8036 23.9922 68.09 24.3636 69.2021 25.1086C70.3122 25.8514 71.0068 26.8503 71.288 28.101L69.8967 28.2311C70.478 26.7873 71.309 25.7192 72.3876 25.0288C73.4662 24.3384 74.7274 23.9943 76.1711 23.9943C77.4428 23.9943 78.5697 24.2755 79.5517 24.8358C80.5317 25.3961 81.304 26.1788 81.8643 27.1798C82.4245 28.1828 82.7057 29.3517 82.7057 30.6884V42.0411H77.8541V31.7229C77.8541 31.0325 77.7303 30.4408 77.4827 29.9434C77.235 29.4482 76.8846 29.06 76.4313 28.7788C75.9781 28.4997 75.4283 28.3591 74.7819 28.3591C74.1566 28.3591 73.611 28.4997 73.1493 28.7788C72.6856 29.06 72.3288 29.4482 72.0812 29.9434C71.8336 30.4387 71.7098 31.0325 71.7098 31.7229V42.0411H66.8582V31.7229C66.8582 31.0325 66.7343 30.4408 66.4867 29.9434C66.2391 29.4482 65.8887 29.06 65.4354 28.7788C64.9821 28.4997 64.4323 28.3591 63.786 28.3591C63.1607 28.3591 62.6172 28.4997 62.1534 28.7788C61.6896 29.06 61.3329 29.4482 61.0853 29.9434C60.8377 30.4387 60.7139 31.0325 60.7139 31.7229V42.0411H55.8601V42.0369Z" fill="#298DFE"/>
<path d="M95.4372 42.5894C93.6976 42.5894 92.0923 42.2746 90.6233 41.643C89.1544 41.0113 87.8702 40.1321 86.7727 39.001C85.6731 37.8699 84.819 36.5437 84.2104 35.0202C83.6019 33.4967 83.2976 31.8326 83.2976 30.028C83.2976 28.2233 83.5956 26.5529 84.1957 25.0189C84.7938 23.485 85.6416 22.1587 86.7412 21.0382C87.8387 19.9176 89.1292 19.0467 90.6087 18.4277C92.0881 17.8086 93.6976 17.498 95.4372 17.498C97.1768 17.498 98.7381 17.7918 100.121 18.3794C101.502 18.967 102.671 19.7455 103.63 20.7129C104.587 21.6803 105.273 22.7421 105.686 23.8942L101.705 25.7534C101.248 24.5363 100.476 23.529 99.3886 22.7358C98.3016 21.9426 96.9838 21.5439 95.4393 21.5439C93.9158 21.5439 92.5728 21.9027 91.4103 22.6204C90.2456 23.3381 89.3433 24.3285 88.7011 25.5897C88.059 26.8509 87.738 28.3303 87.738 30.028C87.738 31.7256 88.059 33.2092 88.7011 34.483C89.3433 35.7568 90.2456 36.7514 91.4103 37.4691C92.5749 38.1868 93.9179 38.5456 95.4393 38.5456C96.9838 38.5456 98.2995 38.149 99.3886 37.3537C100.476 36.5605 101.248 35.5532 101.705 34.3361L105.686 36.1954C105.273 37.3495 104.587 38.4092 103.63 39.3766C102.673 40.344 101.502 41.1225 100.121 41.7101C98.7381 42.2956 97.1789 42.5894 95.4372 42.5894Z" fill="#1E344E"/>
<path d="M112.374 42.5904C111.134 42.5904 110.057 42.3827 109.144 41.9693C108.231 41.5559 107.524 40.9641 107.023 40.1919C106.521 39.4196 106.271 38.5236 106.271 37.4995C106.271 36.5217 106.488 35.6445 106.924 34.8723C107.358 34.1 108.034 33.4537 108.947 32.9312C109.86 32.4087 111.014 32.0393 112.405 31.8211L118.214 30.8747V34.1378L113.222 34.9856C112.374 35.1388 111.742 35.4095 111.329 35.8019C110.915 36.1943 110.71 36.7042 110.71 37.3359C110.71 37.9444 110.943 38.4292 111.411 38.788C111.879 39.1468 112.46 39.3273 113.157 39.3273C114.048 39.3273 114.837 39.1363 115.522 38.7565C116.208 38.3767 116.739 37.8479 117.121 37.1743C117.5 36.5007 117.691 35.7599 117.691 34.9562V30.3858C117.691 29.624 117.391 28.9882 116.793 28.4761C116.195 27.9641 115.406 27.7102 114.428 27.7102C113.515 27.7102 112.703 27.9557 111.998 28.4447C111.291 28.9336 110.775 29.582 110.447 30.3858L106.956 28.6881C107.304 27.7522 107.854 26.9422 108.603 26.2581C109.354 25.5719 110.24 25.0347 111.262 24.6423C112.284 24.2498 113.394 24.0547 114.59 24.0547C116.048 24.0547 117.33 24.3212 118.44 24.8542C119.551 25.3872 120.415 26.128 121.034 27.0723C121.653 28.0187 121.964 29.1225 121.964 30.3837V42.1959H117.918V39.1615L118.831 39.0965C118.373 39.8582 117.83 40.494 117.198 41.0061C116.567 41.5181 115.849 41.9084 115.045 42.1812C114.244 42.454 113.354 42.5904 112.374 42.5904Z" fill="#1E344E"/>
<path d="M124.316 42.198V24.4471H128.331V28.3964L128.005 27.8088C128.419 26.4826 129.065 25.5572 129.946 25.0347C130.828 24.5122 131.887 24.252 133.128 24.252H134.173V28.0376H132.639C131.419 28.0376 130.442 28.4132 129.701 29.1624C128.96 29.9136 128.591 30.9628 128.591 32.3121V42.2001H124.316V42.198Z" fill="#1E344E"/>
<path d="M143.177 42.5897C141.459 42.5897 139.925 42.1826 138.575 41.3663C137.226 40.55 136.16 39.4357 135.377 38.0213C134.595 36.6069 134.202 35.0415 134.202 33.3228C134.202 31.5832 134.592 30.0157 135.377 28.6244C136.16 27.2331 137.232 26.123 138.592 25.2962C139.952 24.4694 141.469 24.056 143.144 24.056C144.493 24.056 145.693 24.3225 146.749 24.8555C147.804 25.3886 148.635 26.1335 149.246 27.0904L148.593 27.9718V17.4941H152.868V42.1972H148.822V38.7705L149.28 39.6182C148.671 40.5751 147.821 41.3096 146.734 41.8216C145.647 42.3336 144.462 42.5897 143.177 42.5897ZM143.635 38.6739C144.613 38.6739 145.473 38.4452 146.212 37.9877C146.95 37.5303 147.534 36.9007 147.958 36.0949C148.381 35.2912 148.593 34.3658 148.593 33.3207C148.593 32.2988 148.381 31.3797 147.958 30.5634C147.534 29.7471 146.95 29.1112 146.212 28.6538C145.471 28.1963 144.613 27.9676 143.635 27.9676C142.678 27.9676 141.817 28.2026 141.058 28.6685C140.296 29.1364 139.704 29.768 139.28 30.5613C138.857 31.3566 138.645 32.2736 138.645 33.3186C138.645 34.3637 138.857 35.287 139.28 36.0928C139.704 36.8986 140.296 37.5282 141.058 37.9856C141.817 38.4452 142.678 38.6739 143.635 38.6739Z" fill="#1E344E"/>
<path d="M162.007 42.5904C160.114 42.5904 158.467 42.1392 157.063 41.2369C155.659 40.3346 154.698 39.1112 154.175 37.5667L157.373 36.0327C157.831 37.0337 158.467 37.8164 159.283 38.383C160.099 38.9496 161.006 39.2308 162.007 39.2308C162.789 39.2308 163.411 39.0566 163.866 38.7083C164.323 38.3599 164.552 37.9045 164.552 37.338C164.552 36.9896 164.46 36.7021 164.275 36.4734C164.091 36.2447 163.839 36.0495 163.524 35.8858C163.209 35.7221 162.865 35.5878 162.496 35.4787L159.591 34.6624C158.091 34.228 156.954 33.5649 156.181 32.671C155.409 31.7791 155.023 30.7236 155.023 29.5065C155.023 28.4195 155.3 27.4668 155.854 26.6505C156.408 25.8342 157.18 25.1984 158.171 24.7409C159.161 24.2834 160.296 24.0547 161.581 24.0547C163.255 24.0547 164.735 24.4576 166.019 25.2613C167.303 26.0671 168.216 27.1982 168.76 28.6545L165.496 30.1885C165.192 29.3848 164.68 28.7427 163.963 28.2642C163.245 27.7858 162.439 27.5465 161.547 27.5465C160.83 27.5465 160.263 27.7102 159.85 28.0355C159.436 28.3607 159.228 28.7867 159.228 29.3092C159.228 29.6345 159.314 29.9178 159.489 30.157C159.663 30.3962 159.908 30.5935 160.223 30.7446C160.538 30.8978 160.903 31.0384 161.316 31.1685L164.156 32.0163C165.612 32.4527 166.739 33.1033 167.532 33.9741C168.325 34.845 168.724 35.911 168.724 37.1722C168.724 38.2382 168.441 39.1783 167.876 39.9946C167.31 40.8109 166.527 41.4467 165.526 41.9042C164.529 42.3617 163.354 42.5904 162.007 42.5904Z" fill="#1E344E"/>
</g>
<defs>
<clipPath id="clip0_4557_8541">
<rect width="167.959" height="44.5" fill="white" transform="translate(0.802734)"/>
</clipPath>
</defs>
</svg>
