<svg width="127" height="45" viewBox="0 0 127 45" fill="none" xmlns="http://www.w3.org/2000/svg">
<g clip-path="url(#clip0_4557_8591)">
<path d="M45.1453 22.25C45.1453 9.9614 35.1839 0 22.8953 0C10.6067 0 0.645264 9.9614 0.645264 22.25C0.645264 34.5386 10.6067 44.5 22.8953 44.5C35.1839 44.5 45.1453 34.5386 45.1453 22.25ZM9.11676 36.9539C8.86494 36.7189 8.16196 36.3789 8.86075 35.9781C9.41054 35.6634 9.67705 34.3728 10.7242 35.3507C14.0985 38.5047 18.138 40.0156 22.1734 40.1247C26.5403 40.0869 30.0049 38.9831 33.1169 36.7819C33.5743 36.4587 34.0759 36.146 34.2626 35.6046C34.504 34.8974 34.4872 34.1756 33.8492 33.6363C33.1987 33.0886 32.4957 33.0277 31.7613 33.4915C30.8547 34.0643 29.9608 34.6561 29.0291 35.1849C28.7143 35.3633 28.1939 35.8354 27.9945 35.101C27.8392 34.5323 27.0565 33.8146 27.9568 33.3278C29.4844 32.5052 30.8484 31.5084 31.9732 30.1948C32.3467 29.7583 32.6678 29.9975 33.014 30.1927C34.0213 30.7551 35.0202 31.3279 36.0337 31.8756C37.1585 32.4821 38.1112 32.3016 38.64 31.4098C39.1877 30.4886 38.8373 29.475 37.7209 28.835C36.6171 28.2033 35.23 27.8256 34.4599 26.9191C33.5932 25.8971 34.7915 24.5814 34.804 23.337C34.825 21.3519 34.5564 19.4569 33.7905 17.6334C33.291 16.4415 32.3195 15.963 31.3437 16.3974C30.4287 16.8066 30.0468 17.8243 30.5714 18.9365C32.8504 23.7567 29.8894 29.3869 25.0441 30.7341C23.6171 31.1307 23.3003 31.8589 23.72 33.2648C23.9235 33.951 24.0704 34.6708 24.3894 35.3003C24.9664 36.4419 24.3999 36.6643 23.4346 36.679C18.9711 36.7483 15.2044 35.1786 12.17 31.8903C10.6717 30.2682 10.1219 30.2367 8.43266 31.7225C8.19343 31.9323 7.95211 32.1401 7.71289 32.3478C6.12015 33.7391 6.12015 33.7391 5.14647 31.798C-0.198318 21.1399 4.05526 8.83033 14.9715 4.11718C26.0723 -0.675705 38.5372 5.4644 41.9262 16.9283C42.2431 17.9985 42.4676 19.0855 42.5872 20.1914C42.6334 20.6153 42.8558 21.2973 42.0437 21.1819C41.4331 21.0958 40.4552 21.7674 40.3104 20.4264C39.9726 17.2745 38.8499 14.4101 36.9277 11.8878C33.717 7.67408 29.432 5.35738 24.1753 4.83276C22.6372 4.67957 21.8167 5.11815 21.5921 6.12751C21.3613 7.15786 21.9321 8.03292 23.0065 8.21968C23.827 8.36237 24.6664 8.40225 25.4827 8.56383C25.8205 8.63098 26.5718 8.42323 26.3263 9.16609C26.129 9.76415 26.1143 10.7148 25.1133 10.6203C23.6045 10.4776 22.0999 10.3433 20.6058 10.6686C19.9406 10.8134 19.7811 10.3622 19.5902 9.92363C19.0467 8.68764 18.5431 7.43066 17.9639 6.21355C17.4623 5.16222 16.5474 4.82856 15.6178 5.26714C14.7532 5.67634 14.428 6.5577 14.8372 7.60063C15.2862 8.74639 15.7353 9.90265 16.3082 10.9876C16.7384 11.8039 16.5978 12.2508 15.8151 12.6957C15.2715 13.0042 14.8057 13.4679 14.3566 13.9128C13.5676 14.6934 13.5214 15.7427 14.195 16.4561C14.8707 17.1717 15.8717 17.1507 16.751 16.4058C17.114 16.0973 17.4581 15.7595 17.8485 15.493C20.1903 13.8939 22.7085 13.4658 25.447 14.3178C27.1698 14.855 27.6567 14.599 28.4331 12.9538C28.6534 12.4859 28.8717 12.0179 29.0962 11.552C29.8286 10.0328 29.8601 9.99498 31.2325 11.0568C34.8355 13.8457 36.7913 17.5138 36.9634 22.0947C37.0452 24.2897 37.4124 24.6506 39.578 24.6569C39.9747 24.6569 40.3734 24.6569 40.77 24.6548C42.7656 24.6527 42.7656 24.6527 42.3018 26.6274C40.174 35.6969 32.8567 41.9525 23.5605 42.3827C18.0331 42.6366 13.1752 40.7584 9.11676 36.9539Z" fill="#1E344E"/>
<path d="M14.6127 19.8115C14.9548 18.6699 14.4574 17.9418 13.2697 17.5766C12.4744 17.3311 11.6749 17.0814 10.8628 16.903C10.059 16.7268 9.79044 16.4833 10.2983 15.6544C11.1356 14.2904 12.0799 13.0356 13.2424 11.9318C14.1238 11.0966 14.1804 10.0494 13.4565 9.30659C12.764 8.59311 11.7567 8.6057 10.911 9.38213C7.41288 12.5928 5.53685 16.5904 5.15074 21.3014C5.0584 22.187 5.14444 23.0096 6.0174 23.4796C6.66583 23.83 7.32684 23.7629 7.927 23.3285C8.60061 22.8417 8.53766 22.0925 8.60271 21.3832C8.73701 19.9185 8.90908 19.8451 10.2794 20.3109C10.8376 20.4998 10.8711 20.8334 10.8628 21.3035C10.846 22.2163 10.7956 23.1376 10.8963 24.0399C10.9866 24.8415 10.697 25.171 9.95412 25.3724C8.99932 25.6326 8.0739 26.0062 7.14847 26.3587C6.0237 26.7868 5.55364 27.6996 5.90618 28.7006C6.23984 29.6491 7.1065 30.0142 8.25856 29.6428C9.27841 29.3133 10.3151 29.0091 11.2824 28.5579C12.0442 28.2011 12.3799 28.4299 12.7766 29.072C13.7775 30.6878 15.152 31.9469 16.7993 32.887C17.8129 33.4662 18.7886 33.2479 19.3112 32.4002C19.8316 31.5566 19.6008 30.5388 18.6187 29.9639C15.4353 28.1088 13.2886 24.2309 14.6127 19.8115Z" fill="#1E344E"/>
<path d="M18.096 18.0288C17.3763 18.7822 17.3721 19.6027 18.0058 20.3875C18.6186 21.1472 19.5964 21.1639 20.4463 20.5092C20.759 20.2679 21.0654 20.0035 21.4116 19.823C22.9078 19.0424 24.7146 19.6573 25.4679 21.1765C26.1919 22.6371 25.6022 24.3977 24.1396 25.151C22.8134 25.833 21.7851 25.5938 20.2931 24.255C19.4831 23.5289 18.5577 23.4911 17.8421 24.1585C17.1517 24.8027 17.1161 25.8288 17.7939 26.622C19.076 28.1204 20.6981 28.9283 22.6854 28.966C27.0355 29.0122 30.1118 25.0986 29.0206 20.7652C28.4352 18.438 26.8424 16.8831 24.5299 16.2598C22.0852 15.6009 19.8839 16.1591 18.096 18.0288Z" fill="#FFA048"/>
<path d="M62.405 24.7266L69.4265 5.63477H71.143L78.1645 24.7266H76.3703L74.6286 19.8581H65.9409L64.1719 24.7266H62.405ZM66.4802 18.32H74.0662L69.9658 6.91483H70.5806L66.4802 18.32Z" fill="#298DFE"/>
<path d="M80.9868 24.7266V5.63477H87.3934C88.6063 5.63477 89.6745 5.87399 90.5978 6.35244C91.5211 6.83089 92.243 7.50659 92.7634 8.37746C93.2838 9.24832 93.544 10.2577 93.544 11.4013C93.544 12.7674 93.1726 13.9342 92.4297 14.8995C91.6869 15.8648 90.6901 16.5258 89.4436 16.8846L93.9532 24.7266H91.9807L87.2402 16.3726L88.6252 17.1679H82.653V24.7287H80.9868V24.7266ZM82.6509 15.6297H87.4438C88.3147 15.6297 89.0848 15.4556 89.75 15.1051C90.4173 14.7547 90.9377 14.2594 91.3134 13.6194C91.689 12.9794 91.8778 12.2323 91.8778 11.3762C91.8778 10.5221 91.689 9.78343 91.3134 9.16018C90.9377 8.53694 90.4173 8.0501 89.75 7.69965C89.0827 7.34921 88.3147 7.17504 87.4438 7.17504H82.6509V15.6297Z" fill="#298DFE"/>
<path d="M97.3361 24.7266V5.63477H98.7462L105.871 16.2446H105.178L112.327 5.63477H113.738V24.7266H112.071V8.06898L112.481 8.29981L105.562 18.6284H105.484L98.5658 8.29981L99.0022 8.06898V24.7266H97.3361Z" fill="#298DFE"/>
<path d="M49.1428 35.907V25.8848H52.4122C53.4971 25.8848 54.4393 26.1009 55.2368 26.5311C56.0342 26.9613 56.6532 27.553 57.0939 28.3064C57.5325 29.0597 57.7528 29.9201 57.7528 30.8896C57.7528 31.8591 57.5325 32.7216 57.0939 33.4791C56.6553 34.2366 56.0363 34.8305 55.2368 35.2607C54.4372 35.6909 53.4971 35.907 52.4122 35.907H49.1428ZM51.2287 34.0898H52.4668C53.1215 34.0898 53.686 33.9576 54.1623 33.6931C54.6387 33.4287 55.008 33.0573 55.2724 32.5768C55.5368 32.0962 55.669 31.5338 55.669 30.8875C55.669 30.2328 55.5368 29.6683 55.2724 29.1919C55.008 28.7156 54.6387 28.3484 54.1623 28.0882C53.686 27.8279 53.1215 27.6978 52.4668 27.6978H51.2287V34.0898Z" fill="#1E344E"/>
<path d="M58.9385 27.9015V25.8828H60.9572V27.9015H58.9385ZM58.9385 35.9072V28.5605H60.9572V35.9072H58.9385Z" fill="#1E344E"/>
<path d="M66.0417 38.8656C65.4772 38.8656 64.9526 38.7711 64.4679 38.5823C63.9831 38.3934 63.5676 38.1311 63.2235 37.7954C62.8772 37.4596 62.6296 37.063 62.4764 36.6055L64.3462 35.9466C64.4448 36.2866 64.6462 36.5573 64.9505 36.7545C65.2548 36.9518 65.6178 37.0504 66.0396 37.0504C66.3712 37.0504 66.6587 36.9895 66.9 36.8678C67.1413 36.7461 67.3281 36.5699 67.4582 36.3369C67.5883 36.104 67.6533 35.8312 67.6533 35.5164V33.8356L68.0436 34.3203C67.7918 34.7337 67.4687 35.0401 67.0742 35.2415C66.6796 35.443 66.218 35.5437 65.6892 35.5437C65.0072 35.5437 64.3965 35.3884 63.8593 35.0799C63.3221 34.7715 62.9003 34.3455 62.5939 33.802C62.2897 33.2585 62.1365 32.6436 62.1365 31.9511C62.1365 31.2607 62.2897 30.648 62.5939 30.115C62.8982 29.582 63.3158 29.1623 63.8446 28.8559C64.3734 28.5516 64.9757 28.3984 65.6472 28.3984C66.176 28.3984 66.6377 28.5034 67.0322 28.7153C67.4267 28.9252 67.7625 29.2462 68.0416 29.6764L67.7855 30.1611V28.56H69.67V35.5164C69.67 36.1628 69.5126 36.7377 69.1999 37.2456C68.8851 37.7513 68.457 38.15 67.9156 38.4354C67.3742 38.7229 66.7489 38.8656 66.0417 38.8656ZM65.9746 33.7138C66.3145 33.7138 66.6104 33.6425 66.8622 33.4977C67.114 33.355 67.3092 33.1536 67.4477 32.8912C67.5862 32.631 67.6554 32.3268 67.6554 31.9763C67.6554 31.6259 67.5841 31.3195 67.4393 31.0551C67.2966 30.7907 67.0993 30.585 66.8475 30.436C66.5957 30.2871 66.304 30.2136 65.9725 30.2136C65.6325 30.2136 65.3282 30.2871 65.0638 30.436C64.7994 30.5829 64.5938 30.7907 64.4448 31.0551C64.2979 31.3195 64.2223 31.6259 64.2223 31.9763C64.2223 32.3163 64.2958 32.6184 64.4448 32.8787C64.5938 33.1389 64.7994 33.3424 65.0638 33.4914C65.3303 33.6383 65.6325 33.7138 65.9746 33.7138Z" fill="#1E344E"/>
<path d="M71.1536 27.9015V25.8828H73.1723V27.9015H71.1536ZM71.1536 35.9072V28.5605H73.1723V35.9072H71.1536Z" fill="#1E344E"/>
<path d="M78.1896 35.9854C77.302 35.9854 76.6137 35.7461 76.1248 35.2656C75.6358 34.785 75.3924 34.1156 75.3924 33.2532V30.3069H74.1543V28.5589H74.2214C74.5971 28.5589 74.8867 28.4645 75.0902 28.2756C75.2917 28.0868 75.3924 27.8056 75.3924 27.4278V26.8906H77.4111V28.5589H79.1339V30.3069H77.4111V33.1189C77.4111 33.3707 77.4552 33.5784 77.5454 33.7442C77.6356 33.91 77.7741 34.0338 77.963 34.1135C78.1519 34.1933 78.3848 34.2352 78.6618 34.2352C78.7247 34.2352 78.7961 34.231 78.8779 34.2227C78.9598 34.2143 79.0437 34.2038 79.1339 34.1954V35.9035C78.9996 35.9224 78.8465 35.9392 78.6765 35.9581C78.5044 35.977 78.3428 35.9854 78.1896 35.9854Z" fill="#1E344E"/>
<path d="M82.5902 36.0683C82.0614 36.0683 81.604 35.9823 81.2178 35.8123C80.8317 35.6423 80.5359 35.3968 80.3302 35.0799C80.1246 34.761 80.0217 34.3833 80.0217 33.9426C80.0217 33.5292 80.1162 33.164 80.305 32.8451C80.4939 32.5261 80.7835 32.2596 81.1738 32.0456C81.5641 31.8294 82.0509 31.6783 82.6343 31.5881L84.8818 31.2251V32.7045L82.9973 33.0402C82.7099 33.0948 82.4916 33.185 82.3384 33.3151C82.1852 33.4452 82.1097 33.632 82.1097 33.8733C82.1097 34.0979 82.1957 34.272 82.3657 34.3979C82.5357 34.5238 82.7476 34.5868 82.9973 34.5868C83.3289 34.5868 83.6206 34.5155 83.8724 34.3707C84.1242 34.228 84.3194 34.0328 84.4579 33.7852C84.5964 33.5376 84.6656 33.2669 84.6656 32.971V31.0614C84.6656 30.7844 84.5565 30.5494 84.3362 30.3626C84.1158 30.1737 83.8178 30.0793 83.4422 30.0793C83.0834 30.0793 82.7665 30.1779 82.4937 30.3752C82.2209 30.5724 82.0216 30.8327 81.8957 31.1558L80.2819 30.3899C80.4246 29.9765 80.6534 29.6239 80.9681 29.326C81.2829 29.0301 81.6585 28.8013 82.0992 28.6398C82.5378 28.4782 83.0183 28.3984 83.5388 28.3984C84.1578 28.3984 84.7055 28.5097 85.1798 28.7342C85.6561 28.9587 86.0254 29.2693 86.2898 29.6701C86.5542 30.0688 86.6864 30.5326 86.6864 31.0635V35.9067H84.802V34.7232L85.2595 34.6435C85.0434 34.9666 84.8062 35.2331 84.546 35.443C84.2858 35.6528 83.9941 35.8102 83.671 35.913C83.3436 36.0159 82.9848 36.0683 82.5902 36.0683Z" fill="#1E344E"/>
<path d="M88.1594 35.9065V25.7227H90.1781V35.9065H88.1594Z" fill="#1E344E"/>
<path d="M96.9185 35.907L93.4875 25.8848H95.7749L98.3581 33.9303H97.9006L100.484 25.8848H102.771L99.3402 35.907H96.9185Z" fill="#1E344E"/>
<path d="M105.394 36.0683C104.865 36.0683 104.408 35.9823 104.022 35.8123C103.636 35.6423 103.34 35.3968 103.134 35.0799C102.929 34.761 102.826 34.3833 102.826 33.9426C102.826 33.5292 102.92 33.164 103.109 32.8451C103.298 32.5261 103.587 32.2596 103.978 32.0456C104.368 31.8294 104.855 31.6783 105.438 31.5881L107.686 31.2251V32.7045L105.801 33.0402C105.514 33.0948 105.293 33.185 105.142 33.3151C104.989 33.4452 104.914 33.632 104.914 33.8733C104.914 34.0979 105 34.272 105.17 34.3979C105.34 34.5238 105.552 34.5868 105.801 34.5868C106.133 34.5868 106.425 34.5155 106.676 34.3707C106.928 34.228 107.123 34.0328 107.262 33.7852C107.4 33.5376 107.47 33.2669 107.47 32.971V31.0614C107.47 30.7844 107.36 30.5494 107.14 30.3626C106.92 30.1737 106.622 30.0793 106.246 30.0793C105.887 30.0793 105.57 30.1779 105.298 30.3752C105.025 30.5724 104.826 30.8327 104.7 31.1558L103.086 30.3899C103.229 29.9765 103.457 29.6239 103.772 29.326C104.087 29.0301 104.462 28.8013 104.903 28.6398C105.342 28.4782 105.822 28.3984 106.343 28.3984C106.962 28.3984 107.509 28.5097 107.984 28.7342C108.46 28.9587 108.829 29.2693 109.094 29.6701C109.358 30.0688 109.49 30.5326 109.49 31.0635V35.9067H107.606V34.7232L108.063 34.6435C107.847 34.9666 107.61 35.2331 107.35 35.443C107.09 35.6528 106.798 35.8102 106.475 35.913C106.148 36.0159 105.789 36.0683 105.394 36.0683Z" fill="#1E344E"/>
<path d="M113.601 36.0688C113.01 36.0688 112.506 35.9408 112.088 35.6848C111.671 35.4288 111.356 35.0721 111.14 34.6146C110.924 34.1571 110.817 33.6241 110.817 33.0135V28.5605H112.835V32.8519C112.835 33.131 112.892 33.3744 113.003 33.5843C113.114 33.7941 113.274 33.9578 113.482 34.0753C113.687 34.1928 113.92 34.2495 114.18 34.2495C114.449 34.2495 114.684 34.1907 114.888 34.0753C115.089 33.9578 115.247 33.7941 115.358 33.5843C115.469 33.3744 115.526 33.1289 115.526 32.8519V28.5605H117.544V35.9073H115.66V34.4551L115.767 34.7783C115.597 35.2169 115.32 35.5421 114.94 35.7541C114.558 35.9618 114.111 36.0688 113.601 36.0688Z" fill="#1E344E"/>
<path d="M119.024 35.9065V25.7227H121.042V35.9065H119.024Z" fill="#1E344E"/>
<path d="M126.06 35.9854C125.172 35.9854 124.484 35.7461 123.995 35.2656C123.506 34.785 123.263 34.1156 123.263 33.2532V30.3069H122.025V28.5589H122.092C122.467 28.5589 122.757 28.4645 122.96 28.2756C123.162 28.0868 123.263 27.8056 123.263 27.4278V26.8906H125.281V28.5589H127.004V30.3069H125.281V33.1189C125.281 33.3707 125.325 33.5784 125.416 33.7442C125.506 33.91 125.644 34.0338 125.833 34.1135C126.022 34.1933 126.255 34.2352 126.532 34.2352C126.595 34.2352 126.666 34.231 126.748 34.2227C126.83 34.2143 126.914 34.2038 127.004 34.1954V35.9035C126.87 35.9224 126.717 35.9392 126.547 35.9581C126.373 35.977 126.211 35.9854 126.06 35.9854Z" fill="#1E344E"/>
</g>
<defs>
<clipPath id="clip0_4557_8591">
<rect width="126.355" height="44.5" fill="white" transform="translate(0.645264)"/>
</clipPath>
</defs>
</svg>
