<svg width="92" height="45" viewBox="0 0 92 45" fill="none" xmlns="http://www.w3.org/2000/svg">
<g clip-path="url(#clip0_4557_8634)">
<path d="M21.7019 21.7895L29.22 0H34.3668L41.8828 21.7895H37.5549L36.0046 17.1095H27.5822L26.0027 21.7895H21.7019ZM28.722 13.6005H34.8648L31.237 2.74843H32.3476L28.722 13.6005Z" fill="#002E24"/>
<path d="M44.3125 21.7895V0H52.414C53.8955 0 55.2062 0.2688 56.3481 0.804317C57.4879 1.34192 58.3818 2.12123 59.0236 3.14434C59.6675 4.16745 59.9884 5.41143 59.9884 6.8742C59.9884 8.37657 59.632 9.65181 58.9215 10.7062C58.2089 11.7585 57.2503 12.5398 56.0397 13.0462L61.0406 21.7916H56.5356L51.1825 12.2273L53.7559 13.7484H48.2862V21.7916H44.3125V21.7895ZM48.2903 10.2373H52.4724C53.1933 10.2373 53.8184 10.0956 54.3435 9.81225C54.8707 9.53095 55.2791 9.13505 55.5729 8.6287C55.8647 8.12235 56.0126 7.53683 56.0126 6.8742C56.0126 6.19283 55.8667 5.60105 55.5729 5.10512C55.2812 4.60711 54.8707 4.21746 54.3435 3.93615C53.8164 3.65277 53.1933 3.51107 52.4724 3.51107H48.2903V10.2373Z" fill="#002E24"/>
<path d="M63.6453 21.7895V0H67.4481L75.6079 11.0854H73.7951L81.7778 0H85.5806V21.7895H81.5736V4.53418L83.1239 4.91342L74.8474 15.9405H74.3785L66.3062 4.91342L67.6231 4.53418V21.7916H63.6453V21.7895Z" fill="#002E24"/>
<path d="M17.0303 27.1058V24.2031H19.7454V27.1058H17.0303ZM17.0303 39.6477V28.3706H19.7454V39.6477H17.0303Z" fill="#47E696"/>
<path d="M22.2542 39.6481V28.371H24.8046V30.5902L24.5983 30.1964C24.8609 29.5191 25.2922 29.0045 25.8944 28.6523C26.4945 28.3002 27.1967 28.123 27.999 28.123C28.8283 28.123 29.5639 28.3022 30.2077 28.6627C30.8495 29.0232 31.3517 29.5233 31.7101 30.1651C32.0685 30.8069 32.2498 31.5508 32.2498 32.3947V39.6502H29.5347V33.0365C29.5347 32.5385 29.4388 32.1113 29.245 31.7508C29.0513 31.3924 28.7845 31.1111 28.447 30.9111C28.1073 30.711 27.7114 30.611 27.2551 30.611C26.8133 30.611 26.4195 30.711 26.0736 30.9111C25.7277 31.1111 25.4589 31.3924 25.2651 31.7508C25.0713 32.1092 24.9755 32.5385 24.9755 33.0365V39.6502H22.2542V39.6481Z" fill="#47E696"/>
<path d="M37.9696 39.8982C37.182 39.8982 36.4985 39.7669 35.9171 39.5043C35.3358 39.2418 34.8878 38.8646 34.569 38.375C34.2502 37.8853 34.0918 37.3144 34.0918 36.6642C34.0918 36.0433 34.2293 35.4869 34.5065 34.9952C34.7815 34.5055 35.2108 34.0929 35.7921 33.7616C36.3735 33.4303 37.1049 33.1948 37.9904 33.0573L41.6807 32.4551V34.5284L38.5093 35.0681C37.9696 35.1639 37.5695 35.3369 37.307 35.5869C37.0444 35.8349 36.9132 36.16 36.9132 36.5621C36.9132 36.9497 37.0611 37.256 37.3591 37.4852C37.657 37.7144 38.0259 37.8269 38.4676 37.8269C39.0344 37.8269 39.5345 37.7061 39.97 37.4644C40.4055 37.2227 40.743 36.8872 40.9868 36.4579C41.2285 36.0308 41.3494 35.5599 41.3494 35.0473V32.1446C41.3494 31.6612 41.1598 31.257 40.7785 30.9319C40.3992 30.6068 39.8971 30.4443 39.2761 30.4443C38.6947 30.4443 38.1801 30.6006 37.7321 30.9111C37.282 31.2215 36.9548 31.6341 36.7465 32.1446L34.5273 31.0673C34.7482 30.4735 35.0982 29.9588 35.5733 29.5233C36.0505 29.0878 36.6131 28.7461 37.2632 28.496C37.9133 28.2481 38.6176 28.123 39.3782 28.123C40.3034 28.123 41.1202 28.2918 41.8245 28.6315C42.5288 28.9711 43.0789 29.44 43.4727 30.0422C43.8665 30.6423 44.0624 31.3445 44.0624 32.1467V39.6523H41.4911V37.7248L42.0725 37.6832C41.7828 38.1666 41.4369 38.5708 41.0368 38.8959C40.6347 39.221 40.1804 39.4689 39.6678 39.6419C39.1573 39.8107 38.5906 39.8982 37.9696 39.8982Z" fill="#47E696"/>
<path d="M46.5713 39.6481V28.371H49.1218V30.5902L48.9155 30.1964C49.178 29.5191 49.6094 29.0045 50.2116 28.6523C50.8138 28.3002 51.5139 28.123 52.3161 28.123C53.1454 28.123 53.881 28.3022 54.5249 28.6627C55.1666 29.0232 55.6688 29.5233 56.0272 30.1651C56.3856 30.8069 56.5669 31.5508 56.5669 32.3947V39.6502H53.8518V33.0365C53.8518 32.5385 53.756 32.1113 53.5622 31.7508C53.3684 31.3924 53.1017 31.1111 52.7641 30.9111C52.4245 30.711 52.0286 30.611 51.5722 30.611C51.1305 30.611 50.7367 30.711 50.3908 30.9111C50.0449 31.1111 49.7761 31.3924 49.5823 31.7508C49.3885 32.1092 49.2926 32.5385 49.2926 33.0365V39.6502H46.5713V39.6481Z" fill="#47E696"/>
<path d="M64.2975 39.8983C63.1786 39.8983 62.1721 39.6399 61.2803 39.1211C60.3885 38.6022 59.6863 37.8979 59.1757 37.0061C58.6631 36.1143 58.4089 35.1099 58.4089 33.9889C58.4089 32.8699 58.6652 31.8676 59.1757 30.982C59.6863 30.0985 60.3885 29.4005 61.2803 28.8879C62.1721 28.3774 63.1765 28.1211 64.2975 28.1211C65.0998 28.1211 65.8457 28.2628 66.5375 28.5462C67.2272 28.8296 67.8253 29.2171 68.3316 29.7068C68.8359 30.1986 69.1985 30.782 69.4193 31.4592L67.0355 32.4948C66.8293 31.9281 66.4792 31.4717 65.9895 31.1258C65.4978 30.7799 64.9352 30.607 64.2996 30.607C63.7058 30.607 63.1765 30.7528 62.7139 31.0425C62.2513 31.3321 61.8887 31.7343 61.6262 32.2448C61.3636 32.7553 61.2324 33.3429 61.2324 34.0076C61.2324 34.6723 61.3636 35.2578 61.6262 35.7704C61.8887 36.281 62.2513 36.6831 62.7139 36.9728C63.1765 37.2624 63.7058 37.4083 64.2996 37.4083C64.9497 37.4083 65.5165 37.2353 65.9999 36.8894C66.4834 36.5435 66.8293 36.0809 67.0355 35.4996L69.4193 36.5768C69.1985 37.2124 68.838 37.7833 68.342 38.2876C67.844 38.7918 67.2502 39.1857 66.5584 39.4691C65.8645 39.7545 65.1123 39.8983 64.2975 39.8983Z" fill="#47E696"/>
<path d="M71.4697 27.1058V24.2031H74.1848V27.1058H71.4697ZM71.4697 39.6477V28.3706H74.1848V39.6477H71.4697Z" fill="#47E696"/>
<path d="M80.1151 39.8982C79.3275 39.8982 78.644 39.7669 78.0626 39.5043C77.4813 39.2418 77.0333 38.8646 76.7145 38.375C76.3957 37.8853 76.2373 37.3144 76.2373 36.6642C76.2373 36.0433 76.3748 35.4869 76.652 34.9952C76.927 34.5055 77.3563 34.0929 77.9376 33.7616C78.519 33.4303 79.2504 33.1948 80.1359 33.0573L83.8262 32.4551V34.5284L80.6548 35.0681C80.1151 35.1639 79.715 35.3369 79.4525 35.5869C79.1899 35.8349 79.0587 36.16 79.0587 36.5621C79.0587 36.9497 79.2066 37.256 79.5046 37.4852C79.8026 37.7144 80.1714 37.8269 80.6131 37.8269C81.1799 37.8269 81.68 37.7061 82.1155 37.4644C82.551 37.2227 82.8885 36.8872 83.1323 36.4579C83.3741 36.0308 83.4949 35.5599 83.4949 35.0473V32.1446C83.4949 31.6612 83.3053 31.257 82.924 30.9319C82.5447 30.6068 82.0426 30.4443 81.4216 30.4443C80.8402 30.4443 80.3256 30.6006 79.8776 30.9111C79.4275 31.2215 79.1003 31.6341 78.892 32.1446L76.6728 31.0673C76.8937 30.4735 77.2437 29.9588 77.7188 29.5233C78.196 29.0878 78.7586 28.7461 79.4087 28.496C80.0589 28.2481 80.7632 28.123 81.5237 28.123C82.4489 28.123 83.2657 28.2918 83.97 28.6315C84.6743 28.9711 85.2244 29.44 85.6182 30.0422C86.012 30.6423 86.2079 31.3445 86.2079 32.1467V39.6523H83.6387V37.7248L84.22 37.6832C83.9304 38.1666 83.5845 38.5708 83.1844 38.8959C82.7823 39.221 82.328 39.4689 81.8154 39.6419C81.3028 39.8107 80.7361 39.8982 80.1151 39.8982Z" fill="#47E696"/>
<path d="M88.7188 39.6476V23.9551H91.4338V39.6476H88.7188Z" fill="#47E696"/>
<path d="M17.4492 21.525C17.0866 21.3291 16.7407 21.1811 16.4094 21.0811C16.0781 20.9811 15.7697 20.929 15.4842 20.929C14.8425 20.929 14.3444 21.277 13.9881 21.975C13.6318 22.6731 13.2151 24.4734 12.7337 27.3823C13.0755 27.4094 13.3818 27.4302 13.6547 27.4448C13.9256 27.4594 14.1361 27.4657 14.2819 27.4657C14.7841 27.4657 15.1383 27.4407 15.3425 27.3927C15.5488 27.3448 15.7197 27.2677 15.8593 27.1635L15.9948 27.4031C15.6322 27.7949 15.2217 28.0699 14.7612 28.2304C14.3007 28.3908 13.6568 28.47 12.8254 28.47H12.5962C12.5691 28.645 12.5295 28.9097 12.4816 29.2639C11.7294 34.9733 10.8292 38.6594 9.78317 40.3181C9.03095 41.5162 8.03701 42.4622 6.80345 43.1519C5.56988 43.8416 4.26131 44.1875 2.88188 44.1875C2.24843 44.1875 1.74417 44.075 1.37118 43.8521C0.998196 43.6291 0.812744 43.3249 0.812744 42.9415C0.812744 42.7393 0.850251 42.5476 0.927349 42.3664C1.00445 42.1851 1.11488 42.0205 1.26283 41.8746C1.64623 42.2643 2.13174 42.5706 2.72143 42.7894C3.31113 43.0082 3.92999 43.1186 4.57803 43.1186C5.44903 43.1186 6.22001 42.8852 6.88888 42.4185C7.55776 41.9517 8.08077 41.2849 8.45793 40.4202C9.00803 39.1303 9.6644 35.738 10.425 30.2453L10.4875 29.7536L10.6646 28.3825C10.2958 28.3825 9.95612 28.4096 9.64982 28.4658C9.34351 28.5221 9.05387 28.6096 8.7809 28.7284L8.6663 28.5304C9.06429 28.1262 9.42894 27.8345 9.76442 27.6511C10.0999 27.4698 10.4604 27.3656 10.8521 27.3365C11.173 25.1402 11.9148 23.3128 13.0796 21.8521C14.2444 20.3914 15.4509 19.6621 16.6991 19.6621C17.047 19.6621 17.3221 19.7413 17.52 19.8976C17.718 20.0538 17.818 20.2685 17.818 20.5414C17.818 20.729 17.7888 20.9019 17.7284 21.0582C17.668 21.2166 17.5742 21.3708 17.4492 21.525Z" fill="#47E696"/>
<path d="M2.88183 44.4999C2.1942 44.4999 1.63159 44.3728 1.21068 44.1207C0.743926 43.8414 0.498047 43.4351 0.498047 42.9433C0.498047 42.6996 0.545973 42.4662 0.637656 42.2474C0.72934 42.0286 0.864782 41.8306 1.03982 41.6577L1.26277 41.4347L1.48365 41.6598C1.83371 42.0161 2.28588 42.2995 2.82973 42.5016C3.38192 42.7079 3.96953 42.8121 4.57798 42.8121C5.38021 42.8121 6.09701 42.5954 6.70963 42.1682C7.32849 41.7369 7.82025 41.1097 8.17032 40.3012C8.70792 39.0447 9.36012 35.6482 10.1144 30.2076L10.3082 28.7115C10.0936 28.724 9.89356 28.7469 9.70602 28.7803C9.42472 28.8324 9.15592 28.9116 8.90587 29.0199L8.64957 29.1303L8.2745 28.4844L8.4412 28.3156C8.85795 27.8905 9.25177 27.578 9.61226 27.3821C9.91231 27.2196 10.2353 27.1112 10.577 27.0591C10.9229 24.9212 11.6814 23.1084 12.8337 21.6623C14.0548 20.1307 15.355 19.3535 16.6969 19.3535C17.1157 19.3535 17.4575 19.4556 17.7117 19.6557C17.9847 19.8703 18.1284 20.1787 18.1284 20.5433C18.1284 20.7684 18.0909 20.9788 18.0201 21.1705C17.9492 21.3601 17.8388 21.5456 17.6929 21.7248L17.5304 21.9227L17.3033 21.8019C16.9595 21.6164 16.6282 21.4747 16.3198 21.381C16.0197 21.2893 15.7384 21.2435 15.4863 21.2435C14.9674 21.2435 14.5694 21.5289 14.2694 22.1186C13.9443 22.7583 13.5505 24.4316 13.1004 27.0987C13.3067 27.1133 13.4963 27.1258 13.6713 27.1341C13.9318 27.1487 14.1381 27.155 14.2819 27.155C14.8737 27.155 15.1466 27.1196 15.2716 27.0904C15.4342 27.0529 15.5696 26.9924 15.6738 26.9153L15.9572 26.7028L16.3823 27.4509L16.226 27.6176C15.8301 28.0447 15.3737 28.3489 14.8653 28.5261C14.3736 28.6969 13.7193 28.7824 12.8649 28.7844C12.8441 28.9282 12.8191 29.1033 12.792 29.3095C12.0252 35.119 11.1292 38.7759 10.0478 40.4887C9.27052 41.7265 8.22866 42.7162 6.95551 43.4289C5.68027 44.1373 4.30918 44.4999 2.88183 44.4999ZM1.29403 42.3328C1.26277 42.3828 1.23569 42.4349 1.21276 42.4891C1.15234 42.6329 1.12316 42.7808 1.12316 42.9433C1.12316 43.2142 1.25235 43.4184 1.53157 43.5851C1.85247 43.7768 2.3088 43.8748 2.88183 43.8748C3.94661 43.8748 4.97805 43.656 5.9574 43.2247C5.52607 43.3622 5.06349 43.433 4.57589 43.433C3.89243 43.433 3.23189 43.3163 2.61094 43.083C2.1046 42.8954 1.66285 42.6433 1.29403 42.3328ZM10.6625 28.0718H11.0188L10.7333 30.2847C9.96232 35.8608 9.3122 39.2156 8.74543 40.5429C8.42662 41.2743 8.00362 41.8765 7.48269 42.3453C8.29326 41.7535 8.97672 41.018 9.52057 40.1512C10.5374 38.5384 11.4293 34.8606 12.1732 29.222C12.2232 28.8615 12.2607 28.5948 12.2898 28.4198L12.3315 28.1572H12.8274C13.6172 28.1572 14.234 28.0822 14.659 27.9343C14.7986 27.8864 14.9362 27.8239 15.0674 27.7488C14.8591 27.7676 14.5986 27.778 14.2798 27.778C14.1235 27.778 13.9068 27.7718 13.6359 27.7572C13.3567 27.7426 13.0441 27.7218 12.7066 27.6947L12.369 27.6676L12.4253 27.3321C12.917 24.3649 13.3359 22.5666 13.7109 21.8352C14.1214 21.0288 14.7195 20.6183 15.4842 20.6183C15.7988 20.6183 16.1426 20.6746 16.501 20.783C16.774 20.8663 17.0595 20.9809 17.3512 21.1247C17.3845 21.0663 17.4137 21.008 17.4346 20.9517C17.4804 20.8309 17.5033 20.6934 17.5033 20.5454C17.5033 20.3683 17.4471 20.2454 17.3241 20.1474C17.1824 20.0349 16.972 19.9786 16.6969 19.9786C15.555 19.9786 14.4194 20.6767 13.3234 22.0519C12.1982 23.4626 11.4709 25.2567 11.1605 27.3884L11.125 27.6363L10.875 27.6551C10.5312 27.6801 10.2082 27.7718 9.91439 27.9322C9.79562 27.9968 9.6706 28.0781 9.53932 28.176C9.55808 28.1718 9.57475 28.1698 9.5935 28.1656C9.91439 28.101 10.2749 28.0718 10.6625 28.0718Z" fill="#47E696"/>
</g>
<defs>
<clipPath id="clip0_4557_8634">
<rect width="90.9358" height="44.5" fill="white" transform="translate(0.498047)"/>
</clipPath>
</defs>
</svg>
