<svg width="137" height="45" viewBox="0 0 137 45" fill="none" xmlns="http://www.w3.org/2000/svg">
<g clip-path="url(#clip0_4557_8442)">
<path d="M48.4377 31.5287V29.9297C48.316 30.2319 48.2068 30.5592 48.1145 30.9139L48.4377 31.5287Z" fill="#D1D3D4"/>
<path d="M59.7316 31.595V29.4336C59.5133 29.8617 59.3497 30.3422 59.2468 30.8836L59.7316 31.595Z" fill="#D1D3D4"/>
<path d="M70.631 31.0127C70.5135 30.4944 70.3226 30.0202 70.0623 29.5879C69.7497 30.0454 69.4727 30.5616 69.2397 31.1408L70.631 31.0127Z" fill="#D1D3D4"/>
<path d="M14.6924 9.20545C15.9452 7.71764 17.6071 6.64533 19.4916 6.20045C20.1295 6.04307 20.7926 5.96542 21.4746 5.96542C24.1627 5.96542 26.5802 7.21611 28.2568 9.20755L24.4817 2.83032C24.2446 2.42742 23.955 2.09376 23.6276 1.82935C22.0412 0.528307 19.6364 0.861963 18.4696 2.83032L14.6924 9.20545Z" fill="#D1D3D4"/>
<path d="M35.6035 24.2356L31.2533 16.0915C29.3731 12.5702 26.2968 10.5452 23.0379 10.0101C23.0337 10.0101 23.0295 10.008 23.0253 10.008C22.4566 9.89469 21.8732 9.83594 21.2773 9.83594C20.6792 9.83594 20.0958 9.89469 19.5271 10.008C16.264 10.5389 13.1835 12.566 11.3012 16.0915L6.95315 24.2293L1.06696 35.2483C0.401746 36.4906 0.187703 37.7854 0.296823 39.0822C0.951543 46.7479 11.5803 46.0701 11.5803 38.3708V36.8494V26.3257C11.5803 26.311 11.5803 26.2984 11.5803 26.2837V26.3257C11.5803 21.26 14.9021 17.0358 19.3215 16.0579C19.9531 15.9173 20.6057 15.8459 21.2752 15.8459C23.9507 15.8459 26.3744 17.0211 28.1308 18.916C29.883 20.8109 30.9701 23.434 30.9701 26.3278V36.8536V38.2617C30.9701 45.9253 41.5652 46.5569 42.1632 38.9185C42.2661 37.607 42.0436 36.2997 41.3721 35.0406L35.6035 24.2356Z" fill="#D1D3D4"/>
<path d="M43.1958 43.715V26.0565H47.7243V30.2933L47.4011 29.6784C47.7893 28.1906 48.4315 27.1834 49.3254 26.6545C50.2194 26.1257 51.2833 25.8613 52.5109 25.8613H53.5454V30.0666H52.0261C50.8405 30.0666 49.8794 30.4276 49.147 31.1495C48.4147 31.8713 48.0474 32.8912 48.0474 34.2048V43.7129H43.1958V43.715Z" fill="#D1D3D4"/>
<path d="M54.4875 43.7146V26.056H59.016V30.3579L58.5313 29.6465C58.7894 28.2888 59.4147 27.2857 60.4073 26.6394C61.3999 25.9931 62.5855 25.6699 63.9642 25.6699C65.431 25.6699 66.7174 26.0413 67.8296 26.7863C68.9397 27.5292 69.6343 28.528 69.9155 29.7787L68.5242 29.9088C69.1054 28.4651 69.9364 27.397 71.015 26.7066C72.0937 26.0162 73.3548 25.672 74.7986 25.672C76.0702 25.672 77.1971 25.9532 78.1792 26.5135C79.1592 27.0738 79.9314 27.8565 80.4917 28.8575C81.052 29.8606 81.3332 31.0294 81.3332 32.3661V43.7188H76.4815V33.4007C76.4815 32.7103 76.3577 32.1185 76.1101 31.6212C75.8625 31.1259 75.512 30.7377 75.0588 30.4565C74.6055 30.1774 74.0557 30.0368 73.4094 30.0368C72.784 30.0368 72.2384 30.1774 71.7768 30.4565C71.313 30.7377 70.9563 31.1259 70.7087 31.6212C70.4611 32.1164 70.3372 32.7103 70.3372 33.4007V43.7188H65.4856V33.4007C65.4856 32.7103 65.3618 32.1185 65.1142 31.6212C64.8665 31.1259 64.5161 30.7377 64.0628 30.4565C63.6096 30.1774 63.0598 30.0368 62.4134 30.0368C61.7881 30.0368 61.2446 30.1774 60.7808 30.4565C60.3171 30.7377 59.9603 31.1259 59.7127 31.6212C59.4651 32.1164 59.3413 32.7103 59.3413 33.4007V43.7188H54.4875V43.7146Z" fill="#D1D3D4"/>
<path d="M49.277 29.851V28.252C49.1553 28.5541 49.0462 28.8815 48.9539 29.2361L49.277 29.851Z" fill="#D1D3D4"/>
<path d="M60.5709 29.9153V27.7539C60.3527 28.182 60.189 28.6625 60.0862 29.2039L60.5709 29.9153Z" fill="#D1D3D4"/>
<path d="M71.4704 29.335C71.3529 28.8167 71.1619 28.3424 70.9017 27.9102C70.589 28.3676 70.312 28.8838 70.0791 29.463L71.4704 29.335Z" fill="#D1D3D4"/>
<path d="M22.0264 19.332L16.9775 22.8407V26.7543L22.0264 23.2457L27.0732 26.7543V22.8407L22.0264 19.332Z" fill="#FFA048"/>
<path d="M16.9775 29.3114V33.225L22.0264 29.7164L27.0732 33.225V29.3114L22.0264 25.8027L16.9775 29.3114Z" fill="#FFA048"/>
<path d="M16.9775 35.784V39.6977L22.0264 36.189L27.0732 39.6977V35.784L22.0264 32.2754L16.9775 35.784Z" fill="#FFA048"/>
<path d="M27.1676 26.9016L22.0264 23.3279L16.8831 26.9016V22.7592L16.9229 22.7319L22.0243 19.1855L22.0789 19.2233L27.1676 22.7613V26.9016ZM17.0719 22.8558V26.5386L22.0264 23.095L22.0809 23.1328L26.9809 26.5386V22.8558L22.0264 19.4122L17.0719 22.8558Z" fill="#1E344E"/>
<path d="M27.1676 33.3703L22.0264 29.7967L16.8831 33.3703V29.228L16.9229 29.2007L22.0243 25.6543L22.0789 25.6921L27.1676 29.2301V33.3703ZM17.0719 29.3266V33.0094L22.0264 29.5658L22.0809 29.6036L26.9809 33.0094V29.3266L22.0264 25.883L17.0719 29.3266Z" fill="#1E344E"/>
<path d="M27.1676 39.843L22.0264 36.2693L16.8831 39.843V35.7006L16.9229 35.6734L22.0243 32.127L22.0789 32.1647L27.1676 35.7027V39.843ZM17.0719 35.7993V39.4821L22.0264 36.0385L22.0809 36.0763L26.9809 39.4821V35.7993L22.0264 32.3557L17.0719 35.7993Z" fill="#1E344E"/>
<path d="M15.3218 8.15677C16.5746 6.66896 18.2365 5.59664 20.121 5.15177C20.7589 4.99438 21.422 4.91674 22.104 4.91674C24.7921 4.91674 27.2096 6.16743 28.8862 8.15887L25.109 1.77954C24.8719 1.37663 24.5823 1.04298 24.2549 0.778573C22.6685 -0.522474 20.2637 -0.188818 19.0969 1.77954L15.3218 8.15677Z" fill="#298DFE"/>
<path d="M36.4428 22.5559L32.0927 14.4118C30.2125 10.8905 27.1361 8.86553 23.8772 8.33042C23.873 8.33042 23.8688 8.32832 23.8646 8.32832C23.2959 8.21501 22.7126 8.15625 22.1166 8.15625C21.5185 8.15625 20.9352 8.21501 20.3665 8.32832C17.1034 8.85923 14.0228 10.8864 12.1405 14.4118L7.7925 22.5496L1.90631 33.5686C1.2411 34.8109 1.02706 36.1057 1.13618 37.4025C1.7909 45.0682 12.4196 44.3904 12.4196 36.6912V35.1698V24.646C12.4196 24.6313 12.4196 24.6187 12.4196 24.604V24.646C12.4196 19.5803 15.7415 15.3561 20.1608 14.3782C20.7925 14.2376 21.4451 14.1662 22.1145 14.1662C24.7901 14.1662 27.2138 15.3414 28.9702 17.2363C30.7224 19.1312 31.8094 21.7543 31.8094 24.6481V35.174V36.582C31.8094 44.2456 42.4045 44.8773 43.0026 37.2388C43.1054 35.9273 42.883 34.62 42.2115 33.3609L36.4428 22.5559Z" fill="#298DFE"/>
<path d="M44.0352 42.0373V24.3788H48.5636V28.6155L48.2405 28.0007C48.6287 26.5129 49.2708 25.5056 50.1648 24.9768C51.0587 24.448 52.1226 24.1836 53.3502 24.1836H54.3848V28.3889H52.8655C51.6799 28.3889 50.7188 28.7498 49.9864 29.4717C49.254 30.1936 48.8868 31.2134 48.8868 32.5271V42.0352H44.0352V42.0373Z" fill="#298DFE"/>
<path d="M55.3269 42.0369V24.3783H59.8554V28.6802L59.3706 27.9688C59.6288 26.6111 60.2541 25.608 61.2467 24.9617C62.2392 24.3153 63.4249 23.9922 64.8036 23.9922C66.2704 23.9922 67.5567 24.3636 68.6689 25.1086C69.779 25.8514 70.4736 26.8503 70.7548 28.101L69.3635 28.2311C69.9448 26.7873 70.7758 25.7192 71.8544 25.0288C72.933 24.3384 74.1942 23.9943 75.6379 23.9943C76.9096 23.9943 78.0365 24.2755 79.0185 24.8358C79.9985 25.3961 80.7708 26.1788 81.3311 27.1798C81.8913 28.1828 82.1725 29.3517 82.1725 30.6884V42.0411H77.3209V31.7229C77.3209 31.0325 77.1971 30.4408 76.9495 29.9434C76.7018 29.4482 76.3514 29.06 75.8981 28.7788C75.4449 28.4997 74.8951 28.3591 74.2487 28.3591C73.6234 28.3591 73.0778 28.4997 72.6161 28.7788C72.1524 29.06 71.7956 29.4482 71.548 29.9434C71.3004 30.4387 71.1766 31.0325 71.1766 31.7229V42.0411H66.3249V31.7229C66.3249 31.0325 66.2011 30.4408 65.9535 29.9434C65.7059 29.4482 65.3555 29.06 64.9022 28.7788C64.4489 28.4997 63.8991 28.3591 63.2528 28.3591C62.6275 28.3591 62.084 28.4997 61.6202 28.7788C61.1564 29.06 60.7997 29.4482 60.5521 29.9434C60.3045 30.4387 60.1806 31.0325 60.1806 31.7229V42.0411H55.3269V42.0369Z" fill="#298DFE"/>
<path d="M83.4841 42.1974V17.8867H87.9224V28.4924H98.2657V17.8867H102.735V42.1974H98.2657V32.4081H87.9224V42.1974H83.4841Z" fill="#1E344E"/>
<path d="M110.34 42.1974L103.814 17.8867H108.577L113.7 38.609H112.46L117.811 17.8867H122.413L127.732 38.609H126.492L131.614 17.8867H136.378L129.852 42.1974H124.761L119.376 22.0312H120.812L115.427 42.1974H110.34Z" fill="#1E344E"/>
</g>
<defs>
<clipPath id="clip0_4557_8442">
<rect width="136.11" height="44.5" fill="white" transform="translate(0.269531)"/>
</clipPath>
</defs>
</svg>
