<svg width="60" height="45" viewBox="0 0 60 45" fill="none" xmlns="http://www.w3.org/2000/svg">
<g clip-path="url(#clip0_4557_8472)">
<path d="M35.2677 22.45V21.3105C35.1817 21.5246 35.104 21.7575 35.0369 22.0114L35.2677 22.45Z" fill="#D1D3D4"/>
<path d="M43.3091 22.4952V20.957C43.1538 21.2613 43.0363 21.6034 42.9629 21.9895L43.3091 22.4952Z" fill="#D1D3D4"/>
<path d="M51.0691 22.08C50.9851 21.7106 50.8488 21.3728 50.6641 21.0664C50.4416 21.3917 50.2444 21.7589 50.0786 22.1723L51.0691 22.08Z" fill="#D1D3D4"/>
<path d="M11.2402 6.55377C12.1321 5.49405 13.3156 4.73021 14.6565 4.41334C15.1098 4.30212 15.5841 4.24546 16.0688 4.24546C17.9826 4.24546 19.7033 5.13731 20.8974 6.55377L18.2092 2.0148C18.0393 1.72731 17.8336 1.49018 17.6007 1.30132C16.4717 0.373799 14.7594 0.613024 13.9284 2.0148L11.2402 6.55377Z" fill="#D1D3D4"/>
<path d="M26.1289 17.2549L23.0316 11.4568C21.6928 8.95128 19.502 7.50754 17.1832 7.12772C17.179 7.12772 17.1769 7.12562 17.1727 7.12562C16.7677 7.04378 16.3522 7.00391 15.9283 7.00391C15.5023 7.00391 15.0868 7.04588 14.6818 7.12562C12.3588 7.50334 10.1659 8.94708 8.825 11.4568L5.72977 17.2507L1.54124 25.0969C1.06909 25.9824 0.9138 26.9036 0.993541 27.827C1.4594 33.2851 9.02855 32.8024 9.02855 27.3212V26.2384V18.7427C9.02855 18.7322 9.02855 18.7238 9.02855 18.7133V18.7427C9.02855 15.1354 11.3935 12.1284 14.5391 11.4317C14.9882 11.333 15.454 11.2806 15.9304 11.2806C17.8358 11.2806 19.5607 12.1158 20.8114 13.4651C22.06 14.8144 22.8322 16.682 22.8322 18.7427V26.2384V27.2415C22.8322 32.6975 30.3762 33.1466 30.8022 27.7094C30.8756 26.7756 30.7162 25.8439 30.2377 24.9479L26.1289 17.2549Z" fill="#D1D3D4"/>
<path d="M31.5366 31.1264V18.5524H34.7599V21.57L34.529 21.1335C34.806 20.0738 35.2614 19.3561 35.8993 18.9805C36.5373 18.6049 37.2927 18.416 38.1678 18.416H38.9043V21.4105H37.8215C36.9779 21.4105 36.2938 21.6686 35.7713 22.1828C35.2488 22.6969 34.9886 23.4229 34.9886 24.3589V31.1285H31.5366V31.1264Z" fill="#D1D3D4"/>
<path d="M39.5759 31.1264V18.5524H42.7992V21.614L42.4529 21.1083C42.6376 20.1409 43.0825 19.4274 43.7875 18.9658C44.4926 18.5062 45.3383 18.2754 46.3204 18.2754C47.3633 18.2754 48.2804 18.5398 49.0715 19.0707C49.8626 19.5995 50.3578 20.3109 50.5572 21.2006L49.5667 21.293C49.9801 20.2647 50.5719 19.5051 51.3399 19.0141C52.1079 18.523 53.0061 18.2775 54.0343 18.2775C54.9409 18.2775 55.7425 18.4768 56.4413 18.8756C57.1401 19.2743 57.6878 19.8304 58.0886 20.5459C58.4873 21.2594 58.6866 22.0925 58.6866 23.0452V31.1285H55.2326V23.7818C55.2326 23.2907 55.1444 22.8689 54.9682 22.5143C54.7919 22.1617 54.5422 21.8847 54.219 21.6854C53.8958 21.486 53.5055 21.3853 53.0439 21.3853C52.599 21.3853 52.2108 21.486 51.8813 21.6854C51.5519 21.8847 51.2979 22.1617 51.1217 22.5143C50.9454 22.8668 50.8573 23.2886 50.8573 23.7818V31.1285H47.4032V23.7818C47.4032 23.2907 47.3151 22.8689 47.1388 22.5143C46.9625 22.1617 46.7128 21.8847 46.3896 21.6854C46.0665 21.486 45.6762 21.3853 45.2145 21.3853C44.7696 21.3853 44.3814 21.486 44.0519 21.6854C43.7225 21.8847 43.4686 22.1617 43.2923 22.5143C43.116 22.8668 43.0279 23.2886 43.0279 23.7818V31.1285H39.5759V31.1264Z" fill="#D1D3D4"/>
<path d="M35.8658 21.2527V20.1133C35.7798 20.3273 35.7022 20.5603 35.635 20.8142L35.8658 21.2527Z" fill="#D1D3D4"/>
<path d="M43.907 21.2999V19.7617C43.7518 20.066 43.6342 20.408 43.5608 20.7942L43.907 21.2999Z" fill="#D1D3D4"/>
<path d="M51.6672 20.8866C51.5833 20.5173 51.4469 20.1794 51.2622 19.873C51.0398 20.1983 50.8425 20.5655 50.6768 20.9789L51.6672 20.8866Z" fill="#D1D3D4"/>
<path d="M16.4633 13.7637L12.8687 16.2629V19.0476L16.4633 16.5504L20.058 19.0476V16.2629L16.4633 13.7637Z" fill="#FFA048"/>
<path d="M12.8687 20.8683V23.655L16.4633 21.1558L20.058 23.655V20.8683L16.4633 18.3711L12.8687 20.8683Z" fill="#FFA048"/>
<path d="M12.8687 25.4778V28.2645L16.4633 25.7653L20.058 28.2645V25.4778L16.4633 22.9785L12.8687 25.4778Z" fill="#FFA048"/>
<path d="M20.1251 19.1541L16.4633 16.6086L12.8015 19.1541V16.2036L12.8309 16.1827L16.4633 13.6582L16.5011 13.6855L20.1231 16.2036V19.1541H20.1251ZM12.9358 16.2729V18.896L16.4633 16.445L16.5011 16.4701L19.9887 18.896V16.2729L16.4633 13.8219L12.9358 16.2729Z" fill="#1E344E"/>
<path d="M20.1251 23.7595L16.4633 21.2141L12.8015 23.7595V20.8091L12.8309 20.7881L16.4633 18.2637L16.5011 18.291L20.1231 20.8091V23.7595H20.1251ZM12.9358 20.8805V23.5035L16.4633 21.0525L16.5011 21.0798L19.9887 23.5056V20.8826L16.4633 18.4295L12.9358 20.8805Z" fill="#1E344E"/>
<path d="M20.1251 28.3689L16.4633 25.8235L12.8015 28.3689V25.4185L12.8309 25.3975L16.4633 22.873L16.5011 22.9003L20.1231 25.4185V28.3689H20.1251ZM12.9358 25.4898V28.1129L16.4633 25.6619L16.5011 25.6892L19.9887 28.115V25.4919L16.4612 23.0409L12.9358 25.4898Z" fill="#1E344E"/>
<path d="M11.6895 5.80632C12.5813 4.7466 13.7648 3.98276 15.1058 3.66589C15.559 3.55467 16.0333 3.49802 16.518 3.49802C18.4318 3.49802 20.1526 4.38986 21.3466 5.80632L18.6584 1.26735C18.4885 0.979861 18.2828 0.742735 18.0499 0.553873C16.9209 -0.373647 15.2086 -0.136521 14.3776 1.26735L11.6895 5.80632Z" fill="#298DFE"/>
<path d="M26.727 16.0596L23.6296 10.2615C22.2908 7.75597 20.1 6.31222 17.7812 5.9324C17.777 5.9324 17.7749 5.9303 17.7707 5.9303C17.3657 5.84846 16.9502 5.80859 16.5263 5.80859C16.1004 5.80859 15.6849 5.85056 15.2799 5.9303C12.9569 6.30803 10.764 7.75177 9.42305 10.2615L6.32782 16.0554L2.13719 23.9015C1.66503 24.7871 1.50975 25.7083 1.58949 26.6316C2.05535 32.0897 9.6245 31.6071 9.6245 26.1259V25.0431V17.5495C9.6245 17.539 9.6245 17.5306 9.6245 17.5201V17.5495C9.6245 13.9422 11.9895 10.9351 15.1351 10.2384C15.5841 10.1398 16.05 10.0874 16.5263 10.0874C18.4318 10.0874 20.1567 10.9225 21.4074 12.2719C22.656 13.6212 23.4282 15.4888 23.4282 17.5495V25.0452V26.0483C23.4282 31.5043 30.9722 31.9533 31.3982 26.5162C31.4716 25.5824 31.3121 24.6507 30.8337 23.7546L26.727 16.0596Z" fill="#298DFE"/>
<path d="M32.1326 29.9311V17.3571H35.3558V20.3747L35.125 19.9382C35.402 18.8785 35.8573 18.1608 36.4953 17.7852C37.1332 17.4096 37.8886 17.2207 38.7637 17.2207H39.5003V20.2152H38.4175C37.5739 20.2152 36.8898 20.4733 36.3673 20.9874C35.8447 21.5016 35.5845 22.2276 35.5845 23.1635V29.9332H32.1326V29.9311Z" fill="#298DFE"/>
<path d="M40.1738 29.9311V17.3571H43.3971V20.4187L43.0508 19.913C43.2355 18.9456 43.6804 18.2321 44.3854 17.7705C45.0905 17.3109 45.9362 17.0801 46.9183 17.0801C47.9612 17.0801 48.8783 17.3445 49.6694 17.8754C50.4605 18.4042 50.9557 19.1156 51.1551 20.0053L50.1646 20.0977C50.578 19.0694 51.1698 18.3098 51.9378 17.8187C52.7058 17.3277 53.604 17.0822 54.6322 17.0822C55.5388 17.0822 56.3404 17.2815 57.0392 17.6802C57.738 18.0789 58.2857 18.635 58.6865 19.3506C59.0852 20.0641 59.2845 20.8972 59.2845 21.8499V29.9332H55.8305V22.5864C55.8305 22.0954 55.7423 21.6736 55.5661 21.319C55.3898 20.9664 55.1401 20.6894 54.8169 20.4901C54.4937 20.2907 54.1034 20.19 53.6418 20.19C53.1969 20.19 52.8087 20.2907 52.4792 20.4901C52.1498 20.6894 51.8958 20.9664 51.7196 21.319C51.5433 21.6715 51.4552 22.0933 51.4552 22.5864V29.9332H48.0011V22.5864C48.0011 22.0954 47.913 21.6736 47.7367 21.319C47.5604 20.9664 47.3107 20.6894 46.9875 20.4901C46.6644 20.2907 46.2741 20.19 45.8124 20.19C45.3675 20.19 44.9793 20.2907 44.6498 20.4901C44.3204 20.6894 44.0665 20.9664 43.8902 21.319C43.7139 21.6715 43.6258 22.0933 43.6258 22.5864V29.9332H40.1738V29.9311Z" fill="#298DFE"/>
<path d="M0.999756 44.3282V33.6113H2.52534L8.42202 41.5519L7.6309 41.7093V33.6113H9.58667V44.3282H8.04849L2.23785 36.3288L2.95762 36.1715V44.3282H0.999756Z" fill="#1E344E"/>
<path d="M14.9524 44.5013C14.1466 44.5013 13.4415 44.3188 12.8371 43.9557C12.2328 43.5906 11.7627 43.0975 11.427 42.4742C11.0912 41.851 10.9233 41.1606 10.9233 40.403C10.9233 39.6161 11.0933 38.9194 11.4333 38.3109C11.7732 37.7023 12.2391 37.2197 12.8287 36.865C13.4184 36.5104 14.0773 36.332 14.8076 36.332C15.4203 36.332 15.9597 36.4328 16.4255 36.6342C16.8914 36.8357 17.2859 37.1148 17.6111 37.4694C17.9364 37.824 18.1861 38.229 18.3582 38.6844C18.5303 39.1398 18.6163 39.6308 18.6163 40.1596C18.6163 40.2939 18.61 40.4324 18.5953 40.5772C18.5806 40.722 18.5554 40.8458 18.5156 40.9507H12.4783V39.5133H17.4559L16.564 40.189C16.65 39.7483 16.6291 39.3538 16.499 39.0097C16.3689 38.6655 16.159 38.3906 15.8652 38.1892C15.5735 37.9877 15.221 37.887 14.8076 37.887C14.4152 37.887 14.0647 37.9856 13.7584 38.1829C13.452 38.3801 13.2191 38.6676 13.0617 39.0453C12.9043 39.4252 12.8434 39.8826 12.8812 40.4198C12.8434 40.9004 12.9085 41.3243 13.0764 41.6936C13.2442 42.0629 13.494 42.3483 13.8234 42.5498C14.155 42.7512 14.5348 42.852 14.9671 42.852C15.3994 42.852 15.7645 42.7617 16.0667 42.5792C16.3689 42.3966 16.606 42.1532 16.7781 41.8447L18.3036 42.5917C18.1504 42.9653 17.9112 43.2968 17.5839 43.5843C17.2586 43.8718 16.8725 44.0984 16.4255 44.26C15.9827 44.4195 15.4896 44.5013 14.9524 44.5013Z" fill="#1E344E"/>
<path d="M23.3547 44.4137C22.4713 44.4137 21.7893 44.1723 21.3045 43.6876C20.8198 43.2028 20.5785 42.5208 20.5785 41.6374V38.1854H19.2271V36.5024H19.3718C19.7559 36.5024 20.0517 36.4017 20.2637 36.2003C20.4735 35.9988 20.5806 35.7071 20.5806 35.3231V34.7188H22.465V36.5024H24.2634V38.1854H22.465V41.5367C22.465 41.7948 22.5111 42.0172 22.6014 42.1977C22.6916 42.3802 22.8364 42.5187 23.0337 42.6153C23.2309 42.7118 23.4827 42.7601 23.7891 42.7601C23.8563 42.7601 23.936 42.7559 24.0262 42.7454C24.1165 42.7349 24.2067 42.7265 24.2927 42.716V44.3276C24.1584 44.3465 24.0053 44.3654 23.8332 44.3843C23.6569 44.4032 23.4974 44.4137 23.3547 44.4137Z" fill="#1E344E"/>
<path d="M27.4405 44.3291L24.7502 36.5039H26.7354L28.7058 42.4447L28.0155 42.43L30.116 36.5039H31.7843L33.8702 42.43L33.1798 42.4447L35.1502 36.5039H37.1354L34.4451 44.3291H32.7622L30.6322 38.1302H31.266L29.1088 44.3291H27.4405Z" fill="#1E344E"/>
<path d="M41.5945 44.4995C40.8265 44.4995 40.1298 44.3212 39.5023 43.9665C38.8749 43.6119 38.3755 43.1271 38.0061 42.5144C37.6368 41.9016 37.4521 41.2008 37.4521 40.4138C37.4521 39.6269 37.6368 38.9281 38.0061 38.3133C38.3755 37.7005 38.8707 37.2158 39.494 36.8611C40.1172 36.5065 40.8181 36.3281 41.5945 36.3281C42.3626 36.3281 43.0571 36.5065 43.6804 36.8611C44.3036 37.2158 44.7989 37.6984 45.1682 38.307C45.5375 38.9155 45.7222 39.6185 45.7222 40.4138C45.7222 41.2008 45.5354 41.8995 45.1619 42.5144C44.7884 43.1271 44.2889 43.6119 43.6657 43.9665C43.0425 44.3212 42.3521 44.4995 41.5945 44.4995ZM41.5945 42.7725C42.0163 42.7725 42.3877 42.6718 42.7088 42.4703C43.0299 42.2689 43.2838 41.9877 43.4705 41.6288C43.6573 41.27 43.7517 40.865 43.7517 40.4138C43.7517 39.9543 43.6573 39.5493 43.4705 39.1988C43.2838 38.8484 43.0299 38.5714 42.7088 38.3636C42.3877 38.158 42.0163 38.0552 41.5945 38.0552C41.1622 38.0552 40.7845 38.158 40.4571 38.3636C40.1319 38.5693 39.8738 38.8484 39.687 39.1988C39.5003 39.5493 39.4058 39.9543 39.4058 40.4138C39.4058 40.865 39.5003 41.27 39.687 41.6288C39.8738 41.9877 40.1298 42.2689 40.4571 42.4703C40.7845 42.6718 41.1622 42.7725 41.5945 42.7725Z" fill="#1E344E"/>
<path d="M46.8867 44.3293V36.5042H48.6557V38.2438L48.5109 37.9857C48.6935 37.4002 48.9789 36.9931 49.3671 36.7623C49.7553 36.5314 50.2233 36.416 50.7689 36.416H51.2284V38.0843H50.5527C50.0155 38.0843 49.5832 38.2501 49.258 38.5795C48.9327 38.9111 48.769 39.3728 48.769 39.9687V44.3272H46.8867V44.3293Z" fill="#1E344E"/>
<path d="M52.0093 44.3284V33.4395H53.8937V40.5742L53.1739 40.3581L56.8567 36.5032H59.2007L56.309 39.653L59.2574 44.3284H57.1001L54.54 40.272L55.6627 40.0412L53.304 42.572L53.8937 41.422V44.3284H52.0093Z" fill="#1E344E"/>
</g>
<defs>
<clipPath id="clip0_4557_8472">
<rect width="58.3142" height="44.5" fill="white" transform="translate(0.972656)"/>
</clipPath>
</defs>
</svg>
