<svg width="120" height="45" viewBox="0 0 120 45" fill="none" xmlns="http://www.w3.org/2000/svg">
<g clip-path="url(#clip0_4557_8411)">
<path d="M48.1681 31.5287V29.9297C48.0464 30.2319 47.9373 30.5592 47.845 30.9139L48.1681 31.5287Z" fill="#D1D3D4"/>
<path d="M59.462 31.595V29.4336C59.2438 29.8617 59.0801 30.3422 58.9773 30.8836L59.462 31.595Z" fill="#D1D3D4"/>
<path d="M70.3615 31.0127C70.244 30.4944 70.053 30.0202 69.7928 29.5879C69.4801 30.0454 69.2031 30.5616 68.9702 31.1408L70.3615 31.0127Z" fill="#D1D3D4"/>
<path d="M14.4229 9.20545C15.6756 7.71764 17.3376 6.64533 19.222 6.20045C19.86 6.04307 20.5231 5.96542 21.2051 5.96542C23.8932 5.96542 26.3106 7.21611 27.9873 9.20755L24.2122 2.83032C23.9751 2.42742 23.6855 2.09376 23.3581 1.82935C21.7717 0.528307 19.3668 0.861963 18.2001 2.83032L14.4229 9.20545Z" fill="#D1D3D4"/>
<path d="M35.3339 24.2356L30.9838 16.0915C29.1036 12.5702 26.0272 10.5452 22.7683 10.0101C22.7641 10.0101 22.7599 10.008 22.7557 10.008C22.1871 9.89469 21.6037 9.83594 21.0077 9.83594C20.4097 9.83594 19.8263 9.89469 19.2576 10.008C15.9945 10.5389 12.914 12.566 11.0316 16.0915L6.68362 24.2293L0.797427 35.2483C0.132215 36.4906 -0.0818286 37.7854 0.0272914 39.0822C0.682012 46.7479 11.3107 46.0701 11.3107 38.3708V36.8494V26.3257C11.3107 26.311 11.3107 26.2984 11.3107 26.2837V26.3257C11.3107 21.26 14.6326 17.0358 19.052 16.0579C19.6836 15.9173 20.3362 15.8459 21.0056 15.8459C23.6812 15.8459 26.1049 17.0211 27.8613 18.916C29.6135 20.8109 30.7005 23.434 30.7005 26.3278V36.8536V38.2617C30.7005 45.9253 41.2957 46.5569 41.8937 38.9185C41.9965 37.607 41.7741 36.2997 41.1026 35.0406L35.3339 24.2356Z" fill="#D1D3D4"/>
<path d="M42.9263 43.715V26.0565H47.4548V30.2933L47.1316 29.6784C47.5198 28.1906 48.1619 27.1834 49.0559 26.6545C49.9498 26.1257 51.0137 25.8613 52.2413 25.8613H53.2759V30.0666H51.7566C50.571 30.0666 49.6099 30.4276 48.8775 31.1495C48.1451 31.8713 47.7779 32.8912 47.7779 34.2048V43.7129H42.9263V43.715Z" fill="#D1D3D4"/>
<path d="M54.218 43.7146V26.056H58.7465V30.3579L58.2618 29.6465C58.5199 28.2888 59.1452 27.2857 60.1378 26.6394C61.1304 25.9931 62.316 25.6699 63.6947 25.6699C65.1615 25.6699 66.4479 26.0413 67.56 26.7863C68.6701 27.5292 69.3647 28.528 69.6459 29.7787L68.2546 29.9088C68.8359 28.4651 69.6669 27.397 70.7455 26.7066C71.8241 26.0162 73.0853 25.672 74.529 25.672C75.8007 25.672 76.9276 25.9532 77.9097 26.5135C78.8896 27.0738 79.6619 27.8565 80.2222 28.8575C80.7825 29.8606 81.0636 31.0294 81.0636 32.3661V43.7188H76.212V33.4007C76.212 32.7103 76.0882 32.1185 75.8406 31.6212C75.593 31.1259 75.2425 30.7377 74.7892 30.4565C74.336 30.1774 73.7862 30.0368 73.1399 30.0368C72.5145 30.0368 71.9689 30.1774 71.5073 30.4565C71.0435 30.7377 70.6868 31.1259 70.4391 31.6212C70.1915 32.1164 70.0677 32.7103 70.0677 33.4007V43.7188H65.2161V33.4007C65.2161 32.7103 65.0923 32.1185 64.8446 31.6212C64.597 31.1259 64.2466 30.7377 63.7933 30.4565C63.34 30.1774 62.7902 30.0368 62.1439 30.0368C61.5186 30.0368 60.9751 30.1774 60.5113 30.4565C60.0475 30.7377 59.6908 31.1259 59.4432 31.6212C59.1956 32.1164 59.0718 32.7103 59.0718 33.4007V43.7188H54.218V43.7146Z" fill="#D1D3D4"/>
<path d="M88.7775 37.5956C87.3547 37.5956 86.1418 37.2892 85.1388 36.6744C84.1357 36.0595 83.3761 35.2034 82.8577 34.1038C82.3394 33.0042 82.0813 31.722 82.0813 30.2552V19.5488H86.9329V29.867C86.9329 30.5364 87.0673 31.1239 87.338 31.6297C87.6066 32.1375 87.9906 32.5299 88.4858 32.8111C88.981 33.0923 89.5413 33.2308 90.1667 33.2308C90.813 33.2308 91.3796 33.0902 91.8643 32.8111C92.3491 32.532 92.7268 32.1375 92.9954 31.6297C93.264 31.1239 93.4004 30.5364 93.4004 29.867V19.5488H98.2521V37.2074H93.7236V33.7135L93.9817 34.4899C93.5725 35.5475 92.9094 36.3281 91.9923 36.8339C91.0774 37.3417 90.0051 37.5956 88.7775 37.5956Z" fill="#D1D3D4"/>
<path d="M99.2971 43.6744V19.5484H103.826V22.9122L103.406 21.9427C103.987 21.0593 104.78 20.3752 105.783 19.8883C106.787 19.4036 107.934 19.1602 109.227 19.1602C110.908 19.1602 112.429 19.5694 113.787 20.3899C115.145 21.2104 116.223 22.3141 117.021 23.7054C117.818 25.0967 118.217 26.6538 118.217 28.3787C118.217 30.0827 117.822 31.6355 117.035 33.0352C116.248 34.437 115.176 35.5471 113.818 36.3655C112.461 37.186 110.918 37.5952 109.193 37.5952C107.985 37.5952 106.87 37.3748 105.846 36.932C104.822 36.4914 103.998 35.8387 103.372 34.9763L104.149 33.9732V43.6765H99.2971V43.6744ZM108.612 33.2283C109.519 33.2283 110.316 33.0226 111.007 32.6134C111.697 32.2042 112.236 31.6334 112.624 30.899C113.013 30.1666 113.206 29.3251 113.206 28.3766C113.206 27.4281 113.013 26.5929 112.624 25.871C112.236 25.1492 111.697 24.5763 111.007 24.1566C110.316 23.7369 109.519 23.525 108.612 23.525C107.75 23.525 106.98 23.7306 106.3 24.1398C105.62 24.549 105.091 25.1219 104.715 25.8543C104.338 26.5866 104.149 27.4281 104.149 28.3766C104.149 29.3251 104.338 30.1666 104.715 30.899C105.093 31.6313 105.622 32.2042 106.3 32.6134C106.98 33.0247 107.75 33.2283 108.612 33.2283Z" fill="#D1D3D4"/>
<path d="M49.0075 29.851V28.252C48.8858 28.5541 48.7767 28.8815 48.6843 29.2361L49.0075 29.851Z" fill="#D1D3D4"/>
<path d="M60.3014 29.9153V27.7539C60.0832 28.182 59.9195 28.6625 59.8167 29.2039L60.3014 29.9153Z" fill="#D1D3D4"/>
<path d="M71.2009 29.335C71.0833 28.8167 70.8924 28.3424 70.6322 27.9102C70.3195 28.3676 70.0425 28.8838 69.8096 29.463L71.2009 29.335Z" fill="#D1D3D4"/>
<path d="M21.7569 19.332L16.708 22.8407V26.7543L21.7569 23.2457L26.8037 26.7543V22.8407L21.7569 19.332Z" fill="#FFA048"/>
<path d="M16.708 29.3114V33.225L21.7569 29.7164L26.8037 33.225V29.3114L21.7569 25.8027L16.708 29.3114Z" fill="#FFA048"/>
<path d="M16.708 35.784V39.6977L21.7569 36.189L26.8037 39.6977V35.784L21.7569 32.2754L16.708 35.784Z" fill="#FFA048"/>
<path d="M26.8981 26.9016L21.7569 23.3279L16.6135 26.9016V22.7592L16.6534 22.7319L21.7548 19.1855L21.8093 19.2233L26.8981 22.7613V26.9016ZM16.8024 22.8558V26.5386L21.7569 23.095L21.8114 23.1328L26.7113 26.5386V22.8558L21.7569 19.4122L16.8024 22.8558Z" fill="#1E344E"/>
<path d="M26.8981 33.3703L21.7569 29.7967L16.6135 33.3703V29.228L16.6534 29.2007L21.7548 25.6543L21.8093 25.6921L26.8981 29.2301V33.3703ZM16.8024 29.3266V33.0094L21.7569 29.5658L21.8114 29.6036L26.7113 33.0094V29.3266L21.7569 25.883L16.8024 29.3266Z" fill="#1E344E"/>
<path d="M26.8981 39.843L21.7569 36.2693L16.6135 39.843V35.7006L16.6534 35.6734L21.7548 32.127L21.8093 32.1647L26.8981 35.7027V39.843ZM16.8024 35.7993V39.4821L21.7569 36.0385L21.8114 36.0763L26.7113 39.4821V35.7993L21.7569 32.3557L16.8024 35.7993Z" fill="#1E344E"/>
<path d="M15.0522 8.15677C16.305 6.66896 17.967 5.59664 19.8514 5.15177C20.4894 4.99438 21.1525 4.91674 21.8345 4.91674C24.5226 4.91674 26.94 6.16743 28.6167 8.15887L24.8395 1.77954C24.6023 1.37663 24.3128 1.04298 23.9854 0.778573C22.399 -0.522474 19.9941 -0.188818 18.8274 1.77954L15.0522 8.15677Z" fill="#298DFE"/>
<path d="M36.1733 22.5559L31.8232 14.4118C29.9429 10.8905 26.8666 8.86553 23.6077 8.33042C23.6035 8.33042 23.5993 8.32832 23.5951 8.32832C23.0264 8.21501 22.443 8.15625 21.8471 8.15625C21.249 8.15625 20.6656 8.21501 20.097 8.32832C16.8338 8.85923 13.7533 10.8864 11.871 14.4118L7.52297 22.5496L1.63678 33.5686C0.97157 34.8109 0.757527 36.1057 0.866647 37.4025C1.52137 45.0682 12.1501 44.3904 12.1501 36.6912V35.1698V24.646C12.1501 24.6313 12.1501 24.6187 12.1501 24.604V24.646C12.1501 19.5803 15.4719 15.3561 19.8913 14.3782C20.5229 14.2376 21.1756 14.1662 21.845 14.1662C24.5205 14.1662 26.9442 15.3414 28.7007 17.2363C30.4529 19.1312 31.5399 21.7543 31.5399 24.6481V35.174V36.582C31.5399 44.2456 42.135 44.8773 42.7331 37.2388C42.8359 35.9273 42.6135 34.62 41.942 33.3609L36.1733 22.5559Z" fill="#298DFE"/>
<path d="M43.7656 42.0373V24.3788H48.2941V28.6155L47.9709 28.0007C48.3592 26.5129 49.0013 25.5056 49.8952 24.9768C50.7892 24.448 51.8531 24.1836 53.0807 24.1836H54.1152V28.3889H52.596C51.4103 28.3889 50.4492 28.7498 49.7169 29.4717C48.9845 30.1936 48.6173 31.2134 48.6173 32.5271V42.0352H43.7656V42.0373Z" fill="#298DFE"/>
<path d="M55.0574 42.0369V24.3783H59.5859V28.6802L59.1011 27.9688C59.3592 26.6111 59.9846 25.608 60.9771 24.9617C61.9697 24.3153 63.1553 23.9922 64.534 23.9922C66.0009 23.9922 67.2872 24.3636 68.3994 25.1086C69.5095 25.8514 70.2041 26.8503 70.4853 28.101L69.094 28.2311C69.6753 26.7873 70.5063 25.7192 71.5849 25.0288C72.6635 24.3384 73.9247 23.9943 75.3684 23.9943C76.6401 23.9943 77.7669 24.2755 78.749 24.8358C79.729 25.3961 80.5012 26.1788 81.0615 27.1798C81.6218 28.1828 81.903 29.3517 81.903 30.6884V42.0411H77.0514V31.7229C77.0514 31.0325 76.9276 30.4408 76.6799 29.9434C76.4323 29.4482 76.0819 29.06 75.6286 28.7788C75.1753 28.4997 74.6255 28.3591 73.9792 28.3591C73.3539 28.3591 72.8083 28.4997 72.3466 28.7788C71.8828 29.06 71.5261 29.4482 71.2785 29.9434C71.0309 30.4387 70.9071 31.0325 70.9071 31.7229V42.0411H66.0554V31.7229C66.0554 31.0325 65.9316 30.4408 65.684 29.9434C65.4364 29.4482 65.0859 29.06 64.6327 28.7788C64.1794 28.4997 63.6296 28.3591 62.9833 28.3591C62.3579 28.3591 61.8144 28.4997 61.3507 28.7788C60.8869 29.06 60.5302 29.4482 60.2825 29.9434C60.0349 30.4387 59.9111 31.0325 59.9111 31.7229V42.0411H55.0574V42.0369Z" fill="#298DFE"/>
<path d="M89.6168 35.9179C88.1941 35.9179 86.9812 35.6115 85.9781 34.9966C84.9751 34.3818 84.2154 33.5256 83.6971 32.426C83.1788 31.3264 82.9207 30.0443 82.9207 28.5774V17.8711H87.7723V28.1892C87.7723 28.8586 87.9066 29.4462 88.1773 29.9519C88.4459 30.4598 88.8299 30.8522 89.3252 31.1334C89.8204 31.4146 90.3807 31.5531 91.006 31.5531C91.6524 31.5531 92.2189 31.4125 92.7037 31.1334C93.1884 30.8543 93.5662 30.4598 93.8348 29.9519C94.1034 29.4462 94.2398 28.8586 94.2398 28.1892V17.8711H99.0914V35.5297H94.5629V32.0357L94.821 32.8121C94.4118 33.8698 93.7487 34.6504 92.8317 35.1561C91.9168 35.664 90.8445 35.9179 89.6168 35.9179Z" fill="#1E344E"/>
<path d="M100.136 41.9967V17.8706H104.665V21.2345L104.245 20.265C104.827 19.3815 105.62 18.6974 106.623 18.2106C107.626 17.7258 108.774 17.4824 110.066 17.4824C111.747 17.4824 113.269 17.8916 114.626 18.7121C115.984 19.5326 117.063 20.6364 117.86 22.0277C118.658 23.419 119.056 24.976 119.056 26.701C119.056 28.4049 118.662 29.9578 117.875 31.3575C117.088 32.7592 116.016 33.8693 114.658 34.6877C113.3 35.5082 111.758 35.9174 110.033 35.9174C108.824 35.9174 107.71 35.6971 106.686 35.2543C105.662 34.8136 104.837 34.161 104.212 33.2985L104.988 32.2955V41.9988H100.136V41.9967ZM109.452 31.5505C110.358 31.5505 111.155 31.3449 111.846 30.9357C112.536 30.5265 113.076 29.9557 113.464 29.2212C113.852 28.4889 114.045 27.6474 114.045 26.6989C114.045 25.7504 113.852 24.9152 113.464 24.1933C113.076 23.4714 112.536 22.8986 111.846 22.4789C111.155 22.0592 110.358 21.8472 109.452 21.8472C108.589 21.8472 107.819 22.0529 107.139 22.4621C106.459 22.8713 105.93 23.4442 105.555 24.1765C105.177 24.9089 104.988 25.7504 104.988 26.6989C104.988 27.6474 105.177 28.4889 105.555 29.2212C105.932 29.9536 106.461 30.5265 107.139 30.9357C107.819 31.347 108.589 31.5505 109.452 31.5505Z" fill="#1E344E"/>
</g>
<defs>
<clipPath id="clip0_4557_8411">
<rect width="119.058" height="44.5" fill="white"/>
</clipPath>
</defs>
</svg>
