<svg width="171" height="45" viewBox="0 0 171 45" fill="none" xmlns="http://www.w3.org/2000/svg">
<path d="M22.2782 20.1934L17.2815 23.6649V27.5415L22.2782 24.07L27.275 27.5415V23.6649L22.2782 20.1934Z" fill="#FFA048"/>
<path d="M17.2815 30.0751V33.9438L22.2782 30.4723L27.275 33.9438V30.0751L22.2782 26.5957L17.2815 30.0751Z" fill="#FFA048"/>
<path d="M17.2815 36.4793V40.3559L22.2782 36.8765L27.275 40.3559V36.4793L22.2782 33.0078L17.2815 36.4793Z" fill="#FFA048"/>
<path d="M27.3704 27.6849L22.2783 24.1498L17.1863 27.6849V23.5858L17.226 23.562L22.2783 20.0508L22.3339 20.0905L27.3704 23.5938V27.6928V27.6849ZM17.3769 23.6812V27.3274L22.2783 23.9195L22.3339 23.9592L27.1877 27.3274V23.6812L22.2863 20.2732L17.3849 23.6812H17.3769Z" fill="#1E344E"/>
<path d="M27.3704 34.0951L22.2783 30.56L17.1863 34.0951V29.996L17.226 29.9722L22.2783 26.4609L22.3339 26.5007L27.3704 30.0039V34.103V34.0951ZM17.3769 30.0913V33.7376L22.2783 30.3296L22.3339 30.3694L27.1877 33.7376V30.0913L22.2863 26.6834L17.3849 30.0913H17.3769Z" fill="#1E344E"/>
<path d="M27.3704 40.4993L22.2783 36.9643L17.1863 40.4993V36.4003L17.226 36.3764L22.2783 32.8652L22.3339 32.905L27.3704 36.4082V40.5073V40.4993ZM17.3769 36.4956V40.1419L22.2783 36.7339L22.3339 36.7736L27.1877 40.1419V36.4956L22.2863 33.0877L17.3849 36.4956H17.3769Z" fill="#1E344E"/>
<path d="M15.6452 9.12648C16.8844 7.65685 18.5288 6.59237 20.3956 6.14751C21.0232 5.99657 21.6825 5.91713 22.3578 5.91713C25.019 5.91713 27.4101 7.15639 29.0704 9.12648L25.3288 2.81106C25.0905 2.41386 24.8045 2.08022 24.4867 1.81807C22.9138 0.531154 20.5386 0.856855 19.3788 2.81106L15.6372 9.12648H15.6452Z" fill="#298DFE"/>
<path d="M36.5535 23.3862L32.2478 15.3231C30.389 11.8357 27.3385 9.83383 24.1133 9.30159C24.1133 9.30159 24.1053 9.30159 24.0974 9.30159C23.5334 9.19037 22.9535 9.13477 22.3656 9.13477C21.7778 9.13477 21.1978 9.19037 20.6338 9.30159C17.4006 9.82589 14.3581 11.8357 12.4913 15.3231L8.1857 23.3782L2.3628 34.2852C1.70345 35.5165 1.48897 36.7955 1.60018 38.0824C2.25158 45.6689 12.7693 45.0016 12.7693 37.3754V35.8661V25.4516C12.7693 25.4357 12.7693 25.4278 12.7693 25.4119V25.4516C12.7693 20.439 16.0581 16.2525 20.4273 15.2913C21.0549 15.1563 21.6983 15.0768 22.3577 15.0768C25.003 15.0768 27.41 16.2366 29.1418 18.1114C30.8735 19.9862 31.9539 22.5838 31.9539 25.4516V35.874V37.2642C31.9539 44.8507 42.4399 45.4782 43.0357 37.9156C43.139 36.6128 42.9165 35.3259 42.2492 34.0787L36.5376 23.3862H36.5535Z" fill="#298DFE"/>
<path d="M46.5627 42.6674V25.1908H51.0431V29.3852L50.7254 28.7735C51.1067 27.3039 51.7422 26.3029 52.6319 25.7786C53.5137 25.2543 54.5702 24.9922 55.7856 24.9922H56.8104V29.1548H55.309C54.1333 29.1548 53.188 29.5123 52.4571 30.2272C51.7342 30.9422 51.3688 31.9511 51.3688 33.2539V42.6674H46.5627Z" fill="#298DFE"/>
<path d="M57.74 42.6667V25.19H62.2204V29.448L61.7437 28.741C61.9979 27.3984 62.6176 26.4055 63.6026 25.762C64.5877 25.1185 65.7554 24.8008 67.1218 24.8008C68.5755 24.8008 69.8465 25.1662 70.9507 25.905C72.047 26.6438 72.7381 27.6288 73.0162 28.8681L71.6419 28.9952C72.2218 27.5653 73.04 26.5087 74.1045 25.8255C75.169 25.1424 76.4162 24.8008 77.854 24.8008C79.1091 24.8008 80.2292 25.0788 81.1984 25.6349C82.1676 26.191 82.9302 26.9615 83.4862 27.9545C84.0423 28.9475 84.3204 30.1073 84.3204 31.426V42.6667H79.5143V32.4508C79.5143 31.7676 79.3951 31.1798 79.1489 30.6872C78.9026 30.1947 78.5531 29.8134 78.1082 29.5354C77.6634 29.2573 77.1152 29.1223 76.4718 29.1223C75.8283 29.1223 75.312 29.2653 74.8512 29.5354C74.3905 29.8134 74.0409 30.1947 73.7947 30.6872C73.5484 31.1798 73.4292 31.7676 73.4292 32.4508V42.6667H68.6232V32.4508C68.6232 31.7676 68.504 31.1798 68.2577 30.6872C68.0115 30.1947 67.662 29.8134 67.2171 29.5354C66.7722 29.2573 66.2241 29.1223 65.5806 29.1223C64.9372 29.1223 64.4208 29.2653 63.968 29.5354C63.5073 29.8134 63.1577 30.1947 62.9115 30.6872C62.6652 31.1798 62.5461 31.7676 62.5461 32.4508V42.6667H57.74Z" fill="#298DFE"/>
<path d="M108.811 25.1816L105.411 35.334L101.638 25.1816H97.4833L93.6782 35.3419L90.2782 25.1816H85.3132L91.3347 42.6662H95.4973L99.5567 31.4573L103.592 42.6662H107.755L113.808 25.1816H108.811Z" fill="#1E344E"/>
<path d="M124.596 25.6031C123.468 25.0709 122.165 24.8008 120.687 24.8008C119.448 24.8008 118.304 24.9914 117.264 25.3807C116.215 25.762 115.317 26.3101 114.579 27.0171C113.832 27.7241 113.284 28.5662 112.942 29.5433L116.787 31.3704C117.089 30.5998 117.558 29.9802 118.209 29.5115C118.86 29.0428 119.615 28.8045 120.465 28.8045C121.363 28.8045 122.07 29.0269 122.594 29.4798C123.118 29.9246 123.38 30.4807 123.38 31.148V31.6167L118.551 32.3952C117.16 32.6097 116.008 32.9751 115.079 33.4835C114.15 33.9919 113.458 34.6274 113.014 35.39C112.569 36.1447 112.338 37.0185 112.338 37.9956C112.338 39.0442 112.585 39.9419 113.077 40.7045C113.57 41.4592 114.269 42.047 115.19 42.4522C116.104 42.8573 117.192 43.0639 118.455 43.0639C119.393 43.0639 120.251 42.9447 121.013 42.6984C121.784 42.4522 122.475 42.0788 123.094 41.5784C123.301 41.4115 123.508 41.2209 123.706 41.0143V42.6826H128.187V31.1559C128.187 29.9008 127.869 28.7886 127.241 27.8433C126.614 26.898 125.732 26.1513 124.596 25.619V25.6031ZM122.88 37.6223C122.546 38.2101 122.086 38.6709 121.49 39.0125C120.894 39.3541 120.195 39.5288 119.408 39.5288C118.813 39.5288 118.312 39.3779 117.907 39.084C117.502 38.7821 117.295 38.369 117.295 37.8368C117.295 37.2569 117.478 36.8199 117.844 36.5101C118.209 36.2003 118.725 35.9779 119.408 35.8508L123.38 35.1438V35.6919C123.38 36.3989 123.214 37.0424 122.888 37.6302L122.88 37.6223Z" fill="#1E344E"/>
<path d="M134.264 18.4297H129.466V42.6666H134.264V18.4297Z" fill="#1E344E"/>
<path d="M140.341 18.4297H135.543V42.6666H140.341V18.4297Z" fill="#1E344E"/>
<path d="M156.109 27.2953C155.371 26.5089 154.473 25.8892 153.401 25.4523C152.336 25.0154 151.105 24.793 149.723 24.793C148.054 24.793 146.561 25.1902 145.242 25.9766C143.916 26.7631 142.867 27.8434 142.088 29.2098C141.31 30.5761 140.921 32.1332 140.921 33.8808C140.921 35.6285 141.294 37.1061 142.041 38.4883C142.787 39.8705 143.844 40.9827 145.21 41.8009C146.577 42.6191 148.189 43.0322 150.04 43.0322C151.232 43.0322 152.336 42.8575 153.337 42.5079C154.338 42.1584 155.212 41.6579 155.951 41.0224C156.689 40.379 157.222 39.6322 157.571 38.7822L153.726 36.9551C153.385 37.5509 152.908 38.0196 152.304 38.3612C151.693 38.7028 150.962 38.8775 150.112 38.8775C149.174 38.8775 148.372 38.671 147.713 38.25C147.053 37.8369 146.561 37.249 146.243 36.5023C146.076 36.121 145.973 35.7 145.909 35.2551H158.151C158.238 35.0168 158.294 34.7388 158.326 34.4051C158.358 34.0715 158.373 33.7378 158.373 33.3962C158.373 32.1808 158.183 31.0528 157.801 30.0201C157.42 28.9874 156.856 28.0738 156.117 27.2794L156.109 27.2953ZM147.578 29.2495C148.173 28.8444 148.888 28.6378 149.723 28.6378C150.557 28.6378 151.295 28.8444 151.883 29.2654C152.471 29.6785 152.884 30.2504 153.115 30.9654C153.194 31.2117 153.242 31.4738 153.266 31.7518H146.029C146.084 31.5056 146.148 31.2673 146.235 31.0448C146.537 30.2584 146.982 29.6547 147.578 29.2495Z" fill="#1E344E"/>
<path d="M169.606 29.3455V25.1829H165.507V21.2109H160.709V22.4899C160.709 23.3876 160.471 24.0628 159.986 24.5077C159.501 24.9525 158.818 25.1829 157.921 25.1829H157.762V29.3455H160.709V36.36C160.709 38.4095 161.289 40.0063 162.457 41.1422C163.616 42.2862 165.261 42.8581 167.374 42.8581C167.739 42.8581 168.121 42.8343 168.526 42.7946C168.931 42.7549 169.296 42.7072 169.614 42.6675V38.6002C169.4 38.624 169.201 38.6399 169.002 38.6637C168.812 38.6876 168.637 38.6955 168.486 38.6955C167.827 38.6955 167.271 38.6002 166.818 38.4095C166.373 38.2189 166.039 37.925 165.825 37.5278C165.61 37.1306 165.507 36.638 165.507 36.0422V29.3535H169.606V29.3455Z" fill="#1E344E"/>
</svg>
