<svg width="24" height="24" viewBox="0 0 24 24" fill="none" xmlns="http://www.w3.org/2000/svg">
<path d="M9.88806 10.0684C9.20406 10.0684 8.66406 10.6684 8.66406 11.4004C8.66406 12.1324 9.21606 12.7324 9.88806 12.7324C10.5721 12.7324 11.1121 12.1324 11.1121 11.4004C11.1241 10.6684 10.5721 10.0684 9.88806 10.0684ZM14.2681 10.0684C13.5841 10.0684 13.0441 10.6684 13.0441 11.4004C13.0441 12.1324 13.5961 12.7324 14.2681 12.7324C14.9521 12.7324 15.4921 12.1324 15.4921 11.4004C15.4921 10.6684 14.9521 10.0684 14.2681 10.0684Z" fill="#98A2B3"/>
<path d="M20.0998 0H4.01981C2.66381 0 1.55981 1.104 1.55981 2.472V18.696C1.55981 20.064 2.66381 21.168 4.01981 21.168H17.6278L16.9918 18.948L18.5278 20.376L19.9798 21.72L22.5598 24V2.472C22.5598 1.104 21.4558 0 20.0998 0ZM15.4678 15.672C15.4678 15.672 15.0358 15.156 14.6758 14.7C16.2478 14.256 16.8478 13.272 16.8478 13.272C16.3558 13.596 15.8878 13.824 15.4678 13.98C14.8678 14.232 14.2918 14.4 13.7278 14.496C12.5758 14.712 11.5198 14.652 10.6198 14.484C9.93581 14.352 9.34781 14.16 8.85581 13.968C8.57981 13.86 8.27981 13.728 7.97981 13.56C7.94381 13.536 7.90781 13.524 7.87181 13.5C7.84781 13.488 7.83581 13.476 7.82381 13.464C7.60781 13.344 7.48781 13.26 7.48781 13.26C7.48781 13.26 8.06381 14.22 9.58781 14.676C9.22781 15.132 8.78381 15.672 8.78381 15.672C6.13181 15.588 5.12381 13.848 5.12381 13.848C5.12381 9.984 6.85181 6.852 6.85181 6.852C8.57981 5.556 10.2238 5.592 10.2238 5.592L10.3438 5.736C8.18381 6.36 7.18781 7.308 7.18781 7.308C7.18781 7.308 7.45181 7.164 7.89581 6.96C9.17981 6.396 10.1998 6.24 10.6198 6.204C10.6918 6.192 10.7518 6.18 10.8238 6.18C11.5558 6.084 12.3838 6.06 13.2478 6.156C14.3878 6.288 15.6118 6.624 16.8598 7.308C16.8598 7.308 15.9118 6.408 13.8718 5.784L14.0398 5.592C14.0398 5.592 15.6838 5.556 17.4118 6.852C17.4118 6.852 19.1398 9.984 19.1398 13.848C19.1398 13.848 18.1198 15.588 15.4678 15.672Z" fill="#98A2B3"/>
</svg>
