<svg width="24" height="24" viewBox="0 0 24 24" fill="none" xmlns="http://www.w3.org/2000/svg">
<g clip-path="url(#clip0_5408_16744)">
<path d="M0.439756 23.66C3.47976 20.17 6.42976 16.78 9.39976 13.37C6.26976 8.93 3.15976 4.52 -0.000244141 0.04C0.229756 0.03 0.379756 0.01 0.519756 0.01C2.64976 0.01 4.76976 0.02 6.89976 0C7.23976 0 7.42976 0.11 7.61976 0.38C9.43976 2.99 11.2798 5.59 13.1198 8.19C13.2298 8.34 13.3498 8.49 13.4898 8.68C14.3398 7.71 15.1598 6.77 15.9798 5.82C17.5798 3.98 19.1798 2.14 20.7898 0.32C20.9298 0.16 21.1898 0.05 21.3998 0.04C21.9298 0 22.4598 0.03 23.0898 0.03C20.1498 3.4 17.2898 6.69 14.3998 10.01C17.5998 14.54 20.7798 19.06 23.9998 23.63C23.8198 23.65 23.6998 23.67 23.5698 23.67C21.4098 23.67 19.2498 23.67 17.0898 23.68C16.7698 23.68 16.5898 23.58 16.4098 23.32C14.5098 20.61 12.5998 17.92 10.6998 15.22C10.5898 15.06 10.4798 14.91 10.2598 14.62C10.1598 14.8 10.0998 14.94 9.99976 15.06C7.58976 17.83 5.17976 20.61 2.75976 23.36C2.60976 23.53 2.33976 23.64 2.10976 23.66C1.58976 23.69 1.07976 23.66 0.439756 23.66ZM20.9998 22.11C20.8398 21.87 20.7498 21.71 20.6398 21.56C16.2798 15.37 11.8798 9.21 7.57976 2.98C6.81976 1.87 6.03976 1.34 4.71976 1.54C4.18976 1.62 3.63976 1.56 2.99976 1.56C3.18976 1.84 3.29976 2.01 3.41976 2.18C4.95976 4.37 6.50976 6.56 8.04976 8.75C11.0998 13.07 14.1498 17.39 17.1998 21.71C17.3098 21.87 17.4898 22.09 17.6398 22.09C18.7298 22.12 19.8198 22.11 20.9998 22.11Z" fill="#98A2B3"/>
</g>
<defs>
<clipPath id="clip0_5408_16744">
<rect width="24" height="23.67" fill="white" transform="translate(-0.000244141)"/>
</clipPath>
</defs>
</svg>
