<svg width="24" height="24" viewBox="0 0 24 24" fill="none" xmlns="http://www.w3.org/2000/svg">
<path d="M11.9898 24.0002C5.69006 23.957 0.0874409 19.153 0.000936245 12.113C-0.0790806 5.53803 4.97856 0.0845668 11.8528 0.000955634C18.9166 -0.0840971 23.9015 5.52073 23.9988 11.8002C24.104 18.5749 18.7364 23.9628 11.9898 24.0002ZM15.5624 9.09583C15.5869 9.13115 15.6114 9.16647 15.6352 9.20178C15.5595 9.29621 15.4946 9.40288 15.406 9.48361C13.7076 11.0412 12.0099 12.5996 10.3015 14.1457C10.0831 14.3431 9.95258 14.5342 9.94753 14.8419C9.94104 15.2607 9.87328 15.6773 9.84084 16.0961C9.80552 16.5574 9.78101 17.0187 9.75001 17.5146C10.2755 17.4238 10.5358 17.0425 10.8537 16.747C11.1752 16.4486 11.4909 16.1451 11.8117 15.8417C12.746 16.5351 13.6499 17.209 14.5582 17.8772C14.7017 17.9824 14.8574 18.0811 15.0218 18.146C15.3894 18.2909 15.6561 18.1698 15.7989 17.8072C15.8464 17.6854 15.8731 17.555 15.9005 17.4259C16.5536 14.3576 17.2046 11.2892 17.8605 8.22152C17.9298 7.89932 17.9442 7.59659 17.6796 7.35657C17.4165 7.11799 17.1368 7.25206 16.8701 7.35441C13.7422 8.55884 10.6158 9.76544 7.48936 10.9742C6.73028 11.2676 5.9676 11.5537 5.22149 11.8788C5.06651 11.9458 4.90647 12.1613 4.88917 12.3235C4.87908 12.4208 5.1249 12.5988 5.28421 12.6507C6.1716 12.9391 7.07053 13.1921 7.96009 13.4746C8.19725 13.5503 8.37747 13.5337 8.59301 13.396C10.7383 12.033 12.8901 10.6808 15.0434 9.33153C15.2041 9.23206 15.3894 9.17367 15.5624 9.09583Z" fill="#98A2B3"/>
</svg>
