<svg width="665" height="665" viewBox="0 0 665 665" fill="none" xmlns="http://www.w3.org/2000/svg">
<g opacity="0.2" filter="url(#filter0_f_5431_16933)">
<circle cx="332.5" cy="332.5" r="232.5" fill="#298DFE"/>
</g>
<g clip-path="url(#clip0_5431_16933)">
<path d="M425.754 283.568C421.713 292.946 416.852 301.928 412.306 311.061C409.339 317.019 406.709 323.161 403.124 328.807C402.59 329.22 401.977 329.13 401.584 328.745C398.948 326.174 395.779 324.143 393.638 321.069C392.936 317.884 391.031 315.328 389.097 312.824C381.247 302.659 373.374 292.506 365.394 282.436C364.467 281.264 362.972 280.31 363.219 278.469C370.025 264.506 376.217 250.268 382.348 236.004C384.731 230.453 387.052 224.879 389.362 219.295C389.929 217.928 390.514 216.528 390.789 215.089C391.283 212.461 390.075 210.57 387.676 209.471C384.135 207.842 380.337 207.334 376.493 207.133C371.632 206.882 366.765 206.787 361.91 206.486C360.123 206.375 357.825 206.748 356.926 204.74C355.993 202.659 357.611 201.002 358.87 199.557C363.815 193.856 370.042 189.683 376.335 185.655C395.262 173.543 415.138 163.222 436.021 154.832C439.92 153.264 443.899 151.959 448.069 151.156C450.856 150.62 452.514 151.596 453.891 153.817C457.403 159.468 459.83 165.61 462.151 171.786C468.827 189.549 474.334 207.669 478.712 226.123C480.336 232.98 482 239.853 481.96 246.977C481.938 251.172 479.937 252.322 476.284 250.129C472.463 247.836 469.67 244.405 466.709 241.186C464.118 238.374 461.589 235.496 458.633 233.058C454.368 229.538 452.238 230.034 449.822 234.955C443.219 248.388 436.605 261.811 429.996 275.239C429.148 275.976 428.209 275.663 427.344 275.356C423.32 273.928 419.168 273.515 414.914 273.845C418.802 273.616 422.584 274.185 426.282 275.295C427.411 275.635 428.704 275.786 429.322 277.041C428.603 278.453 427.619 279.736 427.265 281.32C425.209 282.592 423.422 280.734 421.663 280.891C422.865 281.761 425.647 280.623 425.754 283.568Z" fill="#298DFE"/>
<path d="M387.799 347.791C378.027 353.866 367.71 358.932 357.353 363.903C348.176 368.31 338.909 372.539 329.665 376.806C328.547 377.325 327.535 377.922 326.715 378.832C325.383 379.362 324.209 380.343 322.647 380.198C321.5 380.589 320.292 380.851 319.224 381.387C311.604 385.186 303.332 386.023 295.032 386.798C283.31 387.892 271.531 388.276 259.848 389.961C254.184 390.776 250.059 393.85 246.086 397.431C231.172 410.865 217.174 425.208 203.293 439.668C198.764 444.382 197.027 444.829 191.071 441.961C183.232 438.19 176.674 432.639 170.329 426.848C163.99 421.057 157.826 415.083 152.88 408.02C150.571 404.723 150.661 404.265 153.645 401.56C162.209 393.794 170.773 386.017 179.354 378.263C179.826 377.833 180.411 377.526 180.944 377.163C182.411 376.901 182.574 378.14 182.849 378.988C183.569 381.208 184.676 383.233 185.89 385.219C184.384 383.071 183.765 380.539 182.715 378.19C182.237 377.13 181.928 376.098 182.838 375.099C184.148 373.961 185.457 372.823 186.766 371.691C188.654 372.555 187.941 374.737 188.896 375.919C188.604 374.028 187.053 372.143 188.418 369.984C197.387 362.123 206.311 354.212 215.342 346.43C219.36 342.965 223.518 339.646 227.778 336.477C232.661 332.851 238.59 332.003 244.383 331.027C252.211 329.71 260.079 328.678 268.008 328.143C268.811 328.087 269.767 328.243 270.059 327.133C272.897 328.907 273.796 332.003 275.145 334.726C277.657 339.786 278.241 345.364 279.078 350.854C279.258 352.042 279.421 353.236 279.668 354.413C280.641 359.066 282.647 360.176 287.3 358.843C291.537 357.632 293.801 354.441 295.853 350.932C296.774 349.353 297.021 347.373 298.651 346.201C305.58 345.225 312.526 344.405 319.342 342.737C329.334 340.293 339.084 337.058 348.873 333.939C354.296 332.21 359.662 330.296 365.237 329.03C368.451 328.299 371.373 328.583 374.133 330.263C378.527 332.935 382.629 336.003 386.276 339.635C388.642 342 388.715 344.812 387.799 347.791Z" fill="#298DFE"/>
<path d="M387.799 347.792C388.625 339.965 382.039 337.382 377.487 333.309C372.098 328.478 366.215 329.125 359.954 331.189C347.653 335.24 335.408 339.496 322.849 342.715C314.914 344.746 306.906 346.531 298.645 346.632C297.684 345.633 298.179 344.495 298.499 343.496C300.517 337.203 298.623 331.887 294.504 327.078C293.723 326.163 292.936 325.231 292.728 323.987C295.335 319.095 297.651 314.046 300.82 309.46C306.265 309.014 308.98 305.588 310.452 300.785C310.778 299.719 311.256 298.71 311.958 297.823C316.004 295.201 320.629 293.901 325.08 292.233C330.946 290.035 336.864 287.965 342.865 286.152C343.68 285.906 344.484 285.666 345.338 285.94C346.586 286.526 346.844 287.758 347.159 288.885C347.923 291.625 348.963 294.286 349.418 297.109C349.081 298.302 348.041 298.832 347.114 299.429C340.758 303.519 334.605 307.909 328.013 312.004C340.651 310.481 353.138 309.443 365.63 308.562C370.002 308.255 374.442 307.987 378.656 309.745C383.113 312.082 387.265 314.877 391.21 317.99C392.312 318.86 393.363 319.742 394.127 320.924C397.083 323.602 399.696 326.665 403.124 328.818C404.124 330.777 405.967 331.982 407.479 333.454C413.604 339.435 419.398 345.722 425.321 351.892C427.237 353.89 427.968 355.792 426.686 358.297C426.08 361.968 423.112 363.998 420.87 366.537C417.476 369.533 416.847 369.599 413.216 366.816C408.097 362.888 403.961 357.929 399.291 353.527C398.274 352.567 397.324 351.541 396.302 350.592C394.616 349.036 392.919 347.541 390.401 349.058C389.997 349.298 389.491 349.159 389.081 348.874C388.659 348.506 388.226 348.149 387.799 347.792Z" fill="#FFA048"/>
<path d="M293.06 323.731C294.56 325.845 296.083 327.948 297.561 330.074C300.303 334.012 300.657 338.291 299.427 342.821C299.089 344.065 298.904 345.354 298.645 346.626C297.426 349.627 296.072 352.54 294.06 355.134C291.115 358.933 287.215 360.322 282.54 359.982C280.579 359.837 279.977 358.358 279.477 356.83C278.263 353.125 277.966 349.226 277.454 345.415C276.544 338.643 273.61 332.802 270.065 327.15C264.372 317.198 256.915 308.54 249.638 299.747C247.232 296.846 245.816 293.427 244.518 289.94C243.512 287.251 243.58 284.199 241.281 281.912C240.562 281.192 240.882 279.441 240.731 278.157C241.242 276.846 242.523 276.595 243.625 276.188C246.423 275.15 248.8 273.639 250.368 271.022C250.891 270.152 251.514 269.287 252.728 269.27C259.82 272.701 267.766 273.181 275.133 275.664C275.493 275.786 275.87 275.658 276.235 275.574C278.977 276.997 282.214 276.763 284.951 277.979C287.671 279.184 290.531 278.531 293.239 279.262C294.026 279.474 294.661 279.028 295.251 278.559C298.084 276.919 300.82 275.072 304.153 274.52C304.709 274.314 305.265 274.107 305.822 273.906C306.642 272.74 307.783 271.987 309.087 271.452C312.908 269.878 316.212 267.128 320.449 266.487C323.074 265.086 325.698 263.692 328.322 262.291C330.278 260.869 331.874 258.615 334.841 259.558C337.319 261.332 338.078 264.222 339.522 266.665C340.59 269.728 340.41 270.442 337.729 272.244C328.817 278.23 319.5 283.563 310.177 288.897C309.446 289.315 308.693 289.683 307.974 290.118C306.794 290.832 306.754 291.541 307.755 292.523C309.463 294.202 311.43 295.714 312.099 298.191C311.362 301.622 310.025 304.835 307.637 307.407C305.9 309.276 303.534 310.185 300.843 309.745C298.314 309.454 297.151 307.368 295.706 305.75C293.661 303.452 292.099 300.791 290.362 298.258C288.654 295.764 285.029 294.565 282.259 295.441C281.264 295.753 281.489 296.372 281.714 296.964C284.866 305.081 286.76 313.717 291.863 321.019C292.442 321.834 293.262 322.57 293.06 323.731Z" fill="#1E344E"/>
<path d="M424 490.447C432.003 491.272 437.543 495.964 438.813 502.971C439.538 506.988 438.06 509.866 434.307 511.507C430.839 513.024 427.108 513.604 423.388 513.822C398.623 515.256 373.852 515.652 349.103 513.454C345.765 513.158 342.45 512.5 339.336 511.111C334.56 508.974 332.739 505.175 334.408 500.198C336.313 494.525 340.511 491.278 346.249 489.844C347.367 489.493 348.294 489.688 348.839 490.809C350.07 493.348 352.408 494.558 354.835 495.557C362.5 498.709 370.536 500.154 378.774 500.952C387.805 501.827 396.65 501.03 405.467 499.228C409.985 498.307 414.217 496.6 418.347 494.614C419.786 493.922 421.078 493.024 422.017 491.68C422.489 491.005 422.95 490.235 424 490.447Z" fill="#1E344E"/>
<path d="M107.531 179.959C110.723 181.215 113.178 178.927 115.466 175.703C117.657 172.618 119.922 172.361 123.249 174.224C127.109 176.378 128.61 175.535 128.93 171.167C129.076 169.148 129.335 167.128 130.723 165.438C133.229 162.381 136.612 163.552 139.601 163.825C142.512 164.082 144.811 165.839 145.71 168.852C147.626 175.262 149.329 176.227 155.808 174.514C156.617 174.302 157.427 174.068 158.241 173.884C163.265 172.724 165.788 174.057 167.649 178.849C169.492 183.58 170.908 184.328 175.988 183.262C177.629 182.916 179.258 182.526 180.905 182.202C183.265 181.739 185.417 181.979 186.777 184.277C187.997 186.336 187.491 188.919 185.491 190.849C183.203 193.058 180.326 193.717 177.264 193.717C164.575 193.733 151.886 193.705 139.197 193.739C136.595 193.745 133.982 193.99 131.391 194.113C121.287 194.587 111.301 193.365 101.518 190.821C99.6466 190.336 98.4103 188.701 98.0843 186.749C97.7416 184.69 98.5002 182.877 100.124 181.555C101.939 180.076 104.086 179.546 107.531 179.959Z" fill="#FEFEFE"/>
<path d="M295.796 279.067C294.706 280.2 293.52 280.646 292.099 279.614C291.885 279.458 291.554 279.229 291.363 279.296C286.429 280.953 282.349 276.741 277.555 277.321C276.634 277.433 276.847 276.11 276.195 275.737C275.156 276.127 274.903 275.218 274.549 274.66C270.081 267.664 264.102 262.359 256.623 258.699C255.948 258.37 255.313 257.979 254.869 257.343C254.094 255.681 254.594 254.225 255.825 253.064C256.932 252.021 257.033 250.967 256.662 249.566C256.167 247.698 255.813 245.751 256.988 243.937C258.966 242.013 258.634 239.318 259.224 236.964C262.158 225.327 261.888 213.639 259.68 201.896C258.567 195.976 257.898 189.968 257.089 183.993C256.842 182.163 256.505 180.149 259.309 179.876C261.939 178.219 264.496 178.721 267.019 180.127C268.12 180.456 268.603 181.187 268.845 182.32C271.166 193.382 273.565 204.445 274.785 215.681C275.594 223.162 274.274 230.665 273.953 238.158C273.925 238.805 273.914 239.458 273.88 240.105C273.481 247 274.032 253.656 278.69 259.296C279.578 259.486 280.14 260.116 280.573 260.819C282.557 264.021 285.13 266.833 286.783 270.247C287.041 272.177 288.542 273.31 289.66 274.688C290.317 274.866 290.851 275.246 291.194 275.815C292.256 277.572 293.891 278.498 295.796 279.067Z" fill="#1E344E"/>
<path d="M544.124 376.161C539.448 376.423 534.177 376.579 529.001 376.484C520.437 376.328 511.834 376.629 503.275 375.686C500.325 375.363 497.324 375.675 494.424 374.649C490.322 373.193 489.519 370.275 492.452 367.05C495.874 363.29 500.415 363.017 504.27 366.336C508.035 369.583 512.261 368.997 515.312 364.813C518.813 360.004 518.83 359.954 524.702 361.466C526.905 362.035 528.338 360.852 529.648 359.58C531.643 357.639 533.34 355.391 535.335 353.449C539.532 349.36 545.63 350.046 548.175 355.229C550.327 359.614 553.435 361.594 558.217 362.32C563.887 363.173 565.034 364.925 564.994 370.013C564.972 373.103 563.893 374.554 560.847 375.385C559.055 375.876 557.234 376.233 555.334 376.189C551.783 376.099 548.22 376.161 544.124 376.161Z" fill="#FDFDF5"/>
<path d="M424 490.447C419.179 497.248 411.542 498.693 404.186 500.221C387.232 503.747 370.542 502.581 354.369 496.177C351.722 495.128 348.923 494.012 348.075 490.788C347.816 489.789 346.906 490.068 346.249 489.845C347.429 489.432 348.283 488.902 348.103 487.362C347.918 485.806 348.412 484.272 348.907 482.793C349.463 481.119 350.677 480.288 352.481 480.366C358.027 483.027 363.826 484.863 369.98 485.499C372.115 484.467 374.194 485.488 376.257 485.761C387.788 487.273 399.1 485.744 410.373 483.53C413.93 482.832 417.426 481.806 421.084 481.672C423.107 482.67 423.444 484.489 423.562 486.486C423.641 487.803 423.006 489.226 424 490.447Z" fill="#081C30"/>
<path d="M252.593 269.526C249.66 273.789 245.805 276.801 240.731 278.151C237.477 278.19 234.324 278.821 231.245 279.814C230.936 280.115 230.554 280.249 230.143 280.327C228.57 280.589 227.002 280.879 225.429 281.125C224.912 281.259 224.389 281.337 223.866 281.158C219.736 281.928 217.089 284.639 214.869 287.92C213.88 291.942 210.458 293.705 207.424 295.83C206.474 295.775 206.013 296.611 205.299 296.985C202.546 299.752 198.888 300.121 195.308 300.701C189.958 301.978 184.614 303.312 179.247 304.511C176.932 305.03 174.577 305.153 172.639 303.312C171.296 302.04 171.178 301.002 172.768 299.658C176.19 296.762 180.439 297.097 184.417 296.45C186.721 296.076 189.059 295.892 191.307 295.211C192.425 294.107 193.97 293.984 195.353 293.549C199.084 292.372 202.484 290.62 205.502 288.143C206.272 288.623 206.676 288.054 207.159 287.613C208.879 286.023 210.436 284.249 211.588 282.252C215.235 275.953 220.871 273.515 227.901 273.415C232.172 273.353 236.46 273.443 240.669 272.511C243.22 270.821 246.479 270.134 248.182 267.256C249.182 266.023 250.441 265.002 251.172 263.552C252.318 261.493 253.374 259.289 256.437 260.293C258.573 262.335 258.73 263.351 256.443 264.885C254.611 266.118 254.577 268.578 252.593 269.526Z" fill="#F0AC1C"/>
<path d="M164.917 225.086C165.114 225.454 165.367 225.7 165.339 225.906C164.884 229.437 166.019 231.312 169.992 230.687C171.245 230.492 171.599 231.524 171.756 232.69C172.144 235.557 172.133 238.43 172.138 241.309C172.167 249.577 172.11 257.839 172.195 266.107C172.217 268.361 171.891 269.934 169.11 269.806C167.081 269.711 165.996 270.592 166.395 272.824C166.508 273.437 166.738 274.559 165.62 274.525C164.771 274.503 164.901 273.504 164.99 272.924C165.378 270.514 164.159 269.856 162.006 269.967C159.079 270.118 158.185 268.467 158.191 265.806C158.213 254.938 158.18 244.076 158.112 233.209C158.101 231.635 158.573 230.531 160.27 230.743C163.749 231.178 164.704 229.532 164.226 226.453C164.17 226.029 164.176 225.532 164.917 225.086Z" fill="#3DA181"/>
<path d="M207.418 295.831C208.969 293.912 210.503 291.875 212.818 290.882C214.291 290.246 213.324 288.288 214.869 287.92C214.729 289.99 215.347 291.178 217.797 290.988C220.371 290.787 221.574 291.992 221.602 294.765C221.714 305.722 221.916 316.673 221.697 327.63C221.663 329.259 221.298 330.503 219.449 330.291C216.353 329.928 215.538 331.373 215.988 334.09C216.027 334.341 215.926 334.637 215.819 334.882C215.763 335.011 215.549 335.066 215.409 335.156C214.341 332.779 212.543 331.25 209.441 330.269C208.115 329.85 208.199 328.835 208.081 327.831C207.272 320.891 207.637 313.923 207.513 306.966C207.435 303.262 207.446 299.546 207.418 295.831Z" fill="#CD2A31"/>
<path d="M421.09 481.666C419.156 483.234 416.701 482.983 414.481 483.496C404.119 485.884 393.649 487.48 382.961 487.178C378.578 487.056 374.262 486.403 369.985 485.499C367.046 483.993 363.838 483.044 361.129 481.025C360.073 480.233 359.522 479.401 359.303 478.213C359.713 477.527 360.37 477.136 361.107 476.997C366.041 476.093 370.946 474.76 376.032 475.959C387.091 477.817 398.24 477.878 409.407 477.65C413.509 478.392 417.617 479.123 421.09 481.666Z" fill="#177DE2"/>
<path d="M344.45 207.758C345.524 210.508 347.176 212.087 350.311 213.404C351.536 213.922 351.497 214.977 351.491 215.981C351.486 225.264 351.452 234.553 351.43 243.836C351.424 245.019 351.317 246.291 349.744 246.146C346.445 245.844 345.147 247.217 345.642 250.424C345.686 250.709 345.377 251.049 345.237 251.356C344.04 251.116 344.113 250.224 344.231 249.588C344.703 247.021 343.405 246.246 341.14 246.408C338.263 246.614 337.471 245.007 337.488 242.514C337.538 233.604 337.19 224.689 337.814 215.78C337.937 214.012 338.572 213.091 340.314 213.32C343.321 213.71 344.102 212.293 343.675 209.643C343.574 209.035 343.63 208.36 344.45 207.758Z" fill="#3DA181"/>
<path d="M394.132 320.913C389.114 317.393 384.31 313.56 379.005 310.447C376.004 307.775 374.183 304.188 371.879 301.002C367.974 295.613 363.691 290.531 359.623 285.281C355.835 279.786 351.334 274.843 347.277 269.554C346.771 268.896 346.187 268.294 345.709 267.607C344.636 266.068 344.596 264.824 346.732 264.327C347.968 264.043 348.749 262.586 350.244 263.055C354.571 268.193 358.898 273.331 363.225 278.464C368.389 285.013 373.599 291.529 378.707 298.123C383.36 304.126 387.957 310.168 392.441 316.294C393.379 317.582 394.166 319.156 394.132 320.913Z" fill="#1E344E"/>
<path d="M182.574 290.704C181.596 289.454 182.804 287.256 181.433 286.492C180.152 285.784 178.365 285.968 176.791 285.784C175.87 285.678 175.544 285.103 175.46 284.277C174.723 277.042 175.196 269.812 175.516 262.576C175.572 261.259 176.466 261.064 177.432 261.097C180.624 261.22 182.422 260.205 181.422 256.64C181.304 256.222 181.411 255.708 182.175 255.346C183.186 256.205 182.827 257.482 182.782 258.514C182.709 260.21 183.288 260.902 185.018 260.724C187.997 260.417 189.34 261.622 189.402 264.768C189.531 271.178 189.464 277.572 189.104 283.971C189.031 285.248 188.508 285.918 187.238 285.817C184.181 285.577 182.709 286.743 183.327 289.934C183.4 290.325 183.164 290.654 182.574 290.704Z" fill="#CD2A31"/>
<path d="M429.682 359.601C430.418 358.831 431.087 358.96 431.817 359.668C433.256 361.057 434.824 360.778 436.47 360.009C440.679 358.039 444.101 355.004 447.49 351.958C449.092 350.519 450.536 349.811 452.25 351.635C453.93 353.42 453.565 355.177 452.031 356.812C449.8 359.183 447.518 361.509 445.259 363.852C441.91 368.46 437.605 372.176 433.582 376.148C431.98 377.727 430.081 377.766 428.198 376.628C425.939 375.267 424.135 373.381 422.539 371.328C421.685 370.229 421.449 368.985 422.247 367.707C424.512 364.812 426.855 361.989 429.682 359.601Z" fill="#1E344E"/>
<path d="M147.834 251.947C149.228 253.387 147.694 255.679 148.862 256.818C150.121 258.039 152.302 256.979 153.965 257.649C154.819 257.995 154.729 258.809 154.83 259.546C155.516 264.823 155.179 270.101 154.87 275.384C154.785 276.851 153.987 277.42 152.717 277.32C149.919 277.096 148.497 278.045 149.087 281.041C149.166 281.437 149.16 281.978 148.581 282.162C148.418 282.078 148.138 281.995 148.143 281.933C148.43 278.491 147.036 276.896 143.395 277.325C142.029 277.487 141.287 276.572 141.141 275.077C140.619 269.788 140.826 264.516 141.209 259.239C141.321 257.677 142.434 257.331 143.541 257.47C146.665 257.855 147.441 256.36 147.064 253.649C146.963 253.024 146.946 252.31 147.834 251.947Z" fill="#3EA181"/>
<path d="M256.403 260.678C253.436 259.863 252.784 262.357 251.559 264.019C249.233 263.629 246.895 263.121 244.754 264.683C243.776 264.745 243.58 264.114 243.535 263.339C242.675 260.198 241.141 257.252 240.736 253.972C241.427 252.951 241.315 251.997 240.826 250.859C239.601 248.014 240.298 247.127 243.372 247.344C243.996 247.389 244.653 247.729 245.221 247.177C243.523 244.203 243.507 244.181 246.603 241.771C247.367 241.174 247.508 240.46 247.558 239.601C247.654 237.983 248.424 237.007 250.205 237.13C252.385 239.478 254.195 242.189 256.982 243.936C257.241 246.251 256.218 248.7 257.921 250.881C258.483 251.595 258.078 252.555 257.185 252.951C255.184 253.844 255.01 255.467 255.257 257.302C255.69 258.418 256.651 259.344 256.403 260.678Z" fill="#EBAFA5"/>
<path d="M334.633 260.047C333.301 259.222 332.408 260.259 331.508 260.879C330.519 261.559 329.412 261.888 328.322 262.29C328.85 260.12 327.839 259.596 325.799 259.59C321.882 259.584 321.686 259.356 321.618 255.478C321.545 251.305 321.657 247.133 321.618 242.96C321.601 241.052 322.045 239.534 324.321 239.713C327.299 239.947 328.3 238.642 327.822 235.863C327.732 235.333 327.698 234.742 328.249 234.156C329.463 234.993 329.053 236.293 329.008 237.325C328.929 239.015 329.519 239.54 331.239 239.573C335.611 239.668 335.661 239.763 335.695 243.969C335.734 248.789 335.678 253.615 335.667 258.435C335.611 259.166 335.234 259.674 334.633 260.047Z" fill="#3DA182"/>
<path d="M223.861 281.165C224.271 281.048 224.676 280.93 225.086 280.819C226.614 280.116 228.401 280.791 229.902 279.943C230.346 279.904 230.795 279.859 231.239 279.82C232.166 281.204 233.639 280.612 234.836 280.652C236.673 280.707 237.561 281.399 237.69 283.229C238.05 288.317 237.955 293.41 237.758 298.498C237.696 300.166 236.578 300.852 235.139 300.718C232.234 300.445 231.301 301.717 231.756 304.401C231.824 304.813 231.807 305.332 231.256 305.539C231.093 305.466 230.806 305.388 230.812 305.327C231.059 301.901 229.643 300.361 226.035 300.707C224.198 300.88 223.984 299.307 223.838 297.812C223.299 292.25 223.951 286.71 223.861 281.165Z" fill="#3DA181"/>
<path d="M250.211 237.135C249.036 237.922 247.48 238.296 248.502 240.466C249.239 242.028 247.463 242.318 246.384 242.742C243.608 243.835 243.529 244.22 245.822 246.073C246.384 246.53 247.266 246.859 246.794 247.78C246.401 248.55 245.535 248.466 244.788 248.427C244.423 248.41 244.057 248.299 243.703 248.187C242.748 247.88 241.652 247.166 240.922 248.293C240.27 249.303 241.146 250.201 241.692 251.06C242.529 252.393 243.529 253.805 240.742 253.983C238.505 253.649 236.6 252.55 234.78 251.322C233.841 250.686 232.818 249.682 233.077 248.616C233.734 245.872 232.565 243.601 231.807 241.135C230.908 238.201 232.065 236.611 235.15 236.008C236.69 235.707 237.848 235.199 238.646 233.66C239.556 231.902 241.219 231.384 243.186 232.109C244.136 232.455 245.052 232.795 246.064 232.008C247.693 230.742 249.57 229.252 251.368 231.551C253.004 233.649 251.947 235.545 250.211 237.135Z" fill="#1D2137"/>
<path d="M205.496 288.148C205.446 289.476 204.389 290.011 203.467 290.603C199.736 292.968 195.69 294.547 191.301 295.222C191.357 289.56 191.391 283.897 191.47 278.24C191.487 276.879 191.7 275.462 193.571 275.68C196.988 276.081 198.056 274.491 197.567 271.373C197.505 270.971 197.499 270.419 198.59 270.201C197.606 274.982 200.422 275.847 204.282 275.841C205.417 275.841 205.294 277.247 205.316 278.14C205.412 281.465 205.44 284.806 205.496 288.148Z" fill="#CC2B31"/>
<path d="M345.754 265.527C346.001 265.193 346.586 264.908 347.698 264.696C348.62 264.518 349.395 263.625 350.238 263.056C351.795 260.021 350.221 257.823 348.35 255.603C346.479 253.388 344.343 253.912 342.006 254.543C339.46 255.223 338.027 257.555 335.661 258.448C335.066 258.822 334.594 259.279 334.633 260.055C336.735 261.912 337.409 264.696 339.078 266.833C339.859 267.474 340.685 267.05 341.5 266.911C341.899 266.799 342.231 266.783 342.511 266.827C342.781 265.935 343.59 265.109 345.754 265.527Z" fill="#E5BAAC"/>
<path d="M320.449 266.487C315.571 268.958 310.699 271.435 305.822 273.906C305.541 268.534 305.35 263.167 305.749 257.784C305.9 255.708 306.642 254.855 308.598 255.056C311.267 255.329 312.47 254.364 311.902 251.608C311.761 250.916 311.441 249.789 312.363 249.728C313.638 249.65 313.217 250.994 313.127 251.625C312.734 254.353 313.902 255.307 316.527 255C318.769 254.738 319.426 255.803 319.702 258.012C320.05 260.846 319.14 263.775 320.449 266.487Z" fill="#3EA182"/>
<path d="M267.019 180.126C264.451 180.042 261.877 179.959 259.309 179.875C258.612 177.125 255.853 177.075 253.959 175.914C253.296 175.507 252.52 175.284 252.683 174.38C252.835 173.526 253.656 173.632 254.285 173.655C255.999 173.716 256.01 172.584 255.881 171.418C255.808 170.787 255.561 170.174 255.369 169.554C254.262 166.006 254.678 164.176 256.729 163.652C260.601 162.659 264.057 164.5 264.895 167.763C265.732 171.016 265.119 174.386 265.951 177.638C266.181 178.575 266.491 179.373 267.019 180.126Z" fill="#ECAFA6"/>
<path d="M295.796 279.066C293.717 280.054 292.655 278.586 291.565 277.292C290.874 276.472 290.295 275.557 289.66 274.687C290.317 274.235 290.182 273.526 290.132 272.918C290.008 271.323 290.862 270.614 292.284 270.81C295.875 271.295 296.853 269.61 296.285 266.419C296.212 266.017 296.223 265.499 296.993 265.236C297.729 266.006 297.555 267.055 297.482 267.959C297.33 269.889 297.836 270.971 300.05 270.664C302.995 270.252 304.428 271.518 304.147 274.525C301.371 276.037 298.584 277.554 295.796 279.066Z" fill="#C92C33"/>
<path d="M286.788 270.246C283.462 267.049 281.433 262.91 278.691 259.295C279.505 257.649 278.528 255.791 279.348 253.973C280.674 254.676 280.202 255.914 280.253 256.857C280.348 258.586 280.803 259.479 282.86 259.49C286.844 259.507 286.873 259.646 286.906 263.574C286.923 265.8 286.828 268.02 286.788 270.246Z" fill="#C23136"/>
<path d="M243.535 263.345C243.861 263.697 244.192 264.043 244.518 264.394C246.446 264.701 247.991 265.532 248.772 267.423C246.89 270.414 244.237 272.188 240.663 272.511C240.686 270.469 240.815 268.416 240.697 266.386C240.584 264.282 241.343 263.211 243.535 263.345Z" fill="#338887"/>
<path d="M429.322 277.02C424.456 275.341 419.494 274.264 414.29 274.587C413.559 274.632 412.284 274.978 412.334 273.745C412.379 272.607 413.615 273.009 414.391 272.936C419.78 272.44 424.922 273.634 430.002 275.218C431.772 277.042 434.307 277.706 436.234 279.285C436.695 279.664 437.628 280.049 437.195 280.741C436.571 281.74 435.891 280.758 435.38 280.412C433.447 279.112 431.474 277.912 429.322 277.02Z" fill="#EAF4FF"/>
<path d="M425.754 283.568C424.641 281.481 422.337 282.111 420.634 281.364C420.106 281.13 419.038 281.537 419.173 280.583C419.319 279.556 420.224 279.891 420.983 280.053C423.068 280.505 425.169 280.89 427.265 281.297C432.081 283.25 436.476 285.838 439.949 289.766C440.505 290.39 441.016 291.054 441.528 291.713C441.809 292.075 442.174 292.499 441.68 292.906C441.207 293.291 440.814 292.918 440.483 292.588C439.168 291.272 437.903 289.899 436.543 288.622C434.076 286.29 431.165 284.639 428.041 283.322C427.181 282.959 426.451 282.842 425.754 283.568Z" fill="#EAF4FF"/>
<path d="M182.844 375.105C182.962 378.335 184.681 381.002 185.946 383.824C186.204 384.41 186.637 384.912 186.946 385.481C187.205 385.961 187.581 386.603 187.008 386.971C186.26 387.451 185.766 386.703 185.496 386.195C184.322 384.009 182.911 381.922 182.287 379.479C182.057 378.564 181.815 377.699 180.95 377.163C181.31 373.66 180.113 370.207 180.618 366.692C180.826 365.253 180.63 363.741 181.978 361.811C182.715 366.619 180.961 371.043 182.844 375.105Z" fill="#EAF4FF"/>
<path d="M188.424 369.989C188.486 372.232 188.958 374.369 189.947 376.405C190.222 376.968 190.453 377.805 189.688 378.095C188.868 378.402 188.637 377.582 188.441 376.963C187.879 375.211 187.323 373.454 186.766 371.696C186.451 366.04 186.395 360.416 188.845 355.094C189.317 354.067 189.267 354.045 190.986 352.729C189.329 358.698 186.8 364.098 188.424 369.989Z" fill="#EAF4FF"/>
<path d="M422.815 367.803C421.708 367.697 421.028 367.027 420.539 366.107C422.865 363.713 424.871 361.069 426.698 358.285C428.316 357.342 429.007 358.458 429.687 359.607C427.917 362.771 425.141 365.102 422.815 367.803Z" fill="#EFF2F0"/>
<path d="M195.302 300.706C198.635 299.467 201.961 298.229 205.294 296.99C205.535 299.093 205.086 300.895 202.523 300.706C199.685 300.494 198.893 301.693 199.298 304.232C199.365 304.644 199.168 305.102 199.095 305.559C197.668 305.342 197.96 304.276 198.067 303.601C198.427 301.347 197.308 300.644 195.302 300.706Z" fill="#BC3E31"/>
<path d="M359.769 285.113C361.697 286.039 362.601 287.903 363.86 289.459C368.378 295.038 372.728 300.745 376.746 306.692C377.561 307.903 378.252 309.191 378.999 310.447C371.638 308.02 364.175 309.615 356.768 310.023C349.705 310.413 342.669 311.295 335.622 311.958C332.424 312.26 329.221 312.561 325.366 312.924C333.666 307.367 341.449 302.162 349.227 296.957C350.474 295.696 352.132 294.954 353.385 293.705C356.431 291.518 357.516 287.875 359.853 285.163L359.769 285.113Z" fill="#298DFE"/>
<path d="M293.06 323.73C287.951 317.477 285.355 310.04 282.911 302.531C282.085 299.993 281.152 297.482 280.264 294.955C282.866 294.955 285.355 294.977 287.845 294.949C289.238 294.933 289.693 296.009 290.323 296.908C293.509 301.449 296.105 306.464 300.848 309.75C298.617 314.604 296.358 319.452 293.06 323.73Z" fill="#FCFDFC"/>
<path d="M345.158 286.246C345.951 285.17 345.31 284.076 345.091 283.05C343.871 277.443 342.562 271.853 341.281 266.257C343.124 265.225 343.989 265.772 344.613 267.803C346.361 273.538 348.232 279.239 350.868 284.656C352.739 287.535 354.47 290.458 353.723 294.118C352.419 295.368 351.261 296.835 349.233 296.952C347.642 295.105 347.693 292.679 346.912 290.542C346.378 289.097 346.288 287.462 345.158 286.246Z" fill="#1E344E"/>
<path d="M256.403 260.678C255.42 259.758 254.948 258.664 255.263 257.309C263.484 261.052 270.345 266.369 275.021 274.201C275.347 274.748 275.802 275.222 276.195 275.735C275.864 277.247 274.802 276.321 274.229 276.165C268.575 274.642 262.911 273.186 257.151 272.109C255.33 271.769 254.049 270.502 252.593 269.526C253.678 267.468 254.139 265.119 256.701 263.925C258.353 263.155 257.213 261.721 256.403 260.678Z" fill="#F9FCF9"/>
<path d="M417.746 468.963C416.897 467.68 415.638 466.882 414.228 466.296C409.401 464.282 404.287 463.73 399.145 463.462C387.766 462.86 376.465 463.345 365.664 467.334C362.775 468.4 361.444 467.016 359.988 465.359C358.387 463.54 358.645 461.538 360.174 459.814C361.067 458.804 361.697 457.421 363.793 458.135C377.229 462.72 391.07 463.462 405.085 461.923C408.895 461.504 412.705 460.757 415.942 458.497C419.555 455.981 419.201 451.747 415.245 449.828C413.481 448.969 411.626 448.388 409.665 448.031C401.842 446.609 394.003 446.86 386.17 447.713C378.712 448.528 371.373 449.956 364.484 453.064C361.826 454.263 359.117 453.337 357.937 450.715C357.302 449.292 357.701 447.987 358.516 446.771C359.061 445.956 359.645 445.482 360.826 445.761C371.031 448.188 381.275 447.423 391.486 445.856C398.336 444.801 405.107 443.301 411.216 439.831C413.672 438.43 416.11 436.785 415.65 433.404C415.307 430.877 412.733 429.181 408.777 428.628C408.221 428.55 407.659 428.528 407.097 428.489C402.685 428.16 398.308 428.45 393.958 429.186C382.18 431.189 370.733 434.157 360.584 440.773C359.572 441.432 358.746 442.38 357.403 441.326C356.015 440.232 354.301 439.39 354.324 437.309C354.352 434.341 358.853 430.202 361.826 430.347C372.778 430.871 383.495 429.437 393.981 426.375C398.825 424.957 403.691 423.39 407.299 419.574C410.851 415.819 409.474 411.105 404.501 409.599C402.202 408.902 399.87 408.924 397.549 409.315C383.888 411.63 371.8 417.566 360.696 425.543C358.241 427.306 356.274 426.893 353.992 425.889C351.565 424.829 351.418 422.693 352.059 420.695C352.677 418.748 352.913 416.45 356.083 416.182C369.266 415.061 381.82 411.596 393.481 405.287C396.684 403.552 399.774 401.554 401.455 398.096C402.966 394.971 401.708 391.853 398.443 390.62C396.161 389.761 393.818 389.889 391.531 390.458C376.92 394.079 364.422 401.381 353.852 411.976C351.638 414.196 344.091 413.493 342.534 410.849C342.348 410.536 342.225 410.163 342.163 409.8C341.68 406.971 345.608 401.309 348.44 400.818C358.46 399.072 367.985 395.814 377.133 391.474C382.022 389.153 386.895 386.715 390.525 382.508C391.93 380.879 392.795 379.033 391.84 376.891C390.823 374.614 388.704 374.068 386.473 374.062C384.023 374.057 381.651 374.648 379.364 375.513C367.738 379.892 357.437 386.481 348.62 395.066C345.035 398.559 341.41 399.256 337.032 398.469C335.172 398.135 332.981 397.828 332.953 395.122C332.93 392.751 335.403 388.684 337.122 388.45C345.743 387.273 353.812 384.372 361.59 380.64C368.086 377.527 374.498 374.241 379.494 368.863C380.972 367.273 382 365.448 380.96 363.312C379.977 361.281 378.038 360.567 375.835 360.483C373.374 360.388 370.991 360.757 368.682 361.61C356.234 366.207 345.737 373.722 336.768 383.278C334.273 385.934 331.913 385.951 329.047 385.091C325.445 384.015 324.754 382.012 326.732 378.838C325.04 378.302 323.928 379.468 322.669 380.204C321.983 381.259 322.186 382.252 322.697 383.345C324.046 386.235 326.479 387.825 329.44 388.216C331.941 388.545 332.02 389.164 330.991 391.228C328.406 396.405 330.424 400.149 336.088 401.309C337.96 401.694 339.87 401.705 341.893 401.833C336.347 411.713 339.69 415.591 350.115 416.545C347.356 424.918 348.906 426.832 355.217 429.867C354.268 431.228 353.217 432.528 352.396 433.962C351.048 436.31 350.575 439.038 352.655 440.935C355.206 443.256 356.307 445.114 354.919 448.779C353.683 452.031 356.735 454.285 359.246 456.143C354.818 461.75 354.801 463.077 359.409 468.93C360.28 470.034 359.561 470.38 358.937 470.888C357.443 472.104 355.948 473.588 356.088 475.479C356.296 478.352 354.863 479.58 352.509 480.366C352.475 481.884 353.807 482.006 354.74 482.358C358.628 483.825 362.646 484.913 366.659 485.99C367.653 486.257 368.665 486.33 369.654 485.895C370.351 485.443 370.137 484.98 369.626 484.6C368.873 484.043 367.895 483.925 367.108 483.468C364.461 481.928 361.062 481.331 359.87 477.911C359.578 473.856 362.214 471.747 365.883 473.315C369.485 474.854 373.385 475.384 376.993 476.829C387.052 478.81 397.234 478.732 407.423 478.497C408.17 478.481 408.912 478.296 409.423 477.655C411.559 476.796 413.773 476.087 415.807 475.033C418.443 473.649 419.167 471.117 417.746 468.963ZM382.225 451.234C391.126 449.951 400.05 449.298 408.996 450.944C410.749 451.267 412.469 451.641 414.042 452.517C415.874 453.532 415.919 454.676 414.323 455.931C412.357 457.488 409.963 458.084 407.586 458.486C394.307 460.74 381.174 459.831 368.176 456.494C367.569 456.338 366.996 456.031 366.08 455.669C371.43 453.209 376.779 452.015 382.225 451.234ZM382.388 434.665C390.154 432.545 398.021 431.01 406.153 431.362C407.945 431.44 409.687 431.686 411.317 432.461C413.037 433.275 413.211 434.391 411.845 435.702C410.553 436.946 409.024 437.884 407.366 438.514C393.391 443.808 378.971 445.437 364.135 443.546C363.86 443.513 363.585 443.423 363.337 443.312C363.191 443.245 363.096 443.066 362.877 442.838C368.89 438.877 375.549 436.528 382.388 434.665ZM388.125 414.62C391.666 413.387 395.29 412.589 398.993 412.076C402.483 411.591 405.748 412.595 406.074 414.542C406.602 417.694 403.955 418.91 401.831 420.026C393.874 424.204 385.164 425.805 376.341 426.904C372.171 427.423 367.985 427.697 362.983 427.474C371.177 421.716 379.381 417.666 388.125 414.62ZM392.581 393.309C394.807 392.824 397.639 392.16 398.797 394.821C399.971 397.521 397.347 399.022 395.588 400.338C389.3 405.041 381.961 407.54 374.503 409.711C368.974 411.317 363.399 412.69 357.538 412.718C367.664 403.328 379.005 396.282 392.581 393.309ZM352.587 395.323C360.696 388.344 369.581 382.575 379.55 378.559C381.725 377.683 384 377.114 386.372 377.125C387.378 377.13 388.586 377.008 389.024 378.19C389.423 379.273 388.743 380.165 387.99 380.902C387.125 381.75 386.288 382.659 385.299 383.334C374.902 390.419 363.219 394.391 351.019 397.409C351.137 396.216 351.986 395.836 352.587 395.323ZM372.537 363.674C374.464 363.156 376.999 362.704 377.976 364.506C378.993 366.375 376.644 367.691 375.301 368.801C367.794 374.999 359.039 378.932 349.974 382.257C346.647 383.479 343.22 384.327 339.556 384.762C349.081 375.501 359.286 367.234 372.537 363.674ZM413.908 472.701C411.463 474.029 408.749 474.319 406.052 474.547C393.059 475.646 380.342 474.308 367.929 469.962C372.323 467.898 377.027 467.195 381.696 466.782C390.828 465.978 399.988 465.705 409.041 467.747C410.778 468.137 412.491 468.617 414.02 469.549C415.919 470.698 415.874 471.63 413.908 472.701Z" fill="#298DFE"/>
<path d="M248.778 267.424C247.362 266.414 245.94 265.405 244.524 264.395C246.159 262.414 249.666 262.236 251.559 264.027C250.913 265.388 250.025 266.554 248.778 267.424Z" fill="#F1F4E9"/>
<path d="M229.902 279.938C228.514 281.405 226.676 280.434 225.086 280.813C226.597 280.021 228.25 279.982 229.902 279.938Z" fill="#EBD9C2"/>
<path d="M353.717 294.124C353.408 290.776 351.486 287.914 350.862 284.662C351.216 284.634 351.57 284.601 351.924 284.573C353.829 284.294 355.734 284.255 357.639 284.595C358.375 284.785 359.112 284.98 359.848 285.17C358.623 288.707 356.943 291.937 353.717 294.124Z" fill="#FFA048"/>
</g>
<defs>
<filter id="filter0_f_5431_16933" x="0" y="0" width="665" height="665" filterUnits="userSpaceOnUse" color-interpolation-filters="sRGB">
<feFlood flood-opacity="0" result="BackgroundImageFix"/>
<feBlend mode="normal" in="SourceGraphic" in2="BackgroundImageFix" result="shape"/>
<feGaussianBlur stdDeviation="50" result="effect1_foregroundBlur_5431_16933"/>
</filter>
<clipPath id="clip0_5431_16933">
<rect width="467" height="364" fill="white" transform="translate(98 151)"/>
</clipPath>
</defs>
</svg>
