<svg width="532" height="684" viewBox="0 0 532 684" fill="none" xmlns="http://www.w3.org/2000/svg">
<g clip-path="url(#clip0_5440_20795)">
<path d="M471.52 418.299C476.71 422.459 483.4 422.889 489.27 425.389C503.5 431.439 516.37 439.159 525.12 452.429C528.58 457.679 529.86 463.429 530.7 469.669C531.83 478.019 529.89 486.179 530.53 494.409C531.84 511.329 523.67 523.399 510.33 532.249C505.61 535.379 504.82 537.929 507.07 542.839C511.08 551.579 510.78 561.039 510.54 570.409C505.97 595.499 488.41 610.059 468.02 621.949C444.78 635.489 419.25 641.959 392.67 644.659C388.59 645.079 384.5 646.579 380.34 645.009C378.2 643.229 375.75 642.579 372.95 642.679C369.29 642.819 365.62 642.649 361.96 642.729C356.6 642.849 351.4 642.679 346.48 639.889C343.59 638.249 340 637.839 336.76 637.959C330.01 638.219 323.36 635.729 316.56 637.569C314.37 638.159 311.91 637.739 309.68 636.879C308.25 636.329 306.83 635.689 306.88 633.819C306.94 631.969 308.39 631.389 309.81 630.829C311.39 630.219 313.06 630.199 314.72 629.999C315.99 629.849 317.67 629.989 317.8 628.169C317.93 626.369 316.51 625.529 315.01 625.139C312.36 624.439 309.64 624.439 307.21 625.759C301.88 628.649 296.25 629.979 290.29 631.159C285.22 632.169 279.22 633.829 276.45 639.649C274.4 643.959 270.44 645.209 266.14 645.529C263.1 645.759 260.23 646.129 257.66 647.989C255.63 649.469 253.29 649.609 251.02 648.489C248.31 647.149 246.22 647.369 243.9 649.669C240.32 653.219 238.31 653.099 234.55 649.509C232.37 647.419 228.46 646.589 229.4 641.939C229.8 639.969 227.26 640.329 225.9 640.669C222.14 641.609 218.63 640.619 215.13 639.529C213.84 639.119 212.51 638.509 212.41 636.969C212.31 635.439 213.48 634.449 214.75 634.059C219.84 632.489 224.72 630.449 229.56 628.229C232.44 626.909 233.33 629.069 233.8 631.439C234.13 633.129 234.62 634.999 236.89 634.419C239.1 633.849 238.8 631.919 238.3 630.299C237.48 627.669 237.13 625.119 238.51 622.559C239.52 620.679 240.81 619.279 243.14 619.379C245.5 619.479 246.54 621.029 247.39 623.009C248.02 624.469 247.43 627.679 250.02 626.799C252.68 625.899 251.34 623.169 250.67 621.149C250.35 620.199 249.76 619.369 249.38 618.449C247.8 614.549 248.46 613.539 252.61 613.149C255.75 612.859 258.81 612.759 260.12 608.769C260.96 606.219 262.82 607.209 264.36 608.739C268.6 612.939 272.79 612.249 275.48 606.989C277.34 603.349 284.87 601.779 288.13 605.019C292.21 609.079 296.8 609.449 301.91 608.779C304.23 608.439 306.39 610.699 308.77 609.169C311.97 607.779 312.17 604.999 312.17 602.059C312.15 592.089 312.3 582.109 312.1 572.139C312.01 567.589 313.79 564.939 317.74 562.639C350.48 543.569 383.47 524.939 416.13 505.739C417.71 504.809 419.28 503.879 421.12 503.549C423.46 503.269 425.2 504.669 427.02 505.749C435.52 510.809 444.19 515.569 452.74 520.559C454.56 521.619 456.33 523.009 458.7 522.379C460.73 521.389 461.49 519.619 461.75 517.529C461.96 515.869 461.97 514.199 461.92 512.539C461.26 486.729 463.54 460.969 462.95 435.159C462.92 433.999 462.98 432.829 463.19 431.679C463.44 430.179 464.12 428.799 465.38 428.029C468.87 425.899 470.24 422.589 470.93 418.819C471.14 418.659 471.33 418.479 471.52 418.299Z" fill="#E0E3EC"/>
<path d="M404.34 379.439C413.38 383.519 421.67 388.929 430.26 393.809C443.03 401.049 455.68 408.519 468.36 415.929C469.49 416.589 470.47 417.509 471.52 418.309L471.36 418.569C468.25 422.489 463.63 424.269 459.5 426.639C437.99 438.979 416.68 451.649 395.21 464.059C369.14 479.139 343.18 494.409 317.13 509.519C315.7 510.349 314.32 511.349 312.51 511.159C302.42 505.729 292.67 499.719 282.72 494.039C266.85 484.969 251.06 475.749 235.28 466.519C229.9 463.369 224.11 460.759 219.49 456.379C224.05 452.649 229.14 449.719 234.33 447.029C239.19 444.499 244.94 442.809 241.52 435.319C242.36 434.949 243.19 435.169 243.82 435.669C246.73 438.009 249.46 437.609 252.12 435.289C258.16 431.659 264.28 428.159 270.35 424.579C280.12 419.369 289.24 413.029 299.22 408.179C304.35 407.139 308.06 408.719 310.86 413.109C310.32 415.309 308.42 416.169 306.72 417.169C299.41 421.489 292.01 425.679 284.72 430.039C281.09 432.209 281.05 432.949 284.61 435.049C295.65 441.569 306.84 447.849 317.92 454.319C320.57 455.869 322.82 455.629 325.37 454.129C344.92 442.689 364.53 431.339 384.18 420.069C386.45 418.769 387.84 416.959 388.77 414.439C392.69 403.809 397.58 393.579 401.82 383.079C402.36 381.699 402.98 380.289 404.34 379.439Z" fill="#E6E7EB"/>
<path d="M302.48 609.54C297.19 610.95 292.02 611.74 288.13 606.52C286.12 603.81 283.65 604.91 280.96 605.14C277.64 605.42 276.05 606.34 276.35 609.8C276.44 610.85 275.72 611.73 274.69 612.07C272.48 612.79 270.11 612.18 267.83 613.06C264.28 614.42 264.53 610.86 263.36 609.17C262.59 608.05 261.7 607.16 260.86 608.95C258.43 614.18 255.43 615.66 249.98 614.11C248.66 616.17 250.5 617.39 251.18 618.97C252.32 621.62 254.37 624.17 252.48 627.36C251.61 628.83 250.49 629.56 248.8 629.24C247.25 628.95 246.61 627.89 246.5 626.4C246.29 623.43 246.66 619.8 241.96 620.56C239.3 620.99 238 625.89 239.58 629.49C240.55 631.69 240.82 633.69 239.17 635.52C237.88 636.95 236.02 636.55 234.47 636.12C232.15 635.47 232.43 633.34 232.49 631.54C232.57 628.98 231.66 627.92 229.32 629.5C225.28 632.21 220.78 633.59 216.12 634.7C214.92 634.99 213.14 635.39 213.18 636.95C213.21 638.34 214.87 638.13 215.96 638.48C219.63 639.64 223.21 640.27 227.09 639.11C230.71 638.02 232.43 639.94 231.06 643.6C230.5 645.09 229.33 645.85 231.92 645.9C233.64 645.94 234.3 647.46 235.28 648.57C238.4 652.14 240.75 652.34 243.24 648.56C245.45 645.21 247.57 645.02 250.66 646.93C252.18 647.87 254.07 649.21 255.71 647.66C259.18 644.37 263.4 644.33 267.7 644.12C272 643.92 274.79 641.33 276.21 637.54C277.22 634.85 278.58 633.32 281.55 633.31C283.27 633.3 284.95 632.57 285.9 631.18C287.17 629.31 288.89 629.24 290.73 629.39C296.32 629.86 301.1 627.83 305.66 624.88C309.15 622.63 312.94 622.99 316.71 624.04C319.23 624.75 320.01 626.9 319.82 629.12C319.6 631.63 317.39 631.39 315.55 631.37C315.22 631.37 314.88 631.36 314.55 631.37C311.95 631.42 308.14 631.19 308.07 634.03C308.02 636.39 311.91 636.38 314.36 636.34C316.61 636.3 319.05 637.04 320.97 635.02C321.35 634.62 322.38 634.33 322.79 634.56C329.38 638.28 337.25 634.36 343.56 637.57C353.98 642.86 364.91 641.02 375.71 641.35C378.01 641.42 379.45 642.46 380.48 644.35C374.7 646.81 368.51 647.1 362.49 646.68C347.93 645.65 333.31 645.14 318.94 642.14C312.92 640.88 306.95 639.46 301.06 637.68C297.74 636.68 294.42 635.49 290.87 635.59C288.81 635.88 287.19 637.08 285.53 638.18C269.2 649.02 250.93 654.31 231.72 656.6C206.59 659.6 181.91 657.52 158.04 648.65C146.4 644.32 135.78 638.15 126.55 629.78C120.46 624.26 117.29 616.91 114.5 609.38C113.17 596.19 116.12 584.4 125.39 574.43C132.18 567.13 140.62 562.29 149.18 557.6C151.28 556.45 153.05 554.31 155.83 554.55C156.68 556.73 155.34 558.43 154.48 560.17C151.57 566.1 150.56 572.45 149.83 579.7C154.17 577.92 157.42 575.49 160.71 573.1C166.61 568.81 171.97 563.59 179.43 561.9C185.75 560.47 191.58 561.38 196.7 565.61C196.48 568.54 193.85 569.3 191.91 569.93C189.48 570.72 191 572.03 190.84 573.12C182.71 583.01 184.06 593.66 188.05 604.68C190.08 610.29 192.23 615.89 193.68 621.71C193.7 621.79 193.83 621.84 193.92 621.9C194.04 621.59 194.23 621.32 194.49 621.07C199 620.71 202.28 623.52 205.75 625.61C209.31 627.75 212.75 630.06 216.79 631.22C224.65 627.19 232.16 622.56 239.75 618.06C241.91 616.78 243.08 615 243.33 612.44C244.28 602.85 246.85 593.51 247.72 583.89C247.88 582.1 247.8 579.7 250.48 579.17C253.78 582.64 253.24 587.19 253.67 591.37C254.01 594.67 254.21 597.99 254.82 601.25C255.18 603.17 255.12 605.66 257.45 606.17C259.66 606.66 260.93 604.55 262.21 603.07C264.4 600.54 265.93 597.58 267.4 594.59C268.18 593.01 268.57 591 270.87 590.76C274.52 591.66 277.72 593.42 280.49 595.95C280.1 599.89 283.51 597.41 284.81 598.48C290.95 601.77 297.72 604.05 302.48 609.54Z" fill="#E0E3EC"/>
<path d="M290.49 634.378C293.87 632.898 296.94 634.858 299.84 635.768C317.77 641.418 336.18 643.318 354.83 644.678C363.5 645.308 371.95 644.058 380.49 644.348C397.06 643.568 413.37 640.988 429.32 636.498C447.28 631.438 464.27 624.208 479.42 613.068C494.24 602.168 505.77 588.978 509.69 570.378C509.71 570.288 509.96 570.178 510.1 570.188C510.25 570.198 510.39 570.338 510.54 570.418C510.25 580.028 511.32 589.708 509.07 599.218C505.37 614.898 495.64 626.598 483.49 636.258C459.84 655.058 432.12 663.998 402.64 668.508C393.45 669.918 384.22 670.848 374.97 671.258C347.55 672.478 320.74 668.528 294.44 660.828C293.5 660.548 292.49 660.508 291.51 660.348C288.74 657.188 289 653.288 289.06 649.518C289.13 644.438 289.3 639.358 290.49 634.378Z" fill="#C2C6E3"/>
<path d="M290.49 634.378C291.41 637.428 291.37 640.358 290.78 643.598C289.77 649.128 290.56 654.788 291.51 660.348C287.54 660.488 285.08 663.578 282.09 665.458C267.92 674.368 252.37 678.898 236 681.508C224.6 683.318 213.14 684.118 201.74 683.238C177.87 681.398 154.96 676.188 135 661.758C121.14 651.738 112.93 639.158 114.43 621.398C114.77 617.428 114.5 613.408 114.51 609.408C117.66 611.328 117.97 614.948 119.39 617.858C124.39 628.088 133.18 634.388 142.53 639.808C158.7 649.178 176.36 653.698 194.97 655.528C221.43 658.138 246.94 655.188 271.35 644.478C276.48 642.228 281.26 639.138 286.06 636.198C287.48 635.288 288.66 634.158 290.49 634.378Z" fill="#DADBEC"/>
<path d="M404.34 379.439C399.83 390.319 394.86 401.039 390.99 412.139C389.06 417.659 385.76 420.669 380.98 423.369C362.34 433.919 343.82 444.699 325.41 455.649C322.35 457.469 320.26 457.279 317.37 455.559C305.81 448.679 294.09 442.079 282.46 435.309C278.38 432.929 278.41 432.249 282.51 429.809C291.79 424.309 301.08 418.839 310.37 413.349C313.63 413.979 317.37 411.079 320.23 414.819C321.41 416.369 322.18 414.559 323.08 414.169C324.39 413.609 323.48 412.899 323.09 412.269C322.16 410.799 319.96 409.389 321.56 407.559C323.22 405.659 325.23 407.859 327.16 408.029C326.74 406.689 324.79 406.089 325.33 404.299C325.68 403.969 326.09 403.759 326.55 403.639C327.68 403.319 328.83 404.129 329.96 402.549C332.42 399.099 334.37 399.419 336.37 403.069C336.99 404.209 336.94 405.679 338.34 406.759C340.84 404.609 342.3 402.179 341.18 398.709C340.82 397.599 340.59 396.469 341.04 395.309C345.59 391.069 347.16 390.339 351.8 393.809C358.97 399.179 365.01 398.369 371.95 393.339C379.46 387.889 387.99 383.949 395.98 379.189C397.38 378.349 398.71 377.209 400.56 377.649C401.82 378.249 403.08 378.839 404.34 379.439Z" fill="#322A37"/>
<path d="M156.56 347.249C165.69 352.399 168.69 361.019 169.39 370.689C170.41 384.709 166.34 397.659 160.39 410.139C156.57 410.369 154.64 407.069 151.77 405.519C150.54 404.149 150.46 402.589 150.97 400.899C153.21 393.469 151.29 385.839 151.99 378.329C153.43 371.739 152.96 370.539 147.41 366.709C137.87 360.119 126.18 361.659 118.81 370.639C115.49 374.679 115.17 379.459 116.4 384.389C117.7 389.629 120.1 394.349 123.29 398.699C123.99 401.029 123.96 403.369 123.41 405.719C122.08 408.419 120.59 411.039 118.95 413.569C114.93 416.149 110.73 418.459 106.85 421.279C99.85 424.659 94.82 429.659 93.09 437.549C92.82 438.789 92.6 440.649 90.45 440.419C85 430.069 85.77 419.209 88.1 408.349C91.29 393.459 98.15 380.299 107.66 368.479C109.01 366.809 110.28 365.079 111.59 363.369C111.73 362.009 112.62 361.099 113.46 360.139C118.57 355.349 124.08 351.139 130.37 347.949C137.28 344.449 144.47 343.199 152.11 344.479C153.88 344.939 155.49 345.669 156.56 347.249Z" fill="#4279DC"/>
<path d="M204.45 83.3491C206.63 78.8391 205.57 73.8691 206.24 69.1391C208.63 52.1591 215.82 37.5091 226.17 24.1591C233.31 14.9391 241.95 7.62908 252.63 2.72908C263.47 -2.25092 275.22 -0.390921 282.59 8.06908C286.54 12.5991 288 18.3791 288.41 24.1891C289.45 38.9891 285.87 52.8191 278.87 65.8391C278.65 66.2591 278.66 66.7991 278.56 67.2891C278.33 68.8491 281.83 68.6291 280.25 70.8291C279.01 71.6391 277.55 71.9891 276.37 72.9691C275.48 73.6991 274.44 75.9491 273.04 73.3691C272.97 73.7591 273.12 74.0991 273.24 74.4491C274.03 76.7291 273.27 77.2891 271.14 76.3591C269.53 73.3391 271.18 68.5691 265.88 67.4091C264.57 67.1191 265.85 65.0991 266.66 64.1491C268.03 62.5491 269.91 61.3691 270.68 59.2691C272.53 56.5091 273.17 53.6591 271.84 50.4091C270.95 48.2391 270.85 45.7791 271.77 43.6291C272.97 40.8491 272.64 38.1991 271.93 35.4591C271.96 35.2991 271.94 35.0991 272.03 34.9691C276.22 28.5091 275.74 26.5191 268.92 22.2191C257.98 15.3191 247.02 16.0491 237.34 24.3691C232.93 28.1591 231.4 32.9791 232.16 38.6891C233.1 45.8091 235.94 52.0691 240.3 57.7191C241 60.0291 240.94 62.3591 240.46 64.6991C239.27 67.9291 237.02 70.6691 236.08 74.0291C231.84 76.9691 226.13 77.7891 223.33 82.8291C217.05 84.1591 213.21 89.1691 208.38 92.6991C205.42 91.4791 205.75 88.5791 205.07 86.2091C205.12 85.1991 205.34 84.1591 204.45 83.3491Z" fill="#CED2E6"/>
<path d="M18.72 394.9C18.72 391.9 18.59 388.9 18.74 385.91C19.14 378.04 22.61 371.81 29.43 367.81C43.2 359.71 57.07 351.78 70.93 343.83C77.74 339.92 81.65 342.24 81.74 350.2C81.79 355.03 81.57 359.87 81.78 364.69C82.01 369.9 82.5 375.2 88.05 377.88C90.31 378.97 89.04 379.8 88.13 380.71C84.1 384.76 79.3 387.31 73.53 387.38C70.74 387.41 68.42 388.19 66.06 389.58C54.15 396.58 42.2 403.52 30.21 410.37C22.7 414.66 18.88 412.45 18.71 403.91C18.65 400.91 18.7 397.91 18.7 394.92C18.7 394.9 18.71 394.9 18.72 394.9Z" fill="#FFA048"/>
<path d="M366.25 80.2395C371.12 70.9695 375.96 61.6895 383.05 53.8295C391.88 44.0395 401.68 35.7595 415.09 33.0495C426.62 30.7195 436.34 36.0295 440.52 47.1195C444.96 58.8995 443.28 70.6895 439.94 82.3695C438.85 86.1895 437.65 89.9995 435.61 93.4595C430.95 92.3795 428.26 89.3795 427.4 84.2995C428.45 81.1295 429.14 78.0395 427.66 74.6995C426.79 72.7295 427.22 70.4695 427.71 68.3395C429.75 59.4195 426.86 52.0295 419.74 47.9495C411.43 43.1695 402.79 44.0395 395.94 50.3295C395.7 50.5495 395.47 50.7995 395.24 51.0395C389.75 56.2195 389.24 68.2295 395.21 75.8195C396.77 77.9595 397.85 80.2495 397.57 82.9895C397.53 83.4995 397.42 83.9995 397.28 84.4895C395.06 90.8495 391.72 96.2195 385.05 98.8795C383.11 99.6595 381.31 100.899 379.75 102.379C374.44 105.669 371.67 110.539 370.68 116.619C370.04 120.56 369.25 124.469 368.78 128.429C368.59 130.029 368.8 131.849 366.86 132.679C362 130.619 361.73 125.799 360.23 121.709C359.98 120.139 359.38 118.649 359.1 117.089C356.76 105.049 360.33 93.8995 364.31 82.8195C364.74 81.7795 365.64 81.1295 366.25 80.2395Z" fill="#1E344E"/>
<path d="M249.69 236.518C247.6 240.728 246.17 245.278 243.33 249.098C239.16 248.548 236.48 246.378 235.68 242.128C237.04 238.348 237.25 234.198 239.31 230.628C240.83 223.628 241.82 216.648 239.62 209.558C237.33 202.188 230.41 196.958 221.51 196.138C213.24 195.378 199.96 203.338 196.76 210.968C193.06 219.808 197.39 234.588 205.29 240.008C206.11 240.568 207 241.048 207.57 241.908C208.26 243.738 207.08 244.758 205.9 245.778C204 246.788 201.88 247.348 200.05 248.528C195.4 251.408 190.29 253.588 186.37 257.578C181.77 262.208 182.43 268.258 181.83 273.988C181.55 276.618 182.53 279.978 178.41 280.698C173.89 277.868 172.86 273.078 171.63 268.448C168.97 258.478 170.53 248.668 173.08 238.968C174.09 235.128 175.4 231.348 176.94 227.668C177.33 226.718 177.86 225.818 178.21 224.848C185.86 209.828 195.4 196.338 209.69 186.828C213.71 184.148 218.03 181.978 222.62 180.378C224.36 180.078 226.14 180.048 227.83 179.458C242.6 177.848 250.97 184.228 255.42 200.428C255.65 201.238 255.76 202.068 255.83 202.908C256.31 213.478 256.01 223.948 251.74 233.888C251.42 235.028 250.45 235.688 249.69 236.518Z" fill="#4279DC"/>
<path d="M339.43 281.449C335.27 276.949 333.89 271.309 333.56 265.519C333.06 256.879 333.71 248.299 336.58 239.999C338.01 235.859 334.45 237.509 333.12 237.499C317.13 237.349 301.14 237.479 285.16 237.289C279.9 237.229 274.55 238.319 269.37 236.509C271.36 234.339 274.03 234.879 276.42 235.019C295.29 236.169 314.17 235.839 333.05 235.849C333.72 235.759 332.77 235.009 333.06 235.599C318.97 236.029 304.89 236.009 290.8 235.609C290.85 231.729 293.95 233.139 295.72 233.109C306.85 232.909 317.98 233.019 329.11 233.009C330.61 233.009 332.1 232.979 333.6 232.989C336.23 233.019 337.82 231.849 338.91 229.369C344.48 216.779 352.11 205.679 362.16 196.139C368.17 190.439 375.55 186.949 382.23 182.349C383.65 181.559 384.44 183.059 385.59 183.279C390.83 183.669 396.19 182.189 401.33 184.269C412.82 188.919 415.65 198.999 416.35 209.709C417.33 224.669 411.99 238.269 405.55 251.449C403.73 248.229 399.98 246.819 398.16 243.589C401.23 236.059 402.11 228.279 401.15 220.219C400.9 218.099 401.05 215.909 401.46 213.779C402.37 207.999 400 203.819 395.16 200.829C384.79 194.429 372.04 195.629 366.48 204.399C360.71 213.509 357.42 223.569 359.2 234.709C359.85 238.789 360.76 242.859 360.68 247.039C360.47 249.379 359.04 250.839 357.12 251.919C353.99 253.679 351.22 255.909 348.57 258.299C343.2 262.199 343.21 268.059 342.79 273.829C342.57 276.709 343.64 280.289 339.43 281.449Z" fill="#298DFE"/>
<path d="M247.47 337.319C251.85 331.789 255.87 325.899 262.26 322.349C263.47 326.799 264.29 331.369 266.55 335.479C271.28 347.549 271.03 360.189 270.79 372.809C270.73 376.089 272.09 378.019 275.12 379.249C281.74 381.939 288.2 385.019 294.42 388.539C297.42 390.229 298.16 389.209 298.17 386.209C298.24 370.009 295.13 354.519 287.9 339.949C287.41 338.969 287.02 337.219 285.61 337.889C279.76 340.639 277.32 335.559 273.8 332.989C273.01 332.409 272.42 331.559 271.97 330.649C271.14 328.089 271.94 326.029 273.93 324.359C276.65 323.619 277.51 326.289 279.21 327.349C285.11 331.049 286.67 330.749 290 324.689C290.4 323.959 290.8 323.239 291.39 322.639C292.69 321.519 294.15 321.199 295.78 321.749C298.02 325.169 297.78 330.929 294.77 333.369C292.98 334.819 292.57 335.709 293.61 337.779C301.26 352.989 303.58 369.369 303.83 386.149C303.89 389.979 303.63 393.849 306.17 397.139C306.52 397.539 306.79 397.999 307 398.489C307 404.419 303.89 407.749 298.24 408.949C295.13 409.849 292.38 408.349 289.52 407.619C281.61 405.599 274 402.749 266.54 399.429C264.87 398.669 263.26 397.789 261.63 396.949C254.84 393.439 250.7 388.419 249.75 380.359C248.58 370.449 247.45 360.529 246.22 350.619C245.68 346.159 245.91 341.639 247.47 337.319Z" fill="#E6E7EB"/>
<path d="M194.38 621.39C194.38 622.37 194.38 623.35 194.38 624.33C189.99 613.91 185.45 603.56 183.67 592.38C182.45 584.7 184.72 577.93 190.62 572.59C192.39 569.81 195.35 569.09 198.22 568.22C202.03 566.89 205.87 565.75 209.98 566.63C211.59 567.22 212.42 566.42 212.87 564.96C212.89 558.24 210.21 552.35 207.35 546.5C202.16 535.87 204.22 518.35 211.6 510.21C215.61 503.21 219.62 496.2 223.64 489.2C225 485.97 226.58 485.11 228.57 488.76C231.22 494.24 232.2 500.21 233.58 506.07C234.03 510.2 234.02 514.33 233.62 518.45C232.33 533.32 226.2 546.56 219.83 559.76C218.73 562.04 216.96 564.79 219.16 567.57C219.58 567.78 219.97 568.02 220.37 568.25C222.16 569.94 225.75 567.98 226.7 571.36C223.4 572.39 222.19 574.39 222.89 577.97C223.36 580.37 222.42 582.87 221.69 585.26C219.38 588.18 215.91 588.98 212.68 590.19C209.42 591.41 205.97 592.03 202.79 593.51C194.84 597.22 191.82 602.96 193.18 611.61C193.66 614.85 195.1 617.99 194.38 621.39Z" fill="#298DFE"/>
<path d="M6.44995 241.429C-1.45005 230.869 -0.770046 218.869 1.58995 207.069C6.36995 183.179 18.72 163.799 38.73 149.709C44.39 145.719 50.64 142.719 57.96 142.299C71.6199 141.509 79.97 150.349 82.46 163.479C82.74 164.959 81.82 167.049 84.44 167.319C85.25 168.509 84.7999 169.849 84.88 171.119C84.36 181.619 81.8999 191.699 78.2 201.489C76.9399 203.349 80.6 203.889 79.37 205.739C76.65 206.349 75 208.889 72.35 209.639C69.79 208.369 68.81 206.089 68.38 203.449C70.0099 198.029 67.61 193.359 65.58 188.619C65.33 187.079 65.62 185.659 66.51 184.379C67.6 182.949 69.04 181.759 69.67 179.999C71.16 175.479 65.99 177.339 65.03 175.169C64.75 174.439 64.76 173.719 64.97 172.979C67.86 164.539 62.39 156.299 52.47 154.149C40.34 151.519 31.13 157.149 27.71 169.089C25.66 176.239 25.7 183.519 25.84 190.829C25.93 195.359 25.49 199.779 23.65 203.979C22.74 206.779 20.34 208.919 20.04 212.009C16.34 213.159 14.56 215.719 13.5 219.439C11.84 225.219 10.98 231.169 9.41995 236.949C8.94995 238.669 9.18995 241.109 6.44995 241.429Z" fill="#CED2E7"/>
<path d="M211.58 510.208C209.61 516.138 206.9 521.808 206.01 528.118C205.07 534.718 205.84 540.858 209.04 546.758C211.81 551.878 213.55 557.388 214.4 563.148C214.56 564.268 214.76 565.498 213.56 566.288C211.41 565.688 211.12 563.668 210.5 562.038C206.43 551.268 200.39 541.848 191.85 534.068C191.13 533.408 190.32 532.738 190.51 531.568C190.31 530.958 190.23 530.258 189.88 529.758C177.77 512.588 178.22 493.618 181.88 474.178C182.62 470.248 184.11 470.278 187.07 472.488C199.92 482.068 207.41 495.038 211.58 510.208Z" fill="#052D8B"/>
<path d="M359.67 247.009C358.51 237.979 355.99 228.939 358.49 219.849C360.64 212.049 362.97 204.199 370.11 199.079C381.06 191.239 400.01 196.859 402.86 208.839C403.25 210.459 403.81 212.079 402.45 213.539C400.78 215.399 398.67 215.599 396.51 214.849C393.5 213.799 391.58 214.909 389.67 217.239C387.04 220.439 383.88 223.169 381.34 226.479C379.3 229.119 376.92 229.969 374.35 226.939C373.5 225.939 372.42 224.689 370.99 225.559C369.26 226.609 370.19 228.179 370.8 229.529C371.42 230.889 372.22 232.169 372.23 233.739C371.13 240.519 372.03 246.889 376.08 252.619C379.16 257.469 384.13 261.079 385.53 267.029C386.13 270.129 387.9 273.269 385.29 276.279C385.03 276.679 384.77 277.069 384.51 277.469C383.13 277.849 382.17 277.059 381.6 276.059C379.09 271.689 374.9 269.269 370.98 266.479C364.31 261.709 360 255.489 359.67 247.009Z" fill="#362F3B"/>
<path d="M385.58 183.289C383.88 185.079 383.68 183.569 383.37 182.289C381.71 180.339 382.62 178.179 382.96 176.129C384.62 166.029 386.61 155.979 388.2 145.859C388.63 143.139 388.35 140.939 385.47 139.799C383.95 138.049 384.46 136.069 384.92 134.149C385.79 130.449 386.62 126.739 387.76 123.109C391.07 112.589 389.6 108.419 380.52 102.529C380.1 102.259 379.83 101.829 379.57 101.409C380.56 99.2087 382.79 98.4187 384.66 97.6687C390.88 95.1887 393.81 90.0687 396.21 84.3887C397.69 85.1187 397.44 86.5887 397.71 87.8387C398.65 92.2087 404.71 97.9687 409.04 98.7087C412.73 99.3387 413.3 96.3587 414.52 94.0987C415.68 93.4787 416.72 94.0587 417.83 94.3387C422.82 95.6287 424.44 94.4687 425.28 89.0387C425.5 87.8287 425.65 86.5687 427.1 86.1387C430.14 89.7087 432.6 93.5887 433.43 98.3187C429.86 106.619 424.29 113.549 418.43 120.279C415.37 116.509 416.07 111.779 415.19 107.459C414.9 106.039 415.15 103.949 413.2 103.989C411.05 104.029 410.77 105.989 411.1 107.749C412.18 113.609 412.18 119.619 413.49 125.449C410.61 127.969 407.66 130.449 404.48 132.539C402.3 133.969 400.01 135.229 397.56 136.189C393.98 137.589 393.09 140.019 392.54 143.219C390.26 156.589 387.91 169.939 385.58 183.289Z" fill="#298DFE"/>
<path d="M274.57 324.48C273.12 326.18 272.17 328.07 272.42 330.39C274 334.62 276.33 338.32 279.55 341.56C281.27 343.29 282.81 345.43 283.13 348C283.35 349.78 282.83 350.79 280.54 350.14C272.77 347.92 268.2 342.59 265.54 335.28C262.8 331.39 260.9 327.29 262.26 322.36C264.13 316.61 263.96 311.08 261.54 305.38C258.01 297.06 263.99 282.23 272.78 276.38C280.56 271.2 292.97 272.54 300.06 279.36C303.6 282.77 305.15 287.13 305.43 291.89C305.63 295.36 305.36 298.87 305.29 302.36C304.84 302.99 305.2 304.19 304.13 304.33C303.07 304.46 302.75 303.49 302.59 302.73C301.89 299.42 302.59 295.52 298.61 293.66C295.29 292.11 291.71 293.05 288.28 292.62C284.39 292.14 282.6 293.25 283.6 297.44C283.86 298.55 283.43 299.74 282.98 300.83C281.41 304.61 279.51 305.27 275.85 303.22C274.99 302.74 274.14 301.9 273.21 302.82C272.34 303.68 272.87 304.7 273.41 305.54C274.65 307.49 276.39 309.15 276.89 311.54C277.75 316.14 279.42 320.89 274.57 324.48Z" fill="#37303C"/>
<path d="M247.47 337.318C247.91 344.098 247.27 350.908 248.4 357.698C249.6 364.898 250.58 372.178 251.03 379.468C251.55 388.008 256.04 393.188 263.5 396.428C264.86 397.018 266.11 397.868 267.41 398.598C268.47 404.418 267.76 410.278 267.82 416.118C267.66 419.458 265.7 421.398 262.86 422.848C259.5 424.558 256.25 426.488 252.98 428.368C250.24 429.938 247.92 431.248 251.87 434.038C252.53 434.508 252.78 435.378 252.44 436.258C248.42 440.328 244.92 438.318 241.51 435.318C241.52 406.588 241.67 377.858 241.43 349.138C241.39 343.758 241.91 339.448 247.47 337.318Z" fill="#1D1622"/>
<path d="M400.56 377.649C388.3 384.869 376.02 392.059 363.79 399.339C362.17 400.299 360.9 400.459 359.29 399.359C357.24 397.959 354.87 397.019 352.91 395.529C349.05 392.599 345.34 392.099 341.49 395.379C338.15 394.239 336.11 391.969 335.49 388.469C341.19 383.689 348.26 381.179 354.38 377.039C359.97 373.249 366.11 370.279 371.85 366.679C375.93 364.119 379.96 363.399 383.77 366.589C388.94 370.949 396.16 372.159 400.56 377.649Z" fill="#E6E7EB"/>
<path d="M210.59 567.39C206.5 567.65 202.38 567.75 198.51 569.37C199.43 567.13 196.47 567.67 196.26 566.24C188.1 561.29 179.92 561.23 171.97 566.53C165.48 570.86 159.21 575.51 152.81 579.98C151.62 580.81 150.3 581.45 148.35 582.58C148.72 572.15 151.01 563.03 155.83 554.56C161.47 547.58 168.38 543.73 177.65 545.63C185.64 544.93 191.57 549.49 197.51 553.7C201.85 556.77 205.2 561.05 209.42 564.32C210.33 565.02 211.01 566.06 210.59 567.39Z" fill="#519FED"/>
<path d="M210.59 567.389C201 558.029 191.65 548.309 177.65 545.629C178.5 543.459 176.44 543.659 175.53 543.349C164.16 539.449 156.27 531.469 149.49 521.119C164.01 522.429 178.16 523.259 190.51 531.569C200.04 539.239 206.75 548.909 210.97 560.369C211.71 562.389 212.69 564.319 213.55 566.299C212.97 567.759 212.03 568.249 210.59 567.389Z" fill="#1491ED"/>
<path d="M305.68 398.249C302.96 396.059 302.37 393.079 302.48 389.789C302.85 377.949 301.39 366.309 298.56 354.819C296.68 347.209 293.79 340.029 289.61 333.229C295.31 333.159 297.5 328.879 295.51 322.339C297.36 319.959 299.45 317.759 300.97 315.129C305.62 316.959 305.75 321.649 307.44 325.349C306.19 327.929 307.31 330.159 308.5 332.369C313.49 343.269 314.54 354.309 310.18 365.729C307.85 371.829 309.08 377.869 311.36 383.769C312.08 385.629 313.15 387.359 313.36 389.389C313.22 394.439 309.33 396.239 305.68 398.249Z" fill="#C2C6E2"/>
<path d="M232.28 519.419C232.3 514.739 232.33 510.059 232.35 505.379C230.79 496.239 230.93 487.019 231.02 477.809C231.05 474.739 230.8 471.829 227.86 469.999C226.38 468.869 224.76 467.889 223.53 466.439C219.39 464.209 218.99 460.479 219.48 456.379C236.66 465.269 253.01 475.619 269.79 485.229C281.85 492.139 293.82 499.199 305.92 506.029C308.25 507.339 310.36 508.879 312.52 510.399C315.4 512.319 314.11 514.889 313.61 517.339C311.57 518.719 310.07 517.259 308.45 516.369C307.36 515.589 306.24 514.849 305.11 514.129C304.35 513.659 303.55 513.259 302.72 512.929C289.84 506.499 277.7 498.759 265.31 491.459C259.47 488.019 253.73 484.429 247.48 481.769C245.18 479.369 242.02 478.409 239.19 476.899C238.1 476.189 237.2 474.529 235.87 475.039C234.11 475.709 234.93 477.649 234.92 479.019C234.9 488.999 234.79 498.979 234.98 508.959C235.02 516.139 235.02 523.309 235 530.479C234.7 531.469 234.16 532.449 233.07 532.319C231.61 532.139 231.42 530.719 231.61 529.639C232.21 526.249 231.68 522.799 232.28 519.419Z" fill="#C3C7DF"/>
<path d="M312.49 390.439C311.82 388.759 311.2 387.069 310.48 385.409C307.65 378.869 306.04 372.069 308.75 365.239C312.88 354.829 312.18 344.629 308.66 334.329C308.45 333.729 308.55 333.019 308.51 332.359C313.34 339.269 314.61 347.639 317.79 355.239C321.28 363.549 326.05 371.169 330.15 379.139C331.54 381.839 332.18 384.709 333.5 387.349C333.04 389.789 331.83 391.779 329.45 392.569C325.24 393.969 325.32 396.649 326.77 400.039C327.35 401.399 328.9 403.049 326.37 404.179C326.29 404.379 326.13 404.479 325.91 404.459C321.58 406.089 319.22 401.999 315.81 400.969C313.99 397.729 318.18 397.819 318.7 395.829C316.87 393.749 313.72 393.189 312.49 390.439Z" fill="#E7E8EC"/>
<path d="M301.42 315.46C300.56 318.71 299.84 322.08 295.5 322.34C294.03 322.19 292.71 322.6 291.48 323.37C287.64 320.62 283.38 318.53 279.64 315.62C278.08 314.41 276.5 313.29 275.72 311.38C275.04 309.19 272.78 308.23 271.77 306.37C270.74 304.45 269.91 302.12 272.31 300.63C274.4 299.33 276.07 300.35 277.09 302.5C278.48 305.44 279.91 304.03 280.98 302.35C282.68 299.67 282.71 296.75 281.73 293.75C281.04 291.65 280.96 290.3 284.11 290.84C287.17 291.36 290.36 291.04 293.5 291.1C300.86 291.25 303.02 293.45 303.25 300.72C303.28 301.68 302.39 303.37 304.45 303.48C304.71 303.49 305.02 302.74 305.3 302.34C306 303.9 304.17 306 306.34 307.25C304.55 309.9 304.31 313.47 301.42 315.46Z" fill="#F0BBA3"/>
<path d="M106.49 420.399C109.97 417.249 114 414.989 118.3 413.179C120.21 412.719 120.91 414.319 121.68 415.409C125.29 420.539 130.08 423.909 136.11 425.559C139.3 429.319 138.19 434.209 139.5 438.459C132.3 443.819 125.37 449.609 116.25 451.619C114.64 451.969 113.1 452.459 111.44 452.319C110.41 449.449 111.79 446.789 112.29 444.089C113.89 435.579 113.47 427.659 106.53 421.339C106.33 421.159 106.41 420.739 106.49 420.399Z" fill="#DEE0EE"/>
<path d="M6.44995 241.428C9.82995 234.008 9.94995 225.768 12.38 218.078C13.77 213.698 15.6 210.938 20.52 211.328C24.6 210.258 26.0499 213.478 27.59 216.008C30.15 220.228 30.81 225.208 30.53 229.878C30.13 236.558 29.0999 243.318 25.5499 249.308C17.7799 250.078 11.3 247.708 6.44995 241.428Z" fill="#DEE0ED"/>
<path d="M186.27 256.179C189.91 252.099 194.94 250.229 199.58 247.719C199.84 255.719 204.3 260.779 211.21 263.929C216.09 266.159 218.77 265.529 222.44 261.559C223.63 260.269 224.73 259.859 225.4 261.609C226.47 264.419 228.89 266.979 227.51 270.389C220.64 278.019 212.44 283.589 202.5 286.439C199.63 287.659 198.99 286.139 199.03 283.669C199.08 279.859 199.45 276.029 198.67 272.259C197.16 264.899 193.7 258.999 186.27 256.179Z" fill="#B4BCDE"/>
<path d="M359.67 247.01C362.28 256.45 367.24 264.04 376.28 268.54C380.12 270.45 381.42 274.79 384.51 277.45C377.68 283.06 370.52 288.02 361.5 289.43C358.65 289.09 359.97 286.97 360 285.59C360.08 281.59 360.47 277.6 359.56 273.65C357.98 266.8 355.32 260.67 348.54 257.33C350.32 254.15 353.48 252.63 356.46 250.95C358.11 250.02 359.56 249.11 359.67 247.01Z" fill="#B4BCDE"/>
<path d="M106.49 420.398C114.75 424.648 114.47 432.538 114.28 439.968C114.18 444.108 113.26 448.398 111.44 452.318C102.04 452.598 94.65 449.328 90.45 440.418C91.65 439.738 91.63 438.408 91.86 437.358C93.63 428.988 98.74 423.568 106.49 420.398Z" fill="#B5BCDD"/>
<path d="M348.53 257.329C353.53 257.059 356.01 260.579 357.77 264.249C361.24 271.499 362.62 279.219 360.96 287.259C360.77 288.159 360.74 288.849 361.49 289.439C355.36 291.709 343.65 288.929 339.43 281.449C341.63 279.639 341.61 277.139 341.46 274.649C341.21 270.479 341.99 266.499 343.27 262.549C344.15 259.859 345.6 257.889 348.53 257.329Z" fill="#DEE0ED"/>
<path d="M186.27 256.179C191.55 255.749 194.46 258.989 196.78 263.049C200.38 269.359 200.97 276.239 200.42 283.289C200.28 285.049 199.82 286.689 202.5 286.439C198.58 288.379 194.41 287.119 190.37 287.249C188.85 287.299 187.53 287.109 186.46 288.359C185.57 287.949 186.38 285.479 184.26 286.549C182.33 284.529 179.1 283.739 178.46 280.479C180.85 279.689 180.15 277.559 180.34 275.909C180.82 271.839 181.02 267.739 181.58 263.689C182.02 260.579 182.85 257.519 186.27 256.179Z" fill="#DEE0EE"/>
<path d="M25.54 249.319C26.72 243.559 28.18 237.839 29.01 232.029C29.81 226.419 28.77 220.869 26.05 215.869C24.93 213.809 23.28 211.709 20.51 211.339C17.54 208.069 22.41 206.869 22.35 204.359C29.21 205.039 31.27 209.679 31.79 215.679C32.06 218.809 32.64 221.909 33.15 224.999C33.79 228.869 36.2 231.109 40.07 231.779C44.42 232.539 46.55 231.149 47.71 226.809C48.18 225.039 48.17 223.199 48.58 221.419C48.71 220.759 48.44 221.539 48.7 220.939C49.51 219.079 48.53 215.809 51 215.509C53.78 215.179 54.12 218.479 54.83 220.479C56.04 223.859 57.24 227.259 57.98 230.799C57.9 231.949 57.44 232.869 56.41 233.469C52.57 234.279 50.7 237.799 47.72 239.819C40.92 244.459 33.95 248.509 25.54 249.319Z" fill="#B4BCDD"/>
<path d="M227.51 270.398C226.38 267.318 225.25 264.228 224.06 260.968C221.55 266.468 219.27 267.638 213.32 266.138C206.59 264.448 202.27 259.688 198.93 253.948C197.7 251.848 198.91 249.748 199.58 247.718C201.3 246.518 203.03 245.328 205.24 245.288C207.84 246.718 209.56 249.238 212.24 250.628C220.51 254.918 223.87 254.048 229.07 245.948C230.02 245.028 231.09 244.518 232.43 244.988C235.03 247.338 235.92 250.548 236.44 253.788C237.34 259.408 234.66 262.298 228.48 262.368C228.65 264.448 229.97 266.368 229.52 268.478C228.86 269.108 228.19 269.748 227.51 270.398Z" fill="#DEE0ED"/>
<path d="M83.48 170.41C83.8 169.38 84.12 168.35 84.43 167.32C120.94 141.87 157.46 116.43 193.97 90.9697C197.51 88.4997 200.96 85.8997 204.45 83.3597C206.2 83.3397 205.99 84.3097 205.5 85.4197C202.89 89.9297 198.26 92.1497 194.23 94.9197C158.93 119.21 123.93 143.93 88.77 168.42C87.2 169.51 85.81 171.23 83.48 170.41Z" fill="#298DFE"/>
<path d="M56.4199 233.468C56.4899 232.668 56.6099 231.878 57.3899 231.408C58.2199 231.488 58.8399 231.928 59.3299 232.568C65.7799 245.708 71.0999 259.348 76.7899 272.818C88.6199 300.848 100.49 328.868 112.22 356.948C112.86 358.488 113.65 359.958 113.53 361.698C112.88 362.258 112.23 362.808 111.58 363.368C105.34 348.948 99.0099 334.558 92.8799 320.088C80.6799 291.238 68.5699 262.348 56.4199 233.468Z" fill="#298DFE"/>
<path d="M326.36 404.189C326.86 403.289 326.83 402.579 326.28 401.529C323.12 395.469 323.41 394.539 329.39 391.469C331.27 390.499 332.07 388.669 333.49 387.359C334.15 387.729 334.81 388.099 335.47 388.479C337.47 390.779 339.47 393.089 341.47 395.389C343.2 399.219 343.5 402.899 341.13 406.709C340.16 408.259 338.88 408.599 337.49 408.709C335.61 408.859 336.44 407.129 336.12 406.209C335.85 405.429 335.83 404.549 335.47 403.829C334.82 402.499 334.82 400.229 332.37 400.979C330.23 401.629 331.13 403.199 331.46 404.619C331.59 405.189 331.36 405.839 331.3 406.409C328.99 406.739 328.4 403.939 326.36 404.189Z" fill="#EDBCA5"/>
<path d="M384.28 266.499C382.46 261.389 378.22 257.939 375.43 253.489C376.75 252.139 378.2 252.969 379.6 253.269C385.86 254.599 386.95 254.149 390.62 248.669C391.68 246.939 392.61 245.009 395.23 245.839C398.37 248.749 398.92 252.759 399.21 256.619C399.54 260.999 396.36 263.179 390.98 262.859C391.39 265.099 392.96 267.059 392.53 269.469C391.86 270.119 391.19 270.759 390.53 271.409C387.7 270.379 387.82 267.509 386.52 265.269C385.73 265.349 385.67 267.389 384.28 266.499Z" fill="#DDDFEE"/>
<path d="M152.44 405.25C155.76 405.79 157.42 409.04 160.4 410.15C156.18 418.66 151.03 426.53 144.23 433.23C141.8 430.11 140.9 426.79 142.88 423.09C146.77 420.12 146.76 415.6 147.54 411.38C148.82 409.06 149.2 406.01 152.44 405.25Z" fill="#DDDEEE"/>
<path d="M366.25 80.2391C366.38 81.0891 366.28 81.8491 365.46 82.3391C363.46 83.8091 361.25 83.0291 359.18 82.7391C335.45 79.3791 311.73 75.9691 288 72.5991C285.45 72.2391 282.6 72.3891 280.57 70.2291C279.72 69.9091 278.89 69.5491 278.02 69.2991C277.37 69.1091 276.73 68.7691 277.03 68.1191C277.22 67.6991 278.03 67.5591 278.57 67.2891C289.83 68.9691 301.09 70.6691 312.36 72.3291C330.31 74.9791 348.28 77.6091 366.25 80.2391Z" fill="#298DFE"/>
<path d="M184.58 286.479C187.17 285.139 186.33 287.239 186.46 288.369C177.07 306.469 167.67 324.559 158.31 342.669C157.56 344.119 156.47 345.469 156.56 347.249C155.18 346.709 153.8 346.169 152.42 345.629C161.26 329.899 169.27 313.749 177.46 297.679C179.48 293.749 181.18 289.559 184.58 286.479Z" fill="#298DFE"/>
<path d="M378.85 301.35C376.69 299.37 378.16 297.1 377.1 295.34C375.51 297.59 377.73 300.76 375.3 302.88C373.53 301.19 375.18 298.92 373.96 297.23C372.54 299.55 374.65 302.55 372.1 304.89C370.78 303.08 371.85 300.95 370.83 298.74C370.3 301.76 370.66 304.54 368.77 306.63C368.11 307.36 367.46 308.29 366.33 308.04C364.95 307.74 364.57 306.55 364.64 305.36C364.81 302.37 364.9 299.02 368.11 297.7C370.33 296.79 371.24 295.52 371.44 293.39C371.57 291.96 372.22 290.78 373.43 290.12C375.13 289.19 376.83 287.14 378.68 287.9C380.61 288.69 379.54 291.16 379.54 292.85C379.53 295.5 380.13 298.29 378.85 301.35Z" fill="#B7BCD0"/>
<path d="M392.53 269.459C390.7 266.699 389.74 263.569 388.64 260.219C391.36 260.249 393.53 263.669 396.35 260.989C399.23 258.249 397.97 255.189 397.3 252.189C396.87 250.259 396.09 248.409 395.47 246.529C395.89 244.959 396.62 243.829 398.53 244.379C402.25 245.369 405.46 246.869 405.55 251.459C401.66 257.789 397.75 264.099 392.53 269.459Z" fill="#B6BBD9"/>
<path d="M413.49 125.46C409.74 122.43 411.88 117.88 410.65 114.17C409.95 112.06 410.74 109.63 409.28 107.5C407.83 105.39 410.21 104.35 411.1 102.92C411.97 101.53 413.02 101.62 414.48 102.13C416.68 102.9 416.16 104.47 416.35 106.11C416.9 110.86 417.72 115.57 418.43 120.3C416.78 122.01 415.14 123.73 413.49 125.46Z" fill="#2183DC"/>
<path d="M229.53 268.469C228.27 265.709 227.02 262.949 225.5 259.609C228.71 260.309 231.5 263.139 234.01 260.039C236.38 257.109 235.64 253.809 234.45 250.609C233.82 248.909 233.14 247.229 232.48 245.549C233.08 243.549 233.99 241.959 236.51 242.499C237.54 245.979 241.06 246.909 243.33 249.109C240.03 256.489 235.22 262.789 229.53 268.469Z" fill="#B6BAD8"/>
<path d="M290.41 234.48C292.16 235.92 294.25 235.28 296.18 235.29C309.61 235.35 323.04 235.32 336.47 236.5C314.1 236.5 291.73 236.5 269.36 236.5C262.8 236.5 256.24 236.51 249.68 236.51C249.99 235.76 250.3 235.01 250.61 234.26C252.06 232.88 253.9 232.83 255.71 232.81C265.44 232.72 275.18 232.72 284.91 232.81C286.88 232.83 288.93 232.78 290.41 234.48Z" fill="#298DFE"/>
<path d="M143.53 423.43C141.95 426.82 144.19 429.94 144.22 433.22C142.65 434.97 141.08 436.71 139.51 438.46C137.61 438.3 137.65 436.82 137.65 435.53C137.67 431.99 136.62 428.71 135.42 425.45C135.17 422.56 136.85 420.59 139.25 420.03C141.32 419.56 143.39 420.68 143.53 423.43Z" fill="#2D7ECF"/>
<path d="M223.53 466.438C225.21 466.358 226.39 467.298 227.53 468.348C228.39 473.688 227.68 479.148 228.68 484.488C228.95 485.928 228.69 487.448 227.37 488.498C225.5 485.438 224.91 489.188 223.62 489.198C223.59 481.608 223.56 474.018 223.53 466.438Z" fill="#393641"/>
<path d="M301.42 315.46C302.86 312.6 302.43 308.63 306.34 307.26C308.68 313.17 306.86 319.33 307.44 325.35C304.78 322.45 303.5 318.71 301.42 315.46Z" fill="#281F22"/>
<path d="M384.28 266.499C386.07 265.519 385 263.449 386.12 261.859C388.57 264.689 388.44 268.589 390.52 271.399C389.11 273.389 387.63 275.289 385.28 276.259C384.95 273.009 384.61 269.759 384.28 266.499Z" fill="#B7BFD9"/>
<path d="M391.58 288.29C391.38 289.24 390.81 290.3 391.04 291.12C391.72 293.54 391.17 295.33 388.55 295.18C386.05 295.04 386.39 292.64 386.52 290.91C386.61 289.64 387.03 288.33 387.58 287.17C388.13 286 389.03 284.6 390.48 284.93C392.26 285.32 391.29 287.11 391.58 288.29Z" fill="#B7BBCE"/>
<path d="M382.89 292.229C382.01 294.569 383.36 297.039 381.33 299.589C380.01 296.699 380.47 294.279 380.6 291.959C380.72 289.799 382.56 288.569 384.32 288.719C386.36 288.889 385.52 291.089 385.53 292.399C385.54 293.919 386.19 295.649 384.64 297.109C382.57 295.989 384.25 293.649 382.89 292.229Z" fill="#B4B8CC"/>
<path d="M433.43 98.3284C430.78 94.6884 429.03 90.5884 427.33 86.4684C426.77 85.3284 426.87 84.4984 428.34 84.3184C428.72 88.9784 432.73 90.7684 435.6 93.4484C434.88 95.0784 434.16 96.6984 433.43 98.3284Z" fill="#8795CC"/>
<path d="M308.48 515.37C310.01 516.12 311.55 516.87 313.08 517.62C313.61 517.72 313.99 518.02 314.22 518.52C315.41 527.62 314.46 536.77 314.76 545.89C314.8 547.22 314.76 548.55 314.77 549.88C314.81 554.94 314.88 555.05 319.12 552.61C328.06 547.48 336.96 542.28 345.9 537.14C368.1 524.38 390.23 511.51 412.44 498.8C414.47 496.37 411.76 496.08 410.7 495.45C402.89 490.73 394.93 486.26 387 481.73C385.13 480.66 383.05 479.8 382.98 477.15C383.97 474.73 386.1 474.1 388.37 473.66C390.63 473.76 392.45 474.97 394.28 476.1C402.62 481.23 411.33 485.74 419.61 490.97C421.55 492.19 423.33 492.89 425.56 491.46C434.92 485.45 444.93 480.53 454.22 474.4C456.29 472.86 456.06 470.63 456.03 468.47C455.88 458.49 456.25 448.52 456.38 438.55C456.4 436.84 456.94 435.28 457.52 433.72C459.24 431.55 460.74 428.87 464.26 430.67C464.1 459.21 463.81 487.75 463.92 516.29C463.94 521.34 461.96 523.51 457.49 524.34C454.98 517.04 456.84 509.48 456.21 502.06C455.84 497.77 456.13 493.42 456.16 489.09C456.17 488.11 456.87 486.59 454.91 486.49C447.67 490.2 440.94 494.76 433.3 498.8C438.98 501.74 443.94 505.13 449.25 507.96C451.43 509.12 453.69 510.24 455.11 512.44C455.78 514.57 456.34 516.95 454.31 518.41C452.26 519.88 450.22 518.29 448.32 517.29C441.41 513.64 435.08 509 428.03 505.61C426.01 504.64 423.99 503.11 421.48 504.24C386.66 524.35 351.87 544.49 316.99 564.49C314.14 566.12 313.15 567.88 313.2 571.11C313.38 581.92 313.06 592.74 313.27 603.55C313.34 607.24 312.4 609.62 308.69 610.51C305.28 609.93 306.05 607.05 305.99 605.01C305.79 598.2 306.01 591.38 306 584.57C305.98 563.95 305.94 543.34 306.05 522.72C306.06 520.12 305.19 516.99 308.48 515.37Z" fill="#1A1420"/>
<path d="M464.26 430.689C461.8 430.439 460.35 432.369 458.49 433.399C455.53 435.349 457.86 439.729 454.73 441.589C452.96 440.599 453.71 438.659 453.2 437.359C440.68 445.189 427.76 452.299 415.15 459.909C408.19 464.109 401.14 468.149 394.09 472.169C392.34 473.169 390.64 474.149 388.57 474.199C386.85 475.209 385.12 476.219 383.4 477.219C382.46 478.899 381.03 480.069 379.41 481.049C373.96 483.079 369.42 486.649 364.64 489.819C360.2 490.779 357.05 494.089 353.19 496.119C351.94 496.629 350.76 497.269 349.65 498.049C347.49 499.299 345.55 500.899 343.34 502.079C339.75 503.129 336.88 505.449 333.83 507.459C331.64 510.049 333.81 513.639 331.79 516.259C327.45 515.689 330.32 512.099 328.87 510.109C325.45 512.059 321.93 514.429 318.23 516.469C316.68 517.329 315.17 518.639 313.18 517.549L313.09 517.619C312.93 515.209 314.02 512.699 312.52 510.389C327.02 502.039 341.54 493.719 356.02 485.339C385.01 468.569 414.05 451.889 442.92 434.929C452.36 429.389 461.73 423.749 471.36 418.549C473.63 425.319 467.55 427.189 464.26 430.689Z" fill="#AAB1D1"/>
<path d="M308.48 515.37C307.37 517.49 307.49 519.8 307.49 522.09C307.49 549.7 307.47 577.32 307.52 604.93C307.52 606.81 306.72 608.98 308.69 610.5C306.16 613.18 304.66 609.17 302.49 609.54C296.61 606.11 290.72 602.68 284.84 599.25C283.29 598.52 281.34 598.44 280.44 596.61C277.41 594.66 273.88 593.54 271.18 591.05C268.46 588.56 268.54 585.94 270.8 583.22C278.22 592.9 290.27 595.59 299.63 602.36C301.17 603.47 302.07 602.84 302.3 601.05C302.45 599.9 302.62 598.75 302.94 597.62C303.26 571.75 302.94 545.9 303.14 520.05C303.16 517.69 301.97 514.6 305.5 513.35C306.49 514.03 307.48 514.7 308.48 515.37Z" fill="#332E38"/>
<path d="M421.48 504.238C423.24 502.328 425.09 502.468 427.25 503.708C434.12 507.668 441.13 511.388 447.92 515.478C449.78 516.598 451.71 518.558 453.6 517.688C455.55 516.798 454.18 514.088 454.44 512.198C451.54 506.698 453.31 500.778 452.95 495.058C452.74 491.788 452.41 488.368 454.48 485.398C456.05 483.728 457.97 482.938 457.84 486.148C457.32 498.288 457.49 510.408 458.21 522.528C458.25 523.118 457.75 523.748 457.49 524.358C447.25 518.578 437 512.788 426.75 507.018C425.02 506.038 423.24 505.168 421.48 504.238Z" fill="#37323E"/>
<path d="M266.52 417.46C266.8 411.17 265.37 404.8 267.42 398.6C276.16 401.92 284.88 405.32 294 407.51C295.59 407.89 297.14 408.55 298.81 407.92C299.46 408.15 299.83 408.54 299.59 409.28C289.97 414.7 280.34 420.11 270.72 425.53C268.13 425.97 267.88 423.95 267.27 422.28C266.69 420.71 267.48 418.96 266.52 417.46Z" fill="#062D8A"/>
<path d="M299.59 409.28C299.33 408.83 299.07 408.37 298.81 407.92C304.35 407.27 304.83 402.39 306.6 398.6C309.89 396.99 312.68 397.92 315.19 400.28C319.38 400.11 321.92 404.14 325.91 404.48C326.74 406.72 329.75 407.11 330.4 409.97C327.16 410.37 324.79 407.77 321.27 407.39C322.49 410.92 326.15 412.46 326.38 415.92C318.59 415.02 318.56 415 316.09 413.03C314.74 414.22 317.19 415.49 315.8 416.74C313.66 416.38 313 413.22 310.39 413.36C307.27 410.7 304.37 407.47 299.59 409.28Z" fill="#EEBBA6"/>
<path d="M292.5 447.429C292.44 453.109 295.89 458.119 295.56 463.869C295.43 466.179 294.92 467.719 292.11 467.509C289 467.279 286.27 469.839 282.93 468.739C281 468.109 278.44 467.799 278.23 465.639C277.64 459.489 275.26 453.389 277.34 447.109C277.76 447.319 278.11 447.619 278.38 448.009C282.03 452.519 284.87 452.949 290.41 449.789C291.2 449.099 291.57 448.009 292.5 447.429Z" fill="#2D5EB6"/>
<path d="M266.52 417.459C269.61 419.269 267 424.039 270.71 425.519C264.62 429.099 258.53 432.669 252.43 436.249C251.45 433.689 248.45 433.459 246.65 431.279C251.5 427.079 257.29 424.609 262.68 421.539C264.52 420.509 266.21 419.739 266.52 417.459Z" fill="#38313E"/>
<path d="M292.5 447.43C292.42 448.5 292.74 449.69 291.66 450.48C287.47 446.25 282.35 448.54 277.57 448.45C277.49 448 277.41 447.56 277.34 447.11C282.14 442.78 287.94 442.9 292.5 447.43Z" fill="#264B7D"/>
<path d="M271.34 583.168C270.45 585.778 270.12 588.398 271.18 591.048C269.05 594.688 267.16 598.488 264.74 601.918C262.74 604.758 260.87 609.188 256.76 608.138C253.15 607.218 253.87 602.718 253.26 599.568C251.99 592.948 252.88 585.998 250.29 579.568C247.24 577.588 247.29 573.028 243.61 571.588C240.51 570.338 237.77 567.818 234.01 568.978C229.26 567.508 224.4 568.248 219.58 568.338L219.32 568.328C218.79 562.468 223.57 560.208 227 557.038C229.38 556.758 231.17 555.078 233.37 554.338C239.75 552.698 246.08 552.358 252.52 554.328C265.55 558.308 271.12 567.928 272.91 580.568C272.94 581.768 272.43 582.648 271.34 583.168Z" fill="#519FED"/>
<path d="M194.38 621.388C192.64 617.918 192.13 614.108 191.7 610.358C190.68 601.558 194.25 595.758 202.47 592.178C208.68 589.478 215.75 588.898 221.33 584.628C224.16 581.488 226.94 578.258 231.9 579.598C232.69 581.468 231.93 582.908 230.62 584.188C229.56 584.988 228.57 585.948 227.35 586.428C219.57 589.448 217.03 595.008 217.78 603.228C218.49 610.948 217.93 618.788 217.93 626.568C217.93 628.898 217.9 631.218 216.55 633.268C209.02 629.578 202.47 624.048 194.38 621.388Z" fill="#C2C6E3"/>
<path d="M216.55 633.269C216.53 620.969 216.64 608.669 216.4 596.379C216.33 592.549 217.44 590.109 221.02 588.559C224.32 587.129 226.97 584.399 230.58 583.489C232.62 586.659 230.66 589.639 229.99 592.589C227.96 601.529 228.26 608.059 231.23 614.709C231.57 609.779 234.22 605.599 237.11 601.549C238.37 599.789 239.74 598.109 240.95 596.319C245.08 590.239 246.42 583.889 243.01 576.999C242.43 575.819 241.8 574.609 241.84 573.219C241.93 571.719 243.28 571.249 244.15 570.379C248.2 572.119 248.79 576.149 250.27 579.589C248.68 588.549 246.55 597.449 245.66 606.469C244.93 613.899 242.83 619.189 235.36 622.369C228.75 625.169 222.8 629.569 216.55 633.269Z" fill="#A9B1D4"/>
<path d="M196.26 566.238C197.34 567.048 201.23 565.838 198.51 569.368C195.53 569.598 193.45 572.018 190.62 572.588C189.69 571.848 187.36 571.408 190.03 569.868C192.11 568.668 194.18 567.448 196.26 566.238Z" fill="#0A1636"/>
<path d="M254.21 609.769C251.2 608.129 248.82 606.219 248.53 602.829C248.44 601.829 248.6 600.719 249.91 600.599C250.89 600.509 251.26 601.289 251.54 602.129C252.4 604.689 253.31 607.229 254.21 609.769Z" fill="#E0E3EC"/>
<path d="M280.43 596.609C282 597.309 283.67 597.859 284.83 599.249C283.38 599.239 281.86 599.509 280.49 599.169C278 598.539 279.59 597.499 280.43 596.609Z" fill="#E0E3EC"/>
<path d="M302.17 438.599C301.95 438.069 301.74 437.539 301.52 437.009C302.02 433.659 305.88 433.519 307.27 431.019C308.66 430.099 310.68 430.169 311.46 428.299L311.4 428.369C312.8 427.189 314.1 428.019 315.43 428.549C317.08 429.429 318.69 430.369 319.71 432.029C320.86 434.949 322.81 433.159 324.51 432.829C327.86 432.589 326.17 435.179 326.62 436.579C326.66 436.929 326.57 437.239 326.33 437.499C324.99 438.609 322.52 436.999 321.73 439.419C321.41 439.759 321.04 440.009 320.61 440.199C318.38 440.459 316.11 441.939 313.92 440.059C313.38 439.259 312.94 438.439 313.45 437.449C314.14 436.629 315.22 436.959 316.06 436.589C315.1 436.639 314.13 436.679 313.42 437.469C312.89 437.989 312.25 438.169 311.52 438.109C311.06 437.999 310.66 437.789 310.32 437.459C309.95 435.649 311.79 435.369 312.49 434.299C312.93 433.809 313.47 433.459 314.16 433.149C312.93 432.959 312.87 434.099 312.29 434.569C310.3 435.249 308.11 435.449 306.49 436.999C305.1 437.639 303.69 438.269 302.17 438.599Z" fill="#8C8A8F"/>
<path d="M315.75 429.269C314.3 428.969 312.85 428.669 311.4 428.359C311.34 427.869 311.08 427.039 311.24 426.949C317.21 423.539 322.6 419.009 329.46 417.289C332.14 418.989 330.87 420.459 329.2 421.909C326.93 423.859 323.83 424.529 321.76 426.779C321.46 427.129 321.13 427.439 320.77 427.729C319.17 428.469 317.69 429.649 315.75 429.269Z" fill="#E8E5EB"/>
<path d="M314.41 439.379C316.69 441.129 319.06 437.979 321.35 439.499C322.4 440.629 322.78 442.179 323.76 443.349C321.71 447.919 319.39 448.709 315.36 446.079C313.66 444.969 311.14 444.939 310.44 442.459C310.46 439.759 312.19 439.259 314.41 439.379Z" fill="#DBD9DF"/>
<path d="M307.46 431.358C307.38 435.228 302.82 434.408 301.52 436.998C299.67 437.698 297.98 436.858 297.54 435.348C297.14 433.968 299.22 433.728 300.24 433.058C302.15 431.808 304.08 430.568 306.39 430.158C307.02 430.328 307.35 430.748 307.46 431.358Z" fill="#E4E4E8"/>
<path d="M320.34 426.978C321.85 423.328 325.73 422.898 328.55 421.098C330.43 419.898 330.58 418.908 329.46 417.288L329.41 417.358C331.18 416.238 332.46 416.968 333.54 418.458C334.02 420.628 331.8 421.648 331.41 423.448C330.2 424.888 327.6 423.968 326.84 426.158C326.62 426.528 326.3 426.778 325.9 426.938C324.06 426.968 322.2 427.438 320.34 426.978Z" fill="#807D84"/>
<path d="M333.54 418.458C332.16 418.088 330.79 417.728 329.41 417.358C331.56 414.138 334.6 412.478 338.44 412.238C338.94 412.658 339.01 413.128 338.63 413.668C336.93 415.268 335.24 416.858 333.54 418.458Z" fill="#E1E2E9"/>
<path d="M326.62 436.569C324.22 436.699 327.62 432.409 324.16 433.339C323.09 434.259 322.47 433.609 321.93 432.699C321.48 431.009 322.32 429.949 323.68 429.149C324.1 428.929 324.55 428.779 325.01 428.709C326.53 428.599 327.68 429.289 328.66 430.369C328.32 432.549 328.15 434.779 326.62 436.569Z" fill="#DAD6DE"/>
<path d="M343.22 409.069C345.73 406.419 348.49 404.239 352.42 404.339L352.52 404.449C350.63 407.899 347.65 409.499 343.79 409.639C343.24 409.809 343.03 409.639 343.22 409.069Z" fill="#D1CBD5"/>
<path d="M310.05 437.29C310.53 437.4 311.01 437.51 311.49 437.63C310.75 440.23 308.88 440.78 306.49 440.38C304.78 440.44 303.41 439.67 302.16 438.6C302.97 436.64 304.6 436.28 306.47 436.38C307.84 436.01 309.25 435.46 310.05 437.29Z" fill="#CAC8CE"/>
<path d="M306.5 440.37C308.17 439.45 309.83 438.54 311.5 437.62C312.16 437.55 312.83 437.47 313.49 437.4L313.44 437.35C313.76 438.03 314.09 438.71 314.41 439.39C313.09 440.42 311.77 441.45 310.44 442.47C308.64 442.69 307.17 442.27 306.5 440.37Z" fill="#E5E3E9"/>
<path d="M328.66 430.37C327.26 430.05 325.86 429.73 324.46 429.42C323.9 427.59 325.8 427.41 326.47 426.4L326.57 426.299C327.76 425.189 329.03 424.489 330.62 425.549C331.84 427.919 329.34 428.77 328.66 430.37Z" fill="#8C8A8F"/>
<path d="M307.46 431.36C307.11 430.96 306.75 430.57 306.4 430.17C307.53 428.04 309.35 427.77 311.47 428.29C312.72 432.71 309.28 430.98 307.46 431.36Z" fill="#E9E6EC"/>
<path d="M323.76 443.348C320.54 443.568 320.72 441.678 321.35 439.498L321.58 439.248C322.85 438.198 324.11 438.278 325.36 439.278C325.66 440.958 325.17 442.338 323.76 443.348Z" fill="#8C8A8F"/>
<path d="M330.62 425.549C329.27 425.799 327.92 426.049 326.57 426.299C325.8 421.289 329.59 424.029 331.42 423.449C331.49 424.279 331.51 425.089 330.62 425.549Z" fill="#ECE9EF"/>
<path d="M325.37 439.279C324.11 439.269 322.85 439.259 321.59 439.249C321.43 435.959 321.8 435.819 326.34 437.489C326.01 438.089 325.69 438.679 325.37 439.279Z" fill="#E8E6EB"/>
<path d="M338.63 413.668C338.57 413.188 338.5 412.718 338.44 412.238C338.88 409.438 341.2 409.478 343.22 409.068C343.4 409.268 343.59 409.458 343.79 409.638C343.61 412.948 340.16 412.078 338.63 413.668Z" fill="#D1CBD5"/>
<path d="M352.42 404.339C352.16 403.169 352.81 402.609 353.76 402.089C355.02 401.389 356.44 400.879 357.02 402.469C357.53 403.879 355.7 403.929 354.86 404.379C354.24 404.709 353.31 404.449 352.52 404.459C352.52 404.449 352.42 404.339 352.42 404.339Z" fill="#E3DEE8"/>
<path d="M152.44 405.249C151.11 407.299 149.79 409.349 148.46 411.399C146.67 412.709 144.67 413.429 142.46 413.589C141.5 412.949 140.99 411.649 139.88 411.339C131.53 409.029 127.42 401.549 121.45 396.349C120.68 395.469 120.01 394.519 119.69 393.389C119.11 391.299 119.39 389.369 121.35 388.149C123.3 386.939 125.11 387.489 126.77 388.969C127.71 389.809 127.99 391.329 129.71 391.689C130.41 389.329 129.39 387.139 129.24 384.919C128.72 376.949 132.51 373.579 140.08 375.809C144.23 377.029 148.35 377.929 152.65 378.009C152.88 378.239 153.34 378.509 153.31 378.699C152.36 385.969 154.63 393.389 152.4 400.559C151.87 402.239 151.32 403.689 152.44 405.249Z" fill="#F0BBA3"/>
<path d="M152.65 378.01C148.75 380.55 145.05 378.91 141.31 377.53C132.9 374.42 129.54 377.23 130.79 386.27C131.08 388.39 131.35 390.53 131.55 392.66C131.64 393.66 131.56 394.82 130.39 395.11C129.23 395.4 128.72 394.3 128.16 393.51C127.78 392.97 127.42 392.4 127.18 391.79C126.18 389.26 124.69 386.88 121.76 388.78C119.12 390.49 120.28 393.13 121.69 395.34C121.95 395.75 122.36 396.07 122.7 396.43C122.99 397.1 123.09 397.75 122.47 398.31C115.87 392.12 113.69 384.32 115 375.67C116.04 368.85 125.17 361.6 132.27 361.23C139.64 360.85 146.07 363.32 151.52 368.12C154.67 370.9 156.23 374.27 152.65 378.01Z" fill="#1A1520"/>
<path d="M122.47 398.32C122.55 397.69 122.62 397.06 122.7 396.43C126.44 399.63 130.11 402.88 133.31 406.65C134.74 408.35 136.72 409.15 138.96 409.46C141.1 409.75 142.73 410.78 142.57 413.33C143.22 417.4 141.46 419.76 137.36 420.31C132.21 421 122.8 414.19 121.82 409.06C121.62 408.03 121.98 407.1 122.33 406.17C122.37 403.57 122.42 400.94 122.47 398.32Z" fill="#E2A180"/>
<path d="M122.32 406.189C123.02 413.469 130.2 417.859 136.23 419.159C140.19 420.009 142.27 417.279 142.56 413.339C143.98 411.029 146.26 411.319 148.46 411.389C147.76 415.789 148.95 420.959 143.53 423.429C139.38 418.299 137.55 422.459 135.42 425.449C129.36 426.859 126.61 421.769 122.86 418.829C121 417.369 119.8 415.089 118.3 413.179C119.18 410.589 120.16 408.049 122.32 406.189Z" fill="#B7BBDA"/>
<path d="M271.28 76.2581C270.42 78.4781 268.42 79.4381 266.55 80.5381C264.25 82.0981 262.02 81.0781 259.79 80.3481C249.57 75.6581 246.4 66.4081 244.38 56.4381C243.89 54.0181 243.71 51.5181 242.61 49.2581C242.06 48.1281 241.14 47.3581 239.82 47.8481C238.49 48.3481 238.49 49.5281 238.63 50.7581C238.88 52.8981 241.43 54.7681 239.39 57.1681C232.18 50.5181 230.02 42.0081 231.09 32.6781C231.86 25.9281 240.98 17.3681 248.13 16.4181C257.28 15.1981 265.72 17.2681 272.8 23.4681C278.98 28.8781 278.88 30.1781 272.51 35.2281C269.92 38.0881 266.55 37.7981 263.24 37.3381C260.43 36.9481 257.64 36.6481 254.81 36.7481C251.8 36.8581 250.62 38.4581 251.06 41.2981C251.82 46.2181 252.64 51.1281 253.23 56.0781C253.49 58.2881 254.73 60.0881 256.28 61.6681C259.56 65.0181 261.07 65.0081 264.57 61.7481C266.41 60.0281 268.01 57.3481 271.18 59.5581C272.42 61.3281 271.23 62.3381 269.94 63.1581C268.39 64.1581 267.06 65.2881 266.22 66.9881C267.55 69.1181 270.43 66.0081 271.3 68.3681C272.21 70.8981 271.79 73.6281 271.28 76.2581Z" fill="#1B1520"/>
<path d="M271.16 59.58C268.24 59.26 266.51 61.01 265.12 63.18C262.79 66.82 260.18 66.91 256.96 64.28C254.99 62.68 252.95 61.08 252.46 58.55C251.22 52.06 250.17 45.52 249.22 38.98C248.87 36.57 250.27 35.22 252.75 35.31C255.56 35.4 258.42 35.35 261.17 35.83C265.03 36.51 268.75 35.99 272.49 35.25C274.39 37.64 274.94 40.03 273.31 42.95C271.88 45.51 272.07 48.38 273.34 51.05C275.01 54.53 274.27 57.34 271.16 59.58Z" fill="#F1BBA3"/>
<path d="M257.43 94.3087C251.71 99.0887 245.47 102.979 238.38 105.389C237.48 106.119 237.28 107.789 235.59 107.459C233.61 105.029 231.44 108.159 229.4 107.259C228.5 104.019 229.51 100.719 229 97.4487C228.15 92.0387 226.33 86.9987 223.5 82.3187C223.37 81.6887 222.92 80.6887 223.15 80.4987C226.76 77.5087 230.37 74.4387 235.45 74.3887C238.09 74.9987 239.43 77.2587 241.18 78.9487C244.95 82.6187 248.7 86.2487 254.26 86.9987C256.32 89.0087 256.54 91.8087 257.43 94.3087Z" fill="#DEE0ED"/>
<path d="M223.51 82.3281C229.36 87.1981 232.26 99.4281 229.41 107.258C218.49 106.718 211.77 101.948 208.44 92.4181C212.28 87.2781 216.26 82.3681 223.51 82.3281Z" fill="#B3BCDF"/>
<path d="M239.39 57.1683C240.24 54.9983 238.11 53.9383 237.59 52.2883C236.8 49.8083 236.16 47.1183 239.41 46.0383C242.61 44.9783 243.97 47.2683 244.52 49.9183C245.81 56.0583 246.45 62.2883 249.33 68.0883C251.72 72.9083 255.01 76.5583 259.54 79.2383C259.27 80.3083 258.55 80.9883 257.52 81.1583C251.1 82.2283 237.58 74.7383 239.3 65.4283C239.32 62.6783 239.35 59.9183 239.39 57.1683Z" fill="#E2A588"/>
<path d="M239.28 65.4297C241.29 73.6497 247.79 79.4797 255.8 80.2997C257.22 80.4397 258.38 79.9197 259.52 79.2397C261.86 79.6697 264.2 80.1097 266.54 80.5397C265.86 82.2997 265.29 84.1197 264.47 85.8097C263.57 87.6397 263.28 85.2797 262.58 85.4297C259.88 83.3297 257.48 82.9897 255.6 86.4897C255.23 87.1797 254.5 87.6397 253.59 87.4997C249.28 89.0197 246.92 85.5297 244.31 83.4697C241.02 80.8697 238.37 77.4697 235.44 74.4097C235.02 70.6797 237.22 68.0797 239.28 65.4297Z" fill="#B6BDDC"/>
<path d="M71.1499 357.279C71.8899 359.869 72.1499 361.869 69.4599 363.409C55.1899 371.539 40.9899 379.799 26.7599 387.999C26.5099 388.139 26.1199 388.049 25.7299 388.069C25.0199 385.489 25.0199 383.389 27.8399 381.789C41.5399 373.999 55.1599 366.069 68.8199 358.199C69.5099 357.809 70.2999 357.609 71.1499 357.279Z" fill="#E0E8F4"/>
<path d="M71.43 366.979C72.79 375.299 64.56 374.208 61.39 378.328C59.74 372.548 60.91 371.299 71.43 366.979Z" fill="#DAE7F6"/>
<path d="M428.35 84.3191C427.55 84.8191 427.43 85.6391 427.34 86.4691C426.27 87.2291 426.56 88.3791 426.51 89.4291C425.46 91.2491 424.13 92.5591 421.78 92.3691C412.09 91.5891 404.3 83.6091 405.13 75.8891C405.29 74.4191 404.96 72.8791 405.18 71.4291C405.87 66.8591 405.17 63.4591 399.81 62.1891C397.47 61.6391 395.95 59.1891 394.23 57.3891C391.86 54.9191 392.85 52.5791 394.33 50.2091C399.71 44.0691 408.09 41.9091 416.09 44.7791C424.16 47.6691 428.92 53.3891 430.18 61.9191C430.48 63.9691 429.82 65.8891 429.13 67.7591C428.28 70.0291 427.75 72.5191 428.9 74.5491C430.89 78.0791 430 81.1491 428.35 84.3191Z" fill="#F0BBA4"/>
<path d="M385.52 139.338C377.63 141.198 371.71 137.748 366.5 132.328C368.52 126.758 368.04 120.748 369.55 115.058C371.12 109.128 373.12 103.678 379.57 101.408C389.65 104.198 393.3 111.838 389.65 122.038C387.65 127.638 386.05 133.368 385.52 139.338Z" fill="#DEE0EE"/>
<path d="M394.32 50.209C393.28 55.669 397.27 61.179 403.58 62.259C406.66 62.789 406.89 63.729 406.79 66.759C406.59 72.549 404.78 78.689 408.85 84.079C413.35 90.049 421.31 92.539 426.51 89.419C425.96 95.819 422.29 97.959 416.7 95.169C416 94.819 415.19 94.669 414.43 94.429C413.55 95.179 412.46 95.139 411.68 94.579C407.34 91.469 402.32 88.999 400.49 83.379C400.02 80.979 400.38 78.529 400.06 76.119C399.87 74.659 399.64 72.969 398 72.569C395.92 72.069 395.97 74.159 395.3 75.329C395.05 75.759 394.76 76.129 394.33 76.379C388 69.029 388 57.019 394.32 50.209Z" fill="#D9D7E8"/>
<path d="M361.37 121.4C358.94 119.75 357.71 122.01 356.3 123.11C323.26 149.01 290.26 174.96 257.24 200.89C256.46 201.5 255.55 201.93 254.69 202.45C254.61 201.79 254.52 201.13 254.44 200.47C269.67 188.42 284.89 176.35 300.14 164.31C319.18 149.28 338.24 134.27 357.31 119.26C358.22 118.54 359.25 117.98 360.22 117.34C360.6 118.7 360.98 120.05 361.37 121.4Z" fill="#298DFE"/>
<path d="M401.44 83.3998C404.46 88.6098 408.91 92.1598 414.42 94.4398C415.24 98.5198 412.12 101.37 408.24 100.09C401.32 97.8097 396.66 91.7298 396.21 84.3998C396.31 84.0398 396.41 83.6798 396.52 83.3098C397.57 82.5498 396.22 80.3698 398.14 80.2798C400.13 80.1998 400.55 82.1298 401.44 83.3998Z" fill="#E0A183"/>
<path d="M401.44 83.3988C399.81 82.6488 398.23 79.3188 396.52 83.3088C396.62 80.7388 395.67 78.4988 394.32 76.3788C394.36 75.5588 394.43 74.7388 394.44 73.9188C394.46 72.0688 395.07 70.6688 397.15 70.4588C399.15 70.2588 400.16 71.4888 400.81 73.1388C402.14 76.4888 401.27 79.9788 401.44 83.3988Z" fill="#E6BBAA"/>
<path d="M207.51 242.318C200.59 240.148 197.05 235.118 195.44 228.328C194.35 223.728 194.41 219.088 194.52 214.428C194.57 212.368 195.23 210.518 196.19 208.738C203.78 194.668 222.7 190.588 235.33 200.278C238.38 202.618 240.05 205.858 241.04 209.428C243.08 216.778 242.26 224.088 240.44 231.348C238.22 228.698 238.2 225.588 238.58 222.408C239.03 218.608 236.91 216.228 233.72 215.278C229.74 214.098 225.5 214.538 221.39 215.018C219.02 215.298 219.01 217.358 218.83 219.228C218.16 226.238 217.86 226.488 211.1 225.388C207.35 224.778 208.25 227.208 208.76 229.048C209.98 233.438 210.48 237.778 208.89 242.168C208.47 242.628 208.01 242.668 207.51 242.318Z" fill="#C3C6E2"/>
<path d="M208.64 242.219C208.03 237.549 209.59 232.649 206.73 228.159C205.76 226.629 206.52 224.609 208.15 223.289C209.91 221.869 210.75 223.519 211.94 224.279C215.25 226.409 217.18 225.419 217.47 221.489C217.54 220.499 217.57 219.489 217.46 218.499C217.02 214.559 218.78 213.069 222.66 213.359C225.8 213.589 228.97 213.329 232.12 213.439C237.26 213.609 240.77 217.919 239.7 222.999C239.08 225.929 240.83 228.519 240.43 231.349C238.03 234.679 238.9 239.159 236.49 242.489C235.15 243.509 233.8 244.519 232.46 245.539C231.5 245.849 230.54 246.159 229.57 246.469C222.55 244.259 216.39 240.589 211.13 235.379C209.79 237.639 212.2 240.999 208.64 242.219Z" fill="#F1BBA3"/>
<path d="M208.64 242.22C210.63 239.47 208.61 236.13 210.21 232.5C215.26 239.5 223.4 241.53 229.58 246.47C226.53 254.76 222.82 256.47 214.87 253.11C210.93 251.45 206.81 249.92 205.25 245.28C206 244.29 206.76 243.3 207.51 242.32C207.89 242.29 208.26 242.25 208.64 242.22Z" fill="#E3A080"/>
<path d="M76.52 202.309C106.56 208.989 136.6 215.669 166.64 222.349C170.83 223.279 175.02 224.259 179.21 225.209C178.91 225.919 178.62 226.639 178.32 227.349C164.6 224.279 150.88 221.199 137.15 218.149C117.93 213.869 98.71 209.609 79.49 205.349C79.37 203.489 74.99 205.789 76.52 202.309Z" fill="#298DFE"/>
<path d="M235.59 107.47C236.5 106.75 236.85 105.28 238.38 105.4C234.96 123.95 231.52 142.499 228.11 161.059C227.09 166.599 226.37 172.2 225.06 177.66C224.39 180.45 225.89 180.3 227.55 180.5C226 181.8 224.18 181.34 222.42 181.259C224.26 170.669 226.06 160.07 227.95 149.49C230.47 135.47 233.05 121.47 235.59 107.47Z" fill="#298DFE"/>
<path d="M398.52 244.38C397.5 245.09 396.48 245.81 395.46 246.52C392.93 245.67 392.67 248.19 391.43 249.24C390.03 247.14 388.15 245.69 385.84 244.59C380.26 241.95 375.3 238.43 371.61 233.35C370.64 231.62 369.42 229.98 368.76 228.13C368.11 226.31 368.46 224.35 370.59 223.57C372.35 222.92 373.92 223.49 374.72 225.31C376.82 230.13 379.12 228.28 380.95 225.31C383.78 220.73 388.71 218 391.2 213.16C392.03 211.55 393.15 212.66 394.16 213.07C396.87 214.16 399.64 214.3 402.45 213.53C401.75 221.56 404.29 229.64 401.63 237.7C400.83 240.13 399.72 242.23 398.52 244.38Z" fill="#F1BBA4"/>
<path d="M265.54 335.269C266.99 337.249 268.2 339.489 269.96 341.139C272.08 343.129 272.24 348.119 277.44 346.099C278.32 345.759 280.43 348.599 282.48 350.419C282.16 345.559 279.23 343.049 276.71 340.319C274.11 337.499 271.43 334.739 272.41 330.379C274.99 332.439 277.72 334.339 280.09 336.619C282.03 338.479 283.51 338.459 284.9 336.309C286.55 333.769 287.33 335.129 288.18 336.879C296 353.089 300.01 370.119 299.54 388.189C299.45 391.519 299.03 393.099 295.49 390.799C288.66 386.369 281.18 383.149 273.67 380.149C270.22 378.769 269.39 376.889 269.4 373.479C269.42 364.879 269.72 356.279 268.64 347.669C268.09 343.329 264.95 339.779 265.54 335.269Z" fill="#C2C6E2"/>
<path d="M275.73 311.379C280.15 314.229 284.04 317.899 288.9 320.089C290.36 320.749 291.43 321.639 291.49 323.369C288.28 332.779 284.02 333.859 276.81 327.039C275.99 326.259 275.31 325.339 274.57 324.479C276.98 320.289 276.94 315.889 275.73 311.379Z" fill="#E3A07F"/>
<path d="M315.18 400.269C312.31 399.709 309.45 399.149 306.59 398.589C306.31 398.409 306.01 398.289 305.68 398.249C306.79 394.629 311.72 394.349 312.49 390.449C315.39 392.209 318.28 393.969 321.48 395.919C319.16 397.519 317.17 398.889 315.18 400.269Z" fill="#11317E"/>
<path d="M227.38 557.279C224.65 560.939 220.54 563.579 219.31 568.329C216.13 570.249 216.14 567.759 216.61 566.029C217.59 562.429 219.02 558.969 220.49 555.509C225.06 544.779 231.04 534.379 231.53 522.249C231.57 521.299 232.01 520.369 232.27 519.429C232.35 523.049 232.28 526.679 232.57 530.279C232.84 533.509 233.75 531.299 234.43 530.369C234.49 529.359 234.63 528.309 235.35 527.579C244.99 517.759 256.16 511.159 270.45 513.649C287.09 516.559 294.59 526.849 293.54 545.389C292.91 556.619 291.79 556.899 282.71 550.519C280.26 548.799 277.8 547.079 275.13 545.709C260.29 538.099 247.61 536.609 234.08 549.769C231.13 551.619 229.54 554.709 227.38 557.279Z" fill="#042D8B"/>
<path d="M242.16 572.689C248.63 582.169 247.19 591.179 240.28 599.659C235.95 604.969 232.18 610.439 232.36 618.749C226.35 611.069 226.83 603.389 227.93 595.619C228.51 591.509 230.53 587.709 230.59 583.479C231.28 582.119 231.85 580.739 231.19 579.189C230.07 576.269 228.52 573.599 226.46 571.239C224.78 568.809 220.5 572.559 219.58 568.339C224.63 565.229 229.73 566.709 234.84 568.159C238.36 567.899 240.63 569.699 242.16 572.689Z" fill="#1491EA"/>
<path d="M227.37 488.49C227.78 483.26 225.75 478.17 226.48 472.91C226.7 471.35 225.99 469.59 227.53 468.34C231.42 469.42 232.82 471.75 232.64 475.97C232.23 485.76 232.4 495.57 232.34 505.38C230.69 499.75 229.03 494.12 227.37 488.49Z" fill="#181520"/>
<path d="M226.45 571.238C230.23 572.578 231.82 575.218 231.18 579.188C227.9 580.998 224.61 582.808 221.33 584.628C221.18 580.828 221.82 577.118 221.15 573.178C220.62 570.038 224.63 572.018 226.45 571.238Z" fill="#0D1432"/>
<path d="M49.58 221.32C49.5 222.64 49.56 223.99 49.31 225.27C48.55 229.2 48.1 233.33 42.52 233.41C36.27 233.5 32.72 231.06 31.8 225.48C31.05 220.91 30.57 216.29 29.76 211.74C29.21 208.63 28.05 205.87 23.94 206.63C21.79 207.03 22.79 205.18 22.35 204.35C24.51 198.28 24.8 191.98 24.54 185.64C24.28 179.43 24.74 173.28 26.71 167.4C29.23 159.9 33.79 154.01 42.03 152.55C50.75 151.01 58.63 152.99 64.5 160.17C68.17 164.65 68.48 169.03 65.73 173.28C60.91 168.29 59.59 168.39 54.23 173.77C52.22 175.79 50.93 178.27 49.39 180.58C49.02 181.16 48.62 181.73 48.23 182.29C43.87 186.82 43.34 186.83 39.52 182.29C38.79 181.42 38.08 179.99 36.81 180.73C35.3 181.61 36.06 183.06 36.79 184.2C38.08 186.24 40.54 187.65 40.14 190.58C39.02 195.09 40.26 199.11 42.71 202.86C44.44 205.5 45.78 208.37 47.44 211.04C49.37 214.23 49.91 217.69 49.58 221.32Z" fill="#053773"/>
<path d="M39.49 190.419C39.56 187.989 37.24 187.359 36.03 185.909C34.65 184.269 33.95 182.519 34.59 180.459C34.95 179.299 35.81 178.549 37.18 178.589C39.46 178.649 40.06 180.389 40.85 182.049C43.42 187.449 45.49 183.519 47.65 181.629C52.9 179.109 54.33 179.469 56.89 184.379C58.14 186.769 59.49 186.559 61.17 185.059C62.08 184.249 62.29 183.039 62.81 182.009C63.32 180.999 63.55 179.509 64.89 179.469C66.58 179.409 66.51 181.299 67.3 182.269C67.64 182.939 67.83 183.619 67.59 184.369C66.77 185.549 66.29 186.819 66.5 188.289C65.94 191.859 65.26 195.389 63.22 198.479C62.2 199.899 61.04 201.169 59.44 201.979C58.48 202.339 57.51 202.329 56.54 202.029C51.21 199.389 46.04 196.429 40.97 193.309C39.88 192.639 38.27 192.239 39.49 190.419Z" fill="#EFBBA4"/>
<path d="M59.39 201.398C60.11 200.038 61.12 198.998 62.57 198.408C64.87 200.048 67.64 201.048 69.47 203.348C69.7 205.808 71.41 207.518 72.61 209.478C69.74 216.848 64.52 222.598 59.57 228.538C57.28 228.868 56.83 227.178 56.37 225.578C55.46 222.388 54.05 219.408 52.77 216.378C52.39 215.478 51.61 214.548 52.52 213.688C53.41 212.848 54.35 213.648 55.24 214.028C59.25 215.718 59.62 215.308 60.25 211.058C60.75 207.688 58.1 204.738 59.39 201.398Z" fill="#B2BADC"/>
<path d="M48.6899 180.28C50.1399 176.3 52.6299 173.09 55.9099 170.45C61.7299 165.77 63.4299 166.25 65.7399 173.27C65.6699 174.01 65.5999 174.74 65.5299 175.48C66.6899 177.4 65.9699 178.64 63.9899 179.14C58.9599 180.41 53.9299 181.88 48.6899 180.28Z" fill="#EDBBA6"/>
<path d="M69.4699 203.349C66.9399 202.019 63.1899 202.409 62.5699 198.409C64.4199 195.239 63.4499 190.989 66.4799 188.279C68.9399 193.019 71.6999 197.689 69.4699 203.349Z" fill="#15386D"/>
<path d="M48.6899 180.278C54.1299 181.678 58.7999 177.648 64.1399 178.098C65.7699 178.238 65.5899 176.648 65.5299 175.488C71.9599 175.528 72.2799 175.908 70.3699 181.238C66.7099 178.078 68.2799 183.218 66.7799 183.498C64.6499 183.108 66.3999 180.738 64.8599 179.928C64.1099 181.898 63.6299 184.028 62.5399 185.778C60.7499 188.668 56.6699 188.918 56.2999 186.278C55.4399 180.098 51.2199 181.828 47.6499 181.638C47.9899 181.178 48.3399 180.728 48.6899 180.278Z" fill="#62453F"/>
<path d="M66.78 183.49C66.62 182.85 66.35 182.22 66.32 181.57C66.21 179.68 66.3 177.54 68.72 177.48C71.53 177.41 69.85 179.94 70.37 181.23C70.05 182.82 68.81 183.58 67.58 184.36C67.31 184.07 67.04 183.78 66.78 183.49Z" fill="#CCD1DF"/>
<path d="M371.61 233.35C377.73 237.42 382.91 242.9 390.12 245.32C391.96 245.94 391.33 247.81 391.43 249.24C388.33 255.25 385.63 256.39 379.18 254.47C377.94 254.1 376.67 253.81 375.42 253.49C371.07 247.36 368.54 240.89 371.61 233.35Z" fill="#E2A17F"/>
<path d="M232.4 549.409C246 536.759 258.59 535.129 275.06 544.229C280.4 547.179 285.37 550.789 290.81 554.289C292.95 545.309 293.35 536.639 289.6 528.069C285.51 518.719 272.4 512.709 260.38 514.739C249.67 516.539 241.53 522.559 234.44 530.359C232.37 524.929 233.97 519.299 233.51 513.779C233.36 511.969 233.52 510.139 233.54 508.319C235.7 504.619 239.84 503.589 243.11 501.459C246.56 499.209 250.13 497.089 253.73 495.039C261.05 497.889 267.45 502.389 274.15 506.349C281.31 510.589 288.73 514.359 295.89 518.589C297.49 519.539 299.3 519.879 301.11 520.209C302.64 520.489 304.11 520.889 303.98 522.949C303.93 547.839 304.04 572.719 303.93 597.589C303.03 599.489 301.46 599.089 300.16 598.369C291.1 593.309 281.93 588.429 273.24 582.729C272.67 582.359 272.46 581.689 272.29 581.039C271.27 579.899 270.69 578.619 270.58 577.049C269.24 559.229 249.95 551.899 236.9 554.609C235.46 554.909 234.01 555.129 232.56 555.389C230.62 553.449 231.51 551.429 232.4 549.409Z" fill="#E0E3EC"/>
<path d="M302.47 598.409C303.81 597.699 303.46 596.419 303.46 595.319C303.48 570.669 303.49 546.019 303.49 521.379C302.51 520.529 302.21 518.679 300.72 518.689C294.74 518.719 290.67 514.659 285.95 512.009C273.49 504.999 261.21 497.679 248.46 491.199C244.73 489.299 241.33 486.889 239.59 482.799C239.21 480.889 238.9 478.989 240.62 477.489C244.32 476.359 246.03 478.739 247.57 481.419C262.49 491.709 278.77 499.699 294.31 508.929C297.13 510.609 299.59 513.829 303.65 512.519C304.41 512.499 305.09 512.629 305.49 513.369C303.55 515.509 304.56 518.109 304.55 520.459C304.44 545.379 304.45 570.299 304.39 595.219C304.39 596.629 304.94 598.249 303.48 599.379C302.57 599.659 302.29 599.269 302.47 598.409Z" fill="#9290A9"/>
<path d="M240.62 477.48C240.61 479.42 240.6 481.37 240.6 483.31C241.86 487.13 244.57 489.58 248.06 491.37C250.07 492.4 252.3 493.23 253.41 495.47C253.4 496.6 252.72 497.19 251.79 497.72C245.69 501.22 239.62 504.78 233.53 508.31C233.53 496.36 233.53 484.42 233.53 472.02C236.68 473.24 239.73 473.86 240.62 477.48Z" fill="#FDFDFC"/>
<path d="M303.65 512.509C303.24 516.899 300.87 514.029 299.67 513.359C289.84 507.869 280.1 502.209 270.32 496.609C264.43 493.229 258.54 489.849 252.62 486.509C250.44 485.279 248.2 484.159 247.57 481.409C252.65 480.809 255.99 484.619 259.79 486.739C274.58 495.009 289.05 503.869 303.65 512.509Z" fill="#E3E6F4"/>
<path d="M59.39 201.398C61.1 205.398 62.17 209.458 61.19 213.878C60.42 217.358 59.08 218.918 55.82 216.018C54.99 215.278 54.07 214.638 52.8 214.178C55.63 218.738 55.94 224.388 59.57 228.538C59.2 229.828 58.83 231.108 58.45 232.398C58.1 232.068 57.74 231.738 57.39 231.408C54.72 226.598 54.46 220.808 51.38 215.938C49.57 217.528 51.42 220.038 49.57 221.318C48.49 217.898 47.42 214.488 46.34 211.068C46.39 210.568 46.59 209.938 47.02 209.898C52.27 209.408 54.47 205.498 56.59 201.488C57.53 201.458 58.46 201.428 59.39 201.398Z" fill="#DDDFEE"/>
<path d="M343.3 501.398C344.9 499.388 346.84 497.898 349.42 497.388C351.86 500.038 350.09 503.438 351.02 506.318C353.76 502.798 355.83 502.868 357.83 506.618C358.53 507.948 358.8 509.428 359.21 510.848C360.86 516.508 364.68 519.278 370.52 519.048C374.52 518.888 375.1 517.928 373.43 514.118C372.83 512.758 372.09 511.468 371.44 510.118C369.6 506.078 367.44 502.188 365.57 498.158C364.95 495.238 362.53 492.548 364.45 489.308C368.77 484.928 373.69 481.528 379.8 480.128C381.19 479.448 382.4 480.038 383.57 480.698C392.54 485.808 401.45 491.028 410.38 496.198C411.65 496.928 413.02 497.708 413.32 499.398C392.26 511.668 371.2 523.958 350.13 536.208C338.11 543.188 326.05 550.108 313.19 557.518C313.19 543.638 313.19 530.588 313.19 517.538C319.09 515.098 324.13 511.138 329.88 508.048C331.61 510.648 329.24 513.958 331.44 516.318C333.57 514.368 334.91 515.028 335.77 517.568C336.72 520.388 336.75 523.498 338.38 526.098C339.64 528.108 341.07 530.288 343.83 529.438C346.69 528.558 347.27 525.938 346.89 523.338C346.17 518.418 344.7 513.638 344.07 508.688C344.01 506.258 342.06 503.998 343.3 501.398Z" fill="#E0E3EC"/>
<path d="M388.56 474.21C410.28 461.4 432 448.6 454.07 435.59C454.31 437.99 454.49 439.76 454.67 441.53C454.93 442.14 454.88 441.28 454.96 441.93C456.3 453.41 457.35 464.89 454.3 476.28C445.09 481.56 435.83 486.75 426.7 492.16C424.16 493.66 422.2 493.9 419.52 492.29C409.28 486.12 398.89 480.21 388.56 474.21Z" fill="#E0E3EC"/>
<path d="M454.48 485.398C454.47 494.328 454.45 503.268 454.44 512.198C446.82 507.868 439.2 503.538 430.87 498.808C439.1 494.138 446.79 489.768 454.48 485.398Z" fill="#E0E3EB"/>
<path d="M413.32 499.419C402.15 492.999 390.98 486.568 379.8 480.148C380.23 478.238 381.86 477.799 383.39 477.229C387.15 481.539 392.63 483.218 397.25 486.208C402.62 489.688 408.2 492.859 413.81 495.949C417.24 497.829 415.45 498.549 413.32 499.419Z" fill="#37323E"/>
<path d="M454.29 476.278C455.13 464.698 454.66 453.108 454.67 441.528C455.95 438.818 453.37 434.298 458.5 433.398C457.29 445.478 457.49 457.608 457.57 469.718C457.58 472.628 456.9 474.848 454.29 476.278Z" fill="#3F3A46"/>
<path d="M372.44 509.349C373.3 510.959 374.21 512.539 375.03 514.169C377.32 518.749 376.28 520.539 371.24 520.769C364.15 521.099 359.42 517.459 357.82 510.449C357.6 509.479 357.46 508.469 357.04 507.589C356.4 506.249 355.6 504.449 354.07 504.549C351.85 504.689 353.17 506.879 352.77 508.109C352.48 508.979 352.86 510.329 351.43 510.349C349.8 510.369 349.79 508.999 349.75 507.849C349.62 504.369 349.53 500.879 349.43 497.399C350.02 496.279 350.98 495.679 352.2 495.459C356.9 498.749 361.95 501.599 365.21 506.589C366.24 508.169 367.84 509.049 369.81 509.029C370.69 509.019 371.59 508.989 372.44 509.349Z" fill="#2D3261"/>
<path d="M370.45 510.259C368.29 511.019 366.31 510.429 365.12 508.679C362.19 504.349 358.81 500.639 354.02 498.299C353.16 497.879 352.79 496.429 352.19 495.459C356.41 493.679 359.04 488.719 364.45 489.329C365.13 492.169 365.81 495.019 366.49 497.859C367.13 500.729 368.69 503.199 369.9 505.819C370.56 507.219 371.78 508.599 370.45 510.259Z" fill="#DFA185"/>
<path d="M345.29 508.698C346.24 513.368 347.34 518.018 348.1 522.728C348.68 526.308 348.51 530.058 344.15 531.168C340.12 532.198 338.03 529.268 336.77 526.048C335.75 523.458 334.91 520.678 334.71 517.928C334.48 514.888 332.6 516.668 331.45 516.338C332.13 513.128 329.47 509.308 333.2 506.648C335.92 509.128 335.62 513.048 337.62 515.888C338.76 517.498 339.62 519.808 342.06 518.978C344.45 518.168 343.9 515.858 343.83 513.848C343.76 512.038 341.98 509.598 345.29 508.698Z" fill="#2F3261"/>
<path d="M345.29 508.699C343.61 510.689 345.11 512.729 345.18 514.759C345.26 517.079 345.42 519.759 342.78 520.699C339.88 521.729 338.15 519.519 336.94 517.319C335.11 513.999 333.53 510.529 333.19 506.659C336.44 504.679 338.84 501.069 343.3 501.409C343.86 503.859 345.4 506.059 345.29 508.699Z" fill="#EAB9A4"/>
<path d="M302.47 598.409C302.81 598.729 303.15 599.059 303.48 599.379C303.48 600.539 303.52 601.699 303.48 602.849C303.41 605.169 302.34 605.969 300.33 604.579C292.21 598.939 283.39 594.539 274.72 589.859C272.09 588.439 271.3 585.999 271.34 583.179C271.17 582.259 271.37 581.499 272.28 581.059C282.34 586.839 292.41 592.619 302.47 598.409Z" fill="#1B161F"/>
<path d="M277.57 448.46C280.79 446.73 284.16 445.68 287.82 446.67C289.73 447.19 291.51 448.08 291.67 450.48C285.07 454.75 280.19 454.05 277.57 448.46Z" fill="#192036"/>
<path d="M292.24 459.049C293.81 460.639 293.57 462.289 292.63 464.439C290.8 462.519 291.82 460.739 292.24 459.049Z" fill="#6E9CE3"/>
<path d="M232.4 549.408C232.45 551.408 232.5 553.398 232.55 555.398C231.16 556.928 229.69 558.268 227.38 557.278C227.05 553.368 230.58 551.938 232.4 549.408Z" fill="#121B35"/>
<path d="M242.16 572.689C239.57 571.419 237.94 568.589 234.83 568.159C238.84 565.089 240.91 570.239 244.16 570.359C244.39 571.909 242.95 572.029 242.16 572.689Z" fill="#061E48"/>
<path d="M315.75 429.269C317.13 428.339 318.34 426.999 320.27 427.399C320.71 427.539 321.05 427.809 321.31 428.189C322.27 429.909 321.7 431.189 320.17 432.189C319.95 432.239 319.73 432.289 319.52 432.339C318.26 431.309 316.43 430.999 315.75 429.269Z" fill="#E9EAEC"/>
<path d="M310.05 437.289C308.86 436.989 307.67 436.679 306.47 436.379C307.75 433.459 309.98 433.509 312.5 434.429L312.44 434.379C312.62 436.139 311.06 436.489 310.05 437.289Z" fill="#E5E3E9"/>
<path d="M312.51 434.429C311.81 428.889 314.81 431.819 317.12 432.249C315.95 434.519 314.09 434.199 312.45 434.369L312.51 434.429Z" fill="#EAE9EE"/>
<path d="M313.49 437.399C314.98 434.709 316.83 434.589 319.02 436.549C317.46 439.419 315.34 437.569 313.44 437.349L313.49 437.399Z" fill="#EEEDF1"/>
<path d="M322.5 432.698C323.05 432.908 323.6 433.128 324.16 433.338C323.17 435.108 321.77 435.928 319.77 435.098C318.03 434.378 319.36 433.288 319.51 432.338L319.45 432.398C320.54 431.708 321.61 431.338 322.5 432.698Z" fill="#EAEAED"/>
<path d="M320.43 428.229C320.43 427.949 320.37 427.669 320.27 427.409C320.27 427.409 320.35 426.979 320.35 426.989C322.29 425.739 324.34 425.629 326.47 426.409C326.55 427.919 325.03 428.359 324.46 429.429L324.52 429.359C322.73 430.529 321.67 429.049 320.43 428.229Z" fill="#E1E1E6"/>
<path d="M320.43 428.229C321.79 428.599 323.16 428.979 324.52 429.349C323.88 430.479 322.55 431.209 322.5 432.699C321.48 432.599 320.46 432.499 319.44 432.409C320.15 431.099 322.08 430.079 320.43 428.229Z" fill="#8C8A8F"/>
<path d="M246.98 176.749C254.05 166.489 253.6 155.569 252.93 144.579C252.29 133.979 259.64 129.029 267.48 124.529C279.73 117.499 292.01 110.519 304.28 103.529C310.54 99.9592 313.48 101.709 313.54 109.039C313.59 114.199 313.48 119.359 313.64 124.509C313.88 132.009 311.02 137.659 304.39 141.429C294.29 147.179 284.34 153.199 274.18 158.849C267.9 162.339 261.81 165.919 257.04 171.459C254.68 174.199 251.84 176.469 246.98 176.749Z" fill="#FFA048"/>
<path d="M253.6 87.4891C254.24 86.5591 254.87 85.6291 255.54 84.7091C258.54 80.5691 259.43 80.6591 262.59 85.4091C262.32 89.2091 260.12 91.8991 257.44 94.2991C254.39 93.0291 255.52 89.3991 253.6 87.4891Z" fill="#346BBE"/>
<path d="M56.5999 201.478C55.9299 207.808 54.5099 209.138 46.3599 211.068C44.1199 207.288 41.7199 203.588 39.7099 199.698C38.1899 196.758 37.5399 193.548 39.4999 190.408C43.7499 194.368 49.0699 196.608 54.0699 199.328C55.1199 199.908 56.0299 200.428 56.5999 201.478Z" fill="#E1A280"/>
<path d="M60.79 179.578C62.76 179.648 62.8 180.998 62.63 182.368C62.36 184.538 61.3 186.258 58.98 186.358C57.06 186.438 56.52 184.808 56.74 183.218C57.05 180.958 58.63 179.878 60.79 179.578Z" fill="#E5BDAC"/>
<path d="M253.41 495.469C249.76 493.549 245.83 492.079 242.83 489.119C241.26 487.569 240.23 485.669 240.59 483.309C246.37 490.479 255.24 492.839 262.72 497.329C272.82 503.389 283.31 508.789 293.24 515.149C295.01 516.279 297.02 517.959 299.2 517.299C303.39 516.049 303.98 517.979 303.49 521.359C296.45 522.509 291.69 517.499 286.32 514.599C275.15 508.599 264.36 501.889 253.41 495.469Z" fill="#C4C4D4"/>
<path d="M370.45 510.259C370.69 505.629 365.99 502.569 366.5 497.859C368.48 501.689 370.46 505.519 372.45 509.349C371.78 509.659 371.12 509.959 370.45 510.259Z" fill="#816867"/>
<path d="M266.46 139.359C279.12 132.139 291.78 124.919 304.44 117.699C305.65 117.009 307.1 115.389 308.21 117.329C309.16 119.009 308 120.289 306.32 121.279C297.33 126.559 288.05 131.369 279.48 137.349C275.04 140.539 270.39 143.389 265.44 145.699C264.13 146.309 262.21 147.899 261.21 145.619C260.36 143.679 261.06 141.769 263.32 140.729C264.36 140.249 265.54 140.099 266.46 139.359Z" fill="#EEE7D2"/>
<path d="M266.46 139.36C265.03 141.5 260.27 141.27 261.9 145.74C268.51 144.36 272.78 138.31 279.47 137.35C283.47 142.55 283.39 143.15 278.48 145.38C278.19 143.86 278.43 142.01 275.72 143.5C271.96 145.58 268.18 147.63 264.51 149.86C263.29 150.6 262.27 151.93 260.55 151.47C260.44 149.88 261.21 148.48 260.83 146.7C259.71 141.47 260.73 140.4 266.46 139.36Z" fill="#E5CF70"/>
<path d="M260.55 151.46C265.09 147.52 270.48 144.97 275.75 142.25C277.1 141.55 278.69 139.61 280.07 141.16C281.52 142.79 278.97 143.91 278.47 145.37C273.89 147.99 269.33 150.64 264.73 153.21C262.69 154.36 260.53 155.42 260.55 151.46Z" fill="#EDE7D0"/>
</g>
<defs>
<clipPath id="clip0_5440_20795">
<rect width="531.06" height="683.59" fill="white"/>
</clipPath>
</defs>
</svg>
