<svg width="616" height="540" viewBox="0 0 616 540" fill="none" xmlns="http://www.w3.org/2000/svg">
<g opacity="0.2" filter="url(#filter0_f_4543_54043)">
<circle cx="308.5" cy="269.5" r="160.5" fill="#298DFE"/>
</g>
<g clip-path="url(#clip0_4543_54043)">
<path d="M332.776 169.216L307.977 183.597L283.083 169.381L307.859 155L332.776 169.216Z" fill="#78B6FD"/>
<path d="M332.776 169.217L332.87 197.79L308.071 212.195L307.977 183.598L332.776 169.217Z" fill="#298DFE"/>
<path d="M307.977 183.597L308.071 212.194L283.177 197.978L283.083 169.381L307.977 183.597Z" fill="#54A2FB"/>
<path d="M332.918 255.713L308.071 269.999L283.225 255.713L308.071 241.402L332.918 255.713Z" fill="#F4BC89"/>
<path d="M332.918 255.713V284.286L308.071 298.597V270L332.918 255.713Z" fill="#FFA048"/>
<path d="M308.071 270V298.597L283.225 284.286V255.713L308.071 270Z" fill="#FFB169"/>
<path d="M332.705 342.023L307.929 356.404H307.905L283.012 342.211L307.811 327.807L332.705 342.023Z" fill="#78B6FD"/>
<path d="M332.705 342.021L332.823 370.618L308.023 384.999L307.905 356.402H307.929L332.705 342.021Z" fill="#298DFE"/>
<path d="M307.905 356.404L308.024 385.001L283.13 370.784L283.012 342.211L307.905 356.404Z" fill="#54A2FB"/>
<path d="M407.858 240.744L382.917 226.622V226.599L382.729 198.025L407.669 212.147L407.858 240.744Z" fill="#78B6FD"/>
<path d="M407.858 240.743L383.106 255.195L358.142 241.073L382.917 226.598V226.621L407.858 240.743Z" fill="#298DFE"/>
<path d="M382.918 226.599L358.142 241.074L357.977 212.477L382.729 198.025L382.918 226.599Z" fill="#54A2FB"/>
<path d="M257.882 327.524L232.941 313.378L232.752 284.781L257.693 298.927L257.882 327.524Z" fill="#78B6FD"/>
<path d="M257.882 327.524L233.13 341.976L208.165 327.83L232.941 313.379L257.882 327.524Z" fill="#298DFE"/>
<path d="M232.941 313.378L208.165 327.83L208 299.233L232.752 284.781L232.941 313.378Z" fill="#54A2FB"/>
<path d="M208.142 238.791L233.083 224.669V224.646L233.272 196.049L208.331 210.194L208.142 238.791Z" fill="#78B6FD"/>
<path d="M208.142 238.79L232.894 253.242L257.858 239.096L233.083 224.645V224.668L208.142 238.79Z" fill="#298DFE"/>
<path d="M233.083 224.646L257.859 239.097L258.024 210.524L233.272 196.049L233.083 224.646Z" fill="#54A2FB"/>
<path d="M358.118 325.547L383.059 311.425L383.248 282.828L358.307 296.95L358.118 325.547Z" fill="#78B6FD"/>
<path d="M358.118 325.546L382.87 340.021L407.835 325.875L383.059 311.424L358.118 325.546Z" fill="#298DFE"/>
<path d="M383.059 311.425L407.834 325.877L408 297.28L383.248 282.828L383.059 311.425Z" fill="#54A2FB"/>
</g>
<circle opacity="0.1" cx="92" cy="104" r="36" fill="white"/>
<path d="M76 124C95.9501 124 112 107.95 112 88C112 68.0499 95.9501 52 76 52C56.0499 52 40 68.0499 40 88C40 107.95 56.0499 124 76 124Z" fill="#2775CA"/>
<path d="M85.9002 93.7008C85.9002 88.4509 82.7502 86.6509 76.4502 85.901C71.9502 85.3009 71.0502 84.101 71.0502 82.0008C71.0502 79.9005 72.5503 78.5509 75.5502 78.5509C78.2502 78.5509 79.7503 79.4509 80.5002 81.7009C80.6503 82.1509 81.1003 82.4508 81.5503 82.4508H83.9501C84.5502 82.4508 85.0002 82.0008 85.0002 81.401V81.2509C84.4001 77.9508 81.7001 75.4009 78.2502 75.101V71.501C78.2502 70.9009 77.8002 70.4509 77.0503 70.3008H74.8003C74.2002 70.3008 73.7502 70.7508 73.6001 71.501V74.9509C69.1001 75.551 66.2503 78.5509 66.2503 82.301C66.2503 87.251 69.2502 89.2008 75.5502 89.951C79.7503 90.7009 81.1003 91.6009 81.1003 94.001C81.1003 96.4011 79.0001 98.051 76.1503 98.051C72.2501 98.051 70.9001 96.4008 70.4501 94.1508C70.3003 93.551 69.8503 93.2508 69.4003 93.2508H66.8501C66.2503 93.2508 65.8003 93.7008 65.8003 94.3009V94.451C66.4001 98.2008 68.8002 100.901 73.7502 101.651V105.251C73.7502 105.851 74.2002 106.301 74.9501 106.451H77.2001C77.8002 106.451 78.2502 106.001 78.4003 105.251V101.651C82.9003 100.901 85.9002 97.7508 85.9002 93.7008Z" fill="white"/>
<path fill-rule="evenodd" clip-rule="evenodd" d="M55.0001 80.6498C50.6499 92.2 56.65 105.25 68.35 109.45C68.8 109.75 69.25 110.35 69.25 110.8V112.9C69.25 113.2 69.25 113.35 69.0999 113.5C68.9501 114.1 68.35 114.4 67.7499 114.1C59.35 111.4 52.8999 104.95 50.1999 96.5499C45.6999 82.3 53.5 67.1498 67.7499 62.6498C67.9 62.5 68.1999 62.5 68.35 62.5C68.9501 62.6498 69.25 63.0998 69.25 63.6999V65.7998C69.25 66.55 68.9501 67 68.35 67.2999C62.2001 69.5499 57.2501 74.3498 55.0001 80.6498ZM82.9001 63.2499C83.0499 62.6498 83.65 62.3499 84.2501 62.6498C92.4999 65.3498 99.1001 71.7999 101.8 80.3499C106.3 94.5998 98.5 109.75 84.2501 114.25C84.1 114.4 83.8001 114.4 83.65 114.4C83.0499 114.25 82.75 113.8 82.75 113.2V111.1C82.75 110.35 83.0499 109.9 83.65 109.6C89.7999 107.35 94.7499 102.55 96.9999 96.25C101.35 84.6998 95.35 71.6498 83.65 67.45C83.2 67.1498 82.75 66.55 82.75 65.9499V63.85C82.75 63.5498 82.75 63.4 82.9001 63.2499Z" fill="white"/>
<circle cx="540" cy="88" r="36" fill="#13B5EC"/>
<path fill-rule="evenodd" clip-rule="evenodd" d="M543 80.8022L551.1 76.0535V85.551L543 80.8022ZM551.1 101.154L540.3 107.486L529.5 101.154V90.0736L540.3 96.4053L551.1 90.0736V101.154ZM529.5 76.0535L537.6 80.8022L529.5 85.551V76.0535ZM541.65 83.0635L549.75 87.8123L541.65 92.561V83.0635ZM538.95 92.561L530.85 87.8123L538.95 83.0635V92.561ZM549.75 73.7922L540.3 79.2193L530.85 73.7922L540.3 68.1389L549.75 73.7922ZM526.8 72.8877V102.511L540.3 110.199L553.8 102.511V72.8877L540.3 65.1992L526.8 72.8877Z" fill="white"/>
<circle opacity="0.1" cx="524" cy="436" r="36" fill="white"/>
<path d="M540 488C559.95 488 576 471.95 576 452C576 432.05 559.95 416 540 416C520.05 416 504 432.05 504 452C504 471.95 520.05 488 540 488Z" fill="#2775CA"/>
<path d="M549.9 457.701C549.9 452.451 546.75 450.651 540.45 449.901C535.95 449.301 535.05 448.101 535.05 446.001C535.05 443.901 536.55 442.551 539.55 442.551C542.25 442.551 543.75 443.451 544.5 445.701C544.65 446.151 545.1 446.451 545.55 446.451H547.95C548.55 446.451 549 446.001 549 445.401V445.251C548.4 441.951 545.7 439.401 542.25 439.101V435.501C542.25 434.901 541.8 434.451 541.05 434.301H538.8C538.2 434.301 537.75 434.751 537.6 435.501V438.951C533.1 439.551 530.25 442.551 530.25 446.301C530.25 451.251 533.25 453.201 539.55 453.951C543.75 454.701 545.1 455.601 545.1 458.001C545.1 460.401 543 462.051 540.15 462.051C536.25 462.051 534.9 460.401 534.45 458.151C534.3 457.551 533.85 457.251 533.4 457.251H530.85C530.25 457.251 529.8 457.701 529.8 458.301V458.451C530.4 462.201 532.8 464.901 537.75 465.651V469.251C537.75 469.851 538.2 470.301 538.95 470.451H541.2C541.8 470.451 542.25 470.001 542.4 469.251V465.651C546.9 464.901 549.9 461.751 549.9 457.701Z" fill="white"/>
<path fill-rule="evenodd" clip-rule="evenodd" d="M519 444.65C514.65 456.2 520.65 469.25 532.35 473.45C532.8 473.75 533.25 474.35 533.25 474.8V476.9C533.25 477.2 533.25 477.35 533.1 477.5C532.95 478.1 532.35 478.4 531.75 478.1C523.35 475.4 516.9 468.95 514.2 460.55C509.7 446.3 517.5 431.15 531.75 426.65C531.9 426.5 532.2 426.5 532.35 426.5C532.95 426.65 533.25 427.1 533.25 427.7V429.8C533.25 430.55 532.95 431 532.35 431.3C526.2 433.55 521.25 438.35 519 444.65ZM546.9 427.25C547.05 426.65 547.65 426.35 548.25 426.65C556.5 429.35 563.1 435.8 565.8 444.35C570.3 458.6 562.5 473.75 548.25 478.25C548.1 478.4 547.8 478.4 547.65 478.4C547.05 478.25 546.75 477.8 546.75 477.2V475.1C546.75 474.35 547.05 473.9 547.65 473.6C553.8 471.35 558.75 466.55 561 460.25C565.35 448.7 559.35 435.65 547.65 431.45C547.2 431.15 546.75 430.55 546.75 429.95V427.85C546.75 427.55 546.75 427.4 546.9 427.25Z" fill="white"/>
<g clip-path="url(#clip1_4543_54043)">
<path d="M76 488C95.8823 488 112 471.882 112 452C112 432.118 95.8823 416 76 416C56.1177 416 40 432.118 40 452C40 471.882 56.1177 488 76 488Z" fill="#627EEA"/>
<path d="M77.1206 425V444.958L93.9889 452.495L77.1206 425Z" fill="white" fill-opacity="0.602"/>
<path d="M77.1205 425L60.25 452.495L77.1205 444.958V425Z" fill="white"/>
<path d="M77.1206 465.429V478.989L94.0001 455.637L77.1206 465.429Z" fill="white" fill-opacity="0.602"/>
<path d="M77.1205 478.989V465.426L60.25 455.637L77.1205 478.989Z" fill="white"/>
<path d="M77.1206 462.29L93.9889 452.496L77.1206 444.963V462.29Z" fill="white" fill-opacity="0.2"/>
<path d="M60.25 452.496L77.1205 462.29V444.963L60.25 452.496Z" fill="white" fill-opacity="0.602"/>
</g>
<path d="M453.66 88L445 79.3397L436.34 88L445 96.6603L453.66 88ZM171 89.5H445V86.5H171V89.5Z" fill="#FFA048"/>
<path d="M453.66 452L445 443.34L436.34 452L445 460.66L453.66 452ZM171 453.5H445V450.5H171V453.5Z" fill="#FFA048"/>
<path d="M432.479 193.124L444.726 193.124L444.726 180.876L432.479 180.876L432.479 193.124ZM491.542 131.939L437.542 185.939L439.663 188.061L493.663 134.061L491.542 131.939Z" fill="#FFA048"/>
<path d="M131.876 418.124L144.124 418.124L144.124 405.876L131.876 405.876L131.876 418.124ZM190.939 356.939L136.939 410.939L139.061 413.061L193.061 359.061L190.939 356.939Z" fill="#FFA048"/>
<defs>
<filter id="filter0_f_4543_54043" x="48" y="9" width="521" height="521" filterUnits="userSpaceOnUse" color-interpolation-filters="sRGB">
<feFlood flood-opacity="0" result="BackgroundImageFix"/>
<feBlend mode="normal" in="SourceGraphic" in2="BackgroundImageFix" result="shape"/>
<feGaussianBlur stdDeviation="50" result="effect1_foregroundBlur_4543_54043"/>
</filter>
<clipPath id="clip0_4543_54043">
<rect width="200" height="230" fill="white" transform="translate(208 155)"/>
</clipPath>
<clipPath id="clip1_4543_54043">
<rect width="72" height="72" fill="white" transform="translate(40 416)"/>
</clipPath>
</defs>
</svg>
