<svg width="653" height="628" viewBox="0 0 653 628" fill="none" xmlns="http://www.w3.org/2000/svg">
<g opacity="0.2" filter="url(#filter0_f_4543_54089)">
<circle cx="326.5" cy="313.5" r="226.5" fill="#298DFE"/>
</g>
<g clip-path="url(#clip0_4543_54089)">
<path d="M366.88 147.488L325.961 171.247L284.887 147.76L325.766 124L366.88 147.488Z" fill="#78B6FD"/>
<path d="M366.88 147.488L367.036 194.697L326.117 218.495L325.961 171.248L366.88 147.488Z" fill="#298DFE"/>
<path d="M325.961 171.247L326.117 218.495L285.043 195.007L284.887 147.76L325.961 171.247Z" fill="#54A2FB"/>
<path d="M367.114 290.395L326.117 313.999L285.12 290.395L326.117 266.752L367.114 290.395Z" fill="#F4BC89"/>
<path d="M367.114 290.396V337.605L326.117 361.248V314.001L367.114 290.396Z" fill="#FFA048"/>
<path d="M326.117 314.001V361.248L285.12 337.605V290.396L326.117 314.001Z" fill="#FFB169"/>
<path d="M366.763 432.993L325.883 456.753H325.844L284.77 433.304L325.688 409.506L366.763 432.993Z" fill="#78B6FD"/>
<path d="M366.763 432.992L366.957 480.239L326.039 503.999L325.844 456.752H325.883L366.763 432.992Z" fill="#298DFE"/>
<path d="M325.844 456.753L326.039 504.001L284.964 480.513L284.77 433.305L325.844 456.753Z" fill="#54A2FB"/>
<path d="M490.766 265.663L449.613 242.331V242.292L449.302 195.084L490.454 218.416L490.766 265.663Z" fill="#78B6FD"/>
<path d="M490.766 265.664L449.925 289.54L408.733 266.208L449.613 242.293V242.332L490.766 265.664Z" fill="#298DFE"/>
<path d="M449.614 242.292L408.734 266.208L408.461 218.96L449.302 195.084L449.614 242.292Z" fill="#54A2FB"/>
<path d="M243.305 409.038L202.153 385.667L201.841 338.42L242.993 361.791L243.305 409.038Z" fill="#78B6FD"/>
<path d="M243.305 409.039L202.464 432.915L161.272 409.544L202.152 385.668L243.305 409.039Z" fill="#298DFE"/>
<path d="M202.153 385.667L161.273 409.544L161 362.296L201.841 338.42L202.153 385.667Z" fill="#54A2FB"/>
<path d="M161.233 262.436L202.386 239.104V239.066L202.698 191.818L161.545 215.189L161.233 262.436Z" fill="#78B6FD"/>
<path d="M161.233 262.437L202.074 286.314L243.266 262.943L202.386 239.066V239.105L161.233 262.437Z" fill="#298DFE"/>
<path d="M202.387 239.066L243.267 262.942L243.539 215.734L202.698 191.818L202.387 239.066Z" fill="#54A2FB"/>
<path d="M408.695 405.773L449.848 382.441L450.16 335.193L409.007 358.525L408.695 405.773Z" fill="#78B6FD"/>
<path d="M408.695 405.773L449.536 429.689L490.728 406.318L449.848 382.441L408.695 405.773Z" fill="#298DFE"/>
<path d="M449.847 382.441L490.727 406.317L491 359.07L450.159 335.193L449.847 382.441Z" fill="#54A2FB"/>
<rect x="300" y="288" width="52" height="52" rx="26" fill="white"/>
<path d="M336 303H316C315.47 303 314.961 303.211 314.586 303.586C314.211 303.961 314 304.47 314 305V312.346C314 323.548 323.477 327.264 325.375 327.895C325.78 328.033 326.22 328.033 326.625 327.895C328.525 327.264 338 323.548 338 312.346V305C338 304.47 337.789 303.961 337.414 303.586C337.039 303.211 336.53 303 336 303ZM331.708 311.708L324.708 318.708C324.615 318.8 324.504 318.874 324.383 318.925C324.262 318.975 324.131 319.001 324 319.001C323.869 319.001 323.738 318.975 323.617 318.925C323.496 318.874 323.385 318.8 323.292 318.708L320.292 315.708C320.105 315.52 319.999 315.265 319.999 315C319.999 314.735 320.105 314.48 320.292 314.292C320.48 314.105 320.735 313.999 321 313.999C321.265 313.999 321.52 314.105 321.708 314.292L324 316.585L330.292 310.292C330.385 310.2 330.496 310.126 330.617 310.076C330.738 310.025 330.869 309.999 331 309.999C331.131 309.999 331.262 310.025 331.383 310.076C331.504 310.126 331.615 310.2 331.708 310.292C331.8 310.385 331.874 310.496 331.924 310.617C331.975 310.738 332.001 310.869 332.001 311C332.001 311.131 331.975 311.262 331.924 311.383C331.874 311.504 331.8 311.615 331.708 311.708Z" fill="#FFA048"/>
<rect x="304" y="148" width="44" height="44" rx="22" fill="white"/>
<path d="M329 159.5C327.816 159.501 326.649 159.782 325.595 160.32C324.541 160.858 323.628 161.638 322.933 162.596C322.237 163.554 321.778 164.662 321.593 165.832C321.407 167.001 321.501 168.197 321.867 169.323L316.469 174.719C316.4 174.789 316.345 174.872 316.307 174.963C316.269 175.054 316.25 175.151 316.25 175.25V179C316.25 179.199 316.329 179.39 316.47 179.53C316.61 179.671 316.801 179.75 317 179.75H320.75C320.949 179.75 321.14 179.671 321.28 179.53C321.421 179.39 321.5 179.199 321.5 179V177.5H323C323.199 177.5 323.39 177.421 323.53 177.28C323.671 177.14 323.75 176.949 323.75 176.75V175.25H325.25C325.349 175.25 325.446 175.231 325.537 175.193C325.628 175.155 325.711 175.1 325.781 175.031L326.677 174.133C327.708 174.468 328.799 174.575 329.875 174.448C330.951 174.32 331.987 173.961 332.911 173.395C333.835 172.829 334.626 172.069 335.228 171.168C335.83 170.267 336.23 169.246 336.4 168.176C336.57 167.106 336.506 166.011 336.212 164.968C335.919 163.925 335.402 162.957 334.699 162.133C333.996 161.308 333.122 160.646 332.138 160.191C331.154 159.737 330.084 159.501 329 159.5ZM330.875 166.625C330.578 166.625 330.288 166.537 330.042 166.372C329.795 166.207 329.603 165.973 329.489 165.699C329.376 165.425 329.346 165.123 329.404 164.832C329.462 164.541 329.605 164.274 329.814 164.064C330.024 163.855 330.291 163.712 330.582 163.654C330.873 163.596 331.175 163.626 331.449 163.739C331.723 163.853 331.957 164.045 332.122 164.292C332.287 164.538 332.375 164.828 332.375 165.125C332.375 165.523 332.217 165.904 331.936 166.186C331.654 166.467 331.273 166.625 330.875 166.625Z" fill="#298DFE"/>
<rect x="181" y="218" width="44" height="44" rx="22" fill="white"/>
<path d="M206 229.5C204.816 229.501 203.649 229.782 202.595 230.32C201.541 230.858 200.628 231.638 199.933 232.596C199.237 233.554 198.778 234.662 198.593 235.832C198.407 237.001 198.501 238.197 198.867 239.323L193.469 244.719C193.4 244.789 193.345 244.872 193.307 244.963C193.269 245.054 193.25 245.151 193.25 245.25V249C193.25 249.199 193.329 249.39 193.47 249.53C193.61 249.671 193.801 249.75 194 249.75H197.75C197.949 249.75 198.14 249.671 198.28 249.53C198.421 249.39 198.5 249.199 198.5 249V247.5H200C200.199 247.5 200.39 247.421 200.53 247.28C200.671 247.14 200.75 246.949 200.75 246.75V245.25H202.25C202.349 245.25 202.446 245.231 202.537 245.193C202.628 245.155 202.711 245.1 202.781 245.031L203.677 244.133C204.708 244.468 205.799 244.575 206.875 244.448C207.951 244.32 208.987 243.961 209.911 243.395C210.835 242.829 211.626 242.069 212.228 241.168C212.83 240.267 213.23 239.246 213.4 238.176C213.57 237.106 213.506 236.011 213.212 234.968C212.919 233.925 212.402 232.957 211.699 232.133C210.996 231.308 210.122 230.646 209.138 230.191C208.154 229.737 207.084 229.501 206 229.5ZM207.875 236.625C207.578 236.625 207.288 236.537 207.042 236.372C206.795 236.207 206.603 235.973 206.489 235.699C206.376 235.425 206.346 235.123 206.404 234.832C206.462 234.541 206.605 234.274 206.814 234.064C207.024 233.855 207.291 233.712 207.582 233.654C207.873 233.596 208.175 233.626 208.449 233.739C208.723 233.853 208.957 234.045 209.122 234.292C209.287 234.538 209.375 234.828 209.375 235.125C209.375 235.523 209.217 235.904 208.936 236.186C208.654 236.467 208.273 236.625 207.875 236.625Z" fill="#298DFE"/>
<rect x="181" y="364" width="44" height="44" rx="22" fill="white"/>
<path d="M206 375.5C204.816 375.501 203.649 375.782 202.595 376.32C201.541 376.858 200.628 377.638 199.933 378.596C199.237 379.554 198.778 380.662 198.593 381.832C198.407 383.001 198.501 384.197 198.867 385.323L193.469 390.719C193.4 390.789 193.345 390.872 193.307 390.963C193.269 391.054 193.25 391.151 193.25 391.25V395C193.25 395.199 193.329 395.39 193.47 395.53C193.61 395.671 193.801 395.75 194 395.75H197.75C197.949 395.75 198.14 395.671 198.28 395.53C198.421 395.39 198.5 395.199 198.5 395V393.5H200C200.199 393.5 200.39 393.421 200.53 393.28C200.671 393.14 200.75 392.949 200.75 392.75V391.25H202.25C202.349 391.25 202.446 391.231 202.537 391.193C202.628 391.155 202.711 391.1 202.781 391.031L203.677 390.133C204.708 390.468 205.799 390.575 206.875 390.448C207.951 390.32 208.987 389.961 209.911 389.395C210.835 388.829 211.626 388.069 212.228 387.168C212.83 386.267 213.23 385.246 213.4 384.176C213.57 383.106 213.506 382.011 213.212 380.968C212.919 379.925 212.402 378.957 211.699 378.133C210.996 377.308 210.122 376.646 209.138 376.191C208.154 375.737 207.084 375.501 206 375.5ZM207.875 382.625C207.578 382.625 207.288 382.537 207.042 382.372C206.795 382.207 206.603 381.973 206.489 381.699C206.376 381.425 206.346 381.123 206.404 380.832C206.462 380.541 206.605 380.274 206.814 380.064C207.024 379.855 207.291 379.712 207.582 379.654C207.873 379.596 208.175 379.626 208.449 379.739C208.723 379.853 208.957 380.045 209.122 380.292C209.287 380.538 209.375 380.828 209.375 381.125C209.375 381.523 209.217 381.904 208.936 382.186C208.654 382.467 208.273 382.625 207.875 382.625Z" fill="#298DFE"/>
<rect x="427" y="218" width="44" height="44" rx="22" fill="white"/>
<path d="M452 229.5C450.816 229.501 449.649 229.782 448.595 230.32C447.541 230.858 446.628 231.638 445.933 232.596C445.237 233.554 444.778 234.662 444.593 235.832C444.407 237.001 444.501 238.197 444.867 239.323L439.469 244.719C439.4 244.789 439.345 244.872 439.307 244.963C439.269 245.054 439.25 245.151 439.25 245.25V249C439.25 249.199 439.329 249.39 439.47 249.53C439.61 249.671 439.801 249.75 440 249.75H443.75C443.949 249.75 444.14 249.671 444.28 249.53C444.421 249.39 444.5 249.199 444.5 249V247.5H446C446.199 247.5 446.39 247.421 446.53 247.28C446.671 247.14 446.75 246.949 446.75 246.75V245.25H448.25C448.349 245.25 448.446 245.231 448.537 245.193C448.628 245.155 448.711 245.1 448.781 245.031L449.677 244.133C450.708 244.468 451.799 244.575 452.875 244.448C453.951 244.32 454.987 243.961 455.911 243.395C456.835 242.829 457.626 242.069 458.228 241.168C458.83 240.267 459.23 239.246 459.4 238.176C459.57 237.106 459.506 236.011 459.212 234.968C458.919 233.925 458.402 232.957 457.699 232.133C456.996 231.308 456.122 230.646 455.138 230.191C454.154 229.737 453.084 229.501 452 229.5ZM453.875 236.625C453.578 236.625 453.288 236.537 453.042 236.372C452.795 236.207 452.603 235.973 452.489 235.699C452.376 235.425 452.346 235.123 452.404 234.832C452.462 234.541 452.605 234.274 452.814 234.064C453.024 233.855 453.291 233.712 453.582 233.654C453.873 233.596 454.175 233.626 454.449 233.739C454.723 233.853 454.957 234.045 455.122 234.292C455.287 234.538 455.375 234.828 455.375 235.125C455.375 235.523 455.217 235.904 454.936 236.186C454.654 236.467 454.273 236.625 453.875 236.625Z" fill="#298DFE"/>
<rect x="427" y="364" width="44" height="44" rx="22" fill="white"/>
<path d="M452 375.5C450.816 375.501 449.649 375.782 448.595 376.32C447.541 376.858 446.628 377.638 445.933 378.596C445.237 379.554 444.778 380.662 444.593 381.832C444.407 383.001 444.501 384.197 444.867 385.323L439.469 390.719C439.4 390.789 439.345 390.872 439.307 390.963C439.269 391.054 439.25 391.151 439.25 391.25V395C439.25 395.199 439.329 395.39 439.47 395.53C439.61 395.671 439.801 395.75 440 395.75H443.75C443.949 395.75 444.14 395.671 444.28 395.53C444.421 395.39 444.5 395.199 444.5 395V393.5H446C446.199 393.5 446.39 393.421 446.53 393.28C446.671 393.14 446.75 392.949 446.75 392.75V391.25H448.25C448.349 391.25 448.446 391.231 448.537 391.193C448.628 391.155 448.711 391.1 448.781 391.031L449.677 390.133C450.708 390.468 451.799 390.575 452.875 390.448C453.951 390.32 454.987 389.961 455.911 389.395C456.835 388.829 457.626 388.069 458.228 387.168C458.83 386.267 459.23 385.246 459.4 384.176C459.57 383.106 459.506 382.011 459.212 380.968C458.919 379.925 458.402 378.957 457.699 378.133C456.996 377.308 456.122 376.646 455.138 376.191C454.154 375.737 453.084 375.501 452 375.5ZM453.875 382.625C453.578 382.625 453.288 382.537 453.042 382.372C452.795 382.207 452.603 381.973 452.489 381.699C452.376 381.425 452.346 381.123 452.404 380.832C452.462 380.541 452.605 380.274 452.814 380.064C453.024 379.855 453.291 379.712 453.582 379.654C453.873 379.596 454.175 379.626 454.449 379.739C454.723 379.853 454.957 380.045 455.122 380.292C455.287 380.538 455.375 380.828 455.375 381.125C455.375 381.523 455.217 381.904 454.936 382.186C454.654 382.467 454.273 382.625 453.875 382.625Z" fill="#298DFE"/>
<rect x="304" y="432" width="44" height="44" rx="22" fill="white"/>
<path d="M329 443.5C327.816 443.501 326.649 443.782 325.595 444.32C324.541 444.858 323.628 445.638 322.933 446.596C322.237 447.554 321.778 448.662 321.593 449.832C321.407 451.001 321.501 452.197 321.867 453.323L316.469 458.719C316.4 458.789 316.345 458.872 316.307 458.963C316.269 459.054 316.25 459.151 316.25 459.25V463C316.25 463.199 316.329 463.39 316.47 463.53C316.61 463.671 316.801 463.75 317 463.75H320.75C320.949 463.75 321.14 463.671 321.28 463.53C321.421 463.39 321.5 463.199 321.5 463V461.5H323C323.199 461.5 323.39 461.421 323.53 461.28C323.671 461.14 323.75 460.949 323.75 460.75V459.25H325.25C325.349 459.25 325.446 459.231 325.537 459.193C325.628 459.155 325.711 459.1 325.781 459.031L326.677 458.133C327.708 458.468 328.799 458.575 329.875 458.448C330.951 458.32 331.987 457.961 332.911 457.395C333.835 456.829 334.626 456.069 335.228 455.168C335.83 454.267 336.23 453.246 336.4 452.176C336.57 451.106 336.506 450.011 336.212 448.968C335.919 447.925 335.402 446.957 334.699 446.133C333.996 445.308 333.122 444.646 332.138 444.191C331.154 443.737 330.084 443.501 329 443.5ZM330.875 450.625C330.578 450.625 330.288 450.537 330.042 450.372C329.795 450.207 329.603 449.973 329.489 449.699C329.376 449.425 329.346 449.123 329.404 448.832C329.462 448.541 329.605 448.274 329.814 448.064C330.024 447.855 330.291 447.712 330.582 447.654C330.873 447.596 331.175 447.626 331.449 447.739C331.723 447.853 331.957 448.045 332.122 448.292C332.287 448.538 332.375 448.828 332.375 449.125C332.375 449.523 332.217 449.904 331.936 450.186C331.654 450.467 331.273 450.625 330.875 450.625Z" fill="#298DFE"/>
</g>
<defs>
<filter id="filter0_f_4543_54089" x="0" y="-13" width="653" height="653" filterUnits="userSpaceOnUse" color-interpolation-filters="sRGB">
<feFlood flood-opacity="0" result="BackgroundImageFix"/>
<feBlend mode="normal" in="SourceGraphic" in2="BackgroundImageFix" result="shape"/>
<feGaussianBlur stdDeviation="50" result="effect1_foregroundBlur_4543_54089"/>
</filter>
<clipPath id="clip0_4543_54089">
<rect width="330" height="380" fill="white" transform="translate(161 124)"/>
</clipPath>
</defs>
</svg>
