<svg width="80" height="80" viewBox="0 0 80 80" fill="none" xmlns="http://www.w3.org/2000/svg">
<rect width="80" height="80" rx="12" fill="white"/>
<g clip-path="url(#clip0_4654_34937)">
<path d="M46.1677 40.239V38.8672C46.0644 39.1249 45.9712 39.4053 45.8906 39.711L46.1677 40.239Z" fill="#D1D3D4"/>
<path d="M55.8205 40.2952V38.4434C55.6341 38.8097 55.493 39.2215 55.4048 39.6863L55.8205 40.2952Z" fill="#D1D3D4"/>
<path d="M65.1357 39.7945C65.0349 39.3498 64.8712 38.9431 64.6495 38.5742C64.3825 38.9658 64.1457 39.4079 63.9467 39.9056L65.1357 39.7945Z" fill="#D1D3D4"/>
<path d="M17.3254 21.1029C18.3959 19.827 19.8167 18.9074 21.4263 18.526C21.9704 18.3921 22.5397 18.3239 23.1216 18.3239C25.4189 18.3239 27.4844 19.3976 28.9177 21.1029L25.6909 15.6383C25.4869 15.2922 25.24 15.0067 24.9604 14.7794C23.6052 13.6627 21.5497 13.9507 20.5522 15.6383L17.3254 21.1029Z" fill="#D1D3D4"/>
<path d="M35.1975 33.9878L31.4795 27.0074C29.8724 23.9909 27.2426 22.2528 24.4591 21.7955C24.4541 21.7955 24.4516 21.793 24.4465 21.793C23.9604 21.6945 23.4616 21.6465 22.9528 21.6465C22.4414 21.6465 21.9427 21.697 21.4565 21.793C18.668 22.2478 16.0357 23.9859 14.426 27.0074L10.7105 33.9827L5.68263 43.4288C5.11586 44.4949 4.92946 45.604 5.02518 46.7156C5.58439 53.2866 14.6704 52.7056 14.6704 46.1067V44.8031V35.7789C14.6704 35.7663 14.6704 35.7562 14.6704 35.7436V35.7789C14.6704 31.4361 17.5093 27.8159 21.2852 26.9771C21.8243 26.8584 22.3835 26.7952 22.9553 26.7952C25.2425 26.7952 27.3131 27.8007 28.8144 29.4251C30.3132 31.0496 31.2402 33.2981 31.2402 35.7789V44.8031V46.0107C31.2402 52.5792 40.296 53.1199 40.8073 46.5741C40.8955 45.4499 40.704 44.3281 40.1297 43.2494L35.1975 33.9878Z" fill="#D1D3D4"/>
<path d="M41.689 50.6869V35.549H45.5581V39.1819L45.281 38.6564C45.6135 37.3806 46.1602 36.5166 46.9259 36.0644C47.6917 35.6121 48.5985 35.3848 49.6489 35.3848H50.5331V38.9899H49.2333C48.2207 38.9899 47.3995 39.3006 46.7723 39.9196C46.145 40.5385 45.8327 41.4127 45.8327 42.5394V50.6895H41.689V50.6869Z" fill="#D1D3D4"/>
<path d="M51.3392 50.6863V35.5483H55.2083V39.2343L54.7927 38.6254C55.0144 37.4608 55.5484 36.6018 56.3948 36.046C57.2411 35.4927 58.2563 35.2148 59.4352 35.2148C60.6871 35.2148 61.7879 35.5332 62.7376 36.1723C63.6872 36.809 64.2817 37.6654 64.521 38.7366L63.332 38.8478C63.8283 37.6098 64.5386 36.6953 65.4606 36.1041C66.3825 35.513 67.4607 35.2174 68.695 35.2174C69.7832 35.2174 70.7454 35.4574 71.5842 35.9374C72.423 36.4174 73.0805 37.0869 73.5616 37.9484C74.0402 38.8073 74.2795 39.8103 74.2795 40.9573V50.6888H70.1333V41.844C70.1333 41.2528 70.0275 40.745 69.8159 40.3181C69.6043 39.8937 69.3046 39.5602 68.9166 39.3202C68.5287 39.0802 68.0602 38.9589 67.506 38.9589C66.972 38.9589 66.506 39.0802 66.1105 39.3202C65.715 39.5602 65.4102 39.8937 65.1986 40.3181C64.987 40.7425 64.8812 41.2503 64.8812 41.844V50.6888H60.735V41.844C60.735 41.2528 60.6292 40.745 60.4176 40.3181C60.206 39.8937 59.9062 39.5602 59.5183 39.3202C59.1304 39.0802 58.6619 38.9589 58.1077 38.9589C57.5737 38.9589 57.1076 39.0802 56.7122 39.3202C56.3167 39.5602 56.0119 39.8937 55.8003 40.3181C55.5887 40.7425 55.4829 41.2503 55.4829 41.844V50.6888H51.3392V50.6863Z" fill="#D1D3D4"/>
<path d="M46.8856 38.7995V37.4277C46.7823 37.6854 46.6891 37.9659 46.6085 38.2715L46.8856 38.7995Z" fill="#D1D3D4"/>
<path d="M56.5384 38.8557V37.0039C56.352 37.3702 56.2109 37.782 56.1227 38.2469L56.5384 38.8557Z" fill="#D1D3D4"/>
<path d="M65.8536 38.357C65.7528 37.9123 65.5891 37.5056 65.3674 37.1367C65.1004 37.5283 64.8636 37.9704 64.6646 38.4681L65.8536 38.357Z" fill="#D1D3D4"/>
<path d="M23.5951 29.7832L19.2801 32.7921V36.1446L23.5951 33.1382L27.9101 36.1446V32.7921L23.5951 29.7832Z" fill="#FFA048"/>
<path d="M19.2801 38.3384V41.6934L23.5951 38.6845L27.9101 41.6934V38.3384L23.5951 35.332L19.2801 38.3384Z" fill="#FFA048"/>
<path d="M19.2801 43.8858V47.2409L23.5951 44.232L27.9101 47.2409V43.8858L23.5951 40.877L19.2801 43.8858Z" fill="#FFA048"/>
<path d="M27.9907 36.2728L23.5951 33.2083L19.1995 36.2728V32.7207L19.2347 32.6955L23.5951 29.6562L23.6404 29.6891L27.9882 32.7207V36.2728H27.9907ZM19.3607 32.8041V35.962L23.5951 33.0113L23.6404 33.0416L27.827 35.962V32.8041L23.5951 29.8533L19.3607 32.8041Z" fill="#1E344E"/>
<path d="M27.9907 41.8177L23.5951 38.7532L19.1995 41.8177V38.2656L19.2347 38.2404L23.5951 35.2012L23.6404 35.234L27.9882 38.2656V41.8177H27.9907ZM19.3607 38.3515V41.5095L23.5951 38.5587L23.6404 38.5915L27.827 41.512V38.3541L23.5951 35.4008L19.3607 38.3515Z" fill="#1E344E"/>
<path d="M27.9907 47.3665L23.5951 44.3021L19.1995 47.3665V43.8145L19.2347 43.7892L23.5951 40.75L23.6404 40.7828L27.9882 43.8145V47.3665H27.9907ZM19.3607 43.9004V47.0583L23.5951 44.1075L23.6404 44.1404L27.827 47.0608V43.9029L23.5926 40.9521L19.3607 43.9004Z" fill="#1E344E"/>
<path d="M17.8644 20.2032C18.935 18.9274 20.3557 18.0078 21.9653 17.6263C22.5094 17.4924 23.0787 17.4242 23.6606 17.4242C25.9579 17.4242 28.0235 18.4979 29.4568 20.2032L26.23 14.7387C26.0259 14.3926 25.7791 14.1071 25.4995 13.8797C24.1443 12.7631 22.0888 13.0485 21.0913 14.7387L17.8644 20.2032Z" fill="#298DFE"/>
<path d="M35.9155 32.5464L32.1974 25.566C30.5903 22.5495 27.9605 20.8114 25.177 20.3541C25.172 20.3541 25.1695 20.3516 25.1644 20.3516C24.6783 20.2531 24.1795 20.2051 23.6707 20.2051C23.1593 20.2051 22.6606 20.2556 22.1744 20.3516C19.3859 20.8064 16.7536 22.5445 15.1439 25.566L11.4284 32.5413L6.39803 41.9874C5.83126 43.0535 5.64485 44.1626 5.74057 45.2742C6.29979 51.8452 15.3858 51.2642 15.3858 44.6653V43.3617V34.3401C15.3858 34.3274 15.3858 34.3173 15.3858 34.3047V34.3401C15.3858 29.9973 18.2246 26.377 22.0006 25.5382C22.5397 25.4195 23.0989 25.3563 23.6707 25.3563C25.9579 25.3563 28.0285 26.3618 29.5298 27.9863C31.0286 29.6107 31.9556 31.8592 31.9556 34.3401V43.3642V44.5718C31.9556 51.1404 41.0114 51.681 41.5227 45.1352C41.6109 44.011 41.4194 42.8893 40.8451 41.8105L35.9155 32.5464Z" fill="#298DFE"/>
<path d="M42.4044 49.2455V34.1076H46.2735V37.7405L45.9964 37.215C46.3289 35.9392 46.8755 35.0752 47.6413 34.623C48.4071 34.1707 49.3139 33.9434 50.3643 33.9434H51.2485V37.5485H49.9487C48.9361 37.5485 48.1149 37.8592 47.4877 38.4782C46.8604 39.0971 46.5481 39.9713 46.5481 41.098V49.2481H42.4044V49.2455Z" fill="#298DFE"/>
<path d="M52.0571 49.2468V34.1089H55.9262V37.7948L55.5106 37.186C55.7323 36.0213 56.2663 35.1624 57.1127 34.6066C57.959 34.0533 58.9742 33.7754 60.1531 33.7754C61.405 33.7754 62.5058 34.0937 63.4555 34.7329C64.4051 35.3695 64.9996 36.226 65.2389 37.2971L64.0499 37.4083C64.5462 36.1704 65.2565 35.2558 66.1785 34.6647C67.1004 34.0735 68.1786 33.7779 69.4129 33.7779C70.5011 33.7779 71.4633 34.0179 72.3021 34.4979C73.141 34.9779 73.7984 35.6474 74.2795 36.5089C74.7581 37.3679 74.9974 38.3708 74.9974 39.5178V49.2494H70.8512V40.4046C70.8512 39.8134 70.7454 39.3056 70.5338 38.8786C70.3222 38.4542 70.0225 38.1207 69.6345 37.8807C69.2466 37.6407 68.7781 37.5195 68.2239 37.5195C67.6899 37.5195 67.2239 37.6407 66.8284 37.8807C66.4329 38.1207 66.1281 38.4542 65.9165 38.8786C65.7049 39.3031 65.5991 39.8109 65.5991 40.4046V49.2494H61.4529V40.4046C61.4529 39.8134 61.3471 39.3056 61.1355 38.8786C60.9239 38.4542 60.6241 38.1207 60.2362 37.8807C59.8483 37.6407 59.3797 37.5195 58.8256 37.5195C58.2915 37.5195 57.8255 37.6407 57.4301 37.8807C57.0346 38.1207 56.7298 38.4542 56.5182 38.8786C56.3066 39.3031 56.2008 39.8109 56.2008 40.4046V49.2494H52.0571V49.2468Z" fill="#298DFE"/>
<path d="M5.03271 66.5799V53.6777H6.86401L13.9424 63.2375L12.9927 63.427V53.6777H15.3404V66.5799H13.494L6.51891 56.9494L7.38293 56.7599V66.5799H5.03271Z" fill="#1E344E"/>
<path d="M21.7815 66.7863C20.8142 66.7863 19.9678 66.5665 19.2423 66.1294C18.5169 65.6899 17.9526 65.0962 17.5496 64.3458C17.1465 63.5955 16.945 62.7643 16.945 61.8523C16.945 60.9049 17.149 60.0662 17.5571 59.3335C17.9652 58.6009 18.5244 58.0198 19.2322 57.5929C19.9401 57.1659 20.731 56.9512 21.6076 56.9512C22.3432 56.9512 22.9906 57.0724 23.5498 57.315C24.109 57.5575 24.5826 57.8935 24.973 58.3205C25.3634 58.7474 25.6632 59.235 25.8698 59.7832C26.0763 60.3314 26.1796 60.9226 26.1796 61.5593C26.1796 61.7209 26.172 61.8877 26.1544 62.062C26.1368 62.2363 26.1065 62.3854 26.0587 62.5117H18.8116V60.7811H24.7866L23.716 61.5946C23.8193 61.0641 23.7941 60.5891 23.6379 60.1748C23.4818 59.7605 23.2299 59.4295 22.8772 59.187C22.5271 58.9445 22.1039 58.8232 21.6076 58.8232C21.1366 58.8232 20.7159 58.9419 20.3482 59.1794C19.9804 59.4169 19.7008 59.763 19.5119 60.2178C19.3229 60.675 19.2499 61.2258 19.2952 61.8725C19.2499 62.4511 19.328 62.9614 19.5295 63.406C19.731 63.8507 20.0308 64.1942 20.4262 64.4368C20.8242 64.6793 21.2802 64.8006 21.7991 64.8006C22.318 64.8006 22.7563 64.6919 23.119 64.4721C23.4818 64.2524 23.7664 63.9593 23.973 63.5879L25.8043 64.4873C25.6204 64.937 25.3332 65.3362 24.9403 65.6823C24.5498 66.0284 24.0863 66.3012 23.5498 66.4958C23.0183 66.6878 22.4263 66.7863 21.7815 66.7863Z" fill="#1E344E"/>
<path d="M31.8674 66.6835C30.8069 66.6835 29.9883 66.393 29.4064 65.8094C28.8245 65.2258 28.5348 64.4047 28.5348 63.3411V59.1853H26.9126V57.1591H27.0864C27.5474 57.1591 27.9026 57.0379 28.157 56.7953C28.4089 56.5528 28.5373 56.2016 28.5373 55.7393V55.0117H30.7994V57.1591H32.9582V59.1853H30.7994V63.2199C30.7994 63.5306 30.8548 63.7984 30.9631 64.0157C31.0714 64.2355 31.2452 64.4022 31.482 64.5184C31.7188 64.6346 32.0211 64.6927 32.3889 64.6927C32.4695 64.6927 32.5652 64.6877 32.6735 64.675C32.7818 64.6624 32.8901 64.6523 32.9934 64.6397V66.5799C32.8322 66.6027 32.6483 66.6254 32.4418 66.6481C32.2302 66.6709 32.0387 66.6835 31.8674 66.6835Z" fill="#1E344E"/>
<path d="M36.7719 66.581L33.5425 57.1602H35.9255L38.2908 64.3123L37.4621 64.2946L39.9836 57.1602H41.9862L44.49 64.2946L43.6613 64.3123L46.0266 57.1602H48.4096L45.1802 66.581H43.16L40.6032 59.1181H41.364L38.7745 66.581H36.7719Z" fill="#1E344E"/>
<path d="M53.7624 66.7869C52.8405 66.7869 52.0042 66.5721 51.251 66.1452C50.4978 65.7182 49.8983 65.1346 49.455 64.3969C49.0116 63.6592 48.79 62.8154 48.79 61.868C48.79 60.9207 49.0116 60.0794 49.455 59.3392C49.8983 58.6015 50.4928 58.0179 51.2409 57.5909C51.9891 57.164 52.8304 56.9492 53.7624 56.9492C54.6844 56.9492 55.5182 57.164 56.2663 57.5909C57.0145 58.0179 57.6089 58.5989 58.0523 59.3316C58.4956 60.0642 58.7173 60.9106 58.7173 61.868C58.7173 62.8154 58.4931 63.6567 58.0447 64.3969C57.5963 65.1346 56.9968 65.7182 56.2487 66.1452C55.5005 66.5721 54.6718 66.7869 53.7624 66.7869ZM53.7624 64.7077C54.2688 64.7077 54.7146 64.5864 55.1 64.3439C55.4854 64.1013 55.7902 63.7628 56.0144 63.3308C56.2386 62.8988 56.352 62.4112 56.352 61.868C56.352 61.3148 56.2386 60.8272 56.0144 60.4053C55.7902 59.9834 55.4854 59.6499 55.1 59.3998C54.7146 59.1522 54.2688 59.0284 53.7624 59.0284C53.2435 59.0284 52.7901 59.1522 52.3972 59.3998C52.0067 59.6474 51.6969 59.9834 51.4727 60.4053C51.2485 60.8272 51.1351 61.3148 51.1351 61.868C51.1351 62.4112 51.2485 62.8988 51.4727 63.3308C51.6969 63.7628 52.0042 64.1013 52.3972 64.3439C52.7901 64.5864 53.2435 64.7077 53.7624 64.7077Z" fill="#1E344E"/>
<path d="M60.1153 66.5796V57.1588H62.2388V59.2532L62.065 58.9425C62.2841 58.2376 62.6267 57.7475 63.0927 57.4696C63.5587 57.1917 64.1205 57.0527 64.7754 57.0527H65.3271V59.0612H64.516C63.8711 59.0612 63.3522 59.2608 62.9617 59.6574C62.5713 60.0566 62.3748 60.6124 62.3748 61.3299V66.5771H60.1153V66.5796Z" fill="#1E344E"/>
<path d="M66.2642 66.58V53.4707H68.5262V62.0603L67.6622 61.8001L72.083 57.1592H74.8967L71.4256 60.9513L74.9647 66.58H72.3752L69.3021 61.6965L70.6497 61.4186L67.8184 64.4654L68.5262 63.081V66.58H66.2642Z" fill="#1E344E"/>
</g>
<defs>
<clipPath id="clip0_4654_34937">
<rect width="70" height="53.574" fill="white" transform="translate(5 13.2129)"/>
</clipPath>
</defs>
</svg>
