<svg width="80" height="80" viewBox="0 0 80 80" fill="none" xmlns="http://www.w3.org/2000/svg">
<rect width="80" height="80" rx="12" fill="white"/>
<g clip-path="url(#clip0_4654_34924)">
<path d="M23.9296 44.1275V43.416C23.8755 43.5505 23.827 43.6961 23.7859 43.8539L23.9296 44.1275Z" fill="#D1D3D4"/>
<path d="M28.9542 44.1571V43.1953C28.8571 43.3858 28.7843 43.5996 28.7386 43.8405L28.9542 44.1571Z" fill="#D1D3D4"/>
<path d="M33.8033 43.8977C33.751 43.667 33.6661 43.456 33.5503 43.2637C33.4112 43.4672 33.288 43.6969 33.1843 43.9546L33.8033 43.8977Z" fill="#D1D3D4"/>
<path d="M8.91656 34.196C9.47392 33.534 10.2133 33.0568 11.0517 32.8589C11.3355 32.7889 11.6305 32.7543 11.9339 32.7543C13.1299 32.7543 14.2054 33.3108 14.9513 34.1969L13.2718 31.3593C13.1663 31.18 13.0374 31.0316 12.8918 30.9139C12.186 30.335 11.1161 30.4835 10.597 31.3593L8.91656 34.196Z" fill="#D1D3D4"/>
<path d="M18.2198 40.8819L16.2845 37.2581C15.448 35.6913 14.0793 34.7902 12.6295 34.5521C12.6276 34.5521 12.6257 34.5512 12.6239 34.5512C12.3709 34.5008 12.1113 34.4746 11.8462 34.4746C11.5801 34.4746 11.3206 34.5008 11.0676 34.5512C9.61583 34.7874 8.24532 35.6894 7.40789 37.2581L5.47349 40.8791L2.85477 45.7821C2.55882 46.3349 2.46359 46.911 2.51214 47.4881C2.80342 50.899 7.53206 50.5974 7.53206 47.1715V46.4946V41.8119C7.53206 41.8053 7.53206 41.7997 7.53206 41.7932V41.8119C7.53206 39.5579 9.00993 37.6782 10.9761 37.2431C11.2571 37.1806 11.5474 37.1488 11.8452 37.1488C13.0356 37.1488 14.1139 37.6717 14.8953 38.5149C15.6748 39.358 16.1584 40.5252 16.1584 41.8128V46.4964V47.123C16.1584 50.533 20.8721 50.814 21.1382 47.4152C21.184 46.8316 21.085 46.2499 20.7862 45.6897L18.2198 40.8819Z" fill="#D1D3D4"/>
<path d="M21.5975 49.5497V41.6923H23.6122V43.5775L23.4685 43.3039C23.6412 42.6419 23.9268 42.1937 24.3246 41.9584C24.7223 41.7231 25.1956 41.6055 25.7417 41.6055H26.202V43.4767H25.5261C24.9986 43.4767 24.571 43.6373 24.2452 43.9585C23.9194 44.2797 23.756 44.7335 23.756 45.318V49.5487H21.5975V49.5497Z" fill="#D1D3D4"/>
<path d="M26.6212 49.5507V41.6933H28.6359V43.6074L28.4202 43.2909C28.535 42.6868 28.8133 42.2405 29.2548 41.9529C29.6964 41.6653 30.2239 41.5215 30.8373 41.5215C31.4899 41.5215 32.0622 41.6868 32.557 42.0182C33.0508 42.3488 33.3598 42.7932 33.4849 43.3497L32.866 43.4076C33.1246 42.7652 33.4943 42.2899 33.9741 41.9827C34.454 41.6755 35.0151 41.5224 35.6574 41.5224C36.2232 41.5224 36.7245 41.6475 37.1614 41.8968C37.5974 42.1462 37.941 42.4944 38.1902 42.9398C38.4395 43.3862 38.5646 43.9062 38.5646 44.501V49.5525H36.4061V44.9614C36.4061 44.6542 36.3511 44.3908 36.2409 44.1696C36.1307 43.9492 35.9748 43.7764 35.7732 43.6513C35.5715 43.5271 35.3269 43.4646 35.0394 43.4646C34.7612 43.4646 34.5184 43.5271 34.313 43.6513C34.1067 43.7764 33.948 43.9492 33.8378 44.1696C33.7277 44.3899 33.6726 44.6542 33.6726 44.9614V49.5525H31.5141V44.9614C31.5141 44.6542 31.4591 44.3908 31.3489 44.1696C31.2387 43.9492 31.0828 43.7764 30.8812 43.6513C30.6795 43.5271 30.4349 43.4646 30.1474 43.4646C29.8691 43.4646 29.6273 43.5271 29.421 43.6513C29.2147 43.7764 29.056 43.9492 28.9458 44.1696C28.8357 44.3899 28.7806 44.6542 28.7806 44.9614V49.5525H26.6212V49.5507Z" fill="#D1D3D4"/>
<path d="M24.3031 43.3814V42.6699C24.2489 42.8044 24.2004 42.95 24.1593 43.1078L24.3031 43.3814Z" fill="#D1D3D4"/>
<path d="M29.3277 43.411V42.4492C29.2306 42.6397 29.1577 42.8535 29.112 43.0944L29.3277 43.411Z" fill="#D1D3D4"/>
<path d="M34.1767 43.1516C34.1245 42.921 34.0395 42.7099 33.9237 42.5176C33.7846 42.7211 33.6614 42.9508 33.5578 43.2085L34.1767 43.1516Z" fill="#D1D3D4"/>
<path d="M12.1795 38.7012L9.93326 40.2624V42.0038L12.1795 40.4426L14.4248 42.0038V40.2624L12.1795 38.7012Z" fill="#FFA048"/>
<path d="M9.93326 43.1413V44.8827L12.1795 43.3215L14.4248 44.8827V43.1413L12.1795 41.5801L9.93326 43.1413Z" fill="#FFA048"/>
<path d="M9.93326 46.0221V47.7636L12.1795 46.2023L14.4248 47.7636V46.0221L12.1795 44.4609L9.93326 46.0221Z" fill="#FFA048"/>
<path d="M14.4668 42.0701L12.1795 40.4799L9.89124 42.0701V40.2269L9.90897 40.2147L12.1785 38.6367L12.2028 38.6535L14.4668 40.2278V42.0701ZM9.97526 40.2698V41.9085L12.1795 40.3763L12.2037 40.3931L14.3837 41.9085V40.2698L12.1795 38.7376L9.97526 40.2698Z" fill="#1E344E"/>
<path d="M14.4668 44.949L12.1795 43.3588L9.89124 44.949V43.1058L9.90897 43.0936L12.1785 41.5156L12.2028 41.5324L14.4668 43.1067V44.949ZM9.97526 43.1497V44.7884L12.1795 43.2561L12.2037 43.2729L14.3837 44.7884V43.1497L12.1795 41.6174L9.97526 43.1497Z" fill="#1E344E"/>
<path d="M14.4668 47.8279L12.1795 46.2377L9.89124 47.8279V45.9847L9.90897 45.9725L12.1785 44.3945L12.2028 44.4113L14.4668 45.9856V47.8279ZM9.97526 46.0286V47.6673L12.1795 46.135L12.2037 46.1518L14.3837 47.6673V46.0286L12.1795 44.4963L9.97526 46.0286Z" fill="#1E344E"/>
<path d="M9.19666 33.7282C9.75401 33.0662 10.4934 32.589 11.3318 32.3911C11.6156 32.321 11.9106 32.2865 12.214 32.2865C13.4099 32.2865 14.4854 32.843 15.2314 33.7291L13.5509 30.8906C13.4454 30.7113 13.3166 30.5628 13.171 30.4452C12.4652 29.8663 11.3953 30.0147 10.8762 30.8906L9.19666 33.7282Z" fill="#298DFE"/>
<path d="M18.5932 40.1358L16.6579 36.512C15.8214 34.9452 14.4528 34.0441 13.0029 33.806C13.001 33.806 12.9992 33.8051 12.9973 33.8051C12.7443 33.7547 12.4848 33.7285 12.2196 33.7285C11.9536 33.7285 11.694 33.7547 11.441 33.8051C9.98927 34.0413 8.61876 34.9433 7.78133 36.512L5.84693 40.133L3.22821 45.036C2.93226 45.5888 2.83704 46.1649 2.88558 46.742C3.17686 50.1529 7.9055 49.8513 7.9055 46.4254V45.7485V41.0658C7.9055 41.0593 7.9055 41.0537 7.9055 41.0471V41.0658C7.9055 38.8118 9.38338 36.9322 11.3495 36.497C11.6305 36.4345 11.9209 36.4027 12.2187 36.4027C13.409 36.4027 14.4873 36.9256 15.2687 37.7688C16.0483 38.6119 16.5319 39.7791 16.5319 41.0667V45.7503V46.3769C16.5319 49.7869 21.2456 50.0679 21.5117 46.6691C21.5574 46.0855 21.4584 45.5038 21.1597 44.9436L18.5932 40.1358Z" fill="#298DFE"/>
<path d="M21.971 48.8036V40.9462H23.9857V42.8314L23.8419 42.5578C24.0146 41.8958 24.3003 41.4476 24.698 41.2123C25.0957 40.977 25.569 40.8594 26.1152 40.8594H26.5754V42.7306H25.8995C25.372 42.7306 24.9444 42.8912 24.6186 43.2124C24.2928 43.5336 24.1294 43.9874 24.1294 44.5719V48.8026H21.971V48.8036Z" fill="#298DFE"/>
<path d="M26.9946 48.8026V40.9452H29.0093V42.8594L28.7937 42.5429C28.9085 41.9387 29.1867 41.4924 29.6283 41.2048C30.0699 40.9172 30.5974 40.7734 31.2107 40.7734C31.8633 40.7734 32.4356 40.9387 32.9304 41.2702C33.4243 41.6007 33.7333 42.0452 33.8584 42.6017L33.2394 42.6596C33.498 42.0172 33.8677 41.5419 34.3476 41.2347C34.8275 40.9275 35.3885 40.7744 36.0309 40.7744C36.5966 40.7744 37.0979 40.8995 37.5349 41.1488C37.9709 41.3981 38.3144 41.7464 38.5637 42.1918C38.813 42.6381 38.9381 43.1582 38.9381 43.753V48.8045H36.7796V44.2133C36.7796 43.9061 36.7245 43.6428 36.6143 43.4215C36.5042 43.2011 36.3483 43.0284 36.1466 42.9033C35.945 42.7791 35.7004 42.7165 35.4128 42.7165C35.1346 42.7165 34.8919 42.7791 34.6865 42.9033C34.4802 43.0284 34.3214 43.2011 34.2113 43.4215C34.1011 43.6419 34.046 43.9061 34.046 44.2133V48.8045H31.8876V44.2133C31.8876 43.9061 31.8325 43.6428 31.7223 43.4215C31.6122 43.2011 31.4563 43.0284 31.2546 42.9033C31.0529 42.7791 30.8083 42.7165 30.5208 42.7165C30.2426 42.7165 30.0008 42.7791 29.7945 42.9033C29.5881 43.0284 29.4294 43.2011 29.3193 43.4215C29.2091 43.6419 29.154 43.9061 29.154 44.2133V48.8045H26.9946V48.8026Z" fill="#298DFE"/>
<path d="M41.3504 48.6884L38.6356 40.79H40.639L42.6276 46.7864L41.9311 46.7715L44.0504 40.7891H45.7346L47.8398 46.7715L47.1434 46.7864L49.1319 40.79H51.1354L48.4205 48.6884H46.7223L44.5741 42.4306H45.2127L43.0346 48.6884H41.3504Z" fill="#1E344E"/>
<path d="M53.5749 48.8629C53.0231 48.8629 52.5442 48.7705 52.1381 48.5865C51.732 48.4026 51.4173 48.1393 51.1942 47.7956C50.9711 47.452 50.86 47.0524 50.86 46.5977C50.86 46.1616 50.9571 45.7722 51.1503 45.4286C51.3436 45.085 51.6442 44.7974 52.0503 44.5649C52.4564 44.3324 52.9699 44.1681 53.5889 44.071L56.173 43.6499V45.1018L53.952 45.4791C53.5749 45.5472 53.2939 45.6677 53.1099 45.8423C52.926 46.0169 52.8336 46.2438 52.8336 46.5248C52.8336 46.7956 52.9372 47.0113 53.1454 47.171C53.3536 47.3306 53.6122 47.4109 53.9222 47.4109C54.3189 47.4109 54.67 47.326 54.9743 47.157C55.2796 46.988 55.5158 46.7527 55.6857 46.4529C55.8547 46.1532 55.9396 45.8236 55.9396 45.466V43.4323C55.9396 43.0934 55.8061 42.8104 55.5401 42.5826C55.274 42.3557 54.923 42.2418 54.4879 42.2418C54.0818 42.2418 53.7205 42.351 53.4068 42.5686C53.0922 42.7862 52.8625 43.0747 52.7169 43.4323L51.1634 42.6769C51.3184 42.2605 51.563 41.9001 51.8963 41.5957C52.2305 41.2903 52.6245 41.0513 53.0791 40.8767C53.5338 40.7021 54.0277 40.6152 54.5598 40.6152C55.2077 40.6152 55.7791 40.7338 56.2729 40.971C56.7668 41.2082 57.1515 41.5368 57.4269 41.9579C57.7023 42.3791 57.8404 42.8702 57.8404 43.4314V48.6874H56.0405V47.3372L56.4466 47.3082C56.2431 47.6472 56.0013 47.9301 55.7203 48.1579C55.4392 48.3858 55.12 48.5594 54.7624 48.6808C54.4067 48.8022 54.0099 48.8629 53.5749 48.8629Z" fill="#1E344E"/>
<path d="M58.8879 48.6892V37.6973H60.7897V48.6892H58.8879Z" fill="#1E344E"/>
<path d="M61.8353 48.6892V37.6973H63.737V48.6892H61.8353Z" fill="#1E344E"/>
<path d="M68.5273 48.8629C67.7141 48.8629 67.0027 48.679 66.3931 48.3111C65.7834 47.9432 65.3092 47.4446 64.9703 46.8152C64.6314 46.1859 64.4624 45.4893 64.4624 44.7246C64.4624 43.9309 64.6342 43.2269 64.9777 42.6116C65.3213 41.9972 65.7909 41.5107 66.3856 41.1521C66.9812 40.7945 67.6459 40.6152 68.3816 40.6152C69.0006 40.6152 69.5449 40.717 70.0145 40.9206C70.4841 41.1241 70.8827 41.4042 71.2123 41.7628C71.5409 42.1213 71.793 42.5303 71.9675 42.9897C72.1421 43.4491 72.2289 43.9459 72.2289 44.4781C72.2289 44.6135 72.2215 44.7545 72.2075 44.8992C72.1925 45.0449 72.1664 45.17 72.1272 45.2764H66.0308V43.8245H71.0535L70.1536 44.507C70.2404 44.0616 70.2189 43.6648 70.0882 43.3165C69.9575 42.9682 69.7447 42.6919 69.4496 42.4892C69.1546 42.2857 68.7989 42.1839 68.3825 42.1839C67.9858 42.1839 67.6319 42.2829 67.3229 42.4818C67.013 42.6807 66.7786 42.971 66.619 43.3529C66.4594 43.7358 66.3987 44.198 66.4379 44.7395C66.3987 45.2232 66.464 45.6518 66.6339 46.0244C66.8029 46.3969 67.055 46.6854 67.3892 46.8881C67.7234 47.0916 68.1081 47.1934 68.5431 47.1934C68.9782 47.1934 69.3488 47.1019 69.6541 46.917C69.9594 46.7331 70.1984 46.4865 70.373 46.1765L71.9115 46.9319C71.7565 47.3092 71.5147 47.6434 71.1861 47.9338C70.8566 48.2242 70.4673 48.4521 70.0173 48.6164C69.5673 48.7807 69.0697 48.8629 68.5273 48.8629Z" fill="#1E344E"/>
<path d="M76.5561 48.7767C75.6655 48.7767 74.9756 48.5321 74.4873 48.0437C73.9981 47.5554 73.7544 46.8653 73.7544 45.9746V42.4899H72.3895V40.7914H72.5352C72.9217 40.7914 73.2223 40.6896 73.4351 40.4861C73.648 40.2825 73.7544 39.9875 73.7544 39.6V38.9902H75.6562V40.7905H77.4711V42.4889H75.6562V45.8718C75.6562 46.1333 75.7019 46.3565 75.7943 46.5395C75.8858 46.7234 76.0315 46.8635 76.2303 46.9606C76.4282 47.0577 76.6822 47.1053 76.9921 47.1053C77.0593 47.1053 77.1396 47.1006 77.2321 47.0904C77.3236 47.081 77.4132 47.0708 77.5009 47.0614V48.688C77.3656 48.7076 77.2106 48.7263 77.036 48.7459C76.8605 48.7674 76.7009 48.7767 76.5561 48.7767Z" fill="#1E344E"/>
</g>
<defs>
<clipPath id="clip0_4654_34924">
<rect width="75" height="19.8007" fill="white" transform="translate(2.5 30.0996)"/>
</clipPath>
</defs>
</svg>
