<svg width="80" height="80" viewBox="0 0 80 80" fill="none" xmlns="http://www.w3.org/2000/svg">
<rect width="80" height="80" rx="12" fill="white"/>
<g clip-path="url(#clip0_4691_18195)">
<path d="M28.9137 40.0009C28.9137 32.7073 23.001 26.7949 15.7069 26.7949C8.41276 26.7949 2.5 32.7073 2.5 40.0009C2.5 47.2945 8.41276 53.2069 15.7069 53.2069C23.001 53.2069 28.9137 47.2945 28.9137 40.0009ZM7.5284 48.7281C7.37893 48.5886 6.96166 48.3868 7.37644 48.1489C7.70278 47.9621 7.86097 47.1961 8.48251 47.7765C10.4854 49.6485 12.8831 50.5453 15.2784 50.61C17.8704 50.5876 19.9269 49.9325 21.7741 48.626C22.0456 48.4341 22.3433 48.2486 22.4542 47.9272C22.5974 47.5075 22.5874 47.079 22.2088 46.759C21.8227 46.4339 21.4054 46.3978 20.9694 46.673C20.4313 47.013 19.9007 47.3643 19.3477 47.6781C19.1609 47.784 18.8519 48.0642 18.7336 47.6283C18.6414 47.2908 18.1768 46.8648 18.7112 46.5759C19.618 46.0876 20.4276 45.496 21.0952 44.7163C21.3169 44.4573 21.5075 44.5993 21.713 44.7151C22.3109 45.0489 22.9038 45.3889 23.5054 45.714C24.1731 46.0739 24.7386 45.9668 25.0524 45.4375C25.3775 44.8907 25.1695 44.2891 24.5069 43.9093C23.8517 43.5344 23.0284 43.3102 22.5712 42.7721C22.0568 42.1656 22.768 41.3846 22.7755 40.6461C22.788 39.4678 22.6285 38.3431 22.1739 37.2608C21.8775 36.5534 21.3008 36.2694 20.7216 36.5272C20.1785 36.7701 19.9518 37.3742 20.2632 38.0343C21.6159 40.8952 19.8584 44.2368 16.9823 45.0364C16.1353 45.2718 15.9473 45.704 16.1964 46.5385C16.3172 46.9458 16.4044 47.373 16.5937 47.7466C16.9363 48.4242 16.5999 48.5562 16.027 48.5649C13.3776 48.606 11.1418 47.6744 9.34071 45.7227C8.45137 44.7599 8.12503 44.7413 7.12234 45.6231C6.98034 45.7476 6.8371 45.8709 6.69511 45.9942C5.74971 46.82 5.74971 46.82 5.17177 45.6679C1.99928 39.342 4.52406 32.036 11.0036 29.2386C17.5927 26.3939 24.9914 30.0382 27.003 36.8423C27.1911 37.4775 27.3244 38.1227 27.3954 38.7791C27.4228 39.0307 27.5548 39.4354 27.0728 39.3669C26.7103 39.3159 26.1299 39.7144 26.0439 38.9186C25.8434 37.0478 25.177 35.3477 24.036 33.8506C22.1303 31.3497 19.5868 29.9747 16.4667 29.6633C15.5537 29.5724 15.0666 29.8327 14.9334 30.4318C14.7963 31.0433 15.1351 31.5627 15.7729 31.6735C16.2599 31.7582 16.7581 31.7819 17.2427 31.8778C17.4432 31.9176 17.8891 31.7943 17.7434 32.2352C17.6263 32.5902 17.6176 33.1544 17.0234 33.0984C16.1279 33.0137 15.2348 32.934 14.3479 33.127C13.9531 33.213 13.8584 32.9452 13.7451 32.6849C13.4225 31.9513 13.1235 31.2052 12.7798 30.4828C12.4821 29.8588 11.939 29.6608 11.3872 29.9211C10.874 30.164 10.681 30.6871 10.9238 31.3061C11.1904 31.9861 11.457 32.6724 11.797 33.3163C12.0523 33.8008 11.9689 34.0661 11.5043 34.3302C11.1817 34.5133 10.9052 34.7885 10.6386 35.0526C10.1703 35.5159 10.1429 36.1386 10.5427 36.5621C10.9438 36.9868 11.5379 36.9743 12.0598 36.5322C12.2753 36.3491 12.4796 36.1486 12.7113 35.9904C14.1013 35.0413 15.596 34.7873 17.2215 35.2929C18.2441 35.6118 18.5331 35.4598 18.9939 34.4834C19.1247 34.2056 19.2543 33.9279 19.3875 33.6514C19.8223 32.7496 19.8409 32.7272 20.6555 33.3574C22.7942 35.0127 23.9551 37.1898 24.0572 39.9087C24.1058 41.2115 24.3238 41.4257 25.6092 41.4295C25.8446 41.4295 26.0813 41.4295 26.3167 41.4282C27.5012 41.427 27.5012 41.427 27.226 42.599C25.963 47.982 21.6196 51.6949 16.1017 51.9502C12.8209 52.1009 9.93735 50.9862 7.5284 48.7281Z" fill="#1E344E"/>
<path d="M10.7905 38.5542C10.9936 37.8766 10.6984 37.4445 9.99337 37.2277C9.52129 37.082 9.04673 36.9338 8.56469 36.8279C8.08763 36.7233 7.9282 36.5788 8.22963 36.0869C8.72662 35.2773 9.28713 34.5325 9.97718 33.8774C10.5003 33.3817 10.5339 32.7602 10.1042 32.3192C9.69318 31.8958 9.09531 31.9033 8.59334 32.3641C6.51696 34.2697 5.40341 36.6424 5.17423 39.4385C5.11942 39.9641 5.17049 40.4523 5.68865 40.7313C6.07353 40.9393 6.46589 40.8995 6.82213 40.6416C7.22196 40.3527 7.18459 39.9081 7.2232 39.4871C7.30292 38.6177 7.40506 38.5741 8.21842 38.8506C8.54974 38.9627 8.56967 39.1608 8.56469 39.4397C8.55473 39.9815 8.52483 40.5283 8.58462 41.0639C8.63818 41.5396 8.46629 41.7352 8.02536 41.8548C7.45862 42.0092 6.90932 42.2309 6.36002 42.4401C5.69239 42.6942 5.41338 43.236 5.62263 43.8301C5.82068 44.3931 6.33511 44.6098 7.01893 44.3893C7.62428 44.1938 8.23959 44.0132 8.81381 43.7454C9.26595 43.5337 9.46524 43.6694 9.70066 44.0506C10.2948 45.0096 11.1107 45.7569 12.0884 46.3149C12.69 46.6586 13.2692 46.5291 13.5794 46.0259C13.8883 45.5252 13.7513 44.9212 13.1683 44.5799C11.2788 43.4789 10.0046 41.1772 10.7905 38.5542Z" fill="#1E344E"/>
<path d="M12.8582 37.4948C12.431 37.9419 12.4285 38.4289 12.8047 38.8947C13.1684 39.3456 13.7488 39.3555 14.2533 38.9669C14.4389 38.8237 14.6207 38.6668 14.8262 38.5597C15.7143 38.0963 16.7868 38.4613 17.234 39.363C17.6637 40.2299 17.3137 41.2748 16.4455 41.722C15.6583 42.1268 15.048 41.9848 14.1624 41.1901C13.6816 40.7592 13.1323 40.7368 12.7075 41.1329C12.2977 41.5152 12.2766 42.1243 12.6789 42.5951C13.4399 43.4843 14.4028 43.9639 15.5823 43.9863C18.1644 44.0137 19.9904 41.6908 19.3427 39.1189C18.9952 37.7376 18.0498 36.8147 16.6772 36.4448C15.2261 36.0537 13.9195 36.385 12.8582 37.4948Z" fill="#FFA048"/>
<path d="M39.1586 41.4702L43.3263 30.1387H44.3452L48.5129 41.4702H47.448L46.4141 38.5806H41.2574L40.2074 41.4702H39.1586ZM41.5775 37.6677H46.0803L43.6464 30.8984H44.0114L41.5775 37.6677Z" fill="#298DFE"/>
<path d="M50.1882 41.4702V30.1387H53.991C54.7109 30.1387 55.3449 30.2807 55.893 30.5646C56.441 30.8486 56.8695 31.2497 57.1784 31.7665C57.4873 32.2834 57.6418 32.8825 57.6418 33.5613C57.6418 34.3721 57.4213 35.0646 56.9804 35.6375C56.5394 36.2105 55.9478 36.6028 55.2079 36.8158L57.8847 41.4702H56.7138L53.9001 36.5119L54.7221 36.9839H51.1772V41.4714H50.1882V41.4702ZM51.176 36.071H54.0209C54.5378 36.071 54.9949 35.9676 55.3898 35.7596C55.7859 35.5516 56.0948 35.2577 56.3177 34.8778C56.5407 34.4979 56.6528 34.0545 56.6528 33.5463C56.6528 33.0394 56.5407 32.601 56.3177 32.2311C56.0948 31.8612 55.7859 31.5722 55.3898 31.3642C54.9937 31.1562 54.5378 31.0529 54.0209 31.0529H51.176V36.071Z" fill="#298DFE"/>
<path d="M59.8925 41.4702V30.1387H60.7295L64.9583 36.4359H64.5472L68.7909 30.1387H69.628V41.4702H68.639V31.5834L68.8819 31.7205L64.7752 37.8508H64.7291L60.6224 31.7205L60.8815 31.5834V41.4702H59.8925Z" fill="#298DFE"/>
<path d="M31.2866 48.1067V42.1582H33.2272C33.8711 42.1582 34.4304 42.2865 34.9037 42.5418C35.377 42.7971 35.7445 43.1484 36.0061 43.5955C36.2664 44.0426 36.3972 44.5533 36.3972 45.1287C36.3972 45.7041 36.2664 46.216 36.0061 46.6656C35.7457 47.1153 35.3783 47.4677 34.9037 47.7231C34.4292 47.9784 33.8711 48.1067 33.2272 48.1067H31.2866ZM32.5247 47.0281H33.2596C33.6482 47.0281 33.9832 46.9496 34.266 46.7927C34.5487 46.6358 34.768 46.4153 34.9249 46.1301C35.0818 45.8449 35.1603 45.5111 35.1603 45.1275C35.1603 44.7389 35.0818 44.4038 34.9249 44.1211C34.768 43.8384 34.5487 43.6204 34.266 43.466C33.9832 43.3115 33.6482 43.2343 33.2596 43.2343H32.5247V47.0281Z" fill="#1E344E"/>
<path d="M37.1009 43.3544V42.1562H38.2991V43.3544H37.1009ZM37.1009 48.106V43.7455H38.2991V48.106H37.1009Z" fill="#1E344E"/>
<path d="M41.3172 49.8629C40.9822 49.8629 40.6708 49.8069 40.383 49.6948C40.0953 49.5827 39.8487 49.427 39.6444 49.2277C39.4389 49.0284 39.2919 48.793 39.201 48.5215L40.3108 48.1304C40.3693 48.3322 40.4889 48.4929 40.6695 48.6099C40.8501 48.727 41.0656 48.7856 41.316 48.7856C41.5128 48.7856 41.6834 48.7494 41.8267 48.6772C41.9699 48.605 42.0808 48.5003 42.158 48.3621C42.2352 48.2238 42.2738 48.0619 42.2738 47.8751V46.8775L42.5055 47.1652C42.356 47.4105 42.1642 47.5924 41.9301 47.7119C41.6959 47.8315 41.4219 47.8913 41.108 47.8913C40.7032 47.8913 40.3407 47.7991 40.0218 47.616C39.703 47.433 39.4526 47.1801 39.2707 46.8575C39.0901 46.535 38.9992 46.17 38.9992 45.759C38.9992 45.3492 39.0901 44.9856 39.2707 44.6692C39.4514 44.3528 39.6992 44.1037 40.0131 43.9219C40.327 43.7413 40.6845 43.6504 41.0831 43.6504C41.3969 43.6504 41.671 43.7127 41.9051 43.8385C42.1393 43.963 42.3386 44.1536 42.5043 44.4089L42.3523 44.6966V43.7463H43.4708V47.8751C43.4708 48.2587 43.3774 48.6 43.1918 48.9014C43.005 49.2016 42.7509 49.4382 42.4295 49.6076C42.1082 49.7782 41.737 49.8629 41.3172 49.8629ZM41.2774 46.8052C41.4792 46.8052 41.6548 46.7629 41.8042 46.6769C41.9537 46.5922 42.0696 46.4727 42.1518 46.317C42.234 46.1626 42.2751 45.982 42.2751 45.774C42.2751 45.566 42.2327 45.3841 42.1468 45.2272C42.0621 45.0703 41.945 44.9482 41.7955 44.8598C41.6461 44.7713 41.4729 44.7277 41.2761 44.7277C41.0743 44.7277 40.8937 44.7713 40.7368 44.8598C40.5798 44.9469 40.4578 45.0703 40.3693 45.2272C40.2822 45.3841 40.2373 45.566 40.2373 45.774C40.2373 45.9757 40.2809 46.1551 40.3693 46.3095C40.4578 46.464 40.5798 46.5848 40.7368 46.6732C40.895 46.7604 41.0743 46.8052 41.2774 46.8052Z" fill="#1E344E"/>
<path d="M44.3514 43.3544V42.1562H45.5497V43.3544H44.3514ZM44.3514 48.106V43.7455H45.5497V48.106H44.3514Z" fill="#1E344E"/>
<path d="M48.5279 48.1538C48.001 48.1538 47.5924 48.0118 47.3022 47.7266C47.012 47.4414 46.8675 47.0441 46.8675 46.5322V44.7835H46.1326V43.746H46.1725C46.3954 43.746 46.5673 43.69 46.6882 43.5779C46.8077 43.4658 46.8675 43.2989 46.8675 43.0747V42.7559H48.0658V43.746H49.0884V44.7835H48.0658V46.4525C48.0658 46.6019 48.0919 46.7253 48.1455 46.8236C48.199 46.922 48.2813 46.9955 48.3934 47.0429C48.5055 47.0902 48.6437 47.1151 48.8081 47.1151C48.8455 47.1151 48.8878 47.1126 48.9364 47.1076C48.985 47.1026 49.0348 47.0964 49.0884 47.0914V48.1053C49.0087 48.1165 48.9177 48.1264 48.8169 48.1376C48.7147 48.1489 48.6188 48.1538 48.5279 48.1538Z" fill="#1E344E"/>
<path d="M51.1398 48.2027C50.8259 48.2027 50.5544 48.1516 50.3252 48.0507C50.096 47.9498 49.9204 47.8041 49.7983 47.616C49.6763 47.4267 49.6152 47.2025 49.6152 46.941C49.6152 46.6956 49.6713 46.4789 49.7834 46.2896C49.8955 46.1003 50.0674 45.9421 50.2991 45.8151C50.5307 45.6868 50.8197 45.5971 51.166 45.5435L52.5 45.3281V46.2061L51.3815 46.4054C51.2108 46.4378 51.0813 46.4914 50.9903 46.5686C50.8994 46.6458 50.8546 46.7567 50.8546 46.8999C50.8546 47.0332 50.9057 47.1365 51.0065 47.2113C51.1074 47.286 51.2332 47.3234 51.3815 47.3234C51.5783 47.3234 51.7514 47.281 51.9009 47.1951C52.0503 47.1104 52.1662 46.9945 52.2484 46.8476C52.3306 46.7006 52.3717 46.5399 52.3717 46.3643V45.2309C52.3717 45.0665 52.3069 44.927 52.1761 44.8162C52.0454 44.7041 51.8685 44.648 51.6455 44.648C51.4325 44.648 51.2444 44.7066 51.0825 44.8236C50.9206 44.9407 50.8023 45.0952 50.7275 45.287L49.7697 44.8324C49.8544 44.587 49.9902 44.3778 50.177 44.2009C50.3638 44.0253 50.5868 43.8895 50.8484 43.7936C51.1087 43.6977 51.3939 43.6504 51.7028 43.6504C52.0703 43.6504 52.3954 43.7164 52.6769 43.8497C52.9596 43.9829 53.1788 44.1673 53.3358 44.4052C53.4927 44.6418 53.5712 44.9171 53.5712 45.2322V48.1068H52.4527V47.4043L52.7242 47.357C52.5959 47.5488 52.4552 47.707 52.3007 47.8315C52.1462 47.9561 51.9731 48.0495 51.7813 48.1105C51.587 48.1715 51.374 48.2027 51.1398 48.2027Z" fill="#1E344E"/>
<path d="M54.4456 48.1069V42.0625H55.6439V48.1069H54.4456Z" fill="#1E344E"/>
<path d="M59.6446 48.1067L57.6081 42.1582H58.9658L60.4991 46.9334H60.2275L61.7609 42.1582H63.1185L61.082 48.1067H59.6446Z" fill="#1E344E"/>
<path d="M64.6755 48.2027C64.3616 48.2027 64.0901 48.1516 63.8609 48.0507C63.6317 47.9498 63.4561 47.8041 63.334 47.616C63.212 47.4267 63.1509 47.2025 63.1509 46.941C63.1509 46.6956 63.207 46.4789 63.3191 46.2896C63.4312 46.1003 63.6031 45.9421 63.8348 45.8151C64.0664 45.6868 64.3554 45.5971 64.7017 45.5435L66.0357 45.3281V46.2061L64.9172 46.4054C64.7465 46.4378 64.6157 46.4914 64.5261 46.5686C64.4351 46.6458 64.3903 46.7567 64.3903 46.8999C64.3903 47.0332 64.4414 47.1365 64.5423 47.2113C64.6431 47.286 64.7689 47.3234 64.9172 47.3234C65.114 47.3234 65.2871 47.281 65.4366 47.1951C65.586 47.1104 65.7019 46.9945 65.7841 46.8476C65.8663 46.7006 65.9074 46.5399 65.9074 46.3643V45.2309C65.9074 45.0665 65.8426 44.927 65.7118 44.8162C65.5811 44.7041 65.4042 44.648 65.1812 44.648C64.9682 44.648 64.7802 44.7066 64.6182 44.8236C64.4563 44.9407 64.338 45.0952 64.2632 45.287L63.3054 44.8324C63.3901 44.587 63.5259 44.3778 63.7127 44.2009C63.8995 44.0253 64.1225 43.8895 64.3841 43.7936C64.6444 43.6977 64.9296 43.6504 65.2385 43.6504C65.606 43.6504 65.9311 43.7164 66.2126 43.8497C66.4953 43.9829 66.7145 44.1673 66.8715 44.4052C67.0284 44.6418 67.1069 44.9171 67.1069 45.2322V48.1068H65.9884V47.4043L66.2599 47.357C66.1316 47.5488 65.9909 47.707 65.8364 47.8315C65.682 47.9561 65.5088 48.0495 65.317 48.1105C65.1227 48.1715 64.9097 48.2027 64.6755 48.2027Z" fill="#1E344E"/>
<path d="M69.547 48.2025C69.1957 48.2025 68.8968 48.1265 68.6489 47.9745C68.4011 47.8226 68.2142 47.6109 68.0859 47.3393C67.9576 47.0678 67.8941 46.7515 67.8941 46.389V43.7461H69.0923V46.2931C69.0923 46.4588 69.126 46.6033 69.192 46.7278C69.258 46.8524 69.3527 46.9495 69.476 47.0193C69.5981 47.089 69.7363 47.1226 69.8908 47.1226C70.0502 47.1226 70.1897 47.0878 70.3105 47.0193C70.4301 46.9495 70.5235 46.8524 70.5895 46.7278C70.6556 46.6033 70.6892 46.4575 70.6892 46.2931V43.7461H71.8874V48.1066H70.7689V47.2447L70.8324 47.4365C70.7315 47.6968 70.5671 47.8899 70.3417 48.0157C70.115 48.139 69.8497 48.2025 69.547 48.2025Z" fill="#1E344E"/>
<path d="M72.7656 48.1069V42.0625H73.9638V48.1069H72.7656Z" fill="#1E344E"/>
<path d="M76.942 48.1538C76.4151 48.1538 76.0066 48.0118 75.7164 47.7266C75.4261 47.4414 75.2816 47.0441 75.2816 46.5322V44.7835H74.5468V43.746H74.5866C74.8096 43.746 74.9815 43.69 75.1023 43.5779C75.2219 43.4658 75.2816 43.2989 75.2816 43.0747V42.7559H76.4799V43.746H77.5025V44.7835H76.4799V46.4525C76.4799 46.6019 76.5061 46.7253 76.5596 46.8236C76.6132 46.922 76.6954 46.9955 76.8075 47.0429C76.9196 47.0902 77.0578 47.1151 77.2223 47.1151C77.2596 47.1151 77.302 47.1126 77.3506 47.1076C77.3991 47.1026 77.449 47.0964 77.5025 47.0914V48.1053C77.4228 48.1165 77.3319 48.1264 77.231 48.1376C77.1276 48.1489 77.0317 48.1538 76.942 48.1538Z" fill="#1E344E"/>
</g>
<defs>
<clipPath id="clip0_4691_18195">
<rect width="75" height="26.412" fill="white" transform="translate(2.5 26.7949)"/>
</clipPath>
</defs>
</svg>
