<svg width="80" height="80" viewBox="0 0 80 80" fill="none" xmlns="http://www.w3.org/2000/svg">
<rect width="80" height="80" rx="12" fill="white"/>
<g clip-path="url(#clip0_4654_34974)">
<path d="M19.9881 39.6205L26.1887 21.6797H30.4336L36.6325 39.6205H33.063L31.7844 35.7671H24.8379L23.5353 39.6205H19.9881ZM25.778 32.8779H30.8443L27.8523 23.9427H28.7683L25.778 32.8779Z" fill="#002E24"/>
<path d="M38.6363 39.6205V21.6797H45.3181C46.54 21.6797 47.621 21.901 48.5627 22.3419C49.5028 22.7846 50.2401 23.4262 50.7694 24.2686C51.3004 25.111 51.5651 26.1353 51.5651 27.3397C51.5651 28.5767 51.2712 29.6267 50.6852 30.4948C50.0974 31.3612 49.3069 32.0046 48.3084 32.4215L52.4329 39.6222H48.7174L44.3024 31.7473L46.4248 32.9997H41.9136V39.6222H38.6363V39.6205ZM41.917 30.1088H45.3662C45.9608 30.1088 46.4764 29.9921 46.9095 29.7588C47.3443 29.5272 47.6811 29.2012 47.9234 28.7843C48.164 28.3674 48.286 27.8853 48.286 27.3397C48.286 26.7787 48.1657 26.2914 47.9234 25.8831C47.6828 25.473 47.3443 25.1522 46.9095 24.9206C46.4747 24.6873 45.9608 24.5706 45.3662 24.5706H41.917V30.1088Z" fill="#002E24"/>
<path d="M54.5812 39.6205V21.6797H57.7176L64.4475 30.8071H62.9523L69.5362 21.6797H72.6725V39.6205H69.3677V25.413L70.6464 25.7252L63.8202 34.8046H63.4335L56.7758 25.7252L57.8619 25.413V39.6222H54.5812V39.6205Z" fill="#002E24"/>
<path d="M16.1351 43.9974V41.6074H18.3744V43.9974H16.1351ZM16.1351 54.324V45.0388H18.3744V54.324H16.1351Z" fill="#47E696"/>
<path d="M20.4435 54.3234V45.0381H22.5471V46.8653L22.3769 46.5411C22.5935 45.9835 22.9492 45.5597 23.4459 45.2698C23.9408 44.9798 24.52 44.834 25.1816 44.834C25.8656 44.834 26.4723 44.9815 27.0033 45.2783C27.5326 45.5752 27.9468 45.9869 28.2424 46.5153C28.538 47.0438 28.6875 47.6563 28.6875 48.3511V54.3251H26.4482V48.8795C26.4482 48.4695 26.3692 48.1178 26.2093 47.821C26.0495 47.5259 25.8295 47.2943 25.5511 47.1296C25.271 46.9648 24.9445 46.8825 24.5681 46.8825C24.2038 46.8825 23.879 46.9648 23.5937 47.1296C23.3084 47.2943 23.0867 47.5259 22.9269 47.821C22.767 48.1161 22.688 48.4695 22.688 48.8795V54.3251H20.4435V54.3234Z" fill="#47E696"/>
<path d="M33.405 54.5293C32.7554 54.5293 32.1917 54.4212 31.7122 54.205C31.2327 53.9888 30.8632 53.6783 30.6003 53.2751C30.3373 52.8719 30.2067 52.4018 30.2067 51.8665C30.2067 51.3553 30.3202 50.8972 30.5487 50.4923C30.7756 50.0891 31.1296 49.7494 31.6091 49.4766C32.0886 49.2038 32.6918 49.0099 33.4222 48.8967L36.4657 48.4009V50.108L33.8501 50.5523C33.405 50.6312 33.075 50.7736 32.8585 50.9795C32.6419 51.1837 32.5337 51.4513 32.5337 51.7825C32.5337 52.1016 32.6557 52.3538 32.9014 52.5425C33.1472 52.7312 33.4514 52.8239 33.8157 52.8239C34.2832 52.8239 34.6956 52.7244 35.0548 52.5253C35.414 52.3263 35.6924 52.0501 35.8935 51.6967C36.0928 51.345 36.1925 50.9572 36.1925 50.5352V48.1452C36.1925 47.7472 36.0361 47.4144 35.7216 47.1467C35.4088 46.8791 34.9947 46.7452 34.4825 46.7452C34.003 46.7452 33.5786 46.8739 33.2091 47.1296C32.8379 47.3852 32.568 47.7249 32.3962 48.1452L30.5659 47.2582C30.7481 46.7693 31.0368 46.3455 31.4286 45.9869C31.8222 45.6283 32.2862 45.347 32.8224 45.1411C33.3586 44.9369 33.9395 44.834 34.5667 44.834C35.3298 44.834 36.0035 44.973 36.5843 45.2526C37.1652 45.5323 37.6189 45.9183 37.9437 46.4141C38.2685 46.9082 38.4301 47.4864 38.4301 48.1469V54.3268H36.3094V52.7398L36.7888 52.7055C36.55 53.1035 36.2647 53.4364 35.9347 53.704C35.603 53.9717 35.2284 54.1758 34.8056 54.3182C34.3846 54.4572 33.9171 54.5293 33.405 54.5293Z" fill="#47E696"/>
<path d="M40.4992 54.3234V45.0381H42.6028V46.8653L42.4326 46.5411C42.6492 45.9835 43.0049 45.5597 43.5016 45.2698C43.9982 44.9798 44.5757 44.834 45.2373 44.834C45.9213 44.834 46.528 44.9815 47.059 45.2783C47.5883 45.5752 48.0025 45.9869 48.2981 46.5153C48.5937 47.0438 48.7432 47.6563 48.7432 48.3511V54.3251H46.5039V48.8795C46.5039 48.4695 46.4249 48.1178 46.265 47.821C46.1052 47.5259 45.8852 47.2943 45.6068 47.1296C45.3267 46.9648 45.0002 46.8825 44.6238 46.8825C44.2595 46.8825 43.9347 46.9648 43.6494 47.1296C43.3641 47.2943 43.1424 47.5259 42.9826 47.821C42.8227 48.1161 42.7437 48.4695 42.7437 48.8795V54.3251H40.4992V54.3234Z" fill="#47E696"/>
<path d="M55.1191 54.529C54.1962 54.529 53.3662 54.3163 52.6306 53.8891C51.8951 53.4619 51.3159 52.882 50.8949 52.1477C50.4721 51.4134 50.2624 50.5864 50.2624 49.6634C50.2624 48.7421 50.4738 47.9168 50.8949 47.1876C51.3159 46.4602 51.8951 45.8855 52.6306 45.4634C53.3662 45.0431 54.1945 44.832 55.1191 44.832C55.7807 44.832 56.396 44.9487 56.9665 45.182C57.5354 45.4154 58.0286 45.7345 58.4462 46.1377C58.8621 46.5426 59.1612 47.0229 59.3433 47.5805L57.3773 48.4332C57.2072 47.9666 56.9184 47.5908 56.5146 47.306C56.109 47.0212 55.645 46.8788 55.1208 46.8788C54.631 46.8788 54.1945 46.9989 53.813 47.2374C53.4315 47.4759 53.1324 47.807 52.9159 48.2273C52.6993 48.6477 52.5911 49.1315 52.5911 49.6788C52.5911 50.2261 52.6993 50.7082 52.9159 51.1303C53.1324 51.5506 53.4315 51.8817 53.813 52.1202C54.1945 52.3587 54.631 52.4788 55.1208 52.4788C55.657 52.4788 56.1245 52.3364 56.5232 52.0516C56.9219 51.7668 57.2072 51.3859 57.3773 50.9072L59.3433 51.7942C59.1612 52.3175 58.8638 52.7876 58.4548 53.2028C58.0441 53.618 57.5543 53.9423 56.9837 54.1756C56.4115 54.4106 55.791 54.529 55.1191 54.529Z" fill="#47E696"/>
<path d="M61.0344 43.9974V41.6074H63.2737V43.9974H61.0344ZM61.0344 54.324V45.0388H63.2737V54.324H61.0344Z" fill="#47E696"/>
<path d="M68.1647 54.5293C67.5151 54.5293 66.9514 54.4212 66.472 54.205C65.9925 53.9888 65.623 53.6783 65.36 53.2751C65.0971 52.8719 64.9665 52.4018 64.9665 51.8665C64.9665 51.3553 65.0799 50.8972 65.3085 50.4923C65.5353 50.0891 65.8894 49.7494 66.3688 49.4766C66.8483 49.2038 67.4515 49.0099 68.1819 48.8967L71.2255 48.4009V50.108L68.6099 50.5523C68.1647 50.6312 67.8348 50.7736 67.6182 50.9795C67.4017 51.1837 67.2934 51.4513 67.2934 51.7825C67.2934 52.1016 67.4154 52.3538 67.6612 52.5425C67.907 52.7312 68.2111 52.8239 68.5755 52.8239C69.0429 52.8239 69.4554 52.7244 69.8146 52.5253C70.1737 52.3263 70.4522 52.0501 70.6532 51.6967C70.8526 51.345 70.9523 50.9572 70.9523 50.5352V48.1452C70.9523 47.7472 70.7959 47.4144 70.4814 47.1467C70.1686 46.8791 69.7544 46.7452 69.2423 46.7452C68.7628 46.7452 68.3383 46.8739 67.9688 47.1296C67.5976 47.3852 67.3278 47.7249 67.1559 48.1452L65.3257 47.2582C65.5078 46.7693 65.7966 46.3455 66.1884 45.9869C66.5819 45.6283 67.046 45.347 67.5822 45.1411C68.1183 44.9369 68.6992 44.834 69.3265 44.834C70.0895 44.834 70.7632 44.973 71.3441 45.2526C71.925 45.5323 72.3787 45.9183 72.7035 46.4141C73.0283 46.9082 73.1898 47.4864 73.1898 48.1469V54.3268H71.0708V52.7398L71.5503 52.7055C71.3114 53.1035 71.0262 53.4364 70.6962 53.704C70.3645 53.9717 69.9899 54.1758 69.5671 54.3182C69.1443 54.4572 68.6769 54.5293 68.1647 54.5293Z" fill="#47E696"/>
<path d="M75.2607 54.3231V41.4023H77.5V54.3231H75.2607Z" fill="#47E696"/>
<path d="M16.4805 39.403C16.1815 39.2417 15.8962 39.1199 15.623 39.0375C15.3497 38.9552 15.0954 38.9123 14.8599 38.9123C14.3306 38.9123 13.9199 39.1988 13.626 39.7735C13.3321 40.3483 12.9884 41.8306 12.5914 44.2257C12.8733 44.248 13.1259 44.2652 13.351 44.2772C13.5744 44.2892 13.748 44.2943 13.8683 44.2943C14.2825 44.2943 14.5746 44.2737 14.7431 44.2343C14.9132 44.1948 15.0541 44.1313 15.1693 44.0456L15.281 44.2429C14.9819 44.5654 14.6434 44.7919 14.2636 44.924C13.8838 45.0561 13.3527 45.1213 12.667 45.1213H12.478C12.4556 45.2654 12.423 45.4833 12.3835 45.775C11.7631 50.4759 11.0206 53.5109 10.1579 54.8766C9.53752 55.8631 8.71776 56.642 7.70037 57.2099C6.68298 57.7778 5.60372 58.0626 4.46603 58.0626C3.94358 58.0626 3.52769 57.97 3.22007 57.7864C2.91244 57.6028 2.75949 57.3523 2.75949 57.0366C2.75949 56.8702 2.79043 56.7124 2.85401 56.5631C2.9176 56.4138 3.00868 56.2783 3.1307 56.1582C3.44692 56.479 3.84734 56.7312 4.3337 56.9114C4.82005 57.0915 5.33047 57.1825 5.86494 57.1825C6.5833 57.1825 7.21917 56.9903 7.77083 56.606C8.32249 56.2217 8.75385 55.6727 9.06491 54.9607C9.51862 53.8987 10.06 51.1056 10.6872 46.583L10.7388 46.1781L10.8849 45.0492C10.5807 45.0492 10.3006 45.0715 10.0479 45.1179C9.79531 45.1642 9.55643 45.2362 9.33129 45.334L9.23677 45.171C9.56502 44.8382 9.86577 44.598 10.1425 44.447C10.4191 44.2978 10.7165 44.212 11.0395 44.188C11.3042 42.3796 11.916 40.875 12.8767 39.6723C13.8374 38.4696 14.8324 37.8691 15.8618 37.8691C16.1488 37.8691 16.3757 37.9343 16.539 38.063C16.7022 38.1917 16.7847 38.3684 16.7847 38.5932C16.7847 38.7476 16.7607 38.89 16.7108 39.0186C16.661 39.149 16.5836 39.276 16.4805 39.403Z" fill="#47E696"/>
<path d="M4.46604 58.32C3.89891 58.32 3.4349 58.2153 3.08775 58.0077C2.70279 57.7778 2.5 57.4433 2.5 57.0384C2.5 56.8376 2.53953 56.6455 2.61514 56.4653C2.69076 56.2852 2.80247 56.1222 2.94683 55.9798L3.13071 55.7962L3.31288 55.9815C3.6016 56.2749 3.97453 56.5082 4.42308 56.6746C4.8785 56.8445 5.36313 56.9303 5.86496 56.9303C6.5266 56.9303 7.11779 56.7518 7.62305 56.4001C8.13346 56.045 8.53905 55.5286 8.82777 54.8629C9.27116 53.8283 9.80907 51.0318 10.4312 46.5522L10.591 45.3203C10.414 45.3306 10.249 45.3495 10.0943 45.3769C9.86234 45.4198 9.64065 45.485 9.43442 45.5742L9.22304 45.6652L8.91369 45.1333L9.05118 44.9943C9.39489 44.6443 9.7197 44.387 10.017 44.2257C10.2645 44.0919 10.5309 44.0027 10.8127 43.9598C11.098 42.1995 11.7236 40.7069 12.6739 39.5162C13.681 38.2552 14.7534 37.6152 15.8601 37.6152C16.2056 37.6152 16.4874 37.6993 16.6971 37.864C16.9222 38.0407 17.0408 38.2946 17.0408 38.5949C17.0408 38.7802 17.0099 38.9535 16.9514 39.1113C16.893 39.2674 16.8019 39.4201 16.6816 39.5677L16.5476 39.7307L16.3602 39.6311C16.0767 39.4785 15.8034 39.3618 15.5491 39.2846C15.3016 39.2091 15.0696 39.1713 14.8617 39.1713C14.4337 39.1713 14.1055 39.4064 13.858 39.8919C13.5899 40.4186 13.2651 41.7963 12.8939 43.9924C13.064 44.0044 13.2204 44.0147 13.3648 44.0216C13.5796 44.0336 13.7497 44.0387 13.8683 44.0387C14.3564 44.0387 14.5815 44.0095 14.6846 43.9855C14.8187 43.9546 14.9304 43.9049 15.0163 43.8414L15.2501 43.6664L15.6006 44.2823L15.4717 44.4196C15.1452 44.7713 14.7689 45.0218 14.3495 45.1676C13.9439 45.3083 13.4043 45.3787 12.6997 45.3804C12.6825 45.4988 12.6619 45.6429 12.6395 45.8127C12.0071 50.596 11.2681 53.607 10.3762 55.0173C9.73517 56.0364 8.87589 56.8514 7.82584 57.4381C6.77408 58.0214 5.64326 58.32 4.46604 58.32ZM3.15649 56.5357C3.13071 56.5769 3.10837 56.6197 3.08947 56.6644C3.03963 56.7827 3.01557 56.9045 3.01557 57.0384C3.01557 57.2614 3.12212 57.4295 3.35241 57.5668C3.61707 57.7246 3.99344 57.8053 4.46604 57.8053C5.34423 57.8053 6.19492 57.6251 7.00265 57.27C6.6469 57.3832 6.26538 57.4415 5.86324 57.4415C5.29955 57.4415 4.75476 57.3455 4.24263 57.1533C3.82502 56.9989 3.46068 56.7913 3.15649 56.5357ZM10.8832 44.7936H11.177L10.9416 46.6157C10.3057 51.2068 9.76954 53.969 9.30209 55.0619C9.03915 55.6641 8.69028 56.1599 8.26064 56.546C8.92916 56.0587 9.49285 55.4531 9.9414 54.7394C10.7801 53.4114 11.5156 50.3833 12.1291 45.7407C12.1704 45.4439 12.2013 45.2242 12.2254 45.0801L12.2597 44.864H12.6688C13.3201 44.864 13.8288 44.8022 14.1794 44.6804C14.2945 44.6409 14.408 44.5894 14.5162 44.5277C14.3444 44.5431 14.1295 44.5517 13.8666 44.5517C13.7377 44.5517 13.559 44.5466 13.3356 44.5345C13.1053 44.5225 12.8475 44.5054 12.5691 44.4831L12.2907 44.4608L12.3371 44.1845C12.7427 41.7414 13.0881 40.2608 13.3974 39.6586C13.736 38.9946 14.2292 38.6566 14.8599 38.6566C15.1194 38.6566 15.403 38.703 15.6986 38.7922C15.9237 38.8608 16.1592 38.9552 16.3998 39.0736C16.4273 39.0255 16.4513 38.9775 16.4685 38.9312C16.5063 38.8316 16.5252 38.7184 16.5252 38.5966C16.5252 38.4508 16.4788 38.3495 16.3774 38.2689C16.2606 38.1763 16.087 38.1299 15.8601 38.1299C14.9184 38.1299 13.9817 38.7047 13.0778 39.837C12.1498 40.9985 11.55 42.4757 11.2939 44.2309L11.2647 44.435L11.0585 44.4505C10.7749 44.4711 10.5085 44.5466 10.2662 44.6787C10.1682 44.7318 10.0651 44.7988 9.95686 44.8794C9.97233 44.876 9.98608 44.8742 10.0015 44.8708C10.2662 44.8176 10.5635 44.7936 10.8832 44.7936Z" fill="#47E696"/>
</g>
<defs>
<clipPath id="clip0_4654_34974">
<rect width="75" height="36.6399" fill="white" transform="translate(2.5 21.6797)"/>
</clipPath>
</defs>
</svg>
