<svg width="80" height="80" viewBox="0 0 80 80" fill="none" xmlns="http://www.w3.org/2000/svg">
<rect width="80" height="80" rx="12" fill="white"/>
<g clip-path="url(#clip0_4654_34916)">
<path d="M32.8432 45.8475V44.8398C32.7665 45.0303 32.6978 45.2366 32.6396 45.46L32.8432 45.8475Z" fill="#D1D3D4"/>
<path d="M39.9577 45.8894V44.5273C39.8202 44.7971 39.7171 45.0999 39.6523 45.4411L39.9577 45.8894Z" fill="#D1D3D4"/>
<path d="M46.8237 45.5229C46.7497 45.1963 46.6294 44.8974 46.4655 44.625C46.2685 44.9133 46.094 45.2386 45.9473 45.6036L46.8237 45.5229Z" fill="#D1D3D4"/>
<path d="M11.5855 31.7801C12.3747 30.8426 13.4216 30.1668 14.6087 29.8865C15.0106 29.7873 15.4283 29.7384 15.8579 29.7384C17.5513 29.7384 19.0741 30.5265 20.1303 31.7815L17.7522 27.7628C17.6028 27.5089 17.4204 27.2986 17.2142 27.132C16.2148 26.3121 14.6999 26.5224 13.9649 27.7628L11.5855 31.7801Z" fill="#D1D3D4"/>
<path d="M24.7584 41.2519L22.018 36.1197C20.8336 33.9008 18.8957 32.6247 16.8427 32.2875C16.8401 32.2875 16.8375 32.2862 16.8348 32.2862C16.4766 32.2148 16.1091 32.1777 15.7337 32.1777C15.3569 32.1777 14.9894 32.2148 14.6312 32.2862C12.5756 32.6207 10.635 33.8981 9.44929 36.1197L6.71029 41.2479L3.00232 48.1917C2.58328 48.9746 2.44844 49.7905 2.51718 50.6077C2.92962 55.4384 9.6251 55.0112 9.6251 50.1594V49.2007V42.569C9.6251 42.5597 9.6251 42.5518 9.6251 42.5425V42.569C9.6251 39.3768 11.7177 36.7148 14.5016 36.0986C14.8995 36.01 15.3106 35.965 15.7323 35.965C17.4178 35.965 18.9446 36.7056 20.051 37.8997C21.1548 39.0938 21.8396 40.7467 21.8396 42.5703V49.2033V50.0907C21.8396 54.92 28.5139 55.318 28.8906 50.5046C28.9554 49.6781 28.8153 48.8542 28.3923 48.0608L24.7584 41.2519Z" fill="#D1D3D4"/>
<path d="M29.541 53.5262V42.3984H32.3937V45.0683L32.1901 44.6808C32.4347 43.7432 32.8392 43.1085 33.4023 42.7752C33.9655 42.442 34.6357 42.2754 35.409 42.2754H36.0607V44.9254H35.1036C34.3568 44.9254 33.7513 45.1529 33.29 45.6078C32.8286 46.0627 32.5973 46.7054 32.5973 47.5332V53.5249H29.541V53.5262Z" fill="#D1D3D4"/>
<path d="M36.6542 53.5274V42.3996H39.5069V45.1104L39.2016 44.6622C39.3642 43.8066 39.7581 43.1745 40.3834 42.7672C41.0086 42.3599 41.7555 42.1562 42.624 42.1562C43.548 42.1562 44.3583 42.3903 45.059 42.8598C45.7583 43.3279 46.1958 43.9573 46.3729 44.7455L45.4965 44.8275C45.8627 43.9177 46.3862 43.2446 47.0656 42.8095C47.7451 42.3744 48.5396 42.1576 49.449 42.1576C50.2501 42.1576 50.96 42.3348 51.5786 42.6878C52.196 43.0409 52.6824 43.5342 53.0354 44.1649C53.3883 44.797 53.5655 45.5336 53.5655 46.376V53.53H50.5092V47.0279C50.5092 46.5928 50.4312 46.2199 50.2752 45.9065C50.1192 45.5944 49.8985 45.3498 49.6129 45.1726C49.3274 44.9967 48.9811 44.9081 48.5739 44.9081C48.18 44.9081 47.8363 44.9967 47.5455 45.1726C47.2533 45.3498 47.0286 45.5944 46.8726 45.9065C46.7166 46.2186 46.6386 46.5928 46.6386 47.0279V53.53H43.5824V47.0279C43.5824 46.5928 43.5044 46.2199 43.3484 45.9065C43.1924 45.5944 42.9717 45.3498 42.6861 45.1726C42.4006 44.9967 42.0543 44.9081 41.6471 44.9081C41.2532 44.9081 40.9108 44.9967 40.6187 45.1726C40.3265 45.3498 40.1018 45.5944 39.9458 45.9065C39.7898 46.2186 39.7118 46.5928 39.7118 47.0279V53.53H36.6542V53.5274Z" fill="#D1D3D4"/>
<path d="M58.4248 49.6713C57.5286 49.6713 56.7645 49.4782 56.1326 49.0907C55.5007 48.7033 55.0222 48.1638 54.6957 47.4708C54.3692 46.7779 54.2066 45.9699 54.2066 45.0456V38.2988H57.2628V44.801C57.2628 45.2228 57.3475 45.5931 57.518 45.9118C57.6872 46.2318 57.9291 46.4791 58.2411 46.6563C58.553 46.8334 58.906 46.9207 59.2999 46.9207C59.7071 46.9207 60.064 46.8321 60.3693 46.6563C60.6747 46.4804 60.9127 46.2318 61.0819 45.9118C61.2511 45.5931 61.337 45.2228 61.337 44.801V38.2988H64.3932V49.4266H61.5406V47.2249L61.7032 47.7142C61.4454 48.3806 61.0277 48.8726 60.45 49.1912C59.8736 49.5113 59.1981 49.6713 58.4248 49.6713Z" fill="#D1D3D4"/>
<path d="M65.0516 53.5027V38.2993H67.9042V40.4191L67.6399 39.8082C68.006 39.2514 68.5057 38.8203 69.1376 38.5136C69.7695 38.2081 70.4925 38.0547 71.3068 38.0547C72.3657 38.0547 73.3241 38.3126 74.1794 38.8296C75.0346 39.3467 75.7141 40.0422 76.2164 40.919C76.7188 41.7957 76.9699 42.7769 76.9699 43.8639C76.9699 44.9377 76.7214 45.9162 76.2257 46.7982C75.73 47.6816 75.0545 48.3811 74.1992 48.8969C73.3439 49.4139 72.3723 49.6718 71.2857 49.6718C70.5243 49.6718 69.8223 49.5329 69.1772 49.2539C68.5322 48.9762 68.0126 48.5649 67.6187 48.0214L68.1078 47.3893V53.504H65.0516V53.5027ZM70.9195 46.9199C71.4906 46.9199 71.9929 46.7903 72.4278 46.5324C72.8627 46.2746 73.2025 45.9149 73.447 45.4521C73.6916 44.9906 73.8132 44.4603 73.8132 43.8626C73.8132 43.2649 73.6916 42.7385 73.447 42.2836C73.2025 41.8288 72.8627 41.4677 72.4278 41.2033C71.9929 40.9388 71.4906 40.8052 70.9195 40.8052C70.3762 40.8052 69.8911 40.9348 69.4628 41.1927C69.0345 41.4506 68.7014 41.8116 68.4647 42.2731C68.2268 42.7346 68.1078 43.2649 68.1078 43.8626C68.1078 44.4603 68.2268 44.9906 68.4647 45.4521C68.7027 45.9136 69.0358 46.2746 69.4628 46.5324C69.8911 46.7916 70.3762 46.9199 70.9195 46.9199Z" fill="#D1D3D4"/>
<path d="M33.3719 44.7909V43.7832C33.2953 43.9736 33.2265 44.1799 33.1684 44.4034L33.3719 44.7909Z" fill="#D1D3D4"/>
<path d="M40.4865 44.8308V43.4688C40.349 43.7385 40.2459 44.0413 40.1811 44.3825L40.4865 44.8308Z" fill="#D1D3D4"/>
<path d="M47.3525 44.4643C47.2784 44.1377 47.1582 43.8388 46.9942 43.5664C46.7973 43.8547 46.6228 44.18 46.4761 44.545L47.3525 44.4643Z" fill="#D1D3D4"/>
<path d="M16.2056 38.1602L13.0251 40.3712V42.8374L16.2056 40.6264L19.3848 42.8374V40.3712L16.2056 38.1602Z" fill="#FFA048"/>
<path d="M13.0251 44.4493V46.9155L16.2056 44.7045L19.3848 46.9155V44.4493L16.2056 42.2383L13.0251 44.4493Z" fill="#FFA048"/>
<path d="M13.0251 48.5274V50.9937L16.2056 48.7826L19.3848 50.9937V48.5274L16.2056 46.3164L13.0251 48.5274Z" fill="#FFA048"/>
<path d="M19.4443 42.9327L16.2056 40.6807L12.9656 42.9327V40.3223L12.9907 40.3051L16.2043 38.0703L16.2386 38.0941L19.4443 40.3236V42.9327ZM13.0845 40.3831V42.7039L16.2056 40.5339L16.24 40.5577L19.3266 42.7039V40.3831L16.2056 38.2131L13.0845 40.3831Z" fill="#1E344E"/>
<path d="M19.4443 47.0089L16.2056 44.7569L12.9656 47.0089V44.3985L12.9907 44.3813L16.2043 42.1465L16.2386 42.1703L19.4443 44.3998V47.0089ZM13.0845 44.4606V46.7814L16.2056 44.6114L16.24 44.6352L19.3266 46.7814V44.4606L16.2056 42.2906L13.0845 44.4606Z" fill="#1E344E"/>
<path d="M19.4443 51.087L16.2056 48.835L12.9656 51.087V48.4766L12.9907 48.4594L16.2043 46.2246L16.2386 46.2484L19.4443 48.4779V51.087ZM13.0845 48.5388V50.8595L16.2056 48.6895L16.24 48.7133L19.3266 50.8595V48.5388L16.2056 46.3687L13.0845 48.5388Z" fill="#1E344E"/>
<path d="M11.9821 31.1193C12.7713 30.1818 13.8182 29.506 15.0053 29.2257C15.4071 29.1265 15.8249 29.0776 16.2545 29.0776C17.9479 29.0776 19.4707 29.8657 20.5269 31.1207L18.1475 27.1006C17.9981 26.8467 17.8157 26.6365 17.6095 26.4699C16.6101 25.65 15.0952 25.8603 14.3602 27.1006L11.9821 31.1193Z" fill="#298DFE"/>
<path d="M25.2871 40.1933L22.5468 35.0611C21.3624 32.8422 19.4244 31.5661 17.3715 31.2289C17.3689 31.2289 17.3662 31.2276 17.3636 31.2276C17.0053 31.1562 16.6378 31.1191 16.2624 31.1191C15.8857 31.1191 15.5182 31.1562 15.1599 31.2276C13.1044 31.5621 11.1638 32.8396 9.97805 35.0611L7.23905 40.1893L3.53109 47.1331C3.11204 47.916 2.97721 48.7319 3.04595 49.5491C3.45838 54.3798 10.1539 53.9526 10.1539 49.1008V48.1421V41.5104C10.1539 41.5011 10.1539 41.4932 10.1539 41.4839V41.5104C10.1539 38.3182 12.2465 35.6562 15.0304 35.04C15.4283 34.9514 15.8394 34.9064 16.2611 34.9064C17.9465 34.9064 19.4733 35.647 20.5798 36.8411C21.6836 38.0352 22.3683 39.6881 22.3683 41.5117V48.1447V49.0321C22.3683 53.8614 29.0427 54.2594 29.4194 49.446C29.4842 48.6195 29.3441 47.7956 28.9211 47.0022L25.2871 40.1933Z" fill="#298DFE"/>
<path d="M30.0698 52.4695V41.3417H32.9225V44.0116L32.7189 43.6242C32.9635 42.6866 33.368 42.0518 33.9311 41.7186C34.4942 41.3854 35.1644 41.2188 35.9378 41.2188H36.5895V43.8688H35.6324C34.8855 43.8688 34.2801 44.0962 33.8187 44.5511C33.3574 45.006 33.1261 45.6487 33.1261 46.4765V52.4682H30.0698V52.4695Z" fill="#298DFE"/>
<path d="M37.183 52.4688V41.341H40.0357V44.0518L39.7303 43.6036C39.8929 42.748 40.2869 42.1159 40.9121 41.7086C41.5374 41.3013 42.2843 41.0977 43.1528 41.0977C44.0768 41.0977 44.8871 41.3317 45.5877 41.8012C46.287 42.2693 46.7246 42.8987 46.9017 43.6869L46.0253 43.7689C46.3914 42.8591 46.9149 42.186 47.5944 41.7509C48.2739 41.3158 49.0683 41.099 49.9778 41.099C50.7789 41.099 51.4887 41.2762 52.1074 41.6293C52.7247 41.9823 53.2112 42.4756 53.5641 43.1063C53.9171 43.7384 54.0942 44.475 54.0942 45.3174V52.4714H51.038V45.9693C51.038 45.5342 50.96 45.1613 50.804 44.8479C50.648 44.5358 50.4272 44.2912 50.1417 44.114C49.8562 43.9381 49.5098 43.8495 49.1027 43.8495C48.7088 43.8495 48.3651 43.9381 48.0742 44.114C47.7821 44.2912 47.5574 44.5358 47.4014 44.8479C47.2454 45.16 47.1674 45.5342 47.1674 45.9693V52.4714H44.1111V45.9693C44.1111 45.5342 44.0332 45.1613 43.8772 44.8479C43.7212 44.5358 43.5004 44.2912 43.2149 44.114C42.9294 43.9381 42.583 43.8495 42.1759 43.8495C41.7819 43.8495 41.4396 43.9381 41.1474 44.114C40.8553 44.2912 40.6306 44.5358 40.4746 44.8479C40.3186 45.16 40.2406 45.5342 40.2406 45.9693V52.4714H37.183V52.4688Z" fill="#298DFE"/>
<path d="M58.9536 48.6127C58.0573 48.6127 57.2933 48.4196 56.6614 48.0322C56.0295 47.6447 55.551 47.1052 55.2245 46.4122C54.898 45.7193 54.7354 44.9113 54.7354 43.987V37.2402H57.7916V43.7424C57.7916 44.1642 57.8762 44.5345 58.0467 44.8532C58.216 45.1732 58.4579 45.4205 58.7698 45.5977C59.0818 45.7749 59.4348 45.8621 59.8287 45.8621C60.2358 45.8621 60.5927 45.7735 60.8981 45.5977C61.2035 45.4218 61.4414 45.1732 61.6106 44.8532C61.7798 44.5345 61.8657 44.1642 61.8657 43.7424V37.2402H64.922V48.368H62.0693V46.1663L62.2319 46.6556C61.9741 47.322 61.5564 47.814 60.9787 48.1327C60.4024 48.4527 59.7269 48.6127 58.9536 48.6127Z" fill="#1E344E"/>
<path d="M65.5803 52.4441V37.2407H68.433V39.3605L68.1686 38.7496C68.5348 38.1928 69.0345 37.7618 69.6664 37.455C70.2982 37.1495 71.0213 36.9961 71.8356 36.9961C72.8945 36.9961 73.8528 37.254 74.7081 37.771C75.5634 38.2881 76.2429 38.9836 76.7452 39.8604C77.2475 40.7371 77.4987 41.7183 77.4987 42.8053C77.4987 43.8791 77.2502 44.8576 76.7544 45.7397C76.2587 46.623 75.5832 47.3225 74.728 47.8383C73.8727 48.3553 72.9011 48.6132 71.8145 48.6132C71.053 48.6132 70.3511 48.4743 69.706 48.1953C69.0609 47.9176 68.5414 47.5063 68.1475 46.9628L68.6366 46.3308V52.4454H65.5803V52.4441ZM71.4483 45.8613C72.0194 45.8613 72.5217 45.7317 72.9566 45.4739C73.3915 45.216 73.7312 44.8563 73.9758 44.3935C74.2203 43.932 74.342 43.4017 74.342 42.804C74.342 42.2063 74.2203 41.68 73.9758 41.2251C73.7312 40.7702 73.3915 40.4091 72.9566 40.1447C72.5217 39.8802 72.0194 39.7466 71.4483 39.7466C70.905 39.7466 70.4198 39.8762 69.9915 40.1341C69.5632 40.392 69.2301 40.753 68.9935 41.2145C68.7556 41.676 68.6366 42.2063 68.6366 42.804C68.6366 43.4017 68.7556 43.932 68.9935 44.3935C69.2314 44.855 69.5646 45.216 69.9915 45.4739C70.4198 45.733 70.905 45.8613 71.4483 45.8613Z" fill="#1E344E"/>
</g>
<defs>
<clipPath id="clip0_4654_34916">
<rect width="75" height="28.0423" fill="white" transform="translate(2.5 25.9785)"/>
</clipPath>
</defs>
</svg>
