<svg width="80" height="80" viewBox="0 0 80 80" fill="none" xmlns="http://www.w3.org/2000/svg">
<rect width="80" height="80" rx="12" fill="white"/>
<g clip-path="url(#clip0_4654_34985)">
<path d="M24.0089 44.1439V43.4297C23.9546 43.5646 23.9059 43.7109 23.8646 43.8693L24.0089 44.1439Z" fill="#D1D3D4"/>
<path d="M29.0521 44.1724V43.207C28.9546 43.3982 28.8815 43.6129 28.8356 43.8547L29.0521 44.1724Z" fill="#D1D3D4"/>
<path d="M33.9181 43.9137C33.8657 43.6822 33.7804 43.4704 33.6642 43.2773C33.5246 43.4817 33.4009 43.7122 33.2969 43.9709L33.9181 43.9137Z" fill="#D1D3D4"/>
<path d="M8.94031 34.1725C9.49972 33.508 10.2419 33.0291 11.0833 32.8304C11.3682 32.7601 11.6643 32.7254 11.9688 32.7254C13.1692 32.7254 14.2487 33.284 14.9974 34.1734L13.3116 31.3252C13.2057 31.1452 13.0764 30.9962 12.9302 30.8781C12.2218 30.297 11.148 30.446 10.627 31.3252L8.94031 34.1725Z" fill="#D1D3D4"/>
<path d="M18.278 40.8864L16.3355 37.249C15.4959 35.6763 14.1222 34.7719 12.6669 34.5329C12.6651 34.5329 12.6632 34.5319 12.6613 34.5319C12.4074 34.4813 12.1469 34.4551 11.8808 34.4551C11.6137 34.4551 11.3532 34.4813 11.0993 34.5319C9.64216 34.7691 8.26658 35.6744 7.42605 37.249L5.4845 40.8836L2.85609 45.805C2.55905 46.3598 2.46347 46.9381 2.5122 47.5173C2.80456 50.941 7.55068 50.6383 7.55068 47.1996V46.5201V41.8199C7.55068 41.8133 7.55068 41.8077 7.55068 41.8011V41.8199C7.55068 39.5574 9.03402 37.6707 11.0074 37.234C11.2895 37.1712 11.5809 37.1393 11.8798 37.1393C13.0746 37.1393 14.1568 37.6642 14.9411 38.5105C15.7236 39.3568 16.209 40.5284 16.209 41.8208V46.522V47.1509C16.209 50.5736 20.9401 50.8558 21.2071 47.4442C21.2531 46.8584 21.1537 46.2745 20.8539 45.7122L18.278 40.8864Z" fill="#D1D3D4"/>
<path d="M21.6682 49.5853V41.6985H23.6903V43.5908L23.546 43.3162C23.7193 42.6517 24.0061 42.2018 24.4053 41.9656C24.8044 41.7294 25.2795 41.6113 25.8277 41.6113H26.2896V43.4895H25.6112C25.0818 43.4895 24.6526 43.6508 24.3256 43.9732C23.9986 44.2956 23.8346 44.7511 23.8346 45.3378V49.5844H21.6682V49.5853Z" fill="#D1D3D4"/>
<path d="M26.7104 49.5866V41.6998H28.7325V43.6211L28.5161 43.3034C28.6313 42.697 28.9106 42.249 29.3538 41.9603C29.797 41.6717 30.3264 41.5273 30.9421 41.5273C31.5971 41.5273 32.1715 41.6932 32.6681 42.026C33.1638 42.3577 33.474 42.8039 33.5995 43.3624L32.9783 43.4206C33.2378 42.7757 33.6089 42.2987 34.0905 41.9903C34.5722 41.682 35.1353 41.5283 35.78 41.5283C36.3479 41.5283 36.8511 41.6539 37.2896 41.9041C37.7272 42.1544 38.072 42.5039 38.3222 42.951C38.5724 43.399 38.698 43.921 38.698 44.5181V49.5885H36.5315V44.9801C36.5315 44.6718 36.4763 44.4075 36.3657 44.1853C36.2551 43.9642 36.0986 43.7908 35.8962 43.6652C35.6938 43.5405 35.4483 43.4777 35.1597 43.4777C34.8805 43.4777 34.6368 43.5405 34.4307 43.6652C34.2236 43.7908 34.0643 43.9642 33.9537 44.1853C33.8432 44.4065 33.7879 44.6718 33.7879 44.9801V49.5885H31.6214V44.9801C31.6214 44.6718 31.5661 44.4075 31.4556 44.1853C31.345 43.9642 31.1885 43.7908 30.9861 43.6652C30.7837 43.5405 30.5382 43.4777 30.2496 43.4777C29.9704 43.4777 29.7277 43.5405 29.5206 43.6652C29.3135 43.7908 29.1542 43.9642 29.0436 44.1853C28.9331 44.4065 28.8778 44.6718 28.8778 44.9801V49.5885H26.7104V49.5866Z" fill="#D1D3D4"/>
<path d="M24.3837 43.3939V42.6797C24.3294 42.8146 24.2807 42.9609 24.2394 43.1193L24.3837 43.3939Z" fill="#D1D3D4"/>
<path d="M29.4269 43.4224V42.457C29.3295 42.6482 29.2564 42.8629 29.2104 43.1047L29.4269 43.4224Z" fill="#D1D3D4"/>
<path d="M34.293 43.1637C34.2405 42.9322 34.1552 42.7204 34.039 42.5273C33.8994 42.7317 33.7757 42.9622 33.6717 43.2209L34.293 43.1637Z" fill="#D1D3D4"/>
<path d="M12.2153 38.6953L9.96075 40.2624V42.0103L12.2153 40.4433L14.4689 42.0103V40.2624L12.2153 38.6953Z" fill="#FFA048"/>
<path d="M9.96075 43.153V44.9009L12.2153 43.3339L14.4689 44.9009V43.153L12.2153 41.5859L9.96075 43.153Z" fill="#FFA048"/>
<path d="M9.96075 46.0436V47.7916L12.2153 46.2245L14.4689 47.7916V46.0436L12.2153 44.4766L9.96075 46.0436Z" fill="#FFA048"/>
<path d="M14.511 42.0771L12.2153 40.481L9.91858 42.0771V40.227L9.93638 40.2148L12.2143 38.6309L12.2387 38.6477L14.511 40.2279V42.0771ZM10.0029 40.2701V41.9149L12.2153 40.3769L12.2396 40.3938L14.4276 41.9149V40.2701L12.2153 38.7321L10.0029 40.2701Z" fill="#1E344E"/>
<path d="M14.511 44.9657L12.2153 43.3696L9.91858 44.9657V43.1156L9.93638 43.1035L12.2143 41.5195L12.2387 41.5364L14.511 43.1166V44.9657ZM10.0029 43.1597V44.8045L12.2153 43.2665L12.2396 43.2834L14.4276 44.8045V43.1597L12.2153 41.6217L10.0029 43.1597Z" fill="#1E344E"/>
<path d="M14.511 47.8564L12.2153 46.2603L9.91858 47.8564V46.0063L9.93638 45.9941L12.2143 44.4102L12.2387 44.427L14.511 46.0072V47.8564ZM10.0029 46.0503V47.6952L12.2153 46.1572L12.2396 46.174L14.4276 47.6952V46.0503L12.2153 44.5123L10.0029 46.0503Z" fill="#1E344E"/>
<path d="M9.22144 33.7047C9.78085 33.0402 10.523 32.5613 11.3645 32.3626C11.6493 32.2923 11.9454 32.2576 12.25 32.2576C13.4503 32.2576 14.5298 32.8162 15.2785 33.7056L13.5918 30.8564C13.4859 30.6765 13.3566 30.5275 13.2104 30.4094C12.502 29.8283 11.4282 29.9773 10.9072 30.8564L9.22144 33.7047Z" fill="#298DFE"/>
<path d="M18.6528 40.1364L16.7103 36.499C15.8707 34.9263 14.497 34.0219 13.0418 33.7829C13.0399 33.7829 13.038 33.7819 13.0361 33.7819C12.7822 33.7313 12.5217 33.7051 12.2556 33.7051C11.9885 33.7051 11.728 33.7313 11.4741 33.7819C10.017 34.0191 8.6414 34.9244 7.80087 36.499L5.85932 40.1336L3.23091 45.055C2.93387 45.6098 2.83829 46.1881 2.88702 46.7673C3.17937 50.191 7.9255 49.8883 7.9255 46.4496V45.7701V41.0699C7.9255 41.0633 7.9255 41.0577 7.9255 41.0511V41.0699C7.9255 38.8074 9.40884 36.9207 11.3822 36.484C11.6643 36.4212 11.9557 36.3893 12.2546 36.3893C13.4494 36.3893 14.5317 36.9142 15.316 37.7605C16.0984 38.6068 16.5838 39.7784 16.5838 41.0708V45.772V46.4009C16.5838 49.8236 21.3149 50.1058 21.582 46.6942C21.6279 46.1084 21.5286 45.5245 21.2287 44.9622L18.6528 40.1364Z" fill="#298DFE"/>
<path d="M22.043 48.8373V40.9504H24.0651V42.8427L23.9208 42.5681C24.0942 41.9036 24.3809 41.4537 24.7801 41.2176C25.1793 40.9814 25.6543 40.8633 26.2025 40.8633H26.6645V42.7415H25.986C25.4566 42.7415 25.0275 42.9027 24.7004 43.2251C24.3734 43.5475 24.2094 44.003 24.2094 44.5897V48.8363H22.043V48.8373Z" fill="#298DFE"/>
<path d="M27.0852 48.8366V40.9498H29.1073V42.8711L28.8909 42.5534C29.0061 41.947 29.2854 41.499 29.7286 41.2103C30.1718 40.9217 30.7013 40.7773 31.3169 40.7773C31.9719 40.7773 32.5463 40.9432 33.0429 41.276C33.5386 41.6077 33.8488 42.0539 33.9743 42.6124L33.3531 42.6706C33.6126 42.0257 33.9837 41.5487 34.4654 41.2403C34.947 40.932 35.5102 40.7783 36.1548 40.7783C36.7227 40.7783 37.2259 40.9039 37.6644 41.1541C38.102 41.4044 38.4469 41.7539 38.697 42.201C38.9472 42.649 39.0728 43.171 39.0728 43.7681V48.8385H36.9064V44.2301C36.9064 43.9218 36.8511 43.6575 36.7405 43.4353C36.6299 43.2142 36.4734 43.0408 36.271 42.9152C36.0686 42.7905 35.8231 42.7277 35.5345 42.7277C35.2553 42.7277 35.0117 42.7905 34.8055 42.9152C34.5984 43.0408 34.4391 43.2142 34.3286 43.4353C34.218 43.6565 34.1627 43.9218 34.1627 44.2301V48.8385H31.9962V44.2301C31.9962 43.9218 31.941 43.6575 31.8304 43.4353C31.7198 43.2142 31.5633 43.0408 31.3609 42.9152C31.1585 42.7905 30.913 42.7277 30.6244 42.7277C30.3452 42.7277 30.1025 42.7905 29.8954 42.9152C29.6883 43.0408 29.529 43.2142 29.4184 43.4353C29.3079 43.6565 29.2526 43.9218 29.2526 44.2301V48.8385H27.0852V48.8366Z" fill="#298DFE"/>
<path d="M44.7578 49.0835C43.981 49.0835 43.2642 48.9429 42.6083 48.6608C41.9523 48.3787 41.3789 47.986 40.8888 47.4808C40.3978 46.9756 40.0164 46.3833 39.7447 45.7029C39.4729 45.0224 39.337 44.2792 39.337 43.4732C39.337 42.6672 39.4701 41.9211 39.7381 41.236C40.0051 40.5509 40.3837 39.9586 40.8747 39.4581C41.3648 38.9576 41.9411 38.5686 42.6017 38.2921C43.2623 38.0157 43.981 37.877 44.7578 37.877C45.5346 37.877 46.2318 38.0082 46.8493 38.2706C47.4659 38.533 47.9878 38.8807 48.416 39.3128C48.8433 39.7449 49.1498 40.2191 49.3344 40.7336L47.5568 41.564C47.3525 41.0204 47.0077 40.5706 46.5223 40.2163C46.0369 39.862 45.4484 39.6839 44.7588 39.6839C44.0785 39.6839 43.4788 39.8442 42.9596 40.1647C42.4396 40.4853 42.0367 40.9277 41.7499 41.4909C41.4632 42.0542 41.3198 42.715 41.3198 43.4732C41.3198 44.2314 41.4632 44.894 41.7499 45.4629C42.0367 46.0318 42.4396 46.4761 42.9596 46.7966C43.4797 47.1172 44.0794 47.2774 44.7588 47.2774C45.4484 47.2774 46.036 47.1003 46.5223 46.7451C47.0077 46.3908 47.3525 45.9409 47.5568 45.3973L49.3344 46.2277C49.1498 46.7432 48.8433 47.2165 48.416 47.6486C47.9888 48.0806 47.4659 48.4283 46.8493 48.6908C46.2318 48.9523 45.5356 49.0835 44.7578 49.0835Z" fill="#1E344E"/>
<path d="M52.3207 49.0833C51.7669 49.0833 51.2862 48.9905 50.8786 48.8059C50.471 48.6212 50.1552 48.3569 49.9312 48.012C49.7073 47.6671 49.5958 47.2669 49.5958 46.8096C49.5958 46.3728 49.6923 45.981 49.8872 45.6361C50.0812 45.2912 50.3829 45.0026 50.7905 44.7692C51.1981 44.5358 51.7135 44.3709 52.3347 44.2734L54.9285 43.8507V45.3081L52.6992 45.6867C52.3207 45.7552 52.0386 45.8761 51.854 46.0513C51.6694 46.2266 51.5776 46.4543 51.5776 46.7364C51.5776 47.0082 51.6816 47.2247 51.8906 47.385C52.0995 47.5453 52.3591 47.6259 52.6702 47.6259C53.0684 47.6259 53.4208 47.5406 53.7262 47.371C54.0327 47.2013 54.2697 46.9651 54.4403 46.6643C54.6099 46.3634 54.6952 46.0326 54.6952 45.6736V43.6323C54.6952 43.2921 54.5612 43.0081 54.2941 42.7794C54.027 42.5508 53.6747 42.4374 53.238 42.4374C52.8304 42.4374 52.4678 42.547 52.153 42.7654C51.8372 42.9838 51.6067 43.2734 51.4605 43.6323L49.9012 42.8741C50.0568 42.4561 50.3023 42.0943 50.6368 41.7888C50.9723 41.4823 51.3677 41.2424 51.8241 41.0671C52.2804 40.8919 52.7761 40.8047 53.3102 40.8047C53.9614 40.8047 54.534 40.9237 55.0297 41.1618C55.5254 41.3998 55.9114 41.7307 56.1879 42.1524C56.4643 42.5751 56.603 43.0681 56.603 43.6314V48.9071H54.7964V47.5518L55.204 47.5228C54.9997 47.863 54.757 48.147 54.4749 48.3757C54.1929 48.6044 53.8724 48.7787 53.5135 48.9005C53.1556 49.0224 52.7583 49.0833 52.3207 49.0833Z" fill="#1E344E"/>
<path d="M57.6534 48.9078V40.9797H59.446V42.7436L59.3008 42.4812C59.4854 41.8889 59.774 41.4755 60.1675 41.2422C60.5611 41.0088 61.0343 40.8926 61.5881 40.8926H62.0547V42.5833H61.3698C60.8253 42.5833 60.3887 42.7511 60.0579 43.0857C59.7271 43.4212 59.5622 43.8899 59.5622 44.4925V48.9087H57.6534V48.9078Z" fill="#1E344E"/>
<path d="M66.0755 49.0834C65.3081 49.0834 64.6231 48.9016 64.0206 48.537C63.4181 48.1724 62.9421 47.6747 62.5926 47.043C62.243 46.4113 62.0678 45.7122 62.0678 44.9446C62.0678 44.1676 62.2421 43.4675 62.5926 42.8461C62.9421 42.2247 63.4209 41.7289 64.0281 41.3596C64.6353 40.9904 65.3128 40.8057 66.0606 40.8057C66.6631 40.8057 67.1991 40.9248 67.6704 41.1628C68.1417 41.4009 68.5128 41.7336 68.7855 42.161L68.4941 42.5546V37.875H70.4028V48.9081H68.5962V47.3776L68.8005 47.7563C68.5287 48.1836 68.1492 48.5117 67.6638 48.7404C67.1784 48.969 66.649 49.0834 66.0755 49.0834ZM66.2798 47.3345C66.7165 47.3345 67.1007 47.2324 67.4305 47.028C67.7603 46.8237 68.0208 46.5425 68.2101 46.1826C68.3994 45.8237 68.4941 45.4104 68.4941 44.9436C68.4941 44.4872 68.3994 44.0767 68.2101 43.7121C68.0208 43.3475 67.7603 43.0635 67.4305 42.8592C67.0997 42.6549 66.7165 42.5527 66.2798 42.5527C65.8525 42.5527 65.4683 42.6577 65.1291 42.8658C64.789 43.0748 64.5247 43.3569 64.3355 43.7112C64.1462 44.0664 64.0515 44.4759 64.0515 44.9427C64.0515 45.4094 64.1462 45.8218 64.3355 46.1817C64.5247 46.5416 64.789 46.8228 65.1291 47.0271C65.4683 47.2324 65.8525 47.3345 66.2798 47.3345Z" fill="#1E344E"/>
<path d="M74.4837 49.0833C73.6385 49.0833 72.9029 48.8818 72.276 48.4788C71.6491 48.0758 71.22 47.5293 70.9866 46.8395L72.4147 46.1544C72.619 46.6015 72.9029 46.9511 73.2674 47.2041C73.6319 47.4572 74.0367 47.5828 74.4837 47.5828C74.8332 47.5828 75.1106 47.505 75.3139 47.3494C75.5182 47.1938 75.6203 46.9904 75.6203 46.7374C75.6203 46.5818 75.5791 46.4534 75.4966 46.3512C75.4142 46.2491 75.3017 46.1619 75.1612 46.0888C75.0206 46.0157 74.8669 45.9557 74.702 45.907L73.4051 45.5424C72.7352 45.3484 72.2273 45.0522 71.8824 44.653C71.5376 44.2546 71.3652 43.7832 71.3652 43.2396C71.3652 42.7541 71.4889 42.3286 71.7363 41.964C71.9836 41.5995 72.3285 41.3155 72.7708 41.1112C73.213 40.9068 73.72 40.8047 74.2935 40.8047C75.0412 40.8047 75.7018 40.9846 76.2753 41.3436C76.8488 41.7035 77.2564 42.2087 77.4991 42.8591L76.042 43.5442C75.9061 43.1853 75.6775 42.8985 75.357 42.6848C75.0365 42.4711 74.6767 42.3642 74.2785 42.3642C73.958 42.3642 73.705 42.4374 73.5204 42.5826C73.3358 42.7279 73.243 42.9182 73.243 43.1515C73.243 43.2968 73.2815 43.4233 73.3592 43.5302C73.437 43.637 73.5466 43.7251 73.6872 43.7926C73.8277 43.861 73.9908 43.9238 74.1754 43.9819L75.4432 44.3606C76.0935 44.5555 76.5967 44.846 76.9509 45.235C77.3051 45.6239 77.4832 46.1001 77.4832 46.6633C77.4832 47.1395 77.3567 47.5593 77.1046 47.9239C76.8516 48.2885 76.5021 48.5725 76.0551 48.7768C75.61 48.9811 75.0853 49.0833 74.4837 49.0833Z" fill="#1E344E"/>
</g>
<defs>
<clipPath id="clip0_4654_34985">
<rect width="75" height="19.875" fill="white" transform="translate(2.5 30.0625)"/>
</clipPath>
</defs>
</svg>
