<svg width="80" height="80" viewBox="0 0 80 80" fill="none" xmlns="http://www.w3.org/2000/svg">
<rect width="80" height="80" rx="12" fill="white"/>
<g clip-path="url(#clip0_4654_34963)">
<path d="M29.0417 45.118V44.2363C28.9747 44.4029 28.9145 44.5835 28.8637 44.779L29.0417 45.118Z" fill="#D1D3D4"/>
<path d="M35.2649 45.1547V43.9629C35.1447 44.1989 35.0545 44.4639 34.9978 44.7624L35.2649 45.1547Z" fill="#D1D3D4"/>
<path d="M41.2708 44.8345C41.206 44.5487 41.1008 44.2872 40.9574 44.0488C40.7851 44.3011 40.6325 44.5857 40.5042 44.9051L41.2708 44.8345Z" fill="#D1D3D4"/>
<path d="M10.4473 32.8098C11.1376 31.9894 12.0534 31.3982 13.0917 31.1529C13.4432 31.0661 13.8086 31.0233 14.1844 31.0233C15.6656 31.0233 16.9977 31.7129 17.9216 32.811L15.8414 29.2946C15.7107 29.0724 15.5512 28.8885 15.3708 28.7427C14.4966 28.0253 13.1715 28.2093 12.5286 29.2946L10.4473 32.8098Z" fill="#D1D3D4"/>
<path d="M21.9698 41.0961L19.5728 36.6055C18.5367 34.6639 16.8416 33.5473 15.0459 33.2523C15.0436 33.2523 15.0412 33.2511 15.0389 33.2511C14.7256 33.1886 14.4041 33.1562 14.0757 33.1562C13.7462 33.1562 13.4247 33.1886 13.1114 33.2511C11.3133 33.5439 9.61588 34.6616 8.57868 36.6055L6.18282 41.0927L2.9394 47.1685C2.57285 47.8535 2.45491 48.5674 2.51503 49.2825C2.8758 53.5093 8.73246 53.1355 8.73246 48.8902V48.0513V42.2486C8.73246 42.2405 8.73246 42.2335 8.73246 42.2254V42.2486C8.73246 39.4554 10.5629 37.1262 12.9981 36.587C13.3461 36.5095 13.7057 36.4701 14.0746 36.4701C15.5489 36.4701 16.8844 37.1181 17.8522 38.1629C18.8177 39.2078 19.4167 40.6541 19.4167 42.2497V48.0537V48.8301C19.4167 53.0557 25.2549 53.404 25.5844 49.1922C25.6411 48.469 25.5185 47.7482 25.1485 47.0539L21.9698 41.0961Z" fill="#D1D3D4"/>
<path d="M26.1533 51.8386V42.1017H28.6486V44.4379L28.4705 44.0989C28.6844 43.2785 29.0383 42.7231 29.5309 42.4315C30.0234 42.1399 30.6097 41.9941 31.2861 41.9941H31.8562V44.3129H31.019C30.3657 44.3129 29.8361 44.5119 29.4326 44.91C29.029 45.308 28.8267 45.8704 28.8267 46.5947V51.8374H26.1533V51.8386Z" fill="#D1D3D4"/>
<path d="M32.3754 51.8384V42.1016H34.8707V44.4736L34.6035 44.0813C34.7458 43.3327 35.0903 42.7796 35.6373 42.4232C36.1842 42.0669 36.8375 41.8887 37.5972 41.8887C38.4055 41.8887 39.1143 42.0935 39.7271 42.5042C40.3388 42.9138 40.7215 43.4646 40.8765 44.1542L40.1099 44.226C40.4301 43.4299 40.888 42.8409 41.4824 42.4603C42.0767 42.0796 42.7717 41.8898 43.5672 41.8898C44.2679 41.8898 44.8888 42.0449 45.43 42.3538C45.97 42.6628 46.3955 43.0943 46.7042 43.6463C47.013 44.1994 47.1679 44.8439 47.1679 45.5809V51.8407H44.4945V46.1514C44.4945 45.7707 44.4263 45.4444 44.2899 45.1702C44.1534 44.8971 43.9603 44.683 43.7106 44.528C43.4608 44.3741 43.1579 44.2966 42.8017 44.2966C42.4571 44.2966 42.1565 44.3741 41.9021 44.528C41.6466 44.683 41.45 44.8971 41.3136 45.1702C41.1771 45.4432 41.1089 45.7707 41.1089 46.1514V51.8407H38.4355V46.1514C38.4355 45.7707 38.3673 45.4444 38.2309 45.1702C38.0944 44.8971 37.9013 44.683 37.6516 44.528C37.4018 44.3741 37.0988 44.2966 36.7427 44.2966C36.3981 44.2966 36.0986 44.3741 35.8431 44.528C35.5876 44.683 35.391 44.8971 35.2545 45.1702C35.1181 45.4432 35.0499 45.7707 35.0499 46.1514V51.8407H32.3754V51.8384Z" fill="#D1D3D4"/>
<path d="M29.5043 44.1922V43.3105C29.4372 43.4772 29.3771 43.6577 29.3262 43.8532L29.5043 44.1922Z" fill="#D1D3D4"/>
<path d="M35.7275 44.2289V43.0371C35.6072 43.2732 35.517 43.5381 35.4604 43.8367L35.7275 44.2289Z" fill="#D1D3D4"/>
<path d="M41.7333 43.9087C41.6685 43.6229 41.5633 43.3614 41.4199 43.123C41.2477 43.3753 41.095 43.6599 40.9667 43.9793L41.7333 43.9087Z" fill="#D1D3D4"/>
<path d="M14.4885 38.3926L11.7065 40.3272V42.4852L14.4885 40.5505L17.2694 42.4852V40.3272L14.4885 38.3926Z" fill="#FFA048"/>
<path d="M11.7065 43.8956V46.0535L14.4885 44.1189L17.2694 46.0535V43.8956L14.4885 41.9609L11.7065 43.8956Z" fill="#FFA048"/>
<path d="M11.7065 47.4639V49.6219L14.4885 47.6873L17.2694 49.6219V47.4639L14.4885 45.5293L11.7065 47.4639Z" fill="#FFA048"/>
<path d="M17.3215 42.5671L14.4885 40.5966L11.6544 42.5671V40.283L11.6764 40.268L14.4874 38.3125L14.5174 38.3333L17.3215 40.2842V42.5671ZM11.7585 40.3362V42.3669L14.4885 40.4681L14.5186 40.489L17.2186 42.3669V40.3362L14.4885 38.4375L11.7585 40.3362Z" fill="#1E344E"/>
<path d="M17.3215 46.1335L14.4885 44.163L11.6544 46.1335V43.8494L11.6764 43.8344L14.4874 41.8789L14.5174 41.8997L17.3215 43.8506V46.1335ZM11.7585 43.9038V45.9345L14.4885 44.0357L14.5186 44.0565L17.2186 45.9345V43.9038L14.4885 42.005L11.7585 43.9038Z" fill="#1E344E"/>
<path d="M17.3215 49.7018L14.4885 47.7313L11.6544 49.7018V47.4178L11.6764 47.4027L14.4874 45.4473L14.5174 45.4681L17.3215 47.4189V49.7018ZM11.7585 47.4722V49.5028L14.4885 47.6041L14.5186 47.6249L17.2186 49.5028V47.4722L14.4885 45.5734L11.7585 47.4722Z" fill="#1E344E"/>
<path d="M10.7942 32.2309C11.4845 31.4105 12.4003 30.8193 13.4386 30.574C13.7901 30.4872 14.1555 30.4444 14.5313 30.4444C16.0125 30.4444 17.3446 31.134 18.2685 32.232L16.1871 28.7145C16.0565 28.4924 15.8969 28.3084 15.7165 28.1626C14.8424 27.4452 13.5172 27.6292 12.8743 28.7145L10.7942 32.2309Z" fill="#298DFE"/>
<path d="M22.4323 40.1704L20.0353 35.6797C18.9993 33.7381 17.3041 32.6216 15.5084 32.3265C15.5061 32.3265 15.5038 32.3253 15.5015 32.3253C15.1881 32.2629 14.8666 32.2305 14.5383 32.2305C14.2087 32.2305 13.8873 32.2629 13.5739 32.3253C11.7758 32.6181 10.0784 33.7358 9.0412 35.6797L6.64534 40.1669L3.40192 46.2427C3.03537 46.9277 2.91743 47.6416 2.97755 48.3567C3.33832 52.5835 9.19499 52.2098 9.19499 47.9644V47.1256V41.3228C9.19499 41.3147 9.19499 41.3078 9.19499 41.2997V41.3228C9.19499 38.5296 11.0254 36.2004 13.4606 35.6612C13.8086 35.5837 14.1682 35.5443 14.5371 35.5443C16.0114 35.5443 17.3469 36.1923 18.3147 37.2372C19.2802 38.282 19.8792 39.7283 19.8792 41.324V47.1279V47.9043C19.8792 52.1299 25.7174 52.4782 26.0469 48.2664C26.1036 47.5433 25.981 46.8224 25.611 46.1282L22.4323 40.1704Z" fill="#298DFE"/>
<path d="M26.6158 50.9128V41.176H29.1111V43.5121L28.933 43.1731C29.147 42.3527 29.5008 41.7973 29.9934 41.5057C30.486 41.2142 31.0722 41.0684 31.7486 41.0684H32.3187V43.3871H31.4815C30.8282 43.3871 30.2986 43.5862 29.8951 43.9842C29.4915 44.3822 29.2892 44.9446 29.2892 45.6689V50.9116H26.6158V50.9128Z" fill="#298DFE"/>
<path d="M32.8379 50.9126V41.1758H35.3332V43.5478L35.0661 43.1556C35.2083 42.4069 35.5529 41.8538 36.0998 41.4975C36.6467 41.1411 37.3 40.9629 38.0597 40.9629C38.868 40.9629 39.5768 41.1677 40.1896 41.5785C40.8013 41.9881 41.1841 42.5388 41.339 43.2285L40.5724 43.3002C40.8927 42.5041 41.3506 41.9152 41.9449 41.5345C42.5392 41.1538 43.2342 40.964 44.0297 40.964C44.7304 40.964 45.3514 41.1191 45.8925 41.428C46.4325 41.737 46.858 42.1686 47.1668 42.7205C47.4755 43.2736 47.6304 43.9181 47.6304 44.6551V50.9149H44.9571V45.2256C44.9571 44.8449 44.8888 44.5186 44.7524 44.2444C44.616 43.9713 44.4229 43.7572 44.1731 43.6022C43.9233 43.4483 43.6204 43.3708 43.2642 43.3708C42.9197 43.3708 42.619 43.4483 42.3646 43.6022C42.1091 43.7572 41.9125 43.9713 41.7761 44.2444C41.6396 44.5174 41.5714 44.8449 41.5714 45.2256V50.9149H38.8981V45.2256C38.8981 44.8449 38.8298 44.5186 38.6934 44.2444C38.5569 43.9713 38.3638 43.7572 38.1141 43.6022C37.8643 43.4483 37.5614 43.3708 37.2052 43.3708C36.8606 43.3708 36.5612 43.4483 36.3056 43.6022C36.0501 43.7572 35.8535 43.9713 35.7171 44.2444C35.5806 44.5174 35.5124 44.8449 35.5124 45.2256V50.9149H32.8379V50.9126Z" fill="#298DFE"/>
<path d="M48.3531 51.0005V37.5957H50.7987V43.4436H56.4981V37.5957H58.961V51.0005H56.4981V45.6027H50.7987V51.0005H48.3531Z" fill="#1E344E"/>
<path d="M63.1515 51.0005L59.5554 37.5957H62.1802L65.0027 49.0219H64.3193L67.2679 37.5957H69.8037L72.7349 49.0219H72.0515L74.874 37.5957H77.4988L73.9028 51.0005H71.0976L68.1305 39.8809H68.9214L65.9543 51.0005H63.1515Z" fill="#1E344E"/>
</g>
<defs>
<clipPath id="clip0_4654_34963">
<rect width="75" height="24.537" fill="white" transform="translate(2.5 27.7324)"/>
</clipPath>
</defs>
</svg>
