<svg width="653" height="632" viewBox="0 0 653 632" fill="none" xmlns="http://www.w3.org/2000/svg">
<g opacity="0.2" filter="url(#filter0_f_4654_34613)">
<circle cx="326.5" cy="313.5" r="226.5" fill="#298DFE"/>
</g>
<g clip-path="url(#clip0_4654_34613)">
<path d="M185.601 431.661C185.836 426.824 186.156 421.987 186.258 417.144C186.309 414.831 188.285 414.207 189.496 412.971C189.985 412.476 190.667 413.646 191.161 414.141C199.582 422.543 207.978 430.966 216.378 439.389C222.982 446.004 229.605 452.593 236.148 459.269C236.86 459.999 238.734 460.643 237.838 461.853C236.845 463.191 235.939 464.938 233.592 464.933C228.852 464.923 224.112 465.26 219.372 465.454C218.231 465.827 217.646 464.948 217.02 464.32C206.954 454.217 196.868 444.129 186.808 434.021C186.177 433.382 185.332 432.795 185.601 431.661Z" fill="#298DFE"/>
<path d="M493.241 201.535C492.936 206.188 492.432 210.841 492.406 215.495C492.391 217.931 490.721 218.861 489.377 220.087C488.466 220.914 487.977 219.545 487.468 219.04C479.948 211.562 472.469 204.043 464.98 196.534C457.429 188.965 449.869 181.41 442.344 173.82C441.667 173.141 440.149 172.38 440.623 171.619C441.417 170.347 442.425 168.569 444.034 168.467C449.253 168.135 454.492 168.145 459.725 168.018C459.797 168.115 459.868 168.207 459.939 168.304C460.031 169.325 460.769 169.923 461.421 170.577C471.053 180.23 480.686 189.884 490.298 199.558C491.021 200.289 491.709 201.019 492.844 200.994C493.063 201.111 493.195 201.29 493.241 201.535Z" fill="#298DFE"/>
<path d="M337.81 480.798C348.415 480.798 359.02 480.783 369.62 480.824C370.465 480.829 371.871 480.267 372.079 481.345C372.359 482.8 373.021 484.598 371.911 485.88C368.806 489.476 365.501 492.904 362.309 496.423C361.642 497.158 360.833 497.117 359.988 497.117C345.141 497.112 330.295 497.107 315.449 497.133C314.344 497.133 313.576 496.816 312.832 495.963C309.981 492.704 307.094 489.471 304.116 486.33C302.604 484.736 303.474 482.954 303.525 481.293C303.551 480.384 304.808 480.818 305.491 480.818C316.264 480.788 327.037 480.798 337.81 480.798Z" fill="#298DFE"/>
<path d="M148.695 287.749C152.391 284.378 156.118 281.043 159.763 277.615C161.27 276.195 163.042 276.814 164.539 277.079C165.786 277.299 165.124 278.979 165.124 279.98C165.165 301.081 165.165 322.181 165.119 343.276C165.119 344.16 165.817 345.728 164.493 345.866C163.057 346.014 161.418 346.816 159.977 345.452C156.281 341.959 152.513 338.536 148.776 335.089C147.799 334.389 147.87 333.331 147.87 332.315C147.855 318.391 147.855 304.462 147.875 290.538C147.87 289.547 147.697 288.459 148.695 287.749Z" fill="#298DFE"/>
<path d="M523.234 340.727C519.624 343.925 515.933 347.03 512.451 350.355C510.826 351.903 509.121 351.101 507.502 350.984C506.473 350.907 506.993 349.548 506.993 348.787C506.962 333.489 506.967 318.196 506.967 302.899C506.967 296.866 506.937 290.829 506.998 284.797C507.008 283.887 506.366 282.421 507.583 282.151C508.887 281.865 510.485 281.517 511.728 282.37C512.507 282.907 513.484 283.443 513.739 284.546C512.741 285.006 512.624 285.803 512.619 286.835C512.552 301.371 512.165 315.908 512.445 330.445C512.552 335.941 512.568 341.452 512.71 347.331C514.35 346.198 514.579 344.803 514.64 343.383C514.731 341.345 514.65 339.302 514.681 337.259C514.701 335.64 514.833 334.056 513.072 333.05C512.272 332.595 512.395 331.564 512.395 330.706C512.395 321.522 512.395 312.333 512.395 303.149C512.395 302.286 512.323 301.285 513.092 300.799C514.879 299.676 514.686 297.975 514.681 296.274C514.675 292.331 514.905 288.367 513.718 284.521C517.308 286.794 519.863 290.272 523.264 292.765C524.206 293.613 524.094 294.757 524.094 295.85C524.104 309.784 524.104 323.718 524.094 337.652C524.084 338.75 524.206 339.894 523.234 340.727Z" fill="#298DFE"/>
<path d="M310.439 131.2C311.167 130.521 312.058 130.868 312.863 130.868C327.2 130.843 341.537 130.873 355.874 130.817C357.432 130.812 358.521 131.185 359.57 132.421C362.202 135.532 364.911 138.591 367.772 141.482C369.417 143.142 368.617 144.976 368.51 146.682C368.449 147.693 367.08 147.172 366.321 147.172C348.507 147.203 330.687 147.198 312.873 147.198C309.477 147.198 306.086 147.239 302.69 147.172C301.743 147.157 300.104 147.693 299.982 146.728C299.788 145.195 298.969 143.387 300.328 141.926C303.683 138.336 307.064 134.765 310.434 131.19C311.3 132.201 312.481 131.823 313.53 131.828C326.563 131.854 339.597 131.844 352.631 131.844C339.602 131.844 326.568 131.854 313.54 131.828C312.486 131.828 311.31 132.196 310.439 131.2Z" fill="#298DFE"/>
<path d="M449.024 465.485C444.289 465.281 439.559 464.918 434.824 464.939C432.345 464.949 431.785 462.839 430.384 461.69C429.779 461.19 430.726 460.704 431.087 460.342C446.59 444.778 462.118 429.24 477.606 413.661C478.461 412.803 478.858 412.849 479.81 413.615C481.597 415.061 482.198 416.695 482.178 418.999C482.132 423.233 482.499 427.473 482.697 431.712C482.59 431.774 482.488 431.83 482.382 431.891C480.915 431.661 479.851 432.249 478.813 433.301C469.282 442.924 459.72 452.522 450.128 462.083C449.222 462.988 448.555 463.835 449.156 465.153C449.115 465.266 449.069 465.373 449.024 465.485Z" fill="#298DFE"/>
<path d="M176.463 217.736C175.689 213.885 175.796 209.967 175.633 206.07C175.567 204.481 175.561 202.888 175.526 201.294C175.623 201.222 175.714 201.151 175.806 201.074C176.824 200.972 177.42 200.231 178.071 199.573C187.765 189.827 197.474 180.102 207.178 170.371C207.835 169.712 208.599 169.13 208.446 168.032C208.553 167.807 208.731 167.69 208.975 167.664C213.934 167.894 218.898 168.129 223.857 168.359C224.514 168.389 225.252 168.211 225.507 169.115C225.69 169.513 225.522 169.82 225.273 170.116C223.939 171.168 222.712 172.343 221.515 173.548C207.087 188.085 192.546 202.51 178.183 217.108C177.883 217.409 177.583 217.705 177.175 217.864C176.926 217.884 176.687 217.843 176.463 217.736Z" fill="#298DFE"/>
<path d="M148.125 335.14C147.427 335.574 146.643 335.426 145.895 335.426C135.733 335.436 125.57 335.391 115.413 335.472C113.565 335.488 112.99 335.064 113.005 333.097C113.097 318.57 113.097 304.044 113.005 289.517C112.995 287.535 113.601 287.147 115.439 287.163C126.278 287.239 137.112 287.183 147.952 287.173C148.593 287.586 148.354 288.24 148.354 288.802C148.369 303.753 148.364 318.708 148.364 333.659C148.359 334.16 148.425 334.681 148.125 335.14Z" fill="#298DFE"/>
<path d="M523.962 292.781C535.137 292.74 546.318 292.72 557.493 292.633C558.812 292.623 558.985 293.179 558.985 294.298C558.959 309.254 558.949 324.209 559 339.165C559.005 340.58 558.501 340.83 557.244 340.825C546.15 340.759 535.056 340.754 523.962 340.728C523.397 340.273 523.6 339.635 523.6 339.063C523.59 324.189 523.59 309.315 523.6 294.441C523.6 293.874 523.397 293.231 523.962 292.781Z" fill="#298DFE"/>
<path d="M337.713 532.969C330.417 532.969 323.122 532.928 315.831 533C314.227 533.015 313.647 532.652 313.662 530.895C313.749 520.598 313.744 510.301 313.667 500.003C313.657 498.369 314.186 498.047 315.693 498.057C330.453 498.108 345.213 498.119 359.972 498.047C361.683 498.037 361.866 498.696 361.861 500.126C361.81 510.423 361.795 520.721 361.871 531.018C361.881 532.632 361.377 533.01 359.855 533C352.473 532.933 345.09 532.969 337.713 532.969Z" fill="#298DFE"/>
<path d="M483.104 432.54C483.995 432.545 484.393 433.29 484.917 433.811C492.177 441.07 499.391 448.374 506.703 455.581C507.889 456.751 507.828 457.307 506.677 458.451C496.321 468.734 486.017 479.061 475.763 489.451C474.495 490.738 473.869 490.927 472.489 489.507C465.631 482.453 458.631 475.532 451.671 468.57C451.075 467.978 450.419 467.451 449.787 466.89C448.621 465.536 449.904 464.76 450.597 464.024C452.979 461.491 455.505 459.1 457.949 456.623C465.326 449.13 472.81 441.744 480.218 434.281C481.012 433.49 481.648 432.289 483.104 432.54Z" fill="#298DFE"/>
<path d="M218.71 466.375C210.671 474.639 202.637 482.909 194.44 491.337C191.156 488.011 188.315 485.105 185.449 482.224C177.547 474.292 169.676 466.329 161.693 458.478C160.303 457.109 160.415 456.476 161.734 455.168C169.309 447.644 176.783 440.013 184.293 432.418C184.598 431.744 185.062 431.871 185.505 432.224C186.172 432.75 186.732 433.394 187.332 433.991C197.337 444.023 207.346 454.05 217.315 464.122C217.906 464.725 219.133 465.082 218.71 466.375Z" fill="#298DFE"/>
<path d="M460.285 167.557C459.949 166.449 460.937 166.081 461.482 165.534C468.65 158.307 475.88 151.135 483.013 143.862C484.23 142.621 484.856 142.518 486.139 143.821C496.388 154.215 506.718 164.523 517.033 174.846C517.903 175.714 518.718 176.266 517.348 177.609C509.844 184.985 502.456 192.473 495.018 199.92C494.565 200.375 494.198 201.079 493.348 200.696C492.152 200.773 491.561 199.849 490.864 199.149C481.185 189.454 471.517 179.754 461.854 170.044C461.156 169.345 460.24 168.747 460.285 167.557Z" fill="#298DFE"/>
<path d="M174.569 200.809C166.911 193.107 159.28 185.379 151.571 177.727C150.406 176.573 150.095 176.001 151.459 174.652C161.835 164.391 172.145 154.057 182.379 143.653C183.753 142.258 184.364 142.386 185.652 143.704C192.77 150.983 200.005 158.149 207.173 165.381C207.733 165.948 208.94 166.362 208.13 167.578C208.115 168.742 207.224 169.355 206.521 170.06C196.858 179.785 187.18 189.506 177.486 199.205C176.687 200.012 175.979 201.08 174.569 200.809Z" fill="#298DFE"/>
<path d="M334.49 95.0415C341.781 95.0415 349.072 95.0772 356.357 95.0108C357.839 94.9955 358.389 95.2815 358.379 96.9365C358.292 107.31 358.307 117.684 358.368 128.063C358.379 129.509 357.971 129.907 356.536 129.902C341.7 129.851 326.869 129.851 312.033 129.907C310.505 129.913 310.266 129.376 310.271 128.002C310.327 117.71 310.337 107.423 310.261 97.1306C310.251 95.4654 310.694 94.9802 312.369 95.0006C319.741 95.0874 327.118 95.0415 334.49 95.0415Z" fill="#298DFE"/>
<path d="M176.463 217.736C176.763 217.7 177.063 217.664 177.364 217.623C179.156 218.022 180.347 217.113 181.549 215.902C190.912 206.447 200.366 197.08 209.693 187.595C213.914 183.304 218.348 179.243 222.732 175.126C224.387 173.568 225.654 172.046 225.059 169.625C225.206 169.452 225.359 169.283 225.507 169.109C225.644 169.206 225.777 169.309 225.914 169.401C228.083 170.836 228.032 172 226.082 173.926C211.445 188.407 196.94 203.03 182.394 217.608C179.421 220.591 179.426 220.591 176.463 217.736Z" fill="#298DFE"/>
<path d="M218.71 466.374C218.532 465.562 217.834 465.153 217.315 464.632C206.985 454.253 196.644 443.884 186.273 433.541C185.749 433.02 185.428 431.922 184.288 432.422C184.492 431.707 184.7 430.987 184.929 430.195C185.164 430.711 185.383 431.186 185.601 431.661C196.858 442.924 208.115 454.187 219.372 465.455C219.336 465.894 219.097 466.185 218.71 466.374Z" fill="#298DFE"/>
<path d="M483.105 432.539C472.423 443.266 461.736 453.977 451.091 464.734C450.526 465.306 449.299 465.623 449.792 466.889C449.222 466.649 448.657 466.414 448.087 466.174C448.397 465.945 448.713 465.715 449.024 465.485L448.993 465.316C449.258 464.187 450.042 463.411 450.821 462.63C460.499 452.92 470.183 443.21 479.856 433.495C480.635 432.713 481.414 431.932 482.539 431.666L482.697 431.707C483.395 431.712 483.232 432.136 483.105 432.539Z" fill="#298DFE"/>
<path d="M174.569 200.81C176.096 199.364 177.659 197.954 179.151 196.473C188.824 186.85 198.477 177.211 208.14 167.578C208.42 167.604 208.701 167.629 208.981 167.655C208.884 167.828 208.792 168.002 208.695 168.181C208.476 169.253 207.672 169.902 206.959 170.617C197.342 180.271 187.719 189.92 178.097 199.573C177.384 200.289 176.727 201.09 175.673 201.331L175.526 201.29C174.996 201.382 175.302 202.398 174.696 202.163C174.457 202.076 174.187 201.315 174.569 200.81Z" fill="#298DFE"/>
<path d="M460.285 167.557C471.308 178.605 482.331 189.648 493.348 200.696C493.313 200.977 493.277 201.253 493.241 201.534C493.058 201.442 492.875 201.355 492.696 201.263C491.597 201.095 490.971 200.247 490.258 199.537C480.661 189.914 471.069 180.29 461.477 170.662C460.764 169.947 459.924 169.314 459.731 168.226V168.027C459.914 167.868 460.097 167.71 460.285 167.557Z" fill="#298DFE"/>
<path d="M148.125 335.139C148.114 320.082 148.109 305.024 148.089 289.961C148.089 289.031 147.997 288.101 147.946 287.172C148.196 287.366 148.445 287.555 148.695 287.749C148.72 303.532 148.746 319.31 148.771 335.093C148.557 335.104 148.338 335.124 148.125 335.139Z" fill="#298DFE"/>
<path d="M523.962 292.781C523.962 308.763 523.962 324.746 523.962 340.723C523.718 340.723 523.478 340.728 523.234 340.728C523.244 324.741 523.249 308.753 523.259 292.766C523.494 292.771 523.728 292.776 523.962 292.781Z" fill="#298DFE"/>
<path d="M361.016 315.183C361.001 316.082 360.985 316.981 360.965 317.88C361.545 318.529 361.439 319.3 361.301 320.041C360.548 324.112 358.781 327.708 356.138 330.874C355.629 331.487 355.008 331.87 354.204 331.932C353.552 332.494 352.895 333.061 352.244 333.622C351.984 334.787 351.164 335.482 350.212 336.059C347 338.015 343.487 339.026 339.775 339.42C338.905 339.512 338.105 339.353 337.474 338.679C336.491 338.546 335.509 338.414 334.526 338.281C334.032 338.648 333.482 338.858 332.871 338.751C329.134 338.107 325.845 336.483 322.933 334.077C322.465 333.689 322.236 333.132 322.231 332.504C321.569 331.835 320.907 331.171 320.245 330.502C319.614 330.476 319.079 330.2 318.713 329.71C316.401 326.594 314.792 323.172 314.36 319.264C314.298 318.738 314.538 318.268 314.736 317.804C314.701 316.94 314.665 316.082 314.629 315.219C312.883 311.649 316.142 302.567 319.782 300.866C320.551 300.105 321.319 299.344 322.088 298.583C322.083 297.76 322.47 297.107 323.055 296.591C325.789 294.18 328.977 292.714 332.551 292.081C333.248 291.958 333.89 292.137 334.485 292.505C335.488 292.392 336.486 292.285 337.489 292.173C338.136 291.549 338.935 291.32 339.801 291.406C344.22 291.861 348.278 293.312 351.887 295.942C352.508 296.397 352.997 296.969 353.124 297.771C353.537 298.501 354.138 299.037 354.84 299.477C356.037 299.661 356.693 300.549 357.355 301.428C359.733 304.6 361.011 308.221 361.657 312.093C361.841 313.196 361.861 314.289 361.016 315.183Z" fill="#FFA048"/>
<path d="M490.477 313.906C487.656 307.358 484.968 300.748 482.275 294.149C479.261 286.768 476.292 279.367 473.304 271.971C471.843 271.496 470.936 272.119 470.381 273.447C470.162 274.882 470.804 276.118 471.313 277.365C475.366 287.264 479.434 297.152 483.507 306.893C472.596 295.921 461.614 284.827 450.51 273.861C448.29 271.669 447.292 269.427 447.323 266.265C447.466 251.555 447.384 236.844 447.389 222.139C447.389 220.796 447.425 219.452 447.079 218.257C447.216 218.625 447.247 219.141 447.445 219.616C451.625 229.75 455.82 239.878 460.016 250.007C460.372 250.87 460.759 251.734 461.665 252.188C462.938 252.474 463.895 252.163 464.323 250.809C458.468 236.604 452.603 222.399 446.783 208.184C446.259 206.902 445.46 206.141 444.192 205.62C430.013 199.782 415.859 193.898 401.695 188.024C400.341 188.468 400.03 189.434 400.361 190.721C400.387 190.762 400.417 190.792 400.443 190.828C400.509 190.736 400.575 190.649 400.636 190.557C412.657 195.563 424.672 200.574 437.375 205.865C435.975 205.937 435.282 206.003 434.585 206.003C417.87 206.008 401.155 205.973 384.441 206.06C382.394 206.07 381.004 205.431 379.584 203.996C367.696 191.967 355.731 180.02 343.792 168.042C343.436 167.685 343.11 167.301 342.25 166.367C348.033 168.767 353.155 170.918 358.292 173.017C365.267 175.872 372.257 178.697 379.238 181.532C379.222 181.665 379.207 181.797 379.192 181.93C380.444 181.348 381.05 180.444 380.612 179.019C379.971 178.82 379.309 178.666 378.688 178.411C365.226 172.838 351.76 167.271 338.319 161.642C336.807 161.009 335.498 160.906 333.961 161.555C319.904 167.46 305.816 173.308 291.744 179.172C291.016 180.449 291.693 181.302 292.62 182.083C292.671 182.099 292.717 182.104 292.768 182.114C292.778 182.017 292.788 181.92 292.793 181.823C304.707 176.843 316.62 171.858 328.722 166.801C328.641 168.068 327.877 168.41 327.378 168.91C315.637 180.704 303.866 192.468 292.151 204.287C290.919 205.528 289.697 206.049 287.941 206.044C271.074 205.978 254.206 206.003 237.334 206.003C236.764 206.003 236.198 206.003 235.628 206.003C235.593 205.86 235.557 205.712 235.521 205.569C247.491 200.553 259.46 195.532 271.43 190.516C271.486 190.593 271.547 190.66 271.608 190.731C271.623 190.7 271.644 190.675 271.659 190.644C271.837 189.474 271.924 188.346 270.371 188.034C256.212 193.908 242.064 199.808 227.884 205.631C226.474 206.208 225.792 207.127 225.247 208.455C219.433 222.583 213.578 236.691 207.728 250.804C208.161 252.178 209.179 252.347 210.396 252.101C210.437 252.076 210.477 252.05 210.518 252.025C210.442 251.974 210.37 251.917 210.289 251.866C215.329 239.771 220.365 227.681 225.4 215.586C225.542 215.611 225.685 215.632 225.828 215.657C225.828 216.709 225.828 217.762 225.828 218.819C225.828 235.235 225.802 251.652 225.863 268.063C225.868 269.897 225.395 271.22 224.066 272.538C212.198 284.332 200.407 296.192 188.605 308.052C188.132 308.527 187.811 309.156 187.419 309.712C187.17 309.544 186.925 309.375 186.676 309.212C191.624 297.244 196.573 285.272 201.522 273.304C201.624 273.319 201.725 273.329 201.827 273.34C201.822 273.314 201.817 273.283 201.812 273.258C201.135 272.216 200.33 271.521 199.017 272.252C193.04 286.651 187.068 301.05 181.055 315.433C180.648 316.414 180.811 317.185 181.187 318.089C187.139 332.406 193.065 346.739 198.997 361.061C200.529 361.781 201.542 361.235 202.214 359.876C202.143 359.886 202.077 359.892 202.006 359.902C201.247 359.646 201.125 358.936 200.87 358.313C196.135 346.867 191.395 335.42 186.666 323.973C186.579 323.769 186.584 323.524 186.976 322.947C187.663 323.795 188.29 324.714 189.053 325.485C200.672 337.157 212.285 348.838 223.969 360.438C225.359 361.822 225.868 363.201 225.863 365.127C225.802 382.534 225.828 399.947 225.828 417.38C224.809 417.416 224.977 416.598 224.784 416.139C220.258 405.249 215.757 394.349 211.236 383.454C210.951 382.759 210.533 382.121 210.182 381.452C210.299 381.37 210.406 381.288 210.523 381.201C210.513 381.196 210.503 381.186 210.493 381.181C209.23 380.864 208.09 380.864 207.474 382.299C207.871 383.04 208.334 383.75 208.655 384.521C214.133 397.761 219.621 410.995 225.028 424.265C225.756 426.048 226.78 427.172 228.602 427.861C232.4 429.296 236.112 430.957 239.864 432.499C250.031 436.682 260.204 440.855 270.376 445.034C271.858 444.625 272.219 443.619 271.888 442.25C271.827 442.337 271.761 442.413 271.7 442.5C264.725 439.676 257.74 436.866 250.775 434.016C245.607 431.901 240.47 429.72 234.671 427.299C235.878 427.213 236.468 427.131 237.059 427.131C254.008 427.126 270.957 427.156 287.91 427.085C289.769 427.075 291.031 427.647 292.325 428.949C304.085 440.84 315.912 452.66 327.719 464.505C328.249 465.036 328.753 465.593 329.083 466.461C316.992 461.481 304.895 456.501 292.803 451.521C292.824 451.418 292.829 451.321 292.844 451.219C292.803 451.229 292.768 451.24 292.727 451.25C291.658 451.929 291.164 452.818 291.703 454.09C305.766 459.908 319.838 465.705 333.879 471.574C335.402 472.212 336.669 472.238 338.207 471.589C352.244 465.7 366.311 459.892 380.368 454.059C381.009 452.726 380.327 451.909 379.268 451.245C379.248 451.24 379.232 451.24 379.212 451.235C379.227 451.342 379.243 451.454 379.263 451.561C367.232 456.511 355.202 461.46 343.044 466.461C343.115 465.419 343.884 465.102 344.367 464.622C356.291 452.655 368.24 440.718 380.149 428.735C381.233 427.642 382.303 427.09 383.901 427.095C401.278 427.146 418.649 427.115 436.026 427.11C436.25 427.11 436.474 427.187 437.421 427.35C424.748 432.586 412.677 437.571 400.606 442.561C400.545 442.47 400.478 442.388 400.417 442.301C400.407 442.316 400.397 442.327 400.392 442.342C400.046 443.634 400.387 444.589 401.721 445.059C401.97 445.003 402.23 444.983 402.464 444.886C416.455 439.088 430.435 433.265 444.441 427.504C445.872 426.916 446.442 425.839 446.967 424.556C452.419 411.302 457.882 398.057 463.396 384.828C463.753 383.975 463.697 382.698 465.051 382.504C464.47 380.624 463.014 380.793 461.543 380.997C461.538 381.002 461.533 381.002 461.533 381.007C461.624 381.074 461.706 381.14 461.798 381.206C456.828 393.281 451.859 405.356 446.615 418.105C446.483 416.874 446.366 416.287 446.366 415.699C446.356 398.685 446.366 381.671 446.346 364.657C446.346 363.35 446.468 362.251 447.506 361.214C459.72 349.048 471.883 336.83 484.067 324.627C484.342 324.351 484.571 323.943 485.396 324.091C483.833 327.886 482.3 331.62 480.763 335.354C477.652 342.883 474.546 350.417 471.42 357.94C471.109 358.686 471.059 359.662 470.015 359.892C469.949 359.881 469.888 359.881 469.821 359.871C470.514 361.383 471.817 361.475 473.304 361.153C473.548 360.433 473.757 359.697 474.047 358.993C479.525 345.733 484.983 332.463 490.543 319.233C491.317 317.343 491.281 315.77 490.477 313.906ZM225.863 320.296C225.721 324.03 225.828 327.769 225.822 331.507C225.822 332.386 225.95 333.305 224.489 332.687C213.12 327.896 201.731 323.151 190.357 318.38C190.321 318.365 190.326 318.237 190.301 318.089C190.779 317.64 191.385 317.926 191.915 317.926C202.413 317.905 212.916 317.956 223.414 317.87C225.288 317.859 225.94 318.355 225.863 320.296ZM225.843 313.293C225.868 314.672 225.502 315.224 223.995 315.219C212.809 315.157 201.624 315.188 190.443 315.188C190.403 315.03 190.362 314.871 190.321 314.713C194.669 312.9 199.007 311.076 203.36 309.268C210.162 306.443 216.984 303.67 223.76 300.789C225.278 300.145 225.889 300.237 225.848 302.071C225.766 305.81 225.782 309.554 225.843 313.293ZM225.822 275.138C225.822 279.352 225.822 283.382 225.822 287.407C225.822 290.042 225.792 292.678 225.838 295.313C225.853 296.361 225.593 297.009 224.519 297.454C212.723 302.316 200.947 307.235 188.931 312.236C201.293 299.803 213.425 287.601 225.822 275.138ZM225.822 358.247C213.257 345.6 201.074 333.336 188.87 321.052C189.282 320.801 189.746 321.287 190.184 321.465C201.283 326.052 212.356 330.695 223.47 335.236C225.176 335.931 225.924 336.748 225.878 338.73C225.731 345.074 225.822 351.423 225.822 358.247ZM314.731 317.813C315.587 322.472 317.307 326.757 320.24 330.511C310.78 340.124 301.316 349.737 291.586 359.631C285.721 345.431 280.121 331.88 274.312 317.813C288.028 317.813 301.377 317.813 314.731 317.813ZM274.373 315.229C280.294 300.891 286.072 286.901 291.541 273.661C300.883 282.661 310.332 291.769 319.782 300.876C316.59 305.126 315.042 309.973 314.629 315.229C301.346 315.229 288.063 315.229 274.373 315.229ZM293.898 271.695C308.006 265.836 321.095 260.402 334.485 254.839C334.485 267.609 334.485 280.062 334.485 292.509C329.761 293.327 325.555 295.201 322.088 298.593C321.783 298.47 321.401 298.419 321.177 298.21C312.231 289.531 303.301 280.838 293.898 271.695ZM293.572 268.789C296.51 261.653 299.233 255.018 301.967 248.393C302.548 246.983 303.362 245.63 303.704 244.164C304.36 241.314 305.659 241.467 307.985 242.483C315.887 245.946 323.895 249.154 332.383 252.668C319.293 258.103 306.687 263.339 293.572 268.789ZM301.881 241.334C298.256 250.002 294.677 258.69 291.179 267.129C284.733 260.826 278.308 254.563 271.914 248.265C269.073 245.471 266.344 242.56 263.477 239.792C262.429 238.775 262.184 238.152 263.406 237.013C266.201 234.418 268.864 231.68 271.501 228.917C272.352 228.023 273.059 227.977 274.139 228.432C282.946 232.145 291.775 235.802 300.593 239.48C301.412 239.822 302.482 239.899 301.881 241.334ZM268.849 227.615C266.247 230.163 263.666 232.738 261.135 235.358C260.321 236.201 259.812 236.002 259.074 235.276C251.946 228.279 244.782 221.306 237.634 214.329C237.853 214.084 238.077 213.834 238.296 213.588C248.341 217.767 258.386 221.955 268.447 226.108C269.383 226.491 269.719 226.762 268.849 227.615ZM261.258 241.431C270.417 250.753 279.607 260.044 288.791 269.345C289.26 269.82 289.962 270.301 288.761 270.796C279.454 274.647 270.157 278.514 260.855 282.37C260.698 282.437 260.535 282.472 260.372 282.518C259.522 282.6 259.466 281.859 259.257 281.364C255.51 272.359 251.803 263.333 248.041 254.339C247.603 253.297 247.822 252.658 248.585 251.907C252.098 248.46 255.576 244.976 259.012 241.446C259.858 240.578 260.392 240.553 261.258 241.431ZM262.062 284.899C270.631 281.369 279.189 277.804 288.353 273.993C282.906 287.182 277.697 299.783 272.275 312.915C268.508 303.787 264.979 295.206 261.415 286.646C261.049 285.762 261.09 285.297 262.062 284.899ZM288.364 359.192C279.296 355.432 270.789 351.898 262.271 348.389C261.329 348.001 260.952 347.633 261.426 346.514C264.995 337.994 268.492 329.444 272.265 320.28C277.697 333.408 282.901 345.983 288.364 359.192ZM288.46 362.277C278.782 371.992 269.434 381.349 260.132 390.753C259.216 391.677 258.707 391.483 257.897 390.656C254.817 387.499 251.706 384.368 248.529 381.314C247.603 380.425 247.689 379.695 248.132 378.637C251.829 369.801 255.469 360.939 259.15 352.092C259.471 351.326 259.481 350.212 260.993 350.851C270.015 354.666 279.082 358.39 288.46 362.277ZM261.996 392.719C271.333 383.449 280.615 374.117 289.916 364.815C290.028 364.703 290.217 364.678 290.548 364.529C293.816 372.431 297.085 380.328 300.348 388.219C302.329 393.005 302.329 392.995 297.431 395.033C289.85 398.185 282.259 401.316 274.709 404.544C273.156 405.208 272.158 405.08 270.967 403.798C268.136 400.754 265.137 397.863 262.174 394.941C261.446 394.206 260.998 393.71 261.996 392.719ZM293.552 364.392C306.728 369.867 319.268 375.072 332.357 380.512C330.473 381.309 329.114 381.901 327.744 382.468C320.719 385.395 313.688 388.317 306.656 391.243C305.694 391.642 304.941 392.081 304.335 390.574C300.888 382.024 297.324 373.524 293.552 364.392ZM295.303 362.098C294.259 361.664 293.165 361.439 294.636 359.983C303.872 350.871 313.036 341.677 322.226 332.514C325.82 335.517 329.832 337.621 334.521 338.285C334.536 350.948 334.526 363.615 334.597 376.277C334.608 378.07 334.134 378.229 332.581 377.58C320.169 372.38 307.731 367.252 295.303 362.098ZM334.557 249.185C334.557 249.507 334.455 249.828 334.358 250.4C333.009 249.854 331.772 249.358 330.54 248.853C322.959 245.717 315.383 242.57 307.797 239.449C306.692 238.995 305.928 238.678 306.58 237.135C310.343 228.238 314.013 219.299 317.664 210.35C318.127 209.221 318.774 208.874 319.95 208.889C324.181 208.951 328.417 208.956 332.652 208.889C334.007 208.869 334.602 209.175 334.597 210.697C334.546 223.528 334.567 236.354 334.557 249.185ZM334.083 170.688C334.241 170.708 334.404 170.729 334.562 170.749C334.562 181.966 334.552 193.183 334.577 204.394C334.582 205.585 334.205 206.039 332.978 206.024C328.997 205.968 325.01 205.978 321.029 206.019C319.716 206.034 319.675 205.539 320.108 204.491C324.786 193.229 329.435 181.956 334.083 170.688ZM331.344 169.528C331.66 170.08 331.049 170.632 330.815 171.204C326.329 182.109 321.772 192.989 317.343 203.919C316.696 205.518 315.933 206.08 314.207 206.049C307.853 205.942 301.499 206.008 295.059 206.008C307.262 193.74 319.318 181.619 331.344 169.528ZM290.899 209.512C291.357 209.053 291.882 208.915 292.503 208.915C299.951 208.92 307.4 208.92 315.225 208.92C313.962 211.974 312.812 214.773 311.661 217.562C309.136 223.676 306.606 229.79 304.075 235.899C303.739 236.712 303.704 237.748 302.232 237.13C293.195 233.32 284.123 229.586 274.775 225.704C280.279 220.178 285.594 214.85 290.899 209.512ZM287.457 209.027C282.29 214.176 277.545 218.895 272.82 223.63C272.204 224.248 271.629 224.422 270.789 224.07C259.074 219.161 247.353 214.283 235.633 209.385C235.603 209.369 235.618 209.232 235.603 209.022C252.669 209.027 269.724 209.027 287.457 209.027ZM230.272 210.406C231.107 210.56 231.494 211.28 232.013 211.801C240.185 220.055 248.311 228.36 256.538 236.563C257.964 237.988 257.867 238.77 256.457 240.083C253.417 242.912 250.546 245.926 247.618 248.873C246.905 249.588 246.396 250.339 245.729 248.72C240.567 236.094 235.333 223.493 230.135 210.876C230.089 210.759 230.221 210.575 230.272 210.406ZM228.668 215.693C228.786 215.662 228.903 215.626 229.02 215.596C230.786 219.871 232.553 224.151 234.32 228.427C237.364 235.802 240.404 243.183 243.469 250.549C243.871 251.519 244.263 252.295 243.28 253.266C238.515 257.98 233.826 262.772 228.663 267.987C228.668 250.089 228.668 232.891 228.668 215.693ZM229.157 271.409C234.452 266.056 239.747 260.708 245.327 255.069C247.562 260.468 249.629 265.453 251.691 270.444C253.31 274.361 254.894 278.299 256.564 282.197C257.032 283.295 257.195 283.949 255.815 284.51C247.119 288.06 238.454 291.692 229.773 295.283C229.478 295.405 229.127 295.4 228.567 295.497C228.567 287.831 228.572 280.291 228.556 272.747C228.556 272.19 228.791 271.777 229.157 271.409ZM230.007 298.204C239.014 294.506 248 290.768 256.986 287.018C257.775 286.686 258.315 286.457 258.753 287.524C262.48 296.616 266.252 305.693 270.183 315.183C256.513 315.183 243.296 315.173 230.084 315.203C228.791 315.208 228.536 314.626 228.541 313.502C228.577 309.079 228.587 304.661 228.536 300.237C228.521 299.103 229.015 298.613 230.007 298.204ZM228.511 320.02C228.46 318.288 229.066 317.864 230.685 317.88C236.87 317.956 243.051 317.91 249.237 317.91C255.423 317.91 261.609 317.967 267.79 317.88C269.74 317.854 270.106 318.283 269.312 320.158C265.835 328.356 262.439 336.59 259.124 344.849C258.468 346.478 257.78 346.535 256.304 345.911C247.654 342.249 238.968 338.674 230.272 335.129C228.994 334.608 228.475 333.949 228.511 332.509C228.618 328.351 228.638 324.183 228.511 320.02ZM228.551 359.631C228.556 352.914 228.572 346.192 228.541 339.476C228.536 338.132 228.556 337.371 230.313 338.117C238.729 341.692 247.19 345.166 255.652 348.624C256.833 349.104 257.185 349.543 256.635 350.851C252.888 359.759 249.227 368.703 245.342 378.111C239.798 372.538 234.544 367.242 229.264 361.97C228.567 361.281 228.546 360.489 228.551 359.631ZM228.674 417.666C228.674 400.208 228.674 383.025 228.674 365.811C229.285 365.495 229.534 366.092 229.85 366.409C234.233 370.781 238.586 375.184 242.98 379.541C243.759 380.318 244.212 380.941 243.708 382.156C238.871 393.726 234.101 405.326 229.305 416.915C229.218 417.114 229.015 417.268 228.674 417.666ZM246.432 382.831C249.863 386.34 252.933 389.502 256.039 392.633C256.711 393.307 257.118 393.777 256.227 394.666C248.137 402.756 240.093 410.883 231.606 418.713C236.478 406.924 241.351 395.135 246.432 382.831ZM234.03 421.379C233.968 421.262 233.912 421.15 233.851 421.032C241.875 412.972 249.904 404.912 257.918 396.841C258.554 396.203 259.038 395.616 259.959 396.561C263.157 399.835 266.42 403.042 269.872 406.485C257.74 411.526 245.882 416.45 234.03 421.379ZM235.246 424.352C235.465 423.407 236.295 423.484 236.855 423.249C247.873 418.652 258.921 414.121 269.913 409.453C271.527 408.768 272.418 408.978 273.599 410.203C278.064 414.841 282.651 419.367 287.61 424.352C269.775 424.352 252.536 424.352 235.246 424.352ZM290.787 423.586C285.558 418.284 280.304 413.008 274.8 407.471C284.026 403.65 292.941 399.983 301.82 396.244C303.052 395.728 303.556 395.891 304.07 397.158C307.517 405.637 311.02 414.096 314.563 422.534C315.144 423.913 315.123 424.454 313.397 424.434C306.626 424.362 299.849 424.398 293.078 424.413C292.197 424.419 291.449 424.26 290.787 423.586ZM295.109 427.131C301.835 427.131 308.657 427.141 315.475 427.121C316.335 427.115 316.64 427.647 316.91 428.295C321.762 440.033 326.614 451.771 331.573 463.769C319.303 451.444 307.252 439.333 295.109 427.131ZM334.567 462.303C334.399 462.349 334.236 462.39 334.068 462.436C330.453 453.691 326.838 444.947 323.223 436.202C322.185 433.694 321.202 431.161 320.102 428.684C319.522 427.376 319.919 427.09 321.207 427.105C325.102 427.156 329.002 427.177 332.897 427.1C334.302 427.075 334.587 427.672 334.582 428.919C334.557 440.048 334.567 451.178 334.567 462.303ZM331.894 424.454C328.086 424.291 324.262 424.357 320.449 424.434C319.008 424.465 318.173 424.112 317.582 422.651C314.024 413.835 310.368 405.065 306.718 396.285C306.3 395.284 305.872 394.517 307.339 393.92C316.121 390.344 324.873 386.697 333.64 383.086C333.854 382.999 334.124 383.04 334.567 383.009C334.567 387.305 334.567 391.545 334.567 395.784C334.567 404.462 334.496 413.135 334.618 421.814C334.648 423.99 333.961 424.541 331.894 424.454ZM441.214 315.229C435.028 315.122 428.842 315.188 422.651 315.188C416.546 315.188 410.447 315.137 404.343 315.219C402.545 315.244 401.904 315.04 402.754 313.048C406.277 304.773 409.704 296.458 413.069 288.122C413.629 286.737 414.164 286.574 415.467 287.126C424.275 290.849 433.108 294.527 441.957 298.153C443.102 298.623 443.464 299.236 443.449 300.421C443.393 304.589 443.347 308.757 443.464 312.92C443.52 314.682 443.031 315.259 441.214 315.229ZM409.892 240.65C400.906 249.665 391.9 258.66 382.944 267.706C381.854 268.804 381.483 268.63 380.938 267.292C377.486 258.808 374.004 250.334 370.455 241.896C369.885 240.542 370.119 240.006 371.463 239.46C380.393 235.818 389.293 232.094 398.197 228.381C398.915 228.079 399.516 227.778 400.234 228.514C403.559 231.91 406.934 235.256 410.284 238.627C410.513 238.857 410.681 239.143 410.931 239.47C410.554 239.899 410.243 240.297 409.892 240.65ZM411.674 242.713C412.412 241.973 412.962 241.206 414.092 242.386C417.259 245.696 420.543 248.894 423.776 252.147C424.117 252.495 424.585 252.811 424.428 253.353C424.209 253.904 424.02 254.374 423.827 254.844C420.268 263.466 416.669 272.073 413.176 280.726C412.534 282.309 411.944 282.738 410.254 282.013C402.006 278.488 393.717 275.061 385.408 271.685C383.692 270.985 383.901 270.505 385.047 269.366C393.956 260.514 402.81 251.606 411.674 242.713ZM361.016 315.183C360.863 309.191 358.587 304.048 354.84 299.481C362.66 291.712 370.491 283.949 378.291 276.154C379.003 275.444 379.502 274.514 380.403 273.263C386.36 287.693 391.981 301.29 397.719 315.183C385.215 315.183 373.118 315.183 361.016 315.183ZM396.731 320.495C391.431 333.086 386.264 345.728 380.877 358.778C371.86 349.707 363.032 340.819 354.204 331.936C357.849 327.927 360.105 323.243 360.965 317.88C372.334 317.89 383.698 317.962 395.066 317.864C397.515 317.844 397.607 318.426 396.731 320.495ZM378.54 268.789C365.338 263.303 352.758 258.078 339.734 252.663C347.27 249.532 354.357 246.559 361.469 243.648C363.327 242.887 365.501 240.987 366.998 241.794C368.403 242.55 368.811 245.236 369.59 247.106C372.507 254.134 375.399 261.173 378.54 268.789ZM378.968 272.012C376.524 274.325 374.335 276.302 372.257 278.391C365.858 284.827 359.499 291.309 353.124 297.775C348.466 294.353 343.349 292.228 337.489 292.177C337.489 279.852 337.489 267.527 337.489 254.793C351.297 260.524 364.855 266.153 378.968 272.012ZM352.244 333.627C361.153 342.699 370.058 351.77 379.171 361.051C376.885 362.021 374.808 362.91 372.721 363.779C361.861 368.294 350.996 372.799 340.137 377.309C337.474 378.412 337.474 378.412 337.474 375.399C337.474 363.161 337.469 350.922 337.469 338.684C342.906 338.5 347.835 336.83 352.244 333.627ZM378.53 364.417C375.47 371.844 372.67 378.642 369.865 385.441C369.152 387.167 368.408 388.883 367.716 390.615C367.405 391.391 367.192 391.938 366.097 391.473C357.523 387.867 348.919 384.327 339.729 380.527C352.794 375.108 365.313 369.908 378.53 364.417ZM370.251 391.759C374.111 382.54 377.914 373.3 381.503 364.642C391.131 373.979 400.677 383.26 410.264 392.5C411.216 393.419 410.956 393.92 410.152 394.706C406.939 397.853 403.757 401.035 400.621 404.258C399.771 405.131 399.058 405.188 397.948 404.718C389.135 401.009 380.286 397.378 371.458 393.715C370.608 393.368 369.671 393.143 370.251 391.759ZM385.337 363.385C384.232 362.272 384.441 361.919 385.77 361.378C394.145 357.956 402.505 354.487 410.844 350.968C411.979 350.488 412.438 350.703 412.891 351.816C416.582 360.842 420.324 369.842 424.046 378.852C424.336 379.551 424.657 380.18 423.913 380.905C420.584 384.174 417.31 387.499 414.006 390.794C413.777 391.024 413.471 391.177 413.15 391.407C412.733 391.024 412.346 390.702 411.995 390.344C403.121 381.349 394.257 372.344 385.337 363.385ZM409.205 348.67C400.886 352.02 392.622 355.514 383.733 359.217C389.16 346.09 394.364 333.499 399.806 320.337C400.443 321.859 400.875 322.88 401.303 323.907C404.322 331.196 407.285 338.51 410.401 345.758C411.109 347.398 410.885 347.995 409.205 348.67ZM399.832 312.889C394.44 299.849 389.222 287.228 383.748 273.999C392.826 277.768 401.247 281.272 409.683 284.745C410.727 285.174 411.139 285.629 410.635 286.824C407.066 295.334 403.559 303.874 399.832 312.889ZM443.459 293.756C443.474 295.319 443.194 295.661 441.641 295.007C433.21 291.442 424.738 287.984 416.292 284.459C415.671 284.199 414.754 284.107 415.258 282.901C419.077 273.753 422.844 264.585 426.831 254.926C432.365 260.555 437.589 265.887 442.833 271.199C443.454 271.828 443.428 272.558 443.428 273.324C443.433 280.138 443.398 286.947 443.459 293.756ZM443.26 267.869C438.194 262.756 433.505 257.991 428.765 253.276C427.9 252.413 428.17 251.688 428.552 250.773C433.383 239.112 438.189 227.436 443.265 215.141C443.26 232.937 443.26 250.084 443.26 267.869ZM440.231 214.15C440.358 214.176 440.47 214.252 440.592 214.309C435.944 225.531 431.27 236.737 426.683 247.984C426.006 249.65 425.604 250.242 424.117 248.628C421.582 245.88 418.893 243.28 416.215 240.67C415.365 239.843 414.999 239.327 416.068 238.269C424.092 230.311 432.049 222.282 440.027 214.273C440.073 214.217 440.17 214.14 440.231 214.15ZM438.143 211.775C438.215 211.862 438.286 211.954 438.352 212.041C430.232 220.208 422.101 228.37 414.001 236.558C413.329 237.233 412.886 237.36 412.163 236.62C409.261 233.647 406.323 230.71 403.365 227.793C401.853 226.307 403.447 226.205 404.22 225.883C414.515 221.582 424.825 217.307 435.129 213.032C436.138 212.618 437.141 212.199 438.143 211.775ZM437.334 209.088C427.304 213.262 417.885 217.184 408.467 221.102C406.201 222.042 403.905 222.92 401.665 223.922C400.707 224.351 400 224.448 399.18 223.62C394.476 218.87 389.736 214.166 384.65 209.094C402.296 209.088 419.428 209.088 437.334 209.088ZM379.818 208.915C380.358 208.915 380.806 209.083 381.188 209.461C386.493 214.814 391.793 220.167 397.281 225.704C389.726 228.851 382.409 231.946 375.053 234.939C372.975 235.782 370.598 237.886 368.856 237.008C367.344 236.247 366.917 233.259 366.072 231.231C363.338 224.652 360.624 218.063 357.915 211.474C357.6 210.708 357.35 209.916 356.994 208.91C364.758 208.92 372.288 208.925 379.818 208.915ZM340.656 169.457C352.702 181.583 364.799 193.765 376.952 206.003C370.44 206.003 363.75 205.993 357.065 206.019C356.108 206.024 355.533 205.758 355.141 204.798C350.329 193.024 345.472 181.271 340.641 169.508C340.62 169.452 340.707 169.355 340.656 169.457ZM337.474 170.688C337.632 170.642 337.784 170.601 337.942 170.555C340.269 176.164 342.596 181.772 344.922 187.38C347.163 192.789 349.301 198.239 351.673 203.587C352.656 205.794 351.984 206.106 349.942 206.039C346.47 205.922 342.993 205.952 339.521 206.034C338.059 206.07 337.433 205.743 337.443 204.088C337.51 192.958 337.474 181.823 337.474 170.688ZM337.474 229.402C337.474 223.278 337.53 217.149 337.438 211.024C337.413 209.349 337.907 208.833 339.577 208.874C343.731 208.981 347.886 208.951 352.04 208.884C353.328 208.864 353.98 209.262 354.484 210.503C358.094 219.391 361.769 228.248 365.486 237.09C365.99 238.295 365.868 238.811 364.595 239.327C356.128 242.78 347.682 246.294 339.256 249.854C337.698 250.513 337.433 250.053 337.448 248.541C337.504 242.167 337.469 235.782 337.474 229.402ZM337.474 382.637C346.857 386.524 355.838 390.257 364.829 393.956C365.837 394.369 365.995 394.829 365.562 395.856C361.795 404.861 358.068 413.881 354.382 422.917C353.924 424.046 353.298 424.444 352.106 424.429C347.784 424.373 343.456 424.383 339.134 424.419C338.003 424.429 337.448 424.138 337.448 422.85C337.489 409.591 337.474 396.331 337.474 382.637ZM337.912 462.748C337.764 462.727 337.622 462.707 337.474 462.681C337.474 451.367 337.484 440.054 337.454 428.735C337.448 427.524 337.861 427.09 339.073 427.105C342.972 427.156 346.877 427.172 350.777 427.1C352.351 427.069 352.432 427.59 351.892 428.893C347.208 440.171 342.57 451.464 337.912 462.748ZM340.656 463.774C340.539 463.064 341.129 462.38 341.435 461.634C345.885 450.816 350.396 440.028 354.774 429.184C355.426 427.565 356.235 427.059 357.941 427.085C364.274 427.192 370.608 427.126 377.125 427.126C364.809 439.507 352.702 451.669 340.656 463.774ZM381.269 423.622C380.841 424.051 380.398 424.403 379.736 424.403C372.212 424.393 364.692 424.398 356.816 424.398C358.623 420.021 360.293 415.96 361.968 411.904C363.979 407.037 366.041 402.189 367.971 397.296C368.51 395.927 369.075 395.723 370.409 396.285C378.84 399.845 387.302 403.333 395.769 406.802C396.92 407.272 397.286 407.614 396.227 408.661C391.212 413.616 386.248 418.626 381.269 423.622ZM384.599 424.301C387.964 420.925 390.968 417.886 394.002 414.872C396.049 412.844 397.907 409.611 400.259 409.192C402.729 408.748 405.697 410.975 408.426 412.098C417.504 415.848 426.571 419.622 435.644 423.387C436.087 423.571 436.626 423.596 436.917 424.301C419.581 424.301 402.377 424.301 384.599 424.301ZM438.261 421.436C426.423 416.522 414.586 411.608 402.352 406.526C405.87 402.996 409.184 399.671 412.494 396.341C413.522 395.304 413.991 396.382 414.515 396.908C420.029 402.44 425.492 408.022 431.021 413.534C433.531 416.032 436.163 418.402 438.739 420.828C438.581 421.027 438.418 421.231 438.261 421.436ZM440.088 418.718C439.579 418.253 439.045 417.814 438.566 417.324C431.245 409.877 423.954 402.399 416.587 394.998C415.518 393.92 415.36 393.332 416.541 392.214C419.606 389.307 422.523 386.243 425.751 382.989C430.771 395.141 435.588 406.802 440.409 418.468C440.297 418.555 440.195 418.637 440.088 418.718ZM443.276 417.298C443.174 417.303 443.072 417.308 442.965 417.314C438.174 405.709 433.383 394.104 428.592 382.499C428.277 381.738 427.768 381.007 428.597 380.185C433.393 375.409 438.159 370.608 443.276 365.474C443.276 383.086 443.276 400.192 443.276 417.298ZM442.659 362.108C437.461 367.349 432.268 372.595 426.8 378.121C425.054 373.897 423.445 370.015 421.836 366.128C419.754 361.107 417.677 356.091 415.589 351.075C415.197 350.131 414.657 349.369 416.205 348.741C424.998 345.181 433.745 341.503 442.512 337.882C442.721 337.795 443.001 337.872 443.433 337.872C443.433 345.365 443.428 352.838 443.444 360.31C443.444 361.061 443.163 361.603 442.659 362.108ZM443.469 320.168C443.347 324.336 443.382 328.509 443.459 332.677C443.484 333.985 443.041 334.613 441.83 335.108C433.042 338.694 424.28 342.336 415.538 346.024C414.235 346.575 413.649 346.453 413.079 345.053C409.668 336.631 406.186 328.238 402.662 319.867C401.985 318.258 402.316 317.854 404.032 317.88C410.31 317.962 416.587 317.91 422.865 317.91C428.974 317.91 435.084 317.972 441.188 317.87C442.975 317.844 443.525 318.38 443.469 320.168ZM446.346 319.198C446.346 317.497 447.629 317.936 448.54 317.931C456.07 317.905 463.605 317.916 471.135 317.916C474.734 317.916 478.334 317.916 481.934 317.916C481.974 318.069 482.015 318.222 482.056 318.375C470.264 323.274 458.473 328.167 446.346 333.203C446.346 328.315 446.346 323.754 446.346 319.198ZM446.335 275.807C458.381 287.933 470.56 300.181 482.025 311.725C480.666 311.163 478.202 310.141 475.732 309.12C466.583 305.335 457.45 301.514 448.275 297.796C446.778 297.188 446.269 296.417 446.295 294.803C446.391 288.352 446.335 281.9 446.335 275.807ZM446.295 313.022C446.432 308.803 446.335 304.574 446.335 299.992C458.361 304.988 470.03 309.835 481.704 314.682C481.669 314.851 481.628 315.019 481.592 315.193C478.757 315.193 475.921 315.193 473.085 315.193C464.939 315.193 456.798 315.152 448.652 315.229C446.982 315.239 446.228 314.927 446.295 313.022ZM446.351 357.751C446.351 350.897 446.356 344.042 446.34 337.187C446.34 336.319 446.921 336.028 447.552 335.762C459.42 330.833 471.288 325.914 482.702 321.179C470.809 333.142 458.641 345.385 446.351 357.751Z" fill="#1E344E"/>
<path d="M189.461 413.764C190.016 414.228 190.413 414.52 190.759 414.862C205.87 429.996 220.965 445.141 236.092 460.26C236.988 461.159 237.13 461.711 236.148 462.681C235.175 463.647 234.635 463.519 233.734 462.61C218.659 447.445 203.543 432.31 188.458 417.155C188.096 416.793 187.276 416.486 187.75 415.761C188.203 415.061 188.834 414.474 189.461 413.764Z" fill="#298DFE"/>
<path d="M224.83 464.019C225.812 463.927 226.795 463.84 227.492 463.774C224.489 460.648 221.413 457.446 218.002 453.896C220.624 453.165 220.416 452.419 219.087 451.107C212.101 444.196 205.208 437.188 198.37 430.303C197.25 430.614 197.749 431.62 196.94 432.177C193.768 428.995 190.453 425.859 187.378 422.508C186.116 421.134 186.986 419.305 187.22 417.957C202.428 433.245 217.697 448.589 232.889 463.856C230.481 464.31 227.594 464.443 224.83 464.019Z" fill="#298DFE"/>
<path d="M187.908 424.99C200.437 437.602 212.967 450.208 225.492 462.819C225.736 462.574 225.98 462.334 226.225 462.089C213.69 449.482 201.16 436.881 188.626 424.275C188.386 424.51 188.147 424.75 187.908 424.99Z" fill="#298DFE"/>
<path d="M186.584 431.574C197.515 442.582 208.451 453.594 219.382 464.602C219.575 464.407 219.774 464.213 219.967 464.019C209.037 453.032 198.106 442.045 187.17 431.059C186.976 431.227 186.778 431.401 186.584 431.574Z" fill="#298DFE"/>
<path d="M207.738 447.879C212.875 453.064 218.007 458.243 223.144 463.427C223.358 463.218 223.572 463.009 223.786 462.794C218.654 457.62 213.522 452.446 208.39 447.271C208.176 447.476 207.957 447.68 207.738 447.879Z" fill="#298DFE"/>
<path d="M491.154 216.996C490.884 218.008 490.115 218.467 489.53 219.045C488.883 219.678 488.491 219.009 488.079 218.626C487.768 218.34 487.473 218.028 487.172 217.727C472.469 202.991 457.765 188.25 443.067 173.508C442.217 172.655 440.974 172.037 442.547 170.515C444.141 168.973 444.742 170.357 445.551 171.164C460.326 185.951 475.086 200.754 489.845 215.551C490.314 216.026 490.741 216.537 491.154 216.996Z" fill="#298DFE"/>
<path d="M491.643 215.622C476.17 200.053 460.84 184.622 445.551 169.238C447.954 168.977 450.322 168.803 452.328 171.47C454.298 174.09 456.93 176.215 459.267 178.564C459.837 179.137 460.469 179.566 459.002 179.974C457.307 180.449 458.87 181.154 459.181 181.476C461.828 184.229 464.552 186.916 467.25 189.618C471.267 193.648 475.269 197.693 479.332 201.677C479.77 202.106 480.635 204.073 481.195 201.59C481.394 200.717 481.969 201.325 482.29 201.642C485.304 204.63 488.42 207.531 491.261 210.677C492.452 212 491.602 213.916 491.643 215.622Z" fill="#298DFE"/>
<path d="M459.725 168.221C467.586 176.031 475.457 183.83 483.303 191.66C486.47 194.822 489.57 198.061 492.696 201.263C491.607 202.841 491.042 201.35 490.487 200.793C482.931 193.269 475.412 185.715 467.887 178.166C465.199 175.469 462.515 172.772 459.817 170.08C459.201 169.467 458.458 168.905 459.725 168.221Z" fill="#298DFE"/>
<path d="M455.271 170.172C467.062 182.053 478.848 193.934 490.64 205.814C490.792 205.661 490.945 205.508 491.103 205.35C479.296 193.474 467.485 181.598 455.678 169.723C455.54 169.876 455.403 170.024 455.271 170.172Z" fill="#298DFE"/>
<path d="M459.853 180.913C466.593 187.681 473.334 194.444 480.075 201.212C480.274 201.017 480.472 200.823 480.666 200.629C473.94 193.867 467.21 187.099 460.484 180.336C460.27 180.525 460.061 180.719 459.853 180.913Z" fill="#298DFE"/>
<path d="M338.003 484.807C327.582 484.807 317.16 484.818 306.733 484.797C305.648 484.797 304.274 485.267 304.274 483.244C304.274 481.191 305.699 481.733 306.748 481.733C327.592 481.712 348.441 481.712 369.284 481.727C370.277 481.727 371.55 481.268 371.621 483.142C371.697 485.114 370.425 484.807 369.269 484.807C358.847 484.807 348.425 484.807 338.003 484.807Z" fill="#298DFE"/>
<path d="M304.778 485.865C327.001 485.865 348.588 485.865 370.445 485.865C369.722 487.495 368.495 488.511 367.456 489.66C367.268 489.87 366.835 490.069 366.606 489.992C362.676 488.659 358.628 489.762 354.657 489.41C353.837 489.339 352.605 489.829 353.333 488.057C353.761 487.015 352.671 487.352 352.228 487.352C342.57 487.326 332.912 487.331 323.254 487.331C322.445 487.331 321.635 487.265 322.205 488.547C322.674 489.594 321.772 489.4 321.253 489.405C317.104 489.446 312.949 489.594 308.805 489.436C306.982 489.349 306.417 487.331 304.778 485.865Z" fill="#298DFE"/>
<path d="M314.441 494.625C329.99 494.625 345.538 494.625 361.087 494.625C361.087 494.794 361.087 494.957 361.092 495.126C345.544 495.126 329.99 495.126 314.441 495.126C314.441 494.957 314.441 494.788 314.441 494.625Z" fill="#298DFE"/>
<path d="M323.6 488.139C333.029 488.139 342.463 488.139 351.892 488.139C351.892 488.297 351.897 488.46 351.897 488.619C342.463 488.619 333.029 488.619 323.59 488.619C323.595 488.46 323.6 488.297 323.6 488.139Z" fill="#298DFE"/>
<path d="M337.683 490.835C358.535 490.835 375.439 490.76 375.439 490.667C375.439 490.574 358.535 490.498 337.683 490.498C316.83 490.498 299.926 490.574 299.926 490.667C299.926 490.76 316.83 490.835 337.683 490.835Z" fill="#298DFE"/>
<path d="M337.759 492.899C357.169 492.899 372.904 492.819 372.904 492.72C372.904 492.621 357.169 492.541 337.759 492.541C318.349 492.541 302.614 492.621 302.614 492.72C302.614 492.819 318.349 492.899 337.759 492.899Z" fill="#298DFE"/>
<path d="M314.685 496.137C330.066 496.137 345.447 496.137 360.828 496.137C360.828 496.218 360.828 496.295 360.828 496.377C345.457 496.377 330.081 496.377 314.711 496.377C314.701 496.295 314.696 496.213 314.685 496.137Z" fill="#298DFE"/>
<path d="M164.386 311.515C164.386 321.971 164.391 332.427 164.381 342.877C164.381 344.006 164.763 345.329 162.772 345.293C160.756 345.252 161.25 343.863 161.25 342.785C161.23 321.961 161.23 301.136 161.26 280.312C161.26 279.377 160.624 278.008 162.477 277.799C164.468 277.574 164.396 278.779 164.396 280.153C164.376 290.609 164.386 301.06 164.386 311.515Z" fill="#298DFE"/>
<path d="M160.262 278.258C160.262 300.599 160.262 322.272 160.262 344.195C158.48 343.525 157.421 342.167 156.352 340.972C155.706 340.246 156.765 339.26 156.714 338.249C156.556 334.939 156.637 331.619 156.673 328.304C156.678 327.773 156.459 326.659 157.055 326.792C160.313 327.523 158.699 324.953 158.714 324.1C158.847 315.346 158.827 306.586 158.745 297.826C158.74 297.055 159.921 294.782 157.157 295.829C156.541 296.064 156.673 295.114 156.668 294.674C156.632 290.593 156.576 286.512 156.627 282.431C156.658 280.27 158.827 279.964 160.262 278.258Z" fill="#298DFE"/>
<path d="M151.378 288C151.378 303.589 151.378 319.173 151.378 334.762C151.21 334.762 151.047 334.762 150.879 334.767C150.879 319.168 150.879 303.574 150.879 287.975C151.047 287.985 151.215 287.99 151.378 288Z" fill="#298DFE"/>
<path d="M157.442 325.593C157.442 316.118 157.442 306.638 157.442 297.163C157.61 297.163 157.773 297.158 157.941 297.158C157.941 306.628 157.941 316.098 157.941 325.568C157.773 325.573 157.61 325.583 157.442 325.593Z" fill="#298DFE"/>
<path d="M155.461 349.19C155.554 349.19 155.629 332.254 155.629 311.362C155.629 290.47 155.554 273.533 155.461 273.533C155.368 273.533 155.293 290.47 155.293 311.362C155.293 332.254 155.368 349.19 155.461 349.19Z" fill="#298DFE"/>
<path d="M153.404 346.616C153.522 346.616 153.618 330.841 153.618 311.382C153.618 291.923 153.522 276.148 153.404 276.148C153.286 276.148 153.19 291.923 153.19 311.382C153.19 330.841 153.286 346.616 153.404 346.616Z" fill="#298DFE"/>
<path d="M149.713 334.429C149.713 319.059 149.713 303.69 149.713 288.32C149.795 288.32 149.876 288.32 149.958 288.32C149.958 303.72 149.958 319.12 149.958 334.52C149.876 334.49 149.795 334.459 149.713 334.429Z" fill="#298DFE"/>
<path d="M507.593 316.476C507.593 306.097 507.588 295.717 507.604 285.344C507.604 284.235 507.196 282.928 509.187 282.876C511.259 282.825 511.01 284.118 511.01 285.395C511.01 306.321 511.01 327.248 511.015 348.175C511.015 349.406 511.147 350.509 509.269 350.504C507.339 350.499 507.593 349.304 507.593 348.124C507.593 337.576 507.593 327.023 507.593 316.476Z" fill="#298DFE"/>
<path d="M513.708 284.521C516.152 286.635 515.536 289.506 515.566 292.203C515.597 294.583 515.617 296.963 515.551 299.343C515.526 300.258 516.111 301.836 513.988 301.116C513.072 300.804 513.219 301.79 513.214 302.301C513.194 312.077 513.199 321.854 513.209 331.635C513.209 332.085 513.138 332.917 513.907 332.575C516.238 331.538 515.521 333.392 515.541 334.312C515.612 337.116 515.322 339.951 515.633 342.719C515.994 345.973 514.523 347.924 511.804 349.584C511.804 327.641 511.804 305.846 511.804 283.984C512.552 283.535 512.934 284.904 513.728 284.541C513.734 284.541 513.708 284.521 513.708 284.521Z" fill="#298DFE"/>
<path d="M518.448 341.856C518.448 325.097 518.448 308.333 518.448 291.574C518.616 291.574 518.779 291.574 518.947 291.574C518.947 308.323 518.947 325.071 518.947 341.82C518.779 341.83 518.611 341.845 518.448 341.856Z" fill="#298DFE"/>
<path d="M516.498 354.34C516.616 354.34 516.712 337.516 516.712 316.762C516.712 296.008 516.616 279.184 516.498 279.184C516.38 279.184 516.284 296.008 516.284 316.762C516.284 337.516 516.38 354.34 516.498 354.34Z" fill="#298DFE"/>
<path d="M522.063 349.237C522.15 349.237 522.221 334.594 522.221 316.531C522.221 298.469 522.15 283.826 522.063 283.826C521.976 283.826 521.905 298.469 521.905 316.531C521.905 334.594 521.976 349.237 522.063 349.237Z" fill="#298DFE"/>
<path d="M521.152 293.394C521.152 308.881 521.152 324.362 521.152 339.849C521.065 339.849 520.978 339.849 520.892 339.849C520.892 324.347 520.892 308.85 520.892 293.348C520.978 293.363 521.065 293.378 521.152 293.394Z" fill="#298DFE"/>
<path d="M514.426 336.8C514.505 336.8 514.569 327.811 514.569 316.721C514.569 305.632 514.505 296.643 514.426 296.643C514.347 296.643 514.283 305.632 514.283 316.721C514.283 327.811 514.347 336.8 514.426 336.8Z" fill="#298DFE"/>
<path d="M334.465 143.092C344.805 143.092 355.146 143.081 365.481 143.102C366.56 143.102 367.95 142.617 367.965 144.639C367.981 146.575 366.723 146.299 365.557 146.299C344.622 146.299 323.692 146.299 302.757 146.304C301.555 146.304 300.359 146.493 300.394 144.593C300.43 142.78 301.621 143.097 302.675 143.097C313.28 143.086 323.875 143.092 334.465 143.092Z" fill="#298DFE"/>
<path d="M301.148 142.238C303.123 140.027 304.834 138.116 306.641 136.094C307.038 137.223 305.75 137.386 305.852 138.28C306.01 138.336 306.224 138.474 306.438 138.474C310.164 138.489 313.891 138.474 317.618 138.505C318.361 138.51 319.553 138.178 318.784 139.782C318.295 140.808 319.283 140.614 319.777 140.614C329.435 140.635 339.093 140.629 348.746 140.619C349.214 140.619 350.141 140.65 349.958 140.124C349.011 137.422 351.164 138.571 351.984 138.535C354.861 138.408 357.768 138.729 360.614 138.423C363.74 138.081 365.44 139.654 367.044 142.233C345.085 142.238 323.33 142.238 301.148 142.238Z" fill="#298DFE"/>
<path d="M361.367 137.819C343.395 137.819 325.418 137.819 307.446 137.819C307.446 137.651 307.446 137.482 307.446 137.309C325.428 137.309 343.41 137.309 361.393 137.309C361.377 137.477 361.372 137.651 361.367 137.819Z" fill="#298DFE"/>
<path d="M310.439 131.2C322.058 131.246 333.671 131.297 345.289 131.332C349.337 131.348 353.389 131.332 357.503 131.332C357.304 132.717 356.439 132.339 355.884 132.339C341.465 132.364 327.047 132.359 312.629 132.359C311.697 132.359 310.689 132.482 310.434 131.189C310.434 131.195 310.439 131.2 310.439 131.2Z" fill="#298DFE"/>
<path d="M334.368 135.403C353.846 135.403 369.635 135.319 369.635 135.214C369.635 135.11 353.846 135.025 334.368 135.025C314.891 135.025 299.101 135.11 299.101 135.214C299.101 135.319 314.891 135.403 334.368 135.403Z" fill="#298DFE"/>
<path d="M334.221 133.315C352.368 133.315 367.08 133.235 367.08 133.136C367.08 133.037 352.368 132.957 334.221 132.957C316.073 132.957 301.362 133.037 301.362 133.136C301.362 133.235 316.073 133.315 334.221 133.315Z" fill="#298DFE"/>
<path d="M334.394 139.93C345.531 139.93 354.56 139.85 354.56 139.751C354.56 139.652 345.531 139.572 334.394 139.572C323.256 139.572 314.227 139.652 314.227 139.751C314.227 139.85 323.256 139.93 334.394 139.93Z" fill="#298DFE"/>
<path d="M481.155 415.868C480.508 416.573 480.126 417.022 479.709 417.436C464.715 432.478 449.716 447.511 434.732 462.563C433.943 463.355 433.414 463.912 432.339 462.793C431.357 461.766 431.301 461.21 432.334 460.178C447.425 445.115 462.475 430.006 477.55 414.933C477.947 414.535 478.268 413.574 479.149 414.223C479.841 414.724 480.467 415.301 481.155 415.868Z" fill="#298DFE"/>
<path d="M481.399 417.527C481.399 420.143 481.399 422.559 481.399 425.01C480.686 424.617 481.399 423.708 480.396 423.023C477.85 425.649 475.172 428.33 472.591 431.109C471.491 432.289 470.692 432.805 470.071 430.225C462.633 437.78 455.474 445.023 448.357 452.312C446.89 453.813 449.141 453.318 449.955 454.564C446.595 457.67 443.306 460.852 439.844 463.84C438.403 465.081 436.662 463.886 435.303 463.86C450.561 448.522 465.866 433.137 481.399 417.527Z" fill="#298DFE"/>
<path d="M482.539 431.672C482.29 432.546 481.501 432.98 480.92 433.562C470.916 443.614 460.902 453.656 450.877 463.688C450.291 464.276 449.619 464.781 448.988 465.323C447.267 464.439 447.058 463.734 448.652 462.166C458.784 452.196 468.813 442.128 478.767 431.984C480.177 430.549 481.16 430.278 482.539 431.672Z" fill="#298DFE"/>
<path d="M442.334 463.314C454.889 450.677 467.444 438.036 479.999 425.399C479.841 425.241 479.683 425.082 479.525 424.924C466.97 437.545 454.42 450.167 441.865 462.793C442.023 462.967 442.176 463.14 442.334 463.314Z" fill="#298DFE"/>
<path d="M444.961 463.278C456.772 451.397 468.584 439.517 480.396 427.636C480.228 427.467 480.06 427.294 479.887 427.125C468.08 439.001 456.279 450.881 444.472 462.757C444.64 462.931 444.798 463.104 444.961 463.278Z" fill="#298DFE"/>
<path d="M225.059 169.625C226.866 171.106 226.724 172.194 224.962 173.931C210.33 188.36 195.804 202.897 181.335 217.485C179.813 219.018 178.759 219.396 177.364 217.623C177.089 216.53 178.041 216.142 178.596 215.585C193.396 200.716 208.217 185.868 223.043 171.025C223.618 170.447 224.066 169.625 225.059 169.625Z" fill="#298DFE"/>
<path d="M187.297 200.829C187.49 201.38 187.684 201.932 187.781 202.218C195.188 194.781 202.627 187.319 210.019 179.897C209.872 179.82 209.306 179.529 208.533 179.136C211.771 175.892 214.82 172.726 218.002 169.702C219.479 168.302 221.357 169.385 222.615 169.242C207.468 184.484 192.154 199.899 176.86 215.289C176.427 213.338 176.727 210.968 176.646 208.266C177.323 210.212 177.323 210.212 178.657 208.986C180.408 205.502 183.433 203.219 186.33 200.819C186.589 200.594 186.976 200.686 187.297 200.829Z" fill="#298DFE"/>
<path d="M175.673 201.329C178.082 198.837 180.449 196.303 182.898 193.852C191.482 185.281 200.091 176.735 208.69 168.18C210.233 169.298 208.751 169.855 208.191 170.422C200.3 178.385 192.378 186.312 184.461 194.25C182.18 196.533 179.904 198.816 177.629 201.105C177.033 201.707 176.468 202.504 175.673 201.329Z" fill="#298DFE"/>
<path d="M187.297 200.83C184.42 203.547 181.539 206.265 178.662 208.982C177.028 207.787 178.311 207.046 179.095 206.254C187.17 198.143 195.255 190.037 203.334 181.931C206.868 178.386 210.391 174.836 213.939 171.312C214.515 170.745 214.937 169.907 216.078 169.861C216.215 171.011 215.263 171.45 214.683 172.032C205.961 180.818 197.21 189.572 188.488 198.358C187.847 199.012 186.645 199.497 187.297 200.83Z" fill="#298DFE"/>
<path d="M213.059 169.691C201.262 181.557 189.466 193.422 177.674 205.288C177.832 205.446 177.985 205.599 178.143 205.758C189.944 193.877 201.746 182.001 213.547 170.12C213.385 169.977 213.222 169.834 213.059 169.691Z" fill="#298DFE"/>
<path d="M208.655 180.5C201.929 187.258 195.198 194.02 188.473 200.778C188.646 200.952 188.814 201.125 188.987 201.299C195.713 194.546 202.433 187.799 209.159 181.047C208.991 180.868 208.823 180.684 208.655 180.5Z" fill="#298DFE"/>
<path d="M147.122 311.383C147.122 318.36 147.071 325.343 147.157 332.315C147.178 334.051 146.74 334.664 144.912 334.649C135.325 334.567 125.743 334.562 116.157 334.649C114.283 334.664 113.942 333.97 113.947 332.279C114.003 318.324 114.008 304.365 113.942 290.41C113.932 288.674 114.349 288.071 116.182 288.086C125.769 288.173 135.351 288.178 144.938 288.086C146.806 288.071 147.173 288.745 147.152 290.441C147.071 297.423 147.122 304.406 147.122 311.383Z" fill="#298DFE"/>
<path d="M524.873 316.48C524.873 309.508 524.924 302.531 524.838 295.559C524.817 293.878 525.316 293.357 526.981 293.367C536.644 293.429 546.308 293.434 555.971 293.367C557.692 293.357 558.094 294.001 558.089 295.61C558.038 309.641 558.038 323.672 558.089 337.703C558.094 339.353 557.61 339.9 555.935 339.889C546.272 339.823 536.609 339.818 526.945 339.894C525.199 339.91 524.833 339.246 524.848 337.657C524.909 330.598 524.873 323.539 524.873 316.48Z" fill="#298DFE"/>
<path d="M337.82 499.024C344.775 499.024 351.729 499.08 358.679 498.983C360.492 498.958 360.96 499.555 360.945 501.307C360.868 510.92 360.873 520.533 360.94 530.146C360.95 531.811 360.461 532.322 358.786 532.317C344.795 532.255 330.804 532.25 316.808 532.322C314.991 532.332 314.533 531.745 314.543 529.998C314.614 520.385 314.614 510.772 314.548 501.159C314.538 499.499 315.032 498.973 316.702 498.993C323.743 499.07 330.779 499.024 337.82 499.024Z" fill="#298DFE"/>
<path d="M474.123 489.809C473.65 489.364 473.268 489.027 472.912 488.67C465.957 481.703 459.023 474.71 452.022 467.789C450.872 466.655 451.004 465.991 452.078 464.929C462.123 454.927 472.138 444.901 482.107 434.818C483.257 433.659 483.883 433.807 484.937 434.879C491.851 441.892 498.806 448.859 505.796 455.791C506.713 456.705 506.804 457.236 505.837 458.196C495.619 468.381 485.441 478.612 475.254 488.828C474.913 489.165 474.526 489.461 474.123 489.809Z" fill="#298DFE"/>
<path d="M184.873 433.424C185.306 433.792 185.703 434.088 186.044 434.43C196.191 444.595 206.323 454.774 216.49 464.919C217.442 465.869 217.391 466.492 216.465 467.416C209.357 474.491 202.27 481.585 195.224 488.721C194.333 489.62 193.829 489.528 192.994 488.685C182.817 478.434 172.614 468.198 162.385 457.998C161.52 457.134 161.51 456.629 162.375 455.771C169.549 448.64 176.671 441.464 183.819 434.307C184.12 434.016 184.456 433.771 184.873 433.424Z" fill="#298DFE"/>
<path d="M484.81 143.754C485.182 144.091 485.635 144.469 486.047 144.878C496.001 154.848 505.924 164.849 515.928 174.769C517.252 176.076 517.073 176.761 515.852 177.966C508.963 184.759 502.136 191.619 495.354 198.52C494.214 199.684 493.557 199.782 492.35 198.561C482.448 188.539 472.489 178.569 462.505 168.629C461.411 167.536 461.105 166.887 462.393 165.62C469.409 158.715 476.323 151.707 483.288 144.745C483.69 144.346 483.99 143.754 484.81 143.754Z" fill="#298DFE"/>
<path d="M183.779 143.494C184.486 143.479 184.756 143.964 185.097 144.307C192.235 151.452 199.353 158.614 206.516 165.734C207.382 166.597 207.382 167.108 206.516 167.971C196.242 178.217 185.993 188.494 175.765 198.787C174.966 199.594 174.477 199.532 173.724 198.766C166.55 191.539 159.361 184.326 152.147 177.14C151.373 176.368 151.358 175.878 152.147 175.086C162.416 164.835 172.659 154.553 182.908 144.281C183.209 143.99 183.529 143.719 183.779 143.494Z" fill="#298DFE"/>
<path d="M334.134 129.249C327.174 129.249 320.22 129.208 313.26 129.28C311.651 129.295 311.025 128.886 311.04 127.15C311.111 117.363 311.111 107.571 311.04 97.7796C311.025 96.043 311.651 95.6395 313.26 95.6446C327.261 95.6957 341.262 95.6905 355.258 95.6497C356.851 95.6446 357.483 96.0379 357.467 97.7899C357.386 107.576 357.391 117.368 357.467 127.16C357.483 128.907 356.851 129.295 355.263 129.28C348.222 129.208 341.175 129.244 334.134 129.249Z" fill="#298DFE"/>
<path d="M144.123 311.188C144.123 317.486 144.067 323.784 144.159 330.082C144.189 331.982 143.782 332.799 141.654 332.764C134.108 332.641 126.553 332.661 119.008 332.753C117.124 332.779 116.538 332.227 116.549 330.302C116.63 317.537 116.63 304.773 116.544 292.008C116.528 290.016 117.216 289.603 119.043 289.628C126.594 289.72 134.144 289.72 141.689 289.628C143.553 289.603 144.199 290.098 144.164 292.044C144.052 298.419 144.123 304.803 144.123 311.188Z" fill="#298DFE"/>
<path d="M555.411 316.776C555.411 323.161 555.36 329.54 555.441 335.925C555.462 337.616 555.105 338.336 553.227 338.31C545.508 338.213 537.79 338.234 530.071 338.3C528.442 338.315 527.862 337.856 527.872 336.155C527.933 323.222 527.933 310.284 527.867 297.351C527.857 295.609 528.498 295.226 530.092 295.241C537.81 295.308 545.529 295.328 553.247 295.231C555.146 295.206 555.462 295.967 555.441 297.632C555.365 304.011 555.411 310.396 555.411 316.776Z" fill="#298DFE"/>
<path d="M337.586 529.333C331.151 529.333 324.71 529.287 318.275 529.364C316.63 529.384 316.07 528.889 316.091 527.203C316.162 519.388 316.162 511.568 316.091 503.748C316.075 502.124 316.691 501.751 318.178 501.756C331.135 501.797 344.098 501.802 357.055 501.756C358.674 501.751 359.305 502.231 359.29 503.932C359.224 511.665 359.209 519.398 359.3 527.132C359.321 529.016 358.567 529.384 356.902 529.364C350.462 529.292 344.026 529.333 337.586 529.333Z" fill="#298DFE"/>
<path d="M503.347 456.041C503.373 456.792 502.889 457.073 502.543 457.415C493.139 466.86 483.721 476.289 474.337 485.759C473.431 486.673 472.912 486.489 472.102 485.667C466.436 479.926 460.744 474.215 455.011 468.545C454.023 467.57 454.171 466.982 455.077 466.078C464.455 456.726 473.803 447.348 483.135 437.95C483.924 437.153 484.433 436.887 485.37 437.847C491.083 443.66 496.861 449.406 502.614 455.183C502.904 455.474 503.154 455.812 503.347 456.041Z" fill="#298DFE"/>
<path d="M183.58 436.908C184.405 436.908 184.716 437.485 185.113 437.889C194.404 447.19 203.67 456.522 212.998 465.793C214.072 466.86 213.919 467.427 212.931 468.403C207.316 473.945 201.731 479.523 196.222 485.167C195.092 486.326 194.481 486.199 193.411 485.116C184.227 475.825 174.996 466.579 165.74 457.355C164.819 456.435 164.447 455.884 165.598 454.76C171.29 449.177 176.89 443.497 182.526 437.853C182.878 437.501 183.27 437.184 183.58 436.908Z" fill="#298DFE"/>
<path d="M514.115 177.166C513.754 177.574 513.494 177.901 513.199 178.192C507.507 183.903 501.789 189.588 496.138 195.334C495.084 196.407 494.443 196.238 493.47 195.252C484.27 185.972 475.045 176.716 465.784 167.497C464.781 166.496 464.7 165.867 465.753 164.83C471.43 159.227 477.056 153.573 482.651 147.888C483.568 146.953 484.128 146.902 485.08 147.862C494.397 157.266 503.76 166.623 513.107 175.996C513.454 176.348 513.749 176.737 514.115 177.166Z" fill="#298DFE"/>
<path d="M184.996 146.742C185.306 147.013 185.698 147.324 186.049 147.677C191.686 153.321 197.291 159.006 202.978 164.599C204.073 165.672 203.854 166.228 202.886 167.189C193.62 176.408 184.38 185.653 175.2 194.955C174.065 196.109 173.494 196.002 172.43 194.914C166.973 189.331 161.459 183.794 155.889 178.329C154.677 177.139 154.748 176.459 155.914 175.3C165.129 166.152 174.284 156.937 183.458 147.748C183.87 147.345 184.181 146.773 184.996 146.742Z" fill="#298DFE"/>
<path d="M334.44 126.22C328.075 126.22 321.711 126.149 315.352 126.261C313.423 126.297 312.898 125.674 312.924 123.794C313.015 116.132 313 108.47 312.934 100.814C312.919 99.1844 313.377 98.5868 315.077 98.5919C327.974 98.6481 340.87 98.6532 353.766 98.5919C355.466 98.5817 355.92 99.1589 355.904 100.793C355.833 108.537 355.818 116.285 355.914 124.029C355.94 125.914 355.217 126.276 353.532 126.256C347.168 126.169 340.804 126.22 334.44 126.22Z" fill="#298DFE"/>
<path d="M117.546 311.173C117.546 305.044 117.597 298.914 117.516 292.785C117.496 291.135 117.974 290.584 119.659 290.604C126.869 290.686 134.083 290.681 141.297 290.609C142.921 290.594 143.512 291.028 143.502 292.744C143.441 305.172 143.446 317.599 143.497 330.031C143.502 331.574 143.044 332.105 141.475 332.09C134.18 332.023 126.879 332.008 119.583 332.1C117.786 332.12 117.506 331.369 117.521 329.827C117.587 323.601 117.546 317.384 117.546 311.173Z" fill="#298DFE"/>
<path d="M554.494 316.961C554.494 323.091 554.438 329.215 554.53 335.339C554.555 337.091 554.056 337.694 552.249 337.673C545.126 337.581 537.999 337.587 530.876 337.673C529.109 337.694 528.513 337.137 528.519 335.349C528.575 323.009 528.575 310.673 528.519 298.333C528.513 296.663 529.053 296.131 530.718 296.147C537.927 296.223 545.136 296.223 552.346 296.147C554 296.131 554.545 296.647 554.525 298.323C554.443 304.534 554.494 310.75 554.494 316.961Z" fill="#298DFE"/>
<path d="M337.515 528.711C331.497 528.711 325.479 528.649 319.461 528.746C317.638 528.777 316.931 528.343 316.961 526.356C317.073 519.215 317.058 512.069 316.971 504.929C316.946 503.1 317.587 502.64 319.318 502.651C331.609 502.712 343.899 502.707 356.195 502.651C357.808 502.645 358.419 503.054 358.399 504.781C358.318 512.095 358.323 519.409 358.394 526.719C358.409 528.312 357.859 528.751 356.337 528.736C350.06 528.67 343.787 528.711 337.515 528.711Z" fill="#298DFE"/>
<path d="M473.543 485.268C472.703 485.176 472.377 484.63 471.97 484.221C466.741 478.996 461.548 473.73 456.274 468.55C455.215 467.508 455.321 466.941 456.319 465.951C465.178 457.145 474.001 448.298 482.784 439.415C483.858 438.327 484.51 438.236 485.63 439.385C490.792 444.677 496.021 449.907 501.29 455.086C502.344 456.123 502.253 456.69 501.25 457.686C492.391 466.492 483.588 475.359 474.76 484.201C474.358 484.604 473.894 484.962 473.543 485.268Z" fill="#298DFE"/>
<path d="M183.825 437.816C184.278 438.21 184.675 438.511 185.021 438.858C193.951 447.807 202.866 456.782 211.832 465.7C212.886 466.747 212.789 467.37 211.786 468.361C206.471 473.607 201.191 478.893 195.962 484.221C194.995 485.207 194.445 485.059 193.549 484.16C184.649 475.175 175.719 466.226 166.769 457.287C165.939 456.46 165.511 455.929 166.591 454.871C171.977 449.58 177.282 444.196 182.618 438.853C182.964 438.506 183.366 438.205 183.825 437.816Z" fill="#298DFE"/>
<path d="M495.079 195.124C494.265 195.134 493.939 194.572 493.537 194.163C484.657 185.276 475.799 176.363 466.894 167.501C465.906 166.52 465.759 165.912 466.823 164.86C472.087 159.681 477.311 154.455 482.468 149.174C483.598 148.019 484.265 148.152 485.324 149.23C494.163 158.158 503.042 167.051 511.947 175.913C512.868 176.827 512.965 177.384 511.992 178.344C506.672 183.59 501.418 188.902 496.138 194.184C495.787 194.536 495.39 194.848 495.079 195.124Z" fill="#298DFE"/>
<path d="M202.973 165.867C202.581 166.307 202.255 166.695 201.904 167.052C192.969 176.011 184.013 184.95 175.113 193.95C174.105 194.972 173.566 194.997 172.553 193.955C167.39 188.669 162.171 183.433 156.897 178.264C155.782 177.171 155.746 176.548 156.871 175.429C165.791 166.572 174.66 157.664 183.519 148.746C184.374 147.888 184.945 147.566 185.968 148.613C191.314 154.073 196.741 159.462 202.133 164.882C202.418 165.168 202.662 165.505 202.973 165.867Z" fill="#298DFE"/>
<path d="M334.45 125.26C328.259 125.26 322.063 125.209 315.872 125.29C314.237 125.311 313.631 124.861 313.652 123.155C313.728 115.923 313.723 108.69 313.657 101.457C313.642 99.782 314.227 99.2508 315.877 99.2559C328.259 99.307 340.646 99.307 353.028 99.2559C354.677 99.2508 355.258 99.7922 355.242 101.462C355.176 108.695 355.171 115.928 355.248 123.16C355.268 124.872 354.657 125.316 353.028 125.296C346.837 125.209 340.641 125.26 334.45 125.26Z" fill="#298DFE"/>
<path d="M380.348 454.06C379.976 453.228 379.609 452.395 379.238 451.563C378.107 450.556 377.909 449.233 378.046 447.839C378.545 442.808 380.887 439.054 385.602 436.939C390.072 434.932 394.201 435.785 398.05 438.487C399.414 439.447 400.855 440.504 400.59 442.557C400.962 443.39 401.334 444.223 401.705 445.055C402.54 452.599 399.735 457.59 393.651 459.398C388.682 460.879 384.38 459.153 380.348 454.06Z" fill="#FFA048"/>
<path d="M198.991 361.061C199.994 360.672 200.997 360.289 202 359.901C202.555 358.583 203.757 358.757 204.811 358.747C209.612 358.685 214.372 362.016 216.236 366.684C218.043 371.205 216.943 376.481 213.517 379.873C212.58 380.802 211.552 381.482 210.177 381.456C209.271 381.742 208.364 382.023 207.458 382.309C201.537 383.545 196.252 380.899 193.966 375.562C191.721 370.296 193.569 364.953 198.991 361.061Z" fill="#FFA048"/>
<path d="M401.685 188.019C401.334 188.862 400.982 189.71 400.626 190.553C400.794 191.794 400.071 192.632 399.312 193.454C395.861 197.193 390.668 198.296 385.795 196.33C381.274 194.506 377.985 189.751 378.026 185.026C378.036 183.749 378.153 182.462 379.227 181.532C379.686 180.695 380.144 179.852 380.602 179.019C384.049 173.952 389.242 172.073 394.42 174.024C400.015 176.123 402.627 181.165 401.685 188.019Z" fill="#FFA048"/>
<path d="M465.03 382.494C463.946 382.06 462.862 381.631 461.777 381.197C460.413 381.59 459.491 380.778 458.677 379.925C455.108 376.217 454.14 371.727 455.805 367.002C457.511 362.145 461.248 359.346 466.42 358.769C467.688 358.626 469.17 358.355 470 359.887C471.094 360.306 472.194 360.73 473.289 361.149C477.474 364.004 479.709 367.891 478.833 373.009C478.008 377.841 474.994 380.957 470.295 382.351C468.564 382.872 466.792 382.714 465.03 382.494Z" fill="#FFA048"/>
<path d="M473.304 271.97C472.459 272.42 471.619 272.869 470.773 273.319C470.254 273.962 469.536 274.141 468.762 274.248C463.605 274.974 458.463 272.18 456.274 267.445C454.018 262.577 455.108 256.621 458.88 253.153C459.705 252.392 460.565 251.723 461.787 251.876C462.633 251.519 463.478 251.161 464.318 250.803C471.838 249.843 477.143 253.066 478.721 259.548C479.866 264.268 477.916 268.747 473.304 271.97Z" fill="#FFA048"/>
<path d="M292.788 451.521C292.421 452.379 292.055 453.232 291.688 454.09C285.986 462.819 274.75 460.97 271.089 453.032C269.887 450.427 270.147 447.746 270.366 445.039C270.809 444.196 271.247 443.348 271.69 442.505C271.359 441.361 271.98 440.554 272.657 439.783C275.885 436.115 281.256 434.874 285.859 436.718C290.823 438.705 294.249 443.557 294.117 448.4C294.086 449.62 293.867 450.749 292.788 451.521Z" fill="#FFA048"/>
<path d="M271.425 190.518C271.069 189.69 270.717 188.863 270.361 188.04C269.531 182.749 270.753 178.223 275.432 175.169C280.991 171.542 287.137 173.1 291.734 179.173C292.085 180.057 292.431 180.935 292.783 181.819C294.122 182.943 294.183 184.495 294.005 186.018C293.384 191.371 290.263 194.9 285.385 196.632C280.691 198.302 276.399 197.056 272.789 193.603C271.939 192.785 271.114 191.886 271.425 190.518Z" fill="#FFA048"/>
<path d="M207.723 250.803C208.578 251.156 209.429 251.513 210.284 251.866C211.323 251.58 212.081 252.152 212.819 252.734C216.755 255.824 218.155 262.081 215.996 266.872C213.644 272.098 208.385 275.122 203.278 274.212C202.591 274.09 201.965 273.875 201.517 273.303C200.682 272.951 199.847 272.603 199.012 272.251C191.482 267.118 191.864 259.073 195.983 254.471C199.139 250.941 203.115 249.797 207.723 250.803Z" fill="#FFA048"/>
</g>
<defs>
<filter id="filter0_f_4654_34613" x="0" y="-13" width="653" height="653" filterUnits="userSpaceOnUse" color-interpolation-filters="sRGB">
<feFlood flood-opacity="0" result="BackgroundImageFix"/>
<feBlend mode="normal" in="SourceGraphic" in2="BackgroundImageFix" result="shape"/>
<feGaussianBlur stdDeviation="50" result="effect1_foregroundBlur_4654_34613"/>
</filter>
<clipPath id="clip0_4654_34613">
<rect width="446" height="438" fill="white" transform="translate(113 95)"/>
</clipPath>
</defs>
</svg>
