<svg width="665" height="665" viewBox="0 0 665 665" fill="none" xmlns="http://www.w3.org/2000/svg">
<g opacity="0.2" filter="url(#filter0_f_4654_34518)">
<circle cx="332.5" cy="332.5" r="232.5" fill="#298DFE"/>
</g>
<g clip-path="url(#clip0_4654_34518)">
<path d="M171.671 354.766C161.427 362.815 150.092 366.149 137.186 362.681C130.318 362.296 125.317 358.233 120.374 354.121C113.569 348.465 109.062 341.078 105.13 333.346C103.936 330.997 102.899 328.469 102.342 325.825C101.507 322.585 100.344 319.444 99.5633 316.182C98.2166 310.571 97.238 304.915 96.3896 299.206C95.0518 290.212 95.6444 281.209 95.6579 272.216C95.6624 266.444 96.2998 260.671 97.1662 254.926C98.3603 246.993 100.003 239.167 101.934 231.395C102.76 228.075 104.075 224.889 105.305 221.708C106.93 217.511 108.411 213.246 110.593 209.26C112.299 206.145 114.054 203.071 115.989 200.109C118.054 196.941 120.101 193.755 122.776 191.008C125.676 188.024 128.652 185.142 131.934 182.574C137.5 178.22 143.843 175.62 150.792 174.479C154.976 173.79 159.083 174.694 163.186 175.352C164.497 175.562 165.79 175.902 167.087 176.189C176.407 179.07 183.32 185.164 189.138 192.677C190.682 194.673 192.23 196.695 193.236 199.044C193.546 201.009 194.978 202.44 195.732 204.194C195.997 204.803 196.36 205.376 196.491 206.038C196.679 207 196.935 208.025 195.781 208.57C194.722 209.072 193.918 208.575 193.281 207.716C193.151 207.537 193.043 207.336 192.886 207.313C193.797 208.387 193.55 209.555 192.904 210.669C192.307 211.703 191.436 211.264 190.538 211.049C188.608 210.593 186.561 210.553 185.331 208.553C184.94 207.917 183.935 208.168 183.239 207.904C181.735 207.488 180.752 206.284 179.518 205.461C169.502 198.807 158.41 199.219 148.893 206.611C141.783 212.132 136.656 219.188 132.791 227.234C126.767 239.771 123.836 253.101 122.659 266.855C121.73 277.724 121.824 288.57 123.948 299.336C125.443 306.911 127.763 314.191 131.409 321.028C131.898 321.945 132.472 322.831 132.643 323.887C132.571 325.561 133.105 326.787 134.273 328.2C136.01 330.308 138.829 331.606 139.462 334.608C139.57 335.122 140.104 335.48 140.602 335.619C143.83 336.505 146.519 338.604 149.755 339.548C151.452 340.04 152.772 341.539 154.743 341.812C156.444 342.045 158.105 342.465 159.842 342.268C160.964 342.143 162.176 342.349 162.437 343.508C162.85 345.351 163.546 347.172 163.546 348.792C163.994 347.579 164.924 346.197 165.431 344.604C165.687 343.79 166.369 343.186 167.316 343.333C168.272 343.485 168.587 344.277 168.712 345.136C168.843 346.036 168.618 346.913 168.519 347.799C168.241 350.291 168.69 350.662 171.029 349.92C171.671 349.714 172.295 349.468 172.95 349.302C173.798 349.087 174.629 349.047 175.069 349.987C175.446 350.792 175.02 351.396 174.458 351.964C173.525 352.9 172.155 353.401 171.671 354.766Z" fill="#FFA048"/>
<path d="M394.852 444.28C393.761 444.352 393.092 443.663 392.374 442.987C380.325 431.595 368.281 420.199 356.197 408.843C347.798 400.95 339.341 393.124 330.915 385.262C330.717 385.078 330.591 384.814 330.416 384.568C331.188 384.076 331.777 384.855 332.432 384.653C333.473 384.304 334.47 384.497 335.493 384.814C354.944 390.882 374.342 397.106 393.757 403.276C402.506 406.059 411.273 408.798 420.035 411.541C420.96 411.831 421.894 412.104 422.778 412.507C423.878 413.21 425.211 413.187 426.387 413.648C431.756 415.46 437.211 417 442.602 418.745C443.45 419.018 444.348 419.165 445.093 419.707C445.475 420.038 445.704 420.436 445.627 420.959C443.374 423.165 440.326 423.944 437.583 425.215C424.367 431.349 411.188 437.564 397.972 443.699C397.007 444.146 396.06 444.992 394.852 444.28Z" fill="#FEFEFE"/>
<path d="M505.498 236.956C501.983 237.39 499.123 236.563 496.223 235.793C493.081 234.956 489.948 234.871 486.778 236.043C484.718 236.809 483.111 238.057 481.742 239.636C476.202 246.008 469.491 245.069 463.049 240.88C458.067 237.645 452.72 236.545 447.091 238.482C444.061 239.525 441.067 239.695 438.09 239.167C434.14 238.464 430.239 237.457 426.675 235.408C423.321 233.48 421.046 229.336 421.782 225.922C422.581 222.231 426.41 219.233 430.508 219.17C432.443 219.143 434.378 219.018 436.299 219.537C438.921 220.249 439.792 218.405 440.6 216.459C442.045 212.991 444.532 211.393 447.701 212.083C449.053 212.378 450.287 213.188 451.593 213.72C454.022 214.709 455.144 214.235 455.629 211.675C456.029 209.541 456.702 207.505 457.353 205.46C458.291 202.498 461.272 199.536 464.782 199.867C467.238 200.1 468.724 201.487 469.868 203.389C470.672 204.722 471.291 206.163 471.978 207.563C473.482 210.619 474.869 210.959 477.944 209.613C480.983 208.279 484.004 206.74 487.551 207.053C490.266 207.29 492.129 208.44 493.27 210.959C494.45 213.573 494.787 216.4 495.662 219.085C496.731 222.352 498.369 223.34 501.727 222.607C503.401 222.24 505.044 221.734 506.696 221.278C511.078 220.074 515.212 222.428 516.411 226.813C516.568 227.385 516.684 227.971 516.864 228.54C518.063 232.343 517.061 234.16 512.743 236.084C511.675 236.562 510.454 236.804 509.277 236.925C507.881 237.068 506.449 236.956 505.498 236.956Z" fill="#FEFEFE"/>
<path d="M282.734 206.968C279.865 207.322 277.527 206.646 275.161 206.02C272.593 205.34 270.034 205.268 267.449 206.226C265.765 206.848 264.455 207.868 263.332 209.161C258.807 214.365 253.326 213.595 248.07 210.177C244.002 207.532 239.635 206.637 235.038 208.217C232.56 209.067 230.118 209.21 227.685 208.776C224.457 208.203 221.275 207.38 218.361 205.707C215.623 204.132 213.764 200.749 214.366 197.957C215.017 194.941 218.146 192.493 221.494 192.444C223.075 192.422 224.655 192.319 226.226 192.744C228.367 193.326 229.076 191.818 229.741 190.229C230.921 187.397 232.95 186.095 235.541 186.654C236.645 186.896 237.651 187.558 238.719 187.992C240.699 188.802 241.619 188.413 242.014 186.323C242.342 184.583 242.889 182.918 243.419 181.249C244.187 178.828 246.62 176.412 249.488 176.681C251.495 176.869 252.707 178.005 253.64 179.558C254.296 180.645 254.803 181.826 255.364 182.967C256.59 185.464 257.725 185.741 260.239 184.641C262.722 183.553 265.186 182.296 268.086 182.551C270.304 182.744 271.826 183.683 272.755 185.741C273.72 187.876 273.994 190.185 274.707 192.377C275.578 195.044 276.921 195.854 279.659 195.254C281.028 194.954 282.366 194.538 283.717 194.167C287.295 193.183 290.67 195.107 291.649 198.686C291.775 199.156 291.874 199.635 292.022 200.096C293 203.205 292.183 204.682 288.655 206.257C287.78 206.646 286.783 206.848 285.827 206.942C284.678 207.058 283.51 206.968 282.734 206.968Z" fill="#FEFEFE"/>
<path d="M315.953 369.84C313.084 370.193 310.745 369.517 308.38 368.891C305.812 368.211 303.253 368.139 300.668 369.097C298.984 369.719 297.673 370.739 296.551 372.032C292.026 377.236 286.545 376.466 281.288 373.048C277.221 370.403 272.853 369.508 268.257 371.088C265.779 371.938 263.337 372.081 260.904 371.647C257.676 371.075 254.493 370.251 251.58 368.578C248.842 367.003 246.983 363.62 247.585 360.828C248.236 357.812 251.364 355.365 254.713 355.315C256.293 355.293 257.874 355.19 259.445 355.615C261.586 356.197 262.295 354.689 262.96 353.1C264.14 350.268 266.169 348.966 268.759 349.525C269.864 349.767 270.869 350.429 271.938 350.863C273.917 351.673 274.838 351.284 275.233 349.194C275.56 347.454 276.108 345.789 276.638 344.12C277.405 341.699 279.838 339.283 282.707 339.552C284.714 339.74 285.926 340.876 286.859 342.429C287.515 343.516 288.022 344.697 288.583 345.838C289.809 348.335 290.944 348.613 293.458 347.512C295.941 346.425 298.405 345.167 301.305 345.422C303.523 345.615 305.044 346.554 305.974 348.613C306.939 350.747 307.213 353.056 307.926 355.248C308.797 357.915 310.139 358.725 312.878 358.125C314.247 357.826 315.585 357.409 316.936 357.038C320.514 356.054 323.889 357.978 324.868 361.557C324.994 362.027 325.092 362.506 325.241 362.967C326.219 366.077 325.402 367.553 321.874 369.128C320.998 369.517 320.002 369.719 319.046 369.813C317.896 369.929 316.729 369.84 315.953 369.84Z" fill="#FEFEFE"/>
<path d="M102.971 326.105C104.973 331.694 107.612 337.01 110.831 341.963C115.203 348.688 120.72 354.375 127.674 358.595C130.668 360.411 133.819 361.776 137.186 362.68C121.842 363.803 110.889 356.371 102.27 344.661C93.5974 332.88 89.1039 319.358 86.4464 305.169C83.2636 288.171 83.34 271.118 85.7506 254.021C87.9277 238.567 92.1025 223.72 99.092 209.742C105.475 196.976 113.569 185.517 126.008 177.848C135.197 172.187 145.028 170.174 155.56 173.861C155.371 174.237 155.039 174.389 154.648 174.389C147.179 174.434 140.589 177.32 134.376 181.034C131.593 182.694 128.984 184.806 126.78 187.24C125.133 189.061 123.342 190.739 121.694 192.564C118.377 196.242 116.119 200.565 113.457 204.663C109.538 210.708 107.082 217.366 104.631 224.029C102.634 229.456 101.139 235.059 99.9628 240.728C98.7598 246.522 97.7138 252.352 96.9642 258.223C95.5726 269.092 95.604 280 95.9766 290.932C96.3312 301.227 98.2974 311.223 101.184 321.072C101.691 322.781 102.288 324.459 102.971 326.105Z" fill="#626E78"/>
<path d="M520.868 419.219C521.878 421.622 521.456 424.212 521.667 426.687C522.251 433.488 522.35 440.329 522.713 447.148C523.283 457.749 523.799 468.349 524.585 478.931C524.81 481.978 524.827 485.012 524.962 488.05C525.056 489.079 525.815 490.471 524.477 490.945C523.202 491.397 522.632 490.01 522.053 489.066C515.145 477.763 508.384 466.371 501.543 455.028C498.163 449.422 495.002 443.685 491.591 438.097C490.944 437.041 490.518 435.779 489.31 435.143C485.162 434.011 481.082 432.682 477.01 431.318C476.234 431.058 475.471 430.758 475.067 429.953C474.097 427.237 474.429 424.351 473.962 421.568C473.388 418.109 472.782 414.664 471.143 411.505C470.865 410.972 470.721 410.386 470.932 409.778C471.291 409.352 471.776 409.254 472.297 409.276C474.353 409.934 476.463 410.337 478.617 410.516C480.727 411.277 482.999 411.169 485.144 411.755C487.964 413.183 491.079 413.259 494.114 413.711C502.212 414.583 510.085 416.7 518.121 417.921C519.153 418.082 520.24 418.194 520.868 419.219Z" fill="#8BB1D2"/>
<path d="M475.551 429.888C480.211 431.7 484.978 433.159 489.809 434.443C490.769 435.96 489.387 436.568 488.592 437.248C484.915 440.385 481.212 443.495 477.522 446.613C473.433 450.068 469.509 453.714 465.343 457.075C464.67 457.621 464.082 458.399 463.027 458.158C458.875 461.755 454.718 465.348 450.574 468.954C445.753 473.147 440.909 477.313 436.147 481.568C435.015 482.579 434.508 482.629 433.332 481.461C428.681 476.865 423.842 472.458 419.066 467.988C418.056 467.039 416.835 466.279 416.345 464.883C416.305 463.921 417.005 463.424 417.647 462.923C432.82 451.057 448.101 439.324 463.229 427.4C463.521 427.167 463.839 426.97 464.172 426.791C464.589 426.603 465.016 426.438 465.478 426.389C469.015 427.029 472.499 427.843 475.551 429.888Z" fill="#FEFEFE"/>
<path d="M475.551 429.887C472.113 428.862 468.67 427.833 465.231 426.809C464.082 426.213 463.952 425.032 463.651 423.985C462.183 418.911 461.079 413.743 459.732 408.633C459.62 408.199 459.539 407.761 459.279 407.385C456.872 401.156 454.664 394.856 452.482 388.547C451.095 384.69 449.977 380.726 447.944 377.115C448.025 375.025 446.938 373.258 446.346 371.356C445.663 369.159 444.86 366.998 444.177 364.797C443.235 361.749 443.998 360.917 447.095 361.472C449.237 361.857 451.387 361.875 453.51 361.302C456.576 360.855 459.584 361.866 462.825 361.579C461.644 359.557 460.28 357.637 458.726 355.982C455.144 352.165 454.875 347.458 454.57 342.702C454.52 341.963 454.507 341.216 454.579 340.473C454.511 338.393 455.678 337.261 457.487 336.491C461.658 334.719 465.675 332.674 469.303 329.905C470.712 328.831 471.287 329.081 471.552 330.634C470.519 333.838 469.509 337.05 468.436 340.236C468.104 341.225 468.504 341.945 468.984 342.719C473.67 350.317 478.321 357.937 483.035 365.521C483.905 366.922 484.09 367.674 482.119 368.184C479.309 368.904 476.525 369.804 473.846 370.904C471.96 371.678 470.784 371.383 469.891 369.584C469.639 369.074 469.177 368.667 469.083 368.551C467.592 376.041 467.848 383.786 469.213 391.514C470.631 392.668 470.241 394.4 470.42 395.854C470.892 399.662 471.188 403.492 471.552 407.313C471.637 408.204 471.745 409.094 471.044 409.823C473.935 413.837 474.402 418.584 475.053 423.256C475.354 425.444 475.394 427.672 475.551 429.887Z" fill="#1E344E"/>
<path d="M171.671 354.764C171.226 354.062 171.379 353.565 172.093 353.109C172.842 352.63 173.529 352.053 174.211 351.475C174.624 351.122 174.898 350.652 174.615 350.093C174.274 349.413 173.763 349.73 173.273 349.909C172.223 350.294 171.132 350.589 170.126 351.064C168.398 351.887 167.68 351.082 167.653 349.511C167.631 348.115 167.945 346.719 168.039 345.319C168.084 344.665 168.066 343.851 167.146 343.793C166.468 343.748 165.929 344.357 165.947 344.911C166.01 347.162 164.008 348.33 163.303 350.209C163.33 348.061 161.62 346.357 162.037 344.075C162.208 343.157 161.198 342.719 160.08 342.974C157.122 343.654 153.84 343.086 151.69 341.694C149.405 340.213 146.936 339.475 144.62 338.276C143.21 337.546 142.039 336.361 140.185 336.392C139.632 336.401 138.308 335.546 138.465 334.016C138.506 333.613 138.205 331.586 136.373 331.797C136.028 331.837 135.489 330.87 135.17 330.298C134.726 329.506 134.331 328.53 133.5 328.266C131.022 327.479 131.871 325.837 132.279 324.262C133.554 324.253 134.008 325.313 134.627 326.11C137.621 329.958 140.889 333.524 145.109 336.083C155.479 342.379 167.438 340.227 176.474 332.025C184.927 324.351 190.296 314.744 194.336 304.256C200.288 288.824 202.331 272.774 201.249 256.397C200.356 242.844 197.469 229.693 190.462 217.764C188.868 215.053 186.906 212.614 184.94 210.171C184.348 209.433 183.535 208.779 183.701 207.656C184.895 207.07 185.784 207.741 186.314 208.596C187.05 209.782 187.975 210.135 189.254 209.929C189.474 209.894 189.708 209.912 189.914 209.84C190.834 209.509 191.584 212.037 192.549 210.023C193.007 209.066 192.648 207.983 192.661 206.887C192.904 206.94 193.124 206.94 193.29 207.03C194.053 207.446 194.56 208.941 195.642 207.987C196.477 207.249 195.992 205.987 195.647 205.092C195.202 203.938 194.551 202.779 193.721 201.871C192.863 200.94 192.841 200.081 193.218 199.043C197.563 205.468 200.27 212.641 202.492 219.975C208.629 240.222 209.949 260.871 207.273 281.812C207.219 282.251 207.26 282.698 207.26 283.141C205.837 289.812 204.418 296.484 202.995 303.155C200.665 309.737 198.591 316.409 195.606 322.754C190.399 333.828 183.984 344.034 174.822 352.33C173.843 353.225 172.955 354.254 171.671 354.764Z" fill="#FFA048"/>
<path d="M463.027 458.157C471.466 450.944 479.91 443.74 488.327 436.5C488.956 435.959 489.934 435.561 489.813 434.438C491.308 435.234 491.743 436.849 492.52 438.138C497.027 445.628 501.377 453.217 505.848 460.73C511.612 470.417 517.443 480.064 523.229 489.738C523.526 490.23 523.88 490.61 524.446 490.498C525.02 490.382 524.899 489.814 524.931 489.393C524.962 488.95 524.958 488.503 524.971 488.055C525.079 488.248 525.267 488.44 525.276 488.637C525.344 490.096 526.017 491.979 525.02 492.865C524.379 493.438 522.74 491.993 521.6 491.349C511.616 485.72 501.642 480.073 491.645 474.466C482.442 469.303 473.213 464.188 464.001 459.038C463.619 458.832 463.346 458.457 463.027 458.157Z" fill="#298DFE"/>
<path d="M453.569 361.972C451.225 362.662 448.873 362.465 446.516 362.031C444.379 361.641 444.088 361.964 444.77 364.022C446.085 367.977 447.365 371.942 448.788 375.857C449.151 376.855 449.093 377.195 448.034 377.195C446.943 378.116 445.744 377.606 444.617 377.374C440.968 376.622 437.345 375.754 433.732 374.837C432.955 374.64 432.192 374.246 431.334 374.474C431.074 375.123 431.5 375.629 431.671 376.17C432.959 380.251 433.538 384.399 433.166 388.694C433.009 390.529 432.977 392.408 433.31 394.251C433.453 396.583 432.897 398.847 432.704 401.147C432.021 403.294 432.51 405.563 432.003 407.742C431.716 408.968 431.563 410.225 431.231 411.447C430.553 413.971 429.862 414.431 427.263 414.123C426.886 414.078 426.522 414.1 426.159 414.199C424.875 414.315 423.838 413.487 422.639 413.29C422.68 411.805 424.04 411.715 424.946 411.268C426.603 410.445 427.218 409.424 426.558 407.563C425.669 405.066 425.341 402.408 424.592 399.862C423.64 396.524 422.868 393.142 422.002 389.781C421.759 388.846 421.548 387.902 422.073 386.985C420.978 382.354 419.878 377.723 418.796 373.087C417.499 367.512 420.48 363.292 426.159 362.684C430.024 362.268 433.884 361.838 437.758 361.525C438.907 361.431 439.289 361.069 439.284 359.923C439.244 353.068 439.231 346.209 439.289 339.354C439.298 338.016 438.728 337.757 437.561 337.721C434.571 337.636 431.59 337.358 428.601 337.327C427.106 337.314 426.347 336.754 425.754 335.403C422.626 328.239 419.407 321.111 416.22 313.97C415.982 312.525 416.794 312.015 418.065 311.898C419.286 312.145 419.874 313.147 420.516 314.033C423.479 318.122 426.423 322.221 429.337 326.347C430.481 327.966 431.667 328.436 433.66 327.989C437.202 327.197 440.667 325.957 444.366 325.944C445.475 326.136 445.892 326.749 445.538 327.837C442.095 332.392 442.539 337.528 443.019 342.795C443.464 347.681 443.922 352.576 444.128 357.485C444.231 359.923 444.505 360.241 446.947 360.617C448.352 360.831 449.753 361.033 451.176 361.069C452.047 361.087 452.994 361.087 453.569 361.972Z" fill="#1E344E"/>
<path d="M520.868 419.219C511.895 417.573 502.921 415.922 493.943 414.275C493.692 413.586 494.226 413.259 494.598 412.857C505.879 406.185 517.138 399.473 528.468 392.882C529.254 392.426 530.062 391.661 531.13 392.278C532.311 391.469 533.568 391.272 534.955 391.683C535.516 391.849 536.135 391.844 536.728 391.858C543.444 392.032 550.168 392.082 556.875 392.417C559.38 392.542 561.898 392.753 565 392.82C562.737 394.878 560.439 395.876 558.343 397.156C551.479 401.339 544.656 405.594 537.693 409.613C532.104 412.839 526.794 416.57 520.868 419.219Z" fill="#FDFEFD"/>
<path d="M464.459 427.318C451.001 437.816 437.538 448.317 424.08 458.819C421.494 460.837 418.918 462.868 416.341 464.891C413.145 462.989 410.851 460.054 408.09 457.66C406.91 456.635 405.41 455.772 405.002 454.045C405.213 452.939 406.155 452.55 406.986 452.08C421.499 443.834 435.936 435.462 450.467 427.251C452.72 425.981 454.722 424.186 457.447 423.873C459.454 424.021 461.357 424.54 463.166 425.399C463.961 425.766 464.863 426.124 464.459 427.318Z" fill="#298DFE"/>
<path d="M422.073 386.985C423.164 391.294 424.26 395.603 425.35 399.912C425.871 401.961 424.466 402.037 423.151 401.854C420.861 401.532 418.594 401.075 416.319 400.659C392.994 396.386 369.709 391.876 346.361 387.706C342.33 386.985 338.411 385.782 334.421 384.896C333.976 384.797 333.608 384.533 333.258 384.251C335.933 383.258 338.685 384.117 341.392 384.028C342.528 383.992 343.749 384.238 344.938 384.274C355.232 384.582 365.534 384.757 375.818 385.254C383.046 385.603 390.278 385.826 397.505 386.166C405.693 386.547 413.877 386.99 422.073 386.985Z" fill="#FDFDFD"/>
<path d="M333.258 384.252C342.052 385.903 350.842 387.563 359.636 389.21C372.317 391.581 384.999 393.944 397.676 396.315C406.25 397.922 414.824 399.537 423.398 401.148C424.435 401.34 425.4 401.416 425.35 399.908C426.159 403.027 426.949 406.15 427.779 409.26C428.017 410.155 427.626 410.634 426.89 411.018C425.467 411.757 424.058 412.531 422.644 413.287C407.578 408.495 392.509 403.712 377.444 398.915C362.8 394.248 348.162 389.568 333.523 384.901C333.168 384.789 332.8 384.731 332.436 384.65C332.71 384.516 332.984 384.382 333.258 384.252Z" fill="#8CB1D1"/>
<path d="M394.852 444.282C410.851 436.823 426.85 429.364 442.853 421.914C443.661 421.538 444.496 421.225 445.322 420.88C447.562 420.07 449.825 421.099 450.705 423.332C450.565 424.607 449.596 425.22 448.626 425.78C434.041 434.245 419.492 442.783 404.903 451.249C404.144 451.687 403.404 452.296 402.416 451.92C399.498 449.759 396.589 447.593 394.852 444.282Z" fill="#298DFE"/>
<path d="M445.035 327.466C445.425 326.365 444.532 326.602 443.993 326.468C441.094 322.817 438.934 318.696 436.492 314.754C436.138 314.181 435.976 313.514 436.515 312.906C437.121 312.458 437.799 312.445 438.503 312.584C440.173 313.071 441.147 314.445 442.341 315.559C444.469 317.546 446.503 319.622 448.572 321.658C449.968 323.049 451.329 324.481 453.007 326.011C452.94 323.134 454.399 321.094 455.252 318.848C455.548 318.172 455.835 317.488 456.585 317.17C458.035 316.87 459.373 317.492 460.751 317.729C462.722 318.069 464.656 318.535 466.685 318.588C468.571 318.638 470.375 319.242 471.722 320.642C473.383 322.365 474.133 324.334 473.064 326.714C472.49 327.989 472.05 329.327 471.547 330.634C471.273 329.519 470.622 329.551 469.94 330.2C466.537 333.439 462.282 335.198 458.089 337.072C456.599 337.739 454.902 338.263 455.328 340.482C450.309 338.106 448.002 333.403 445.381 328.969C445.098 328.495 445.223 327.949 445.035 327.466Z" fill="#1E344E"/>
<path d="M471.04 409.822C470.429 403.719 469.819 397.616 469.208 391.513C469.128 389.799 469.76 389.11 471.664 389.146C480.795 389.32 489.903 390.068 499.038 390.224C501.359 390.264 503.783 390.224 506.108 390.766C506.135 391.813 505.26 392.095 504.573 392.479C494.679 398.032 484.745 403.509 474.887 409.12C474.088 409.572 473.244 409.831 472.315 409.72C471.893 409.755 471.466 409.787 471.04 409.822Z" fill="#FEFEFE"/>
<path d="M531.13 392.275C524.967 395.854 518.79 399.416 512.64 403.014C506.737 406.463 500.861 409.953 494.971 413.421C492.426 414.352 490.006 413.412 487.569 412.889C486.119 412.576 486.769 411.618 487.034 410.808C487.384 409.801 488.287 409.385 489.113 408.893C498.836 403.116 508.811 397.774 518.583 392.078C519.396 391.604 520.258 391.102 521.295 391.362C524.271 391.411 527.247 391.456 530.223 391.51C530.726 391.519 531.081 391.72 531.13 392.275Z" fill="#298DFE"/>
<path d="M402.412 451.915C417.733 442.948 433.054 433.981 448.37 425.01C449.075 424.598 449.739 424.124 450.422 423.676C450.893 422.75 451.634 422.235 452.684 422.182C454.228 422.71 456.262 422.316 456.989 424.41C441.085 433.489 425.18 442.563 409.275 451.637C407.857 452.447 406.425 453.244 404.997 454.045C403.484 454.125 403.013 452.939 402.412 451.915Z" fill="#F8F5F4"/>
<path d="M400.674 301.42C405.94 302.57 411.192 303.814 416.48 304.843C423.119 306.136 429.691 307.792 436.416 308.656C437.902 310.168 437.772 310.687 435.675 311.627C431.456 312.168 427.294 311.099 423.093 311.202C421.297 310.334 419.102 311.134 417.356 309.761C416.723 309.264 415.802 311.081 414.824 309.971C413.037 310.249 411.304 309.694 409.589 309.439C405.774 308.866 401.967 309.904 398.192 309.224C397.545 309.108 396.58 309.38 396.553 308.217C397.518 306.673 397.222 304.821 397.797 303.161C398.313 301.644 399.04 300.897 400.674 301.42Z" fill="#032A67"/>
<path d="M472.315 409.72C481.63 404.503 490.944 399.285 500.255 394.068C502.207 392.972 504.155 391.867 506.104 390.766C508.505 390.627 510.947 390.023 513.201 391.442C512.994 392.56 512.011 392.927 511.194 393.392C501.547 398.918 491.869 404.391 482.236 409.939C481.131 410.575 479.991 411.129 478.671 411.156C476.449 411.152 474.227 411.12 472.315 409.72Z" fill="#298DFE"/>
<path d="M478.676 411.158C490.186 404.585 501.695 398.016 513.205 391.443C515.894 390.566 518.592 390.861 521.295 391.362C510.059 397.743 498.827 404.128 487.591 410.513C486.953 411.426 486.334 412.379 484.965 412.039C482.761 412.504 480.696 411.999 478.676 411.158Z" fill="#F9F7F6"/>
<path d="M102.971 326.106C101.081 323.86 100.802 320.969 99.918 318.338C98.5084 314.123 97.9652 309.684 96.852 305.38C96.0978 302.467 96.0619 299.353 95.824 296.324C95.1416 287.706 95.0114 279.048 95.4559 270.434C95.7476 264.77 96.5198 259.1 97.3457 253.449C98.6655 244.446 100.677 235.658 103.24 226.956C105.018 220.933 107.433 215.188 110.113 209.519C112.088 205.353 114.772 201.617 117.026 197.621C118.925 194.256 122.031 191.746 124.594 188.846C129.761 182.994 136.1 178.77 143.39 176.161C147.25 174.779 151.286 173.463 155.56 173.861C158.881 174.671 162.383 174.452 165.637 175.633C166.118 175.808 166.594 175.996 167.074 176.179C163.061 175.964 159.214 174.564 155.111 174.81C147.111 175.284 139.983 177.709 133.447 182.479C127.912 186.524 123.059 191.115 119.104 196.632C115.665 201.429 112.42 206.413 110.009 211.787C108.084 216.074 106.602 220.602 104.937 225.009C103.06 229.98 101.678 235.037 100.582 240.169C98.6655 249.154 97.1213 258.188 96.5781 267.409C96.0843 275.83 95.999 284.247 96.4165 292.628C96.7218 298.717 97.7453 304.794 99.074 310.834C100.205 315.985 102.046 320.929 102.971 326.106Z" fill="#9B505A"/>
<path d="M447.194 308.271C445.524 307.108 446.224 306.15 447.598 305.582C449.771 304.687 452.163 304.477 454.413 304.843C456.15 305.125 456.428 307.072 456.711 308.571C457.205 311.184 455.979 313.336 454.534 315.376C453.631 314.665 453.631 314.665 454.175 313.144C453.079 315.206 452.716 317.896 450.094 319.059C446.902 319.305 445.574 317.828 446.301 314.862C446.893 314.226 447.746 314.173 448.505 313.9C449.596 313.511 450.444 312.83 451.028 311.842C452.033 310.132 451.306 308.772 449.317 308.615C448.599 308.553 447.827 308.844 447.194 308.271Z" fill="#133872"/>
<path d="M447.194 308.27C450.301 307.389 451.697 307.738 452.28 309.545C452.846 311.299 451.427 313.555 449.138 314.548C448.384 314.875 447.607 315.089 446.768 315C445.506 314.253 445.322 313.13 445.645 311.827C445.843 311.179 445.937 310.49 446.355 309.921C446.952 309.532 446.902 308.816 447.194 308.27Z" fill="#E9B59C"/>
<path d="M450.26 318.413C451.984 316.632 453.358 314.673 453.533 312.091C453.569 311.594 453.578 310.963 454.332 311.017C455.14 311.071 455.283 311.76 455.149 312.314C454.978 313.008 454.556 313.639 454.237 314.301C454.022 314.744 453.56 315.259 454.534 315.375C455.216 315.975 455.903 316.57 456.585 317.169C456.329 317.764 456.073 318.36 455.818 318.959C454.184 320.749 452.235 321.008 450.054 320.118C449.425 319.469 449.816 318.937 450.26 318.413Z" fill="#D2A99E"/>
<path d="M435.837 311.112C437.996 310.754 436.856 309.627 436.416 308.66C437.211 307.179 438.149 306.611 439.275 308.329C439.693 308.964 440.371 309.027 440.923 309.367C441.044 310.195 440.344 310.75 440.218 311.492C440.007 312.262 439.819 313.054 438.858 313.242C438.081 313.251 437.305 313.26 436.524 313.269C435.886 312.678 435.599 311.976 435.837 311.112Z" fill="#D9B9AD"/>
<path d="M414.819 309.976C415.748 309.873 416.503 309.716 416.44 308.432C416.39 307.461 417.387 307.515 417.544 308.088C418.28 310.728 420.453 309.895 422.168 310.195C422.311 310.222 422.442 310.298 422.581 310.356C421.463 311.801 419.34 310.862 418.173 312.195C417.369 312.62 416.233 312.683 416.22 313.972C415.654 312.674 413.773 311.833 414.819 309.976Z" fill="#CBB3B1"/>
<path d="M439.819 311.331C439.783 310.45 439.76 309.577 440.923 309.367C442.678 310.11 444.577 309.443 446.359 309.926C446.759 310.566 446.337 311.153 446.247 311.766C444.016 312.907 441.888 312.526 439.819 311.331Z" fill="#14305B"/>
<path d="M400.674 301.42C399.534 301.447 399.022 301.827 398.609 303.111C398.057 304.829 398.56 307.071 396.549 308.217C396.526 307.765 396.508 307.317 396.486 306.865C396.863 305.143 396.383 303.326 397.074 301.639C398.219 300.682 399.444 300.977 400.674 301.42Z" fill="#49678F"/>
<path d="M183.71 207.653C195.409 219.963 199.759 235.314 201.608 251.552C203.704 269.925 201.536 287.867 194.843 305.17C190.933 315.274 185.726 324.594 177.655 332.08C164.367 344.403 147.565 343.262 136.064 329.225C134.748 327.619 133.541 325.918 132.279 324.263C121.411 305.457 119.944 285.044 122.067 264.072C123.373 251.172 126.3 238.657 132.019 226.92C136.423 217.886 142.025 209.77 150.779 204.364C161.772 197.577 172.699 198.521 182.615 206.893C182.956 207.179 183.347 207.403 183.71 207.653Z" fill="#F8FAF9"/>
<path d="M188.868 206.458C188.756 205.908 188.841 205.366 189.398 205.433C190.439 205.559 191.14 206.279 191.288 207.286C191.391 207.993 190.816 208.686 190.134 208.642C188.76 208.548 189.38 207.102 188.868 206.458Z" fill="#FFA048"/>
<path d="M456.994 424.406C455.692 423.44 454.026 423.39 452.626 422.674C449.834 422.509 447.643 420.522 444.918 420.151C438.589 418.415 432.304 416.531 426.163 414.195C426.513 413.502 426.908 413.448 427.739 413.614C429.076 413.882 430.064 413.564 430.441 411.694C431.146 408.231 431.307 404.705 431.954 401.246C433.61 402.128 435.388 402.571 437.242 402.879C444.806 404.137 452.321 405.671 459.858 407.076C461.599 410.889 462.008 415.077 463.198 419.046C463.965 421.605 464.558 424.214 465.227 426.8C464.971 426.97 464.71 427.14 464.454 427.31C463.31 425.739 461.496 425.552 459.813 425.095C458.884 424.849 457.936 424.639 456.994 424.406Z" fill="#8BB1D2"/>
<path d="M444.918 420.155C447.823 419.98 450.094 421.73 452.626 422.678C451.894 423.009 451.158 423.341 450.426 423.676C449.475 421.381 447.27 421.358 445.322 420.88C445.188 420.633 445.053 420.392 444.918 420.155Z" fill="#298DFE"/>
<path d="M484.96 412.038C485.836 411.527 486.711 411.022 487.586 410.512C486.796 412.221 487.627 412.633 489.216 412.955C491.137 413.344 493.05 413.29 494.966 413.425C494.625 413.707 494.28 413.993 493.938 414.275C491.33 414.548 488.929 413.304 486.361 413.223C485.71 413.201 485.108 412.807 484.96 412.038Z" fill="#298DFE"/>
<path d="M445.035 327.465C446.866 330.244 448.68 333.036 450.529 335.801C451.364 337.045 452.276 338.266 453.982 338.315C455.58 338.365 454.709 339.868 455.319 340.486C455.593 343.752 455.885 347.014 456.132 350.28C456.199 351.166 456.679 351.797 457.169 352.455C459.647 355.788 462.116 359.131 464.715 362.643C460.818 362.411 457.191 362.196 453.564 361.977C450.776 361.735 447.989 361.417 445.192 361.279C443.836 361.211 443.437 360.648 443.351 359.381C442.826 351.587 442.234 343.797 441.668 336.002C441.426 332.624 443.307 330.073 445.035 327.465Z" fill="#FAF6F2"/>
<path d="M459.862 407.085C459.723 407.9 459.216 407.886 458.542 407.757C450.359 406.191 442.175 404.633 433.987 403.108C432.874 402.902 431.949 402.62 431.963 401.255C432.147 398.875 432.335 396.494 432.519 394.114C432.879 392.499 432.73 390.852 432.654 389.232C432.578 387.621 433.099 386.986 434.76 386.928C440.209 386.736 445.623 387.621 451.068 387.442C451.84 387.416 452.518 387.76 453.07 388.306C455.337 394.566 457.6 400.826 459.862 407.085Z" fill="#FEFEFE"/>
<path d="M203.543 287.682C203.296 288.362 202.703 288.13 202.232 288.121C201.81 288.112 201.231 288.134 201.271 287.494C201.312 286.814 201.904 286.984 202.304 287.043C202.753 287.114 203.404 286.89 203.543 287.682Z" fill="#EAF4FF"/>
<path d="M448.043 322.119C449.12 321.702 449.524 320.723 450 319.801C451.988 319.868 453.941 319.662 455.818 318.955C455.019 321.738 452.94 324.19 454.148 327.917C451.755 325.649 449.901 323.881 448.043 322.119Z" fill="#F6F4EE"/>
<path d="M135.848 276.344C136.243 261.838 138.578 247.309 145.993 233.984C148.889 228.785 152.494 224.163 157.427 220.708C166.737 214.189 177.215 215.487 184.711 224.104C190.453 230.704 193.559 238.588 195.283 246.996C199.548 267.838 197.406 287.92 187.333 306.869C183.863 313.397 179.347 319.134 172.6 322.678C165.301 326.508 157.607 325.635 151.277 320.378C145.064 315.219 141.648 308.337 139.269 300.846C136.786 293.034 135.929 284.98 135.848 276.344Z" fill="#FFA048"/>
<path d="M190.152 267.839C190.264 272.56 189.658 277.209 188.617 281.804C187.064 288.65 184.294 294.933 179.72 300.338C177.857 302.539 175.612 304.271 172.905 305.295C167.55 307.327 161.979 305.278 158.096 299.895C154.186 294.476 152.39 288.283 151.753 281.746C150.608 270.01 152.112 258.698 157.598 248.089C158.98 245.418 160.776 243.033 162.908 240.925C169.96 233.968 178.979 235.292 184.334 244.026C187.234 248.751 188.733 253.942 189.577 259.369C190.013 262.184 190.174 265.003 190.152 267.839Z" fill="#F8FAF9"/>
<path d="M193.564 285.678C193.366 286.34 192.922 286.354 192.495 286.202C191.912 285.991 191.086 285.987 190.991 285.181C190.933 284.658 191.431 284.416 191.898 284.613C192.509 284.877 193.366 284.855 193.564 285.678Z" fill="#EAF4FF"/>
<path d="M180.617 270.953C180.68 271.973 180.379 273.66 179.966 275.32C179.823 275.893 180.038 277.043 178.683 276.363C178.112 276.076 177.807 276.698 178.166 277.083C180.02 279.088 178.094 280.403 177.233 281.728C174.499 285.92 170.319 285.71 167.895 281.379C164.681 275.633 165.584 265.687 169.781 260.648C172.438 257.458 176.003 257.588 178.305 261.06C180.137 263.834 180.51 267.016 180.617 270.953Z" fill="#FFA048"/>
<path d="M173.502 270.34C173.659 272.474 174.418 274.385 174.324 276.34C174.068 276.376 173.816 276.416 173.561 276.452C172.896 273.589 172.232 270.729 171.464 267.4C174.382 269.114 176.55 270.917 178.777 272.64C179.082 272.873 179.401 273.217 179.163 273.566C178.853 274.009 178.337 273.879 177.973 273.584C176.6 272.457 175.253 271.298 173.502 270.34Z" fill="#EAF4FF"/>
<path d="M176.012 274.613C175.208 274.438 174.93 273.709 174.544 273.123C174.274 272.711 174.544 272.376 174.957 272.362C175.877 272.331 176.065 273.194 176.443 273.772C176.694 274.147 176.429 274.447 176.012 274.613Z" fill="#EAF4FF"/>
<path opacity="0.53" d="M400.593 301.5L247.068 224.986L223.277 339.981L399.925 309.845L400.593 301.5Z" fill="#DFEDF6"/>
</g>
<defs>
<filter id="filter0_f_4654_34518" x="0" y="0" width="665" height="665" filterUnits="userSpaceOnUse" color-interpolation-filters="sRGB">
<feFlood flood-opacity="0" result="BackgroundImageFix"/>
<feBlend mode="normal" in="SourceGraphic" in2="BackgroundImageFix" result="shape"/>
<feGaussianBlur stdDeviation="50" result="effect1_foregroundBlur_4654_34518"/>
</filter>
<clipPath id="clip0_4654_34518">
<rect width="481" height="321" fill="white" transform="translate(84 172)"/>
</clipPath>
</defs>
</svg>
