<svg width="653" height="653" viewBox="0 0 653 653" fill="none" xmlns="http://www.w3.org/2000/svg">
<g opacity="0.2" filter="url(#filter0_f_4688_17610)">
<circle cx="326.5" cy="326.5" r="226.5" fill="#298DFE"/>
</g>
<g clip-path="url(#clip0_4688_17610)">
<path opacity="0.15" d="M141.587 245.672L303.641 306.766L285.106 179.209" stroke="#FFA048" stroke-width="4" stroke-miterlimit="10" stroke-linecap="round" stroke-linejoin="round"/>
<path opacity="0.15" d="M444.419 144.9L315.636 305.44L496.177 273.179" stroke="#FFA048" stroke-width="4" stroke-miterlimit="10" stroke-linecap="round" stroke-linejoin="round"/>
<path opacity="0.15" d="M472.858 480.906L307.409 309.928V440.828" stroke="#FFA048" stroke-width="4" stroke-miterlimit="10" stroke-linecap="round" stroke-linejoin="round"/>
<path opacity="0.15" d="M127.913 498.691L304.07 316.816L164.981 366.296" stroke="#FFA048" stroke-width="4" stroke-miterlimit="10" stroke-linecap="round" stroke-linejoin="round"/>
<path d="M190.722 435.061L208.512 415.287" stroke="#FFA048" stroke-width="4" stroke-miterlimit="10" stroke-linecap="round" stroke-linejoin="round"/>
<path d="M215.884 348.815L237.306 340.951" stroke="#FFA048" stroke-width="4" stroke-miterlimit="10" stroke-linecap="round" stroke-linejoin="round"/>
<path d="M217.854 275.062L231.492 279.887" stroke="#FFA048" stroke-width="4" stroke-miterlimit="10" stroke-linecap="round" stroke-linejoin="round"/>
<path d="M289.809 210.477L292.213 227.73" stroke="#FFA048" stroke-width="4" stroke-miterlimit="10" stroke-linecap="round" stroke-linejoin="round"/>
<path d="M376.54 230.08L391.567 210.787" stroke="#FFA048" stroke-width="4" stroke-miterlimit="10" stroke-linecap="round" stroke-linejoin="round"/>
<path d="M383.445 293.679L399.824 290.586" stroke="#FFA048" stroke-width="4" stroke-miterlimit="10" stroke-linecap="round" stroke-linejoin="round"/>
<path d="M353.52 358.027L364.286 369.051" stroke="#FFA048" stroke-width="4" stroke-miterlimit="10" stroke-linecap="round" stroke-linejoin="round"/>
<path d="M307.064 391.684V373.971" stroke="#FFA048" stroke-width="4" stroke-miterlimit="10" stroke-linecap="round" stroke-linejoin="round"/>
<mask id="mask0_4688_17610" style="mask-type:luminance" maskUnits="userSpaceOnUse" x="278" y="295" width="56" height="32">
<path d="M278.726 295.459H333.694V326.987H278.726V295.459Z" fill="white"/>
</mask>
<g mask="url(#mask0_4688_17610)">
<path d="M333.108 307.973C330.496 300.826 319.446 295.459 306.21 295.459C292.973 295.459 281.924 300.826 279.312 307.973H278.726V311.223C278.726 319.926 291.031 326.987 306.21 326.987C321.388 326.987 333.694 319.926 333.694 311.223V307.973H333.108Z" fill="#FFA048"/>
</g>
<path d="M333.694 308.297C333.694 317.003 321.39 324.061 306.21 324.061C291.031 324.061 278.726 317.001 278.726 308.297C278.726 299.593 291.03 292.533 306.21 292.533C321.389 292.533 333.694 299.591 333.694 308.297Z" fill="#FFF9F4"/>
<g clip-path="url(#clip1_4688_17610)">
<path fill-rule="evenodd" clip-rule="evenodd" d="M306.034 268.766C323.469 268.766 337.6 282.872 337.6 300.276C337.6 317.679 323.469 331.786 306.034 331.786C288.599 331.786 274.467 317.679 274.467 300.276C274.467 282.872 288.599 268.766 306.034 268.766Z" fill="#298DFE"/>
<path d="M306.07 297.18L301.289 300.466V304.132L306.07 300.845L310.849 304.132V300.466L306.07 297.18Z" fill="#FFA048"/>
<path d="M301.289 306.528V310.194L306.07 306.908L310.849 310.194V306.528L306.07 303.242L301.289 306.528Z" fill="#FFA048"/>
<path d="M301.289 312.591V316.257L306.07 312.97L310.849 316.257V312.591L306.07 309.305L301.289 312.591Z" fill="#FFA048"/>
<path d="M310.938 304.272L306.07 300.925L301.2 304.272V300.392L301.237 300.367L306.068 297.045L306.12 297.08L310.938 300.394V304.274V304.272ZM301.378 300.485V303.934L306.07 300.709L306.122 300.744L310.762 303.934V300.485L306.07 297.259L301.378 300.485Z" fill="#1E344E"/>
<path d="M310.938 310.331L306.07 306.983L301.2 310.331V306.451L301.237 306.425L306.068 303.104L306.12 303.139L310.938 306.453V310.333V310.331ZM301.378 306.543V309.993L306.07 306.767L306.122 306.803L310.762 309.993V306.543L306.07 303.318L301.378 306.543Z" fill="#1E344E"/>
<path d="M310.938 316.393L306.07 313.046L301.2 316.393V312.513L301.237 312.488L306.068 309.166L306.12 309.201L310.938 312.515V316.395V316.393ZM301.378 312.606V316.055L306.07 312.83L306.122 312.865L310.762 316.055V312.606L306.07 309.38L301.378 312.606Z" fill="#1E344E"/>
<path d="M299.721 286.714C300.908 285.321 302.481 284.316 304.266 283.9C304.87 283.752 305.498 283.68 306.144 283.68C308.689 283.68 310.978 284.851 312.566 286.716L308.991 280.743C308.767 280.366 308.492 280.053 308.182 279.806C306.68 278.587 304.403 278.899 303.298 280.743L299.723 286.716L299.721 286.714Z" fill="white"/>
<path d="M319.722 300.202L315.602 292.574C313.822 289.276 310.909 287.379 307.823 286.878C307.819 286.878 307.815 286.878 307.811 286.876C307.272 286.77 306.72 286.715 306.156 286.715C305.591 286.715 305.037 286.77 304.498 286.876C301.408 287.373 298.491 289.272 296.709 292.574L292.591 300.196L287.02 310.517C286.39 311.681 286.187 312.893 286.29 314.108C286.91 321.288 296.975 320.653 296.975 313.442V312.017V302.16C296.975 302.146 296.975 302.134 296.975 302.12V302.16C296.975 297.415 300.121 293.458 304.306 292.543C304.904 292.411 305.522 292.344 306.156 292.344C308.689 292.344 310.984 293.445 312.647 295.22C314.307 296.994 315.336 299.451 315.336 302.162V312.021V313.339C315.336 320.517 325.369 321.109 325.935 313.955C326.033 312.726 325.822 311.502 325.186 310.322L319.724 300.202H319.722Z" fill="white"/>
</g>
<mask id="mask1_4688_17610" style="mask-type:luminance" maskUnits="userSpaceOnUse" x="105" y="225" width="56" height="33">
<path d="M105.575 225.883H160.543V257.41H105.575V225.883Z" fill="white"/>
</mask>
<g mask="url(#mask1_4688_17610)">
<path d="M159.957 238.396C157.345 231.25 146.295 225.883 133.059 225.883C119.822 225.883 108.773 231.25 106.161 238.396H105.575V241.647C105.575 250.35 117.88 257.41 133.059 257.41C148.237 257.41 160.543 250.35 160.543 241.647V238.396H159.957Z" fill="#0E6AD2"/>
</g>
<path d="M160.543 238.721C160.543 247.427 148.239 254.485 133.059 254.485C117.88 254.485 105.575 247.424 105.575 238.721C105.575 230.017 117.879 222.957 133.059 222.957C148.238 222.957 160.543 230.015 160.543 238.721Z" fill="#298DFE"/>
<path d="M123.236 236.526L123.229 236.533L123.294 236.566C123.304 236.574 123.315 236.581 123.328 236.586L125.473 237.815L125.9 238.062C128.149 239.243 131.208 239.002 134.575 237.06C141.485 233.076 147.084 223.414 147.084 215.493C147.084 211.557 145.702 208.788 143.459 207.487C143.412 207.453 143.352 207.426 143.298 207.394L141.098 206.125C138.827 204.777 135.662 204.951 132.157 206.973C125.245 210.962 119.643 220.618 119.643 228.545C119.643 232.463 121.012 235.218 123.236 236.526Z" fill="#5AB700"/>
<path d="M124.996 219.002C124.959 219.074 124.923 219.147 124.887 219.219C123.137 222.527 122.17 226.192 122.062 229.932C122.062 237.858 127.665 241.049 134.576 237.06C141.487 233.071 147.091 223.417 147.091 215.491C147.091 207.566 141.488 204.374 134.576 208.363C132.105 209.852 129.934 211.788 128.175 214.073" fill="#B4EE73"/>
<path d="M133.776 229.054C133.63 229.159 133.46 229.223 133.282 229.241C133.104 229.259 132.924 229.23 132.76 229.157L128.946 226.984C128.386 226.663 128.386 225.623 128.946 224.657C129.507 223.691 130.416 223.167 130.976 223.488L133.776 225.081L138.959 216.147C139.52 215.181 140.428 214.657 140.988 214.977C141.549 215.296 141.548 216.337 140.988 217.304L134.79 227.983C134.548 228.42 134.199 228.787 133.776 229.051" fill="white"/>
<mask id="mask2_4688_17610" style="mask-type:luminance" maskUnits="userSpaceOnUse" x="251" y="162" width="56" height="33">
<path d="M251.241 162.715H306.21V194.242H251.241V162.715Z" fill="white"/>
</mask>
<g mask="url(#mask2_4688_17610)">
<path d="M305.624 175.229C303.011 168.082 291.961 162.715 278.725 162.715C265.488 162.715 254.439 168.082 251.827 175.229H251.241V178.479C251.241 187.182 263.546 194.242 278.725 194.242C293.904 194.242 306.21 187.182 306.21 178.479V175.229H305.624Z" fill="#0E6AD2"/>
</g>
<path d="M306.21 175.553C306.21 184.259 293.905 191.317 278.726 191.317C263.546 191.317 251.241 184.256 251.241 175.553C251.241 166.849 263.546 159.789 278.725 159.789C293.904 159.789 306.21 166.847 306.21 175.553Z" fill="#298DFE"/>
<mask id="mask3_4688_17610" style="mask-type:luminance" maskUnits="userSpaceOnUse" x="417" y="127" width="56" height="33">
<path d="M417.063 127.926H472.032V159.453H417.063V127.926Z" fill="white"/>
</mask>
<g mask="url(#mask3_4688_17610)">
<path d="M471.446 140.439C468.833 133.293 457.784 127.926 444.547 127.926C431.31 127.926 420.261 133.293 417.649 140.439H417.063V143.69C417.063 152.393 429.368 159.453 444.547 159.453C459.726 159.453 472.032 152.393 472.032 143.69V140.439H471.446Z" fill="#0E6AD2"/>
</g>
<path d="M472.032 140.764C472.032 149.47 459.727 156.528 444.548 156.528C429.368 156.528 417.063 149.467 417.063 140.764C417.063 132.06 429.368 125 444.547 125C459.726 125 472.032 132.058 472.032 140.764Z" fill="#298DFE"/>
<mask id="mask4_4688_17610" style="mask-type:luminance" maskUnits="userSpaceOnUse" x="472" y="260" width="55" height="33">
<path d="M472.031 260.672H527V292.199H472.031V260.672Z" fill="white"/>
</mask>
<g mask="url(#mask4_4688_17610)">
<path d="M526.414 273.186C523.802 266.039 512.752 260.672 499.515 260.672C486.279 260.672 475.23 266.039 472.617 273.186H472.031V276.436C472.031 285.139 484.337 292.199 499.515 292.199C514.694 292.199 527 285.139 527 276.436V273.186H526.414Z" fill="#0E6AD2"/>
</g>
<path d="M527 273.51C527 282.216 514.695 289.274 499.516 289.274C484.337 289.274 472.031 282.213 472.031 273.51C472.031 264.806 484.336 257.746 499.515 257.746C514.695 257.746 527 264.804 527 273.51Z" fill="#298DFE"/>
<path d="M489.693 271.315L489.687 271.322L489.751 271.355C489.761 271.363 489.773 271.37 489.785 271.375L491.93 272.604L492.357 272.851C494.606 274.032 497.666 273.791 501.033 271.849C507.942 267.865 513.542 258.203 513.542 250.283C513.542 246.346 512.159 243.577 509.917 242.276C509.869 242.242 509.809 242.215 509.755 242.183L507.555 240.914C505.284 239.566 502.119 239.74 498.614 241.762C491.703 245.751 486.101 255.407 486.101 263.334C486.101 267.252 487.469 270.007 489.693 271.315Z" fill="#5AB700"/>
<path d="M491.453 253.791C491.417 253.863 491.381 253.936 491.344 254.008C489.594 257.316 488.628 260.981 488.519 264.721C488.519 272.647 494.122 275.838 501.033 271.849C507.944 267.86 513.549 258.206 513.549 250.28C513.549 242.355 507.945 239.163 501.033 243.152C498.563 244.641 496.392 246.577 494.632 248.862" fill="#B4EE73"/>
<path d="M500.233 263.843C500.088 263.948 499.917 264.012 499.739 264.03C499.561 264.048 499.381 264.019 499.218 263.946L495.404 261.773C494.843 261.452 494.843 260.412 495.404 259.446C495.964 258.48 496.873 257.956 497.433 258.277L500.233 259.87L505.416 250.936C505.977 249.971 506.885 249.446 507.446 249.766C508.006 250.085 508.005 251.126 507.446 252.093L501.247 262.773C501.005 263.209 500.656 263.576 500.233 263.84" fill="white"/>
<mask id="mask5_4688_17610" style="mask-type:luminance" maskUnits="userSpaceOnUse" x="444" y="462" width="56" height="32">
<path d="M444.547 462.078H499.516V493.606H444.547V462.078Z" fill="white"/>
</mask>
<g mask="url(#mask5_4688_17610)">
<path d="M498.93 474.592C496.317 467.445 485.268 462.078 472.031 462.078C458.795 462.078 447.746 467.445 445.133 474.592H444.547V477.842C444.547 486.545 456.852 493.606 472.031 493.606C487.21 493.606 499.516 486.545 499.516 477.842V474.592H498.93Z" fill="#0E6AD2"/>
</g>
<path d="M499.516 474.916C499.516 483.622 487.211 490.68 472.032 490.68C456.852 490.68 444.547 483.62 444.547 474.916C444.547 466.213 456.852 459.152 472.031 459.152C487.21 459.152 499.516 466.21 499.516 474.916Z" fill="#298DFE"/>
<mask id="mask6_4688_17610" style="mask-type:luminance" maskUnits="userSpaceOnUse" x="278" y="427" width="56" height="32">
<path d="M278.726 427.291H333.694V458.819H278.726V427.291Z" fill="white"/>
</mask>
<g mask="url(#mask6_4688_17610)">
<path d="M333.108 439.805C330.496 432.658 319.446 427.291 306.21 427.291C292.973 427.291 281.924 432.658 279.312 439.805H278.726V443.055C278.726 451.758 291.031 458.819 306.21 458.819C321.388 458.819 333.694 451.758 333.694 443.055V439.805H333.108Z" fill="#0E6AD2"/>
</g>
<path d="M333.694 440.129C333.694 448.835 321.39 455.893 306.21 455.893C291.031 455.893 278.726 448.833 278.726 440.129C278.726 431.425 291.03 424.365 306.21 424.365C321.389 424.365 333.694 431.423 333.694 440.129Z" fill="#298DFE"/>
<path d="M296.387 437.934L296.38 437.941L296.445 437.974C296.455 437.982 296.466 437.989 296.479 437.994L298.624 439.223L299.051 439.47C301.3 440.651 304.359 440.41 307.726 438.468C314.636 434.484 320.235 424.822 320.235 416.902C320.235 412.965 318.853 410.196 316.61 408.895C316.563 408.861 316.503 408.835 316.449 408.802L314.248 407.533C311.978 406.185 308.813 406.359 305.308 408.381C298.396 412.37 292.794 422.026 292.794 429.954C292.794 433.871 294.163 436.626 296.387 437.934Z" fill="#5AB700"/>
<path d="M298.147 420.41C298.11 420.482 298.074 420.556 298.038 420.627C296.288 423.935 295.321 427.6 295.213 431.34C295.213 439.266 300.816 442.457 307.727 438.468C314.638 434.479 320.242 424.825 320.242 416.9C320.242 408.974 314.639 405.782 307.727 409.771C305.256 411.26 303.085 413.196 301.325 415.481" fill="#B4EE73"/>
<path d="M306.927 430.462C306.781 430.567 306.611 430.631 306.433 430.649C306.255 430.667 306.075 430.638 305.911 430.565L302.097 428.392C301.537 428.071 301.537 427.031 302.097 426.065C302.658 425.099 303.567 424.575 304.127 424.896L306.927 426.489L312.11 417.556C312.671 416.59 313.579 416.065 314.139 416.385C314.7 416.705 314.699 417.745 314.139 418.712L307.941 429.392C307.699 429.828 307.35 430.195 306.927 430.459" fill="white"/>
<mask id="mask7_4688_17610" style="mask-type:luminance" maskUnits="userSpaceOnUse" x="90" y="479" width="55" height="32">
<path d="M90 479.473H144.969V511H90V479.473Z" fill="white"/>
</mask>
<g mask="url(#mask7_4688_17610)">
<path d="M144.383 491.986C141.77 484.839 130.721 479.473 117.484 479.473C104.247 479.473 93.1985 484.839 90.5861 491.986H90V495.236C90 503.94 102.305 511 117.484 511C132.663 511 144.969 503.94 144.969 495.236V491.986H144.383Z" fill="#0E6AD2"/>
</g>
<path d="M144.969 492.311C144.969 501.017 132.664 508.074 117.485 508.074C102.305 508.074 90 501.014 90 492.311C90 483.607 102.305 476.547 117.484 476.547C132.663 476.547 144.969 483.605 144.969 492.311Z" fill="#298DFE"/>
<mask id="mask8_4688_17610" style="mask-type:luminance" maskUnits="userSpaceOnUse" x="133" y="354" width="56" height="33">
<path d="M133.059 354.967H188.027V386.494H133.059V354.967Z" fill="white"/>
</mask>
<g mask="url(#mask8_4688_17610)">
<path d="M187.441 367.48C184.829 360.334 173.779 354.967 160.543 354.967C147.306 354.967 136.257 360.334 133.645 367.48H133.059V370.731C133.059 379.434 145.364 386.494 160.543 386.494C175.721 386.494 188.027 379.434 188.027 370.731V367.48H187.441Z" fill="#0E6AD2"/>
</g>
<path d="M188.027 367.805C188.027 376.511 175.723 383.569 160.543 383.569C145.364 383.569 133.059 376.508 133.059 367.805C133.059 359.101 145.363 352.041 160.543 352.041C175.722 352.041 188.027 359.099 188.027 367.805Z" fill="#298DFE"/>
<path d="M150.721 365.61L150.714 365.617L150.778 365.65C150.789 365.658 150.8 365.665 150.812 365.67L152.958 366.899L153.384 367.146C155.634 368.327 158.693 368.086 162.06 366.144C168.97 362.16 174.569 352.498 174.569 344.577C174.569 340.641 173.187 337.872 170.944 336.571C170.896 336.537 170.837 336.51 170.783 336.478L168.582 335.209C166.312 333.861 163.147 334.035 159.642 336.057C152.73 340.046 147.128 349.702 147.128 357.629C147.128 361.547 148.497 364.302 150.721 365.61Z" fill="#5AB700"/>
<path d="M152.481 348.086C152.444 348.158 152.408 348.231 152.371 348.303C150.622 351.611 149.655 355.276 149.546 359.016C149.546 366.942 155.15 370.133 162.061 366.144C168.972 362.155 174.576 352.501 174.576 344.575C174.576 336.65 168.972 333.458 162.061 337.447C159.59 338.936 157.419 340.872 155.659 343.157" fill="#B4EE73"/>
<path d="M161.261 358.138C161.115 358.243 160.945 358.307 160.767 358.325C160.588 358.343 160.409 358.314 160.245 358.241L156.431 356.068C155.871 355.747 155.871 354.707 156.431 353.741C156.991 352.775 157.901 352.251 158.461 352.572L161.261 354.165L166.444 345.231C167.005 344.265 167.913 343.741 168.473 344.061C169.033 344.38 169.033 345.421 168.473 346.388L162.275 357.067C162.033 357.504 161.684 357.871 161.261 358.135" fill="white"/>
</g>
<defs>
<filter id="filter0_f_4688_17610" x="0" y="0" width="653" height="653" filterUnits="userSpaceOnUse" color-interpolation-filters="sRGB">
<feFlood flood-opacity="0" result="BackgroundImageFix"/>
<feBlend mode="normal" in="SourceGraphic" in2="BackgroundImageFix" result="shape"/>
<feGaussianBlur stdDeviation="50" result="effect1_foregroundBlur_4688_17610"/>
</filter>
<clipPath id="clip0_4688_17610">
<rect width="437" height="386" fill="white" transform="translate(90 125)"/>
</clipPath>
<clipPath id="clip1_4688_17610">
<rect width="63.1332" height="63.0204" fill="white" transform="translate(274.467 268.766)"/>
</clipPath>
</defs>
</svg>
