<svg width="80" height="80" viewBox="0 0 80 80" fill="none" xmlns="http://www.w3.org/2000/svg">
<rect width="80" height="80" rx="12" fill="#EAF4FF"/>
<path d="M64 16C64 32.0167 64 47.9533 64 64C48.02 64 32.06 64 16 64C16 48.0133 16 32.0567 16 16C31.97 16 47.9 16 64 16ZM18.56 61.4489C32.88 61.4489 47.1 61.4489 61.41 61.4489C61.41 47.123 61.41 32.897 61.41 18.5711C47.09 18.5711 32.87 18.5711 18.56 18.5711C18.56 32.897 18.56 47.133 18.56 61.4489Z" fill="#FFA048"/>
<path d="M23.82 25.3439C23.82 26.5544 23.82 27.7749 23.82 29.0655C23.24 29.0655 22.84 29.0655 22.27 29.0655C22.27 27.0046 22.24 25.0038 22.3 23.003C22.31 22.7629 22.73 22.3327 22.96 22.3227C24.96 22.2626 26.96 22.2927 29.04 22.2927C29.04 22.8429 29.04 23.2431 29.04 23.8133C27.77 23.8133 26.55 23.8133 25.06 23.8133C27.78 26.4244 30.28 28.8154 32.87 31.3064C32.31 31.9367 32.02 32.2668 31.65 32.677C29.16 30.0859 26.75 27.5849 24.34 25.0838C24.17 25.1739 24 25.2539 23.82 25.3439Z" fill="#298DFE"/>
<path d="M56.1699 54.626C56.1699 53.6756 56.0999 52.7152 56.2099 51.7748C56.2399 51.4547 56.6999 51.1745 56.9599 50.8744C57.2099 51.1846 57.6699 51.4847 57.6899 51.7948C57.7599 53.4655 57.7699 55.1462 57.6799 56.8169C57.6599 57.137 57.1099 57.6773 56.7799 57.6973C55.1099 57.7873 53.4299 57.7773 51.7599 57.7073C51.4499 57.6973 51.1499 57.2271 50.8499 56.967C51.1599 56.7169 51.4499 56.2767 51.7799 56.2467C52.7199 56.1466 53.6799 56.2167 54.9499 56.2167C52.1799 53.6156 49.6299 51.2246 46.8199 48.5735C47.6099 47.9532 47.9699 47.6731 48.5499 47.2229C51.0199 49.804 53.4199 52.315 55.8199 54.8161C55.9299 54.746 56.0499 54.686 56.1699 54.626Z" fill="#298DFE"/>
<path d="M48.56 32.977C47.91 32.3667 47.61 32.0766 47.22 31.7064C49.89 29.1454 52.39 26.7444 54.9 24.3434C54.83 24.1933 54.77 24.0433 54.7 23.8932C53.47 23.8932 52.23 23.8932 50.93 23.8932C50.93 23.2529 50.93 22.8528 50.93 22.2925C53 22.2925 55 22.2725 57 22.3225C57.24 22.3325 57.67 22.7527 57.67 22.9928C57.72 24.9937 57.7 26.9945 57.7 29.0653C57.14 29.0653 56.73 29.0653 56.15 29.0653C56.15 27.7748 56.15 26.5643 56.15 25.0437C53.53 27.7848 51.14 30.2859 48.56 32.977Z" fill="#298DFE"/>
<path d="M24.25 54.8761C26.65 52.3751 29.06 49.864 31.52 47.303C31.96 47.7131 32.26 47.9933 32.77 48.4835C30.16 50.9545 27.62 53.3555 25.08 55.7565C25.16 55.8966 25.24 56.0366 25.32 56.1667C26.53 56.1667 27.74 56.1667 28.92 56.1667C29.31 57.2471 29.17 57.7773 28.03 57.7473C26.5 57.7073 24.97 57.7073 23.44 57.7473C22.61 57.7673 22.21 57.5472 22.24 56.6269C22.3 55.0462 22.24 53.4655 22.26 51.8949C22.28 50.9545 22.31 50.9545 23.71 50.9345C23.76 52.165 23.82 53.4055 23.88 54.656C24 54.7361 24.13 54.8061 24.25 54.8761Z" fill="#298DFE"/>
</svg>
