<svg width="80" height="80" viewBox="0 0 80 80" fill="none" xmlns="http://www.w3.org/2000/svg">
<rect width="80" height="80" rx="12" fill="#EAF4FF"/>
<g clip-path="url(#clip0_3324_2777)">
<path d="M52.64 40.44C51.44 39.67 50.38 38.99 49.12 38.18C49.01 38.36 48.92 38.59 48.76 38.76C46.67 40.98 44.57 43.17 42.49 45.4C42.16 45.75 41.94 45.75 41.56 45.49C39.91 44.35 38.24 43.25 36.52 42.09C34.43 44.51 32.36 46.92 30.27 49.35C29.06 48.69 27.88 48.04 26.63 47.36C29.71 43.77 32.75 40.23 35.82 36.66C37.71 37.94 39.56 39.19 41.48 40.48C42.87 39.03 44.25 37.58 45.7 36.07C44.64 35.39 43.64 34.74 42.52 34.02C45.72 32.91 48.82 31.84 52 30.74C52.21 33.99 52.42 37.15 52.64 40.44Z" fill="#FFA048"/>
<path d="M37.26 61.9001C37.27 62.0801 37.3 62.2301 37.3 62.3901C37.31 62.6901 37.3 62.9801 37.3 63.3601C32.86 62.8001 28.97 61.1601 25.56 58.3201C26.6 58.3201 27.6 58.0801 28.61 58.7501C31.02 60.3401 33.7 61.3001 36.55 61.7501C36.78 61.7901 37.01 61.8501 37.26 61.9001Z" fill="#298DFE"/>
<path d="M42.69 63.3801C42.69 62.8301 42.69 62.3801 42.69 62.0001C44.16 61.6101 45.63 61.3301 47.01 60.8201C48.47 60.2801 49.87 59.5701 51.24 58.8301C51.91 58.4701 52.54 58.2101 53.3 58.2701C53.64 58.3001 53.99 58.2701 54.35 58.3401C50.96 61.1701 47.08 62.8001 42.69 63.3801Z" fill="#298DFE"/>
<path d="M25.75 21.62C29.09 18.88 32.91 17.26 37.29 16.72C37.29 17.18 37.33 17.6 37.27 17.99C37.25 18.11 36.97 18.25 36.79 18.28C34.57 18.62 32.44 19.26 30.42 20.27C29.93 20.52 29.39 20.73 28.97 21.08C28 21.91 26.88 21.69 25.75 21.62Z" fill="#298DFE"/>
<path d="M54.14 21.7C53.47 21.7 52.8 21.71 52.14 21.69C51.99 21.69 51.83 21.62 51.71 21.53C49.07 19.78 46.18 18.72 43.07 18.27C42.97 18.26 42.88 18.23 42.75 18.2C42.75 17.72 42.75 17.26 42.75 16.73C47.06 17.25 50.85 18.87 54.2 21.56C54.18 21.61 54.16 21.66 54.14 21.7Z" fill="#298DFE"/>
<path d="M17.02 37.07C17.18 35.19 17.59 33.47 18.25 31.82C18.8 30.46 19.53 29.17 20.15 27.84C20.44 27.22 20.88 27 21.52 27.1C21.75 27.13 21.98 27.11 22.34 27.11C22.18 27.38 22.09 27.54 21.99 27.7C20.26 30.33 19.11 33.2 18.62 36.32C18.52 36.97 18.29 37.18 17.68 37.09C17.49 37.05 17.3 37.07 17.02 37.07Z" fill="#298DFE"/>
<path d="M63.02 42.64C62.88 43.5 62.77 44.33 62.6 45.14C62.07 47.62 61.14 49.94 59.86 52.12C59.58 52.59 59.28 52.82 58.74 52.75C58.45 52.71 58.16 52.74 57.77 52.74C57.9 52.52 57.98 52.37 58.07 52.23C59.82 49.56 60.94 46.64 61.43 43.48C61.57 42.57 61.57 42.57 62.48 42.59C62.63 42.6 62.78 42.62 63.02 42.64Z" fill="#298DFE"/>
<path d="M62.93 37.1201C62.63 37.1201 62.34 37.0901 62.05 37.1301C61.61 37.1901 61.47 36.9801 61.41 36.5701C61.1 34.4201 60.46 32.3701 59.51 30.4201C58.99 29.3501 58.37 28.3301 57.75 27.2001C58.25 27.2001 58.73 27.1801 59.21 27.2101C59.33 27.2201 59.49 27.3601 59.56 27.4801C61.34 30.3401 62.47 33.4501 62.94 36.8001C62.97 36.8801 62.95 36.9601 62.93 37.1201Z" fill="#298DFE"/>
<path d="M22.21 52.7401C21.64 52.7401 21.15 52.7601 20.67 52.7301C20.55 52.7201 20.4 52.5801 20.33 52.4601C18.47 49.4701 17.37 46.2201 16.96 42.6001C17.36 42.6001 17.74 42.5501 18.09 42.6201C18.24 42.6501 18.42 42.9201 18.45 43.1101C18.91 46.1501 19.92 48.9801 21.5 51.6101C21.71 51.9501 21.93 52.3001 22.21 52.7401Z" fill="#298DFE"/>
<path d="M24.71 56.78C23.97 56.78 23.29 56.8 22.6 56.76C22.48 56.75 22.27 56.55 22.26 56.42C22.23 55.73 22.24 55.03 22.24 54.27C23.07 54.27 23.86 54.27 24.7 54.27C24.71 55.08 24.71 55.88 24.71 56.78Z" fill="#298DFE"/>
<path d="M56.99 56.75C56.15 56.75 55.37 56.75 54.55 56.75C54.55 55.91 54.55 55.11 54.55 54.27C55.37 54.27 56.17 54.27 56.99 54.27C56.99 55.1 56.99 55.89 56.99 56.75Z" fill="#298DFE"/>
<path d="M41.23 18.5201C40.36 18.5201 39.58 18.5201 38.73 18.5201C38.73 17.7501 38.72 17.0201 38.75 16.2901C38.75 16.1901 38.97 16.0301 39.1 16.0201C39.69 15.9901 40.29 15.9901 40.88 16.0201C41.01 16.0301 41.22 16.2301 41.23 16.3501C41.25 17.0501 41.23 17.7501 41.23 18.5201Z" fill="#298DFE"/>
<path d="M64 41.0701C63.18 41.0701 62.4 41.0701 61.57 41.0701C61.57 40.2501 61.57 39.4401 61.57 38.6001C62.38 38.6001 63.17 38.6001 64 38.6001C64 39.4101 64 40.2001 64 41.0701Z" fill="#298DFE"/>
<path d="M16 38.5901C16.83 38.5901 17.61 38.5901 18.43 38.5901C18.43 39.4101 18.43 40.2001 18.43 41.0501C17.64 41.0501 16.84 41.0501 16 41.0501C16 40.2501 16 39.4401 16 38.5901Z" fill="#298DFE"/>
<path d="M41.23 64.0001C40.36 64.0001 39.58 64.0001 38.76 64.0001C38.76 63.1801 38.76 62.3901 38.76 61.5001C39.51 61.5001 40.25 61.4901 40.99 61.5201C41.07 61.5201 41.22 61.7301 41.22 61.8501C41.25 62.5401 41.23 63.2401 41.23 64.0001Z" fill="#298DFE"/>
<path d="M54.55 23C55.37 23 56.15 23 56.97 23C56.97 23.82 56.97 24.62 56.97 25.47C56.17 25.47 55.37 25.47 54.55 25.47C54.55 24.63 54.55 23.83 54.55 23Z" fill="#298DFE"/>
<path d="M24.72 23.01C24.72 23.82 24.72 24.61 24.72 25.45C23.93 25.45 23.13 25.45 22.29 25.45C22.29 24.65 22.29 23.85 22.29 23.01C23.1 23.01 23.89 23.01 24.72 23.01Z" fill="#298DFE"/>
</g>
<defs>
<clipPath id="clip0_3324_2777">
<rect width="48" height="48" fill="white" transform="translate(16 16)"/>
</clipPath>
</defs>
</svg>
