<svg width="80" height="80" viewBox="0 0 80 80" fill="none" xmlns="http://www.w3.org/2000/svg">
<rect width="80" height="80" rx="12" fill="#EAF4FF"/>
<g clip-path="url(#clip0_3324_2793)">
<path d="M40.05 43.2197C42.15 43.9597 43.91 45.0797 45.51 46.4897C48.71 49.2997 50.63 52.8097 51.35 56.9897C51.4 57.2797 51.45 57.5597 51.48 57.8497C51.55 58.6897 51.03 59.4097 50.25 59.5697C49.4 59.7497 48.64 59.3297 48.38 58.4897C48.2 57.9197 48.14 57.3197 47.99 56.7397C46.39 50.7297 42.57 46.8597 36.48 45.6897C30.3 44.4997 25.3 46.7797 21.62 51.8797C20.33 53.6697 19.6 55.6997 19.27 57.8897C19.1 58.9997 18.53 59.5897 17.64 59.6097C16.65 59.6297 15.89 58.8297 16.01 57.8497C16.55 53.5597 18.35 49.8897 21.51 46.9197C23.16 45.3697 25.01 44.0997 27.16 43.3297C27.23 43.3097 27.29 43.2597 27.42 43.1897C23.63 40.5597 21.6 37.0197 21.77 32.3997C21.9 29.0197 23.33 26.2097 25.85 23.9497C30.7 19.5997 38.45 20.1397 42.78 25.0497C47.24 30.1297 46.88 38.6897 40.05 43.2197ZM33.76 24.2797C28.9 24.2797 25 28.1897 25.01 33.0297C25.02 37.8497 28.92 41.7397 33.74 41.7497C38.57 41.7597 42.51 37.8197 42.5 32.9897C42.48 28.1697 38.58 24.2797 33.76 24.2797Z" fill="#298DFE"/>
<path d="M52.5 43.2297C54.92 44.0297 56.83 45.3697 58.55 46.9897C61.69 49.9597 63.43 53.6297 63.99 57.8897C64.09 58.6397 63.51 59.3997 62.76 59.5697C61.94 59.7497 61.15 59.3597 60.9 58.5697C60.71 57.9597 60.65 57.3197 60.48 56.6997C58.99 51.1297 55.35 47.5597 50.06 45.5197C49.77 45.4097 49.48 45.2997 49.2 45.1797C48.42 44.8497 47.94 44.2697 47.92 43.3997C47.9 42.4997 48.29 41.7897 49.09 41.3397C49.81 40.9297 50.58 40.5897 51.25 40.0997C56.67 36.1997 56.04 28.3097 50.06 25.3397C49.15 24.8897 48.14 24.6497 47.15 24.3797C46.18 24.1197 45.61 23.6397 45.53 22.8697C45.43 21.8297 46.27 20.9797 47.34 21.0997C51.6 21.5897 54.89 23.6097 56.87 27.4597C59.64 32.8397 58.1 39.0997 53.2 42.6797C53.02 42.8397 52.82 42.9897 52.5 43.2297Z" fill="#FFA048"/>
</g>
<defs>
<clipPath id="clip0_3324_2793">
<rect width="48" height="48" fill="white" transform="translate(16 16)"/>
</clipPath>
</defs>
</svg>
