<svg width="80" height="80" viewBox="0 0 80 80" fill="none" xmlns="http://www.w3.org/2000/svg">
<rect width="80" height="80" rx="12" fill="#EAF4FF"/>
<g clip-path="url(#clip0_3324_2785)">
<path d="M39.976 17.0177C42.8904 16.9698 45.8047 16.9602 48.6615 17.7942C57.0401 20.2292 63.1468 28.3586 63.9233 38.1945C64.7861 49.1136 58.2097 59.4575 48.6615 62.1897C46.8113 62.7169 44.9419 63.0141 43.0246 62.9854C40.2636 62.947 37.4835 63.1387 34.7418 62.8224C27.2642 61.9596 21.6273 57.7703 18.2528 50.3119C12.9802 38.6642 17.2175 25.0609 27.7436 19.2801C30.4182 17.8134 33.2654 17.0944 36.2469 17.0177C37.5027 16.989 38.7394 17.0177 39.976 17.0177ZM18.3008 40.0063C18.3008 51.2706 26.5836 60.4353 36.7166 60.4066C46.8592 60.3778 55.0653 51.2418 55.0557 39.9967C55.0366 28.7229 46.8688 19.6349 36.707 19.5965C26.5644 19.5677 18.3008 28.7229 18.3008 40.0063ZM61.5554 42.5468C60.4913 42.5468 59.5039 42.5468 58.5165 42.5468C57.2415 42.5468 57.2606 42.5564 57.021 43.8985C56.8005 45.116 56.5225 46.3239 56.2445 47.6277C57.577 47.6277 58.8712 47.6372 60.1558 47.6181C60.2517 47.6181 60.405 47.4935 60.4434 47.388C60.9994 45.8733 61.3637 44.2915 61.5554 42.5468ZM61.843 39.968C61.6225 38.3574 61.4212 36.8428 61.2007 35.3281C61.1816 35.1939 60.9802 35.0021 60.8556 35.0021C59.5327 34.983 58.2193 34.983 56.9347 34.983C57.0977 36.6798 57.2511 38.2999 57.414 39.9584C58.8137 39.968 60.2133 39.968 61.843 39.968ZM60.3379 32.3946C59.7244 30.5636 58.8904 29.0393 57.9221 27.6109C57.8262 27.4767 57.6441 27.3425 57.5003 27.3425C56.3595 27.3233 55.2187 27.3329 54.0875 27.3329C54.0779 27.4479 54.0587 27.5054 54.0779 27.5438C54.749 29.0585 55.4104 30.5731 56.0911 32.0782C56.1582 32.222 56.3403 32.385 56.4745 32.385C57.7304 32.4042 58.9862 32.3946 60.3379 32.3946ZM59.2451 50.1777C57.9317 50.1777 56.7621 50.1585 55.6022 50.1969C55.4008 50.2065 55.142 50.4269 55.0174 50.6283C54.1642 51.9991 53.3397 53.3892 52.5153 54.7697C52.4386 54.8943 52.3619 55.0285 52.2373 55.2586C53.3493 55.2586 54.3559 55.2682 55.3721 55.249C55.4871 55.249 55.6309 55.1723 55.7268 55.0764C57.0881 53.696 58.2576 52.1142 59.2451 50.1777ZM55.3625 24.8116C53.0425 22.3479 50.3391 20.8332 47.1468 20.0375C47.2618 20.2196 47.2906 20.2963 47.3385 20.3251C49.0545 21.5042 50.6076 22.9039 51.9688 24.5719C52.0647 24.687 52.2277 24.7924 52.3523 24.802C53.3589 24.8212 54.3655 24.8116 55.3625 24.8116ZM52.0647 58.1154C52.036 58.0483 52.0072 57.9716 51.9784 57.9045C51.2115 57.9045 50.3583 57.6648 49.6968 57.962C48.7861 58.3742 48.0288 59.1795 47.2043 59.8218C47.2331 59.8985 47.2714 59.9848 47.3002 60.0615C48.9011 59.4192 50.4829 58.7673 52.0647 58.1154Z" fill="#298DFE"/>
<path d="M36.6686 23.0859C45.0473 23.0859 51.8442 30.6306 51.8634 39.9583C51.8825 49.3244 45.0569 56.9074 36.6015 56.917C28.2804 56.917 21.4356 49.2573 21.4643 39.9583C21.4835 30.6689 28.3187 23.0859 36.6686 23.0859ZM49.5913 40.0446C49.6105 32.1069 43.8586 25.6935 36.7166 25.6743C29.565 25.6551 23.7939 32.0302 23.7747 39.9583C23.7555 47.9439 29.5171 54.3094 36.7837 54.3286C43.7915 54.3574 49.5722 47.9056 49.5913 40.0446Z" fill="#298DFE"/>
<path d="M35.5279 48.1837C33.5914 47.5893 32.2109 46.4677 31.7316 44.2915C31.6741 44.0327 31.6453 43.7547 31.6453 43.4862C31.6453 42.7193 32.0671 42.1825 32.6998 42.1441C33.3326 42.0962 33.8886 42.5564 33.8982 43.3137C33.9173 44.4928 34.9239 45.4803 36.0935 45.6912C37.3877 45.9212 38.7106 45.3365 39.2187 44.2915C39.6501 43.4096 39.4392 42.3167 38.5668 41.7319C38.0204 41.3676 37.3493 41.2238 36.7166 41.0513C36.1223 40.8883 35.48 40.8979 34.8952 40.6966C32.997 40.0447 31.7028 38.2711 31.6453 36.3251C31.5878 34.3023 32.6615 32.5096 34.5788 31.7235C35.317 31.4167 35.6142 31.0716 35.5566 30.1801C35.4991 29.3652 36.0264 28.838 36.6783 28.8284C37.3302 28.8284 37.7712 29.346 37.8191 30.1705C37.8287 30.2664 37.8383 30.3718 37.8191 30.4677C37.7232 31.11 37.9629 31.388 38.5285 31.6085C40.1966 32.2604 41.3565 33.4874 41.6729 35.5198C41.7016 35.7115 41.7208 35.9129 41.7208 36.1046C41.7016 36.8332 41.2798 37.3508 40.6855 37.4084C40.0432 37.4659 39.5638 37.0249 39.4584 36.2676C39.2571 34.9063 38.6244 34.1873 37.3685 33.8805C36.2181 33.6025 34.8472 34.1106 34.272 35.0501C33.7927 35.8266 33.8598 36.7948 34.435 37.4851C35.0486 38.2232 35.8442 38.4054 36.6975 38.53C37.5411 38.6546 38.423 38.808 39.1804 39.201C40.8293 40.0638 41.8071 41.5593 41.7112 43.6492C41.6154 45.7295 40.5129 47.1483 38.8065 47.8098C37.9533 48.1453 37.704 48.5863 37.8287 49.4779C37.8478 49.6217 37.8287 49.775 37.8191 49.9188C37.7616 50.6858 37.3206 51.1939 36.6879 51.1939C36.0647 51.1939 35.6046 50.7049 35.5471 49.9284C35.5279 49.6312 35.5375 49.3436 35.5375 49.0465C35.5279 48.7589 35.5279 48.4904 35.5279 48.1837Z" fill="#FFA048"/>
</g>
<defs>
<clipPath id="clip0_3324_2785">
<rect width="48" height="48" fill="white" transform="translate(16 16)"/>
</clipPath>
</defs>
</svg>
